<svg width="472" height="232" viewBox="0 0 472 232" fill="none" xmlns="http://www.w3.org/2000/svg">
<rect width="472" height="232" rx="8" fill="#F0F0F0"/>
<rect x="24" y="24" width="24" height="24" rx="12" fill="#567FEF"/>
<path fill-rule="evenodd" clip-rule="evenodd" d="M42.5967 29.855C42.8839 30.0465 42.9615 30.4345 42.77 30.7217L35.27 41.9717C35.1662 42.1276 34.9979 42.2286 34.8116 42.247C34.6252 42.2655 34.4405 42.1994 34.3081 42.067L29.3081 37.067C29.064 36.8229 29.064 36.4272 29.3081 36.1831C29.5521 35.9391 29.9479 35.9391 30.1919 36.1831L34.6528 40.6441L41.73 30.0284C41.9214 29.7412 42.3095 29.6636 42.5967 29.855Z" fill="white"/>
<rect x="80" y="24" width="24" height="24" rx="12" fill="white"/>
<rect x="80.5" y="24.5" width="23" height="23" rx="11.5" stroke="#888888" stroke-opacity="0.5"/>
<rect x="24" y="72" width="24" height="24" rx="8" fill="#567FEF"/>
<path fill-rule="evenodd" clip-rule="evenodd" d="M42.5967 77.855C42.8839 78.0465 42.9615 78.4345 42.77 78.7217L35.27 89.9717C35.1662 90.1276 34.9979 90.2286 34.8116 90.247C34.6252 90.2655 34.4405 90.1994 34.3081 90.067L29.3081 85.067C29.064 84.8229 29.064 84.4272 29.3081 84.1831C29.5521 83.9391 29.9479 83.9391 30.1919 84.1831L34.6528 88.6441L41.73 78.0284C41.9214 77.7412 42.3095 77.6636 42.5967 77.855Z" fill="white"/>
<rect x="80" y="72" width="24" height="24" rx="8" fill="white"/>
<rect x="80.5" y="72.5" width="23" height="23" rx="7.5" stroke="#888888" stroke-opacity="0.5"/>
<g filter="url(#filter0_d_145_1492)">
<rect x="24" y="120" width="32" height="32" rx="8" fill="url(#paint0_linear_145_1492)"/>
</g>
<path fill-rule="evenodd" clip-rule="evenodd" d="M49.2353 127.397C49.6375 127.665 49.7461 128.208 49.478 128.61L38.978 144.36C38.8326 144.579 38.5971 144.72 38.3362 144.746C38.0753 144.772 37.8167 144.679 37.6313 144.494L30.6313 137.494C30.2896 137.152 30.2896 136.598 30.6313 136.256C30.973 135.915 31.527 135.915 31.8687 136.256L38.114 142.502L48.022 127.64C48.29 127.238 48.8333 127.129 49.2353 127.397Z" fill="white"/>
<g filter="url(#filter1_i_145_1492)">
<rect x="93.5" y="120.5" width="31" height="31" rx="7.5" fill="white" stroke="#DFDFDF"/>
</g>
<rect x="24" y="176" width="32" height="32" rx="8" fill="#C1B6E2"/>
<path fill-rule="evenodd" clip-rule="evenodd" d="M49.2353 183.397C49.6375 183.665 49.7461 184.208 49.478 184.61L38.978 200.36C38.8326 200.579 38.5971 200.72 38.3362 200.746C38.0753 200.772 37.8167 200.679 37.6313 200.494L30.6313 193.494C30.2896 193.152 30.2896 192.598 30.6313 192.256C30.973 191.915 31.527 191.915 31.8687 192.256L38.114 198.502L48.022 183.64C48.29 183.238 48.8333 183.129 49.2353 183.397Z" fill="#632AFF"/>
<rect x="94" y="177" width="30" height="30" rx="7" fill="#636272" stroke="#C1B6E2" stroke-width="2"/>
<rect x="408" y="24" width="40" height="24" rx="12" fill="#567FEF"/>
<g filter="url(#filter2_d_145_1492)">
<rect x="426" y="28" width="16" height="16" rx="8" fill="white"/>
</g>
<path d="M222.605 41H221.128L225.401 29.3636H226.855L231.128 41H229.651L226.173 31.2045H226.082L222.605 41ZM223.151 36.4545H229.105V37.7045H223.151V36.4545ZM239.204 41.1818C238.386 41.1818 237.681 40.9886 237.09 40.6023C236.499 40.2159 236.045 39.6837 235.727 39.0057C235.409 38.3277 235.249 37.553 235.249 36.6818C235.249 35.7955 235.412 35.0133 235.738 34.3352C236.068 33.6534 236.526 33.1212 237.113 32.7386C237.704 32.3523 238.393 32.1591 239.181 32.1591C239.795 32.1591 240.348 32.2727 240.84 32.5C241.333 32.7273 241.736 33.0455 242.051 33.4545C242.365 33.8636 242.56 34.3409 242.636 34.8864H241.295C241.193 34.4886 240.965 34.1364 240.613 33.8295C240.265 33.5189 239.795 33.3636 239.204 33.3636C238.681 33.3636 238.223 33.5 237.829 33.7727C237.439 34.0417 237.134 34.4223 236.914 34.9148C236.698 35.4034 236.59 35.9773 236.59 36.6364C236.59 37.3106 236.696 37.8977 236.909 38.3977C237.124 38.8977 237.427 39.286 237.818 39.5625C238.212 39.839 238.674 39.9773 239.204 39.9773C239.552 39.9773 239.869 39.9167 240.153 39.7955C240.437 39.6742 240.677 39.5 240.874 39.2727C241.071 39.0455 241.212 38.7727 241.295 38.4545H242.636C242.56 38.9697 242.373 39.4337 242.073 39.8466C241.778 40.2557 241.386 40.5814 240.897 40.8239C240.412 41.0625 239.848 41.1818 239.204 41.1818ZM245.137 35.75V41H243.796V29.3636H245.137V33.6364H245.251C245.455 33.1856 245.762 32.8277 246.171 32.5625C246.584 32.2936 247.133 32.1591 247.819 32.1591C248.413 32.1591 248.934 32.2784 249.381 32.517C249.828 32.7519 250.175 33.1136 250.421 33.6023C250.671 34.0871 250.796 34.7045 250.796 35.4545V41H249.455V35.5455C249.455 34.8523 249.275 34.3163 248.915 33.9375C248.559 33.5549 248.065 33.3636 247.432 33.3636C246.993 33.3636 246.599 33.4564 246.251 33.642C245.906 33.8277 245.633 34.0985 245.432 34.4545C245.235 34.8106 245.137 35.2424 245.137 35.75ZM256.108 41.1818C255.267 41.1818 254.542 40.9962 253.932 40.625C253.326 40.25 252.858 39.7273 252.529 39.0568C252.203 38.3826 252.04 37.5985 252.04 36.7045C252.04 35.8106 252.203 35.0227 252.529 34.3409C252.858 33.6553 253.317 33.1212 253.904 32.7386C254.495 32.3523 255.184 32.1591 255.972 32.1591C256.426 32.1591 256.875 32.2348 257.318 32.3864C257.762 32.5379 258.165 32.7841 258.529 33.125C258.892 33.4621 259.182 33.9091 259.398 34.4659C259.614 35.0227 259.722 35.7083 259.722 36.5227V37.0909H252.995V35.9318H258.358C258.358 35.4394 258.26 35 258.063 34.6136C257.87 34.2273 257.593 33.9223 257.233 33.6989C256.877 33.4754 256.457 33.3636 255.972 33.3636C255.438 33.3636 254.976 33.4962 254.586 33.7614C254.199 34.0227 253.902 34.3636 253.693 34.7841C253.485 35.2045 253.381 35.6553 253.381 36.1364V36.9091C253.381 37.5682 253.495 38.1269 253.722 38.5852C253.953 39.0398 254.273 39.3864 254.682 39.625C255.091 39.8598 255.567 39.9773 256.108 39.9773C256.461 39.9773 256.779 39.928 257.063 39.8295C257.351 39.7273 257.599 39.5758 257.807 39.375C258.015 39.1705 258.176 38.9167 258.29 38.6136L259.586 38.9773C259.449 39.4167 259.22 39.803 258.898 40.1364C258.576 40.4659 258.178 40.7235 257.705 40.9091C257.231 41.0909 256.699 41.1818 256.108 41.1818ZM264.507 41.1818C263.689 41.1818 262.984 40.9886 262.393 40.6023C261.803 40.2159 261.348 39.6837 261.03 39.0057C260.712 38.3277 260.553 37.553 260.553 36.6818C260.553 35.7955 260.715 35.0133 261.041 34.3352C261.371 33.6534 261.829 33.1212 262.416 32.7386C263.007 32.3523 263.696 32.1591 264.484 32.1591C265.098 32.1591 265.651 32.2727 266.143 32.5C266.636 32.7273 267.039 33.0455 267.354 33.4545C267.668 33.8636 267.863 34.3409 267.939 34.8864H266.598C266.496 34.4886 266.268 34.1364 265.916 33.8295C265.568 33.5189 265.098 33.3636 264.507 33.3636C263.984 33.3636 263.526 33.5 263.132 33.7727C262.742 34.0417 262.437 34.4223 262.217 34.9148C262.001 35.4034 261.893 35.9773 261.893 36.6364C261.893 37.3106 262 37.8977 262.212 38.3977C262.428 38.8977 262.731 39.286 263.121 39.5625C263.515 39.839 263.977 39.9773 264.507 39.9773C264.856 39.9773 265.172 39.9167 265.456 39.7955C265.74 39.6742 265.981 39.5 266.178 39.2727C266.375 39.0455 266.515 38.7727 266.598 38.4545H267.939C267.863 38.9697 267.676 39.4337 267.376 39.8466C267.081 40.2557 266.689 40.5814 266.2 40.8239C265.715 41.0625 265.151 41.1818 264.507 41.1818ZM270.349 37.8182L270.326 36.1591H270.599L274.417 32.2727H276.076L272.008 36.3864H271.895L270.349 37.8182ZM269.099 41V29.3636H270.44V41H269.099ZM274.645 41L271.236 36.6818L272.19 35.75L276.349 41H274.645ZM277.184 41V29.3636H278.525V33.6591H278.639C278.737 33.5076 278.873 33.3144 279.048 33.0795C279.226 32.8409 279.48 32.6288 279.809 32.4432C280.142 32.2538 280.593 32.1591 281.161 32.1591C281.896 32.1591 282.544 32.3428 283.105 32.7102C283.665 33.0777 284.103 33.5985 284.417 34.2727C284.731 34.947 284.889 35.7424 284.889 36.6591C284.889 37.5833 284.731 38.3845 284.417 39.0625C284.103 39.7367 283.667 40.2595 283.11 40.6307C282.553 40.9981 281.911 41.1818 281.184 41.1818C280.623 41.1818 280.175 41.089 279.838 40.9034C279.5 40.714 279.241 40.5 279.059 40.2614C278.877 40.0189 278.737 39.8182 278.639 39.6591H278.48V41H277.184ZM278.502 36.6364C278.502 37.2955 278.599 37.8769 278.792 38.3807C278.985 38.8807 279.267 39.2727 279.639 39.5568C280.01 39.8371 280.464 39.9773 281.002 39.9773C281.563 39.9773 282.031 39.8295 282.406 39.5341C282.784 39.2348 283.069 38.8333 283.258 38.3295C283.451 37.822 283.548 37.2576 283.548 36.6364C283.548 36.0227 283.453 35.4697 283.264 34.9773C283.078 34.4811 282.796 34.089 282.417 33.8011C282.042 33.5095 281.57 33.3636 281.002 33.3636C280.457 33.3636 279.998 33.5019 279.627 33.7784C279.256 34.0511 278.976 34.4337 278.786 34.9261C278.597 35.4148 278.502 35.9848 278.502 36.6364ZM289.685 41.1818C288.897 41.1818 288.206 40.9943 287.611 40.6193C287.02 40.2443 286.558 39.7197 286.225 39.0455C285.895 38.3712 285.731 37.5833 285.731 36.6818C285.731 35.7727 285.895 34.9792 286.225 34.3011C286.558 33.6231 287.02 33.0966 287.611 32.7216C288.206 32.3466 288.897 32.1591 289.685 32.1591C290.473 32.1591 291.162 32.3466 291.753 32.7216C292.348 33.0966 292.81 33.6231 293.14 34.3011C293.473 34.9792 293.64 35.7727 293.64 36.6818C293.64 37.5833 293.473 38.3712 293.14 39.0455C292.81 39.7197 292.348 40.2443 291.753 40.6193C291.162 40.9943 290.473 41.1818 289.685 41.1818ZM289.685 39.9773C290.284 39.9773 290.776 39.8239 291.162 39.517C291.549 39.2102 291.835 38.8068 292.02 38.3068C292.206 37.8068 292.299 37.2652 292.299 36.6818C292.299 36.0985 292.206 35.5549 292.02 35.0511C291.835 34.5473 291.549 34.1402 291.162 33.8295C290.776 33.5189 290.284 33.3636 289.685 33.3636C289.087 33.3636 288.594 33.5189 288.208 33.8295C287.822 34.1402 287.536 34.5473 287.35 35.0511C287.164 35.5549 287.072 36.0985 287.072 36.6818C287.072 37.2652 287.164 37.8068 287.35 38.3068C287.536 38.8068 287.822 39.2102 288.208 39.517C288.594 39.8239 289.087 39.9773 289.685 39.9773ZM295.527 32.2727L297.618 35.8409L299.709 32.2727H301.255L298.436 36.6364L301.255 41H299.709L297.618 37.6136L295.527 41H293.982L296.755 36.6364L293.982 32.2727H295.527ZM308.045 41L305.386 32.2727H306.795L308.682 38.9545H308.772L310.636 32.2727H312.068L313.909 38.9318H314L315.886 32.2727H317.295L314.636 41H313.318L311.409 34.2955H311.272L309.363 41H308.045ZM318.268 41V32.2727H319.609V41H318.268ZM318.95 30.8182C318.688 30.8182 318.463 30.7292 318.274 30.5511C318.088 30.3731 317.995 30.1591 317.995 29.9091C317.995 29.6591 318.088 29.4451 318.274 29.267C318.463 29.089 318.688 29 318.95 29C319.211 29 319.435 29.089 319.62 29.267C319.81 29.4451 319.904 29.6591 319.904 29.9091C319.904 30.1591 319.81 30.3731 319.62 30.5511C319.435 30.7292 319.211 30.8182 318.95 30.8182ZM325.06 32.2727V33.4091H320.537V32.2727H325.06ZM321.856 30.1818H323.197V38.5C323.197 38.8788 323.252 39.1629 323.361 39.3523C323.475 39.5379 323.619 39.6629 323.793 39.7273C323.971 39.7879 324.159 39.8182 324.356 39.8182C324.503 39.8182 324.625 39.8106 324.719 39.7955C324.814 39.7765 324.89 39.7614 324.947 39.75L325.219 40.9545C325.128 40.9886 325.002 41.0227 324.839 41.0568C324.676 41.0947 324.469 41.1136 324.219 41.1136C323.841 41.1136 323.469 41.0322 323.106 40.8693C322.746 40.7064 322.447 40.4583 322.208 40.125C321.973 39.7917 321.856 39.3712 321.856 38.8636V30.1818ZM327.806 35.75V41H326.465V29.3636H327.806V33.6364H327.919C328.124 33.1856 328.431 32.8277 328.84 32.5625C329.253 32.2936 329.802 32.1591 330.488 32.1591C331.082 32.1591 331.603 32.2784 332.05 32.517C332.497 32.7519 332.844 33.1136 333.09 33.6023C333.34 34.0871 333.465 34.7045 333.465 35.4545V41H332.124V35.5455C332.124 34.8523 331.944 34.3163 331.584 33.9375C331.228 33.5549 330.734 33.3636 330.101 33.3636C329.662 33.3636 329.268 33.4564 328.919 33.642C328.575 33.8277 328.302 34.0985 328.101 34.4545C327.904 34.8106 327.806 35.2424 327.806 35.75ZM342.613 32.2727V33.4091H338.091V32.2727H342.613ZM339.409 30.1818H340.75V38.5C340.75 38.8788 340.805 39.1629 340.914 39.3523C341.028 39.5379 341.172 39.6629 341.346 39.7273C341.524 39.7879 341.712 39.8182 341.909 39.8182C342.057 39.8182 342.178 39.8106 342.272 39.7955C342.367 39.7765 342.443 39.7614 342.5 39.75L342.772 40.9545C342.682 40.9886 342.555 41.0227 342.392 41.0568C342.229 41.0947 342.022 41.1136 341.772 41.1136C341.394 41.1136 341.022 41.0322 340.659 40.8693C340.299 40.7064 340 40.4583 339.761 40.125C339.526 39.7917 339.409 39.3712 339.409 38.8636V30.1818ZM347.396 41.1818C346.555 41.1818 345.829 40.9962 345.22 40.625C344.614 40.25 344.146 39.7273 343.816 39.0568C343.49 38.3826 343.328 37.5985 343.328 36.7045C343.328 35.8106 343.49 35.0227 343.816 34.3409C344.146 33.6553 344.604 33.1212 345.191 32.7386C345.782 32.3523 346.471 32.1591 347.259 32.1591C347.714 32.1591 348.163 32.2348 348.606 32.3864C349.049 32.5379 349.453 32.7841 349.816 33.125C350.18 33.4621 350.47 33.9091 350.686 34.4659C350.901 35.0227 351.009 35.7083 351.009 36.5227V37.0909H344.282V35.9318H349.646C349.646 35.4394 349.547 35 349.35 34.6136C349.157 34.2273 348.881 33.9223 348.521 33.6989C348.165 33.4754 347.744 33.3636 347.259 33.3636C346.725 33.3636 346.263 33.4962 345.873 33.7614C345.487 34.0227 345.189 34.3636 344.981 34.7841C344.773 35.2045 344.668 35.6553 344.668 36.1364V36.9091C344.668 37.5682 344.782 38.1269 345.009 38.5852C345.24 39.0398 345.561 39.3864 345.97 39.625C346.379 39.8598 346.854 39.9773 347.396 39.9773C347.748 39.9773 348.066 39.928 348.35 39.8295C348.638 39.7273 348.886 39.5758 349.095 39.375C349.303 39.1705 349.464 38.9167 349.578 38.6136L350.873 38.9773C350.737 39.4167 350.507 39.803 350.186 40.1364C349.864 40.4659 349.466 40.7235 348.992 40.9091C348.519 41.0909 347.987 41.1818 347.396 41.1818ZM353.015 32.2727L355.106 35.8409L357.197 32.2727H358.742L355.924 36.6364L358.742 41H357.197L355.106 37.6136L353.015 41H351.469L354.242 36.6364L351.469 32.2727H353.015ZM363.651 32.2727V33.4091H359.128V32.2727H363.651ZM360.446 30.1818H361.787V38.5C361.787 38.8788 361.842 39.1629 361.952 39.3523C362.066 39.5379 362.21 39.6629 362.384 39.7273C362.562 39.7879 362.749 39.8182 362.946 39.8182C363.094 39.8182 363.215 39.8106 363.31 39.7955C363.405 39.7765 363.48 39.7614 363.537 39.75L363.81 40.9545C363.719 40.9886 363.592 41.0227 363.429 41.0568C363.266 41.0947 363.06 41.1136 362.81 41.1136C362.431 41.1136 362.06 41.0322 361.696 40.8693C361.336 40.7064 361.037 40.4583 360.799 40.125C360.564 39.7917 360.446 39.3712 360.446 38.8636V30.1818ZM369.909 29.3636V41H368.568V29.3636H369.909ZM374.133 41.2045C373.58 41.2045 373.078 41.1004 372.627 40.892C372.177 40.6799 371.819 40.375 371.553 39.9773C371.288 39.5758 371.156 39.0909 371.156 38.5227C371.156 38.0227 371.254 37.6174 371.451 37.3068C371.648 36.9924 371.911 36.7462 372.241 36.5682C372.57 36.3902 372.934 36.2576 373.332 36.1705C373.733 36.0795 374.137 36.0076 374.542 35.9545C375.072 35.8864 375.502 35.8352 375.832 35.8011C376.165 35.7633 376.408 35.7008 376.559 35.6136C376.714 35.5265 376.792 35.375 376.792 35.1591V35.1136C376.792 34.553 376.639 34.1174 376.332 33.8068C376.029 33.4962 375.569 33.3409 374.951 33.3409C374.311 33.3409 373.809 33.4811 373.445 33.7614C373.082 34.0417 372.826 34.3409 372.678 34.6591L371.406 34.2045C371.633 33.6742 371.936 33.2614 372.315 32.9659C372.697 32.6667 373.114 32.4583 373.565 32.3409C374.019 32.2197 374.466 32.1591 374.906 32.1591C375.186 32.1591 375.508 32.1932 375.872 32.2614C376.239 32.3258 376.593 32.4602 376.934 32.6648C377.279 32.8693 377.565 33.178 377.792 33.5909C378.019 34.0038 378.133 34.5568 378.133 35.25V41H376.792V39.8182H376.724C376.633 40.0076 376.481 40.2102 376.269 40.4261C376.057 40.642 375.775 40.8258 375.423 40.9773C375.07 41.1288 374.641 41.2045 374.133 41.2045ZM374.337 40C374.868 40 375.315 39.8958 375.678 39.6875C376.046 39.4792 376.322 39.2102 376.508 38.8807C376.697 38.5511 376.792 38.2045 376.792 37.8409V36.6136C376.735 36.6818 376.61 36.7443 376.417 36.8011C376.228 36.8542 376.008 36.9015 375.758 36.9432C375.512 36.9811 375.271 37.0152 375.036 37.0455C374.805 37.072 374.618 37.0947 374.474 37.1136C374.125 37.1591 373.8 37.233 373.497 37.3352C373.197 37.4337 372.955 37.5833 372.769 37.7841C372.587 37.9811 372.497 38.25 372.497 38.5909C372.497 39.0568 372.669 39.4091 373.014 39.6477C373.362 39.8826 373.803 40 374.337 40ZM379.962 41V29.3636H381.303V33.6591H381.417C381.515 33.5076 381.652 33.3144 381.826 33.0795C382.004 32.8409 382.258 32.6288 382.587 32.4432C382.921 32.2538 383.371 32.1591 383.939 32.1591C384.674 32.1591 385.322 32.3428 385.883 32.7102C386.443 33.0777 386.881 33.5985 387.195 34.2727C387.51 34.947 387.667 35.7424 387.667 36.6591C387.667 37.5833 387.51 38.3845 387.195 39.0625C386.881 39.7367 386.445 40.2595 385.888 40.6307C385.332 40.9981 384.689 41.1818 383.962 41.1818C383.402 41.1818 382.953 41.089 382.616 40.9034C382.279 40.714 382.019 40.5 381.837 40.2614C381.655 40.0189 381.515 39.8182 381.417 39.6591H381.258V41H379.962ZM381.28 36.6364C381.28 37.2955 381.377 37.8769 381.57 38.3807C381.763 38.8807 382.046 39.2727 382.417 39.5568C382.788 39.8371 383.243 39.9773 383.78 39.9773C384.341 39.9773 384.809 39.8295 385.184 39.5341C385.563 39.2348 385.847 38.8333 386.036 38.3295C386.229 37.822 386.326 37.2576 386.326 36.6364C386.326 36.0227 386.231 35.4697 386.042 34.9773C385.856 34.4811 385.574 34.089 385.195 33.8011C384.82 33.5095 384.349 33.3636 383.78 33.3636C383.235 33.3636 382.777 33.5019 382.405 33.7784C382.034 34.0511 381.754 34.4337 381.564 34.9261C381.375 35.4148 381.28 35.9848 381.28 36.6364ZM392.577 41.1818C391.736 41.1818 391.011 40.9962 390.401 40.625C389.795 40.25 389.327 39.7273 388.997 39.0568C388.672 38.3826 388.509 37.5985 388.509 36.7045C388.509 35.8106 388.672 35.0227 388.997 34.3409C389.327 33.6553 389.785 33.1212 390.372 32.7386C390.963 32.3523 391.653 32.1591 392.441 32.1591C392.895 32.1591 393.344 32.2348 393.787 32.3864C394.23 32.5379 394.634 32.7841 394.997 33.125C395.361 33.4621 395.651 33.9091 395.867 34.4659C396.083 35.0227 396.191 35.7083 396.191 36.5227V37.0909H389.463V35.9318H394.827C394.827 35.4394 394.729 35 394.532 34.6136C394.338 34.2273 394.062 33.9223 393.702 33.6989C393.346 33.4754 392.925 33.3636 392.441 33.3636C391.907 33.3636 391.444 33.4962 391.054 33.7614C390.668 34.0227 390.371 34.3636 390.162 34.7841C389.954 35.2045 389.85 35.6553 389.85 36.1364V36.9091C389.85 37.5682 389.963 38.1269 390.191 38.5852C390.422 39.0398 390.742 39.3864 391.151 39.625C391.56 39.8598 392.035 39.9773 392.577 39.9773C392.929 39.9773 393.247 39.928 393.532 39.8295C393.819 39.7273 394.068 39.5758 394.276 39.375C394.484 39.1705 394.645 38.9167 394.759 38.6136L396.054 38.9773C395.918 39.4167 395.689 39.803 395.367 40.1364C395.045 40.4659 394.647 40.7235 394.174 40.9091C393.7 41.0909 393.168 41.1818 392.577 41.1818ZM398.771 29.3636V41H397.43V29.3636H398.771Z" fill="#303030"/>
<rect x="0.5" y="0.5" width="471" height="231" rx="7.5" stroke="white" stroke-opacity="0.1"/>
<defs>
<filter id="filter0_d_145_1492" x="21" y="119" width="38" height="38" filterUnits="userSpaceOnUse" color-interpolation-filters="sRGB">
<feFlood flood-opacity="0" result="BackgroundImageFix"/>
<feColorMatrix in="SourceAlpha" type="matrix" values="0 0 0 0 0 0 0 0 0 0 0 0 0 0 0 0 0 0 127 0" result="hardAlpha"/>
<feOffset dy="2"/>
<feGaussianBlur stdDeviation="1.5"/>
<feComposite in2="hardAlpha" operator="out"/>
<feColorMatrix type="matrix" values="0 0 0 0 0 0 0 0 0 0.501961 0 0 0 0 1 0 0 0 0.2 0"/>
<feBlend mode="normal" in2="BackgroundImageFix" result="effect1_dropShadow_145_1492"/>
<feBlend mode="normal" in="SourceGraphic" in2="effect1_dropShadow_145_1492" result="shape"/>
</filter>
<filter id="filter1_i_145_1492" x="93" y="120" width="32" height="34" filterUnits="userSpaceOnUse" color-interpolation-filters="sRGB">
<feFlood flood-opacity="0" result="BackgroundImageFix"/>
<feBlend mode="normal" in="SourceGraphic" in2="BackgroundImageFix" result="shape"/>
<feColorMatrix in="SourceAlpha" type="matrix" values="0 0 0 0 0 0 0 0 0 0 0 0 0 0 0 0 0 0 127 0" result="hardAlpha"/>
<feOffset dy="2"/>
<feGaussianBlur stdDeviation="1"/>
<feComposite in2="hardAlpha" operator="arithmetic" k2="-1" k3="1"/>
<feColorMatrix type="matrix" values="0 0 0 0 0 0 0 0 0 0 0 0 0 0 0 0 0 0 0.17 0"/>
<feBlend mode="normal" in2="shape" result="effect1_innerShadow_145_1492"/>
</filter>
<filter id="filter2_d_145_1492" x="422" y="24" width="24" height="24" filterUnits="userSpaceOnUse" color-interpolation-filters="sRGB">
<feFlood flood-opacity="0" result="BackgroundImageFix"/>
<feColorMatrix in="SourceAlpha" type="matrix" values="0 0 0 0 0 0 0 0 0 0 0 0 0 0 0 0 0 0 127 0" result="hardAlpha"/>
<feOffset/>
<feGaussianBlur stdDeviation="2"/>
<feComposite in2="hardAlpha" operator="out"/>
<feColorMatrix type="matrix" values="0 0 0 0 0 0 0 0 0 0 0 0 0 0 0 0 0 0 0.25 0"/>
<feBlend mode="normal" in2="BackgroundImageFix" result="effect1_dropShadow_145_1492"/>
<feBlend mode="normal" in="SourceGraphic" in2="effect1_dropShadow_145_1492" result="shape"/>
</filter>
<linearGradient id="paint0_linear_145_1492" x1="40" y1="120" x2="40" y2="152" gradientUnits="userSpaceOnUse">
<stop stop-color="#0080FF"/>
<stop offset="1" stop-color="#0066F5"/>
</linearGradient>
</defs>
</svg>
