<svg width="472" height="232" viewBox="0 0 472 232" fill="none" xmlns="http://www.w3.org/2000/svg">
<rect width="472" height="232" rx="8" fill="#F0F0F0"/>
<rect x="24" y="24" width="48" height="28" rx="14" fill="#567FEF"/>
<g filter="url(#filter0_d_145_1462)">
<rect x="47" y="27" width="22" height="22" rx="11" fill="white"/>
</g>
<rect x="80" y="24" width="48" height="28" rx="14" fill="#D3D3D3"/>
<g filter="url(#filter1_d_145_1462)">
<rect x="83" y="27" width="22" height="22" rx="11" fill="white"/>
</g>
<rect x="24" y="72" width="48" height="28" rx="14" fill="#00D85B"/>
<g filter="url(#filter2_d_145_1462)">
<rect x="47" y="75" width="22" height="22" rx="11" fill="white"/>
</g>
<rect x="80" y="72" width="48" height="28" rx="14" fill="#D3D3D3"/>
<g filter="url(#filter3_d_145_1462)">
<rect x="83" y="75" width="22" height="22" rx="11" fill="white"/>
</g>
<rect x="24" y="120" width="52" height="32" rx="16" fill="#00D85B"/>
<g filter="url(#filter4_d_145_1462)">
<rect x="46" y="122" width="28" height="28" rx="14" fill="white"/>
</g>
<rect x="93" y="120" width="52" height="32" rx="16" fill="#D3D3D3"/>
<g filter="url(#filter5_d_145_1462)">
<rect x="96" y="122" width="28" height="28" rx="14" fill="white"/>
</g>
<rect x="24" y="176" width="52" height="32" rx="16" fill="#C1B6E2"/>
<rect x="48" y="180" width="24" height="24" rx="12" fill="#5D36F8"/>
<rect x="94" y="177" width="50" height="30" rx="15" fill="#636272" stroke="#C1B6E2" stroke-width="2"/>
<rect x="101" y="184" width="16" height="16" rx="8" fill="#C1B6E2"/>
<rect x="408" y="24" width="40" height="24" rx="12" fill="#567FEF"/>
<g filter="url(#filter6_d_145_1462)">
<rect x="426" y="28" width="16" height="16" rx="8" fill="white"/>
</g>
<path d="M243.886 41H242.409L246.682 29.3636H248.136L252.409 41H250.932L247.455 31.2045H247.364L243.886 41ZM244.432 36.4545H250.386V37.7045H244.432V36.4545ZM263.122 34.2273L261.917 34.5682C261.841 34.3674 261.73 34.1723 261.582 33.983C261.438 33.7898 261.241 33.6307 260.991 33.5057C260.741 33.3807 260.421 33.3182 260.031 33.3182C259.497 33.3182 259.052 33.4413 258.695 33.6875C258.343 33.9299 258.167 34.2386 258.167 34.6136C258.167 34.947 258.288 35.2102 258.531 35.4034C258.773 35.5966 259.152 35.7576 259.667 35.8864L260.962 36.2045C261.743 36.3939 262.324 36.6837 262.707 37.0739C263.089 37.4602 263.281 37.9583 263.281 38.5682C263.281 39.0682 263.137 39.5152 262.849 39.9091C262.565 40.303 262.167 40.6136 261.656 40.8409C261.144 41.0682 260.55 41.1818 259.872 41.1818C258.981 41.1818 258.245 40.9886 257.661 40.6023C257.078 40.2159 256.709 39.6515 256.553 38.9091L257.826 38.5909C257.947 39.0606 258.177 39.4129 258.514 39.6477C258.855 39.8826 259.3 40 259.849 40C260.474 40 260.97 39.8674 261.337 39.6023C261.709 39.3333 261.894 39.0114 261.894 38.6364C261.894 38.3333 261.788 38.0795 261.576 37.875C261.364 37.6667 261.038 37.5114 260.599 37.4091L259.144 37.0682C258.345 36.8788 257.758 36.5852 257.383 36.1875C257.012 35.786 256.826 35.2841 256.826 34.6818C256.826 34.1894 256.964 33.7538 257.241 33.375C257.521 32.9962 257.902 32.6989 258.383 32.483C258.868 32.267 259.417 32.1591 260.031 32.1591C260.894 32.1591 261.572 32.3485 262.065 32.7273C262.561 33.1061 262.913 33.6061 263.122 34.2273ZM266.476 41L263.817 32.2727H265.226L267.113 38.9545H267.204L269.067 32.2727H270.499L272.34 38.9318H272.431L274.317 32.2727H275.726L273.067 41H271.749L269.84 34.2955H269.704L267.795 41H266.476ZM276.699 41V32.2727H278.04V41H276.699ZM277.381 30.8182C277.12 30.8182 276.894 30.7292 276.705 30.5511C276.519 30.3731 276.426 30.1591 276.426 29.9091C276.426 29.6591 276.519 29.4451 276.705 29.267C276.894 29.089 277.12 29 277.381 29C277.642 29 277.866 29.089 278.051 29.267C278.241 29.4451 278.336 29.6591 278.336 29.9091C278.336 30.1591 278.241 30.3731 278.051 30.5511C277.866 30.7292 277.642 30.8182 277.381 30.8182ZM283.491 32.2727V33.4091H278.969V32.2727H283.491ZM280.287 30.1818H281.628V38.5C281.628 38.8788 281.683 39.1629 281.793 39.3523C281.906 39.5379 282.05 39.6629 282.224 39.7273C282.402 39.7879 282.59 39.8182 282.787 39.8182C282.935 39.8182 283.056 39.8106 283.151 39.7955C283.245 39.7765 283.321 39.7614 283.378 39.75L283.651 40.9545C283.56 40.9886 283.433 41.0227 283.27 41.0568C283.107 41.0947 282.901 41.1136 282.651 41.1136C282.272 41.1136 281.901 41.0322 281.537 40.8693C281.177 40.7064 280.878 40.4583 280.639 40.125C280.404 39.7917 280.287 39.3712 280.287 38.8636V30.1818ZM288.16 41.1818C287.342 41.1818 286.638 40.9886 286.047 40.6023C285.456 40.2159 285.001 39.6837 284.683 39.0057C284.365 38.3277 284.206 37.553 284.206 36.6818C284.206 35.7955 284.369 35.0133 284.694 34.3352C285.024 33.6534 285.482 33.1212 286.069 32.7386C286.66 32.3523 287.35 32.1591 288.138 32.1591C288.751 32.1591 289.304 32.2727 289.797 32.5C290.289 32.7273 290.692 33.0455 291.007 33.4545C291.321 33.8636 291.516 34.3409 291.592 34.8864H290.251C290.149 34.4886 289.922 34.1364 289.569 33.8295C289.221 33.5189 288.751 33.3636 288.16 33.3636C287.638 33.3636 287.179 33.5 286.785 33.7727C286.395 34.0417 286.09 34.4223 285.87 34.9148C285.655 35.4034 285.547 35.9773 285.547 36.6364C285.547 37.3106 285.653 37.8977 285.865 38.3977C286.081 38.8977 286.384 39.286 286.774 39.5625C287.168 39.839 287.63 39.9773 288.16 39.9773C288.509 39.9773 288.825 39.9167 289.109 39.7955C289.393 39.6742 289.634 39.5 289.831 39.2727C290.028 39.0455 290.168 38.7727 290.251 38.4545H291.592C291.516 38.9697 291.329 39.4337 291.03 39.8466C290.734 40.2557 290.342 40.5814 289.853 40.8239C289.369 41.0625 288.804 41.1818 288.16 41.1818ZM294.093 35.75V41H292.752V29.3636H294.093V33.6364H294.207C294.411 33.1856 294.718 32.8277 295.127 32.5625C295.54 32.2936 296.089 32.1591 296.775 32.1591C297.37 32.1591 297.891 32.2784 298.338 32.517C298.784 32.7519 299.131 33.1136 299.377 33.6023C299.627 34.0871 299.752 34.7045 299.752 35.4545V41H298.411V35.5455C298.411 34.8523 298.231 34.3163 297.872 33.9375C297.516 33.5549 297.021 33.3636 296.389 33.3636C295.949 33.3636 295.555 33.4564 295.207 33.642C294.862 33.8277 294.589 34.0985 294.389 34.4545C294.192 34.8106 294.093 35.2424 294.093 35.75ZM307.083 41L304.424 32.2727H305.833L307.719 38.9545H307.81L309.674 32.2727H311.105L312.946 38.9318H313.037L314.924 32.2727H316.333L313.674 41H312.355L310.446 34.2955H310.31L308.401 41H307.083ZM317.305 41V32.2727H318.646V41H317.305ZM317.987 30.8182C317.726 30.8182 317.5 30.7292 317.311 30.5511C317.125 30.3731 317.033 30.1591 317.033 29.9091C317.033 29.6591 317.125 29.4451 317.311 29.267C317.5 29.089 317.726 29 317.987 29C318.249 29 318.472 29.089 318.658 29.267C318.847 29.4451 318.942 29.6591 318.942 29.9091C318.942 30.1591 318.847 30.3731 318.658 30.5511C318.472 30.7292 318.249 30.8182 317.987 30.8182ZM324.098 32.2727V33.4091H319.575V32.2727H324.098ZM320.893 30.1818H322.234V38.5C322.234 38.8788 322.289 39.1629 322.399 39.3523C322.512 39.5379 322.656 39.6629 322.831 39.7273C323.009 39.7879 323.196 39.8182 323.393 39.8182C323.541 39.8182 323.662 39.8106 323.757 39.7955C323.852 39.7765 323.927 39.7614 323.984 39.75L324.257 40.9545C324.166 40.9886 324.039 41.0227 323.876 41.0568C323.713 41.0947 323.507 41.1136 323.257 41.1136C322.878 41.1136 322.507 41.0322 322.143 40.8693C321.783 40.7064 321.484 40.4583 321.245 40.125C321.011 39.7917 320.893 39.3712 320.893 38.8636V30.1818ZM326.843 35.75V41H325.502V29.3636H326.843V33.6364H326.957C327.161 33.1856 327.468 32.8277 327.877 32.5625C328.29 32.2936 328.839 32.1591 329.525 32.1591C330.12 32.1591 330.641 32.2784 331.088 32.517C331.534 32.7519 331.881 33.1136 332.127 33.6023C332.377 34.0871 332.502 34.7045 332.502 35.4545V41H331.161V35.5455C331.161 34.8523 330.981 34.3163 330.622 33.9375C330.266 33.5549 329.771 33.3636 329.139 33.3636C328.699 33.3636 328.305 33.4564 327.957 33.642C327.612 33.8277 327.339 34.0985 327.139 34.4545C326.942 34.8106 326.843 35.2424 326.843 35.75ZM341.651 32.2727V33.4091H337.128V32.2727H341.651ZM338.446 30.1818H339.787V38.5C339.787 38.8788 339.842 39.1629 339.952 39.3523C340.066 39.5379 340.21 39.6629 340.384 39.7273C340.562 39.7879 340.749 39.8182 340.946 39.8182C341.094 39.8182 341.215 39.8106 341.31 39.7955C341.405 39.7765 341.48 39.7614 341.537 39.75L341.81 40.9545C341.719 40.9886 341.592 41.0227 341.429 41.0568C341.266 41.0947 341.06 41.1136 340.81 41.1136C340.431 41.1136 340.06 41.0322 339.696 40.8693C339.336 40.7064 339.037 40.4583 338.799 40.125C338.564 39.7917 338.446 39.3712 338.446 38.8636V30.1818ZM346.433 41.1818C345.592 41.1818 344.867 40.9962 344.257 40.625C343.651 40.25 343.183 39.7273 342.854 39.0568C342.528 38.3826 342.365 37.5985 342.365 36.7045C342.365 35.8106 342.528 35.0227 342.854 34.3409C343.183 33.6553 343.642 33.1212 344.229 32.7386C344.82 32.3523 345.509 32.1591 346.297 32.1591C346.751 32.1591 347.2 32.2348 347.643 32.3864C348.087 32.5379 348.49 32.7841 348.854 33.125C349.217 33.4621 349.507 33.9091 349.723 34.4659C349.939 35.0227 350.047 35.7083 350.047 36.5227V37.0909H343.32V35.9318H348.683C348.683 35.4394 348.585 35 348.388 34.6136C348.195 34.2273 347.918 33.9223 347.558 33.6989C347.202 33.4754 346.782 33.3636 346.297 33.3636C345.763 33.3636 345.301 33.4962 344.911 33.7614C344.524 34.0227 344.227 34.3636 344.018 34.7841C343.81 35.2045 343.706 35.6553 343.706 36.1364V36.9091C343.706 37.5682 343.82 38.1269 344.047 38.5852C344.278 39.0398 344.598 39.3864 345.007 39.625C345.416 39.8598 345.892 39.9773 346.433 39.9773C346.786 39.9773 347.104 39.928 347.388 39.8295C347.676 39.7273 347.924 39.5758 348.132 39.375C348.34 39.1705 348.501 38.9167 348.615 38.6136L349.911 38.9773C349.774 39.4167 349.545 39.803 349.223 40.1364C348.901 40.4659 348.503 40.7235 348.03 40.9091C347.556 41.0909 347.024 41.1818 346.433 41.1818ZM352.052 32.2727L354.143 35.8409L356.234 32.2727H357.78L354.961 36.6364L357.78 41H356.234L354.143 37.6136L352.052 41H350.507L353.28 36.6364L350.507 32.2727H352.052ZM362.688 32.2727V33.4091H358.166V32.2727H362.688ZM359.484 30.1818H360.825V38.5C360.825 38.8788 360.88 39.1629 360.989 39.3523C361.103 39.5379 361.247 39.6629 361.421 39.7273C361.599 39.7879 361.787 39.8182 361.984 39.8182C362.132 39.8182 362.253 39.8106 362.347 39.7955C362.442 39.7765 362.518 39.7614 362.575 39.75L362.847 40.9545C362.757 40.9886 362.63 41.0227 362.467 41.0568C362.304 41.0947 362.097 41.1136 361.847 41.1136C361.469 41.1136 361.097 41.0322 360.734 40.8693C360.374 40.7064 360.075 40.4583 359.836 40.125C359.601 39.7917 359.484 39.3712 359.484 38.8636V30.1818ZM368.946 29.3636V41H367.605V29.3636H368.946ZM373.17 41.2045C372.617 41.2045 372.116 41.1004 371.665 40.892C371.214 40.6799 370.856 40.375 370.591 39.9773C370.326 39.5758 370.193 39.0909 370.193 38.5227C370.193 38.0227 370.292 37.6174 370.489 37.3068C370.686 36.9924 370.949 36.7462 371.278 36.5682C371.608 36.3902 371.972 36.2576 372.369 36.1705C372.771 36.0795 373.174 36.0076 373.58 35.9545C374.11 35.8864 374.54 35.8352 374.869 35.8011C375.203 35.7633 375.445 35.7008 375.597 35.6136C375.752 35.5265 375.83 35.375 375.83 35.1591V35.1136C375.83 34.553 375.676 34.1174 375.369 33.8068C375.066 33.4962 374.606 33.3409 373.989 33.3409C373.348 33.3409 372.847 33.4811 372.483 33.7614C372.119 34.0417 371.864 34.3409 371.716 34.6591L370.443 34.2045C370.67 33.6742 370.973 33.2614 371.352 32.9659C371.735 32.6667 372.152 32.4583 372.602 32.3409C373.057 32.2197 373.504 32.1591 373.943 32.1591C374.223 32.1591 374.545 32.1932 374.909 32.2614C375.277 32.3258 375.631 32.4602 375.972 32.6648C376.316 32.8693 376.602 33.178 376.83 33.5909C377.057 34.0038 377.17 34.5568 377.17 35.25V41H375.83V39.8182H375.761C375.67 40.0076 375.519 40.2102 375.307 40.4261C375.095 40.642 374.813 40.8258 374.46 40.9773C374.108 41.1288 373.678 41.2045 373.17 41.2045ZM373.375 40C373.905 40 374.352 39.8958 374.716 39.6875C375.083 39.4792 375.36 39.2102 375.545 38.8807C375.735 38.5511 375.83 38.2045 375.83 37.8409V36.6136C375.773 36.6818 375.648 36.7443 375.455 36.8011C375.265 36.8542 375.045 36.9015 374.795 36.9432C374.549 36.9811 374.309 37.0152 374.074 37.0455C373.843 37.072 373.655 37.0947 373.511 37.1136C373.163 37.1591 372.837 37.233 372.534 37.3352C372.235 37.4337 371.992 37.5833 371.807 37.7841C371.625 37.9811 371.534 38.25 371.534 38.5909C371.534 39.0568 371.706 39.4091 372.051 39.6477C372.4 39.8826 372.841 40 373.375 40ZM379 41V29.3636H380.341V33.6591H380.454C380.553 33.5076 380.689 33.3144 380.863 33.0795C381.041 32.8409 381.295 32.6288 381.625 32.4432C381.958 32.2538 382.409 32.1591 382.977 32.1591C383.712 32.1591 384.36 32.3428 384.92 32.7102C385.481 33.0777 385.918 33.5985 386.233 34.2727C386.547 34.947 386.704 35.7424 386.704 36.6591C386.704 37.5833 386.547 38.3845 386.233 39.0625C385.918 39.7367 385.483 40.2595 384.926 40.6307C384.369 40.9981 383.727 41.1818 383 41.1818C382.439 41.1818 381.99 41.089 381.653 40.9034C381.316 40.714 381.057 40.5 380.875 40.2614C380.693 40.0189 380.553 39.8182 380.454 39.6591H380.295V41H379ZM380.318 36.6364C380.318 37.2955 380.414 37.8769 380.608 38.3807C380.801 38.8807 381.083 39.2727 381.454 39.5568C381.825 39.8371 382.28 39.9773 382.818 39.9773C383.379 39.9773 383.846 39.8295 384.221 39.5341C384.6 39.2348 384.884 38.8333 385.074 38.3295C385.267 37.822 385.363 37.2576 385.363 36.6364C385.363 36.0227 385.269 35.4697 385.079 34.9773C384.894 34.4811 384.611 34.089 384.233 33.8011C383.858 33.5095 383.386 33.3636 382.818 33.3636C382.272 33.3636 381.814 33.5019 381.443 33.7784C381.072 34.0511 380.791 34.4337 380.602 34.9261C380.413 35.4148 380.318 35.9848 380.318 36.6364ZM391.614 41.1818C390.774 41.1818 390.048 40.9962 389.438 40.625C388.832 40.25 388.364 39.7273 388.035 39.0568C387.709 38.3826 387.546 37.5985 387.546 36.7045C387.546 35.8106 387.709 35.0227 388.035 34.3409C388.364 33.6553 388.823 33.1212 389.41 32.7386C390.001 32.3523 390.69 32.1591 391.478 32.1591C391.933 32.1591 392.382 32.2348 392.825 32.3864C393.268 32.5379 393.671 32.7841 394.035 33.125C394.399 33.4621 394.688 33.9091 394.904 34.4659C395.12 35.0227 395.228 35.7083 395.228 36.5227V37.0909H388.501V35.9318H393.864C393.864 35.4394 393.766 35 393.569 34.6136C393.376 34.2273 393.099 33.9223 392.739 33.6989C392.383 33.4754 391.963 33.3636 391.478 33.3636C390.944 33.3636 390.482 33.4962 390.092 33.7614C389.705 34.0227 389.408 34.3636 389.2 34.7841C388.991 35.2045 388.887 35.6553 388.887 36.1364V36.9091C388.887 37.5682 389.001 38.1269 389.228 38.5852C389.459 39.0398 389.779 39.3864 390.188 39.625C390.597 39.8598 391.073 39.9773 391.614 39.9773C391.967 39.9773 392.285 39.928 392.569 39.8295C392.857 39.7273 393.105 39.5758 393.313 39.375C393.522 39.1705 393.683 38.9167 393.796 38.6136L395.092 38.9773C394.955 39.4167 394.726 39.803 394.404 40.1364C394.082 40.4659 393.685 40.7235 393.211 40.9091C392.738 41.0909 392.205 41.1818 391.614 41.1818ZM397.809 29.3636V41H396.468V29.3636H397.809Z" fill="#303030"/>
<rect x="0.5" y="0.5" width="471" height="231" rx="7.5" stroke="white" stroke-opacity="0.1"/>
<defs>
<filter id="filter0_d_145_1462" x="43" y="23" width="30" height="30" filterUnits="userSpaceOnUse" color-interpolation-filters="sRGB">
<feFlood flood-opacity="0" result="BackgroundImageFix"/>
<feColorMatrix in="SourceAlpha" type="matrix" values="0 0 0 0 0 0 0 0 0 0 0 0 0 0 0 0 0 0 127 0" result="hardAlpha"/>
<feOffset/>
<feGaussianBlur stdDeviation="2"/>
<feComposite in2="hardAlpha" operator="out"/>
<feColorMatrix type="matrix" values="0 0 0 0 0 0 0 0 0 0 0 0 0 0 0 0 0 0 0.25 0"/>
<feBlend mode="normal" in2="BackgroundImageFix" result="effect1_dropShadow_145_1462"/>
<feBlend mode="normal" in="SourceGraphic" in2="effect1_dropShadow_145_1462" result="shape"/>
</filter>
<filter id="filter1_d_145_1462" x="79" y="23" width="30" height="30" filterUnits="userSpaceOnUse" color-interpolation-filters="sRGB">
<feFlood flood-opacity="0" result="BackgroundImageFix"/>
<feColorMatrix in="SourceAlpha" type="matrix" values="0 0 0 0 0 0 0 0 0 0 0 0 0 0 0 0 0 0 127 0" result="hardAlpha"/>
<feOffset/>
<feGaussianBlur stdDeviation="2"/>
<feComposite in2="hardAlpha" operator="out"/>
<feColorMatrix type="matrix" values="0 0 0 0 0 0 0 0 0 0 0 0 0 0 0 0 0 0 0.25 0"/>
<feBlend mode="normal" in2="BackgroundImageFix" result="effect1_dropShadow_145_1462"/>
<feBlend mode="normal" in="SourceGraphic" in2="effect1_dropShadow_145_1462" result="shape"/>
</filter>
<filter id="filter2_d_145_1462" x="43" y="71" width="30" height="30" filterUnits="userSpaceOnUse" color-interpolation-filters="sRGB">
<feFlood flood-opacity="0" result="BackgroundImageFix"/>
<feColorMatrix in="SourceAlpha" type="matrix" values="0 0 0 0 0 0 0 0 0 0 0 0 0 0 0 0 0 0 127 0" result="hardAlpha"/>
<feOffset/>
<feGaussianBlur stdDeviation="2"/>
<feComposite in2="hardAlpha" operator="out"/>
<feColorMatrix type="matrix" values="0 0 0 0 0 0 0 0 0 0 0 0 0 0 0 0 0 0 0.25 0"/>
<feBlend mode="normal" in2="BackgroundImageFix" result="effect1_dropShadow_145_1462"/>
<feBlend mode="normal" in="SourceGraphic" in2="effect1_dropShadow_145_1462" result="shape"/>
</filter>
<filter id="filter3_d_145_1462" x="79" y="71" width="30" height="30" filterUnits="userSpaceOnUse" color-interpolation-filters="sRGB">
<feFlood flood-opacity="0" result="BackgroundImageFix"/>
<feColorMatrix in="SourceAlpha" type="matrix" values="0 0 0 0 0 0 0 0 0 0 0 0 0 0 0 0 0 0 127 0" result="hardAlpha"/>
<feOffset/>
<feGaussianBlur stdDeviation="2"/>
<feComposite in2="hardAlpha" operator="out"/>
<feColorMatrix type="matrix" values="0 0 0 0 0 0 0 0 0 0 0 0 0 0 0 0 0 0 0.25 0"/>
<feBlend mode="normal" in2="BackgroundImageFix" result="effect1_dropShadow_145_1462"/>
<feBlend mode="normal" in="SourceGraphic" in2="effect1_dropShadow_145_1462" result="shape"/>
</filter>
<filter id="filter4_d_145_1462" x="42" y="118" width="36" height="36" filterUnits="userSpaceOnUse" color-interpolation-filters="sRGB">
<feFlood flood-opacity="0" result="BackgroundImageFix"/>
<feColorMatrix in="SourceAlpha" type="matrix" values="0 0 0 0 0 0 0 0 0 0 0 0 0 0 0 0 0 0 127 0" result="hardAlpha"/>
<feOffset/>
<feGaussianBlur stdDeviation="2"/>
<feComposite in2="hardAlpha" operator="out"/>
<feColorMatrix type="matrix" values="0 0 0 0 0 0 0 0 0 0 0 0 0 0 0 0 0 0 0.25 0"/>
<feBlend mode="normal" in2="BackgroundImageFix" result="effect1_dropShadow_145_1462"/>
<feBlend mode="normal" in="SourceGraphic" in2="effect1_dropShadow_145_1462" result="shape"/>
</filter>
<filter id="filter5_d_145_1462" x="92" y="118" width="36" height="36" filterUnits="userSpaceOnUse" color-interpolation-filters="sRGB">
<feFlood flood-opacity="0" result="BackgroundImageFix"/>
<feColorMatrix in="SourceAlpha" type="matrix" values="0 0 0 0 0 0 0 0 0 0 0 0 0 0 0 0 0 0 127 0" result="hardAlpha"/>
<feOffset/>
<feGaussianBlur stdDeviation="2"/>
<feComposite in2="hardAlpha" operator="out"/>
<feColorMatrix type="matrix" values="0 0 0 0 0 0 0 0 0 0 0 0 0 0 0 0 0 0 0.25 0"/>
<feBlend mode="normal" in2="BackgroundImageFix" result="effect1_dropShadow_145_1462"/>
<feBlend mode="normal" in="SourceGraphic" in2="effect1_dropShadow_145_1462" result="shape"/>
</filter>
<filter id="filter6_d_145_1462" x="422" y="24" width="24" height="24" filterUnits="userSpaceOnUse" color-interpolation-filters="sRGB">
<feFlood flood-opacity="0" result="BackgroundImageFix"/>
<feColorMatrix in="SourceAlpha" type="matrix" values="0 0 0 0 0 0 0 0 0 0 0 0 0 0 0 0 0 0 127 0" result="hardAlpha"/>
<feOffset/>
<feGaussianBlur stdDeviation="2"/>
<feComposite in2="hardAlpha" operator="out"/>
<feColorMatrix type="matrix" values="0 0 0 0 0 0 0 0 0 0 0 0 0 0 0 0 0 0 0.25 0"/>
<feBlend mode="normal" in2="BackgroundImageFix" result="effect1_dropShadow_145_1462"/>
<feBlend mode="normal" in="SourceGraphic" in2="effect1_dropShadow_145_1462" result="shape"/>
</filter>
</defs>
</svg>
