<svg width="472" height="274" viewBox="0 0 472 274" fill="none" xmlns="http://www.w3.org/2000/svg">
<rect width="472" height="274" rx="8" fill="#F0F0F0"/>
<g filter="url(#filter0_d_103_2)">
<rect x="24" y="24" width="200" height="40" rx="8" fill="#FEFEFE" shape-rendering="crispEdges"/>
<path d="M42.8182 37.3636V49H41.4091V37.3636H42.8182ZM46.0026 43.75V49H44.6616V40.2727H45.9571V41.6364H46.0707C46.2753 41.1932 46.5859 40.8371 47.0026 40.5682C47.4192 40.2955 47.9571 40.1591 48.6162 40.1591C49.2071 40.1591 49.7241 40.2803 50.1673 40.5227C50.6105 40.7614 50.9552 41.125 51.2014 41.6136C51.4476 42.0985 51.5707 42.7121 51.5707 43.4545V49H50.2298V43.5455C50.2298 42.8598 50.0518 42.3258 49.6957 41.9432C49.3397 41.5568 48.851 41.3636 48.2298 41.3636C47.8018 41.3636 47.4192 41.4564 47.0821 41.642C46.7488 41.8277 46.4855 42.0985 46.2923 42.4545C46.0991 42.8106 46.0026 43.2424 46.0026 43.75ZM53.221 52.2727V40.2727H54.5165V41.6591H54.6756C54.7741 41.5076 54.9104 41.3144 55.0847 41.0795C55.2627 40.8409 55.5165 40.6288 55.846 40.4432C56.1794 40.2538 56.6301 40.1591 57.1983 40.1591C57.9331 40.1591 58.5809 40.3428 59.1415 40.7102C59.7021 41.0777 60.1396 41.5985 60.454 42.2727C60.7684 42.947 60.9256 43.7424 60.9256 44.6591C60.9256 45.5833 60.7684 46.3845 60.454 47.0625C60.1396 47.7367 59.704 48.2595 59.1472 48.6307C58.5903 48.9981 57.9483 49.1818 57.221 49.1818C56.6604 49.1818 56.2116 49.089 55.8744 48.9034C55.5373 48.714 55.2778 48.5 55.096 48.2614C54.9142 48.0189 54.7741 47.8182 54.6756 47.6591H54.5619V52.2727H53.221ZM54.5392 44.6364C54.5392 45.2955 54.6358 45.8769 54.829 46.3807C55.0222 46.8807 55.3044 47.2727 55.6756 47.5568C56.0468 47.8371 56.5013 47.9773 57.0392 47.9773C57.5998 47.9773 58.0676 47.8295 58.4426 47.5341C58.8214 47.2348 59.1055 46.8333 59.2949 46.3295C59.4881 45.822 59.5847 45.2576 59.5847 44.6364C59.5847 44.0227 59.49 43.4697 59.3006 42.9773C59.115 42.4811 58.8328 42.089 58.454 41.8011C58.079 41.5095 57.6074 41.3636 57.0392 41.3636C56.4937 41.3636 56.0354 41.5019 55.6642 41.7784C55.293 42.0511 55.0127 42.4337 54.8233 42.9261C54.6339 43.4148 54.5392 43.9848 54.5392 44.6364ZM67.671 45.4318V40.2727H69.0119V49H67.671V47.5227H67.5801C67.3756 47.9659 67.0574 48.3428 66.6256 48.6534C66.1938 48.9602 65.6483 49.1136 64.9892 49.1136C64.4438 49.1136 63.9589 48.9943 63.5347 48.7557C63.1104 48.5133 62.7771 48.1496 62.5347 47.6648C62.2922 47.1761 62.171 46.5606 62.171 45.8182V40.2727H63.5119V45.7273C63.5119 46.3636 63.69 46.8712 64.046 47.25C64.4059 47.6288 64.8642 47.8182 65.421 47.8182C65.7544 47.8182 66.0934 47.733 66.4381 47.5625C66.7866 47.392 67.0782 47.1307 67.3131 46.7784C67.5517 46.4261 67.671 45.9773 67.671 45.4318ZM74.4634 40.2727V41.4091H69.9406V40.2727H74.4634ZM71.2588 38.1818H72.5997V46.5C72.5997 46.8788 72.6546 47.1629 72.7645 47.3523C72.8781 47.5379 73.0221 47.6629 73.1963 47.7273C73.3743 47.7879 73.5618 47.8182 73.7588 47.8182C73.9065 47.8182 74.0277 47.8106 74.1224 47.7955C74.2171 47.7765 74.2929 47.7614 74.3497 47.75L74.6224 48.9545C74.5315 48.9886 74.4046 49.0227 74.2418 49.0568C74.0789 49.0947 73.8724 49.1136 73.6224 49.1136C73.2437 49.1136 72.8724 49.0322 72.5088 48.8693C72.149 48.7064 71.8497 48.4583 71.6111 48.125C71.3762 47.7917 71.2588 47.3712 71.2588 46.8636V38.1818ZM76.6577 49.0909C76.3774 49.0909 76.1368 48.9905 75.9361 48.7898C75.7353 48.589 75.6349 48.3485 75.6349 48.0682C75.6349 47.7879 75.7353 47.5473 75.9361 47.3466C76.1368 47.1458 76.3774 47.0455 76.6577 47.0455C76.938 47.0455 77.1785 47.1458 77.3793 47.3466C77.58 47.5473 77.6804 47.7879 77.6804 48.0682C77.6804 48.2538 77.633 48.4242 77.5384 48.5795C77.4474 48.7348 77.3243 48.8598 77.169 48.9545C77.0175 49.0455 76.8471 49.0909 76.6577 49.0909ZM80.2639 49.0909C79.9836 49.0909 79.7431 48.9905 79.5423 48.7898C79.3416 48.589 79.2412 48.3485 79.2412 48.0682C79.2412 47.7879 79.3416 47.5473 79.5423 47.3466C79.7431 47.1458 79.9836 47.0455 80.2639 47.0455C80.5442 47.0455 80.7848 47.1458 80.9855 47.3466C81.1863 47.5473 81.2866 47.7879 81.2866 48.0682C81.2866 48.2538 81.2393 48.4242 81.1446 48.5795C81.0537 48.7348 80.9306 48.8598 80.7753 48.9545C80.6238 49.0455 80.4533 49.0909 80.2639 49.0909ZM83.8702 49.0909C83.5899 49.0909 83.3493 48.9905 83.1486 48.7898C82.9478 48.589 82.8474 48.3485 82.8474 48.0682C82.8474 47.7879 82.9478 47.5473 83.1486 47.3466C83.3493 47.1458 83.5899 47.0455 83.8702 47.0455C84.1505 47.0455 84.391 47.1458 84.5918 47.3466C84.7925 47.5473 84.8929 47.7879 84.8929 48.0682C84.8929 48.2538 84.8456 48.4242 84.7509 48.5795C84.6599 48.7348 84.5368 48.8598 84.3815 48.9545C84.23 49.0455 84.0596 49.0909 83.8702 49.0909Z" fill="#747474"/>
</g>
<rect x="40" y="16" width="40" height="16" rx="8" fill="#F5F5F5"/>
<path d="M48.8807 28V20.7273H49.7614V27.2188H53.142V28H48.8807ZM55.4972 28.1278C55.1515 28.1278 54.8378 28.0627 54.5561 27.9325C54.2744 27.8 54.0507 27.6094 53.8849 27.3608C53.7192 27.1098 53.6364 26.8068 53.6364 26.4517C53.6364 26.1392 53.6979 25.8859 53.821 25.6918C53.9441 25.4953 54.1087 25.3414 54.3146 25.2301C54.5206 25.1188 54.7479 25.036 54.9964 24.9815C55.2474 24.9247 55.4995 24.8797 55.7528 24.8466C56.0843 24.804 56.353 24.772 56.5589 24.7507C56.7673 24.727 56.9188 24.688 57.0135 24.6335C57.1106 24.5791 57.1591 24.4844 57.1591 24.3494V24.321C57.1591 23.9706 57.0632 23.6984 56.8714 23.5043C56.6821 23.3101 56.3944 23.2131 56.0085 23.2131C55.6084 23.2131 55.2947 23.3007 55.0675 23.4759C54.8402 23.651 54.6804 23.8381 54.5881 24.0369L53.7926 23.7528C53.9347 23.4214 54.1241 23.1634 54.3608 22.9787C54.5999 22.7917 54.8603 22.6615 55.142 22.5881C55.4261 22.5123 55.7055 22.4744 55.9801 22.4744C56.1553 22.4744 56.3565 22.4957 56.5838 22.5384C56.8134 22.5786 57.0348 22.6626 57.2479 22.7905C57.4633 22.9183 57.642 23.1113 57.7841 23.3693C57.9261 23.6274 57.9972 23.973 57.9972 24.4062V28H57.1591V27.2614H57.1165C57.0597 27.3797 56.965 27.5064 56.8324 27.6413C56.6998 27.7763 56.5234 27.8911 56.3033 27.9858C56.0831 28.0805 55.8144 28.1278 55.4972 28.1278ZM55.625 27.375C55.9564 27.375 56.2358 27.3099 56.4631 27.1797C56.6927 27.0495 56.8655 26.8814 56.9815 26.6754C57.0999 26.4695 57.1591 26.2528 57.1591 26.0256V25.2585C57.1236 25.3011 57.0455 25.3402 56.9247 25.3757C56.8063 25.4089 56.669 25.4384 56.5128 25.4645C56.3589 25.4882 56.2086 25.5095 56.0618 25.5284C55.9174 25.545 55.8002 25.5592 55.7102 25.571C55.4924 25.5994 55.2888 25.6456 55.0994 25.7095C54.9124 25.7711 54.7609 25.8646 54.6449 25.9901C54.5313 26.1132 54.4744 26.2812 54.4744 26.4943C54.4744 26.7855 54.5821 27.0057 54.7976 27.1548C55.0154 27.3016 55.2912 27.375 55.625 27.375ZM59.1404 28V20.7273H59.9785V23.4119H60.0495C60.1111 23.3172 60.1963 23.1965 60.3052 23.0497C60.4165 22.9006 60.5751 22.768 60.7811 22.652C60.9894 22.5336 61.2711 22.4744 61.6262 22.4744C62.0855 22.4744 62.4904 22.5893 62.8407 22.8189C63.1911 23.0485 63.4645 23.3741 63.661 23.7955C63.8575 24.2169 63.9558 24.714 63.9558 25.2869C63.9558 25.8646 63.8575 26.3653 63.661 26.7891C63.4645 27.2105 63.1923 27.5372 62.8443 27.7692C62.4963 27.9988 62.095 28.1136 61.6404 28.1136C61.2901 28.1136 61.0095 28.0556 60.7988 27.9396C60.5881 27.8213 60.426 27.6875 60.3123 27.5384C60.1987 27.3868 60.1111 27.2614 60.0495 27.1619H59.9501V28H59.1404ZM59.9643 25.2727C59.9643 25.6847 60.0247 26.0481 60.1454 26.3629C60.2662 26.6754 60.4425 26.9205 60.6745 27.098C60.9065 27.2732 61.1906 27.3608 61.5268 27.3608C61.8772 27.3608 62.1696 27.2685 62.4039 27.0838C62.6407 26.8968 62.8182 26.6458 62.9366 26.331C63.0574 26.0137 63.1177 25.661 63.1177 25.2727C63.1177 24.8892 63.0585 24.5436 62.9402 24.2358C62.8242 23.9257 62.6478 23.6806 62.411 23.5007C62.1767 23.3184 61.8819 23.2273 61.5268 23.2273C61.1859 23.2273 60.8994 23.3137 60.6674 23.4865C60.4354 23.657 60.2602 23.8961 60.1419 24.2038C60.0235 24.5092 59.9643 24.8655 59.9643 25.2727ZM67.0247 28.1136C66.4991 28.1136 66.0458 27.9976 65.6646 27.7656C65.2858 27.5312 64.9934 27.2045 64.7875 26.7855C64.5839 26.3641 64.4821 25.8741 64.4821 25.3153C64.4821 24.7566 64.5839 24.2642 64.7875 23.8381C64.9934 23.4096 65.2799 23.0758 65.6468 22.8366C66.0162 22.5952 66.447 22.4744 66.9395 22.4744C67.2235 22.4744 67.5041 22.5218 67.7811 22.6165C68.0581 22.7112 68.3102 22.8651 68.5375 23.0781C68.7647 23.2888 68.9458 23.5682 69.0808 23.9162C69.2157 24.2642 69.2832 24.6927 69.2832 25.2017V25.5568H65.0787V24.8324H68.4309C68.4309 24.5246 68.3694 24.25 68.2463 24.0085C68.1255 23.767 67.9527 23.5765 67.7278 23.4368C67.5053 23.2971 67.2425 23.2273 66.9395 23.2273C66.6056 23.2273 66.3168 23.3101 66.073 23.4759C65.8315 23.6392 65.6457 23.8523 65.5154 24.1151C65.3852 24.3778 65.3201 24.6596 65.3201 24.9602V25.4432C65.3201 25.8551 65.3912 26.2043 65.5332 26.4908C65.6776 26.7749 65.8777 26.9915 66.1333 27.1406C66.389 27.2874 66.6861 27.3608 67.0247 27.3608C67.2449 27.3608 67.4437 27.33 67.6213 27.2685C67.8012 27.2045 67.9563 27.1098 68.0865 26.9844C68.2167 26.8565 68.3173 26.6979 68.3883 26.5085L69.198 26.7358C69.1127 27.0104 68.9695 27.2519 68.7683 27.4602C68.5671 27.6662 68.3185 27.8272 68.0225 27.9432C67.7266 28.0568 67.394 28.1136 67.0247 28.1136ZM70.8961 20.7273V28H70.0581V20.7273H70.8961Z" fill="#303030"/>
<g filter="url(#filter1_d_103_2)">
<rect x="248" y="24" width="200" height="40" rx="8" fill="#FEFEFE" shape-rendering="crispEdges"/>
<path d="M297.409 49V37.3636H304.432V38.6136H298.818V42.5455H304.068V43.7955H298.818V47.75H304.523V49H297.409ZM305.99 49V40.2727H307.285V41.6364H307.399C307.581 41.1705 307.874 40.8087 308.28 40.5511C308.685 40.2898 309.172 40.1591 309.74 40.1591C310.316 40.1591 310.795 40.2898 311.177 40.5511C311.564 40.8087 311.865 41.1705 312.081 41.6364H312.172C312.395 41.1856 312.73 40.8277 313.177 40.5625C313.624 40.2936 314.16 40.1591 314.785 40.1591C315.566 40.1591 316.204 40.4034 316.7 40.892C317.196 41.3769 317.444 42.1326 317.444 43.1591V49H316.103V43.1591C316.103 42.5152 315.927 42.0549 315.575 41.7784C315.223 41.5019 314.808 41.3636 314.331 41.3636C313.717 41.3636 313.242 41.5492 312.905 41.9205C312.567 42.2879 312.399 42.7538 312.399 43.3182V49H311.035V43.0227C311.035 42.5265 310.874 42.1269 310.552 41.8239C310.23 41.517 309.816 41.3636 309.308 41.3636C308.959 41.3636 308.634 41.4564 308.331 41.642C308.031 41.8277 307.789 42.0852 307.603 42.4148C307.422 42.7405 307.331 43.1174 307.331 43.5455V49H305.99ZM321.664 49.2045C321.111 49.2045 320.609 49.1004 320.159 48.892C319.708 48.6799 319.35 48.375 319.085 47.9773C318.82 47.5758 318.687 47.0909 318.687 46.5227C318.687 46.0227 318.785 45.6174 318.982 45.3068C319.179 44.9924 319.443 44.7462 319.772 44.5682C320.102 44.3902 320.465 44.2576 320.863 44.1705C321.265 44.0795 321.668 44.0076 322.073 43.9545C322.604 43.8864 323.034 43.8352 323.363 43.8011C323.696 43.7633 323.939 43.7008 324.09 43.6136C324.246 43.5265 324.323 43.375 324.323 43.1591V43.1136C324.323 42.553 324.17 42.1174 323.863 41.8068C323.56 41.4962 323.1 41.3409 322.482 41.3409C321.842 41.3409 321.34 41.4811 320.977 41.7614C320.613 42.0417 320.357 42.3409 320.21 42.6591L318.937 42.2045C319.164 41.6742 319.467 41.2614 319.846 40.9659C320.229 40.6667 320.645 40.4583 321.096 40.3409C321.551 40.2197 321.998 40.1591 322.437 40.1591C322.717 40.1591 323.039 40.1932 323.403 40.2614C323.77 40.3258 324.124 40.4602 324.465 40.6648C324.81 40.8693 325.096 41.178 325.323 41.5909C325.551 42.0038 325.664 42.5568 325.664 43.25V49H324.323V47.8182H324.255C324.164 48.0076 324.013 48.2102 323.801 48.4261C323.588 48.642 323.306 48.8258 322.954 48.9773C322.602 49.1288 322.172 49.2045 321.664 49.2045ZM321.869 48C322.399 48 322.846 47.8958 323.21 47.6875C323.577 47.4792 323.854 47.2102 324.039 46.8807C324.229 46.5511 324.323 46.2045 324.323 45.8409V44.6136C324.266 44.6818 324.141 44.7443 323.948 44.8011C323.759 44.8542 323.539 44.9015 323.289 44.9432C323.043 44.9811 322.802 45.0152 322.568 45.0455C322.337 45.072 322.149 45.0947 322.005 45.1136C321.657 45.1591 321.331 45.233 321.028 45.3352C320.729 45.4337 320.486 45.5833 320.301 45.7841C320.119 45.9811 320.028 46.25 320.028 46.5909C320.028 47.0568 320.2 47.4091 320.545 47.6477C320.893 47.8826 321.335 48 321.869 48ZM327.312 49V40.2727H328.653V49H327.312ZM327.993 38.8182C327.732 38.8182 327.507 38.7292 327.317 38.5511C327.132 38.3731 327.039 38.1591 327.039 37.9091C327.039 37.6591 327.132 37.4451 327.317 37.267C327.507 37.089 327.732 37 327.993 37C328.255 37 328.478 37.089 328.664 37.267C328.853 37.4451 328.948 37.6591 328.948 37.9091C328.948 38.1591 328.853 38.3731 328.664 38.5511C328.478 38.7292 328.255 38.8182 327.993 38.8182ZM331.649 37.3636V49H330.309V37.3636H331.649ZM339.574 49.2045C339.021 49.2045 338.519 49.1004 338.068 48.892C337.617 48.6799 337.259 48.375 336.994 47.9773C336.729 47.5758 336.596 47.0909 336.596 46.5227C336.596 46.0227 336.695 45.6174 336.892 45.3068C337.089 44.9924 337.352 44.7462 337.682 44.5682C338.011 44.3902 338.375 44.2576 338.772 44.1705C339.174 44.0795 339.577 44.0076 339.983 43.9545C340.513 43.8864 340.943 43.8352 341.272 43.8011C341.606 43.7633 341.848 43.7008 342 43.6136C342.155 43.5265 342.233 43.375 342.233 43.1591V43.1136C342.233 42.553 342.079 42.1174 341.772 41.8068C341.469 41.4962 341.009 41.3409 340.392 41.3409C339.752 41.3409 339.25 41.4811 338.886 41.7614C338.522 42.0417 338.267 42.3409 338.119 42.6591L336.846 42.2045C337.074 41.6742 337.377 41.2614 337.755 40.9659C338.138 40.6667 338.555 40.4583 339.005 40.3409C339.46 40.2197 339.907 40.1591 340.346 40.1591C340.627 40.1591 340.949 40.1932 341.312 40.2614C341.68 40.3258 342.034 40.4602 342.375 40.6648C342.719 40.8693 343.005 41.178 343.233 41.5909C343.46 42.0038 343.574 42.5568 343.574 43.25V49H342.233V47.8182H342.164C342.074 48.0076 341.922 48.2102 341.71 48.4261C341.498 48.642 341.216 48.8258 340.863 48.9773C340.511 49.1288 340.081 49.2045 339.574 49.2045ZM339.778 48C340.308 48 340.755 47.8958 341.119 47.6875C341.486 47.4792 341.763 47.2102 341.949 46.8807C342.138 46.5511 342.233 46.2045 342.233 45.8409V44.6136C342.176 44.6818 342.051 44.7443 341.858 44.8011C341.668 44.8542 341.449 44.9015 341.199 44.9432C340.952 44.9811 340.712 45.0152 340.477 45.0455C340.246 45.072 340.058 45.0947 339.914 45.1136C339.566 45.1591 339.24 45.233 338.937 45.3352C338.638 45.4337 338.396 45.5833 338.21 45.7841C338.028 45.9811 337.937 46.25 337.937 46.5909C337.937 47.0568 338.11 47.4091 338.454 47.6477C338.803 47.8826 339.244 48 339.778 48ZM348.516 49.1818C347.789 49.1818 347.147 48.9981 346.59 48.6307C346.034 48.2595 345.598 47.7367 345.284 47.0625C344.969 46.3845 344.812 45.5833 344.812 44.6591C344.812 43.7424 344.969 42.947 345.284 42.2727C345.598 41.5985 346.035 41.0777 346.596 40.7102C347.157 40.3428 347.804 40.1591 348.539 40.1591C349.107 40.1591 349.556 40.2538 349.886 40.4432C350.219 40.6288 350.473 40.8409 350.647 41.0795C350.825 41.3144 350.963 41.5076 351.062 41.6591H351.176V37.3636H352.516V49H351.221V47.6591H351.062C350.963 47.8182 350.823 48.0189 350.641 48.2614C350.46 48.5 350.2 48.714 349.863 48.9034C349.526 49.089 349.077 49.1818 348.516 49.1818ZM348.698 47.9773C349.236 47.9773 349.691 47.8371 350.062 47.5568C350.433 47.2727 350.715 46.8807 350.909 46.3807C351.102 45.8769 351.198 45.2955 351.198 44.6364C351.198 43.9848 351.104 43.4148 350.914 42.9261C350.725 42.4337 350.445 42.0511 350.073 41.7784C349.702 41.5019 349.244 41.3636 348.698 41.3636C348.13 41.3636 347.657 41.5095 347.278 41.8011C346.903 42.089 346.621 42.4811 346.431 42.9773C346.246 43.4697 346.153 44.0227 346.153 44.6364C346.153 45.2576 346.248 45.822 346.437 46.3295C346.63 46.8333 346.914 47.2348 347.289 47.5341C347.668 47.8295 348.138 47.9773 348.698 47.9773ZM357.654 49.1818C356.927 49.1818 356.285 48.9981 355.728 48.6307C355.171 48.2595 354.735 47.7367 354.421 47.0625C354.107 46.3845 353.949 45.5833 353.949 44.6591C353.949 43.7424 354.107 42.947 354.421 42.2727C354.735 41.5985 355.173 41.0777 355.734 40.7102C356.294 40.3428 356.942 40.1591 357.677 40.1591C358.245 40.1591 358.694 40.2538 359.023 40.4432C359.357 40.6288 359.61 40.8409 359.785 41.0795C359.963 41.3144 360.101 41.5076 360.199 41.6591H360.313V37.3636H361.654V49H360.359V47.6591H360.199C360.101 47.8182 359.961 48.0189 359.779 48.2614C359.597 48.5 359.338 48.714 359.001 48.9034C358.663 49.089 358.215 49.1818 357.654 49.1818ZM357.836 47.9773C358.374 47.9773 358.828 47.8371 359.199 47.5568C359.571 47.2727 359.853 46.8807 360.046 46.3807C360.239 45.8769 360.336 45.2955 360.336 44.6364C360.336 43.9848 360.241 43.4148 360.052 42.9261C359.862 42.4337 359.582 42.0511 359.211 41.7784C358.84 41.5019 358.381 41.3636 357.836 41.3636C357.268 41.3636 356.794 41.5095 356.415 41.8011C356.04 42.089 355.758 42.4811 355.569 42.9773C355.383 43.4697 355.29 44.0227 355.29 44.6364C355.29 45.2576 355.385 45.822 355.574 46.3295C355.768 46.8333 356.052 47.2348 356.427 47.5341C356.805 47.8295 357.275 47.9773 357.836 47.9773ZM363.496 49V40.2727H364.791V41.5909H364.882C365.041 41.1591 365.329 40.8087 365.746 40.5398C366.163 40.2708 366.632 40.1364 367.155 40.1364C367.254 40.1364 367.377 40.1383 367.524 40.142C367.672 40.1458 367.784 40.1515 367.86 40.1591V41.5227C367.814 41.5114 367.71 41.4943 367.547 41.4716C367.388 41.4451 367.22 41.4318 367.041 41.4318C366.617 41.4318 366.238 41.5208 365.905 41.6989C365.576 41.8731 365.314 42.1155 365.121 42.4261C364.932 42.733 364.837 43.0833 364.837 43.4773V49H363.496ZM372.043 49.1818C371.202 49.1818 370.476 48.9962 369.866 48.625C369.26 48.25 368.793 47.7273 368.463 47.0568C368.137 46.3826 367.974 45.5985 367.974 44.7045C367.974 43.8106 368.137 43.0227 368.463 42.3409C368.793 41.6553 369.251 41.1212 369.838 40.7386C370.429 40.3523 371.118 40.1591 371.906 40.1591C372.361 40.1591 372.81 40.2348 373.253 40.3864C373.696 40.5379 374.099 40.7841 374.463 41.125C374.827 41.4621 375.116 41.9091 375.332 42.4659C375.548 43.0227 375.656 43.7083 375.656 44.5227V45.0909H368.929V43.9318H374.293C374.293 43.4394 374.194 43 373.997 42.6136C373.804 42.2273 373.527 41.9223 373.168 41.6989C372.812 41.4754 372.391 41.3636 371.906 41.3636C371.372 41.3636 370.91 41.4962 370.52 41.7614C370.134 42.0227 369.836 42.3636 369.628 42.7841C369.42 43.2045 369.315 43.6553 369.315 44.1364V44.9091C369.315 45.5682 369.429 46.1269 369.656 46.5852C369.887 47.0398 370.207 47.3864 370.616 47.625C371.026 47.8598 371.501 47.9773 372.043 47.9773C372.395 47.9773 372.713 47.928 372.997 47.8295C373.285 47.7273 373.533 47.5758 373.741 47.375C373.95 47.1705 374.111 46.9167 374.224 46.6136L375.52 46.9773C375.384 47.4167 375.154 47.803 374.832 48.1364C374.51 48.4659 374.113 48.7235 373.639 48.9091C373.166 49.0909 372.634 49.1818 372.043 49.1818ZM383.078 42.2273L381.873 42.5682C381.798 42.3674 381.686 42.1723 381.538 41.983C381.394 41.7898 381.197 41.6307 380.947 41.5057C380.697 41.3807 380.377 41.3182 379.987 41.3182C379.453 41.3182 379.008 41.4413 378.652 41.6875C378.299 41.9299 378.123 42.2386 378.123 42.6136C378.123 42.947 378.245 43.2102 378.487 43.4034C378.729 43.5966 379.108 43.7576 379.623 43.8864L380.919 44.2045C381.699 44.3939 382.28 44.6837 382.663 45.0739C383.046 45.4602 383.237 45.9583 383.237 46.5682C383.237 47.0682 383.093 47.5152 382.805 47.9091C382.521 48.303 382.123 48.6136 381.612 48.8409C381.101 49.0682 380.506 49.1818 379.828 49.1818C378.938 49.1818 378.201 48.9886 377.618 48.6023C377.034 48.2159 376.665 47.6515 376.51 46.9091L377.782 46.5909C377.904 47.0606 378.133 47.4129 378.47 47.6477C378.811 47.8826 379.256 48 379.805 48C380.43 48 380.926 47.8674 381.294 47.6023C381.665 47.3333 381.851 47.0114 381.851 46.6364C381.851 46.3333 381.745 46.0795 381.532 45.875C381.32 45.6667 380.995 45.5114 380.555 45.4091L379.101 45.0682C378.301 44.8788 377.714 44.5852 377.339 44.1875C376.968 43.786 376.782 43.2841 376.782 42.6818C376.782 42.1894 376.921 41.7538 377.197 41.375C377.477 40.9962 377.858 40.6989 378.339 40.483C378.824 40.267 379.373 40.1591 379.987 40.1591C380.851 40.1591 381.529 40.3485 382.021 40.7273C382.517 41.1061 382.87 41.6061 383.078 42.2273ZM390.637 42.2273L389.433 42.5682C389.357 42.3674 389.245 42.1723 389.097 41.983C388.954 41.7898 388.757 41.6307 388.507 41.5057C388.257 41.3807 387.936 41.3182 387.546 41.3182C387.012 41.3182 386.567 41.4413 386.211 41.6875C385.859 41.9299 385.683 42.2386 385.683 42.6136C385.683 42.947 385.804 43.2102 386.046 43.4034C386.289 43.5966 386.668 43.7576 387.183 43.8864L388.478 44.2045C389.258 44.3939 389.84 44.6837 390.222 45.0739C390.605 45.4602 390.796 45.9583 390.796 46.5682C390.796 47.0682 390.652 47.5152 390.364 47.9091C390.08 48.303 389.683 48.6136 389.171 48.8409C388.66 49.0682 388.065 49.1818 387.387 49.1818C386.497 49.1818 385.76 48.9886 385.177 48.6023C384.594 48.2159 384.224 47.6515 384.069 46.9091L385.342 46.5909C385.463 47.0606 385.692 47.4129 386.029 47.6477C386.37 47.8826 386.815 48 387.364 48C387.989 48 388.486 47.8674 388.853 47.6023C389.224 47.3333 389.41 47.0114 389.41 46.6364C389.41 46.3333 389.304 46.0795 389.092 45.875C388.88 45.6667 388.554 45.5114 388.114 45.4091L386.66 45.0682C385.861 44.8788 385.274 44.5852 384.899 44.1875C384.527 43.786 384.342 43.2841 384.342 42.6818C384.342 42.1894 384.48 41.7538 384.757 41.375C385.037 40.9962 385.418 40.6989 385.899 40.483C386.383 40.267 386.933 40.1591 387.546 40.1591C388.41 40.1591 389.088 40.3485 389.58 40.7273C390.077 41.1061 390.429 41.6061 390.637 42.2273ZM392.992 49.0909C392.712 49.0909 392.471 48.9905 392.27 48.7898C392.07 48.589 391.969 48.3485 391.969 48.0682C391.969 47.7879 392.07 47.5473 392.27 47.3466C392.471 47.1458 392.712 47.0455 392.992 47.0455C393.272 47.0455 393.513 47.1458 393.714 47.3466C393.914 47.5473 394.015 47.7879 394.015 48.0682C394.015 48.2538 393.967 48.4242 393.873 48.5795C393.782 48.7348 393.659 48.8598 393.503 48.9545C393.352 49.0455 393.181 49.0909 392.992 49.0909ZM396.598 49.0909C396.318 49.0909 396.077 48.9905 395.877 48.7898C395.676 48.589 395.576 48.3485 395.576 48.0682C395.576 47.7879 395.676 47.5473 395.877 47.3466C396.077 47.1458 396.318 47.0455 396.598 47.0455C396.879 47.0455 397.119 47.1458 397.32 47.3466C397.521 47.5473 397.621 47.7879 397.621 48.0682C397.621 48.2538 397.574 48.4242 397.479 48.5795C397.388 48.7348 397.265 48.8598 397.11 48.9545C396.958 49.0455 396.788 49.0909 396.598 49.0909ZM400.205 49.0909C399.924 49.0909 399.684 48.9905 399.483 48.7898C399.282 48.589 399.182 48.3485 399.182 48.0682C399.182 47.7879 399.282 47.5473 399.483 47.3466C399.684 47.1458 399.924 47.0455 400.205 47.0455C400.485 47.0455 400.725 47.1458 400.926 47.3466C401.127 47.5473 401.227 47.7879 401.227 48.0682C401.227 48.2538 401.18 48.4242 401.085 48.5795C400.994 48.7348 400.871 48.8598 400.716 48.9545C400.564 49.0455 400.394 49.0909 400.205 49.0909Z" fill="#747474"/>
<path d="M265.5 40.6691V49.25C265.5 50.9069 266.843 52.25 268.5 52.25H283.5C285.157 52.25 286.5 50.9069 286.5 49.25V40.6691L277.572 46.1631C276.608 46.7564 275.392 46.7564 274.428 46.1631L265.5 40.6691Z" fill="#303030"/>
<path d="M286.5 38.9078V38.75C286.5 37.0932 285.157 35.75 283.5 35.75H268.5C266.843 35.75 265.5 37.0932 265.5 38.75V38.9078L275.214 44.8856C275.696 45.1823 276.304 45.1823 276.786 44.8856L286.5 38.9078Z" fill="#303030"/>
</g>
<rect x="264.5" y="16.5" width="39" height="15" rx="7.5" fill="white"/>
<path d="M272.881 28V20.7273H277.27V21.5085H273.761V23.9659H277.043V24.7472H273.761V27.2188H277.327V28H272.881ZM278.244 28V22.5455H279.053V23.3977H279.124C279.238 23.1065 279.421 22.8804 279.675 22.7195C279.928 22.5561 280.232 22.4744 280.587 22.4744C280.947 22.4744 281.247 22.5561 281.486 22.7195C281.727 22.8804 281.915 23.1065 282.05 23.3977H282.107C282.247 23.116 282.456 22.8923 282.736 22.7266C283.015 22.5585 283.35 22.4744 283.741 22.4744C284.228 22.4744 284.627 22.6271 284.938 22.9325C285.248 23.2356 285.403 23.7079 285.403 24.3494V28H284.565V24.3494C284.565 23.947 284.455 23.6593 284.234 23.4865C284.014 23.3137 283.755 23.2273 283.457 23.2273C283.073 23.2273 282.776 23.3433 282.565 23.5753C282.355 23.8049 282.249 24.0961 282.249 24.4489V28H281.397V24.2642C281.397 23.9541 281.296 23.7043 281.095 23.5149C280.894 23.3232 280.635 23.2273 280.317 23.2273C280.1 23.2273 279.896 23.2853 279.707 23.4013C279.52 23.5173 279.368 23.6783 279.252 23.8842C279.138 24.0878 279.082 24.3234 279.082 24.5909V28H278.244ZM288.04 28.1278C287.694 28.1278 287.381 28.0627 287.099 27.9325C286.817 27.8 286.594 27.6094 286.428 27.3608C286.262 27.1098 286.179 26.8068 286.179 26.4517C286.179 26.1392 286.241 25.8859 286.364 25.6918C286.487 25.4953 286.652 25.3414 286.858 25.2301C287.064 25.1188 287.291 25.036 287.539 24.9815C287.79 24.9247 288.042 24.8797 288.296 24.8466C288.627 24.804 288.896 24.772 289.102 24.7507C289.31 24.727 289.462 24.688 289.556 24.6335C289.654 24.5791 289.702 24.4844 289.702 24.3494V24.321C289.702 23.9706 289.606 23.6984 289.414 23.5043C289.225 23.3101 288.937 23.2131 288.551 23.2131C288.151 23.2131 287.838 23.3007 287.61 23.4759C287.383 23.651 287.223 23.8381 287.131 24.0369L286.336 23.7528C286.478 23.4214 286.667 23.1634 286.904 22.9787C287.143 22.7917 287.403 22.6615 287.685 22.5881C287.969 22.5123 288.248 22.4744 288.523 22.4744C288.698 22.4744 288.9 22.4957 289.127 22.5384C289.356 22.5786 289.578 22.6626 289.791 22.7905C290.006 22.9183 290.185 23.1113 290.327 23.3693C290.469 23.6274 290.54 23.973 290.54 24.4062V28H289.702V27.2614H289.659C289.603 27.3797 289.508 27.5064 289.375 27.6413C289.243 27.7763 289.066 27.8911 288.846 27.9858C288.626 28.0805 288.357 28.1278 288.04 28.1278ZM288.168 27.375C288.499 27.375 288.779 27.3099 289.006 27.1797C289.236 27.0495 289.408 26.8814 289.525 26.6754C289.643 26.4695 289.702 26.2528 289.702 26.0256V25.2585C289.667 25.3011 289.588 25.3402 289.468 25.3757C289.349 25.4089 289.212 25.4384 289.056 25.4645C288.902 25.4882 288.752 25.5095 288.605 25.5284C288.46 25.545 288.343 25.5592 288.253 25.571C288.035 25.5994 287.832 25.6456 287.642 25.7095C287.455 25.7711 287.304 25.8646 287.188 25.9901C287.074 26.1132 287.017 26.2812 287.017 26.4943C287.017 26.7855 287.125 27.0057 287.341 27.1548C287.558 27.3016 287.834 27.375 288.168 27.375ZM291.57 28V22.5455H292.408V28H291.57ZM291.996 21.6364C291.833 21.6364 291.692 21.5807 291.573 21.4695C291.457 21.3582 291.399 21.2244 291.399 21.0682C291.399 20.9119 291.457 20.7782 291.573 20.6669C291.692 20.5556 291.833 20.5 291.996 20.5C292.159 20.5 292.299 20.5556 292.415 20.6669C292.533 20.7782 292.593 20.9119 292.593 21.0682C292.593 21.2244 292.533 21.3582 292.415 21.4695C292.299 21.5807 292.159 21.6364 291.996 21.6364ZM294.281 20.7273V28H293.443V20.7273H294.281Z" fill="#303030"/>
<rect x="264.5" y="16.5" width="39" height="15" rx="7.5" stroke="#303030"/>
<g filter="url(#filter2_d_103_2)">
<rect x="24" y="88" width="200" height="48" rx="8" fill="#FEFEFE" shape-rendering="crispEdges"/>
<path d="M71.7727 108.273C71.7045 107.697 71.428 107.25 70.9432 106.932C70.4583 106.614 69.8636 106.455 69.1591 106.455C68.6439 106.455 68.1932 106.538 67.8068 106.705C67.4242 106.871 67.125 107.1 66.9091 107.392C66.697 107.684 66.5909 108.015 66.5909 108.386C66.5909 108.697 66.6648 108.964 66.8125 109.188C66.964 109.407 67.1572 109.591 67.392 109.739C67.6269 109.883 67.8731 110.002 68.1307 110.097C68.3883 110.187 68.625 110.261 68.8409 110.318L70.0227 110.636C70.3258 110.716 70.6629 110.826 71.0341 110.966C71.4091 111.106 71.767 111.297 72.108 111.54C72.4527 111.778 72.7367 112.085 72.9602 112.46C73.1837 112.835 73.2955 113.295 73.2955 113.841C73.2955 114.47 73.1307 115.038 72.8011 115.545C72.4754 116.053 71.9981 116.456 71.3693 116.756C70.7443 117.055 69.9848 117.205 69.0909 117.205C68.2576 117.205 67.536 117.07 66.9261 116.801C66.3201 116.532 65.8428 116.157 65.4943 115.676C65.1496 115.195 64.9545 114.636 64.9091 114H66.3636C66.4015 114.439 66.5492 114.803 66.8068 115.091C67.0682 115.375 67.3977 115.587 67.7955 115.727C68.197 115.864 68.6288 115.932 69.0909 115.932C69.6288 115.932 70.1117 115.845 70.5398 115.67C70.9678 115.492 71.3068 115.246 71.5568 114.932C71.8068 114.614 71.9318 114.242 71.9318 113.818C71.9318 113.432 71.8239 113.117 71.608 112.875C71.392 112.633 71.108 112.436 70.7557 112.284C70.4034 112.133 70.0227 112 69.6136 111.886L68.1818 111.477C67.2727 111.216 66.553 110.843 66.0227 110.358C65.4924 109.873 65.2273 109.239 65.2273 108.455C65.2273 107.803 65.4034 107.235 65.7557 106.75C66.1117 106.261 66.589 105.883 67.1875 105.614C67.7898 105.341 68.4621 105.205 69.2045 105.205C69.9545 105.205 70.6212 105.339 71.2045 105.608C71.7879 105.873 72.25 106.237 72.5909 106.699C72.9356 107.161 73.1174 107.686 73.1364 108.273H71.7727ZM74.6304 117V108.273H75.9713V117H74.6304ZM75.3122 106.818C75.0509 106.818 74.8255 106.729 74.6361 106.551C74.4505 106.373 74.3577 106.159 74.3577 105.909C74.3577 105.659 74.4505 105.445 74.6361 105.267C74.8255 105.089 75.0509 105 75.3122 105C75.5736 105 75.7971 105.089 75.9827 105.267C76.1721 105.445 76.2668 105.659 76.2668 105.909C76.2668 106.159 76.1721 106.373 75.9827 106.551C75.7971 106.729 75.5736 106.818 75.3122 106.818ZM80.9227 117.182C80.1955 117.182 79.5534 116.998 78.9966 116.631C78.4398 116.259 78.0042 115.737 77.6898 115.062C77.3754 114.384 77.2182 113.583 77.2182 112.659C77.2182 111.742 77.3754 110.947 77.6898 110.273C78.0042 109.598 78.4417 109.078 79.0023 108.71C79.5629 108.343 80.2106 108.159 80.9455 108.159C81.5136 108.159 81.9625 108.254 82.292 108.443C82.6254 108.629 82.8792 108.841 83.0534 109.08C83.2314 109.314 83.3697 109.508 83.4682 109.659H83.5818V105.364H84.9227V117H83.6273V115.659H83.4682C83.3697 115.818 83.2295 116.019 83.0477 116.261C82.8659 116.5 82.6064 116.714 82.2693 116.903C81.9322 117.089 81.4833 117.182 80.9227 117.182ZM81.1045 115.977C81.6424 115.977 82.097 115.837 82.4682 115.557C82.8394 115.273 83.1216 114.881 83.3148 114.381C83.508 113.877 83.6045 113.295 83.6045 112.636C83.6045 111.985 83.5098 111.415 83.3205 110.926C83.1311 110.434 82.8508 110.051 82.4795 109.778C82.1083 109.502 81.65 109.364 81.1045 109.364C80.5364 109.364 80.0629 109.509 79.6841 109.801C79.3091 110.089 79.0269 110.481 78.8375 110.977C78.6519 111.47 78.5591 112.023 78.5591 112.636C78.5591 113.258 78.6538 113.822 78.8432 114.33C79.0364 114.833 79.3205 115.235 79.6955 115.534C80.0742 115.83 80.5439 115.977 81.1045 115.977ZM88.1057 111.75V117H86.7648V108.273H88.0602V109.636H88.1739C88.3784 109.193 88.689 108.837 89.1057 108.568C89.5223 108.295 90.0602 108.159 90.7193 108.159C91.3102 108.159 91.8273 108.28 92.2705 108.523C92.7136 108.761 93.0583 109.125 93.3045 109.614C93.5508 110.098 93.6739 110.712 93.6739 111.455V117H92.333V111.545C92.333 110.86 92.1549 110.326 91.7989 109.943C91.4428 109.557 90.9542 109.364 90.333 109.364C89.9049 109.364 89.5223 109.456 89.1852 109.642C88.8519 109.828 88.5886 110.098 88.3955 110.455C88.2023 110.811 88.1057 111.242 88.1057 111.75ZM98.9832 117.182C98.1423 117.182 97.4169 116.996 96.8071 116.625C96.201 116.25 95.7332 115.727 95.4037 115.057C95.0779 114.383 94.9151 113.598 94.9151 112.705C94.9151 111.811 95.0779 111.023 95.4037 110.341C95.7332 109.655 96.1916 109.121 96.7787 108.739C97.3696 108.352 98.059 108.159 98.8469 108.159C99.3014 108.159 99.7503 108.235 100.193 108.386C100.637 108.538 101.04 108.784 101.404 109.125C101.767 109.462 102.057 109.909 102.273 110.466C102.489 111.023 102.597 111.708 102.597 112.523V113.091H95.8696V111.932H101.233C101.233 111.439 101.135 111 100.938 110.614C100.745 110.227 100.468 109.922 100.108 109.699C99.7522 109.475 99.3317 109.364 98.8469 109.364C98.3128 109.364 97.8507 109.496 97.4605 109.761C97.0741 110.023 96.7768 110.364 96.5685 110.784C96.3601 111.205 96.256 111.655 96.256 112.136V112.909C96.256 113.568 96.3696 114.127 96.5969 114.585C96.8279 115.04 97.148 115.386 97.5571 115.625C97.9662 115.86 98.4416 115.977 98.9832 115.977C99.3355 115.977 99.6537 115.928 99.9378 115.83C100.226 115.727 100.474 115.576 100.682 115.375C100.89 115.17 101.051 114.917 101.165 114.614L102.461 114.977C102.324 115.417 102.095 115.803 101.773 116.136C101.451 116.466 101.053 116.723 100.58 116.909C100.106 117.091 99.5741 117.182 98.9832 117.182ZM104.435 120.273C104.207 120.273 104.005 120.254 103.827 120.216C103.649 120.182 103.526 120.148 103.457 120.114L103.798 118.932C104.124 119.015 104.412 119.045 104.662 119.023C104.912 119 105.134 118.888 105.327 118.688C105.524 118.491 105.704 118.17 105.866 117.727L106.116 117.045L102.889 108.273H104.344L106.753 115.227H106.844L109.253 108.273H110.707L107.003 118.273C106.836 118.723 106.63 119.097 106.384 119.392C106.137 119.691 105.851 119.913 105.526 120.057C105.204 120.201 104.84 120.273 104.435 120.273ZM113.13 115.409L113.039 116.023C112.975 116.455 112.877 116.917 112.744 117.409C112.615 117.902 112.481 118.366 112.341 118.801C112.2 119.237 112.085 119.583 111.994 119.841H110.971C111.021 119.598 111.085 119.278 111.164 118.881C111.244 118.483 111.324 118.038 111.403 117.545C111.486 117.057 111.555 116.557 111.608 116.045L111.676 115.409H113.13ZM119.174 117H117.697L121.969 105.364H123.424L127.697 117H126.219L122.742 107.205H122.651L119.174 117ZM119.719 112.455H125.674V113.705H119.719V112.455ZM134.027 113.432V108.273H135.368V117H134.027V115.523H133.936C133.732 115.966 133.414 116.343 132.982 116.653C132.55 116.96 132.005 117.114 131.345 117.114C130.8 117.114 130.315 116.994 129.891 116.756C129.467 116.513 129.133 116.15 128.891 115.665C128.648 115.176 128.527 114.561 128.527 113.818V108.273H129.868V113.727C129.868 114.364 130.046 114.871 130.402 115.25C130.762 115.629 131.22 115.818 131.777 115.818C132.111 115.818 132.45 115.733 132.794 115.562C133.143 115.392 133.434 115.131 133.669 114.778C133.908 114.426 134.027 113.977 134.027 113.432ZM143.206 110.227L142.001 110.568C141.926 110.367 141.814 110.172 141.666 109.983C141.522 109.79 141.325 109.631 141.075 109.506C140.825 109.381 140.505 109.318 140.115 109.318C139.581 109.318 139.136 109.441 138.78 109.688C138.428 109.93 138.251 110.239 138.251 110.614C138.251 110.947 138.373 111.21 138.615 111.403C138.857 111.597 139.236 111.758 139.751 111.886L141.047 112.205C141.827 112.394 142.409 112.684 142.791 113.074C143.174 113.46 143.365 113.958 143.365 114.568C143.365 115.068 143.221 115.515 142.933 115.909C142.649 116.303 142.251 116.614 141.74 116.841C141.229 117.068 140.634 117.182 139.956 117.182C139.066 117.182 138.329 116.989 137.746 116.602C137.162 116.216 136.793 115.652 136.638 114.909L137.911 114.591C138.032 115.061 138.261 115.413 138.598 115.648C138.939 115.883 139.384 116 139.933 116C140.558 116 141.054 115.867 141.422 115.602C141.793 115.333 141.979 115.011 141.979 114.636C141.979 114.333 141.873 114.08 141.661 113.875C141.448 113.667 141.123 113.511 140.683 113.409L139.229 113.068C138.429 112.879 137.842 112.585 137.467 112.188C137.096 111.786 136.911 111.284 136.911 110.682C136.911 110.189 137.049 109.754 137.325 109.375C137.606 108.996 137.986 108.699 138.467 108.483C138.952 108.267 139.501 108.159 140.115 108.159C140.979 108.159 141.657 108.348 142.149 108.727C142.645 109.106 142.998 109.606 143.206 110.227ZM148.379 108.273V109.409H143.856V108.273H148.379ZM145.174 106.182H146.515V114.5C146.515 114.879 146.57 115.163 146.68 115.352C146.794 115.538 146.938 115.663 147.112 115.727C147.29 115.788 147.477 115.818 147.674 115.818C147.822 115.818 147.943 115.811 148.038 115.795C148.133 115.777 148.209 115.761 148.265 115.75L148.538 116.955C148.447 116.989 148.32 117.023 148.157 117.057C147.995 117.095 147.788 117.114 147.538 117.114C147.159 117.114 146.788 117.032 146.424 116.869C146.065 116.706 145.765 116.458 145.527 116.125C145.292 115.792 145.174 115.371 145.174 114.864V106.182ZM149.596 117V108.273H150.891V109.591H150.982C151.141 109.159 151.429 108.809 151.846 108.54C152.263 108.271 152.732 108.136 153.255 108.136C153.354 108.136 153.477 108.138 153.624 108.142C153.772 108.146 153.884 108.152 153.96 108.159V109.523C153.914 109.511 153.81 109.494 153.647 109.472C153.488 109.445 153.32 109.432 153.141 109.432C152.717 109.432 152.338 109.521 152.005 109.699C151.676 109.873 151.414 110.116 151.221 110.426C151.032 110.733 150.937 111.083 150.937 111.477V117H149.596ZM157.317 117.205C156.764 117.205 156.262 117.1 155.812 116.892C155.361 116.68 155.003 116.375 154.738 115.977C154.473 115.576 154.34 115.091 154.34 114.523C154.34 114.023 154.439 113.617 154.636 113.307C154.832 112.992 155.096 112.746 155.425 112.568C155.755 112.39 156.118 112.258 156.516 112.17C156.918 112.08 157.321 112.008 157.726 111.955C158.257 111.886 158.687 111.835 159.016 111.801C159.35 111.763 159.592 111.701 159.743 111.614C159.899 111.527 159.976 111.375 159.976 111.159V111.114C159.976 110.553 159.823 110.117 159.516 109.807C159.213 109.496 158.753 109.341 158.136 109.341C157.495 109.341 156.993 109.481 156.63 109.761C156.266 110.042 156.011 110.341 155.863 110.659L154.59 110.205C154.817 109.674 155.12 109.261 155.499 108.966C155.882 108.667 156.298 108.458 156.749 108.341C157.204 108.22 157.651 108.159 158.09 108.159C158.37 108.159 158.692 108.193 159.056 108.261C159.423 108.326 159.778 108.46 160.118 108.665C160.463 108.869 160.749 109.178 160.976 109.591C161.204 110.004 161.317 110.557 161.317 111.25V117H159.976V115.818H159.908C159.817 116.008 159.666 116.21 159.454 116.426C159.242 116.642 158.959 116.826 158.607 116.977C158.255 117.129 157.825 117.205 157.317 117.205ZM157.522 116C158.052 116 158.499 115.896 158.863 115.688C159.23 115.479 159.507 115.21 159.692 114.881C159.882 114.551 159.976 114.205 159.976 113.841V112.614C159.92 112.682 159.795 112.744 159.601 112.801C159.412 112.854 159.192 112.902 158.942 112.943C158.696 112.981 158.456 113.015 158.221 113.045C157.99 113.072 157.802 113.095 157.658 113.114C157.31 113.159 156.984 113.233 156.681 113.335C156.382 113.434 156.139 113.583 155.954 113.784C155.772 113.981 155.681 114.25 155.681 114.591C155.681 115.057 155.853 115.409 156.198 115.648C156.546 115.883 156.988 116 157.522 116ZM164.306 105.364V117H162.965V105.364H164.306ZM165.962 117V108.273H167.303V117H165.962ZM166.643 106.818C166.382 106.818 166.157 106.729 165.967 106.551C165.782 106.373 165.689 106.159 165.689 105.909C165.689 105.659 165.782 105.445 165.967 105.267C166.157 105.089 166.382 105 166.643 105C166.905 105 167.128 105.089 167.314 105.267C167.503 105.445 167.598 105.659 167.598 105.909C167.598 106.159 167.503 106.373 167.314 106.551C167.128 106.729 166.905 106.818 166.643 106.818ZM171.527 117.205C170.974 117.205 170.472 117.1 170.021 116.892C169.57 116.68 169.212 116.375 168.947 115.977C168.682 115.576 168.549 115.091 168.549 114.523C168.549 114.023 168.648 113.617 168.845 113.307C169.042 112.992 169.305 112.746 169.635 112.568C169.964 112.39 170.328 112.258 170.726 112.17C171.127 112.08 171.53 112.008 171.936 111.955C172.466 111.886 172.896 111.835 173.226 111.801C173.559 111.763 173.801 111.701 173.953 111.614C174.108 111.527 174.186 111.375 174.186 111.159V111.114C174.186 110.553 174.032 110.117 173.726 109.807C173.423 109.496 172.962 109.341 172.345 109.341C171.705 109.341 171.203 109.481 170.839 109.761C170.476 110.042 170.22 110.341 170.072 110.659L168.799 110.205C169.027 109.674 169.33 109.261 169.709 108.966C170.091 108.667 170.508 108.458 170.959 108.341C171.413 108.22 171.86 108.159 172.299 108.159C172.58 108.159 172.902 108.193 173.265 108.261C173.633 108.326 173.987 108.46 174.328 108.665C174.673 108.869 174.959 109.178 175.186 109.591C175.413 110.004 175.527 110.557 175.527 111.25V117H174.186V115.818H174.118C174.027 116.008 173.875 116.21 173.663 116.426C173.451 116.642 173.169 116.826 172.816 116.977C172.464 117.129 172.034 117.205 171.527 117.205ZM171.731 116C172.262 116 172.709 115.896 173.072 115.688C173.44 115.479 173.716 115.21 173.902 114.881C174.091 114.551 174.186 114.205 174.186 113.841V112.614C174.129 112.682 174.004 112.744 173.811 112.801C173.621 112.854 173.402 112.902 173.152 112.943C172.905 112.981 172.665 113.015 172.43 113.045C172.199 113.072 172.012 113.095 171.868 113.114C171.519 113.159 171.193 113.233 170.89 113.335C170.591 113.434 170.349 113.583 170.163 113.784C169.981 113.981 169.89 114.25 169.89 114.591C169.89 115.057 170.063 115.409 170.407 115.648C170.756 115.883 171.197 116 171.731 116Z" fill="#1E1E1E"/>
<path fill-rule="evenodd" clip-rule="evenodd" d="M47.5397 121.351C47.57 121.369 47.5937 121.382 47.6105 121.392L47.6384 121.407C47.8613 121.529 48.1378 121.528 48.3608 121.407L48.3895 121.392C48.4063 121.382 48.43 121.369 48.4603 121.351C48.5207 121.316 48.607 121.265 48.7155 121.198C48.9325 121.065 49.2388 120.868 49.6046 120.609C50.3351 120.093 51.3097 119.327 52.2865 118.327C54.2307 116.337 56.25 113.346 56.25 109.5C56.25 104.944 52.5563 101.25 48 101.25C43.4436 101.25 39.75 104.944 39.75 109.5C39.75 113.346 41.7693 116.337 43.7135 118.327C44.6902 119.327 45.6649 120.093 46.3954 120.609C46.7612 120.868 47.0675 121.065 47.2845 121.198C47.393 121.265 47.4793 121.316 47.5397 121.351ZM48 112.5C49.6569 112.5 51 111.157 51 109.5C51 107.843 49.6569 106.5 48 106.5C46.3431 106.5 45 107.843 45 109.5C45 111.157 46.3431 112.5 48 112.5Z" fill="#303030"/>
<rect x="24.75" y="88.75" width="198.5" height="46.5" rx="7.25" stroke="black" stroke-width="1.5" shape-rendering="crispEdges"/>
</g>
<rect x="40.75" y="80.75" width="63.5" height="14.5" rx="7.25" fill="white"/>
<path d="M51.125 92H48.8807V84.7273H51.2244C51.9299 84.7273 52.5336 84.8729 53.0355 85.1641C53.5374 85.4529 53.9221 85.8684 54.1896 86.4105C54.4571 86.9503 54.5909 87.5966 54.5909 88.3494C54.5909 89.107 54.456 89.7592 54.1861 90.3061C53.9162 90.8506 53.5232 91.2696 53.0071 91.5632C52.491 91.8544 51.8636 92 51.125 92ZM49.7614 91.2188H51.0682C51.6695 91.2188 52.1679 91.1027 52.5632 90.8707C52.9586 90.6387 53.2533 90.3085 53.4474 89.88C53.6416 89.4515 53.7386 88.9413 53.7386 88.3494C53.7386 87.7623 53.6428 87.2569 53.451 86.8331C53.2592 86.407 52.9728 86.0803 52.5916 85.853C52.2105 85.6233 51.7358 85.5085 51.1676 85.5085H49.7614V91.2188ZM57.7415 92.1136C57.2159 92.1136 56.7625 91.9976 56.3814 91.7656C56.0026 91.5312 55.7102 91.2045 55.5043 90.7855C55.3007 90.3641 55.1989 89.8741 55.1989 89.3153C55.1989 88.7566 55.3007 88.2642 55.5043 87.8381C55.7102 87.4096 55.9967 87.0758 56.3636 86.8366C56.733 86.5952 57.1638 86.4744 57.6562 86.4744C57.9403 86.4744 58.2209 86.5218 58.4979 86.6165C58.7749 86.7112 59.027 86.8651 59.2543 87.0781C59.4815 87.2888 59.6626 87.5682 59.7976 87.9162C59.9325 88.2642 60 88.6927 60 89.2017V89.5568H55.7955V88.8324H59.1477C59.1477 88.5246 59.0862 88.25 58.9631 88.0085C58.8423 87.767 58.6695 87.5765 58.4446 87.4368C58.2221 87.2971 57.9593 87.2273 57.6562 87.2273C57.3224 87.2273 57.0336 87.3101 56.7898 87.4759C56.5483 87.6392 56.3625 87.8523 56.2322 88.1151C56.102 88.3778 56.0369 88.6596 56.0369 88.9602V89.4432C56.0369 89.8551 56.108 90.2043 56.25 90.4908C56.3944 90.7749 56.5945 90.9915 56.8501 91.1406C57.1058 91.2874 57.4029 91.3608 57.7415 91.3608C57.9616 91.3608 58.1605 91.33 58.3381 91.2685C58.518 91.2045 58.6731 91.1098 58.8033 90.9844C58.9335 90.8565 59.0341 90.6979 59.1051 90.5085L59.9148 90.7358C59.8295 91.0104 59.6863 91.2519 59.4851 91.4602C59.2839 91.6662 59.0353 91.8272 58.7393 91.9432C58.4434 92.0568 58.1108 92.1136 57.7415 92.1136ZM64.6385 87.767L63.8857 87.9801C63.8383 87.8546 63.7685 87.7327 63.6761 87.6143C63.5862 87.4936 63.4631 87.3942 63.3068 87.3161C63.1506 87.2379 62.9505 87.1989 62.7067 87.1989C62.3729 87.1989 62.0947 87.2758 61.8722 87.4297C61.652 87.5812 61.5419 87.7741 61.5419 88.0085C61.5419 88.2169 61.6177 88.3814 61.7692 88.5021C61.9207 88.6229 62.1574 88.7235 62.4794 88.804L63.2891 89.0028C63.7768 89.1212 64.1402 89.3023 64.3793 89.5462C64.6184 89.7876 64.7379 90.099 64.7379 90.4801C64.7379 90.7926 64.648 91.072 64.468 91.3182C64.2905 91.5644 64.0419 91.7585 63.7223 91.9006C63.4027 92.0426 63.031 92.1136 62.6072 92.1136C62.0509 92.1136 61.5904 91.9929 61.2259 91.7514C60.8613 91.5099 60.6304 91.1572 60.5334 90.6932L61.3288 90.4943C61.4046 90.7879 61.5478 91.008 61.7585 91.1548C61.9716 91.3016 62.2498 91.375 62.593 91.375C62.9837 91.375 63.2938 91.2921 63.5234 91.1264C63.7554 90.9583 63.8714 90.7571 63.8714 90.5227C63.8714 90.3333 63.8052 90.1747 63.6726 90.0469C63.54 89.9167 63.3364 89.8196 63.0618 89.7557L62.1527 89.5426C61.6532 89.4242 61.2862 89.2408 61.0518 88.9922C60.8198 88.7412 60.7038 88.4276 60.7038 88.0511C60.7038 87.7434 60.7902 87.4711 60.9631 87.2344C61.1383 86.9976 61.3762 86.8118 61.6768 86.6768C61.9799 86.5419 62.3232 86.4744 62.7067 86.4744C63.2464 86.4744 63.6702 86.5928 63.978 86.8295C64.2881 87.0663 64.5083 87.3788 64.6385 87.767ZM67.8716 86.5455V87.2557H65.0449V86.5455H67.8716ZM65.8688 85.2386H66.7069V90.4375C66.7069 90.6742 66.7412 90.8518 66.8098 90.9702C66.8809 91.0862 66.9708 91.1643 67.0797 91.2045C67.191 91.2424 67.3082 91.2614 67.4313 91.2614C67.5236 91.2614 67.5994 91.2566 67.6586 91.2472C67.7177 91.2353 67.7651 91.2259 67.8006 91.2188L67.9711 91.9716C67.9142 91.9929 67.8349 92.0142 67.7331 92.0355C67.6313 92.0592 67.5023 92.071 67.3461 92.071C67.1093 92.071 66.8773 92.0201 66.65 91.9183C66.4251 91.8165 66.2381 91.6615 66.089 91.4531C65.9422 91.2448 65.8688 90.982 65.8688 90.6648V85.2386ZM68.6323 92V86.5455H69.4703V92H68.6323ZM69.0584 85.6364C68.8951 85.6364 68.7542 85.5807 68.6358 85.4695C68.5198 85.3582 68.4618 85.2244 68.4618 85.0682C68.4618 84.9119 68.5198 84.7782 68.6358 84.6669C68.7542 84.5556 68.8951 84.5 69.0584 84.5C69.2218 84.5 69.3614 84.5556 69.4775 84.6669C69.5958 84.7782 69.655 84.9119 69.655 85.0682C69.655 85.2244 69.5958 85.3582 69.4775 85.4695C69.3614 85.5807 69.2218 85.6364 69.0584 85.6364ZM71.3434 88.7188V92H70.5053V86.5455H71.315V87.3977H71.386C71.5138 87.1207 71.708 86.8982 71.9684 86.7301C72.2288 86.5597 72.565 86.4744 72.9769 86.4744C73.3462 86.4744 73.6694 86.5502 73.9464 86.7017C74.2234 86.8509 74.4388 87.0781 74.5927 87.3835C74.7466 87.6866 74.8235 88.0701 74.8235 88.5341V92H73.9854V88.5909C73.9854 88.1624 73.8742 87.8286 73.6516 87.5895C73.4291 87.348 73.1237 87.2273 72.7354 87.2273C72.4679 87.2273 72.2288 87.2853 72.0181 87.4013C71.8098 87.5173 71.6452 87.6866 71.5245 87.9091C71.4038 88.1316 71.3434 88.4015 71.3434 88.7188ZM77.46 92.1278C77.1144 92.1278 76.8007 92.0627 76.519 91.9325C76.2373 91.8 76.0136 91.6094 75.8478 91.3608C75.6821 91.1098 75.5993 90.8068 75.5993 90.4517C75.5993 90.1392 75.6608 89.8859 75.7839 89.6918C75.907 89.4953 76.0716 89.3414 76.2775 89.2301C76.4835 89.1188 76.7108 89.036 76.9593 88.9815C77.2103 88.9247 77.4624 88.8797 77.7157 88.8466C78.0472 88.804 78.3159 88.772 78.5218 88.7507C78.7302 88.727 78.8817 88.688 78.9764 88.6335C79.0734 88.5791 79.122 88.4844 79.122 88.3494V88.321C79.122 87.9706 79.0261 87.6984 78.8343 87.5043C78.6449 87.3101 78.3573 87.2131 77.9714 87.2131C77.5713 87.2131 77.2576 87.3007 77.0304 87.4759C76.8031 87.651 76.6433 87.8381 76.551 88.0369L75.7555 87.7528C75.8975 87.4214 76.0869 87.1634 76.3237 86.9787C76.5628 86.7917 76.8232 86.6615 77.1049 86.5881C77.389 86.5123 77.6684 86.4744 77.943 86.4744C78.1182 86.4744 78.3194 86.4957 78.5467 86.5384C78.7763 86.5786 78.9977 86.6626 79.2108 86.7905C79.4262 86.9183 79.6049 87.1113 79.747 87.3693C79.889 87.6274 79.96 87.973 79.96 88.4062V92H79.122V91.2614H79.0794C79.0225 91.3797 78.9279 91.5064 78.7953 91.6413C78.6627 91.7763 78.4863 91.8911 78.2662 91.9858C78.046 92.0805 77.7773 92.1278 77.46 92.1278ZM77.5879 91.375C77.9193 91.375 78.1987 91.3099 78.426 91.1797C78.6556 91.0495 78.8284 90.8814 78.9444 90.6754C79.0628 90.4695 79.122 90.2528 79.122 90.0256V89.2585C79.0865 89.3011 79.0083 89.3402 78.8876 89.3757C78.7692 89.4089 78.6319 89.4384 78.4757 89.4645C78.3218 89.4882 78.1715 89.5095 78.0247 89.5284C77.8803 89.545 77.7631 89.5592 77.6731 89.571C77.4553 89.5994 77.2517 89.6456 77.0623 89.7095C76.8753 89.7711 76.7238 89.8646 76.6078 89.9901C76.4941 90.1132 76.4373 90.2812 76.4373 90.4943C76.4373 90.7855 76.545 91.0057 76.7605 91.1548C76.9783 91.3016 77.2541 91.375 77.5879 91.375ZM83.3619 86.5455V87.2557H80.5352V86.5455H83.3619ZM81.359 85.2386H82.1971V90.4375C82.1971 90.6742 82.2314 90.8518 82.3001 90.9702C82.3711 91.0862 82.4611 91.1643 82.57 91.2045C82.6812 91.2424 82.7984 91.2614 82.9215 91.2614C83.0138 91.2614 83.0896 91.2566 83.1488 91.2472C83.208 91.2353 83.2553 91.2259 83.2908 91.2188L83.4613 91.9716C83.4045 91.9929 83.3252 92.0142 83.2234 92.0355C83.1216 92.0592 82.9925 92.071 82.8363 92.071C82.5996 92.071 82.3675 92.0201 82.1403 91.9183C81.9154 91.8165 81.7283 91.6615 81.5792 91.4531C81.4324 91.2448 81.359 90.982 81.359 90.6648V85.2386ZM84.1225 92V86.5455H84.9606V92H84.1225ZM84.5487 85.6364C84.3853 85.6364 84.2444 85.5807 84.1261 85.4695C84.0101 85.3582 83.9521 85.2244 83.9521 85.0682C83.9521 84.9119 84.0101 84.7782 84.1261 84.6669C84.2444 84.5556 84.3853 84.5 84.5487 84.5C84.712 84.5 84.8517 84.5556 84.9677 84.6669C85.0861 84.7782 85.1452 84.9119 85.1452 85.0682C85.1452 85.2244 85.0861 85.3582 84.9677 85.4695C84.8517 85.5807 84.712 85.6364 84.5487 85.6364ZM88.2115 92.1136C87.719 92.1136 87.287 91.9964 86.9153 91.7621C86.546 91.5277 86.2572 91.1998 86.0488 90.7784C85.8429 90.357 85.7399 89.8646 85.7399 89.3011C85.7399 88.733 85.8429 88.237 86.0488 87.8132C86.2572 87.3894 86.546 87.0604 86.9153 86.826C87.287 86.5916 87.719 86.4744 88.2115 86.4744C88.7039 86.4744 89.1348 86.5916 89.5041 86.826C89.8758 87.0604 90.1646 87.3894 90.3706 87.8132C90.5789 88.237 90.6831 88.733 90.6831 89.3011C90.6831 89.8646 90.5789 90.357 90.3706 90.7784C90.1646 91.1998 89.8758 91.5277 89.5041 91.7621C89.1348 91.9964 88.7039 92.1136 88.2115 92.1136ZM88.2115 91.3608C88.5855 91.3608 88.8933 91.2649 89.1348 91.0732C89.3762 90.8814 89.555 90.6293 89.671 90.3168C89.787 90.0043 89.845 89.6657 89.845 89.3011C89.845 88.9366 89.787 88.5968 89.671 88.282C89.555 87.9671 89.3762 87.7126 89.1348 87.5185C88.8933 87.3243 88.5855 87.2273 88.2115 87.2273C87.8374 87.2273 87.5297 87.3243 87.2882 87.5185C87.0467 87.7126 86.868 87.9671 86.752 88.282C86.6359 88.5968 86.5779 88.9366 86.5779 89.3011C86.5779 89.6657 86.6359 90.0043 86.752 90.3168C86.868 90.6293 87.0467 90.8814 87.2882 91.0732C87.5297 91.2649 87.8374 91.3608 88.2115 91.3608ZM92.3004 88.7188V92H91.4624V86.5455H92.272V87.3977H92.343C92.4709 87.1207 92.665 86.8982 92.9254 86.7301C93.1858 86.5597 93.522 86.4744 93.9339 86.4744C94.3033 86.4744 94.6264 86.5502 94.9034 86.7017C95.1804 86.8509 95.3958 87.0781 95.5497 87.3835C95.7036 87.6866 95.7805 88.0701 95.7805 88.5341V92H94.9425V88.5909C94.9425 88.1624 94.8312 87.8286 94.6087 87.5895C94.3861 87.348 94.0807 87.2273 93.6925 87.2273C93.425 87.2273 93.1858 87.2853 92.9751 87.4013C92.7668 87.5173 92.6023 87.6866 92.4815 87.9091C92.3608 88.1316 92.3004 88.4015 92.3004 88.7188Z" fill="#303030"/>
<rect x="40.75" y="80.75" width="63.5" height="14.5" rx="7.25" stroke="#303030" stroke-width="1.5"/>
<g filter="url(#filter3_d_103_2)">
<rect x="248" y="88" width="200" height="40" rx="4" fill="#FEFEFE" shape-rendering="crispEdges"/>
<path d="M264.409 101.364H266.023L269.25 106.795H269.386L272.614 101.364H274.227L270.023 108.205V113H268.614V108.205L264.409 101.364ZM277.379 113.182C276.591 113.182 275.9 112.994 275.305 112.619C274.714 112.244 274.252 111.72 273.919 111.045C273.589 110.371 273.424 109.583 273.424 108.682C273.424 107.773 273.589 106.979 273.919 106.301C274.252 105.623 274.714 105.097 275.305 104.722C275.9 104.347 276.591 104.159 277.379 104.159C278.167 104.159 278.856 104.347 279.447 104.722C280.042 105.097 280.504 105.623 280.834 106.301C281.167 106.979 281.334 107.773 281.334 108.682C281.334 109.583 281.167 110.371 280.834 111.045C280.504 111.72 280.042 112.244 279.447 112.619C278.856 112.994 278.167 113.182 277.379 113.182ZM277.379 111.977C277.977 111.977 278.47 111.824 278.856 111.517C279.243 111.21 279.529 110.807 279.714 110.307C279.9 109.807 279.993 109.265 279.993 108.682C279.993 108.098 279.9 107.555 279.714 107.051C279.529 106.547 279.243 106.14 278.856 105.83C278.47 105.519 277.977 105.364 277.379 105.364C276.78 105.364 276.288 105.519 275.902 105.83C275.515 106.14 275.229 106.547 275.044 107.051C274.858 107.555 274.765 108.098 274.765 108.682C274.765 109.265 274.858 109.807 275.044 110.307C275.229 110.807 275.515 111.21 275.902 111.517C276.288 111.824 276.78 111.977 277.379 111.977ZM288.08 109.432V104.273H289.421V113H288.08V111.523H287.989C287.785 111.966 287.467 112.343 287.035 112.653C286.603 112.96 286.058 113.114 285.399 113.114C284.853 113.114 284.368 112.994 283.944 112.756C283.52 112.513 283.186 112.15 282.944 111.665C282.702 111.176 282.58 110.561 282.58 109.818V104.273H283.921V109.727C283.921 110.364 284.099 110.871 284.455 111.25C284.815 111.629 285.274 111.818 285.83 111.818C286.164 111.818 286.503 111.733 286.847 111.562C287.196 111.392 287.488 111.131 287.722 110.778C287.961 110.426 288.08 109.977 288.08 109.432ZM291.077 113V104.273H292.373V105.591H292.464C292.623 105.159 292.911 104.809 293.327 104.54C293.744 104.271 294.214 104.136 294.736 104.136C294.835 104.136 294.958 104.138 295.106 104.142C295.253 104.146 295.365 104.152 295.441 104.159V105.523C295.395 105.511 295.291 105.494 295.128 105.472C294.969 105.445 294.801 105.432 294.623 105.432C294.198 105.432 293.82 105.521 293.486 105.699C293.157 105.873 292.895 106.116 292.702 106.426C292.513 106.733 292.418 107.083 292.418 107.477V113H291.077ZM309.339 101.364V113H307.976L301.635 103.864H301.521V113H300.112V101.364H301.476L307.839 110.523H307.953V101.364H309.339ZM313.745 113.205C313.192 113.205 312.691 113.1 312.24 112.892C311.789 112.68 311.431 112.375 311.166 111.977C310.901 111.576 310.768 111.091 310.768 110.523C310.768 110.023 310.867 109.617 311.064 109.307C311.261 108.992 311.524 108.746 311.853 108.568C312.183 108.39 312.547 108.258 312.944 108.17C313.346 108.08 313.749 108.008 314.155 107.955C314.685 107.886 315.115 107.835 315.444 107.801C315.778 107.763 316.02 107.701 316.172 107.614C316.327 107.527 316.405 107.375 316.405 107.159V107.114C316.405 106.553 316.251 106.117 315.944 105.807C315.641 105.496 315.181 105.341 314.564 105.341C313.923 105.341 313.422 105.481 313.058 105.761C312.694 106.042 312.439 106.341 312.291 106.659L311.018 106.205C311.245 105.674 311.548 105.261 311.927 104.966C312.31 104.667 312.727 104.458 313.177 104.341C313.632 104.22 314.079 104.159 314.518 104.159C314.798 104.159 315.12 104.193 315.484 104.261C315.852 104.326 316.206 104.46 316.547 104.665C316.891 104.869 317.177 105.178 317.405 105.591C317.632 106.004 317.745 106.557 317.745 107.25V113H316.405V111.818H316.336C316.245 112.008 316.094 112.21 315.882 112.426C315.67 112.642 315.388 112.826 315.035 112.977C314.683 113.129 314.253 113.205 313.745 113.205ZM313.95 112C314.48 112 314.927 111.896 315.291 111.688C315.658 111.479 315.935 111.21 316.12 110.881C316.31 110.551 316.405 110.205 316.405 109.841V108.614C316.348 108.682 316.223 108.744 316.03 108.801C315.84 108.854 315.62 108.902 315.37 108.943C315.124 108.981 314.884 109.015 314.649 109.045C314.418 109.072 314.23 109.095 314.086 109.114C313.738 109.159 313.412 109.233 313.109 109.335C312.81 109.434 312.567 109.583 312.382 109.784C312.2 109.981 312.109 110.25 312.109 110.591C312.109 111.057 312.281 111.409 312.626 111.648C312.975 111.883 313.416 112 313.95 112ZM319.393 113V104.273H320.688V105.636H320.802C320.984 105.17 321.277 104.809 321.683 104.551C322.088 104.29 322.575 104.159 323.143 104.159C323.719 104.159 324.198 104.29 324.58 104.551C324.967 104.809 325.268 105.17 325.484 105.636H325.575C325.798 105.186 326.133 104.828 326.58 104.562C327.027 104.294 327.563 104.159 328.188 104.159C328.969 104.159 329.607 104.403 330.103 104.892C330.599 105.377 330.847 106.133 330.847 107.159V113H329.507V107.159C329.507 106.515 329.33 106.055 328.978 105.778C328.626 105.502 328.211 105.364 327.734 105.364C327.12 105.364 326.645 105.549 326.308 105.92C325.971 106.288 325.802 106.754 325.802 107.318V113H324.438V107.023C324.438 106.527 324.277 106.127 323.955 105.824C323.633 105.517 323.219 105.364 322.711 105.364C322.363 105.364 322.037 105.456 321.734 105.642C321.435 105.828 321.192 106.085 321.007 106.415C320.825 106.741 320.734 107.117 320.734 107.545V113H319.393ZM336.158 113.182C335.317 113.182 334.592 112.996 333.982 112.625C333.376 112.25 332.908 111.727 332.579 111.057C332.253 110.383 332.09 109.598 332.09 108.705C332.09 107.811 332.253 107.023 332.579 106.341C332.908 105.655 333.367 105.121 333.954 104.739C334.545 104.352 335.234 104.159 336.022 104.159C336.476 104.159 336.925 104.235 337.368 104.386C337.812 104.538 338.215 104.784 338.579 105.125C338.942 105.462 339.232 105.909 339.448 106.466C339.664 107.023 339.772 107.708 339.772 108.523V109.091H333.045V107.932H338.408C338.408 107.439 338.31 107 338.113 106.614C337.92 106.227 337.643 105.922 337.283 105.699C336.927 105.475 336.507 105.364 336.022 105.364C335.488 105.364 335.026 105.496 334.636 105.761C334.249 106.023 333.952 106.364 333.743 106.784C333.535 107.205 333.431 107.655 333.431 108.136V108.909C333.431 109.568 333.545 110.127 333.772 110.585C334.003 111.04 334.323 111.386 334.732 111.625C335.141 111.86 335.617 111.977 336.158 111.977C336.511 111.977 336.829 111.928 337.113 111.83C337.401 111.727 337.649 111.576 337.857 111.375C338.065 111.17 338.226 110.917 338.34 110.614L339.636 110.977C339.499 111.417 339.27 111.803 338.948 112.136C338.626 112.466 338.228 112.723 337.755 112.909C337.281 113.091 336.749 113.182 336.158 113.182ZM341.989 113.091C341.709 113.091 341.468 112.991 341.267 112.79C341.067 112.589 340.966 112.348 340.966 112.068C340.966 111.788 341.067 111.547 341.267 111.347C341.468 111.146 341.709 111.045 341.989 111.045C342.269 111.045 342.51 111.146 342.711 111.347C342.911 111.547 343.012 111.788 343.012 112.068C343.012 112.254 342.964 112.424 342.87 112.58C342.779 112.735 342.656 112.86 342.5 112.955C342.349 113.045 342.178 113.091 341.989 113.091ZM345.595 113.091C345.315 113.091 345.074 112.991 344.874 112.79C344.673 112.589 344.572 112.348 344.572 112.068C344.572 111.788 344.673 111.547 344.874 111.347C345.074 111.146 345.315 111.045 345.595 111.045C345.875 111.045 346.116 111.146 346.317 111.347C346.518 111.547 346.618 111.788 346.618 112.068C346.618 112.254 346.571 112.424 346.476 112.58C346.385 112.735 346.262 112.86 346.107 112.955C345.955 113.045 345.785 113.091 345.595 113.091ZM349.201 113.091C348.921 113.091 348.681 112.991 348.48 112.79C348.279 112.589 348.179 112.348 348.179 112.068C348.179 111.788 348.279 111.547 348.48 111.347C348.681 111.146 348.921 111.045 349.201 111.045C349.482 111.045 349.722 111.146 349.923 111.347C350.124 111.547 350.224 111.788 350.224 112.068C350.224 112.254 350.177 112.424 350.082 112.58C349.991 112.735 349.868 112.86 349.713 112.955C349.561 113.045 349.391 113.091 349.201 113.091Z" fill="#747474"/>
<path fill-rule="evenodd" clip-rule="evenodd" d="M435.597 101.855C435.884 102.047 435.961 102.435 435.77 102.722L428.27 113.972C428.166 114.128 427.998 114.229 427.812 114.247C427.625 114.266 427.44 114.199 427.308 114.067L422.308 109.067C422.064 108.823 422.064 108.427 422.308 108.183C422.552 107.939 422.948 107.939 423.192 108.183L427.653 112.644L434.73 102.028C434.921 101.741 435.309 101.664 435.597 101.855Z" fill="#303030"/>
<rect x="248.75" y="88.75" width="198.5" height="38.5" rx="3.25" stroke="#303030" stroke-width="1.5" shape-rendering="crispEdges"/>
</g>
<rect x="264.5" y="80.5" width="42" height="15" rx="7.5" fill="white"/>
<path d="M278.648 84.7273V92H277.795L273.832 86.2898H273.761V92H272.881V84.7273H273.733L277.71 90.4517H277.781V84.7273H278.648ZM281.401 92.1278C281.056 92.1278 280.742 92.0627 280.46 91.9325C280.179 91.8 279.955 91.6094 279.789 91.3608C279.624 91.1098 279.541 90.8068 279.541 90.4517C279.541 90.1392 279.602 89.8859 279.725 89.6918C279.848 89.4953 280.013 89.3414 280.219 89.2301C280.425 89.1188 280.652 89.036 280.901 88.9815C281.152 88.9247 281.404 88.8797 281.657 88.8466C281.989 88.804 282.257 88.772 282.463 88.7507C282.672 88.727 282.823 88.688 282.918 88.6335C283.015 88.5791 283.063 88.4844 283.063 88.3494V88.321C283.063 87.9706 282.968 87.6984 282.776 87.5043C282.586 87.3101 282.299 87.2131 281.913 87.2131C281.513 87.2131 281.199 87.3007 280.972 87.4759C280.744 87.651 280.585 87.8381 280.492 88.0369L279.697 87.7528C279.839 87.4214 280.028 87.1634 280.265 86.9787C280.504 86.7917 280.765 86.6615 281.046 86.5881C281.33 86.5123 281.61 86.4744 281.884 86.4744C282.06 86.4744 282.261 86.4957 282.488 86.5384C282.718 86.5786 282.939 86.6626 283.152 86.7905C283.368 86.9183 283.546 87.1113 283.688 87.3693C283.83 87.6274 283.901 87.973 283.901 88.4062V92H283.063V91.2614H283.021C282.964 91.3797 282.869 91.5064 282.737 91.6413C282.604 91.7763 282.428 91.8911 282.208 91.9858C281.987 92.0805 281.719 92.1278 281.401 92.1278ZM281.529 91.375C281.861 91.375 282.14 91.3099 282.367 91.1797C282.597 91.0495 282.77 90.8814 282.886 90.6754C283.004 90.4695 283.063 90.2528 283.063 90.0256V89.2585C283.028 89.3011 282.95 89.3402 282.829 89.3757C282.711 89.4089 282.573 89.4384 282.417 89.4645C282.263 89.4882 282.113 89.5095 281.966 89.5284C281.822 89.545 281.704 89.5592 281.615 89.571C281.397 89.5994 281.193 89.6456 281.004 89.7095C280.817 89.7711 280.665 89.8646 280.549 89.9901C280.436 90.1132 280.379 90.2812 280.379 90.4943C280.379 90.7855 280.486 91.0057 280.702 91.1548C280.92 91.3016 281.195 91.375 281.529 91.375ZM284.931 92V86.5455H285.741V87.3977H285.812C285.925 87.1065 286.109 86.8804 286.362 86.7195C286.616 86.5561 286.92 86.4744 287.275 86.4744C287.635 86.4744 287.934 86.5561 288.173 86.7195C288.415 86.8804 288.603 87.1065 288.738 87.3977H288.795C288.934 87.116 289.144 86.8923 289.423 86.7266C289.703 86.5585 290.038 86.4744 290.428 86.4744C290.916 86.4744 291.315 86.6271 291.625 86.9325C291.935 87.2356 292.09 87.7079 292.09 88.3494V92H291.252V88.3494C291.252 87.947 291.142 87.6593 290.922 87.4865C290.702 87.3137 290.442 87.2273 290.144 87.2273C289.761 87.2273 289.464 87.3433 289.253 87.5753C289.042 87.8049 288.937 88.0961 288.937 88.4489V92H288.085V88.2642C288.085 87.9541 287.984 87.7043 287.783 87.5149C287.581 87.3232 287.322 87.2273 287.005 87.2273C286.787 87.2273 286.584 87.2853 286.394 87.4013C286.207 87.5173 286.056 87.6783 285.94 87.8842C285.826 88.0878 285.769 88.3234 285.769 88.5909V92H284.931ZM295.409 92.1136C294.884 92.1136 294.431 91.9976 294.049 91.7656C293.671 91.5312 293.378 91.2045 293.172 90.7855C292.969 90.3641 292.867 89.8741 292.867 89.3153C292.867 88.7566 292.969 88.2642 293.172 87.8381C293.378 87.4096 293.665 87.0758 294.032 86.8366C294.401 86.5952 294.832 86.4744 295.324 86.4744C295.608 86.4744 295.889 86.5218 296.166 86.6165C296.443 86.7112 296.695 86.8651 296.922 87.0781C297.15 87.2888 297.331 87.5682 297.466 87.9162C297.6 88.2642 297.668 88.6927 297.668 89.2017V89.5568H293.463V88.8324H296.816C296.816 88.5246 296.754 88.25 296.631 88.0085C296.51 87.767 296.337 87.5765 296.113 87.4368C295.89 87.2971 295.627 87.2273 295.324 87.2273C294.99 87.2273 294.702 87.3101 294.458 87.4759C294.216 87.6392 294.03 87.8523 293.9 88.1151C293.77 88.3778 293.705 88.6596 293.705 88.9602V89.4432C293.705 89.8551 293.776 90.2043 293.918 90.4908C294.062 90.7749 294.262 90.9915 294.518 91.1406C294.774 91.2874 295.071 91.3608 295.409 91.3608C295.63 91.3608 295.828 91.33 296.006 91.2685C296.186 91.2045 296.341 91.1098 296.471 90.9844C296.601 90.8565 296.702 90.6979 296.773 90.5085L297.583 90.7358C297.498 91.0104 297.354 91.2519 297.153 91.4602C296.952 91.6662 296.703 91.8272 296.407 91.9432C296.111 92.0568 295.779 92.1136 295.409 92.1136Z" fill="#303030"/>
<rect x="264.5" y="80.5" width="42" height="15" rx="7.5" stroke="#303030"/>
<g filter="url(#filter4_d_103_2)">
<rect x="24" y="160" width="200" height="80" rx="4" fill="#FEFEFE" shape-rendering="crispEdges"/>
<path d="M40.7727 174.614V173.364H49.5V174.614H45.8409V185H44.4318V174.614H40.7727ZM53.0864 185.182C52.2455 185.182 51.5201 184.996 50.9102 184.625C50.3042 184.25 49.8364 183.727 49.5068 183.057C49.1811 182.383 49.0182 181.598 49.0182 180.705C49.0182 179.811 49.1811 179.023 49.5068 178.341C49.8364 177.655 50.2947 177.121 50.8818 176.739C51.4727 176.352 52.1621 176.159 52.95 176.159C53.4045 176.159 53.8534 176.235 54.2966 176.386C54.7398 176.538 55.1432 176.784 55.5068 177.125C55.8705 177.462 56.1602 177.909 56.3761 178.466C56.592 179.023 56.7 179.708 56.7 180.523V181.091H49.9727V179.932H55.3364C55.3364 179.439 55.2379 179 55.0409 178.614C54.8477 178.227 54.5712 177.922 54.2114 177.699C53.8553 177.475 53.4348 177.364 52.95 177.364C52.4159 177.364 51.9538 177.496 51.5636 177.761C51.1773 178.023 50.8799 178.364 50.6716 178.784C50.4633 179.205 50.3591 179.655 50.3591 180.136V180.909C50.3591 181.568 50.4727 182.127 50.7 182.585C50.9311 183.04 51.2511 183.386 51.6602 183.625C52.0693 183.86 52.5447 183.977 53.0864 183.977C53.4386 183.977 53.7568 183.928 54.0409 183.83C54.3288 183.727 54.5769 183.576 54.7852 183.375C54.9936 183.17 55.1545 182.917 55.2682 182.614L56.5636 182.977C56.4273 183.417 56.1981 183.803 55.8761 184.136C55.5542 184.466 55.1564 184.723 54.683 184.909C54.2095 185.091 53.6773 185.182 53.0864 185.182ZM58.7054 176.273L60.7963 179.841L62.8872 176.273H64.4327L61.6145 180.636L64.4327 185H62.8872L60.7963 181.614L58.7054 185H57.1599L59.9327 180.636L57.1599 176.273H58.7054ZM69.3415 176.273V177.409H64.8188V176.273H69.3415ZM66.1369 174.182H67.4778V182.5C67.4778 182.879 67.5328 183.163 67.6426 183.352C67.7563 183.538 67.9002 183.663 68.0744 183.727C68.2525 183.788 68.44 183.818 68.6369 183.818C68.7847 183.818 68.9059 183.811 69.0006 183.795C69.0953 183.777 69.171 183.761 69.2278 183.75L69.5006 184.955C69.4097 184.989 69.2828 185.023 69.1199 185.057C68.957 185.095 68.7506 185.114 68.5006 185.114C68.1218 185.114 67.7506 185.032 67.3869 184.869C67.0271 184.706 66.7278 184.458 66.4892 184.125C66.2544 183.792 66.1369 183.371 66.1369 182.864V174.182ZM73.1267 185.205C72.5737 185.205 72.0718 185.1 71.621 184.892C71.1703 184.68 70.8123 184.375 70.5472 183.977C70.282 183.576 70.1494 183.091 70.1494 182.523C70.1494 182.023 70.2479 181.617 70.4449 181.307C70.6419 180.992 70.9051 180.746 71.2347 180.568C71.5642 180.39 71.9278 180.258 72.3256 180.17C72.7271 180.08 73.1305 180.008 73.5358 179.955C74.0661 179.886 74.496 179.835 74.8256 179.801C75.1589 179.763 75.4013 179.701 75.5528 179.614C75.7081 179.527 75.7858 179.375 75.7858 179.159V179.114C75.7858 178.553 75.6324 178.117 75.3256 177.807C75.0225 177.496 74.5623 177.341 73.9449 177.341C73.3047 177.341 72.8028 177.481 72.4392 177.761C72.0756 178.042 71.8199 178.341 71.6722 178.659L70.3994 178.205C70.6267 177.674 70.9297 177.261 71.3085 176.966C71.6911 176.667 72.1078 176.458 72.5585 176.341C73.0131 176.22 73.46 176.159 73.8994 176.159C74.1797 176.159 74.5017 176.193 74.8653 176.261C75.2328 176.326 75.5869 176.46 75.9278 176.665C76.2725 176.869 76.5585 177.178 76.7858 177.591C77.0131 178.004 77.1267 178.557 77.1267 179.25V185H75.7858V183.818H75.7176C75.6267 184.008 75.4752 184.21 75.2631 184.426C75.0509 184.642 74.7687 184.826 74.4165 184.977C74.0642 185.129 73.6343 185.205 73.1267 185.205ZM73.3312 184C73.8616 184 74.3085 183.896 74.6722 183.688C75.0396 183.479 75.3161 183.21 75.5017 182.881C75.6911 182.551 75.7858 182.205 75.7858 181.841V180.614C75.729 180.682 75.604 180.744 75.4108 180.801C75.2214 180.854 75.0017 180.902 74.7517 180.943C74.5055 180.981 74.265 181.015 74.0301 181.045C73.7991 181.072 73.6116 181.095 73.4676 181.114C73.1191 181.159 72.7934 181.233 72.4903 181.335C72.1911 181.434 71.9487 181.583 71.7631 181.784C71.5812 181.981 71.4903 182.25 71.4903 182.591C71.4903 183.057 71.6627 183.409 72.0074 183.648C72.3559 183.883 72.7972 184 73.3312 184ZM78.7741 185V176.273H80.0696V177.591H80.1605C80.3196 177.159 80.6075 176.809 81.0241 176.54C81.4408 176.271 81.9105 176.136 82.4332 176.136C82.5317 176.136 82.6548 176.138 82.8026 176.142C82.9503 176.146 83.062 176.152 83.1378 176.159V177.523C83.0923 177.511 82.9882 177.494 82.8253 177.472C82.6662 177.445 82.4976 177.432 82.3196 177.432C81.8954 177.432 81.5166 177.521 81.1832 177.699C80.8537 177.873 80.5923 178.116 80.3991 178.426C80.2098 178.733 80.1151 179.083 80.1151 179.477V185H78.7741ZM87.3207 185.182C86.4798 185.182 85.7545 184.996 85.1446 184.625C84.5385 184.25 84.0707 183.727 83.7412 183.057C83.4154 182.383 83.2526 181.598 83.2526 180.705C83.2526 179.811 83.4154 179.023 83.7412 178.341C84.0707 177.655 84.5291 177.121 85.1162 176.739C85.7071 176.352 86.3965 176.159 87.1844 176.159C87.6389 176.159 88.0878 176.235 88.531 176.386C88.9741 176.538 89.3776 176.784 89.7412 177.125C90.1048 177.462 90.3946 177.909 90.6105 178.466C90.8264 179.023 90.9344 179.708 90.9344 180.523V181.091H84.2071V179.932H89.5707C89.5707 179.439 89.4723 179 89.2753 178.614C89.0821 178.227 88.8056 177.922 88.4457 177.699C88.0897 177.475 87.6692 177.364 87.1844 177.364C86.6503 177.364 86.1882 177.496 85.798 177.761C85.4116 178.023 85.1143 178.364 84.906 178.784C84.6976 179.205 84.5935 179.655 84.5935 180.136V180.909C84.5935 181.568 84.7071 182.127 84.9344 182.585C85.1654 183.04 85.4855 183.386 85.8946 183.625C86.3037 183.86 86.7791 183.977 87.3207 183.977C87.673 183.977 87.9912 183.928 88.2753 183.83C88.5632 183.727 88.8113 183.576 89.0196 183.375C89.2279 183.17 89.3889 182.917 89.5026 182.614L90.798 182.977C90.6616 183.417 90.4325 183.803 90.1105 184.136C89.7885 184.466 89.3908 184.723 88.9173 184.909C88.4438 185.091 87.9116 185.182 87.3207 185.182ZM94.7423 185.205C94.1893 185.205 93.6874 185.1 93.2366 184.892C92.7859 184.68 92.4279 184.375 92.1628 183.977C91.8976 183.576 91.7651 183.091 91.7651 182.523C91.7651 182.023 91.8635 181.617 92.0605 181.307C92.2575 180.992 92.5207 180.746 92.8503 180.568C93.1798 180.39 93.5435 180.258 93.9412 180.17C94.3427 180.08 94.7461 180.008 95.1514 179.955C95.6817 179.886 96.1116 179.835 96.4412 179.801C96.7745 179.763 97.017 179.701 97.1685 179.614C97.3238 179.527 97.4014 179.375 97.4014 179.159V179.114C97.4014 178.553 97.248 178.117 96.9412 177.807C96.6382 177.496 96.1779 177.341 95.5605 177.341C94.9204 177.341 94.4185 177.481 94.0548 177.761C93.6912 178.042 93.4355 178.341 93.2878 178.659L92.0151 178.205C92.2423 177.674 92.5454 177.261 92.9241 176.966C93.3067 176.667 93.7234 176.458 94.1741 176.341C94.6287 176.22 95.0757 176.159 95.5151 176.159C95.7954 176.159 96.1173 176.193 96.481 176.261C96.8484 176.326 97.2026 176.46 97.5435 176.665C97.8882 176.869 98.1741 177.178 98.4014 177.591C98.6287 178.004 98.7423 178.557 98.7423 179.25V185H97.4014V183.818H97.3332C97.2423 184.008 97.0908 184.21 96.8787 184.426C96.6666 184.642 96.3844 184.826 96.0321 184.977C95.6798 185.129 95.2499 185.205 94.7423 185.205ZM94.9469 184C95.4772 184 95.9241 183.896 96.2878 183.688C96.6552 183.479 96.9317 183.21 97.1173 182.881C97.3067 182.551 97.4014 182.205 97.4014 181.841V180.614C97.3446 180.682 97.2196 180.744 97.0264 180.801C96.837 180.854 96.6173 180.902 96.3673 180.943C96.1211 180.981 95.8806 181.015 95.6457 181.045C95.4147 181.072 95.2272 181.095 95.0832 181.114C94.7348 181.159 94.409 181.233 94.106 181.335C93.8067 181.434 93.5643 181.583 93.3787 181.784C93.1969 181.981 93.106 182.25 93.106 182.591C93.106 183.057 93.2783 183.409 93.623 183.648C93.9715 183.883 94.4128 184 94.9469 184ZM101.367 185.091C101.087 185.091 100.846 184.991 100.645 184.79C100.445 184.589 100.344 184.348 100.344 184.068C100.344 183.788 100.445 183.547 100.645 183.347C100.846 183.146 101.087 183.045 101.367 183.045C101.647 183.045 101.888 183.146 102.089 183.347C102.289 183.547 102.39 183.788 102.39 184.068C102.39 184.254 102.342 184.424 102.248 184.58C102.157 184.735 102.034 184.86 101.878 184.955C101.727 185.045 101.556 185.091 101.367 185.091ZM104.973 185.091C104.693 185.091 104.452 184.991 104.252 184.79C104.051 184.589 103.951 184.348 103.951 184.068C103.951 183.788 104.051 183.547 104.252 183.347C104.452 183.146 104.693 183.045 104.973 183.045C105.254 183.045 105.494 183.146 105.695 183.347C105.896 183.547 105.996 183.788 105.996 184.068C105.996 184.254 105.949 184.424 105.854 184.58C105.763 184.735 105.64 184.86 105.485 184.955C105.333 185.045 105.163 185.091 104.973 185.091ZM108.58 185.091C108.299 185.091 108.059 184.991 107.858 184.79C107.657 184.589 107.557 184.348 107.557 184.068C107.557 183.788 107.657 183.547 107.858 183.347C108.059 183.146 108.299 183.045 108.58 183.045C108.86 183.045 109.1 183.146 109.301 183.347C109.502 183.547 109.602 183.788 109.602 184.068C109.602 184.254 109.555 184.424 109.46 184.58C109.369 184.735 109.246 184.86 109.091 184.955C108.939 185.045 108.769 185.091 108.58 185.091Z" fill="#747474"/>
</g>
<rect x="40" y="152" width="59" height="16" rx="8" fill="#F5F5F5"/>
<path d="M54.733 159H53.8523C53.8002 158.747 53.709 158.524 53.5788 158.332C53.451 158.141 53.2947 157.98 53.1101 157.849C52.9278 157.717 52.7254 157.617 52.5028 157.551C52.2803 157.485 52.0483 157.452 51.8068 157.452C51.3665 157.452 50.9676 157.563 50.6101 157.786C50.255 158.008 49.9721 158.336 49.7614 158.769C49.553 159.202 49.4489 159.734 49.4489 160.364C49.4489 160.993 49.553 161.525 49.7614 161.958C49.9721 162.391 50.255 162.719 50.6101 162.942C50.9676 163.164 51.3665 163.276 51.8068 163.276C52.0483 163.276 52.2803 163.242 52.5028 163.176C52.7254 163.11 52.9278 163.012 53.1101 162.881C53.2947 162.749 53.451 162.587 53.5788 162.395C53.709 162.201 53.8002 161.978 53.8523 161.727H54.733C54.6667 162.099 54.5459 162.432 54.3707 162.725C54.1955 163.019 53.9777 163.268 53.7173 163.474C53.4569 163.678 53.1645 163.833 52.8402 163.94C52.5182 164.046 52.1738 164.099 51.8068 164.099C51.1866 164.099 50.6349 163.948 50.152 163.645C49.669 163.342 49.2891 162.911 49.0121 162.352C48.7351 161.794 48.5966 161.131 48.5966 160.364C48.5966 159.597 48.7351 158.934 49.0121 158.375C49.2891 157.816 49.669 157.385 50.152 157.082C50.6349 156.779 51.1866 156.628 51.8068 156.628C52.1738 156.628 52.5182 156.681 52.8402 156.788C53.1645 156.894 53.4569 157.05 53.7173 157.256C53.9777 157.46 54.1955 157.709 54.3707 158.002C54.5459 158.293 54.6667 158.626 54.733 159ZM57.7583 164.114C57.2659 164.114 56.8339 163.996 56.4622 163.762C56.0929 163.528 55.804 163.2 55.5957 162.778C55.3897 162.357 55.2868 161.865 55.2868 161.301C55.2868 160.733 55.3897 160.237 55.5957 159.813C55.804 159.389 56.0929 159.06 56.4622 158.826C56.8339 158.592 57.2659 158.474 57.7583 158.474C58.2508 158.474 58.6816 158.592 59.051 158.826C59.4226 159.06 59.7115 159.389 59.9174 159.813C60.1258 160.237 60.2299 160.733 60.2299 161.301C60.2299 161.865 60.1258 162.357 59.9174 162.778C59.7115 163.2 59.4226 163.528 59.051 163.762C58.6816 163.996 58.2508 164.114 57.7583 164.114ZM57.7583 163.361C58.1324 163.361 58.4402 163.265 58.6816 163.073C58.9231 162.881 59.1019 162.629 59.2179 162.317C59.3339 162.004 59.3919 161.666 59.3919 161.301C59.3919 160.937 59.3339 160.597 59.2179 160.282C59.1019 159.967 58.9231 159.713 58.6816 159.518C58.4402 159.324 58.1324 159.227 57.7583 159.227C57.3843 159.227 57.0765 159.324 56.835 159.518C56.5936 159.713 56.4148 159.967 56.2988 160.282C56.1828 160.597 56.1248 160.937 56.1248 161.301C56.1248 161.666 56.1828 162.004 56.2988 162.317C56.4148 162.629 56.5936 162.881 56.835 163.073C57.0765 163.265 57.3843 163.361 57.7583 163.361ZM61.0092 164V158.545H61.8189V159.398H61.8899C62.0036 159.107 62.187 158.88 62.4403 158.719C62.6937 158.556 62.9979 158.474 63.353 158.474C63.7128 158.474 64.0123 158.556 64.2514 158.719C64.4929 158.88 64.6811 159.107 64.8161 159.398H64.8729C65.0125 159.116 65.2221 158.892 65.5014 158.727C65.7808 158.558 66.1158 158.474 66.5064 158.474C66.9941 158.474 67.393 158.627 67.7031 158.933C68.0133 159.236 68.1683 159.708 68.1683 160.349V164H67.3303V160.349C67.3303 159.947 67.2202 159.659 67 159.487C66.7798 159.314 66.5206 159.227 66.2223 159.227C65.8388 159.227 65.5417 159.343 65.331 159.575C65.1203 159.805 65.0149 160.096 65.0149 160.449V164H64.1626V160.264C64.1626 159.954 64.062 159.704 63.8608 159.515C63.6596 159.323 63.4003 159.227 63.0831 159.227C62.8653 159.227 62.6617 159.285 62.4723 159.401C62.2853 159.517 62.1338 159.678 62.0178 159.884C61.9041 160.088 61.8473 160.323 61.8473 160.591V164H61.0092ZM69.2006 164V158.545H70.0103V159.398H70.0813C70.195 159.107 70.3784 158.88 70.6317 158.719C70.8851 158.556 71.1893 158.474 71.5444 158.474C71.9042 158.474 72.2037 158.556 72.4428 158.719C72.6843 158.88 72.8725 159.107 73.0075 159.398H73.0643C73.204 159.116 73.4135 158.892 73.6928 158.727C73.9722 158.558 74.3072 158.474 74.6978 158.474C75.1855 158.474 75.5844 158.627 75.8945 158.933C76.2047 159.236 76.3597 159.708 76.3597 160.349V164H75.5217V160.349C75.5217 159.947 75.4116 159.659 75.1914 159.487C74.9712 159.314 74.712 159.227 74.4137 159.227C74.0302 159.227 73.7331 159.343 73.5224 159.575C73.3117 159.805 73.2063 160.096 73.2063 160.449V164H72.354V160.264C72.354 159.954 72.2534 159.704 72.0522 159.515C71.851 159.323 71.5917 159.227 71.2745 159.227C71.0567 159.227 70.8531 159.285 70.6637 159.401C70.4767 159.517 70.3252 159.678 70.2092 159.884C70.0955 160.088 70.0387 160.323 70.0387 160.591V164H69.2006ZM79.679 164.114C79.1534 164.114 78.7 163.998 78.3189 163.766C77.9401 163.531 77.6477 163.205 77.4418 162.786C77.2382 162.364 77.1364 161.874 77.1364 161.315C77.1364 160.757 77.2382 160.264 77.4418 159.838C77.6477 159.41 77.9342 159.076 78.3011 158.837C78.6705 158.595 79.1013 158.474 79.5938 158.474C79.8778 158.474 80.1584 158.522 80.4354 158.616C80.7124 158.711 80.9645 158.865 81.1918 159.078C81.419 159.289 81.6001 159.568 81.7351 159.916C81.87 160.264 81.9375 160.693 81.9375 161.202V161.557H77.733V160.832H81.0852C81.0852 160.525 81.0237 160.25 80.9006 160.009C80.7798 159.767 80.607 159.576 80.3821 159.437C80.1596 159.297 79.8968 159.227 79.5938 159.227C79.2599 159.227 78.9711 159.31 78.7273 159.476C78.4858 159.639 78.3 159.852 78.1697 160.115C78.0395 160.378 77.9744 160.66 77.9744 160.96V161.443C77.9744 161.855 78.0455 162.204 78.1875 162.491C78.3319 162.775 78.532 162.991 78.7876 163.141C79.0433 163.287 79.3404 163.361 79.679 163.361C79.8991 163.361 80.098 163.33 80.2756 163.268C80.4555 163.205 80.6106 163.11 80.7408 162.984C80.871 162.857 80.9716 162.698 81.0426 162.509L81.8523 162.736C81.767 163.01 81.6238 163.252 81.4226 163.46C81.2214 163.666 80.9728 163.827 80.6768 163.943C80.3809 164.057 80.0483 164.114 79.679 164.114ZM83.5504 160.719V164H82.7124V158.545H83.522V159.398H83.593C83.7209 159.121 83.915 158.898 84.1754 158.73C84.4358 158.56 84.772 158.474 85.1839 158.474C85.5533 158.474 85.8764 158.55 86.1534 158.702C86.4304 158.851 86.6458 159.078 86.7997 159.384C86.9536 159.687 87.0305 160.07 87.0305 160.534V164H86.1925V160.591C86.1925 160.162 86.0812 159.829 85.8587 159.589C85.6361 159.348 85.3307 159.227 84.9425 159.227C84.675 159.227 84.4358 159.285 84.2251 159.401C84.0168 159.517 83.8523 159.687 83.7315 159.909C83.6108 160.132 83.5504 160.402 83.5504 160.719ZM90.4341 158.545V159.256H87.6074V158.545H90.4341ZM88.4313 157.239H89.2694V162.438C89.2694 162.674 89.3037 162.852 89.3723 162.97C89.4434 163.086 89.5333 163.164 89.6422 163.205C89.7535 163.242 89.8707 163.261 89.9938 163.261C90.0861 163.261 90.1619 163.257 90.2211 163.247C90.2802 163.235 90.3276 163.226 90.3631 163.219L90.5336 163.972C90.4767 163.993 90.3974 164.014 90.2956 164.036C90.1938 164.059 90.0648 164.071 89.9086 164.071C89.6718 164.071 89.4398 164.02 89.2125 163.918C88.9876 163.817 88.8006 163.661 88.6515 163.453C88.5047 163.245 88.4313 162.982 88.4313 162.665V157.239Z" fill="#303030"/>
<rect x="0.5" y="0.5" width="471" height="273" rx="7.5" stroke="white" stroke-opacity="0.1"/>
<defs>
<filter id="filter0_d_103_2" x="20" y="22" width="208" height="48" filterUnits="userSpaceOnUse" color-interpolation-filters="sRGB">
<feFlood flood-opacity="0" result="BackgroundImageFix"/>
<feColorMatrix in="SourceAlpha" type="matrix" values="0 0 0 0 0 0 0 0 0 0 0 0 0 0 0 0 0 0 127 0" result="hardAlpha"/>
<feOffset dy="2"/>
<feGaussianBlur stdDeviation="2"/>
<feComposite in2="hardAlpha" operator="out"/>
<feColorMatrix type="matrix" values="0 0 0 0 0.188235 0 0 0 0 0.188235 0 0 0 0 0.188235 0 0 0 0.17 0"/>
<feBlend mode="normal" in2="BackgroundImageFix" result="effect1_dropShadow_103_2"/>
<feBlend mode="normal" in="SourceGraphic" in2="effect1_dropShadow_103_2" result="shape"/>
</filter>
<filter id="filter1_d_103_2" x="244" y="22" width="208" height="48" filterUnits="userSpaceOnUse" color-interpolation-filters="sRGB">
<feFlood flood-opacity="0" result="BackgroundImageFix"/>
<feColorMatrix in="SourceAlpha" type="matrix" values="0 0 0 0 0 0 0 0 0 0 0 0 0 0 0 0 0 0 127 0" result="hardAlpha"/>
<feOffset dy="2"/>
<feGaussianBlur stdDeviation="2"/>
<feComposite in2="hardAlpha" operator="out"/>
<feColorMatrix type="matrix" values="0 0 0 0 0.188235 0 0 0 0 0.188235 0 0 0 0 0.188235 0 0 0 0.17 0"/>
<feBlend mode="normal" in2="BackgroundImageFix" result="effect1_dropShadow_103_2"/>
<feBlend mode="normal" in="SourceGraphic" in2="effect1_dropShadow_103_2" result="shape"/>
</filter>
<filter id="filter2_d_103_2" x="20" y="86" width="208" height="56" filterUnits="userSpaceOnUse" color-interpolation-filters="sRGB">
<feFlood flood-opacity="0" result="BackgroundImageFix"/>
<feColorMatrix in="SourceAlpha" type="matrix" values="0 0 0 0 0 0 0 0 0 0 0 0 0 0 0 0 0 0 127 0" result="hardAlpha"/>
<feOffset dy="2"/>
<feGaussianBlur stdDeviation="2"/>
<feComposite in2="hardAlpha" operator="out"/>
<feColorMatrix type="matrix" values="0 0 0 0 0.188235 0 0 0 0 0.188235 0 0 0 0 0.188235 0 0 0 0.17 0"/>
<feBlend mode="normal" in2="BackgroundImageFix" result="effect1_dropShadow_103_2"/>
<feBlend mode="normal" in="SourceGraphic" in2="effect1_dropShadow_103_2" result="shape"/>
</filter>
<filter id="filter3_d_103_2" x="248" y="88" width="204" height="44" filterUnits="userSpaceOnUse" color-interpolation-filters="sRGB">
<feFlood flood-opacity="0" result="BackgroundImageFix"/>
<feColorMatrix in="SourceAlpha" type="matrix" values="0 0 0 0 0 0 0 0 0 0 0 0 0 0 0 0 0 0 127 0" result="hardAlpha"/>
<feOffset dx="4" dy="4"/>
<feComposite in2="hardAlpha" operator="out"/>
<feColorMatrix type="matrix" values="0 0 0 0 0.188235 0 0 0 0 0.188235 0 0 0 0 0.188235 0 0 0 1 0"/>
<feBlend mode="normal" in2="BackgroundImageFix" result="effect1_dropShadow_103_2"/>
<feBlend mode="normal" in="SourceGraphic" in2="effect1_dropShadow_103_2" result="shape"/>
</filter>
<filter id="filter4_d_103_2" x="20" y="158" width="208" height="88" filterUnits="userSpaceOnUse" color-interpolation-filters="sRGB">
<feFlood flood-opacity="0" result="BackgroundImageFix"/>
<feColorMatrix in="SourceAlpha" type="matrix" values="0 0 0 0 0 0 0 0 0 0 0 0 0 0 0 0 0 0 127 0" result="hardAlpha"/>
<feOffset dy="2"/>
<feGaussianBlur stdDeviation="2"/>
<feComposite in2="hardAlpha" operator="out"/>
<feColorMatrix type="matrix" values="0 0 0 0 0.188235 0 0 0 0 0.188235 0 0 0 0 0.188235 0 0 0 0.17 0"/>
<feBlend mode="normal" in2="BackgroundImageFix" result="effect1_dropShadow_103_2"/>
<feBlend mode="normal" in="SourceGraphic" in2="effect1_dropShadow_103_2" result="shape"/>
</filter>
</defs>
</svg>
