<svg width="472" height="274" viewBox="0 0 472 274" fill="none" xmlns="http://www.w3.org/2000/svg">
<rect width="472" height="274" rx="8" fill="#F0F0F0"/>
<g filter="url(#filter0_d_13_37)">
<rect x="24" y="24" width="200" height="40" rx="8" fill="#FEFEFE" shape-rendering="crispEdges"/>
<path d="M42.8182 37.3636V49H41.4091V37.3636H42.8182ZM46.0026 43.75V49H44.6616V40.2727H45.9571V41.6364H46.0707C46.2753 41.1932 46.5859 40.8371 47.0026 40.5682C47.4192 40.2955 47.9571 40.1591 48.6162 40.1591C49.2071 40.1591 49.7241 40.2803 50.1673 40.5227C50.6105 40.7614 50.9552 41.125 51.2014 41.6136C51.4476 42.0985 51.5707 42.7121 51.5707 43.4545V49H50.2298V43.5455C50.2298 42.8598 50.0518 42.3258 49.6957 41.9432C49.3397 41.5568 48.851 41.3636 48.2298 41.3636C47.8018 41.3636 47.4192 41.4564 47.0821 41.642C46.7488 41.8277 46.4855 42.0985 46.2923 42.4545C46.0991 42.8106 46.0026 43.2424 46.0026 43.75ZM53.221 52.2727V40.2727H54.5165V41.6591H54.6756C54.7741 41.5076 54.9104 41.3144 55.0847 41.0795C55.2627 40.8409 55.5165 40.6288 55.846 40.4432C56.1794 40.2538 56.6301 40.1591 57.1983 40.1591C57.9331 40.1591 58.5809 40.3428 59.1415 40.7102C59.7021 41.0777 60.1396 41.5985 60.454 42.2727C60.7684 42.947 60.9256 43.7424 60.9256 44.6591C60.9256 45.5833 60.7684 46.3845 60.454 47.0625C60.1396 47.7367 59.704 48.2595 59.1472 48.6307C58.5903 48.9981 57.9483 49.1818 57.221 49.1818C56.6604 49.1818 56.2116 49.089 55.8744 48.9034C55.5373 48.714 55.2778 48.5 55.096 48.2614C54.9142 48.0189 54.7741 47.8182 54.6756 47.6591H54.5619V52.2727H53.221ZM54.5392 44.6364C54.5392 45.2955 54.6358 45.8769 54.829 46.3807C55.0222 46.8807 55.3044 47.2727 55.6756 47.5568C56.0468 47.8371 56.5013 47.9773 57.0392 47.9773C57.5998 47.9773 58.0676 47.8295 58.4426 47.5341C58.8214 47.2348 59.1055 46.8333 59.2949 46.3295C59.4881 45.822 59.5847 45.2576 59.5847 44.6364C59.5847 44.0227 59.49 43.4697 59.3006 42.9773C59.115 42.4811 58.8328 42.089 58.454 41.8011C58.079 41.5095 57.6074 41.3636 57.0392 41.3636C56.4937 41.3636 56.0354 41.5019 55.6642 41.7784C55.293 42.0511 55.0127 42.4337 54.8233 42.9261C54.6339 43.4148 54.5392 43.9848 54.5392 44.6364ZM67.671 45.4318V40.2727H69.0119V49H67.671V47.5227H67.5801C67.3756 47.9659 67.0574 48.3428 66.6256 48.6534C66.1938 48.9602 65.6483 49.1136 64.9892 49.1136C64.4438 49.1136 63.9589 48.9943 63.5347 48.7557C63.1104 48.5133 62.7771 48.1496 62.5347 47.6648C62.2922 47.1761 62.171 46.5606 62.171 45.8182V40.2727H63.5119V45.7273C63.5119 46.3636 63.69 46.8712 64.046 47.25C64.4059 47.6288 64.8642 47.8182 65.421 47.8182C65.7544 47.8182 66.0934 47.733 66.4381 47.5625C66.7866 47.392 67.0782 47.1307 67.3131 46.7784C67.5517 46.4261 67.671 45.9773 67.671 45.4318ZM74.4634 40.2727V41.4091H69.9406V40.2727H74.4634ZM71.2588 38.1818H72.5997V46.5C72.5997 46.8788 72.6546 47.1629 72.7645 47.3523C72.8781 47.5379 73.0221 47.6629 73.1963 47.7273C73.3743 47.7879 73.5618 47.8182 73.7588 47.8182C73.9065 47.8182 74.0277 47.8106 74.1224 47.7955C74.2171 47.7765 74.2929 47.7614 74.3497 47.75L74.6224 48.9545C74.5315 48.9886 74.4046 49.0227 74.2418 49.0568C74.0789 49.0947 73.8724 49.1136 73.6224 49.1136C73.2437 49.1136 72.8724 49.0322 72.5088 48.8693C72.149 48.7064 71.8497 48.4583 71.6111 48.125C71.3762 47.7917 71.2588 47.3712 71.2588 46.8636V38.1818ZM76.6577 49.0909C76.3774 49.0909 76.1368 48.9905 75.9361 48.7898C75.7353 48.589 75.6349 48.3485 75.6349 48.0682C75.6349 47.7879 75.7353 47.5473 75.9361 47.3466C76.1368 47.1458 76.3774 47.0455 76.6577 47.0455C76.938 47.0455 77.1785 47.1458 77.3793 47.3466C77.58 47.5473 77.6804 47.7879 77.6804 48.0682C77.6804 48.2538 77.633 48.4242 77.5384 48.5795C77.4474 48.7348 77.3243 48.8598 77.169 48.9545C77.0175 49.0455 76.8471 49.0909 76.6577 49.0909ZM80.2639 49.0909C79.9836 49.0909 79.7431 48.9905 79.5423 48.7898C79.3416 48.589 79.2412 48.3485 79.2412 48.0682C79.2412 47.7879 79.3416 47.5473 79.5423 47.3466C79.7431 47.1458 79.9836 47.0455 80.2639 47.0455C80.5442 47.0455 80.7848 47.1458 80.9855 47.3466C81.1863 47.5473 81.2866 47.7879 81.2866 48.0682C81.2866 48.2538 81.2393 48.4242 81.1446 48.5795C81.0537 48.7348 80.9306 48.8598 80.7753 48.9545C80.6238 49.0455 80.4533 49.0909 80.2639 49.0909ZM83.8702 49.0909C83.5899 49.0909 83.3493 48.9905 83.1486 48.7898C82.9478 48.589 82.8474 48.3485 82.8474 48.0682C82.8474 47.7879 82.9478 47.5473 83.1486 47.3466C83.3493 47.1458 83.5899 47.0455 83.8702 47.0455C84.1505 47.0455 84.391 47.1458 84.5918 47.3466C84.7925 47.5473 84.8929 47.7879 84.8929 48.0682C84.8929 48.2538 84.8456 48.4242 84.7509 48.5795C84.6599 48.7348 84.5368 48.8598 84.3815 48.9545C84.23 49.0455 84.0596 49.0909 83.8702 49.0909Z" fill="#747474"/>
</g>
<g filter="url(#filter1_d_13_37)">
<rect x="248" y="24" width="200" height="40" rx="8" fill="#FEFEFE" shape-rendering="crispEdges"/>
<path d="M292.409 49V37.3636H299.432V38.6136H293.818V42.5455H299.068V43.7955H293.818V47.75H299.523V49H292.409ZM300.99 49V40.2727H302.285V41.6364H302.399C302.581 41.1705 302.874 40.8087 303.28 40.5511C303.685 40.2898 304.172 40.1591 304.74 40.1591C305.316 40.1591 305.795 40.2898 306.177 40.5511C306.564 40.8087 306.865 41.1705 307.081 41.6364H307.172C307.395 41.1856 307.73 40.8277 308.177 40.5625C308.624 40.2936 309.16 40.1591 309.785 40.1591C310.566 40.1591 311.204 40.4034 311.7 40.892C312.196 41.3769 312.444 42.1326 312.444 43.1591V49H311.103V43.1591C311.103 42.5152 310.927 42.0549 310.575 41.7784C310.223 41.5019 309.808 41.3636 309.331 41.3636C308.717 41.3636 308.242 41.5492 307.905 41.9205C307.567 42.2879 307.399 42.7538 307.399 43.3182V49H306.035V43.0227C306.035 42.5265 305.874 42.1269 305.552 41.8239C305.23 41.517 304.816 41.3636 304.308 41.3636C303.959 41.3636 303.634 41.4564 303.331 41.642C303.031 41.8277 302.789 42.0852 302.603 42.4148C302.422 42.7405 302.331 43.1174 302.331 43.5455V49H300.99ZM316.664 49.2045C316.111 49.2045 315.609 49.1004 315.159 48.892C314.708 48.6799 314.35 48.375 314.085 47.9773C313.82 47.5758 313.687 47.0909 313.687 46.5227C313.687 46.0227 313.785 45.6174 313.982 45.3068C314.179 44.9924 314.443 44.7462 314.772 44.5682C315.102 44.3902 315.465 44.2576 315.863 44.1705C316.265 44.0795 316.668 44.0076 317.073 43.9545C317.604 43.8864 318.034 43.8352 318.363 43.8011C318.696 43.7633 318.939 43.7008 319.09 43.6136C319.246 43.5265 319.323 43.375 319.323 43.1591V43.1136C319.323 42.553 319.17 42.1174 318.863 41.8068C318.56 41.4962 318.1 41.3409 317.482 41.3409C316.842 41.3409 316.34 41.4811 315.977 41.7614C315.613 42.0417 315.357 42.3409 315.21 42.6591L313.937 42.2045C314.164 41.6742 314.467 41.2614 314.846 40.9659C315.229 40.6667 315.645 40.4583 316.096 40.3409C316.551 40.2197 316.998 40.1591 317.437 40.1591C317.717 40.1591 318.039 40.1932 318.403 40.2614C318.77 40.3258 319.124 40.4602 319.465 40.6648C319.81 40.8693 320.096 41.178 320.323 41.5909C320.551 42.0038 320.664 42.5568 320.664 43.25V49H319.323V47.8182H319.255C319.164 48.0076 319.013 48.2102 318.801 48.4261C318.588 48.642 318.306 48.8258 317.954 48.9773C317.602 49.1288 317.172 49.2045 316.664 49.2045ZM316.869 48C317.399 48 317.846 47.8958 318.21 47.6875C318.577 47.4792 318.854 47.2102 319.039 46.8807C319.229 46.5511 319.323 46.2045 319.323 45.8409V44.6136C319.266 44.6818 319.141 44.7443 318.948 44.8011C318.759 44.8542 318.539 44.9015 318.289 44.9432C318.043 44.9811 317.802 45.0152 317.568 45.0455C317.337 45.072 317.149 45.0947 317.005 45.1136C316.657 45.1591 316.331 45.233 316.028 45.3352C315.729 45.4337 315.486 45.5833 315.301 45.7841C315.119 45.9811 315.028 46.25 315.028 46.5909C315.028 47.0568 315.2 47.4091 315.545 47.6477C315.893 47.8826 316.335 48 316.869 48ZM322.312 49V40.2727H323.653V49H322.312ZM322.993 38.8182C322.732 38.8182 322.507 38.7292 322.317 38.5511C322.132 38.3731 322.039 38.1591 322.039 37.9091C322.039 37.6591 322.132 37.4451 322.317 37.267C322.507 37.089 322.732 37 322.993 37C323.255 37 323.478 37.089 323.664 37.267C323.853 37.4451 323.948 37.6591 323.948 37.9091C323.948 38.1591 323.853 38.3731 323.664 38.5511C323.478 38.7292 323.255 38.8182 322.993 38.8182ZM326.649 37.3636V49H325.309V37.3636H326.649ZM334.574 49.2045C334.021 49.2045 333.519 49.1004 333.068 48.892C332.617 48.6799 332.259 48.375 331.994 47.9773C331.729 47.5758 331.596 47.0909 331.596 46.5227C331.596 46.0227 331.695 45.6174 331.892 45.3068C332.089 44.9924 332.352 44.7462 332.682 44.5682C333.011 44.3902 333.375 44.2576 333.772 44.1705C334.174 44.0795 334.577 44.0076 334.983 43.9545C335.513 43.8864 335.943 43.8352 336.272 43.8011C336.606 43.7633 336.848 43.7008 337 43.6136C337.155 43.5265 337.233 43.375 337.233 43.1591V43.1136C337.233 42.553 337.079 42.1174 336.772 41.8068C336.469 41.4962 336.009 41.3409 335.392 41.3409C334.752 41.3409 334.25 41.4811 333.886 41.7614C333.522 42.0417 333.267 42.3409 333.119 42.6591L331.846 42.2045C332.074 41.6742 332.377 41.2614 332.755 40.9659C333.138 40.6667 333.555 40.4583 334.005 40.3409C334.46 40.2197 334.907 40.1591 335.346 40.1591C335.627 40.1591 335.949 40.1932 336.312 40.2614C336.68 40.3258 337.034 40.4602 337.375 40.6648C337.719 40.8693 338.005 41.178 338.233 41.5909C338.46 42.0038 338.574 42.5568 338.574 43.25V49H337.233V47.8182H337.164C337.074 48.0076 336.922 48.2102 336.71 48.4261C336.498 48.642 336.216 48.8258 335.863 48.9773C335.511 49.1288 335.081 49.2045 334.574 49.2045ZM334.778 48C335.308 48 335.755 47.8958 336.119 47.6875C336.486 47.4792 336.763 47.2102 336.949 46.8807C337.138 46.5511 337.233 46.2045 337.233 45.8409V44.6136C337.176 44.6818 337.051 44.7443 336.858 44.8011C336.668 44.8542 336.449 44.9015 336.199 44.9432C335.952 44.9811 335.712 45.0152 335.477 45.0455C335.246 45.072 335.058 45.0947 334.914 45.1136C334.566 45.1591 334.24 45.233 333.937 45.3352C333.638 45.4337 333.396 45.5833 333.21 45.7841C333.028 45.9811 332.937 46.25 332.937 46.5909C332.937 47.0568 333.11 47.4091 333.454 47.6477C333.803 47.8826 334.244 48 334.778 48ZM343.516 49.1818C342.789 49.1818 342.147 48.9981 341.59 48.6307C341.034 48.2595 340.598 47.7367 340.284 47.0625C339.969 46.3845 339.812 45.5833 339.812 44.6591C339.812 43.7424 339.969 42.947 340.284 42.2727C340.598 41.5985 341.035 41.0777 341.596 40.7102C342.157 40.3428 342.804 40.1591 343.539 40.1591C344.107 40.1591 344.556 40.2538 344.886 40.4432C345.219 40.6288 345.473 40.8409 345.647 41.0795C345.825 41.3144 345.963 41.5076 346.062 41.6591H346.176V37.3636H347.516V49H346.221V47.6591H346.062C345.963 47.8182 345.823 48.0189 345.641 48.2614C345.46 48.5 345.2 48.714 344.863 48.9034C344.526 49.089 344.077 49.1818 343.516 49.1818ZM343.698 47.9773C344.236 47.9773 344.691 47.8371 345.062 47.5568C345.433 47.2727 345.715 46.8807 345.909 46.3807C346.102 45.8769 346.198 45.2955 346.198 44.6364C346.198 43.9848 346.104 43.4148 345.914 42.9261C345.725 42.4337 345.445 42.0511 345.073 41.7784C344.702 41.5019 344.244 41.3636 343.698 41.3636C343.13 41.3636 342.657 41.5095 342.278 41.8011C341.903 42.089 341.621 42.4811 341.431 42.9773C341.246 43.4697 341.153 44.0227 341.153 44.6364C341.153 45.2576 341.248 45.822 341.437 46.3295C341.63 46.8333 341.914 47.2348 342.289 47.5341C342.668 47.8295 343.138 47.9773 343.698 47.9773ZM352.654 49.1818C351.927 49.1818 351.285 48.9981 350.728 48.6307C350.171 48.2595 349.735 47.7367 349.421 47.0625C349.107 46.3845 348.949 45.5833 348.949 44.6591C348.949 43.7424 349.107 42.947 349.421 42.2727C349.735 41.5985 350.173 41.0777 350.734 40.7102C351.294 40.3428 351.942 40.1591 352.677 40.1591C353.245 40.1591 353.694 40.2538 354.023 40.4432C354.357 40.6288 354.61 40.8409 354.785 41.0795C354.963 41.3144 355.101 41.5076 355.199 41.6591H355.313V37.3636H356.654V49H355.359V47.6591H355.199C355.101 47.8182 354.961 48.0189 354.779 48.2614C354.597 48.5 354.338 48.714 354.001 48.9034C353.663 49.089 353.215 49.1818 352.654 49.1818ZM352.836 47.9773C353.374 47.9773 353.828 47.8371 354.199 47.5568C354.571 47.2727 354.853 46.8807 355.046 46.3807C355.239 45.8769 355.336 45.2955 355.336 44.6364C355.336 43.9848 355.241 43.4148 355.052 42.9261C354.862 42.4337 354.582 42.0511 354.211 41.7784C353.84 41.5019 353.381 41.3636 352.836 41.3636C352.268 41.3636 351.794 41.5095 351.415 41.8011C351.04 42.089 350.758 42.4811 350.569 42.9773C350.383 43.4697 350.29 44.0227 350.29 44.6364C350.29 45.2576 350.385 45.822 350.574 46.3295C350.768 46.8333 351.052 47.2348 351.427 47.5341C351.805 47.8295 352.275 47.9773 352.836 47.9773ZM358.496 49V40.2727H359.791V41.5909H359.882C360.041 41.1591 360.329 40.8087 360.746 40.5398C361.163 40.2708 361.632 40.1364 362.155 40.1364C362.254 40.1364 362.377 40.1383 362.524 40.142C362.672 40.1458 362.784 40.1515 362.86 40.1591V41.5227C362.814 41.5114 362.71 41.4943 362.547 41.4716C362.388 41.4451 362.22 41.4318 362.041 41.4318C361.617 41.4318 361.238 41.5208 360.905 41.6989C360.576 41.8731 360.314 42.1155 360.121 42.4261C359.932 42.733 359.837 43.0833 359.837 43.4773V49H358.496ZM367.043 49.1818C366.202 49.1818 365.476 48.9962 364.866 48.625C364.26 48.25 363.793 47.7273 363.463 47.0568C363.137 46.3826 362.974 45.5985 362.974 44.7045C362.974 43.8106 363.137 43.0227 363.463 42.3409C363.793 41.6553 364.251 41.1212 364.838 40.7386C365.429 40.3523 366.118 40.1591 366.906 40.1591C367.361 40.1591 367.81 40.2348 368.253 40.3864C368.696 40.5379 369.099 40.7841 369.463 41.125C369.827 41.4621 370.116 41.9091 370.332 42.4659C370.548 43.0227 370.656 43.7083 370.656 44.5227V45.0909H363.929V43.9318H369.293C369.293 43.4394 369.194 43 368.997 42.6136C368.804 42.2273 368.527 41.9223 368.168 41.6989C367.812 41.4754 367.391 41.3636 366.906 41.3636C366.372 41.3636 365.91 41.4962 365.52 41.7614C365.134 42.0227 364.836 42.3636 364.628 42.7841C364.42 43.2045 364.315 43.6553 364.315 44.1364V44.9091C364.315 45.5682 364.429 46.1269 364.656 46.5852C364.887 47.0398 365.207 47.3864 365.616 47.625C366.026 47.8598 366.501 47.9773 367.043 47.9773C367.395 47.9773 367.713 47.928 367.997 47.8295C368.285 47.7273 368.533 47.5758 368.741 47.375C368.95 47.1705 369.111 46.9167 369.224 46.6136L370.52 46.9773C370.384 47.4167 370.154 47.803 369.832 48.1364C369.51 48.4659 369.113 48.7235 368.639 48.9091C368.166 49.0909 367.634 49.1818 367.043 49.1818ZM378.078 42.2273L376.873 42.5682C376.798 42.3674 376.686 42.1723 376.538 41.983C376.394 41.7898 376.197 41.6307 375.947 41.5057C375.697 41.3807 375.377 41.3182 374.987 41.3182C374.453 41.3182 374.008 41.4413 373.652 41.6875C373.299 41.9299 373.123 42.2386 373.123 42.6136C373.123 42.947 373.245 43.2102 373.487 43.4034C373.729 43.5966 374.108 43.7576 374.623 43.8864L375.919 44.2045C376.699 44.3939 377.28 44.6837 377.663 45.0739C378.046 45.4602 378.237 45.9583 378.237 46.5682C378.237 47.0682 378.093 47.5152 377.805 47.9091C377.521 48.303 377.123 48.6136 376.612 48.8409C376.101 49.0682 375.506 49.1818 374.828 49.1818C373.938 49.1818 373.201 48.9886 372.618 48.6023C372.034 48.2159 371.665 47.6515 371.51 46.9091L372.782 46.5909C372.904 47.0606 373.133 47.4129 373.47 47.6477C373.811 47.8826 374.256 48 374.805 48C375.43 48 375.926 47.8674 376.294 47.6023C376.665 47.3333 376.851 47.0114 376.851 46.6364C376.851 46.3333 376.745 46.0795 376.532 45.875C376.32 45.6667 375.995 45.5114 375.555 45.4091L374.101 45.0682C373.301 44.8788 372.714 44.5852 372.339 44.1875C371.968 43.786 371.782 43.2841 371.782 42.6818C371.782 42.1894 371.921 41.7538 372.197 41.375C372.477 40.9962 372.858 40.6989 373.339 40.483C373.824 40.267 374.373 40.1591 374.987 40.1591C375.851 40.1591 376.529 40.3485 377.021 40.7273C377.517 41.1061 377.87 41.6061 378.078 42.2273ZM385.637 42.2273L384.433 42.5682C384.357 42.3674 384.245 42.1723 384.097 41.983C383.954 41.7898 383.757 41.6307 383.507 41.5057C383.257 41.3807 382.936 41.3182 382.546 41.3182C382.012 41.3182 381.567 41.4413 381.211 41.6875C380.859 41.9299 380.683 42.2386 380.683 42.6136C380.683 42.947 380.804 43.2102 381.046 43.4034C381.289 43.5966 381.668 43.7576 382.183 43.8864L383.478 44.2045C384.258 44.3939 384.84 44.6837 385.222 45.0739C385.605 45.4602 385.796 45.9583 385.796 46.5682C385.796 47.0682 385.652 47.5152 385.364 47.9091C385.08 48.303 384.683 48.6136 384.171 48.8409C383.66 49.0682 383.065 49.1818 382.387 49.1818C381.497 49.1818 380.76 48.9886 380.177 48.6023C379.594 48.2159 379.224 47.6515 379.069 46.9091L380.342 46.5909C380.463 47.0606 380.692 47.4129 381.029 47.6477C381.37 47.8826 381.815 48 382.364 48C382.989 48 383.486 47.8674 383.853 47.6023C384.224 47.3333 384.41 47.0114 384.41 46.6364C384.41 46.3333 384.304 46.0795 384.092 45.875C383.88 45.6667 383.554 45.5114 383.114 45.4091L381.66 45.0682C380.861 44.8788 380.274 44.5852 379.899 44.1875C379.527 43.786 379.342 43.2841 379.342 42.6818C379.342 42.1894 379.48 41.7538 379.757 41.375C380.037 40.9962 380.418 40.6989 380.899 40.483C381.383 40.267 381.933 40.1591 382.546 40.1591C383.41 40.1591 384.088 40.3485 384.58 40.7273C385.077 41.1061 385.429 41.6061 385.637 42.2273ZM387.992 49.0909C387.712 49.0909 387.471 48.9905 387.27 48.7898C387.07 48.589 386.969 48.3485 386.969 48.0682C386.969 47.7879 387.07 47.5473 387.27 47.3466C387.471 47.1458 387.712 47.0455 387.992 47.0455C388.272 47.0455 388.513 47.1458 388.714 47.3466C388.914 47.5473 389.015 47.7879 389.015 48.0682C389.015 48.2538 388.967 48.4242 388.873 48.5795C388.782 48.7348 388.659 48.8598 388.503 48.9545C388.352 49.0455 388.181 49.0909 387.992 49.0909ZM391.598 49.0909C391.318 49.0909 391.077 48.9905 390.877 48.7898C390.676 48.589 390.576 48.3485 390.576 48.0682C390.576 47.7879 390.676 47.5473 390.877 47.3466C391.077 47.1458 391.318 47.0455 391.598 47.0455C391.879 47.0455 392.119 47.1458 392.32 47.3466C392.521 47.5473 392.621 47.7879 392.621 48.0682C392.621 48.2538 392.574 48.4242 392.479 48.5795C392.388 48.7348 392.265 48.8598 392.11 48.9545C391.958 49.0455 391.788 49.0909 391.598 49.0909ZM395.205 49.0909C394.924 49.0909 394.684 48.9905 394.483 48.7898C394.282 48.589 394.182 48.3485 394.182 48.0682C394.182 47.7879 394.282 47.5473 394.483 47.3466C394.684 47.1458 394.924 47.0455 395.205 47.0455C395.485 47.0455 395.725 47.1458 395.926 47.3466C396.127 47.5473 396.227 47.7879 396.227 48.0682C396.227 48.2538 396.18 48.4242 396.085 48.5795C395.994 48.7348 395.871 48.8598 395.716 48.9545C395.564 49.0455 395.394 49.0909 395.205 49.0909Z" fill="#747474"/>
<path d="M260.5 40.6691V49.25C260.5 50.9069 261.843 52.25 263.5 52.25H278.5C280.157 52.25 281.5 50.9069 281.5 49.25V40.6691L272.572 46.1631C271.608 46.7564 270.392 46.7564 269.428 46.1631L260.5 40.6691Z" fill="#303030"/>
<path d="M281.5 38.9078V38.75C281.5 37.0932 280.157 35.75 278.5 35.75H263.5C261.843 35.75 260.5 37.0932 260.5 38.75V38.9078L270.214 44.8856C270.696 45.1823 271.304 45.1823 271.786 44.8856L281.5 38.9078Z" fill="#303030"/>
</g>
<g filter="url(#filter2_d_13_37)">
<rect x="24" y="88" width="200" height="48" rx="8" fill="#FEFEFE" shape-rendering="crispEdges"/>
<path d="M70.125 104H67.8807V96.7273H70.2244C70.9299 96.7273 71.5336 96.8729 72.0355 97.1641C72.5374 97.4529 72.9221 97.8684 73.1896 98.4105C73.4571 98.9503 73.5909 99.5966 73.5909 100.349C73.5909 101.107 73.456 101.759 73.1861 102.306C72.9162 102.851 72.5232 103.27 72.0071 103.563C71.491 103.854 70.8636 104 70.125 104ZM68.7614 103.219H70.0682C70.6695 103.219 71.1679 103.103 71.5632 102.871C71.9586 102.639 72.2533 102.308 72.4474 101.88C72.6416 101.451 72.7386 100.941 72.7386 100.349C72.7386 99.7623 72.6428 99.2569 72.451 98.8331C72.2592 98.407 71.9728 98.0803 71.5916 97.853C71.2105 97.6233 70.7358 97.5085 70.1676 97.5085H68.7614V103.219ZM76.7415 104.114C76.2159 104.114 75.7625 103.998 75.3814 103.766C75.0026 103.531 74.7102 103.205 74.5043 102.786C74.3007 102.364 74.1989 101.874 74.1989 101.315C74.1989 100.757 74.3007 100.264 74.5043 99.8381C74.7102 99.4096 74.9967 99.0758 75.3636 98.8366C75.733 98.5952 76.1638 98.4744 76.6562 98.4744C76.9403 98.4744 77.2209 98.5218 77.4979 98.6165C77.7749 98.7112 78.027 98.8651 78.2543 99.0781C78.4815 99.2888 78.6626 99.5682 78.7976 99.9162C78.9325 100.264 79 100.693 79 101.202V101.557H74.7955V100.832H78.1477C78.1477 100.525 78.0862 100.25 77.9631 100.009C77.8423 99.767 77.6695 99.5765 77.4446 99.4368C77.2221 99.2971 76.9593 99.2273 76.6562 99.2273C76.3224 99.2273 76.0336 99.3101 75.7898 99.4759C75.5483 99.6392 75.3625 99.8523 75.2322 100.115C75.102 100.378 75.0369 100.66 75.0369 100.96V101.443C75.0369 101.855 75.108 102.204 75.25 102.491C75.3944 102.775 75.5945 102.991 75.8501 103.141C76.1058 103.287 76.4029 103.361 76.7415 103.361C76.9616 103.361 77.1605 103.33 77.3381 103.268C77.518 103.205 77.6731 103.11 77.8033 102.984C77.9335 102.857 78.0341 102.698 78.1051 102.509L78.9148 102.736C78.8295 103.01 78.6863 103.252 78.4851 103.46C78.2839 103.666 78.0353 103.827 77.7393 103.943C77.4434 104.057 77.1108 104.114 76.7415 104.114ZM83.6385 99.767L82.8857 99.9801C82.8383 99.8546 82.7685 99.7327 82.6761 99.6143C82.5862 99.4936 82.4631 99.3942 82.3068 99.3161C82.1506 99.2379 81.9505 99.1989 81.7067 99.1989C81.3729 99.1989 81.0947 99.2758 80.8722 99.4297C80.652 99.5812 80.5419 99.7741 80.5419 100.009C80.5419 100.217 80.6177 100.381 80.7692 100.502C80.9207 100.623 81.1574 100.723 81.4794 100.804L82.2891 101.003C82.7768 101.121 83.1402 101.302 83.3793 101.546C83.6184 101.788 83.7379 102.099 83.7379 102.48C83.7379 102.793 83.648 103.072 83.468 103.318C83.2905 103.564 83.0419 103.759 82.7223 103.901C82.4027 104.043 82.031 104.114 81.6072 104.114C81.0509 104.114 80.5904 103.993 80.2259 103.751C79.8613 103.51 79.6304 103.157 79.5334 102.693L80.3288 102.494C80.4046 102.788 80.5478 103.008 80.7585 103.155C80.9716 103.302 81.2498 103.375 81.593 103.375C81.9837 103.375 82.2938 103.292 82.5234 103.126C82.7554 102.958 82.8714 102.757 82.8714 102.523C82.8714 102.333 82.8052 102.175 82.6726 102.047C82.54 101.917 82.3364 101.82 82.0618 101.756L81.1527 101.543C80.6532 101.424 80.2862 101.241 80.0518 100.992C79.8198 100.741 79.7038 100.428 79.7038 100.051C79.7038 99.7434 79.7902 99.4711 79.9631 99.2344C80.1383 98.9976 80.3762 98.8118 80.6768 98.6768C80.9799 98.5419 81.3232 98.4744 81.7067 98.4744C82.2464 98.4744 82.6702 98.5928 82.978 98.8295C83.2881 99.0663 83.5083 99.3788 83.6385 99.767ZM86.8716 98.5455V99.2557H84.0449V98.5455H86.8716ZM84.8688 97.2386H85.7069V102.438C85.7069 102.674 85.7412 102.852 85.8098 102.97C85.8809 103.086 85.9708 103.164 86.0797 103.205C86.191 103.242 86.3082 103.261 86.4313 103.261C86.5236 103.261 86.5994 103.257 86.6586 103.247C86.7177 103.235 86.7651 103.226 86.8006 103.219L86.9711 103.972C86.9142 103.993 86.8349 104.014 86.7331 104.036C86.6313 104.059 86.5023 104.071 86.3461 104.071C86.1093 104.071 85.8773 104.02 85.65 103.918C85.4251 103.817 85.2381 103.661 85.089 103.453C84.9422 103.245 84.8688 102.982 84.8688 102.665V97.2386ZM87.6323 104V98.5455H88.4703V104H87.6323ZM88.0584 97.6364C87.8951 97.6364 87.7542 97.5807 87.6358 97.4695C87.5198 97.3582 87.4618 97.2244 87.4618 97.0682C87.4618 96.9119 87.5198 96.7782 87.6358 96.6669C87.7542 96.5556 87.8951 96.5 88.0584 96.5C88.2218 96.5 88.3614 96.5556 88.4775 96.6669C88.5958 96.7782 88.655 96.9119 88.655 97.0682C88.655 97.2244 88.5958 97.3582 88.4775 97.4695C88.3614 97.5807 88.2218 97.6364 88.0584 97.6364ZM90.3434 100.719V104H89.5053V98.5455H90.315V99.3977H90.386C90.5138 99.1207 90.708 98.8982 90.9684 98.7301C91.2288 98.5597 91.565 98.4744 91.9769 98.4744C92.3462 98.4744 92.6694 98.5502 92.9464 98.7017C93.2234 98.8509 93.4388 99.0781 93.5927 99.3835C93.7466 99.6866 93.8235 100.07 93.8235 100.534V104H92.9854V100.591C92.9854 100.162 92.8742 99.8286 92.6516 99.5895C92.4291 99.348 92.1237 99.2273 91.7354 99.2273C91.4679 99.2273 91.2288 99.2853 91.0181 99.4013C90.8098 99.5173 90.6452 99.6866 90.5245 99.9091C90.4038 100.132 90.3434 100.402 90.3434 100.719ZM96.46 104.128C96.1144 104.128 95.8007 104.063 95.519 103.933C95.2373 103.8 95.0136 103.609 94.8478 103.361C94.6821 103.11 94.5993 102.807 94.5993 102.452C94.5993 102.139 94.6608 101.886 94.7839 101.692C94.907 101.495 95.0716 101.341 95.2775 101.23C95.4835 101.119 95.7108 101.036 95.9593 100.982C96.2103 100.925 96.4624 100.88 96.7157 100.847C97.0472 100.804 97.3159 100.772 97.5218 100.751C97.7302 100.727 97.8817 100.688 97.9764 100.634C98.0734 100.579 98.122 100.484 98.122 100.349V100.321C98.122 99.9706 98.0261 99.6984 97.8343 99.5043C97.6449 99.3101 97.3573 99.2131 96.9714 99.2131C96.5713 99.2131 96.2576 99.3007 96.0304 99.4759C95.8031 99.651 95.6433 99.8381 95.551 100.037L94.7555 99.7528C94.8975 99.4214 95.0869 99.1634 95.3237 98.9787C95.5628 98.7917 95.8232 98.6615 96.1049 98.5881C96.389 98.5123 96.6684 98.4744 96.943 98.4744C97.1182 98.4744 97.3194 98.4957 97.5467 98.5384C97.7763 98.5786 97.9977 98.6626 98.2108 98.7905C98.4262 98.9183 98.6049 99.1113 98.747 99.3693C98.889 99.6274 98.96 99.973 98.96 100.406V104H98.122V103.261H98.0794C98.0225 103.38 97.9279 103.506 97.7953 103.641C97.6627 103.776 97.4863 103.891 97.2662 103.986C97.046 104.08 96.7773 104.128 96.46 104.128ZM96.5879 103.375C96.9193 103.375 97.1987 103.31 97.426 103.18C97.6556 103.049 97.8284 102.881 97.9444 102.675C98.0628 102.469 98.122 102.253 98.122 102.026V101.259C98.0865 101.301 98.0083 101.34 97.8876 101.376C97.7692 101.409 97.6319 101.438 97.4757 101.464C97.3218 101.488 97.1715 101.509 97.0247 101.528C96.8803 101.545 96.7631 101.559 96.6731 101.571C96.4553 101.599 96.2517 101.646 96.0623 101.71C95.8753 101.771 95.7238 101.865 95.6078 101.99C95.4941 102.113 95.4373 102.281 95.4373 102.494C95.4373 102.786 95.545 103.006 95.7605 103.155C95.9783 103.302 96.2541 103.375 96.5879 103.375ZM102.362 98.5455V99.2557H99.5352V98.5455H102.362ZM100.359 97.2386H101.197V102.438C101.197 102.674 101.231 102.852 101.3 102.97C101.371 103.086 101.461 103.164 101.57 103.205C101.681 103.242 101.798 103.261 101.922 103.261C102.014 103.261 102.09 103.257 102.149 103.247C102.208 103.235 102.255 103.226 102.291 103.219L102.461 103.972C102.404 103.993 102.325 104.014 102.223 104.036C102.122 104.059 101.993 104.071 101.836 104.071C101.6 104.071 101.368 104.02 101.14 103.918C100.915 103.817 100.728 103.661 100.579 103.453C100.432 103.245 100.359 102.982 100.359 102.665V97.2386ZM103.123 104V98.5455H103.961V104H103.123ZM103.549 97.6364C103.385 97.6364 103.244 97.5807 103.126 97.4695C103.01 97.3582 102.952 97.2244 102.952 97.0682C102.952 96.9119 103.01 96.7782 103.126 96.6669C103.244 96.5556 103.385 96.5 103.549 96.5C103.712 96.5 103.852 96.5556 103.968 96.6669C104.086 96.7782 104.145 96.9119 104.145 97.0682C104.145 97.2244 104.086 97.3582 103.968 97.4695C103.852 97.5807 103.712 97.6364 103.549 97.6364ZM107.211 104.114C106.719 104.114 106.287 103.996 105.915 103.762C105.546 103.528 105.257 103.2 105.049 102.778C104.843 102.357 104.74 101.865 104.74 101.301C104.74 100.733 104.843 100.237 105.049 99.8132C105.257 99.3894 105.546 99.0604 105.915 98.826C106.287 98.5916 106.719 98.4744 107.211 98.4744C107.704 98.4744 108.135 98.5916 108.504 98.826C108.876 99.0604 109.165 99.3894 109.371 99.8132C109.579 100.237 109.683 100.733 109.683 101.301C109.683 101.865 109.579 102.357 109.371 102.778C109.165 103.2 108.876 103.528 108.504 103.762C108.135 103.996 107.704 104.114 107.211 104.114ZM107.211 103.361C107.586 103.361 107.893 103.265 108.135 103.073C108.376 102.881 108.555 102.629 108.671 102.317C108.787 102.004 108.845 101.666 108.845 101.301C108.845 100.937 108.787 100.597 108.671 100.282C108.555 99.9671 108.376 99.7126 108.135 99.5185C107.893 99.3243 107.586 99.2273 107.211 99.2273C106.837 99.2273 106.53 99.3243 106.288 99.5185C106.047 99.7126 105.868 99.9671 105.752 100.282C105.636 100.597 105.578 100.937 105.578 101.301C105.578 101.666 105.636 102.004 105.752 102.317C105.868 102.629 106.047 102.881 106.288 103.073C106.53 103.265 106.837 103.361 107.211 103.361ZM111.3 100.719V104H110.462V98.5455H111.272V99.3977H111.343C111.471 99.1207 111.665 98.8982 111.925 98.7301C112.186 98.5597 112.522 98.4744 112.934 98.4744C113.303 98.4744 113.626 98.5502 113.903 98.7017C114.18 98.8509 114.396 99.0781 114.55 99.3835C114.704 99.6866 114.781 100.07 114.781 100.534V104H113.942V100.591C113.942 100.162 113.831 99.8286 113.609 99.5895C113.386 99.348 113.081 99.2273 112.692 99.2273C112.425 99.2273 112.186 99.2853 111.975 99.4013C111.767 99.5173 111.602 99.6866 111.482 99.9091C111.361 100.132 111.3 100.402 111.3 100.719Z" fill="#747474"/>
<path d="M74.7727 116.273C74.7045 115.697 74.428 115.25 73.9432 114.932C73.4583 114.614 72.8636 114.455 72.1591 114.455C71.6439 114.455 71.1932 114.538 70.8068 114.705C70.4242 114.871 70.125 115.1 69.9091 115.392C69.697 115.684 69.5909 116.015 69.5909 116.386C69.5909 116.697 69.6648 116.964 69.8125 117.188C69.964 117.407 70.1572 117.591 70.392 117.739C70.6269 117.883 70.8731 118.002 71.1307 118.097C71.3883 118.187 71.625 118.261 71.8409 118.318L73.0227 118.636C73.3258 118.716 73.6629 118.826 74.0341 118.966C74.4091 119.106 74.767 119.297 75.108 119.54C75.4527 119.778 75.7367 120.085 75.9602 120.46C76.1837 120.835 76.2955 121.295 76.2955 121.841C76.2955 122.47 76.1307 123.038 75.8011 123.545C75.4754 124.053 74.9981 124.456 74.3693 124.756C73.7443 125.055 72.9848 125.205 72.0909 125.205C71.2576 125.205 70.536 125.07 69.9261 124.801C69.3201 124.532 68.8428 124.157 68.4943 123.676C68.1496 123.195 67.9545 122.636 67.9091 122H69.3636C69.4015 122.439 69.5492 122.803 69.8068 123.091C70.0682 123.375 70.3977 123.587 70.7955 123.727C71.197 123.864 71.6288 123.932 72.0909 123.932C72.6288 123.932 73.1117 123.845 73.5398 123.67C73.9678 123.492 74.3068 123.246 74.5568 122.932C74.8068 122.614 74.9318 122.242 74.9318 121.818C74.9318 121.432 74.8239 121.117 74.608 120.875C74.392 120.633 74.108 120.436 73.7557 120.284C73.4034 120.133 73.0227 120 72.6136 119.886L71.1818 119.477C70.2727 119.216 69.553 118.843 69.0227 118.358C68.4924 117.873 68.2273 117.239 68.2273 116.455C68.2273 115.803 68.4034 115.235 68.7557 114.75C69.1117 114.261 69.589 113.883 70.1875 113.614C70.7898 113.341 71.4621 113.205 72.2045 113.205C72.9545 113.205 73.6212 113.339 74.2045 113.608C74.7879 113.873 75.25 114.237 75.5909 114.699C75.9356 115.161 76.1174 115.686 76.1364 116.273H74.7727ZM77.6304 125V116.273H78.9713V125H77.6304ZM78.3122 114.818C78.0509 114.818 77.8255 114.729 77.6361 114.551C77.4505 114.373 77.3577 114.159 77.3577 113.909C77.3577 113.659 77.4505 113.445 77.6361 113.267C77.8255 113.089 78.0509 113 78.3122 113C78.5736 113 78.7971 113.089 78.9827 113.267C79.1721 113.445 79.2668 113.659 79.2668 113.909C79.2668 114.159 79.1721 114.373 78.9827 114.551C78.7971 114.729 78.5736 114.818 78.3122 114.818ZM83.9227 125.182C83.1955 125.182 82.5534 124.998 81.9966 124.631C81.4398 124.259 81.0042 123.737 80.6898 123.062C80.3754 122.384 80.2182 121.583 80.2182 120.659C80.2182 119.742 80.3754 118.947 80.6898 118.273C81.0042 117.598 81.4417 117.078 82.0023 116.71C82.5629 116.343 83.2106 116.159 83.9455 116.159C84.5136 116.159 84.9625 116.254 85.292 116.443C85.6254 116.629 85.8792 116.841 86.0534 117.08C86.2314 117.314 86.3697 117.508 86.4682 117.659H86.5818V113.364H87.9227V125H86.6273V123.659H86.4682C86.3697 123.818 86.2295 124.019 86.0477 124.261C85.8659 124.5 85.6064 124.714 85.2693 124.903C84.9322 125.089 84.4833 125.182 83.9227 125.182ZM84.1045 123.977C84.6424 123.977 85.097 123.837 85.4682 123.557C85.8394 123.273 86.1216 122.881 86.3148 122.381C86.508 121.877 86.6045 121.295 86.6045 120.636C86.6045 119.985 86.5098 119.415 86.3205 118.926C86.1311 118.434 85.8508 118.051 85.4795 117.778C85.1083 117.502 84.65 117.364 84.1045 117.364C83.5364 117.364 83.0629 117.509 82.6841 117.801C82.3091 118.089 82.0269 118.481 81.8375 118.977C81.6519 119.47 81.5591 120.023 81.5591 120.636C81.5591 121.258 81.6538 121.822 81.8432 122.33C82.0364 122.833 82.3205 123.235 82.6955 123.534C83.0742 123.83 83.5439 123.977 84.1045 123.977ZM91.1057 119.75V125H89.7648V116.273H91.0602V117.636H91.1739C91.3784 117.193 91.689 116.837 92.1057 116.568C92.5223 116.295 93.0602 116.159 93.7193 116.159C94.3102 116.159 94.8273 116.28 95.2705 116.523C95.7136 116.761 96.0583 117.125 96.3045 117.614C96.5508 118.098 96.6739 118.712 96.6739 119.455V125H95.333V119.545C95.333 118.86 95.1549 118.326 94.7989 117.943C94.4428 117.557 93.9542 117.364 93.333 117.364C92.9049 117.364 92.5223 117.456 92.1852 117.642C91.8519 117.828 91.5886 118.098 91.3955 118.455C91.2023 118.811 91.1057 119.242 91.1057 119.75ZM101.983 125.182C101.142 125.182 100.417 124.996 99.8071 124.625C99.201 124.25 98.7332 123.727 98.4037 123.057C98.0779 122.383 97.9151 121.598 97.9151 120.705C97.9151 119.811 98.0779 119.023 98.4037 118.341C98.7332 117.655 99.1916 117.121 99.7787 116.739C100.37 116.352 101.059 116.159 101.847 116.159C102.301 116.159 102.75 116.235 103.193 116.386C103.637 116.538 104.04 116.784 104.404 117.125C104.767 117.462 105.057 117.909 105.273 118.466C105.489 119.023 105.597 119.708 105.597 120.523V121.091H98.8696V119.932H104.233C104.233 119.439 104.135 119 103.938 118.614C103.745 118.227 103.468 117.922 103.108 117.699C102.752 117.475 102.332 117.364 101.847 117.364C101.313 117.364 100.851 117.496 100.461 117.761C100.074 118.023 99.7768 118.364 99.5685 118.784C99.3601 119.205 99.256 119.655 99.256 120.136V120.909C99.256 121.568 99.3696 122.127 99.5969 122.585C99.8279 123.04 100.148 123.386 100.557 123.625C100.966 123.86 101.442 123.977 101.983 123.977C102.336 123.977 102.654 123.928 102.938 123.83C103.226 123.727 103.474 123.576 103.682 123.375C103.89 123.17 104.051 122.917 104.165 122.614L105.461 122.977C105.324 123.417 105.095 123.803 104.773 124.136C104.451 124.466 104.053 124.723 103.58 124.909C103.106 125.091 102.574 125.182 101.983 125.182ZM107.435 128.273C107.207 128.273 107.005 128.254 106.827 128.216C106.649 128.182 106.526 128.148 106.457 128.114L106.798 126.932C107.124 127.015 107.412 127.045 107.662 127.023C107.912 127 108.134 126.888 108.327 126.688C108.524 126.491 108.704 126.17 108.866 125.727L109.116 125.045L105.889 116.273H107.344L109.753 123.227H109.844L112.253 116.273H113.707L110.003 126.273C109.836 126.723 109.63 127.097 109.384 127.392C109.137 127.691 108.851 127.913 108.526 128.057C108.204 128.201 107.84 128.273 107.435 128.273ZM116.13 123.409L116.039 124.023C115.975 124.455 115.877 124.917 115.744 125.409C115.615 125.902 115.481 126.366 115.341 126.801C115.2 127.237 115.085 127.583 114.994 127.841H113.971C114.021 127.598 114.085 127.278 114.164 126.881C114.244 126.483 114.324 126.038 114.403 125.545C114.486 125.057 114.555 124.557 114.608 124.045L114.676 123.409H116.13ZM122.174 125H120.697L124.969 113.364H126.424L130.697 125H129.219L125.742 115.205H125.651L122.174 125ZM122.719 120.455H128.674V121.705H122.719V120.455ZM137.027 121.432V116.273H138.368V125H137.027V123.523H136.936C136.732 123.966 136.414 124.343 135.982 124.653C135.55 124.96 135.005 125.114 134.345 125.114C133.8 125.114 133.315 124.994 132.891 124.756C132.467 124.513 132.133 124.15 131.891 123.665C131.648 123.176 131.527 122.561 131.527 121.818V116.273H132.868V121.727C132.868 122.364 133.046 122.871 133.402 123.25C133.762 123.629 134.22 123.818 134.777 123.818C135.111 123.818 135.45 123.733 135.794 123.562C136.143 123.392 136.434 123.131 136.669 122.778C136.908 122.426 137.027 121.977 137.027 121.432ZM146.206 118.227L145.001 118.568C144.926 118.367 144.814 118.172 144.666 117.983C144.522 117.79 144.325 117.631 144.075 117.506C143.825 117.381 143.505 117.318 143.115 117.318C142.581 117.318 142.136 117.441 141.78 117.688C141.428 117.93 141.251 118.239 141.251 118.614C141.251 118.947 141.373 119.21 141.615 119.403C141.857 119.597 142.236 119.758 142.751 119.886L144.047 120.205C144.827 120.394 145.409 120.684 145.791 121.074C146.174 121.46 146.365 121.958 146.365 122.568C146.365 123.068 146.221 123.515 145.933 123.909C145.649 124.303 145.251 124.614 144.74 124.841C144.229 125.068 143.634 125.182 142.956 125.182C142.066 125.182 141.329 124.989 140.746 124.602C140.162 124.216 139.793 123.652 139.638 122.909L140.911 122.591C141.032 123.061 141.261 123.413 141.598 123.648C141.939 123.883 142.384 124 142.933 124C143.558 124 144.054 123.867 144.422 123.602C144.793 123.333 144.979 123.011 144.979 122.636C144.979 122.333 144.873 122.08 144.661 121.875C144.448 121.667 144.123 121.511 143.683 121.409L142.229 121.068C141.429 120.879 140.842 120.585 140.467 120.188C140.096 119.786 139.911 119.284 139.911 118.682C139.911 118.189 140.049 117.754 140.325 117.375C140.606 116.996 140.986 116.699 141.467 116.483C141.952 116.267 142.501 116.159 143.115 116.159C143.979 116.159 144.657 116.348 145.149 116.727C145.645 117.106 145.998 117.606 146.206 118.227ZM151.379 116.273V117.409H146.856V116.273H151.379ZM148.174 114.182H149.515V122.5C149.515 122.879 149.57 123.163 149.68 123.352C149.794 123.538 149.938 123.663 150.112 123.727C150.29 123.788 150.477 123.818 150.674 123.818C150.822 123.818 150.943 123.811 151.038 123.795C151.133 123.777 151.209 123.761 151.265 123.75L151.538 124.955C151.447 124.989 151.32 125.023 151.157 125.057C150.995 125.095 150.788 125.114 150.538 125.114C150.159 125.114 149.788 125.032 149.424 124.869C149.065 124.706 148.765 124.458 148.527 124.125C148.292 123.792 148.174 123.371 148.174 122.864V114.182ZM152.596 125V116.273H153.891V117.591H153.982C154.141 117.159 154.429 116.809 154.846 116.54C155.263 116.271 155.732 116.136 156.255 116.136C156.354 116.136 156.477 116.138 156.624 116.142C156.772 116.146 156.884 116.152 156.96 116.159V117.523C156.914 117.511 156.81 117.494 156.647 117.472C156.488 117.445 156.32 117.432 156.141 117.432C155.717 117.432 155.338 117.521 155.005 117.699C154.676 117.873 154.414 118.116 154.221 118.426C154.032 118.733 153.937 119.083 153.937 119.477V125H152.596ZM160.317 125.205C159.764 125.205 159.262 125.1 158.812 124.892C158.361 124.68 158.003 124.375 157.738 123.977C157.473 123.576 157.34 123.091 157.34 122.523C157.34 122.023 157.439 121.617 157.636 121.307C157.832 120.992 158.096 120.746 158.425 120.568C158.755 120.39 159.118 120.258 159.516 120.17C159.918 120.08 160.321 120.008 160.726 119.955C161.257 119.886 161.687 119.835 162.016 119.801C162.35 119.763 162.592 119.701 162.743 119.614C162.899 119.527 162.976 119.375 162.976 119.159V119.114C162.976 118.553 162.823 118.117 162.516 117.807C162.213 117.496 161.753 117.341 161.136 117.341C160.495 117.341 159.993 117.481 159.63 117.761C159.266 118.042 159.011 118.341 158.863 118.659L157.59 118.205C157.817 117.674 158.12 117.261 158.499 116.966C158.882 116.667 159.298 116.458 159.749 116.341C160.204 116.22 160.651 116.159 161.09 116.159C161.37 116.159 161.692 116.193 162.056 116.261C162.423 116.326 162.778 116.46 163.118 116.665C163.463 116.869 163.749 117.178 163.976 117.591C164.204 118.004 164.317 118.557 164.317 119.25V125H162.976V123.818H162.908C162.817 124.008 162.666 124.21 162.454 124.426C162.242 124.642 161.959 124.826 161.607 124.977C161.255 125.129 160.825 125.205 160.317 125.205ZM160.522 124C161.052 124 161.499 123.896 161.863 123.688C162.23 123.479 162.507 123.21 162.692 122.881C162.882 122.551 162.976 122.205 162.976 121.841V120.614C162.92 120.682 162.795 120.744 162.601 120.801C162.412 120.854 162.192 120.902 161.942 120.943C161.696 120.981 161.456 121.015 161.221 121.045C160.99 121.072 160.802 121.095 160.658 121.114C160.31 121.159 159.984 121.233 159.681 121.335C159.382 121.434 159.139 121.583 158.954 121.784C158.772 121.981 158.681 122.25 158.681 122.591C158.681 123.057 158.853 123.409 159.198 123.648C159.546 123.883 159.988 124 160.522 124ZM167.306 113.364V125H165.965V113.364H167.306ZM168.962 125V116.273H170.303V125H168.962ZM169.643 114.818C169.382 114.818 169.157 114.729 168.967 114.551C168.782 114.373 168.689 114.159 168.689 113.909C168.689 113.659 168.782 113.445 168.967 113.267C169.157 113.089 169.382 113 169.643 113C169.905 113 170.128 113.089 170.314 113.267C170.503 113.445 170.598 113.659 170.598 113.909C170.598 114.159 170.503 114.373 170.314 114.551C170.128 114.729 169.905 114.818 169.643 114.818ZM174.527 125.205C173.974 125.205 173.472 125.1 173.021 124.892C172.57 124.68 172.212 124.375 171.947 123.977C171.682 123.576 171.549 123.091 171.549 122.523C171.549 122.023 171.648 121.617 171.845 121.307C172.042 120.992 172.305 120.746 172.635 120.568C172.964 120.39 173.328 120.258 173.726 120.17C174.127 120.08 174.53 120.008 174.936 119.955C175.466 119.886 175.896 119.835 176.226 119.801C176.559 119.763 176.801 119.701 176.953 119.614C177.108 119.527 177.186 119.375 177.186 119.159V119.114C177.186 118.553 177.032 118.117 176.726 117.807C176.423 117.496 175.962 117.341 175.345 117.341C174.705 117.341 174.203 117.481 173.839 117.761C173.476 118.042 173.22 118.341 173.072 118.659L171.799 118.205C172.027 117.674 172.33 117.261 172.709 116.966C173.091 116.667 173.508 116.458 173.959 116.341C174.413 116.22 174.86 116.159 175.299 116.159C175.58 116.159 175.902 116.193 176.265 116.261C176.633 116.326 176.987 116.46 177.328 116.665C177.673 116.869 177.959 117.178 178.186 117.591C178.413 118.004 178.527 118.557 178.527 119.25V125H177.186V123.818H177.118C177.027 124.008 176.875 124.21 176.663 124.426C176.451 124.642 176.169 124.826 175.816 124.977C175.464 125.129 175.034 125.205 174.527 125.205ZM174.731 124C175.262 124 175.709 123.896 176.072 123.688C176.44 123.479 176.716 123.21 176.902 122.881C177.091 122.551 177.186 122.205 177.186 121.841V120.614C177.129 120.682 177.004 120.744 176.811 120.801C176.621 120.854 176.402 120.902 176.152 120.943C175.905 120.981 175.665 121.015 175.43 121.045C175.199 121.072 175.012 121.095 174.868 121.114C174.519 121.159 174.193 121.233 173.89 121.335C173.591 121.434 173.349 121.583 173.163 121.784C172.981 121.981 172.89 122.25 172.89 122.591C172.89 123.057 173.063 123.409 173.407 123.648C173.756 123.883 174.197 124 174.731 124Z" fill="#1E1E1E"/>
<path fill-rule="evenodd" clip-rule="evenodd" d="M46.5397 121.351C46.57 121.369 46.5937 121.382 46.6105 121.392L46.6384 121.407C46.8613 121.529 47.1378 121.528 47.3608 121.407L47.3895 121.392C47.4063 121.382 47.43 121.369 47.4603 121.351C47.5207 121.316 47.607 121.265 47.7155 121.198C47.9325 121.065 48.2388 120.868 48.6046 120.609C49.3351 120.093 50.3097 119.327 51.2865 118.327C53.2307 116.337 55.25 113.346 55.25 109.5C55.25 104.944 51.5563 101.25 47 101.25C42.4436 101.25 38.75 104.944 38.75 109.5C38.75 113.346 40.7693 116.337 42.7135 118.327C43.6902 119.327 44.6649 120.093 45.3954 120.609C45.7612 120.868 46.0675 121.065 46.2845 121.198C46.393 121.265 46.4793 121.316 46.5397 121.351ZM47 112.5C48.6569 112.5 50 111.157 50 109.5C50 107.843 48.6569 106.5 47 106.5C45.3431 106.5 44 107.843 44 109.5C44 111.157 45.3431 112.5 47 112.5Z" fill="#303030"/>
<rect x="24.75" y="88.75" width="198.5" height="46.5" rx="7.25" stroke="black" stroke-width="1.5" shape-rendering="crispEdges"/>
</g>
<g filter="url(#filter3_d_13_37)">
<rect x="248" y="88" width="200" height="40" rx="4" fill="#FEFEFE" shape-rendering="crispEdges"/>
<path d="M274.636 101.364V113H273.273L266.932 103.864H266.818V113H265.409V101.364H266.773L273.136 110.523H273.25V101.364H274.636ZM279.042 113.205C278.489 113.205 277.987 113.1 277.537 112.892C277.086 112.68 276.728 112.375 276.463 111.977C276.198 111.576 276.065 111.091 276.065 110.523C276.065 110.023 276.164 109.617 276.361 109.307C276.557 108.992 276.821 108.746 277.15 108.568C277.48 108.39 277.843 108.258 278.241 108.17C278.643 108.08 279.046 108.008 279.451 107.955C279.982 107.886 280.412 107.835 280.741 107.801C281.075 107.763 281.317 107.701 281.468 107.614C281.624 107.527 281.701 107.375 281.701 107.159V107.114C281.701 106.553 281.548 106.117 281.241 105.807C280.938 105.496 280.478 105.341 279.861 105.341C279.22 105.341 278.718 105.481 278.355 105.761C277.991 106.042 277.736 106.341 277.588 106.659L276.315 106.205C276.542 105.674 276.845 105.261 277.224 104.966C277.607 104.667 278.023 104.458 278.474 104.341C278.929 104.22 279.376 104.159 279.815 104.159C280.095 104.159 280.417 104.193 280.781 104.261C281.148 104.326 281.503 104.46 281.843 104.665C282.188 104.869 282.474 105.178 282.701 105.591C282.929 106.004 283.042 106.557 283.042 107.25V113H281.701V111.818H281.633C281.542 112.008 281.391 112.21 281.179 112.426C280.967 112.642 280.684 112.826 280.332 112.977C279.98 113.129 279.55 113.205 279.042 113.205ZM279.247 112C279.777 112 280.224 111.896 280.588 111.688C280.955 111.479 281.232 111.21 281.417 110.881C281.607 110.551 281.701 110.205 281.701 109.841V108.614C281.645 108.682 281.52 108.744 281.326 108.801C281.137 108.854 280.917 108.902 280.667 108.943C280.421 108.981 280.181 109.015 279.946 109.045C279.715 109.072 279.527 109.095 279.383 109.114C279.035 109.159 278.709 109.233 278.406 109.335C278.107 109.434 277.864 109.583 277.679 109.784C277.497 109.981 277.406 110.25 277.406 110.591C277.406 111.057 277.578 111.409 277.923 111.648C278.271 111.883 278.713 112 279.247 112ZM284.69 113V104.273H285.985V105.636H286.099C286.281 105.17 286.574 104.809 286.98 104.551C287.385 104.29 287.872 104.159 288.44 104.159C289.016 104.159 289.495 104.29 289.877 104.551C290.264 104.809 290.565 105.17 290.781 105.636H290.872C291.095 105.186 291.43 104.828 291.877 104.562C292.324 104.294 292.86 104.159 293.485 104.159C294.266 104.159 294.904 104.403 295.4 104.892C295.896 105.377 296.144 106.133 296.144 107.159V113H294.803V107.159C294.803 106.515 294.627 106.055 294.275 105.778C293.923 105.502 293.508 105.364 293.031 105.364C292.417 105.364 291.942 105.549 291.605 105.92C291.267 106.288 291.099 106.754 291.099 107.318V113H289.735V107.023C289.735 106.527 289.574 106.127 289.252 105.824C288.93 105.517 288.516 105.364 288.008 105.364C287.659 105.364 287.334 105.456 287.031 105.642C286.731 105.828 286.489 106.085 286.303 106.415C286.122 106.741 286.031 107.117 286.031 107.545V113H284.69ZM301.455 113.182C300.614 113.182 299.889 112.996 299.279 112.625C298.673 112.25 298.205 111.727 297.876 111.057C297.55 110.383 297.387 109.598 297.387 108.705C297.387 107.811 297.55 107.023 297.876 106.341C298.205 105.655 298.663 105.121 299.251 104.739C299.841 104.352 300.531 104.159 301.319 104.159C301.773 104.159 302.222 104.235 302.665 104.386C303.109 104.538 303.512 104.784 303.876 105.125C304.239 105.462 304.529 105.909 304.745 106.466C304.961 107.023 305.069 107.708 305.069 108.523V109.091H298.341V107.932H303.705C303.705 107.439 303.607 107 303.41 106.614C303.216 106.227 302.94 105.922 302.58 105.699C302.224 105.475 301.804 105.364 301.319 105.364C300.785 105.364 300.323 105.496 299.932 105.761C299.546 106.023 299.249 106.364 299.04 106.784C298.832 107.205 298.728 107.655 298.728 108.136V108.909C298.728 109.568 298.841 110.127 299.069 110.585C299.3 111.04 299.62 111.386 300.029 111.625C300.438 111.86 300.913 111.977 301.455 111.977C301.807 111.977 302.126 111.928 302.41 111.83C302.698 111.727 302.946 111.576 303.154 111.375C303.362 111.17 303.523 110.917 303.637 110.614L304.932 110.977C304.796 111.417 304.567 111.803 304.245 112.136C303.923 112.466 303.525 112.723 303.052 112.909C302.578 113.091 302.046 113.182 301.455 113.182ZM307.286 113.091C307.005 113.091 306.765 112.991 306.564 112.79C306.363 112.589 306.263 112.348 306.263 112.068C306.263 111.788 306.363 111.547 306.564 111.347C306.765 111.146 307.005 111.045 307.286 111.045C307.566 111.045 307.807 111.146 308.007 111.347C308.208 111.547 308.309 111.788 308.309 112.068C308.309 112.254 308.261 112.424 308.166 112.58C308.076 112.735 307.952 112.86 307.797 112.955C307.646 113.045 307.475 113.091 307.286 113.091ZM307.286 106.614C307.005 106.614 306.765 106.513 306.564 106.312C306.363 106.112 306.263 105.871 306.263 105.591C306.263 105.311 306.363 105.07 306.564 104.869C306.765 104.669 307.005 104.568 307.286 104.568C307.566 104.568 307.807 104.669 308.007 104.869C308.208 105.07 308.309 105.311 308.309 105.591C308.309 105.777 308.261 105.947 308.166 106.102C308.076 106.258 307.952 106.383 307.797 106.477C307.646 106.568 307.475 106.614 307.286 106.614Z" fill="#303030"/>
<path d="M319.409 101.364H321.023L324.25 106.795H324.386L327.614 101.364H329.227L325.023 108.205V113H323.614V108.205L319.409 101.364ZM332.379 113.182C331.591 113.182 330.9 112.994 330.305 112.619C329.714 112.244 329.252 111.72 328.919 111.045C328.589 110.371 328.424 109.583 328.424 108.682C328.424 107.773 328.589 106.979 328.919 106.301C329.252 105.623 329.714 105.097 330.305 104.722C330.9 104.347 331.591 104.159 332.379 104.159C333.167 104.159 333.856 104.347 334.447 104.722C335.042 105.097 335.504 105.623 335.834 106.301C336.167 106.979 336.334 107.773 336.334 108.682C336.334 109.583 336.167 110.371 335.834 111.045C335.504 111.72 335.042 112.244 334.447 112.619C333.856 112.994 333.167 113.182 332.379 113.182ZM332.379 111.977C332.977 111.977 333.47 111.824 333.856 111.517C334.243 111.21 334.529 110.807 334.714 110.307C334.9 109.807 334.993 109.265 334.993 108.682C334.993 108.098 334.9 107.555 334.714 107.051C334.529 106.547 334.243 106.14 333.856 105.83C333.47 105.519 332.977 105.364 332.379 105.364C331.78 105.364 331.288 105.519 330.902 105.83C330.515 106.14 330.229 106.547 330.044 107.051C329.858 107.555 329.765 108.098 329.765 108.682C329.765 109.265 329.858 109.807 330.044 110.307C330.229 110.807 330.515 111.21 330.902 111.517C331.288 111.824 331.78 111.977 332.379 111.977ZM343.08 109.432V104.273H344.421V113H343.08V111.523H342.989C342.785 111.966 342.467 112.343 342.035 112.653C341.603 112.96 341.058 113.114 340.399 113.114C339.853 113.114 339.368 112.994 338.944 112.756C338.52 112.513 338.186 112.15 337.944 111.665C337.702 111.176 337.58 110.561 337.58 109.818V104.273H338.921V109.727C338.921 110.364 339.099 110.871 339.455 111.25C339.815 111.629 340.274 111.818 340.83 111.818C341.164 111.818 341.503 111.733 341.847 111.562C342.196 111.392 342.488 111.131 342.722 110.778C342.961 110.426 343.08 109.977 343.08 109.432ZM346.077 113V104.273H347.373V105.591H347.464C347.623 105.159 347.911 104.809 348.327 104.54C348.744 104.271 349.214 104.136 349.736 104.136C349.835 104.136 349.958 104.138 350.106 104.142C350.253 104.146 350.365 104.152 350.441 104.159V105.523C350.395 105.511 350.291 105.494 350.128 105.472C349.969 105.445 349.801 105.432 349.623 105.432C349.198 105.432 348.82 105.521 348.486 105.699C348.157 105.873 347.895 106.116 347.702 106.426C347.513 106.733 347.418 107.083 347.418 107.477V113H346.077ZM351.208 113.091C350.927 113.091 350.687 112.991 350.486 112.79C350.285 112.589 350.185 112.348 350.185 112.068C350.185 111.788 350.285 111.547 350.486 111.347C350.687 111.146 350.927 111.045 351.208 111.045C351.488 111.045 351.729 111.146 351.929 111.347C352.13 111.547 352.23 111.788 352.23 112.068C352.23 112.254 352.183 112.424 352.088 112.58C351.997 112.735 351.874 112.86 351.719 112.955C351.568 113.045 351.397 113.091 351.208 113.091ZM354.814 113.091C354.534 113.091 354.293 112.991 354.092 112.79C353.892 112.589 353.791 112.348 353.791 112.068C353.791 111.788 353.892 111.547 354.092 111.347C354.293 111.146 354.534 111.045 354.814 111.045C355.094 111.045 355.335 111.146 355.536 111.347C355.736 111.547 355.837 111.788 355.837 112.068C355.837 112.254 355.789 112.424 355.695 112.58C355.604 112.735 355.481 112.86 355.325 112.955C355.174 113.045 355.003 113.091 354.814 113.091ZM358.42 113.091C358.14 113.091 357.899 112.991 357.699 112.79C357.498 112.589 357.397 112.348 357.397 112.068C357.397 111.788 357.498 111.547 357.699 111.347C357.899 111.146 358.14 111.045 358.42 111.045C358.7 111.045 358.941 111.146 359.142 111.347C359.343 111.547 359.443 111.788 359.443 112.068C359.443 112.254 359.396 112.424 359.301 112.58C359.21 112.735 359.087 112.86 358.932 112.955C358.78 113.045 358.61 113.091 358.42 113.091Z" fill="#747474"/>
<path fill-rule="evenodd" clip-rule="evenodd" d="M435.597 101.855C435.884 102.047 435.961 102.435 435.77 102.722L428.27 113.972C428.166 114.128 427.998 114.229 427.812 114.247C427.625 114.266 427.44 114.199 427.308 114.067L422.308 109.067C422.064 108.823 422.064 108.427 422.308 108.183C422.552 107.939 422.948 107.939 423.192 108.183L427.653 112.644L434.73 102.028C434.921 101.741 435.309 101.664 435.597 101.855Z" fill="#303030"/>
<rect x="248.75" y="88.75" width="198.5" height="38.5" rx="3.25" stroke="#303030" stroke-width="1.5" shape-rendering="crispEdges"/>
</g>
<g filter="url(#filter4_d_13_37)">
<rect x="24" y="160" width="200" height="80" rx="4" fill="#FEFEFE" shape-rendering="crispEdges"/>
<path d="M40.7727 174.614V173.364H49.5V174.614H45.8409V185H44.4318V174.614H40.7727ZM53.0864 185.182C52.2455 185.182 51.5201 184.996 50.9102 184.625C50.3042 184.25 49.8364 183.727 49.5068 183.057C49.1811 182.383 49.0182 181.598 49.0182 180.705C49.0182 179.811 49.1811 179.023 49.5068 178.341C49.8364 177.655 50.2947 177.121 50.8818 176.739C51.4727 176.352 52.1621 176.159 52.95 176.159C53.4045 176.159 53.8534 176.235 54.2966 176.386C54.7398 176.538 55.1432 176.784 55.5068 177.125C55.8705 177.462 56.1602 177.909 56.3761 178.466C56.592 179.023 56.7 179.708 56.7 180.523V181.091H49.9727V179.932H55.3364C55.3364 179.439 55.2379 179 55.0409 178.614C54.8477 178.227 54.5712 177.922 54.2114 177.699C53.8553 177.475 53.4348 177.364 52.95 177.364C52.4159 177.364 51.9538 177.496 51.5636 177.761C51.1773 178.023 50.8799 178.364 50.6716 178.784C50.4633 179.205 50.3591 179.655 50.3591 180.136V180.909C50.3591 181.568 50.4727 182.127 50.7 182.585C50.9311 183.04 51.2511 183.386 51.6602 183.625C52.0693 183.86 52.5447 183.977 53.0864 183.977C53.4386 183.977 53.7568 183.928 54.0409 183.83C54.3288 183.727 54.5769 183.576 54.7852 183.375C54.9936 183.17 55.1545 182.917 55.2682 182.614L56.5636 182.977C56.4273 183.417 56.1981 183.803 55.8761 184.136C55.5542 184.466 55.1564 184.723 54.683 184.909C54.2095 185.091 53.6773 185.182 53.0864 185.182ZM58.7054 176.273L60.7963 179.841L62.8872 176.273H64.4327L61.6145 180.636L64.4327 185H62.8872L60.7963 181.614L58.7054 185H57.1599L59.9327 180.636L57.1599 176.273H58.7054ZM69.3415 176.273V177.409H64.8188V176.273H69.3415ZM66.1369 174.182H67.4778V182.5C67.4778 182.879 67.5328 183.163 67.6426 183.352C67.7563 183.538 67.9002 183.663 68.0744 183.727C68.2525 183.788 68.44 183.818 68.6369 183.818C68.7847 183.818 68.9059 183.811 69.0006 183.795C69.0953 183.777 69.171 183.761 69.2278 183.75L69.5006 184.955C69.4097 184.989 69.2828 185.023 69.1199 185.057C68.957 185.095 68.7506 185.114 68.5006 185.114C68.1218 185.114 67.7506 185.032 67.3869 184.869C67.0271 184.706 66.7278 184.458 66.4892 184.125C66.2544 183.792 66.1369 183.371 66.1369 182.864V174.182ZM73.1267 185.205C72.5737 185.205 72.0718 185.1 71.621 184.892C71.1703 184.68 70.8123 184.375 70.5472 183.977C70.282 183.576 70.1494 183.091 70.1494 182.523C70.1494 182.023 70.2479 181.617 70.4449 181.307C70.6419 180.992 70.9051 180.746 71.2347 180.568C71.5642 180.39 71.9278 180.258 72.3256 180.17C72.7271 180.08 73.1305 180.008 73.5358 179.955C74.0661 179.886 74.496 179.835 74.8256 179.801C75.1589 179.763 75.4013 179.701 75.5528 179.614C75.7081 179.527 75.7858 179.375 75.7858 179.159V179.114C75.7858 178.553 75.6324 178.117 75.3256 177.807C75.0225 177.496 74.5623 177.341 73.9449 177.341C73.3047 177.341 72.8028 177.481 72.4392 177.761C72.0756 178.042 71.8199 178.341 71.6722 178.659L70.3994 178.205C70.6267 177.674 70.9297 177.261 71.3085 176.966C71.6911 176.667 72.1078 176.458 72.5585 176.341C73.0131 176.22 73.46 176.159 73.8994 176.159C74.1797 176.159 74.5017 176.193 74.8653 176.261C75.2328 176.326 75.5869 176.46 75.9278 176.665C76.2725 176.869 76.5585 177.178 76.7858 177.591C77.0131 178.004 77.1267 178.557 77.1267 179.25V185H75.7858V183.818H75.7176C75.6267 184.008 75.4752 184.21 75.2631 184.426C75.0509 184.642 74.7687 184.826 74.4165 184.977C74.0642 185.129 73.6343 185.205 73.1267 185.205ZM73.3312 184C73.8616 184 74.3085 183.896 74.6722 183.688C75.0396 183.479 75.3161 183.21 75.5017 182.881C75.6911 182.551 75.7858 182.205 75.7858 181.841V180.614C75.729 180.682 75.604 180.744 75.4108 180.801C75.2214 180.854 75.0017 180.902 74.7517 180.943C74.5055 180.981 74.265 181.015 74.0301 181.045C73.7991 181.072 73.6116 181.095 73.4676 181.114C73.1191 181.159 72.7934 181.233 72.4903 181.335C72.1911 181.434 71.9487 181.583 71.7631 181.784C71.5812 181.981 71.4903 182.25 71.4903 182.591C71.4903 183.057 71.6627 183.409 72.0074 183.648C72.3559 183.883 72.7972 184 73.3312 184ZM78.7741 185V176.273H80.0696V177.591H80.1605C80.3196 177.159 80.6075 176.809 81.0241 176.54C81.4408 176.271 81.9105 176.136 82.4332 176.136C82.5317 176.136 82.6548 176.138 82.8026 176.142C82.9503 176.146 83.062 176.152 83.1378 176.159V177.523C83.0923 177.511 82.9882 177.494 82.8253 177.472C82.6662 177.445 82.4976 177.432 82.3196 177.432C81.8954 177.432 81.5166 177.521 81.1832 177.699C80.8537 177.873 80.5923 178.116 80.3991 178.426C80.2098 178.733 80.1151 179.083 80.1151 179.477V185H78.7741ZM87.3207 185.182C86.4798 185.182 85.7545 184.996 85.1446 184.625C84.5385 184.25 84.0707 183.727 83.7412 183.057C83.4154 182.383 83.2526 181.598 83.2526 180.705C83.2526 179.811 83.4154 179.023 83.7412 178.341C84.0707 177.655 84.5291 177.121 85.1162 176.739C85.7071 176.352 86.3965 176.159 87.1844 176.159C87.6389 176.159 88.0878 176.235 88.531 176.386C88.9741 176.538 89.3776 176.784 89.7412 177.125C90.1048 177.462 90.3946 177.909 90.6105 178.466C90.8264 179.023 90.9344 179.708 90.9344 180.523V181.091H84.2071V179.932H89.5707C89.5707 179.439 89.4723 179 89.2753 178.614C89.0821 178.227 88.8056 177.922 88.4457 177.699C88.0897 177.475 87.6692 177.364 87.1844 177.364C86.6503 177.364 86.1882 177.496 85.798 177.761C85.4116 178.023 85.1143 178.364 84.906 178.784C84.6976 179.205 84.5935 179.655 84.5935 180.136V180.909C84.5935 181.568 84.7071 182.127 84.9344 182.585C85.1654 183.04 85.4855 183.386 85.8946 183.625C86.3037 183.86 86.7791 183.977 87.3207 183.977C87.673 183.977 87.9912 183.928 88.2753 183.83C88.5632 183.727 88.8113 183.576 89.0196 183.375C89.2279 183.17 89.3889 182.917 89.5026 182.614L90.798 182.977C90.6616 183.417 90.4325 183.803 90.1105 184.136C89.7885 184.466 89.3908 184.723 88.9173 184.909C88.4438 185.091 87.9116 185.182 87.3207 185.182ZM94.7423 185.205C94.1893 185.205 93.6874 185.1 93.2366 184.892C92.7859 184.68 92.4279 184.375 92.1628 183.977C91.8976 183.576 91.7651 183.091 91.7651 182.523C91.7651 182.023 91.8635 181.617 92.0605 181.307C92.2575 180.992 92.5207 180.746 92.8503 180.568C93.1798 180.39 93.5435 180.258 93.9412 180.17C94.3427 180.08 94.7461 180.008 95.1514 179.955C95.6817 179.886 96.1116 179.835 96.4412 179.801C96.7745 179.763 97.017 179.701 97.1685 179.614C97.3238 179.527 97.4014 179.375 97.4014 179.159V179.114C97.4014 178.553 97.248 178.117 96.9412 177.807C96.6382 177.496 96.1779 177.341 95.5605 177.341C94.9204 177.341 94.4185 177.481 94.0548 177.761C93.6912 178.042 93.4355 178.341 93.2878 178.659L92.0151 178.205C92.2423 177.674 92.5454 177.261 92.9241 176.966C93.3067 176.667 93.7234 176.458 94.1741 176.341C94.6287 176.22 95.0757 176.159 95.5151 176.159C95.7954 176.159 96.1173 176.193 96.481 176.261C96.8484 176.326 97.2026 176.46 97.5435 176.665C97.8882 176.869 98.1741 177.178 98.4014 177.591C98.6287 178.004 98.7423 178.557 98.7423 179.25V185H97.4014V183.818H97.3332C97.2423 184.008 97.0908 184.21 96.8787 184.426C96.6666 184.642 96.3844 184.826 96.0321 184.977C95.6798 185.129 95.2499 185.205 94.7423 185.205ZM94.9469 184C95.4772 184 95.9241 183.896 96.2878 183.688C96.6552 183.479 96.9317 183.21 97.1173 182.881C97.3067 182.551 97.4014 182.205 97.4014 181.841V180.614C97.3446 180.682 97.2196 180.744 97.0264 180.801C96.837 180.854 96.6173 180.902 96.3673 180.943C96.1211 180.981 95.8806 181.015 95.6457 181.045C95.4147 181.072 95.2272 181.095 95.0832 181.114C94.7348 181.159 94.409 181.233 94.106 181.335C93.8067 181.434 93.5643 181.583 93.3787 181.784C93.1969 181.981 93.106 182.25 93.106 182.591C93.106 183.057 93.2783 183.409 93.623 183.648C93.9715 183.883 94.4128 184 94.9469 184ZM101.367 185.091C101.087 185.091 100.846 184.991 100.645 184.79C100.445 184.589 100.344 184.348 100.344 184.068C100.344 183.788 100.445 183.547 100.645 183.347C100.846 183.146 101.087 183.045 101.367 183.045C101.647 183.045 101.888 183.146 102.089 183.347C102.289 183.547 102.39 183.788 102.39 184.068C102.39 184.254 102.342 184.424 102.248 184.58C102.157 184.735 102.034 184.86 101.878 184.955C101.727 185.045 101.556 185.091 101.367 185.091ZM104.973 185.091C104.693 185.091 104.452 184.991 104.252 184.79C104.051 184.589 103.951 184.348 103.951 184.068C103.951 183.788 104.051 183.547 104.252 183.347C104.452 183.146 104.693 183.045 104.973 183.045C105.254 183.045 105.494 183.146 105.695 183.347C105.896 183.547 105.996 183.788 105.996 184.068C105.996 184.254 105.949 184.424 105.854 184.58C105.763 184.735 105.64 184.86 105.485 184.955C105.333 185.045 105.163 185.091 104.973 185.091ZM108.58 185.091C108.299 185.091 108.059 184.991 107.858 184.79C107.657 184.589 107.557 184.348 107.557 184.068C107.557 183.788 107.657 183.547 107.858 183.347C108.059 183.146 108.299 183.045 108.58 183.045C108.86 183.045 109.1 183.146 109.301 183.347C109.502 183.547 109.602 183.788 109.602 184.068C109.602 184.254 109.555 184.424 109.46 184.58C109.369 184.735 109.246 184.86 109.091 184.955C108.939 185.045 108.769 185.091 108.58 185.091Z" fill="#747474"/>
</g>
<rect x="0.5" y="0.5" width="471" height="273" rx="7.5" stroke="white" stroke-opacity="0.1"/>
<defs>
<filter id="filter0_d_13_37" x="20" y="22" width="208" height="48" filterUnits="userSpaceOnUse" color-interpolation-filters="sRGB">
<feFlood flood-opacity="0" result="BackgroundImageFix"/>
<feColorMatrix in="SourceAlpha" type="matrix" values="0 0 0 0 0 0 0 0 0 0 0 0 0 0 0 0 0 0 127 0" result="hardAlpha"/>
<feOffset dy="2"/>
<feGaussianBlur stdDeviation="2"/>
<feComposite in2="hardAlpha" operator="out"/>
<feColorMatrix type="matrix" values="0 0 0 0 0.188235 0 0 0 0 0.188235 0 0 0 0 0.188235 0 0 0 0.17 0"/>
<feBlend mode="normal" in2="BackgroundImageFix" result="effect1_dropShadow_13_37"/>
<feBlend mode="normal" in="SourceGraphic" in2="effect1_dropShadow_13_37" result="shape"/>
</filter>
<filter id="filter1_d_13_37" x="244" y="22" width="208" height="48" filterUnits="userSpaceOnUse" color-interpolation-filters="sRGB">
<feFlood flood-opacity="0" result="BackgroundImageFix"/>
<feColorMatrix in="SourceAlpha" type="matrix" values="0 0 0 0 0 0 0 0 0 0 0 0 0 0 0 0 0 0 127 0" result="hardAlpha"/>
<feOffset dy="2"/>
<feGaussianBlur stdDeviation="2"/>
<feComposite in2="hardAlpha" operator="out"/>
<feColorMatrix type="matrix" values="0 0 0 0 0.188235 0 0 0 0 0.188235 0 0 0 0 0.188235 0 0 0 0.17 0"/>
<feBlend mode="normal" in2="BackgroundImageFix" result="effect1_dropShadow_13_37"/>
<feBlend mode="normal" in="SourceGraphic" in2="effect1_dropShadow_13_37" result="shape"/>
</filter>
<filter id="filter2_d_13_37" x="20" y="86" width="208" height="56" filterUnits="userSpaceOnUse" color-interpolation-filters="sRGB">
<feFlood flood-opacity="0" result="BackgroundImageFix"/>
<feColorMatrix in="SourceAlpha" type="matrix" values="0 0 0 0 0 0 0 0 0 0 0 0 0 0 0 0 0 0 127 0" result="hardAlpha"/>
<feOffset dy="2"/>
<feGaussianBlur stdDeviation="2"/>
<feComposite in2="hardAlpha" operator="out"/>
<feColorMatrix type="matrix" values="0 0 0 0 0.188235 0 0 0 0 0.188235 0 0 0 0 0.188235 0 0 0 0.17 0"/>
<feBlend mode="normal" in2="BackgroundImageFix" result="effect1_dropShadow_13_37"/>
<feBlend mode="normal" in="SourceGraphic" in2="effect1_dropShadow_13_37" result="shape"/>
</filter>
<filter id="filter3_d_13_37" x="248" y="88" width="204" height="44" filterUnits="userSpaceOnUse" color-interpolation-filters="sRGB">
<feFlood flood-opacity="0" result="BackgroundImageFix"/>
<feColorMatrix in="SourceAlpha" type="matrix" values="0 0 0 0 0 0 0 0 0 0 0 0 0 0 0 0 0 0 127 0" result="hardAlpha"/>
<feOffset dx="4" dy="4"/>
<feComposite in2="hardAlpha" operator="out"/>
<feColorMatrix type="matrix" values="0 0 0 0 0.188235 0 0 0 0 0.188235 0 0 0 0 0.188235 0 0 0 1 0"/>
<feBlend mode="normal" in2="BackgroundImageFix" result="effect1_dropShadow_13_37"/>
<feBlend mode="normal" in="SourceGraphic" in2="effect1_dropShadow_13_37" result="shape"/>
</filter>
<filter id="filter4_d_13_37" x="20" y="158" width="208" height="88" filterUnits="userSpaceOnUse" color-interpolation-filters="sRGB">
<feFlood flood-opacity="0" result="BackgroundImageFix"/>
<feColorMatrix in="SourceAlpha" type="matrix" values="0 0 0 0 0 0 0 0 0 0 0 0 0 0 0 0 0 0 127 0" result="hardAlpha"/>
<feOffset dy="2"/>
<feGaussianBlur stdDeviation="2"/>
<feComposite in2="hardAlpha" operator="out"/>
<feColorMatrix type="matrix" values="0 0 0 0 0.188235 0 0 0 0 0.188235 0 0 0 0 0.188235 0 0 0 0.17 0"/>
<feBlend mode="normal" in2="BackgroundImageFix" result="effect1_dropShadow_13_37"/>
<feBlend mode="normal" in="SourceGraphic" in2="effect1_dropShadow_13_37" result="shape"/>
</filter>
</defs>
</svg>
