<svg width="528" height="204" viewBox="0 0 528 204" fill="none" xmlns="http://www.w3.org/2000/svg">
<rect width="528" height="204" rx="8" fill="#F0F0F0"/>
<g filter="url(#filter0_d_64_1457)">
<rect x="24" y="24" width="480" height="156" rx="16" fill="#567FEF" fill-opacity="0.1" shape-rendering="crispEdges"/>
</g>
<path d="M40 124C40 119.582 43.5817 116 48 116H368V164H48C43.5817 164 40 160.418 40 156V124Z" fill="white"/>
<path d="M85.4091 145V133.364H92.4318V134.614H86.8182V138.545H92.0682V139.795H86.8182V143.75H92.5227V145H85.4091ZM93.9898 145V136.273H95.2852V137.636H95.3989C95.5807 137.17 95.8742 136.809 96.2795 136.551C96.6848 136.29 97.1716 136.159 97.7398 136.159C98.3155 136.159 98.7947 136.29 99.1773 136.551C99.5636 136.809 99.8648 137.17 100.081 137.636H100.172C100.395 137.186 100.73 136.828 101.177 136.562C101.624 136.294 102.16 136.159 102.785 136.159C103.566 136.159 104.204 136.403 104.7 136.892C105.196 137.377 105.444 138.133 105.444 139.159V145H104.103V139.159C104.103 138.515 103.927 138.055 103.575 137.778C103.223 137.502 102.808 137.364 102.331 137.364C101.717 137.364 101.242 137.549 100.905 137.92C100.567 138.288 100.399 138.754 100.399 139.318V145H99.0352V139.023C99.0352 138.527 98.8742 138.127 98.5523 137.824C98.2303 137.517 97.8155 137.364 97.308 137.364C96.9595 137.364 96.6337 137.456 96.3307 137.642C96.0314 137.828 95.789 138.085 95.6034 138.415C95.4216 138.741 95.3307 139.117 95.3307 139.545V145H93.9898ZM109.664 145.205C109.111 145.205 108.609 145.1 108.159 144.892C107.708 144.68 107.35 144.375 107.085 143.977C106.82 143.576 106.687 143.091 106.687 142.523C106.687 142.023 106.785 141.617 106.982 141.307C107.179 140.992 107.443 140.746 107.772 140.568C108.102 140.39 108.465 140.258 108.863 140.17C109.265 140.08 109.668 140.008 110.073 139.955C110.604 139.886 111.034 139.835 111.363 139.801C111.696 139.763 111.939 139.701 112.09 139.614C112.246 139.527 112.323 139.375 112.323 139.159V139.114C112.323 138.553 112.17 138.117 111.863 137.807C111.56 137.496 111.1 137.341 110.482 137.341C109.842 137.341 109.34 137.481 108.977 137.761C108.613 138.042 108.357 138.341 108.21 138.659L106.937 138.205C107.164 137.674 107.467 137.261 107.846 136.966C108.229 136.667 108.645 136.458 109.096 136.341C109.551 136.22 109.998 136.159 110.437 136.159C110.717 136.159 111.039 136.193 111.403 136.261C111.77 136.326 112.124 136.46 112.465 136.665C112.81 136.869 113.096 137.178 113.323 137.591C113.551 138.004 113.664 138.557 113.664 139.25V145H112.323V143.818H112.255C112.164 144.008 112.013 144.21 111.801 144.426C111.588 144.642 111.306 144.826 110.954 144.977C110.602 145.129 110.172 145.205 109.664 145.205ZM109.869 144C110.399 144 110.846 143.896 111.21 143.688C111.577 143.479 111.854 143.21 112.039 142.881C112.229 142.551 112.323 142.205 112.323 141.841V140.614C112.266 140.682 112.141 140.744 111.948 140.801C111.759 140.854 111.539 140.902 111.289 140.943C111.043 140.981 110.802 141.015 110.568 141.045C110.337 141.072 110.149 141.095 110.005 141.114C109.657 141.159 109.331 141.233 109.028 141.335C108.729 141.434 108.486 141.583 108.301 141.784C108.119 141.981 108.028 142.25 108.028 142.591C108.028 143.057 108.2 143.409 108.545 143.648C108.893 143.883 109.335 144 109.869 144ZM115.312 145V136.273H116.653V145H115.312ZM115.993 134.818C115.732 134.818 115.507 134.729 115.317 134.551C115.132 134.373 115.039 134.159 115.039 133.909C115.039 133.659 115.132 133.445 115.317 133.267C115.507 133.089 115.732 133 115.993 133C116.255 133 116.478 133.089 116.664 133.267C116.853 133.445 116.948 133.659 116.948 133.909C116.948 134.159 116.853 134.373 116.664 134.551C116.478 134.729 116.255 134.818 115.993 134.818ZM119.649 133.364V145H118.309V133.364H119.649ZM127.574 145.205C127.021 145.205 126.519 145.1 126.068 144.892C125.617 144.68 125.259 144.375 124.994 143.977C124.729 143.576 124.596 143.091 124.596 142.523C124.596 142.023 124.695 141.617 124.892 141.307C125.089 140.992 125.352 140.746 125.682 140.568C126.011 140.39 126.375 140.258 126.772 140.17C127.174 140.08 127.577 140.008 127.983 139.955C128.513 139.886 128.943 139.835 129.272 139.801C129.606 139.763 129.848 139.701 130 139.614C130.155 139.527 130.233 139.375 130.233 139.159V139.114C130.233 138.553 130.079 138.117 129.772 137.807C129.469 137.496 129.009 137.341 128.392 137.341C127.752 137.341 127.25 137.481 126.886 137.761C126.522 138.042 126.267 138.341 126.119 138.659L124.846 138.205C125.074 137.674 125.377 137.261 125.755 136.966C126.138 136.667 126.555 136.458 127.005 136.341C127.46 136.22 127.907 136.159 128.346 136.159C128.627 136.159 128.949 136.193 129.312 136.261C129.68 136.326 130.034 136.46 130.375 136.665C130.719 136.869 131.005 137.178 131.233 137.591C131.46 138.004 131.574 138.557 131.574 139.25V145H130.233V143.818H130.164C130.074 144.008 129.922 144.21 129.71 144.426C129.498 144.642 129.216 144.826 128.863 144.977C128.511 145.129 128.081 145.205 127.574 145.205ZM127.778 144C128.308 144 128.755 143.896 129.119 143.688C129.486 143.479 129.763 143.21 129.949 142.881C130.138 142.551 130.233 142.205 130.233 141.841V140.614C130.176 140.682 130.051 140.744 129.858 140.801C129.668 140.854 129.449 140.902 129.199 140.943C128.952 140.981 128.712 141.015 128.477 141.045C128.246 141.072 128.058 141.095 127.914 141.114C127.566 141.159 127.24 141.233 126.937 141.335C126.638 141.434 126.396 141.583 126.21 141.784C126.028 141.981 125.937 142.25 125.937 142.591C125.937 143.057 126.11 143.409 126.454 143.648C126.803 143.883 127.244 144 127.778 144ZM136.516 145.182C135.789 145.182 135.147 144.998 134.59 144.631C134.034 144.259 133.598 143.737 133.284 143.062C132.969 142.384 132.812 141.583 132.812 140.659C132.812 139.742 132.969 138.947 133.284 138.273C133.598 137.598 134.035 137.078 134.596 136.71C135.157 136.343 135.804 136.159 136.539 136.159C137.107 136.159 137.556 136.254 137.886 136.443C138.219 136.629 138.473 136.841 138.647 137.08C138.825 137.314 138.963 137.508 139.062 137.659H139.176V133.364H140.516V145H139.221V143.659H139.062C138.963 143.818 138.823 144.019 138.641 144.261C138.46 144.5 138.2 144.714 137.863 144.903C137.526 145.089 137.077 145.182 136.516 145.182ZM136.698 143.977C137.236 143.977 137.691 143.837 138.062 143.557C138.433 143.273 138.715 142.881 138.909 142.381C139.102 141.877 139.198 141.295 139.198 140.636C139.198 139.985 139.104 139.415 138.914 138.926C138.725 138.434 138.445 138.051 138.073 137.778C137.702 137.502 137.244 137.364 136.698 137.364C136.13 137.364 135.657 137.509 135.278 137.801C134.903 138.089 134.621 138.481 134.431 138.977C134.246 139.47 134.153 140.023 134.153 140.636C134.153 141.258 134.248 141.822 134.437 142.33C134.63 142.833 134.914 143.235 135.289 143.534C135.668 143.83 136.138 143.977 136.698 143.977ZM145.654 145.182C144.927 145.182 144.285 144.998 143.728 144.631C143.171 144.259 142.735 143.737 142.421 143.062C142.107 142.384 141.949 141.583 141.949 140.659C141.949 139.742 142.107 138.947 142.421 138.273C142.735 137.598 143.173 137.078 143.734 136.71C144.294 136.343 144.942 136.159 145.677 136.159C146.245 136.159 146.694 136.254 147.023 136.443C147.357 136.629 147.61 136.841 147.785 137.08C147.963 137.314 148.101 137.508 148.199 137.659H148.313V133.364H149.654V145H148.359V143.659H148.199C148.101 143.818 147.961 144.019 147.779 144.261C147.597 144.5 147.338 144.714 147.001 144.903C146.663 145.089 146.215 145.182 145.654 145.182ZM145.836 143.977C146.374 143.977 146.828 143.837 147.199 143.557C147.571 143.273 147.853 142.881 148.046 142.381C148.239 141.877 148.336 141.295 148.336 140.636C148.336 139.985 148.241 139.415 148.052 138.926C147.862 138.434 147.582 138.051 147.211 137.778C146.84 137.502 146.381 137.364 145.836 137.364C145.268 137.364 144.794 137.509 144.415 137.801C144.04 138.089 143.758 138.481 143.569 138.977C143.383 139.47 143.29 140.023 143.29 140.636C143.29 141.258 143.385 141.822 143.574 142.33C143.768 142.833 144.052 143.235 144.427 143.534C144.805 143.83 145.275 143.977 145.836 143.977ZM151.496 145V136.273H152.791V137.591H152.882C153.041 137.159 153.329 136.809 153.746 136.54C154.163 136.271 154.632 136.136 155.155 136.136C155.254 136.136 155.377 136.138 155.524 136.142C155.672 136.146 155.784 136.152 155.86 136.159V137.523C155.814 137.511 155.71 137.494 155.547 137.472C155.388 137.445 155.22 137.432 155.041 137.432C154.617 137.432 154.238 137.521 153.905 137.699C153.576 137.873 153.314 138.116 153.121 138.426C152.932 138.733 152.837 139.083 152.837 139.477V145H151.496ZM160.043 145.182C159.202 145.182 158.476 144.996 157.866 144.625C157.26 144.25 156.793 143.727 156.463 143.057C156.137 142.383 155.974 141.598 155.974 140.705C155.974 139.811 156.137 139.023 156.463 138.341C156.793 137.655 157.251 137.121 157.838 136.739C158.429 136.352 159.118 136.159 159.906 136.159C160.361 136.159 160.81 136.235 161.253 136.386C161.696 136.538 162.099 136.784 162.463 137.125C162.827 137.462 163.116 137.909 163.332 138.466C163.548 139.023 163.656 139.708 163.656 140.523V141.091H156.929V139.932H162.293C162.293 139.439 162.194 139 161.997 138.614C161.804 138.227 161.527 137.922 161.168 137.699C160.812 137.475 160.391 137.364 159.906 137.364C159.372 137.364 158.91 137.496 158.52 137.761C158.134 138.023 157.836 138.364 157.628 138.784C157.42 139.205 157.315 139.655 157.315 140.136V140.909C157.315 141.568 157.429 142.127 157.656 142.585C157.887 143.04 158.207 143.386 158.616 143.625C159.026 143.86 159.501 143.977 160.043 143.977C160.395 143.977 160.713 143.928 160.997 143.83C161.285 143.727 161.533 143.576 161.741 143.375C161.95 143.17 162.111 142.917 162.224 142.614L163.52 142.977C163.384 143.417 163.154 143.803 162.832 144.136C162.51 144.466 162.113 144.723 161.639 144.909C161.166 145.091 160.634 145.182 160.043 145.182ZM171.078 138.227L169.873 138.568C169.798 138.367 169.686 138.172 169.538 137.983C169.394 137.79 169.197 137.631 168.947 137.506C168.697 137.381 168.377 137.318 167.987 137.318C167.453 137.318 167.008 137.441 166.652 137.688C166.299 137.93 166.123 138.239 166.123 138.614C166.123 138.947 166.245 139.21 166.487 139.403C166.729 139.597 167.108 139.758 167.623 139.886L168.919 140.205C169.699 140.394 170.28 140.684 170.663 141.074C171.046 141.46 171.237 141.958 171.237 142.568C171.237 143.068 171.093 143.515 170.805 143.909C170.521 144.303 170.123 144.614 169.612 144.841C169.101 145.068 168.506 145.182 167.828 145.182C166.938 145.182 166.201 144.989 165.618 144.602C165.034 144.216 164.665 143.652 164.51 142.909L165.782 142.591C165.904 143.061 166.133 143.413 166.47 143.648C166.811 143.883 167.256 144 167.805 144C168.43 144 168.926 143.867 169.294 143.602C169.665 143.333 169.851 143.011 169.851 142.636C169.851 142.333 169.745 142.08 169.532 141.875C169.32 141.667 168.995 141.511 168.555 141.409L167.101 141.068C166.301 140.879 165.714 140.585 165.339 140.188C164.968 139.786 164.782 139.284 164.782 138.682C164.782 138.189 164.921 137.754 165.197 137.375C165.477 136.996 165.858 136.699 166.339 136.483C166.824 136.267 167.373 136.159 167.987 136.159C168.851 136.159 169.529 136.348 170.021 136.727C170.517 137.106 170.87 137.606 171.078 138.227ZM178.637 138.227L177.433 138.568C177.357 138.367 177.245 138.172 177.097 137.983C176.954 137.79 176.757 137.631 176.507 137.506C176.257 137.381 175.936 137.318 175.546 137.318C175.012 137.318 174.567 137.441 174.211 137.688C173.859 137.93 173.683 138.239 173.683 138.614C173.683 138.947 173.804 139.21 174.046 139.403C174.289 139.597 174.668 139.758 175.183 139.886L176.478 140.205C177.258 140.394 177.84 140.684 178.222 141.074C178.605 141.46 178.796 141.958 178.796 142.568C178.796 143.068 178.652 143.515 178.364 143.909C178.08 144.303 177.683 144.614 177.171 144.841C176.66 145.068 176.065 145.182 175.387 145.182C174.497 145.182 173.76 144.989 173.177 144.602C172.594 144.216 172.224 143.652 172.069 142.909L173.342 142.591C173.463 143.061 173.692 143.413 174.029 143.648C174.37 143.883 174.815 144 175.364 144C175.989 144 176.486 143.867 176.853 143.602C177.224 143.333 177.41 143.011 177.41 142.636C177.41 142.333 177.304 142.08 177.092 141.875C176.88 141.667 176.554 141.511 176.114 141.409L174.66 141.068C173.861 140.879 173.274 140.585 172.899 140.188C172.527 139.786 172.342 139.284 172.342 138.682C172.342 138.189 172.48 137.754 172.757 137.375C173.037 136.996 173.418 136.699 173.899 136.483C174.383 136.267 174.933 136.159 175.546 136.159C176.41 136.159 177.088 136.348 177.58 136.727C178.077 137.106 178.429 137.606 178.637 138.227ZM184.692 145.091C184.412 145.091 184.171 144.991 183.97 144.79C183.77 144.589 183.669 144.348 183.669 144.068C183.669 143.788 183.77 143.547 183.97 143.347C184.171 143.146 184.412 143.045 184.692 143.045C184.972 143.045 185.213 143.146 185.414 143.347C185.614 143.547 185.715 143.788 185.715 144.068C185.715 144.254 185.667 144.424 185.573 144.58C185.482 144.735 185.359 144.86 185.203 144.955C185.052 145.045 184.881 145.091 184.692 145.091ZM188.298 145.091C188.018 145.091 187.777 144.991 187.577 144.79C187.376 144.589 187.276 144.348 187.276 144.068C187.276 143.788 187.376 143.547 187.577 143.347C187.777 143.146 188.018 143.045 188.298 143.045C188.579 143.045 188.819 143.146 189.02 143.347C189.221 143.547 189.321 143.788 189.321 144.068C189.321 144.254 189.274 144.424 189.179 144.58C189.088 144.735 188.965 144.86 188.81 144.955C188.658 145.045 188.488 145.091 188.298 145.091ZM191.905 145.091C191.624 145.091 191.384 144.991 191.183 144.79C190.982 144.589 190.882 144.348 190.882 144.068C190.882 143.788 190.982 143.547 191.183 143.347C191.384 143.146 191.624 143.045 191.905 143.045C192.185 143.045 192.425 143.146 192.626 143.347C192.827 143.547 192.927 143.788 192.927 144.068C192.927 144.254 192.88 144.424 192.785 144.58C192.694 144.735 192.571 144.86 192.416 144.955C192.264 145.045 192.094 145.091 191.905 145.091Z" fill="#747474"/>
<path d="M53.5 136.669V145.25C53.5 146.907 54.8432 148.25 56.5 148.25H71.5C73.1569 148.25 74.5 146.907 74.5 145.25V136.669L65.5723 142.163C64.6081 142.756 63.3919 142.756 62.4277 142.163L53.5 136.669Z" fill="#567FEF"/>
<path d="M74.5 134.908V134.75C74.5 133.093 73.1569 131.75 71.5 131.75H56.5C54.8432 131.75 53.5 133.093 53.5 134.75V134.908L63.2139 140.886C63.696 141.182 64.304 141.182 64.7861 140.886L74.5 134.908Z" fill="#567FEF"/>
<path d="M368 116H480C484.418 116 488 119.582 488 124V156C488 160.418 484.418 164 480 164H368V116Z" fill="#567FEF"/>
<path d="M401.106 136.273C401.037 135.697 400.761 135.25 400.276 134.932C399.791 134.614 399.196 134.455 398.492 134.455C397.977 134.455 397.526 134.538 397.14 134.705C396.757 134.871 396.458 135.1 396.242 135.392C396.03 135.684 395.924 136.015 395.924 136.386C395.924 136.697 395.998 136.964 396.145 137.188C396.297 137.407 396.49 137.591 396.725 137.739C396.96 137.883 397.206 138.002 397.463 138.097C397.721 138.187 397.958 138.261 398.174 138.318L399.356 138.636C399.659 138.716 399.996 138.826 400.367 138.966C400.742 139.106 401.1 139.297 401.441 139.54C401.785 139.778 402.07 140.085 402.293 140.46C402.517 140.835 402.628 141.295 402.628 141.841C402.628 142.47 402.463 143.038 402.134 143.545C401.808 144.053 401.331 144.456 400.702 144.756C400.077 145.055 399.318 145.205 398.424 145.205C397.59 145.205 396.869 145.07 396.259 144.801C395.653 144.532 395.176 144.157 394.827 143.676C394.482 143.195 394.287 142.636 394.242 142H395.696C395.734 142.439 395.882 142.803 396.14 143.091C396.401 143.375 396.731 143.587 397.128 143.727C397.53 143.864 397.962 143.932 398.424 143.932C398.962 143.932 399.445 143.845 399.873 143.67C400.301 143.492 400.64 143.246 400.89 142.932C401.14 142.614 401.265 142.242 401.265 141.818C401.265 141.432 401.157 141.117 400.941 140.875C400.725 140.633 400.441 140.436 400.088 140.284C399.736 140.133 399.356 140 398.946 139.886L397.515 139.477C396.606 139.216 395.886 138.843 395.356 138.358C394.825 137.873 394.56 137.239 394.56 136.455C394.56 135.803 394.736 135.235 395.088 134.75C395.445 134.261 395.922 133.883 396.52 133.614C397.123 133.341 397.795 133.205 398.537 133.205C399.287 133.205 399.954 133.339 400.537 133.608C401.121 133.873 401.583 134.237 401.924 134.699C402.268 135.161 402.45 135.686 402.469 136.273H401.106ZM409.463 141.432V136.273H410.804V145H409.463V143.523H409.372C409.168 143.966 408.85 144.343 408.418 144.653C407.986 144.96 407.44 145.114 406.781 145.114C406.236 145.114 405.751 144.994 405.327 144.756C404.903 144.513 404.569 144.15 404.327 143.665C404.084 143.176 403.963 142.561 403.963 141.818V136.273H405.304V141.727C405.304 142.364 405.482 142.871 405.838 143.25C406.198 143.629 406.656 143.818 407.213 143.818C407.547 143.818 407.886 143.733 408.23 143.562C408.579 143.392 408.87 143.131 409.105 142.778C409.344 142.426 409.463 141.977 409.463 141.432ZM412.642 145V133.364H413.983V137.659H414.096C414.195 137.508 414.331 137.314 414.506 137.08C414.684 136.841 414.937 136.629 415.267 136.443C415.6 136.254 416.051 136.159 416.619 136.159C417.354 136.159 418.002 136.343 418.562 136.71C419.123 137.078 419.56 137.598 419.875 138.273C420.189 138.947 420.346 139.742 420.346 140.659C420.346 141.583 420.189 142.384 419.875 143.062C419.56 143.737 419.125 144.259 418.568 144.631C418.011 144.998 417.369 145.182 416.642 145.182C416.081 145.182 415.632 145.089 415.295 144.903C414.958 144.714 414.699 144.5 414.517 144.261C414.335 144.019 414.195 143.818 414.096 143.659H413.937V145H412.642ZM413.96 140.636C413.96 141.295 414.057 141.877 414.25 142.381C414.443 142.881 414.725 143.273 415.096 143.557C415.468 143.837 415.922 143.977 416.46 143.977C417.021 143.977 417.488 143.83 417.863 143.534C418.242 143.235 418.526 142.833 418.716 142.33C418.909 141.822 419.006 141.258 419.006 140.636C419.006 140.023 418.911 139.47 418.721 138.977C418.536 138.481 418.254 138.089 417.875 137.801C417.5 137.509 417.028 137.364 416.46 137.364C415.915 137.364 415.456 137.502 415.085 137.778C414.714 138.051 414.434 138.434 414.244 138.926C414.055 139.415 413.96 139.985 413.96 140.636ZM427.779 138.227L426.575 138.568C426.499 138.367 426.387 138.172 426.24 137.983C426.096 137.79 425.899 137.631 425.649 137.506C425.399 137.381 425.079 137.318 424.688 137.318C424.154 137.318 423.709 137.441 423.353 137.688C423.001 137.93 422.825 138.239 422.825 138.614C422.825 138.947 422.946 139.21 423.188 139.403C423.431 139.597 423.81 139.758 424.325 139.886L425.62 140.205C426.401 140.394 426.982 140.684 427.365 141.074C427.747 141.46 427.938 141.958 427.938 142.568C427.938 143.068 427.795 143.515 427.507 143.909C427.223 144.303 426.825 144.614 426.313 144.841C425.802 145.068 425.207 145.182 424.529 145.182C423.639 145.182 422.903 144.989 422.319 144.602C421.736 144.216 421.367 143.652 421.211 142.909L422.484 142.591C422.605 143.061 422.834 143.413 423.171 143.648C423.512 143.883 423.957 144 424.507 144C425.132 144 425.628 143.867 425.995 143.602C426.367 143.333 426.552 143.011 426.552 142.636C426.552 142.333 426.446 142.08 426.234 141.875C426.022 141.667 425.696 141.511 425.257 141.409L423.802 141.068C423.003 140.879 422.416 140.585 422.041 140.188C421.67 139.786 421.484 139.284 421.484 138.682C421.484 138.189 421.622 137.754 421.899 137.375C422.179 136.996 422.56 136.699 423.041 136.483C423.526 136.267 424.075 136.159 424.688 136.159C425.552 136.159 426.23 136.348 426.723 136.727C427.219 137.106 427.571 137.606 427.779 138.227ZM432.702 145.182C431.884 145.182 431.18 144.989 430.589 144.602C429.998 144.216 429.543 143.684 429.225 143.006C428.907 142.328 428.748 141.553 428.748 140.682C428.748 139.795 428.911 139.013 429.237 138.335C429.566 137.653 430.024 137.121 430.612 136.739C431.202 136.352 431.892 136.159 432.68 136.159C433.293 136.159 433.846 136.273 434.339 136.5C434.831 136.727 435.235 137.045 435.549 137.455C435.863 137.864 436.058 138.341 436.134 138.886H434.793C434.691 138.489 434.464 138.136 434.112 137.83C433.763 137.519 433.293 137.364 432.702 137.364C432.18 137.364 431.721 137.5 431.327 137.773C430.937 138.042 430.632 138.422 430.413 138.915C430.197 139.403 430.089 139.977 430.089 140.636C430.089 141.311 430.195 141.898 430.407 142.398C430.623 142.898 430.926 143.286 431.316 143.562C431.71 143.839 432.172 143.977 432.702 143.977C433.051 143.977 433.367 143.917 433.651 143.795C433.935 143.674 434.176 143.5 434.373 143.273C434.57 143.045 434.71 142.773 434.793 142.455H436.134C436.058 142.97 435.871 143.434 435.572 143.847C435.276 144.256 434.884 144.581 434.396 144.824C433.911 145.062 433.346 145.182 432.702 145.182ZM437.294 145V136.273H438.59V137.591H438.681C438.84 137.159 439.128 136.809 439.544 136.54C439.961 136.271 440.431 136.136 440.954 136.136C441.052 136.136 441.175 136.138 441.323 136.142C441.471 136.146 441.582 136.152 441.658 136.159V137.523C441.613 137.511 441.508 137.494 441.346 137.472C441.187 137.445 441.018 137.432 440.84 137.432C440.416 137.432 440.037 137.521 439.704 137.699C439.374 137.873 439.113 138.116 438.919 138.426C438.73 138.733 438.635 139.083 438.635 139.477V145H437.294ZM442.448 145V136.273H443.788V145H442.448ZM443.129 134.818C442.868 134.818 442.643 134.729 442.453 134.551C442.268 134.373 442.175 134.159 442.175 133.909C442.175 133.659 442.268 133.445 442.453 133.267C442.643 133.089 442.868 133 443.129 133C443.391 133 443.614 133.089 443.8 133.267C443.989 133.445 444.084 133.659 444.084 133.909C444.084 134.159 443.989 134.373 443.8 134.551C443.614 134.729 443.391 134.818 443.129 134.818ZM445.626 145V133.364H446.967V137.659H447.081C447.179 137.508 447.316 137.314 447.49 137.08C447.668 136.841 447.922 136.629 448.251 136.443C448.585 136.254 449.035 136.159 449.604 136.159C450.338 136.159 450.986 136.343 451.547 136.71C452.107 137.078 452.545 137.598 452.859 138.273C453.174 138.947 453.331 139.742 453.331 140.659C453.331 141.583 453.174 142.384 452.859 143.062C452.545 143.737 452.109 144.259 451.552 144.631C450.996 144.998 450.354 145.182 449.626 145.182C449.066 145.182 448.617 145.089 448.28 144.903C447.943 144.714 447.683 144.5 447.501 144.261C447.319 144.019 447.179 143.818 447.081 143.659H446.922V145H445.626ZM446.944 140.636C446.944 141.295 447.041 141.877 447.234 142.381C447.427 142.881 447.71 143.273 448.081 143.557C448.452 143.837 448.907 143.977 449.444 143.977C450.005 143.977 450.473 143.83 450.848 143.534C451.227 143.235 451.511 142.833 451.7 142.33C451.893 141.822 451.99 141.258 451.99 140.636C451.99 140.023 451.895 139.47 451.706 138.977C451.52 138.481 451.238 138.089 450.859 137.801C450.484 137.509 450.013 137.364 449.444 137.364C448.899 137.364 448.441 137.502 448.069 137.778C447.698 138.051 447.418 138.434 447.229 138.926C447.039 139.415 446.944 139.985 446.944 140.636ZM458.241 145.182C457.4 145.182 456.675 144.996 456.065 144.625C455.459 144.25 454.991 143.727 454.662 143.057C454.336 142.383 454.173 141.598 454.173 140.705C454.173 139.811 454.336 139.023 454.662 138.341C454.991 137.655 455.449 137.121 456.037 136.739C456.627 136.352 457.317 136.159 458.105 136.159C458.559 136.159 459.008 136.235 459.451 136.386C459.894 136.538 460.298 136.784 460.662 137.125C461.025 137.462 461.315 137.909 461.531 138.466C461.747 139.023 461.855 139.708 461.855 140.523V141.091H455.127V139.932H460.491C460.491 139.439 460.393 139 460.196 138.614C460.002 138.227 459.726 137.922 459.366 137.699C459.01 137.475 458.59 137.364 458.105 137.364C457.571 137.364 457.108 137.496 456.718 137.761C456.332 138.023 456.035 138.364 455.826 138.784C455.618 139.205 455.514 139.655 455.514 140.136V140.909C455.514 141.568 455.627 142.127 455.855 142.585C456.086 143.04 456.406 143.386 456.815 143.625C457.224 143.86 457.699 143.977 458.241 143.977C458.593 143.977 458.912 143.928 459.196 143.83C459.483 143.727 459.732 143.576 459.94 143.375C460.148 143.17 460.309 142.917 460.423 142.614L461.718 142.977C461.582 143.417 461.353 143.803 461.031 144.136C460.709 144.466 460.311 144.723 459.838 144.909C459.364 145.091 458.832 145.182 458.241 145.182Z" fill="white"/>
<path d="M41.4091 94V82.3636H45.3409C46.25 82.3636 46.9962 82.5189 47.5795 82.8295C48.1629 83.1364 48.5947 83.5587 48.875 84.0966C49.1553 84.6345 49.2955 85.2462 49.2955 85.9318C49.2955 86.6174 49.1553 87.2254 48.875 87.7557C48.5947 88.286 48.1648 88.7027 47.5852 89.0057C47.0057 89.3049 46.2652 89.4545 45.3636 89.4545H42.1818V88.1818H45.3182C45.9394 88.1818 46.4394 88.0909 46.8182 87.9091C47.2008 87.7273 47.4773 87.4697 47.6477 87.1364C47.822 86.7992 47.9091 86.3977 47.9091 85.9318C47.9091 85.4659 47.822 85.0587 47.6477 84.7102C47.4735 84.3617 47.1951 84.0928 46.8125 83.9034C46.4299 83.7102 45.9242 83.6136 45.2955 83.6136H42.8182V94H41.4091ZM46.8864 88.7727L49.75 94H48.1136L45.2955 88.7727H46.8864ZM54.227 94.1818C53.3861 94.1818 52.6607 93.9962 52.0509 93.625C51.4448 93.25 50.977 92.7273 50.6474 92.0568C50.3217 91.3826 50.1588 90.5985 50.1588 89.7045C50.1588 88.8106 50.3217 88.0227 50.6474 87.3409C50.977 86.6553 51.4353 86.1212 52.0224 85.7386C52.6134 85.3523 53.3027 85.1591 54.0906 85.1591C54.5452 85.1591 54.994 85.2348 55.4372 85.3864C55.8804 85.5379 56.2838 85.7841 56.6474 86.125C57.0111 86.4621 57.3009 86.9091 57.5168 87.4659C57.7327 88.0227 57.8406 88.7083 57.8406 89.5227V90.0909H51.1134V88.9318H56.477C56.477 88.4394 56.3785 88 56.1815 87.6136C55.9884 87.2273 55.7118 86.9223 55.352 86.6989C54.9959 86.4754 54.5755 86.3636 54.0906 86.3636C53.5565 86.3636 53.0944 86.4962 52.7043 86.7614C52.3179 87.0227 52.0205 87.3636 51.8122 87.7841C51.6039 88.2045 51.4997 88.6553 51.4997 89.1364V89.9091C51.4997 90.5682 51.6134 91.1269 51.8406 91.5852C52.0717 92.0398 52.3918 92.3864 52.8009 92.625C53.2099 92.8598 53.6853 92.9773 54.227 92.9773C54.5793 92.9773 54.8974 92.928 55.1815 92.8295C55.4694 92.7273 55.7175 92.5758 55.9259 92.375C56.1342 92.1705 56.2952 91.9167 56.4088 91.6136L57.7043 91.9773C57.5679 92.4167 57.3387 92.803 57.0168 93.1364C56.6948 93.4659 56.2971 93.7235 55.8236 93.9091C55.3501 94.0909 54.8179 94.1818 54.227 94.1818ZM62.6259 94.1818C61.8077 94.1818 61.1031 93.9886 60.5122 93.6023C59.9213 93.2159 59.4668 92.6837 59.1486 92.0057C58.8304 91.3277 58.6713 90.553 58.6713 89.6818C58.6713 88.7955 58.8342 88.0133 59.1599 87.3352C59.4895 86.6534 59.9478 86.1212 60.5349 85.7386C61.1259 85.3523 61.8152 85.1591 62.6031 85.1591C63.2168 85.1591 63.7698 85.2727 64.2622 85.5C64.7546 85.7273 65.158 86.0455 65.4724 86.4545C65.7868 86.8636 65.9819 87.3409 66.0577 87.8864H64.7168C64.6145 87.4886 64.3872 87.1364 64.0349 86.8295C63.6865 86.5189 63.2168 86.3636 62.6259 86.3636C62.1031 86.3636 61.6448 86.5 61.2509 86.7727C60.8607 87.0417 60.5558 87.4223 60.3361 87.9148C60.1202 88.4034 60.0122 88.9773 60.0122 89.6364C60.0122 90.3106 60.1183 90.8977 60.3304 91.3977C60.5463 91.8977 60.8493 92.286 61.2395 92.5625C61.6334 92.839 62.0955 92.9773 62.6259 92.9773C62.9743 92.9773 63.2906 92.9167 63.5747 92.7955C63.8588 92.6742 64.0993 92.5 64.2963 92.2727C64.4933 92.0455 64.6334 91.7727 64.7168 91.4545H66.0577C65.9819 91.9697 65.7944 92.4337 65.4952 92.8466C65.1997 93.2557 64.8077 93.5814 64.319 93.8239C63.8342 94.0625 63.2698 94.1818 62.6259 94.1818ZM70.877 94.1818C70.0361 94.1818 69.3107 93.9962 68.7009 93.625C68.0948 93.25 67.627 92.7273 67.2974 92.0568C66.9717 91.3826 66.8088 90.5985 66.8088 89.7045C66.8088 88.8106 66.9717 88.0227 67.2974 87.3409C67.627 86.6553 68.0853 86.1212 68.6724 85.7386C69.2634 85.3523 69.9527 85.1591 70.7406 85.1591C71.1952 85.1591 71.644 85.2348 72.0872 85.3864C72.5304 85.5379 72.9338 85.7841 73.2974 86.125C73.6611 86.4621 73.9509 86.9091 74.1668 87.4659C74.3827 88.0227 74.4906 88.7083 74.4906 89.5227V90.0909H67.7634V88.9318H73.127C73.127 88.4394 73.0285 88 72.8315 87.6136C72.6384 87.2273 72.3618 86.9223 72.002 86.6989C71.6459 86.4754 71.2255 86.3636 70.7406 86.3636C70.2065 86.3636 69.7444 86.4962 69.3543 86.7614C68.9679 87.0227 68.6705 87.3636 68.4622 87.7841C68.2539 88.2045 68.1497 88.6553 68.1497 89.1364V89.9091C68.1497 90.5682 68.2634 91.1269 68.4906 91.5852C68.7217 92.0398 69.0418 92.3864 69.4509 92.625C69.8599 92.8598 70.3353 92.9773 70.877 92.9773C71.2293 92.9773 71.5474 92.928 71.8315 92.8295C72.1194 92.7273 72.3675 92.5758 72.5759 92.375C72.7842 92.1705 72.9452 91.9167 73.0588 91.6136L74.3543 91.9773C74.2179 92.4167 73.9887 92.803 73.6668 93.1364C73.3448 93.4659 72.9471 93.7235 72.4736 93.9091C72.0001 94.0909 71.4679 94.1818 70.877 94.1818ZM75.7304 94V85.2727H77.0713V94H75.7304ZM76.4122 83.8182C76.1509 83.8182 75.9255 83.7292 75.7361 83.5511C75.5505 83.3731 75.4577 83.1591 75.4577 82.9091C75.4577 82.6591 75.5505 82.4451 75.7361 82.267C75.9255 82.089 76.1509 82 76.4122 82C76.6736 82 76.8971 82.089 77.0827 82.267C77.2721 82.4451 77.3668 82.6591 77.3668 82.9091C77.3668 83.1591 77.2721 83.3731 77.0827 83.5511C76.8971 83.7292 76.6736 83.8182 76.4122 83.8182ZM85.8636 85.2727L82.6364 94H81.2727L78.0455 85.2727H79.5L81.9091 92.2273H82L84.4091 85.2727H85.8636ZM90.1801 94.1818C89.3392 94.1818 88.6138 93.9962 88.004 93.625C87.3979 93.25 86.9301 92.7273 86.6006 92.0568C86.2748 91.3826 86.1119 90.5985 86.1119 89.7045C86.1119 88.8106 86.2748 88.0227 86.6006 87.3409C86.9301 86.6553 87.3884 86.1212 87.9756 85.7386C88.5665 85.3523 89.2559 85.1591 90.0438 85.1591C90.4983 85.1591 90.9472 85.2348 91.3903 85.3864C91.8335 85.5379 92.2369 85.7841 92.6006 86.125C92.9642 86.4621 93.254 86.9091 93.4699 87.4659C93.6858 88.0227 93.7938 88.7083 93.7938 89.5227V90.0909H87.0665V88.9318H92.4301C92.4301 88.4394 92.3316 88 92.1347 87.6136C91.9415 87.2273 91.665 86.9223 91.3051 86.6989C90.9491 86.4754 90.5286 86.3636 90.0438 86.3636C89.5097 86.3636 89.0475 86.4962 88.6574 86.7614C88.271 87.0227 87.9737 87.3636 87.7653 87.7841C87.557 88.2045 87.4528 88.6553 87.4528 89.1364V89.9091C87.4528 90.5682 87.5665 91.1269 87.7938 91.5852C88.0248 92.0398 88.3449 92.3864 88.754 92.625C89.1631 92.8598 89.6384 92.9773 90.1801 92.9773C90.5324 92.9773 90.8506 92.928 91.1347 92.8295C91.4225 92.7273 91.6706 92.5758 91.879 92.375C92.0873 92.1705 92.2483 91.9167 92.3619 91.6136L93.6574 91.9773C93.521 92.4167 93.2919 92.803 92.9699 93.1364C92.6479 93.4659 92.2502 93.7235 91.7767 93.9091C91.3032 94.0909 90.771 94.1818 90.1801 94.1818ZM102.279 94.1818C101.491 94.1818 100.8 93.9943 100.205 93.6193C99.6142 93.2443 99.1521 92.7197 98.8187 92.0455C98.4892 91.3712 98.3244 90.5833 98.3244 89.6818C98.3244 88.7727 98.4892 87.9792 98.8187 87.3011C99.1521 86.6231 99.6142 86.0966 100.205 85.7216C100.8 85.3466 101.491 85.1591 102.279 85.1591C103.067 85.1591 103.756 85.3466 104.347 85.7216C104.942 86.0966 105.404 86.6231 105.734 87.3011C106.067 87.9792 106.234 88.7727 106.234 89.6818C106.234 90.5833 106.067 91.3712 105.734 92.0455C105.404 92.7197 104.942 93.2443 104.347 93.6193C103.756 93.9943 103.067 94.1818 102.279 94.1818ZM102.279 92.9773C102.877 92.9773 103.37 92.8239 103.756 92.517C104.143 92.2102 104.429 91.8068 104.614 91.3068C104.8 90.8068 104.893 90.2652 104.893 89.6818C104.893 89.0985 104.8 88.5549 104.614 88.0511C104.429 87.5473 104.143 87.1402 103.756 86.8295C103.37 86.5189 102.877 86.3636 102.279 86.3636C101.68 86.3636 101.188 86.5189 100.802 86.8295C100.415 87.1402 100.129 87.5473 99.9437 88.0511C99.7581 88.5549 99.6653 89.0985 99.6653 89.6818C99.6653 90.2652 99.7581 90.8068 99.9437 91.3068C100.129 91.8068 100.415 92.2102 100.802 92.517C101.188 92.8239 101.68 92.9773 102.279 92.9773ZM112.98 90.4318V85.2727H114.321V94H112.98V92.5227H112.889C112.685 92.9659 112.367 93.3428 111.935 93.6534C111.503 93.9602 110.958 94.1136 110.299 94.1136C109.753 94.1136 109.268 93.9943 108.844 93.7557C108.42 93.5133 108.086 93.1496 107.844 92.6648C107.602 92.1761 107.48 91.5606 107.48 90.8182V85.2727H108.821V90.7273C108.821 91.3636 108.999 91.8712 109.355 92.25C109.715 92.6288 110.174 92.8182 110.73 92.8182C111.064 92.8182 111.403 92.733 111.747 92.5625C112.096 92.392 112.388 92.1307 112.622 91.7784C112.861 91.4261 112.98 90.9773 112.98 90.4318ZM115.977 94V85.2727H117.273V86.5909H117.364C117.523 86.1591 117.811 85.8087 118.227 85.5398C118.644 85.2708 119.114 85.1364 119.636 85.1364C119.735 85.1364 119.858 85.1383 120.006 85.142C120.153 85.1458 120.265 85.1515 120.341 85.1591V86.5227C120.295 86.5114 120.191 86.4943 120.028 86.4716C119.869 86.4451 119.701 86.4318 119.523 86.4318C119.098 86.4318 118.72 86.5208 118.386 86.6989C118.057 86.8731 117.795 87.1155 117.602 87.4261C117.413 87.733 117.318 88.0833 117.318 88.4773V94H115.977ZM126.171 82.3636V94H124.83V82.3636H126.171ZM130.395 94.2045C129.842 94.2045 129.341 94.1004 128.89 93.892C128.439 93.6799 128.081 93.375 127.816 92.9773C127.551 92.5758 127.418 92.0909 127.418 91.5227C127.418 91.0227 127.517 90.6174 127.714 90.3068C127.911 89.9924 128.174 89.7462 128.503 89.5682C128.833 89.3902 129.197 89.2576 129.594 89.1705C129.996 89.0795 130.399 89.0076 130.805 88.9545C131.335 88.8864 131.765 88.8352 132.094 88.8011C132.428 88.7633 132.67 88.7008 132.822 88.6136C132.977 88.5265 133.055 88.375 133.055 88.1591V88.1136C133.055 87.553 132.901 87.1174 132.594 86.8068C132.291 86.4962 131.831 86.3409 131.214 86.3409C130.573 86.3409 130.072 86.4811 129.708 86.7614C129.344 87.0417 129.089 87.3409 128.941 87.6591L127.668 87.2045C127.895 86.6742 128.198 86.2614 128.577 85.9659C128.96 85.6667 129.377 85.4583 129.827 85.3409C130.282 85.2197 130.729 85.1591 131.168 85.1591C131.448 85.1591 131.77 85.1932 132.134 85.2614C132.502 85.3258 132.856 85.4602 133.197 85.6648C133.541 85.8693 133.827 86.178 134.055 86.5909C134.282 87.0038 134.395 87.5568 134.395 88.25V94H133.055V92.8182H132.986C132.895 93.0076 132.744 93.2102 132.532 93.4261C132.32 93.642 132.037 93.8258 131.685 93.9773C131.333 94.1288 130.903 94.2045 130.395 94.2045ZM130.6 93C131.13 93 131.577 92.8958 131.941 92.6875C132.308 92.4792 132.585 92.2102 132.77 91.8807C132.96 91.5511 133.055 91.2045 133.055 90.8409V89.6136C132.998 89.6818 132.873 89.7443 132.68 89.8011C132.49 89.8542 132.27 89.9015 132.02 89.9432C131.774 89.9811 131.534 90.0152 131.299 90.0455C131.068 90.072 130.88 90.0947 130.736 90.1136C130.388 90.1591 130.062 90.233 129.759 90.3352C129.46 90.4337 129.217 90.5833 129.032 90.7841C128.85 90.9811 128.759 91.25 128.759 91.5909C128.759 92.0568 128.931 92.4091 129.276 92.6477C129.625 92.8826 130.066 93 130.6 93ZM139.838 85.2727V86.4091H135.316V85.2727H139.838ZM136.634 83.1818H137.975V91.5C137.975 91.8788 138.03 92.1629 138.139 92.3523C138.253 92.5379 138.397 92.6629 138.571 92.7273C138.749 92.7879 138.937 92.8182 139.134 92.8182C139.282 92.8182 139.403 92.8106 139.497 92.7955C139.592 92.7765 139.668 92.7614 139.725 92.75L139.997 93.9545C139.907 93.9886 139.78 94.0227 139.617 94.0568C139.454 94.0947 139.247 94.1136 138.997 94.1136C138.619 94.1136 138.247 94.0322 137.884 93.8693C137.524 93.7064 137.225 93.4583 136.986 93.125C136.751 92.7917 136.634 92.3712 136.634 91.8636V83.1818ZM144.621 94.1818C143.78 94.1818 143.054 93.9962 142.445 93.625C141.839 93.25 141.371 92.7273 141.041 92.0568C140.715 91.3826 140.553 90.5985 140.553 89.7045C140.553 88.8106 140.715 88.0227 141.041 87.3409C141.371 86.6553 141.829 86.1212 142.416 85.7386C143.007 85.3523 143.696 85.1591 144.484 85.1591C144.939 85.1591 145.388 85.2348 145.831 85.3864C146.274 85.5379 146.678 85.7841 147.041 86.125C147.405 86.4621 147.695 86.9091 147.911 87.4659C148.126 88.0227 148.234 88.7083 148.234 89.5227V90.0909H141.507V88.9318H146.871C146.871 88.4394 146.772 88 146.575 87.6136C146.382 87.2273 146.106 86.9223 145.746 86.6989C145.39 86.4754 144.969 86.3636 144.484 86.3636C143.95 86.3636 143.488 86.4962 143.098 86.7614C142.712 87.0227 142.414 87.3636 142.206 87.7841C141.998 88.2045 141.893 88.6553 141.893 89.1364V89.9091C141.893 90.5682 142.007 91.1269 142.234 91.5852C142.465 92.0398 142.786 92.3864 143.195 92.625C143.604 92.8598 144.079 92.9773 144.621 92.9773C144.973 92.9773 145.291 92.928 145.575 92.8295C145.863 92.7273 146.111 92.5758 146.32 92.375C146.528 92.1705 146.689 91.9167 146.803 91.6136L148.098 91.9773C147.962 92.4167 147.732 92.803 147.411 93.1364C147.089 93.4659 146.691 93.7235 146.217 93.9091C145.744 94.0909 145.212 94.1818 144.621 94.1818ZM155.656 87.2273L154.451 87.5682C154.376 87.3674 154.264 87.1723 154.116 86.983C153.972 86.7898 153.775 86.6307 153.525 86.5057C153.275 86.3807 152.955 86.3182 152.565 86.3182C152.031 86.3182 151.586 86.4413 151.23 86.6875C150.878 86.9299 150.701 87.2386 150.701 87.6136C150.701 87.947 150.823 88.2102 151.065 88.4034C151.307 88.5966 151.686 88.7576 152.201 88.8864L153.497 89.2045C154.277 89.3939 154.859 89.6837 155.241 90.0739C155.624 90.4602 155.815 90.9583 155.815 91.5682C155.815 92.0682 155.671 92.5152 155.383 92.9091C155.099 93.303 154.701 93.6136 154.19 93.8409C153.679 94.0682 153.084 94.1818 152.406 94.1818C151.516 94.1818 150.779 93.9886 150.196 93.6023C149.612 93.2159 149.243 92.6515 149.088 91.9091L150.361 91.5909C150.482 92.0606 150.711 92.4129 151.048 92.6477C151.389 92.8826 151.834 93 152.383 93C153.008 93 153.504 92.8674 153.872 92.6023C154.243 92.3333 154.429 92.0114 154.429 91.6364C154.429 91.3333 154.323 91.0795 154.111 90.875C153.898 90.6667 153.573 90.5114 153.133 90.4091L151.679 90.0682C150.879 89.8788 150.292 89.5852 149.917 89.1875C149.546 88.786 149.361 88.2841 149.361 87.6818C149.361 87.1894 149.499 86.7538 149.775 86.375C150.056 85.9962 150.436 85.6989 150.917 85.483C151.402 85.267 151.951 85.1591 152.565 85.1591C153.429 85.1591 154.107 85.3485 154.599 85.7273C155.095 86.1061 155.448 86.6061 155.656 87.2273ZM160.829 85.2727V86.4091H156.306V85.2727H160.829ZM157.624 83.1818H158.965V91.5C158.965 91.8788 159.02 92.1629 159.13 92.3523C159.244 92.5379 159.388 92.6629 159.562 92.7273C159.74 92.7879 159.927 92.8182 160.124 92.8182C160.272 92.8182 160.393 92.8106 160.488 92.7955C160.583 92.7765 160.659 92.7614 160.715 92.75L160.988 93.9545C160.897 93.9886 160.77 94.0227 160.607 94.0568C160.445 94.0947 160.238 94.1136 159.988 94.1136C159.609 94.1136 159.238 94.0322 158.874 93.8693C158.515 93.7064 158.215 93.4583 157.977 93.125C157.742 92.7917 157.624 92.3712 157.624 91.8636V83.1818ZM167.087 88.75V94H165.746V85.2727H167.041V86.6364H167.155C167.36 86.1932 167.67 85.8371 168.087 85.5682C168.504 85.2955 169.041 85.1591 169.701 85.1591C170.291 85.1591 170.809 85.2803 171.252 85.5227C171.695 85.7614 172.04 86.125 172.286 86.6136C172.532 87.0985 172.655 87.7121 172.655 88.4545V94H171.314V88.5455C171.314 87.8598 171.136 87.3258 170.78 86.9432C170.424 86.5568 169.935 86.3636 169.314 86.3636C168.886 86.3636 168.504 86.4564 168.166 86.642C167.833 86.8277 167.57 87.0985 167.377 87.4545C167.184 87.8106 167.087 88.2424 167.087 88.75ZM177.964 94.1818C177.124 94.1818 176.398 93.9962 175.788 93.625C175.182 93.25 174.714 92.7273 174.385 92.0568C174.059 91.3826 173.896 90.5985 173.896 89.7045C173.896 88.8106 174.059 88.0227 174.385 87.3409C174.714 86.6553 175.173 86.1212 175.76 85.7386C176.351 85.3523 177.04 85.1591 177.828 85.1591C178.283 85.1591 178.732 85.2348 179.175 85.3864C179.618 85.5379 180.021 85.7841 180.385 86.125C180.749 86.4621 181.038 86.9091 181.254 87.4659C181.47 88.0227 181.578 88.7083 181.578 89.5227V90.0909H174.851V88.9318H180.214C180.214 88.4394 180.116 88 179.919 87.6136C179.726 87.2273 179.449 86.9223 179.089 86.6989C178.733 86.4754 178.313 86.3636 177.828 86.3636C177.294 86.3636 176.832 86.4962 176.442 86.7614C176.055 87.0227 175.758 87.3636 175.55 87.7841C175.341 88.2045 175.237 88.6553 175.237 89.1364V89.9091C175.237 90.5682 175.351 91.1269 175.578 91.5852C175.809 92.0398 176.129 92.3864 176.538 92.625C176.947 92.8598 177.423 92.9773 177.964 92.9773C178.317 92.9773 178.635 92.928 178.919 92.8295C179.207 92.7273 179.455 92.5758 179.663 92.375C179.872 92.1705 180.033 91.9167 180.146 91.6136L181.442 91.9773C181.305 92.4167 181.076 92.803 180.754 93.1364C180.432 93.4659 180.035 93.7235 179.561 93.9091C179.088 94.0909 178.555 94.1818 177.964 94.1818ZM184.795 94L182.136 85.2727H183.545L185.432 91.9545H185.522L187.386 85.2727H188.818L190.659 91.9318H190.75L192.636 85.2727H194.045L191.386 94H190.068L188.159 87.2955H188.022L186.113 94H184.795ZM201.2 87.2273L199.995 87.5682C199.919 87.3674 199.808 87.1723 199.66 86.983C199.516 86.7898 199.319 86.6307 199.069 86.5057C198.819 86.3807 198.499 86.3182 198.109 86.3182C197.575 86.3182 197.13 86.4413 196.774 86.6875C196.421 86.9299 196.245 87.2386 196.245 87.6136C196.245 87.947 196.366 88.2102 196.609 88.4034C196.851 88.5966 197.23 88.7576 197.745 88.8864L199.041 89.2045C199.821 89.3939 200.402 89.6837 200.785 90.0739C201.168 90.4602 201.359 90.9583 201.359 91.5682C201.359 92.0682 201.215 92.5152 200.927 92.9091C200.643 93.303 200.245 93.6136 199.734 93.8409C199.222 94.0682 198.628 94.1818 197.95 94.1818C197.06 94.1818 196.323 93.9886 195.739 93.6023C195.156 93.2159 194.787 92.6515 194.632 91.9091L195.904 91.5909C196.025 92.0606 196.255 92.4129 196.592 92.6477C196.933 92.8826 197.378 93 197.927 93C198.552 93 199.048 92.8674 199.416 92.6023C199.787 92.3333 199.972 92.0114 199.972 91.6364C199.972 91.3333 199.866 91.0795 199.654 90.875C199.442 90.6667 199.116 90.5114 198.677 90.4091L197.222 90.0682C196.423 89.8788 195.836 89.5852 195.461 89.1875C195.09 88.786 194.904 88.2841 194.904 87.6818C194.904 87.1894 195.043 86.7538 195.319 86.375C195.599 85.9962 195.98 85.6989 196.461 85.483C196.946 85.267 197.495 85.1591 198.109 85.1591C198.972 85.1591 199.65 85.3485 200.143 85.7273C200.639 86.1061 200.991 86.6061 201.2 87.2273ZM208.845 94.2045C208.292 94.2045 207.791 94.1004 207.34 93.892C206.889 93.6799 206.531 93.375 206.266 92.9773C206.001 92.5758 205.868 92.0909 205.868 91.5227C205.868 91.0227 205.967 90.6174 206.164 90.3068C206.361 89.9924 206.624 89.7462 206.953 89.5682C207.283 89.3902 207.647 89.2576 208.044 89.1705C208.446 89.0795 208.849 89.0076 209.255 88.9545C209.785 88.8864 210.215 88.8352 210.544 88.8011C210.878 88.7633 211.12 88.7008 211.272 88.6136C211.427 88.5265 211.505 88.375 211.505 88.1591V88.1136C211.505 87.553 211.351 87.1174 211.044 86.8068C210.741 86.4962 210.281 86.3409 209.664 86.3409C209.023 86.3409 208.522 86.4811 208.158 86.7614C207.794 87.0417 207.539 87.3409 207.391 87.6591L206.118 87.2045C206.345 86.6742 206.648 86.2614 207.027 85.9659C207.41 85.6667 207.827 85.4583 208.277 85.3409C208.732 85.2197 209.179 85.1591 209.618 85.1591C209.898 85.1591 210.22 85.1932 210.584 85.2614C210.952 85.3258 211.306 85.4602 211.647 85.6648C211.991 85.8693 212.277 86.178 212.505 86.5909C212.732 87.0038 212.845 87.5568 212.845 88.25V94H211.505V92.8182H211.436C211.345 93.0076 211.194 93.2102 210.982 93.4261C210.77 93.642 210.488 93.8258 210.135 93.9773C209.783 94.1288 209.353 94.2045 208.845 94.2045ZM209.05 93C209.58 93 210.027 92.8958 210.391 92.6875C210.758 92.4792 211.035 92.2102 211.22 91.8807C211.41 91.5511 211.505 91.2045 211.505 90.8409V89.6136C211.448 89.6818 211.323 89.7443 211.13 89.8011C210.94 89.8542 210.72 89.9015 210.47 89.9432C210.224 89.9811 209.984 90.0152 209.749 90.0455C209.518 90.072 209.33 90.0947 209.186 90.1136C208.838 90.1591 208.512 90.233 208.209 90.3352C207.91 90.4337 207.667 90.5833 207.482 90.7841C207.3 90.9811 207.209 91.25 207.209 91.5909C207.209 92.0568 207.381 92.4091 207.726 92.6477C208.075 92.8826 208.516 93 209.05 93ZM215.834 88.75V94H214.493V85.2727H215.788V86.6364H215.902C216.107 86.1932 216.417 85.8371 216.834 85.5682C217.25 85.2955 217.788 85.1591 218.447 85.1591C219.038 85.1591 219.555 85.2803 219.999 85.5227C220.442 85.7614 220.786 86.125 221.033 86.6136C221.279 87.0985 221.402 87.7121 221.402 88.4545V94H220.061V88.5455C220.061 87.8598 219.883 87.3258 219.527 86.9432C219.171 86.5568 218.682 86.3636 218.061 86.3636C217.633 86.3636 217.25 86.4564 216.913 86.642C216.58 86.8277 216.317 87.0985 216.124 87.4545C215.93 87.8106 215.834 88.2424 215.834 88.75ZM226.348 94.1818C225.62 94.1818 224.978 93.9981 224.422 93.6307C223.865 93.2595 223.429 92.7367 223.115 92.0625C222.8 91.3845 222.643 90.5833 222.643 89.6591C222.643 88.7424 222.8 87.947 223.115 87.2727C223.429 86.5985 223.867 86.0777 224.427 85.7102C224.988 85.3428 225.636 85.1591 226.37 85.1591C226.939 85.1591 227.387 85.2538 227.717 85.4432C228.05 85.6288 228.304 85.8409 228.478 86.0795C228.656 86.3144 228.795 86.5076 228.893 86.6591H229.007V82.3636H230.348V94H229.052V92.6591H228.893C228.795 92.8182 228.655 93.0189 228.473 93.2614C228.291 93.5 228.031 93.714 227.694 93.9034C227.357 94.089 226.908 94.1818 226.348 94.1818ZM226.53 92.9773C227.067 92.9773 227.522 92.8371 227.893 92.5568C228.264 92.2727 228.547 91.8807 228.74 91.3807C228.933 90.8769 229.03 90.2955 229.03 89.6364C229.03 88.9848 228.935 88.4148 228.745 87.9261C228.556 87.4337 228.276 87.0511 227.905 86.7784C227.533 86.5019 227.075 86.3636 226.53 86.3636C225.961 86.3636 225.488 86.5095 225.109 86.8011C224.734 87.089 224.452 87.4811 224.262 87.9773C224.077 88.4697 223.984 89.0227 223.984 89.6364C223.984 90.2576 224.079 90.822 224.268 91.3295C224.461 91.8333 224.745 92.2348 225.12 92.5341C225.499 92.8295 225.969 92.9773 226.53 92.9773ZM241.39 90.4318V85.2727H242.731V94H241.39V92.5227H241.299C241.094 92.9659 240.776 93.3428 240.344 93.6534C239.913 93.9602 239.367 94.1136 238.708 94.1136C238.163 94.1136 237.678 93.9943 237.253 93.7557C236.829 93.5133 236.496 93.1496 236.253 92.6648C236.011 92.1761 235.89 91.5606 235.89 90.8182V85.2727H237.231V90.7273C237.231 91.3636 237.409 91.8712 237.765 92.25C238.125 92.6288 238.583 92.8182 239.14 92.8182C239.473 92.8182 239.812 92.733 240.157 92.5625C240.505 92.392 240.797 92.1307 241.032 91.7784C241.27 91.4261 241.39 90.9773 241.39 90.4318ZM244.387 97.2727V85.2727H245.682V86.6591H245.841C245.94 86.5076 246.076 86.3144 246.25 86.0795C246.428 85.8409 246.682 85.6288 247.012 85.4432C247.345 85.2538 247.796 85.1591 248.364 85.1591C249.099 85.1591 249.746 85.3428 250.307 85.7102C250.868 86.0777 251.305 86.5985 251.62 87.2727C251.934 87.947 252.091 88.7424 252.091 89.6591C252.091 90.5833 251.934 91.3845 251.62 92.0625C251.305 92.7367 250.87 93.2595 250.313 93.6307C249.756 93.9981 249.114 94.1818 248.387 94.1818C247.826 94.1818 247.377 94.089 247.04 93.9034C246.703 93.714 246.443 93.5 246.262 93.2614C246.08 93.0189 245.94 92.8182 245.841 92.6591H245.728V97.2727H244.387ZM245.705 89.6364C245.705 90.2955 245.801 90.8769 245.995 91.3807C246.188 91.8807 246.47 92.2727 246.841 92.5568C247.212 92.8371 247.667 92.9773 248.205 92.9773C248.765 92.9773 249.233 92.8295 249.608 92.5341C249.987 92.2348 250.271 91.8333 250.461 91.3295C250.654 90.822 250.75 90.2576 250.75 89.6364C250.75 89.0227 250.656 88.4697 250.466 87.9773C250.281 87.4811 249.998 87.089 249.62 86.8011C249.245 86.5095 248.773 86.3636 248.205 86.3636C247.659 86.3636 247.201 86.5019 246.83 86.7784C246.459 87.0511 246.178 87.4337 245.989 87.9261C245.8 88.4148 245.705 88.9848 245.705 89.6364ZM256.632 94.1818C255.905 94.1818 255.263 93.9981 254.706 93.6307C254.149 93.2595 253.714 92.7367 253.399 92.0625C253.085 91.3845 252.928 90.5833 252.928 89.6591C252.928 88.7424 253.085 87.947 253.399 87.2727C253.714 86.5985 254.151 86.0777 254.712 85.7102C255.272 85.3428 255.92 85.1591 256.655 85.1591C257.223 85.1591 257.672 85.2538 258.001 85.4432C258.335 85.6288 258.589 85.8409 258.763 86.0795C258.941 86.3144 259.079 86.5076 259.178 86.6591H259.291V82.3636H260.632V94H259.337V92.6591H259.178C259.079 92.8182 258.939 93.0189 258.757 93.2614C258.575 93.5 258.316 93.714 257.979 93.9034C257.642 94.089 257.193 94.1818 256.632 94.1818ZM256.814 92.9773C257.352 92.9773 257.806 92.8371 258.178 92.5568C258.549 92.2727 258.831 91.8807 259.024 91.3807C259.217 90.8769 259.314 90.2955 259.314 89.6364C259.314 88.9848 259.219 88.4148 259.03 87.9261C258.84 87.4337 258.56 87.0511 258.189 86.7784C257.818 86.5019 257.359 86.3636 256.814 86.3636C256.246 86.3636 255.772 86.5095 255.393 86.8011C255.018 87.089 254.736 87.4811 254.547 87.9773C254.361 88.4697 254.268 89.0227 254.268 89.6364C254.268 90.2576 254.363 90.822 254.553 91.3295C254.746 91.8333 255.03 92.2348 255.405 92.5341C255.784 92.8295 256.253 92.9773 256.814 92.9773ZM265.042 94.2045C264.489 94.2045 263.987 94.1004 263.537 93.892C263.086 93.6799 262.728 93.375 262.463 92.9773C262.198 92.5758 262.065 92.0909 262.065 91.5227C262.065 91.0227 262.164 90.6174 262.361 90.3068C262.557 89.9924 262.821 89.7462 263.15 89.5682C263.48 89.3902 263.843 89.2576 264.241 89.1705C264.643 89.0795 265.046 89.0076 265.451 88.9545C265.982 88.8864 266.412 88.8352 266.741 88.8011C267.075 88.7633 267.317 88.7008 267.468 88.6136C267.624 88.5265 267.701 88.375 267.701 88.1591V88.1136C267.701 87.553 267.548 87.1174 267.241 86.8068C266.938 86.4962 266.478 86.3409 265.861 86.3409C265.22 86.3409 264.718 86.4811 264.355 86.7614C263.991 87.0417 263.736 87.3409 263.588 87.6591L262.315 87.2045C262.542 86.6742 262.845 86.2614 263.224 85.9659C263.607 85.6667 264.023 85.4583 264.474 85.3409C264.929 85.2197 265.376 85.1591 265.815 85.1591C266.095 85.1591 266.417 85.1932 266.781 85.2614C267.148 85.3258 267.503 85.4602 267.843 85.6648C268.188 85.8693 268.474 86.178 268.701 86.5909C268.929 87.0038 269.042 87.5568 269.042 88.25V94H267.701V92.8182H267.633C267.542 93.0076 267.391 93.2102 267.179 93.4261C266.967 93.642 266.684 93.8258 266.332 93.9773C265.98 94.1288 265.55 94.2045 265.042 94.2045ZM265.247 93C265.777 93 266.224 92.8958 266.588 92.6875C266.955 92.4792 267.232 92.2102 267.417 91.8807C267.607 91.5511 267.701 91.2045 267.701 90.8409V89.6136C267.645 89.6818 267.52 89.7443 267.326 89.8011C267.137 89.8542 266.917 89.9015 266.667 89.9432C266.421 89.9811 266.181 90.0152 265.946 90.0455C265.715 90.072 265.527 90.0947 265.383 90.1136C265.035 90.1591 264.709 90.233 264.406 90.3352C264.107 90.4337 263.864 90.5833 263.679 90.7841C263.497 90.9811 263.406 91.25 263.406 91.5909C263.406 92.0568 263.578 92.4091 263.923 92.6477C264.271 92.8826 264.713 93 265.247 93ZM274.485 85.2727V86.4091H269.962V85.2727H274.485ZM271.281 83.1818H272.622V91.5C272.622 91.8788 272.677 92.1629 272.786 92.3523C272.9 92.5379 273.044 92.6629 273.218 92.7273C273.396 92.7879 273.584 92.8182 273.781 92.8182C273.928 92.8182 274.05 92.8106 274.144 92.7955C274.239 92.7765 274.315 92.7614 274.372 92.75L274.644 93.9545C274.553 93.9886 274.427 94.0227 274.264 94.0568C274.101 94.0947 273.894 94.1136 273.644 94.1136C273.266 94.1136 272.894 94.0322 272.531 93.8693C272.171 93.7064 271.872 93.4583 271.633 93.125C271.398 92.7917 271.281 92.3712 271.281 91.8636V83.1818ZM279.268 94.1818C278.427 94.1818 277.701 93.9962 277.091 93.625C276.485 93.25 276.018 92.7273 275.688 92.0568C275.362 91.3826 275.199 90.5985 275.199 89.7045C275.199 88.8106 275.362 88.0227 275.688 87.3409C276.018 86.6553 276.476 86.1212 277.063 85.7386C277.654 85.3523 278.343 85.1591 279.131 85.1591C279.586 85.1591 280.035 85.2348 280.478 85.3864C280.921 85.5379 281.324 85.7841 281.688 86.125C282.052 86.4621 282.341 86.9091 282.557 87.4659C282.773 88.0227 282.881 88.7083 282.881 89.5227V90.0909H276.154V88.9318H281.518C281.518 88.4394 281.419 88 281.222 87.6136C281.029 87.2273 280.752 86.9223 280.393 86.6989C280.037 86.4754 279.616 86.3636 279.131 86.3636C278.597 86.3636 278.135 86.4962 277.745 86.7614C277.359 87.0227 277.061 87.3636 276.853 87.7841C276.645 88.2045 276.54 88.6553 276.54 89.1364V89.9091C276.54 90.5682 276.654 91.1269 276.881 91.5852C277.112 92.0398 277.432 92.3864 277.841 92.625C278.251 92.8598 278.726 92.9773 279.268 92.9773C279.62 92.9773 279.938 92.928 280.222 92.8295C280.51 92.7273 280.758 92.5758 280.966 92.375C281.175 92.1705 281.336 91.9167 281.449 91.6136L282.745 91.9773C282.609 92.4167 282.379 92.803 282.057 93.1364C281.735 93.4659 281.338 93.7235 280.864 93.9091C280.391 94.0909 279.859 94.1818 279.268 94.1818ZM287.821 94V85.2727H289.116V86.5909H289.207C289.366 86.1591 289.654 85.8087 290.071 85.5398C290.488 85.2708 290.957 85.1364 291.48 85.1364C291.579 85.1364 291.702 85.1383 291.849 85.142C291.997 85.1458 292.109 85.1515 292.185 85.1591V86.5227C292.139 86.5114 292.035 86.4943 291.872 86.4716C291.713 86.4451 291.545 86.4318 291.366 86.4318C290.942 86.4318 290.563 86.5208 290.23 86.6989C289.901 86.8731 289.639 87.1155 289.446 87.4261C289.257 87.733 289.162 88.0833 289.162 88.4773V94H287.821ZM292.974 94V85.2727H294.315V94H292.974ZM293.656 83.8182C293.395 83.8182 293.169 83.7292 292.98 83.5511C292.794 83.3731 292.701 83.1591 292.701 82.9091C292.701 82.6591 292.794 82.4451 292.98 82.267C293.169 82.089 293.395 82 293.656 82C293.917 82 294.141 82.089 294.326 82.267C294.516 82.4451 294.611 82.6591 294.611 82.9091C294.611 83.1591 294.516 83.3731 294.326 83.5511C294.141 83.7292 293.917 83.8182 293.656 83.8182ZM299.494 97.4545C298.846 97.4545 298.289 97.3712 297.823 97.2045C297.357 97.0417 296.969 96.8258 296.659 96.5568C296.352 96.2917 296.107 96.0076 295.926 95.7045L296.994 94.9545C297.115 95.1136 297.268 95.2955 297.454 95.5C297.64 95.7083 297.893 95.8883 298.215 96.0398C298.541 96.1951 298.967 96.2727 299.494 96.2727C300.198 96.2727 300.78 96.1023 301.238 95.7614C301.696 95.4205 301.926 94.8864 301.926 94.1591V92.3864H301.812C301.713 92.5455 301.573 92.7424 301.391 92.9773C301.213 93.2083 300.956 93.4148 300.619 93.5966C300.285 93.7746 299.835 93.8636 299.266 93.8636C298.562 93.8636 297.929 93.697 297.369 93.3636C296.812 93.0303 296.371 92.5455 296.045 91.9091C295.723 91.2727 295.562 90.5 295.562 89.5909C295.562 88.697 295.719 87.9186 296.034 87.2557C296.348 86.589 296.785 86.0739 297.346 85.7102C297.907 85.3428 298.554 85.1591 299.289 85.1591C299.857 85.1591 300.308 85.2538 300.641 85.4432C300.979 85.6288 301.236 85.8409 301.414 86.0795C301.596 86.3144 301.736 86.5076 301.835 86.6591H301.971V85.2727H303.266V94.25C303.266 95 303.096 95.6098 302.755 96.0795C302.418 96.553 301.963 96.8996 301.391 97.1193C300.823 97.3428 300.191 97.4545 299.494 97.4545ZM299.448 92.6591C299.986 92.6591 300.441 92.536 300.812 92.2898C301.183 92.0436 301.465 91.6894 301.659 91.2273C301.852 90.7652 301.948 90.2121 301.948 89.5682C301.948 88.9394 301.854 88.3845 301.664 87.9034C301.475 87.4223 301.195 87.0455 300.823 86.7727C300.452 86.5 299.994 86.3636 299.448 86.3636C298.88 86.3636 298.407 86.5076 298.028 86.7955C297.653 87.0833 297.371 87.4697 297.181 87.9545C296.996 88.4394 296.903 88.9773 296.903 89.5682C296.903 90.1742 296.998 90.7102 297.187 91.1761C297.38 91.6383 297.664 92.0019 298.039 92.267C298.418 92.5284 298.888 92.6591 299.448 92.6591ZM306.262 88.75V94H304.921V82.3636H306.262V86.6364H306.376C306.58 86.1856 306.887 85.8277 307.296 85.5625C307.709 85.2936 308.258 85.1591 308.944 85.1591C309.538 85.1591 310.059 85.2784 310.506 85.517C310.953 85.7519 311.3 86.1136 311.546 86.6023C311.796 87.0871 311.921 87.7045 311.921 88.4545V94H310.58V88.5455C310.58 87.8523 310.4 87.3163 310.04 86.9375C309.684 86.5549 309.19 86.3636 308.557 86.3636C308.118 86.3636 307.724 86.4564 307.376 86.642C307.031 86.8277 306.758 87.0985 306.557 87.4545C306.36 87.8106 306.262 88.2424 306.262 88.75ZM317.37 85.2727V86.4091H312.847V85.2727H317.37ZM314.165 83.1818H315.506V91.5C315.506 91.8788 315.561 92.1629 315.671 92.3523C315.784 92.5379 315.928 92.6629 316.103 92.7273C316.281 92.7879 316.468 92.8182 316.665 92.8182C316.813 92.8182 316.934 92.8106 317.029 92.7955C317.123 92.7765 317.199 92.7614 317.256 92.75L317.529 93.9545C317.438 93.9886 317.311 94.0227 317.148 94.0568C316.985 94.0947 316.779 94.1136 316.529 94.1136C316.15 94.1136 315.779 94.0322 315.415 93.8693C315.055 93.7064 314.756 93.4583 314.517 93.125C314.282 92.7917 314.165 92.3712 314.165 91.8636V83.1818ZM322.287 94V85.2727H323.628V94H322.287ZM322.968 83.8182C322.707 83.8182 322.482 83.7292 322.292 83.5511C322.107 83.3731 322.014 83.1591 322.014 82.9091C322.014 82.6591 322.107 82.4451 322.292 82.267C322.482 82.089 322.707 82 322.968 82C323.23 82 323.453 82.089 323.639 82.267C323.828 82.4451 323.923 82.6591 323.923 82.9091C323.923 83.1591 323.828 83.3731 323.639 83.5511C323.453 83.7292 323.23 83.8182 322.968 83.8182ZM326.624 88.75V94H325.284V85.2727H326.579V86.6364H326.693C326.897 86.1932 327.208 85.8371 327.624 85.5682C328.041 85.2955 328.579 85.1591 329.238 85.1591C329.829 85.1591 330.346 85.2803 330.789 85.5227C331.232 85.7614 331.577 86.125 331.823 86.6136C332.07 87.0985 332.193 87.7121 332.193 88.4545V94H330.852V88.5455C330.852 87.8598 330.674 87.3258 330.318 86.9432C329.962 86.5568 329.473 86.3636 328.852 86.3636C328.424 86.3636 328.041 86.4564 327.704 86.642C327.371 86.8277 327.107 87.0985 326.914 87.4545C326.721 87.8106 326.624 88.2424 326.624 88.75ZM338.407 97.2727C338.179 97.2727 337.977 97.2538 337.799 97.2159C337.621 97.1818 337.497 97.1477 337.429 97.1136L337.77 95.9318C338.096 96.0152 338.384 96.0455 338.634 96.0227C338.884 96 339.105 95.8883 339.299 95.6875C339.496 95.4905 339.675 95.1705 339.838 94.7273L340.088 94.0455L336.861 85.2727H338.316L340.725 92.2273H340.816L343.225 85.2727H344.679L340.975 95.2727C340.808 95.7235 340.602 96.0966 340.355 96.392C340.109 96.6913 339.823 96.9129 339.497 97.0568C339.175 97.2008 338.812 97.2727 338.407 97.2727ZM348.882 94.1818C348.094 94.1818 347.403 93.9943 346.808 93.6193C346.217 93.2443 345.755 92.7197 345.422 92.0455C345.092 91.3712 344.928 90.5833 344.928 89.6818C344.928 88.7727 345.092 87.9792 345.422 87.3011C345.755 86.6231 346.217 86.0966 346.808 85.7216C347.403 85.3466 348.094 85.1591 348.882 85.1591C349.67 85.1591 350.359 85.3466 350.95 85.7216C351.545 86.0966 352.007 86.6231 352.337 87.3011C352.67 87.9792 352.837 88.7727 352.837 89.6818C352.837 90.5833 352.67 91.3712 352.337 92.0455C352.007 92.7197 351.545 93.2443 350.95 93.6193C350.359 93.9943 349.67 94.1818 348.882 94.1818ZM348.882 92.9773C349.481 92.9773 349.973 92.8239 350.359 92.517C350.746 92.2102 351.032 91.8068 351.217 91.3068C351.403 90.8068 351.496 90.2652 351.496 89.6818C351.496 89.0985 351.403 88.5549 351.217 88.0511C351.032 87.5473 350.746 87.1402 350.359 86.8295C349.973 86.5189 349.481 86.3636 348.882 86.3636C348.284 86.3636 347.791 86.5189 347.405 86.8295C347.018 87.1402 346.732 87.5473 346.547 88.0511C346.361 88.5549 346.268 89.0985 346.268 89.6818C346.268 90.2652 346.361 90.8068 346.547 91.3068C346.732 91.8068 347.018 92.2102 347.405 92.517C347.791 92.8239 348.284 92.9773 348.882 92.9773ZM359.584 90.4318V85.2727H360.924V94H359.584V92.5227H359.493C359.288 92.9659 358.97 93.3428 358.538 93.6534C358.106 93.9602 357.561 94.1136 356.902 94.1136C356.356 94.1136 355.871 93.9943 355.447 93.7557C355.023 93.5133 354.69 93.1496 354.447 92.6648C354.205 92.1761 354.084 91.5606 354.084 90.8182V85.2727H355.424V90.7273C355.424 91.3636 355.602 91.8712 355.959 92.25C356.318 92.6288 356.777 92.8182 357.334 92.8182C357.667 92.8182 358.006 92.733 358.351 92.5625C358.699 92.392 358.991 92.1307 359.226 91.7784C359.464 91.4261 359.584 90.9773 359.584 90.4318ZM362.58 94V85.2727H363.876V86.5909H363.967C364.126 86.1591 364.414 85.8087 364.83 85.5398C365.247 85.2708 365.717 85.1364 366.239 85.1364C366.338 85.1364 366.461 85.1383 366.609 85.142C366.757 85.1458 366.868 85.1515 366.944 85.1591V86.5227C366.899 86.5114 366.794 86.4943 366.632 86.4716C366.472 86.4451 366.304 86.4318 366.126 86.4318C365.702 86.4318 365.323 86.5208 364.989 86.6989C364.66 86.8731 364.399 87.1155 364.205 87.4261C364.016 87.733 363.921 88.0833 363.921 88.4773V94H362.58ZM371.434 94V85.2727H372.774V94H371.434ZM372.115 83.8182C371.854 83.8182 371.629 83.7292 371.439 83.5511C371.254 83.3731 371.161 83.1591 371.161 82.9091C371.161 82.6591 371.254 82.4451 371.439 82.267C371.629 82.089 371.854 82 372.115 82C372.377 82 372.6 82.089 372.786 82.267C372.975 82.4451 373.07 82.6591 373.07 82.9091C373.07 83.1591 372.975 83.3731 372.786 83.5511C372.6 83.7292 372.377 83.8182 372.115 83.8182ZM375.771 88.75V94H374.43V85.2727H375.726V86.6364H375.839C376.044 86.1932 376.355 85.8371 376.771 85.5682C377.188 85.2955 377.726 85.1591 378.385 85.1591C378.976 85.1591 379.493 85.2803 379.936 85.5227C380.379 85.7614 380.724 86.125 380.97 86.6136C381.216 87.0985 381.339 87.7121 381.339 88.4545V94H379.999V88.5455C379.999 87.8598 379.821 87.3258 379.464 86.9432C379.108 86.5568 378.62 86.3636 377.999 86.3636C377.571 86.3636 377.188 86.4564 376.851 86.642C376.518 86.8277 376.254 87.0985 376.061 87.4545C375.868 87.8106 375.771 88.2424 375.771 88.75ZM383.172 94V82.3636H384.513V86.6591H384.626C384.725 86.5076 384.861 86.3144 385.035 86.0795C385.213 85.8409 385.467 85.6288 385.797 85.4432C386.13 85.2538 386.581 85.1591 387.149 85.1591C387.884 85.1591 388.531 85.3428 389.092 85.7102C389.653 86.0777 390.09 86.5985 390.405 87.2727C390.719 87.947 390.876 88.7424 390.876 89.6591C390.876 90.5833 390.719 91.3845 390.405 92.0625C390.09 92.7367 389.655 93.2595 389.098 93.6307C388.541 93.9981 387.899 94.1818 387.172 94.1818C386.611 94.1818 386.162 94.089 385.825 93.9034C385.488 93.714 385.228 93.5 385.047 93.2614C384.865 93.0189 384.725 92.8182 384.626 92.6591H384.467V94H383.172ZM384.49 89.6364C384.49 90.2955 384.586 90.8769 384.78 91.3807C384.973 91.8807 385.255 92.2727 385.626 92.5568C385.997 92.8371 386.452 92.9773 386.99 92.9773C387.55 92.9773 388.018 92.8295 388.393 92.5341C388.772 92.2348 389.056 91.8333 389.245 91.3295C389.439 90.822 389.535 90.2576 389.535 89.6364C389.535 89.0227 389.441 88.4697 389.251 87.9773C389.066 87.4811 388.783 87.089 388.405 86.8011C388.03 86.5095 387.558 86.3636 386.99 86.3636C386.444 86.3636 385.986 86.5019 385.615 86.7784C385.244 87.0511 384.963 87.4337 384.774 87.9261C384.584 88.4148 384.49 88.9848 384.49 89.6364ZM395.673 94.1818C394.885 94.1818 394.194 93.9943 393.599 93.6193C393.008 93.2443 392.546 92.7197 392.212 92.0455C391.883 91.3712 391.718 90.5833 391.718 89.6818C391.718 88.7727 391.883 87.9792 392.212 87.3011C392.546 86.6231 393.008 86.0966 393.599 85.7216C394.194 85.3466 394.885 85.1591 395.673 85.1591C396.461 85.1591 397.15 85.3466 397.741 85.7216C398.336 86.0966 398.798 86.6231 399.127 87.3011C399.461 87.9792 399.627 88.7727 399.627 89.6818C399.627 90.5833 399.461 91.3712 399.127 92.0455C398.798 92.7197 398.336 93.2443 397.741 93.6193C397.15 93.9943 396.461 94.1818 395.673 94.1818ZM395.673 92.9773C396.271 92.9773 396.764 92.8239 397.15 92.517C397.536 92.2102 397.822 91.8068 398.008 91.3068C398.194 90.8068 398.286 90.2652 398.286 89.6818C398.286 89.0985 398.194 88.5549 398.008 88.0511C397.822 87.5473 397.536 87.1402 397.15 86.8295C396.764 86.5189 396.271 86.3636 395.673 86.3636C395.074 86.3636 394.582 86.5189 394.195 86.8295C393.809 87.1402 393.523 87.5473 393.337 88.0511C393.152 88.5549 393.059 89.0985 393.059 89.6818C393.059 90.2652 393.152 90.8068 393.337 91.3068C393.523 91.8068 393.809 92.2102 394.195 92.517C394.582 92.8239 395.074 92.9773 395.673 92.9773ZM401.515 85.2727L403.606 88.8409L405.697 85.2727H407.242L404.424 89.6364L407.242 94H405.697L403.606 90.6136L401.515 94H399.969L402.742 89.6364L399.969 85.2727H401.515ZM409.333 94.0909C409.052 94.0909 408.812 93.9905 408.611 93.7898C408.41 93.589 408.31 93.3485 408.31 93.0682C408.31 92.7879 408.41 92.5473 408.611 92.3466C408.812 92.1458 409.052 92.0455 409.333 92.0455C409.613 92.0455 409.853 92.1458 410.054 92.3466C410.255 92.5473 410.355 92.7879 410.355 93.0682C410.355 93.2538 410.308 93.4242 410.213 93.5795C410.122 93.7348 409.999 93.8598 409.844 93.9545C409.693 94.0455 409.522 94.0909 409.333 94.0909Z" fill="#303030"/>
<path d="M51.4558 45.3438C51.3763 44.5994 51.041 44.0199 50.4501 43.6051C49.8649 43.1903 49.1036 42.983 48.1661 42.983C47.507 42.983 46.9416 43.0824 46.47 43.2812C45.9984 43.4801 45.6376 43.75 45.3876 44.0909C45.1376 44.4318 45.0098 44.821 45.0041 45.2585C45.0041 45.6222 45.0865 45.9375 45.2513 46.2045C45.4217 46.4716 45.6518 46.6989 45.9416 46.8864C46.2314 47.0682 46.5524 47.2216 46.9047 47.3466C47.257 47.4716 47.6121 47.5767 47.97 47.6619L49.6064 48.071C50.2655 48.2244 50.899 48.4318 51.507 48.6932C52.1206 48.9545 52.6689 49.2841 53.1518 49.6818C53.6405 50.0795 54.0268 50.5597 54.3109 51.1222C54.595 51.6847 54.7371 52.3437 54.7371 53.0994C54.7371 54.1222 54.4757 55.0227 53.953 55.8011C53.4303 56.5739 52.6746 57.179 51.6859 57.6165C50.703 58.0483 49.5126 58.2642 48.1149 58.2642C46.757 58.2642 45.578 58.054 44.578 57.6335C43.5837 57.2131 42.8053 56.5994 42.2428 55.7926C41.6859 54.9858 41.3848 54.0028 41.3393 52.8438H44.4501C44.4956 53.4517 44.6831 53.9574 45.0126 54.3608C45.3422 54.7642 45.7712 55.0653 46.2996 55.2642C46.8337 55.4631 47.4303 55.5625 48.0893 55.5625C48.7768 55.5625 49.3791 55.4602 49.8962 55.2557C50.4189 55.0455 50.828 54.7557 51.1234 54.3864C51.4189 54.0114 51.5695 53.5739 51.5751 53.0739C51.5695 52.6193 51.4359 52.2443 51.1746 51.9489C50.9132 51.6477 50.5467 51.3977 50.0751 51.1989C49.6092 50.9943 49.0638 50.8125 48.4388 50.6534L46.453 50.142C45.0155 49.7727 43.8791 49.2131 43.0439 48.4631C42.2143 47.7074 41.7996 46.7045 41.7996 45.4545C41.7996 44.4261 42.078 43.5256 42.6348 42.7528C43.1973 41.9801 43.9615 41.3807 44.9274 40.9545C45.8933 40.5227 46.9871 40.3068 48.2087 40.3068C49.4473 40.3068 50.5325 40.5227 51.4643 40.9545C52.4018 41.3807 53.1376 41.9744 53.6717 42.7358C54.2058 43.4915 54.4814 44.3608 54.4984 45.3438H51.4558ZM64.5634 52.4943V44.9091H67.6486V58H64.6571V55.6733H64.5207C64.2253 56.4062 63.7395 57.0057 63.0634 57.4716C62.3929 57.9375 61.5662 58.1705 60.5832 58.1705C59.7253 58.1705 58.9668 57.9801 58.3077 57.5994C57.6543 57.2131 57.1429 56.6534 56.7736 55.9205C56.4043 55.1818 56.2196 54.2898 56.2196 53.2443V44.9091H59.3048V52.767C59.3048 53.5966 59.5321 54.2557 59.9866 54.7443C60.4412 55.233 61.0378 55.4773 61.7764 55.4773C62.231 55.4773 62.6713 55.3665 63.0974 55.1449C63.5236 54.9233 63.873 54.5938 64.1457 54.1562C64.4241 53.7131 64.5634 53.1591 64.5634 52.4943ZM69.7575 58V40.5455H72.8428V47.0739H72.9706C73.1297 46.7557 73.3541 46.4176 73.6439 46.0597C73.9337 45.696 74.3257 45.3864 74.82 45.1307C75.3143 44.8693 75.945 44.7386 76.7121 44.7386C77.7234 44.7386 78.6354 44.9972 79.4479 45.5142C80.2661 46.0256 80.9138 46.7841 81.391 47.7898C81.874 48.7898 82.1155 50.017 82.1155 51.4716C82.1155 52.9091 81.8797 54.1307 81.4081 55.1364C80.9365 56.142 80.2945 56.9091 79.482 57.4375C78.6695 57.9659 77.749 58.2301 76.7206 58.2301C75.9706 58.2301 75.3484 58.1051 74.8541 57.8551C74.3598 57.6051 73.9621 57.304 73.6609 56.9517C73.3655 56.5937 73.1354 56.2557 72.9706 55.9375H72.7916V58H69.7575ZM72.7831 51.4545C72.7831 52.3011 72.9024 53.0426 73.1411 53.679C73.3854 54.3153 73.7348 54.8125 74.1893 55.1705C74.6496 55.5227 75.2064 55.6989 75.8598 55.6989C76.5416 55.6989 77.1126 55.517 77.5729 55.1534C78.0331 54.7841 78.3797 54.2812 78.6126 53.6449C78.8513 53.0028 78.9706 52.2727 78.9706 51.4545C78.9706 50.642 78.8541 49.9205 78.6212 49.2898C78.3882 48.6591 78.0416 48.1648 77.5814 47.8068C77.1212 47.4489 76.5473 47.2699 75.8598 47.2699C75.2007 47.2699 74.6411 47.4432 74.1808 47.7898C73.7206 48.1364 73.3712 48.6222 73.1325 49.2472C72.8996 49.8722 72.7831 50.608 72.7831 51.4545ZM93.8849 48.3693L91.0724 48.6761C90.9929 48.392 90.8537 48.125 90.6548 47.875C90.4616 47.625 90.2003 47.4233 89.8707 47.2699C89.5412 47.1165 89.1378 47.0398 88.6605 47.0398C88.0185 47.0398 87.4787 47.179 87.0412 47.4574C86.6094 47.7358 86.3963 48.0966 86.402 48.5398C86.3963 48.9205 86.5355 49.2301 86.8196 49.4688C87.1094 49.7074 87.5866 49.9034 88.2514 50.0568L90.4844 50.5341C91.723 50.8011 92.6435 51.2244 93.2457 51.804C93.8537 52.3835 94.1605 53.142 94.1662 54.0795C94.1605 54.9034 93.919 55.6307 93.4418 56.2614C92.9702 56.8864 92.3139 57.375 91.473 57.7273C90.6321 58.0795 89.6662 58.2557 88.5753 58.2557C86.973 58.2557 85.6832 57.9205 84.706 57.25C83.7287 56.5739 83.1463 55.6335 82.9588 54.429L85.9673 54.1392C86.1037 54.7301 86.3935 55.1761 86.8366 55.4773C87.2798 55.7784 87.8565 55.929 88.5668 55.929C89.2997 55.929 89.8878 55.7784 90.331 55.4773C90.7798 55.1761 91.0043 54.804 91.0043 54.3608C91.0043 53.9858 90.8594 53.6761 90.5696 53.4318C90.2855 53.1875 89.8423 53 89.2401 52.8693L87.0071 52.4006C85.7514 52.1392 84.8224 51.6989 84.2202 51.0795C83.6179 50.4545 83.3196 49.6648 83.3253 48.7102C83.3196 47.9034 83.5384 47.2045 83.9815 46.6136C84.4304 46.017 85.0526 45.5568 85.848 45.233C86.6491 44.9034 87.5724 44.7386 88.6179 44.7386C90.152 44.7386 91.3594 45.0653 92.2401 45.7188C93.1264 46.3722 93.6747 47.2557 93.8849 48.3693ZM101.22 58.2557C99.9136 58.2557 98.7915 57.9688 97.854 57.3949C96.9222 56.821 96.2034 56.0284 95.6977 55.017C95.1977 54 94.9477 52.8295 94.9477 51.5057C94.9477 50.1761 95.2034 49.0028 95.7148 47.9858C96.2261 46.9631 96.9477 46.1676 97.8795 45.5994C98.817 45.0256 99.925 44.7386 101.203 44.7386C102.266 44.7386 103.206 44.9347 104.024 45.3267C104.848 45.7131 105.505 46.2614 105.993 46.9716C106.482 47.6761 106.76 48.5 106.828 49.4432H103.88C103.76 48.8125 103.476 48.2869 103.027 47.8665C102.584 47.4403 101.99 47.2273 101.246 47.2273C100.615 47.2273 100.061 47.3977 99.5841 47.7386C99.1068 48.0739 98.7347 48.5568 98.4676 49.1875C98.2062 49.8182 98.0756 50.5739 98.0756 51.4545C98.0756 52.3466 98.2062 53.1136 98.4676 53.7557C98.729 54.392 99.0955 54.8835 99.567 55.2301C100.044 55.571 100.604 55.7415 101.246 55.7415C101.701 55.7415 102.107 55.6562 102.465 55.4858C102.828 55.3097 103.132 55.0568 103.377 54.7273C103.621 54.3977 103.789 53.9972 103.88 53.5256H106.828C106.755 54.4517 106.482 55.2727 106.01 55.9886C105.539 56.6989 104.897 57.2557 104.084 57.6591C103.272 58.0568 102.317 58.2557 101.22 58.2557ZM108.162 58V44.9091H111.153V47.0909H111.29C111.528 46.3352 111.937 45.7528 112.517 45.3438C113.102 44.929 113.77 44.7216 114.52 44.7216C114.69 44.7216 114.881 44.7301 115.091 44.7472C115.307 44.7585 115.486 44.7784 115.628 44.8068V47.6449C115.497 47.5994 115.29 47.5597 115.006 47.5256C114.727 47.4858 114.457 47.4659 114.196 47.4659C113.633 47.4659 113.128 47.5881 112.679 47.8324C112.236 48.071 111.886 48.4034 111.631 48.8295C111.375 49.2557 111.247 49.7472 111.247 50.304V58H108.162ZM116.477 58V44.9091H119.563V58H116.477ZM118.029 43.0511C117.54 43.0511 117.119 42.8892 116.767 42.5653C116.415 42.2358 116.239 41.8409 116.239 41.3807C116.239 40.9148 116.415 40.5199 116.767 40.196C117.119 39.8665 117.54 39.7017 118.029 39.7017C118.523 39.7017 118.943 39.8665 119.29 40.196C119.642 40.5199 119.818 40.9148 119.818 41.3807C119.818 41.8409 119.642 42.2358 119.29 42.5653C118.943 42.8892 118.523 43.0511 118.029 43.0511ZM121.535 62.9091V44.9091H124.569V47.0739H124.748C124.907 46.7557 125.132 46.4176 125.422 46.0597C125.711 45.696 126.103 45.3864 126.598 45.1307C127.092 44.8693 127.723 44.7386 128.49 44.7386C129.501 44.7386 130.413 44.9972 131.226 45.5142C132.044 46.0256 132.691 46.7841 133.169 47.7898C133.652 48.7898 133.893 50.017 133.893 51.4716C133.893 52.9091 133.657 54.1307 133.186 55.1364C132.714 56.142 132.072 56.9091 131.26 57.4375C130.447 57.9659 129.527 58.2301 128.498 58.2301C127.748 58.2301 127.126 58.1051 126.632 57.8551C126.137 57.6051 125.74 57.304 125.439 56.9517C125.143 56.5937 124.913 56.2557 124.748 55.9375H124.62V62.9091H121.535ZM124.561 51.4545C124.561 52.3011 124.68 53.0426 124.919 53.679C125.163 54.3153 125.512 54.8125 125.967 55.1705C126.427 55.5227 126.984 55.6989 127.637 55.6989C128.319 55.6989 128.89 55.517 129.351 55.1534C129.811 54.7841 130.157 54.2812 130.39 53.6449C130.629 53.0028 130.748 52.2727 130.748 51.4545C130.748 50.642 130.632 49.9205 130.399 49.2898C130.166 48.6591 129.819 48.1648 129.359 47.8068C128.899 47.4489 128.325 47.2699 127.637 47.2699C126.978 47.2699 126.419 47.4432 125.959 47.7898C125.498 48.1364 125.149 48.6222 124.91 49.2472C124.677 49.8722 124.561 50.608 124.561 51.4545ZM141.872 44.9091V47.2955H134.347V44.9091H141.872ZM136.205 41.7727H139.29V54.0625C139.29 54.4773 139.352 54.7955 139.477 55.017C139.608 55.233 139.778 55.3807 139.989 55.4602C140.199 55.5398 140.432 55.5795 140.688 55.5795C140.881 55.5795 141.057 55.5653 141.216 55.5369C141.381 55.5085 141.506 55.483 141.591 55.4602L142.111 57.8722C141.946 57.929 141.71 57.9915 141.403 58.0597C141.102 58.1278 140.733 58.1676 140.295 58.179C139.523 58.2017 138.827 58.0852 138.207 57.8295C137.588 57.5682 137.097 57.1648 136.733 56.6193C136.375 56.0739 136.199 55.392 136.205 54.5739V41.7727ZM143.252 58V44.9091H146.338V58H143.252ZM144.804 43.0511C144.315 43.0511 143.894 42.8892 143.542 42.5653C143.19 42.2358 143.014 41.8409 143.014 41.3807C143.014 40.9148 143.19 40.5199 143.542 40.196C143.894 39.8665 144.315 39.7017 144.804 39.7017C145.298 39.7017 145.718 39.8665 146.065 40.196C146.417 40.5199 146.593 40.9148 146.593 41.3807C146.593 41.8409 146.417 42.2358 146.065 42.5653C145.718 42.8892 145.298 43.0511 144.804 43.0511ZM154.02 58.2557C152.742 58.2557 151.634 57.9744 150.697 57.4119C149.759 56.8494 149.032 56.0625 148.515 55.0511C148.003 54.0398 147.748 52.858 147.748 51.5057C147.748 50.1534 148.003 48.9687 148.515 47.9517C149.032 46.9347 149.759 46.1449 150.697 45.5824C151.634 45.0199 152.742 44.7386 154.02 44.7386C155.299 44.7386 156.407 45.0199 157.344 45.5824C158.282 46.1449 159.006 46.9347 159.518 47.9517C160.035 48.9687 160.293 50.1534 160.293 51.5057C160.293 52.858 160.035 54.0398 159.518 55.0511C159.006 56.0625 158.282 56.8494 157.344 57.4119C156.407 57.9744 155.299 58.2557 154.02 58.2557ZM154.037 55.7841C154.731 55.7841 155.31 55.5937 155.776 55.2131C156.242 54.8267 156.589 54.3097 156.816 53.6619C157.049 53.0142 157.165 52.2926 157.165 51.4972C157.165 50.696 157.049 49.9716 156.816 49.3239C156.589 48.6705 156.242 48.1506 155.776 47.7642C155.31 47.3778 154.731 47.1847 154.037 47.1847C153.327 47.1847 152.736 47.3778 152.265 47.7642C151.799 48.1506 151.449 48.6705 151.216 49.3239C150.989 49.9716 150.876 50.696 150.876 51.4972C150.876 52.2926 150.989 53.0142 151.216 53.6619C151.449 54.3097 151.799 54.8267 152.265 55.2131C152.736 55.5937 153.327 55.7841 154.037 55.7841ZM164.797 50.3295V58H161.712V44.9091H164.661V47.1335H164.814C165.115 46.4006 165.595 45.8182 166.254 45.3864C166.919 44.9545 167.74 44.7386 168.717 44.7386C169.621 44.7386 170.408 44.9318 171.078 45.3182C171.754 45.7045 172.277 46.2642 172.646 46.9972C173.021 47.7301 173.206 48.6193 173.2 49.6648V58H170.115V50.142C170.115 49.267 169.888 48.5824 169.433 48.0881C168.985 47.5937 168.362 47.3466 167.567 47.3466C167.027 47.3466 166.547 47.4659 166.127 47.7045C165.712 47.9375 165.385 48.2756 165.146 48.7188C164.913 49.1619 164.797 49.6989 164.797 50.3295Z" fill="#567FEF"/>
<rect x="0.5" y="0.5" width="527" height="203" rx="7.5" stroke="white" stroke-opacity="0.1"/>
<defs>
<filter id="filter0_d_64_1457" x="20" y="22" width="488" height="164" filterUnits="userSpaceOnUse" color-interpolation-filters="sRGB">
<feFlood flood-opacity="0" result="BackgroundImageFix"/>
<feColorMatrix in="SourceAlpha" type="matrix" values="0 0 0 0 0 0 0 0 0 0 0 0 0 0 0 0 0 0 127 0" result="hardAlpha"/>
<feOffset dy="2"/>
<feGaussianBlur stdDeviation="2"/>
<feComposite in2="hardAlpha" operator="out"/>
<feColorMatrix type="matrix" values="0 0 0 0 0 0 0 0 0 0 0 0 0 0 0 0 0 0 0.2 0"/>
<feBlend mode="normal" in2="BackgroundImageFix" result="effect1_dropShadow_64_1457"/>
<feBlend mode="normal" in="SourceGraphic" in2="effect1_dropShadow_64_1457" result="shape"/>
</filter>
</defs>
</svg>
