<svg width="408" height="388" viewBox="0 0 408 388" fill="none" xmlns="http://www.w3.org/2000/svg">
<rect width="408" height="388" rx="8" fill="#F0F0F0"/>
<g filter="url(#filter0_d_64_1485)">
<rect x="24" y="24" width="360" height="340" rx="16" fill="#567FEF" fill-opacity="0.1" shape-rendering="crispEdges"/>
</g>
<path d="M41.4091 326V314.364H48.3864V315.614H42.8182V319.545H47.8636V320.795H42.8182V326H41.4091ZM52.7227 326.182C51.9348 326.182 51.2436 325.994 50.6489 325.619C50.058 325.244 49.5958 324.72 49.2625 324.045C48.933 323.371 48.7682 322.583 48.7682 321.682C48.7682 320.773 48.933 319.979 49.2625 319.301C49.5958 318.623 50.058 318.097 50.6489 317.722C51.2436 317.347 51.9348 317.159 52.7227 317.159C53.5106 317.159 54.2 317.347 54.7909 317.722C55.3856 318.097 55.8477 318.623 56.1773 319.301C56.5106 319.979 56.6773 320.773 56.6773 321.682C56.6773 322.583 56.5106 323.371 56.1773 324.045C55.8477 324.72 55.3856 325.244 54.7909 325.619C54.2 325.994 53.5106 326.182 52.7227 326.182ZM52.7227 324.977C53.3212 324.977 53.8136 324.824 54.2 324.517C54.5864 324.21 54.8723 323.807 55.058 323.307C55.2436 322.807 55.3364 322.265 55.3364 321.682C55.3364 321.098 55.2436 320.555 55.058 320.051C54.8723 319.547 54.5864 319.14 54.2 318.83C53.8136 318.519 53.3212 318.364 52.7227 318.364C52.1242 318.364 51.6318 318.519 51.2455 318.83C50.8591 319.14 50.5731 319.547 50.3875 320.051C50.2019 320.555 50.1091 321.098 50.1091 321.682C50.1091 322.265 50.2019 322.807 50.3875 323.307C50.5731 323.807 50.8591 324.21 51.2455 324.517C51.6318 324.824 52.1242 324.977 52.7227 324.977ZM57.9241 326V317.273H59.2196V318.591H59.3105C59.4696 318.159 59.7575 317.809 60.1741 317.54C60.5908 317.271 61.0605 317.136 61.5832 317.136C61.6817 317.136 61.8048 317.138 61.9526 317.142C62.1003 317.146 62.212 317.152 62.2878 317.159V318.523C62.2423 318.511 62.1382 318.494 61.9753 318.472C61.8162 318.445 61.6476 318.432 61.4696 318.432C61.0454 318.432 60.6666 318.521 60.3332 318.699C60.0037 318.873 59.7423 319.116 59.5491 319.426C59.3598 319.733 59.2651 320.083 59.2651 320.477V326H57.9241ZM66.3344 329.455C65.6866 329.455 65.1298 329.371 64.6639 329.205C64.198 329.042 63.8098 328.826 63.4991 328.557C63.1923 328.292 62.948 328.008 62.7662 327.705L63.8344 326.955C63.9556 327.114 64.109 327.295 64.2946 327.5C64.4802 327.708 64.734 327.888 65.056 328.04C65.3817 328.195 65.8079 328.273 66.3344 328.273C67.0389 328.273 67.6204 328.102 68.0787 327.761C68.537 327.42 68.7662 326.886 68.7662 326.159V324.386H68.6526C68.5541 324.545 68.4139 324.742 68.2321 324.977C68.0541 325.208 67.7965 325.415 67.4594 325.597C67.126 325.775 66.6753 325.864 66.1071 325.864C65.4026 325.864 64.77 325.697 64.2094 325.364C63.6526 325.03 63.2113 324.545 62.8855 323.909C62.5635 323.273 62.4026 322.5 62.4026 321.591C62.4026 320.697 62.5598 319.919 62.8741 319.256C63.1885 318.589 63.626 318.074 64.1866 317.71C64.7473 317.343 65.395 317.159 66.1298 317.159C66.698 317.159 67.1488 317.254 67.4821 317.443C67.8192 317.629 68.0768 317.841 68.2548 318.08C68.4366 318.314 68.5768 318.508 68.6753 318.659H68.8116V317.273H70.1071V326.25C70.1071 327 69.9366 327.61 69.5957 328.08C69.2586 328.553 68.8041 328.9 68.2321 329.119C67.6639 329.343 67.0313 329.455 66.3344 329.455ZM66.2889 324.659C66.8268 324.659 67.2813 324.536 67.6526 324.29C68.0238 324.044 68.306 323.689 68.4991 323.227C68.6923 322.765 68.7889 322.212 68.7889 321.568C68.7889 320.939 68.6942 320.384 68.5048 319.903C68.3154 319.422 68.0351 319.045 67.6639 318.773C67.2927 318.5 66.8344 318.364 66.2889 318.364C65.7207 318.364 65.2473 318.508 64.8685 318.795C64.4935 319.083 64.2113 319.47 64.0219 319.955C63.8363 320.439 63.7435 320.977 63.7435 321.568C63.7435 322.174 63.8382 322.71 64.0276 323.176C64.2207 323.638 64.5048 324.002 64.8798 324.267C65.2586 324.528 65.7283 324.659 66.2889 324.659ZM75.3071 326.182C74.5192 326.182 73.8279 325.994 73.2332 325.619C72.6423 325.244 72.1802 324.72 71.8469 324.045C71.5173 323.371 71.3526 322.583 71.3526 321.682C71.3526 320.773 71.5173 319.979 71.8469 319.301C72.1802 318.623 72.6423 318.097 73.2332 317.722C73.8279 317.347 74.5192 317.159 75.3071 317.159C76.095 317.159 76.7844 317.347 77.3753 317.722C77.97 318.097 78.4321 318.623 78.7616 319.301C79.095 319.979 79.2616 320.773 79.2616 321.682C79.2616 322.583 79.095 323.371 78.7616 324.045C78.4321 324.72 77.97 325.244 77.3753 325.619C76.7844 325.994 76.095 326.182 75.3071 326.182ZM75.3071 324.977C75.9056 324.977 76.398 324.824 76.7844 324.517C77.1707 324.21 77.4567 323.807 77.6423 323.307C77.8279 322.807 77.9207 322.265 77.9207 321.682C77.9207 321.098 77.8279 320.555 77.6423 320.051C77.4567 319.547 77.1707 319.14 76.7844 318.83C76.398 318.519 75.9056 318.364 75.3071 318.364C74.7086 318.364 74.2162 318.519 73.8298 318.83C73.4435 319.14 73.1575 319.547 72.9719 320.051C72.7863 320.555 72.6935 321.098 72.6935 321.682C72.6935 322.265 72.7863 322.807 72.9719 323.307C73.1575 323.807 73.4435 324.21 73.8298 324.517C74.2162 324.824 74.7086 324.977 75.3071 324.977ZM84.304 317.273V318.409H79.7812V317.273H84.304ZM81.0994 315.182H82.4403V323.5C82.4403 323.879 82.4953 324.163 82.6051 324.352C82.7188 324.538 82.8627 324.663 83.0369 324.727C83.215 324.788 83.4025 324.818 83.5994 324.818C83.7472 324.818 83.8684 324.811 83.9631 324.795C84.0578 324.777 84.1335 324.761 84.1903 324.75L84.4631 325.955C84.3722 325.989 84.2453 326.023 84.0824 326.057C83.9195 326.095 83.7131 326.114 83.4631 326.114C83.0843 326.114 82.7131 326.032 82.3494 325.869C81.9896 325.706 81.6903 325.458 81.4517 325.125C81.2169 324.792 81.0994 324.371 81.0994 323.864V315.182ZM89.221 329.273V317.273H90.5165V318.659H90.6756C90.7741 318.508 90.9104 318.314 91.0847 318.08C91.2627 317.841 91.5165 317.629 91.846 317.443C92.1794 317.254 92.6301 317.159 93.1983 317.159C93.9331 317.159 94.5809 317.343 95.1415 317.71C95.7021 318.078 96.1396 318.598 96.454 319.273C96.7684 319.947 96.9256 320.742 96.9256 321.659C96.9256 322.583 96.7684 323.384 96.454 324.062C96.1396 324.737 95.704 325.259 95.1472 325.631C94.5903 325.998 93.9483 326.182 93.221 326.182C92.6604 326.182 92.2116 326.089 91.8744 325.903C91.5373 325.714 91.2778 325.5 91.096 325.261C90.9142 325.019 90.7741 324.818 90.6756 324.659H90.5619V329.273H89.221ZM90.5392 321.636C90.5392 322.295 90.6358 322.877 90.829 323.381C91.0222 323.881 91.3044 324.273 91.6756 324.557C92.0468 324.837 92.5013 324.977 93.0392 324.977C93.5998 324.977 94.0676 324.83 94.4426 324.534C94.8214 324.235 95.1055 323.833 95.2949 323.33C95.4881 322.822 95.5847 322.258 95.5847 321.636C95.5847 321.023 95.49 320.47 95.3006 319.977C95.115 319.481 94.8328 319.089 94.454 318.801C94.079 318.509 93.6074 318.364 93.0392 318.364C92.4938 318.364 92.0354 318.502 91.6642 318.778C91.293 319.051 91.0127 319.434 90.8233 319.926C90.6339 320.415 90.5392 320.985 90.5392 321.636ZM100.739 326.205C100.186 326.205 99.6843 326.1 99.2335 325.892C98.7828 325.68 98.4248 325.375 98.1597 324.977C97.8945 324.576 97.7619 324.091 97.7619 323.523C97.7619 323.023 97.8604 322.617 98.0574 322.307C98.2544 321.992 98.5176 321.746 98.8472 321.568C99.1767 321.39 99.5403 321.258 99.9381 321.17C100.34 321.08 100.743 321.008 101.148 320.955C101.679 320.886 102.109 320.835 102.438 320.801C102.771 320.763 103.014 320.701 103.165 320.614C103.321 320.527 103.398 320.375 103.398 320.159V320.114C103.398 319.553 103.245 319.117 102.938 318.807C102.635 318.496 102.175 318.341 101.557 318.341C100.917 318.341 100.415 318.481 100.052 318.761C99.6881 319.042 99.4324 319.341 99.2847 319.659L98.0119 319.205C98.2392 318.674 98.5422 318.261 98.921 317.966C99.3036 317.667 99.7203 317.458 100.171 317.341C100.626 317.22 101.073 317.159 101.512 317.159C101.792 317.159 102.114 317.193 102.478 317.261C102.845 317.326 103.199 317.46 103.54 317.665C103.885 317.869 104.171 318.178 104.398 318.591C104.626 319.004 104.739 319.557 104.739 320.25V326H103.398V324.818H103.33C103.239 325.008 103.088 325.21 102.876 325.426C102.663 325.642 102.381 325.826 102.029 325.977C101.677 326.129 101.247 326.205 100.739 326.205ZM100.944 325C101.474 325 101.921 324.896 102.285 324.688C102.652 324.479 102.929 324.21 103.114 323.881C103.304 323.551 103.398 323.205 103.398 322.841V321.614C103.341 321.682 103.216 321.744 103.023 321.801C102.834 321.854 102.614 321.902 102.364 321.943C102.118 321.981 101.877 322.015 101.643 322.045C101.412 322.072 101.224 322.095 101.08 322.114C100.732 322.159 100.406 322.233 100.103 322.335C99.8036 322.434 99.5612 322.583 99.3756 322.784C99.1937 322.981 99.1028 323.25 99.1028 323.591C99.1028 324.057 99.2752 324.409 99.6199 324.648C99.9684 324.883 100.41 325 100.944 325ZM112.568 319.227L111.364 319.568C111.288 319.367 111.176 319.172 111.029 318.983C110.885 318.79 110.688 318.631 110.438 318.506C110.188 318.381 109.868 318.318 109.478 318.318C108.943 318.318 108.498 318.441 108.142 318.688C107.79 318.93 107.614 319.239 107.614 319.614C107.614 319.947 107.735 320.21 107.978 320.403C108.22 320.597 108.599 320.758 109.114 320.886L110.409 321.205C111.19 321.394 111.771 321.684 112.154 322.074C112.536 322.46 112.728 322.958 112.728 323.568C112.728 324.068 112.584 324.515 112.296 324.909C112.012 325.303 111.614 325.614 111.103 325.841C110.591 326.068 109.996 326.182 109.318 326.182C108.428 326.182 107.692 325.989 107.108 325.602C106.525 325.216 106.156 324.652 106 323.909L107.273 323.591C107.394 324.061 107.623 324.413 107.961 324.648C108.301 324.883 108.746 325 109.296 325C109.921 325 110.417 324.867 110.784 324.602C111.156 324.333 111.341 324.011 111.341 323.636C111.341 323.333 111.235 323.08 111.023 322.875C110.811 322.667 110.485 322.511 110.046 322.409L108.591 322.068C107.792 321.879 107.205 321.585 106.83 321.188C106.459 320.786 106.273 320.284 106.273 319.682C106.273 319.189 106.411 318.754 106.688 318.375C106.968 317.996 107.349 317.699 107.83 317.483C108.315 317.267 108.864 317.159 109.478 317.159C110.341 317.159 111.019 317.348 111.512 317.727C112.008 318.106 112.36 318.606 112.568 319.227ZM120.128 319.227L118.923 319.568C118.848 319.367 118.736 319.172 118.588 318.983C118.444 318.79 118.247 318.631 117.997 318.506C117.747 318.381 117.427 318.318 117.037 318.318C116.503 318.318 116.058 318.441 115.702 318.688C115.349 318.93 115.173 319.239 115.173 319.614C115.173 319.947 115.295 320.21 115.537 320.403C115.779 320.597 116.158 320.758 116.673 320.886L117.969 321.205C118.749 321.394 119.33 321.684 119.713 322.074C120.096 322.46 120.287 322.958 120.287 323.568C120.287 324.068 120.143 324.515 119.855 324.909C119.571 325.303 119.173 325.614 118.662 325.841C118.151 326.068 117.556 326.182 116.878 326.182C115.988 326.182 115.251 325.989 114.668 325.602C114.084 325.216 113.715 324.652 113.56 323.909L114.832 323.591C114.954 324.061 115.183 324.413 115.52 324.648C115.861 324.883 116.306 325 116.855 325C117.48 325 117.976 324.867 118.344 324.602C118.715 324.333 118.901 324.011 118.901 323.636C118.901 323.333 118.795 323.08 118.582 322.875C118.37 322.667 118.045 322.511 117.605 322.409L116.151 322.068C115.351 321.879 114.764 321.585 114.389 321.188C114.018 320.786 113.832 320.284 113.832 319.682C113.832 319.189 113.971 318.754 114.247 318.375C114.527 317.996 114.908 317.699 115.389 317.483C115.874 317.267 116.423 317.159 117.037 317.159C117.901 317.159 118.579 317.348 119.071 317.727C119.567 318.106 119.92 318.606 120.128 319.227ZM123.483 326L120.824 317.273H122.233L124.119 323.955H124.21L126.074 317.273H127.505L129.346 323.932H129.437L131.324 317.273H132.733L130.074 326H128.755L126.846 319.295H126.71L124.801 326H123.483ZM136.954 326.182C136.166 326.182 135.475 325.994 134.88 325.619C134.289 325.244 133.827 324.72 133.494 324.045C133.164 323.371 132.999 322.583 132.999 321.682C132.999 320.773 133.164 319.979 133.494 319.301C133.827 318.623 134.289 318.097 134.88 317.722C135.475 317.347 136.166 317.159 136.954 317.159C137.742 317.159 138.431 317.347 139.022 317.722C139.617 318.097 140.079 318.623 140.409 319.301C140.742 319.979 140.909 320.773 140.909 321.682C140.909 322.583 140.742 323.371 140.409 324.045C140.079 324.72 139.617 325.244 139.022 325.619C138.431 325.994 137.742 326.182 136.954 326.182ZM136.954 324.977C137.552 324.977 138.045 324.824 138.431 324.517C138.818 324.21 139.104 323.807 139.289 323.307C139.475 322.807 139.568 322.265 139.568 321.682C139.568 321.098 139.475 320.555 139.289 320.051C139.104 319.547 138.818 319.14 138.431 318.83C138.045 318.519 137.552 318.364 136.954 318.364C136.355 318.364 135.863 318.519 135.477 318.83C135.09 319.14 134.804 319.547 134.619 320.051C134.433 320.555 134.34 321.098 134.34 321.682C134.34 322.265 134.433 322.807 134.619 323.307C134.804 323.807 135.09 324.21 135.477 324.517C135.863 324.824 136.355 324.977 136.954 324.977ZM142.155 326V317.273H143.451V318.591H143.542C143.701 318.159 143.989 317.809 144.405 317.54C144.822 317.271 145.292 317.136 145.814 317.136C145.913 317.136 146.036 317.138 146.184 317.142C146.332 317.146 146.443 317.152 146.519 317.159V318.523C146.474 318.511 146.369 318.494 146.207 318.472C146.047 318.445 145.879 318.432 145.701 318.432C145.277 318.432 144.898 318.521 144.564 318.699C144.235 318.873 143.974 319.116 143.78 319.426C143.591 319.733 143.496 320.083 143.496 320.477V326H142.155ZM150.338 326.182C149.611 326.182 148.969 325.998 148.412 325.631C147.855 325.259 147.42 324.737 147.105 324.062C146.791 323.384 146.634 322.583 146.634 321.659C146.634 320.742 146.791 319.947 147.105 319.273C147.42 318.598 147.857 318.078 148.418 317.71C148.979 317.343 149.626 317.159 150.361 317.159C150.929 317.159 151.378 317.254 151.708 317.443C152.041 317.629 152.295 317.841 152.469 318.08C152.647 318.314 152.785 318.508 152.884 318.659H152.997V314.364H154.338V326H153.043V324.659H152.884C152.785 324.818 152.645 325.019 152.463 325.261C152.282 325.5 152.022 325.714 151.685 325.903C151.348 326.089 150.899 326.182 150.338 326.182ZM150.52 324.977C151.058 324.977 151.513 324.837 151.884 324.557C152.255 324.273 152.537 323.881 152.73 323.381C152.924 322.877 153.02 322.295 153.02 321.636C153.02 320.985 152.925 320.415 152.736 319.926C152.547 319.434 152.266 319.051 151.895 318.778C151.524 318.502 151.066 318.364 150.52 318.364C149.952 318.364 149.479 318.509 149.1 318.801C148.725 319.089 148.443 319.481 148.253 319.977C148.068 320.47 147.975 321.023 147.975 321.636C147.975 322.258 148.069 322.822 148.259 323.33C148.452 323.833 148.736 324.235 149.111 324.534C149.49 324.83 149.96 324.977 150.52 324.977ZM157.93 322.727V322.659C157.938 321.936 158.014 321.36 158.158 320.932C158.302 320.504 158.506 320.157 158.771 319.892C159.036 319.627 159.355 319.383 159.726 319.159C159.949 319.023 160.15 318.862 160.328 318.676C160.506 318.487 160.646 318.269 160.749 318.023C160.855 317.777 160.908 317.504 160.908 317.205C160.908 316.833 160.821 316.511 160.646 316.239C160.472 315.966 160.239 315.756 159.947 315.608C159.656 315.46 159.332 315.386 158.976 315.386C158.665 315.386 158.366 315.451 158.078 315.58C157.79 315.708 157.55 315.911 157.357 316.188C157.163 316.464 157.052 316.826 157.021 317.273H155.589C155.62 316.629 155.786 316.078 156.089 315.619C156.396 315.161 156.8 314.811 157.3 314.568C157.804 314.326 158.362 314.205 158.976 314.205C159.643 314.205 160.222 314.337 160.714 314.602C161.211 314.867 161.593 315.231 161.862 315.693C162.135 316.155 162.271 316.682 162.271 317.273C162.271 317.689 162.207 318.066 162.078 318.403C161.953 318.741 161.771 319.042 161.533 319.307C161.298 319.572 161.014 319.807 160.68 320.011C160.347 320.22 160.08 320.439 159.879 320.67C159.679 320.898 159.533 321.169 159.442 321.483C159.351 321.797 159.302 322.189 159.294 322.659V322.727H157.93ZM158.658 326.091C158.377 326.091 158.137 325.991 157.936 325.79C157.735 325.589 157.635 325.348 157.635 325.068C157.635 324.788 157.735 324.547 157.936 324.347C158.137 324.146 158.377 324.045 158.658 324.045C158.938 324.045 159.179 324.146 159.379 324.347C159.58 324.547 159.68 324.788 159.68 325.068C159.68 325.254 159.633 325.424 159.538 325.58C159.447 325.735 159.324 325.86 159.169 325.955C159.018 326.045 158.847 326.091 158.658 326.091Z" fill="#567FEF"/>
<rect x="40" y="244" width="328" height="48" rx="8" fill="#567FEF"/>
<path d="M188.79 264.273C188.722 263.697 188.445 263.25 187.96 262.932C187.476 262.614 186.881 262.455 186.176 262.455C185.661 262.455 185.21 262.538 184.824 262.705C184.441 262.871 184.142 263.1 183.926 263.392C183.714 263.684 183.608 264.015 183.608 264.386C183.608 264.697 183.682 264.964 183.83 265.188C183.981 265.407 184.174 265.591 184.409 265.739C184.644 265.883 184.89 266.002 185.148 266.097C185.405 266.187 185.642 266.261 185.858 266.318L187.04 266.636C187.343 266.716 187.68 266.826 188.051 266.966C188.426 267.106 188.784 267.297 189.125 267.54C189.47 267.778 189.754 268.085 189.977 268.46C190.201 268.835 190.313 269.295 190.313 269.841C190.313 270.47 190.148 271.038 189.818 271.545C189.493 272.053 189.015 272.456 188.387 272.756C187.762 273.055 187.002 273.205 186.108 273.205C185.275 273.205 184.553 273.07 183.943 272.801C183.337 272.532 182.86 272.157 182.512 271.676C182.167 271.195 181.972 270.636 181.926 270H183.381C183.419 270.439 183.566 270.803 183.824 271.091C184.085 271.375 184.415 271.587 184.813 271.727C185.214 271.864 185.646 271.932 186.108 271.932C186.646 271.932 187.129 271.845 187.557 271.67C187.985 271.492 188.324 271.246 188.574 270.932C188.824 270.614 188.949 270.242 188.949 269.818C188.949 269.432 188.841 269.117 188.625 268.875C188.409 268.633 188.125 268.436 187.773 268.284C187.421 268.133 187.04 268 186.631 267.886L185.199 267.477C184.29 267.216 183.57 266.843 183.04 266.358C182.51 265.873 182.244 265.239 182.244 264.455C182.244 263.803 182.421 263.235 182.773 262.75C183.129 262.261 183.606 261.883 184.205 261.614C184.807 261.341 185.479 261.205 186.222 261.205C186.972 261.205 187.638 261.339 188.222 261.608C188.805 261.873 189.267 262.237 189.608 262.699C189.953 263.161 190.135 263.686 190.154 264.273H188.79ZM191.648 273V264.273H192.988V273H191.648ZM192.329 262.818C192.068 262.818 191.843 262.729 191.653 262.551C191.468 262.373 191.375 262.159 191.375 261.909C191.375 261.659 191.468 261.445 191.653 261.267C191.843 261.089 192.068 261 192.329 261C192.591 261 192.814 261.089 193 261.267C193.189 261.445 193.284 261.659 193.284 261.909C193.284 262.159 193.189 262.373 193 262.551C192.814 262.729 192.591 262.818 192.329 262.818ZM198.167 276.455C197.519 276.455 196.963 276.371 196.497 276.205C196.031 276.042 195.643 275.826 195.332 275.557C195.025 275.292 194.781 275.008 194.599 274.705L195.667 273.955C195.788 274.114 195.942 274.295 196.127 274.5C196.313 274.708 196.567 274.888 196.889 275.04C197.215 275.195 197.641 275.273 198.167 275.273C198.872 275.273 199.453 275.102 199.912 274.761C200.37 274.42 200.599 273.886 200.599 273.159V271.386H200.485C200.387 271.545 200.247 271.742 200.065 271.977C199.887 272.208 199.629 272.415 199.292 272.597C198.959 272.775 198.508 272.864 197.94 272.864C197.235 272.864 196.603 272.697 196.042 272.364C195.485 272.03 195.044 271.545 194.718 270.909C194.396 270.273 194.235 269.5 194.235 268.591C194.235 267.697 194.393 266.919 194.707 266.256C195.021 265.589 195.459 265.074 196.019 264.71C196.58 264.343 197.228 264.159 197.963 264.159C198.531 264.159 198.982 264.254 199.315 264.443C199.652 264.629 199.91 264.841 200.088 265.08C200.269 265.314 200.41 265.508 200.508 265.659H200.644V264.273H201.94V273.25C201.94 274 201.769 274.61 201.429 275.08C201.091 275.553 200.637 275.9 200.065 276.119C199.497 276.343 198.864 276.455 198.167 276.455ZM198.122 271.659C198.66 271.659 199.114 271.536 199.485 271.29C199.857 271.044 200.139 270.689 200.332 270.227C200.525 269.765 200.622 269.212 200.622 268.568C200.622 267.939 200.527 267.384 200.338 266.903C200.148 266.422 199.868 266.045 199.497 265.773C199.126 265.5 198.667 265.364 198.122 265.364C197.554 265.364 197.08 265.508 196.701 265.795C196.326 266.083 196.044 266.47 195.855 266.955C195.669 267.439 195.576 267.977 195.576 268.568C195.576 269.174 195.671 269.71 195.86 270.176C196.054 270.638 196.338 271.002 196.713 271.267C197.091 271.528 197.561 271.659 198.122 271.659ZM204.935 267.75V273H203.594V264.273H204.89V265.636H205.004C205.208 265.193 205.519 264.837 205.935 264.568C206.352 264.295 206.89 264.159 207.549 264.159C208.14 264.159 208.657 264.28 209.1 264.523C209.543 264.761 209.888 265.125 210.134 265.614C210.38 266.098 210.504 266.712 210.504 267.455V273H209.163V267.545C209.163 266.86 208.985 266.326 208.629 265.943C208.272 265.557 207.784 265.364 207.163 265.364C206.735 265.364 206.352 265.456 206.015 265.642C205.682 265.828 205.418 266.098 205.225 266.455C205.032 266.811 204.935 267.242 204.935 267.75ZM215.854 273V264.273H217.195V273H215.854ZM216.536 262.818C216.274 262.818 216.049 262.729 215.86 262.551C215.674 262.373 215.581 262.159 215.581 261.909C215.581 261.659 215.674 261.445 215.86 261.267C216.049 261.089 216.274 261 216.536 261C216.797 261 217.021 261.089 217.206 261.267C217.396 261.445 217.49 261.659 217.49 261.909C217.49 262.159 217.396 262.373 217.206 262.551C217.021 262.729 216.797 262.818 216.536 262.818ZM220.192 267.75V273H218.851V264.273H220.146V265.636H220.26C220.464 265.193 220.775 264.837 221.192 264.568C221.608 264.295 222.146 264.159 222.805 264.159C223.396 264.159 223.913 264.28 224.356 264.523C224.8 264.761 225.144 265.125 225.39 265.614C225.637 266.098 225.76 266.712 225.76 267.455V273H224.419V267.545C224.419 266.86 224.241 266.326 223.885 265.943C223.529 265.557 223.04 265.364 222.419 265.364C221.991 265.364 221.608 265.456 221.271 265.642C220.938 265.828 220.675 266.098 220.481 266.455C220.288 266.811 220.192 267.242 220.192 267.75Z" fill="white"/>
<rect x="40.5" y="188.5" width="327" height="47" rx="7.5" fill="white" stroke="#567FEF"/>
<path d="M85.4091 217V205.364H89.3409C90.2538 205.364 91 205.528 91.5795 205.858C92.1629 206.184 92.5947 206.625 92.875 207.182C93.1553 207.739 93.2955 208.36 93.2955 209.045C93.2955 209.731 93.1553 210.354 92.875 210.915C92.5985 211.475 92.1705 211.922 91.5909 212.256C91.0114 212.585 90.2689 212.75 89.3636 212.75H86.5455V211.5H89.3182C89.9432 211.5 90.4451 211.392 90.8239 211.176C91.2027 210.96 91.4773 210.669 91.6477 210.301C91.822 209.93 91.9091 209.511 91.9091 209.045C91.9091 208.58 91.822 208.163 91.6477 207.795C91.4773 207.428 91.2008 207.14 90.8182 206.932C90.4356 206.72 89.928 206.614 89.2955 206.614H86.8182V217H85.4091ZM97.1517 217.205C96.5987 217.205 96.0968 217.1 95.646 216.892C95.1953 216.68 94.8373 216.375 94.5722 215.977C94.307 215.576 94.1744 215.091 94.1744 214.523C94.1744 214.023 94.2729 213.617 94.4699 213.307C94.6669 212.992 94.9301 212.746 95.2597 212.568C95.5892 212.39 95.9528 212.258 96.3506 212.17C96.7521 212.08 97.1555 212.008 97.5608 211.955C98.0911 211.886 98.521 211.835 98.8506 211.801C99.1839 211.763 99.4263 211.701 99.5778 211.614C99.7331 211.527 99.8108 211.375 99.8108 211.159V211.114C99.8108 210.553 99.6574 210.117 99.3506 209.807C99.0475 209.496 98.5873 209.341 97.9699 209.341C97.3297 209.341 96.8278 209.481 96.4642 209.761C96.1006 210.042 95.8449 210.341 95.6972 210.659L94.4244 210.205C94.6517 209.674 94.9547 209.261 95.3335 208.966C95.7161 208.667 96.1328 208.458 96.5835 208.341C97.0381 208.22 97.485 208.159 97.9244 208.159C98.2047 208.159 98.5267 208.193 98.8903 208.261C99.2578 208.326 99.6119 208.46 99.9528 208.665C100.298 208.869 100.584 209.178 100.811 209.591C101.038 210.004 101.152 210.557 101.152 211.25V217H99.8108V215.818H99.7426C99.6517 216.008 99.5002 216.21 99.2881 216.426C99.0759 216.642 98.7937 216.826 98.4415 216.977C98.0892 217.129 97.6593 217.205 97.1517 217.205ZM97.3562 216C97.8866 216 98.3335 215.896 98.6972 215.688C99.0646 215.479 99.3411 215.21 99.5267 214.881C99.7161 214.551 99.8108 214.205 99.8108 213.841V212.614C99.754 212.682 99.629 212.744 99.4358 212.801C99.2464 212.854 99.0267 212.902 98.7767 212.943C98.5305 212.981 98.29 213.015 98.0551 213.045C97.8241 213.072 97.6366 213.095 97.4926 213.114C97.1441 213.159 96.8184 213.233 96.5153 213.335C96.2161 213.434 95.9737 213.583 95.7881 213.784C95.6062 213.981 95.5153 214.25 95.5153 214.591C95.5153 215.057 95.6877 215.409 96.0324 215.648C96.3809 215.883 96.8222 216 97.3562 216ZM108.981 210.227L107.776 210.568C107.701 210.367 107.589 210.172 107.441 209.983C107.297 209.79 107.1 209.631 106.85 209.506C106.6 209.381 106.28 209.318 105.89 209.318C105.356 209.318 104.911 209.441 104.555 209.688C104.203 209.93 104.026 210.239 104.026 210.614C104.026 210.947 104.148 211.21 104.39 211.403C104.632 211.597 105.011 211.758 105.526 211.886L106.822 212.205C107.602 212.394 108.184 212.684 108.566 213.074C108.949 213.46 109.14 213.958 109.14 214.568C109.14 215.068 108.996 215.515 108.708 215.909C108.424 216.303 108.026 216.614 107.515 216.841C107.004 217.068 106.409 217.182 105.731 217.182C104.841 217.182 104.104 216.989 103.521 216.602C102.937 216.216 102.568 215.652 102.413 214.909L103.686 214.591C103.807 215.061 104.036 215.413 104.373 215.648C104.714 215.883 105.159 216 105.708 216C106.333 216 106.829 215.867 107.197 215.602C107.568 215.333 107.754 215.011 107.754 214.636C107.754 214.333 107.648 214.08 107.436 213.875C107.223 213.667 106.898 213.511 106.458 213.409L105.004 213.068C104.204 212.879 103.617 212.585 103.242 212.188C102.871 211.786 102.686 211.284 102.686 210.682C102.686 210.189 102.824 209.754 103.1 209.375C103.381 208.996 103.761 208.699 104.242 208.483C104.727 208.267 105.276 208.159 105.89 208.159C106.754 208.159 107.432 208.348 107.924 208.727C108.42 209.106 108.773 209.606 108.981 210.227ZM116.54 210.227L115.336 210.568C115.26 210.367 115.148 210.172 115.001 209.983C114.857 209.79 114.66 209.631 114.41 209.506C114.16 209.381 113.84 209.318 113.449 209.318C112.915 209.318 112.47 209.441 112.114 209.688C111.762 209.93 111.586 210.239 111.586 210.614C111.586 210.947 111.707 211.21 111.949 211.403C112.192 211.597 112.571 211.758 113.086 211.886L114.381 212.205C115.162 212.394 115.743 212.684 116.126 213.074C116.508 213.46 116.699 213.958 116.699 214.568C116.699 215.068 116.555 215.515 116.268 215.909C115.984 216.303 115.586 216.614 115.074 216.841C114.563 217.068 113.968 217.182 113.29 217.182C112.4 217.182 111.663 216.989 111.08 216.602C110.497 216.216 110.127 215.652 109.972 214.909L111.245 214.591C111.366 215.061 111.595 215.413 111.932 215.648C112.273 215.883 112.718 216 113.268 216C113.893 216 114.389 215.867 114.756 215.602C115.127 215.333 115.313 215.011 115.313 214.636C115.313 214.333 115.207 214.08 114.995 213.875C114.783 213.667 114.457 213.511 114.018 213.409L112.563 213.068C111.764 212.879 111.177 212.585 110.802 212.188C110.43 211.786 110.245 211.284 110.245 210.682C110.245 210.189 110.383 209.754 110.66 209.375C110.94 208.996 111.321 208.699 111.802 208.483C112.287 208.267 112.836 208.159 113.449 208.159C114.313 208.159 114.991 208.348 115.484 208.727C115.98 209.106 116.332 209.606 116.54 210.227ZM119.895 217L117.236 208.273H118.645L120.532 214.955H120.622L122.486 208.273H123.918L125.759 214.932H125.85L127.736 208.273H129.145L126.486 217H125.168L123.259 210.295H123.122L121.213 217H119.895ZM133.366 217.182C132.579 217.182 131.887 216.994 131.293 216.619C130.702 216.244 130.24 215.72 129.906 215.045C129.577 214.371 129.412 213.583 129.412 212.682C129.412 211.773 129.577 210.979 129.906 210.301C130.24 209.623 130.702 209.097 131.293 208.722C131.887 208.347 132.579 208.159 133.366 208.159C134.154 208.159 134.844 208.347 135.435 208.722C136.029 209.097 136.491 209.623 136.821 210.301C137.154 210.979 137.321 211.773 137.321 212.682C137.321 213.583 137.154 214.371 136.821 215.045C136.491 215.72 136.029 216.244 135.435 216.619C134.844 216.994 134.154 217.182 133.366 217.182ZM133.366 215.977C133.965 215.977 134.457 215.824 134.844 215.517C135.23 215.21 135.516 214.807 135.702 214.307C135.887 213.807 135.98 213.265 135.98 212.682C135.98 212.098 135.887 211.555 135.702 211.051C135.516 210.547 135.23 210.14 134.844 209.83C134.457 209.519 133.965 209.364 133.366 209.364C132.768 209.364 132.276 209.519 131.889 209.83C131.503 210.14 131.217 210.547 131.031 211.051C130.846 211.555 130.753 212.098 130.753 212.682C130.753 213.265 130.846 213.807 131.031 214.307C131.217 214.807 131.503 215.21 131.889 215.517C132.276 215.824 132.768 215.977 133.366 215.977ZM138.568 217V208.273H139.863V209.591H139.954C140.113 209.159 140.401 208.809 140.818 208.54C141.235 208.271 141.704 208.136 142.227 208.136C142.325 208.136 142.449 208.138 142.596 208.142C142.744 208.146 142.856 208.152 142.932 208.159V209.523C142.886 209.511 142.782 209.494 142.619 209.472C142.46 209.445 142.291 209.432 142.113 209.432C141.689 209.432 141.31 209.521 140.977 209.699C140.647 209.873 140.386 210.116 140.193 210.426C140.004 210.733 139.909 211.083 139.909 211.477V217H138.568ZM146.751 217.182C146.024 217.182 145.382 216.998 144.825 216.631C144.268 216.259 143.832 215.737 143.518 215.063C143.204 214.384 143.046 213.583 143.046 212.659C143.046 211.742 143.204 210.947 143.518 210.273C143.832 209.598 144.27 209.078 144.83 208.71C145.391 208.343 146.039 208.159 146.774 208.159C147.342 208.159 147.791 208.254 148.12 208.443C148.454 208.629 148.707 208.841 148.882 209.08C149.06 209.314 149.198 209.508 149.296 209.659H149.41V205.364H150.751V217H149.455V215.659H149.296C149.198 215.818 149.058 216.019 148.876 216.261C148.694 216.5 148.435 216.714 148.097 216.903C147.76 217.089 147.311 217.182 146.751 217.182ZM146.933 215.977C147.471 215.977 147.925 215.837 148.296 215.557C148.668 215.273 148.95 214.881 149.143 214.381C149.336 213.877 149.433 213.295 149.433 212.636C149.433 211.985 149.338 211.415 149.149 210.926C148.959 210.434 148.679 210.051 148.308 209.778C147.936 209.502 147.478 209.364 146.933 209.364C146.364 209.364 145.891 209.509 145.512 209.801C145.137 210.089 144.855 210.481 144.666 210.977C144.48 211.47 144.387 212.023 144.387 212.636C144.387 213.258 144.482 213.822 144.671 214.33C144.864 214.833 145.149 215.235 145.524 215.534C145.902 215.83 146.372 215.977 146.933 215.977Z" fill="#747474"/>
<path fill-rule="evenodd" clip-rule="evenodd" d="M67.75 201.5C64.0221 201.5 61 204.522 61 208.25C61 208.644 61.0338 209.03 61.0988 209.406C61.166 209.795 61.0668 210.123 60.8777 210.312L54.3787 216.811C53.8161 217.373 53.5 218.136 53.5 218.932V221.75C53.5 222.164 53.8358 222.5 54.25 222.5H58C58.4142 222.5 58.75 222.164 58.75 221.75V220.25H60.25C60.6642 220.25 61 219.914 61 219.5V218H62.5C62.6989 218 62.8897 217.921 63.0303 217.78L65.6883 215.122C65.8774 214.933 66.2047 214.834 66.5936 214.901C66.9698 214.966 67.3563 215 67.75 215C71.4779 215 74.5 211.978 74.5 208.25C74.5 204.522 71.4779 201.5 67.75 201.5ZM67.75 204.5C67.3358 204.5 67 204.836 67 205.25C67 205.664 67.3358 206 67.75 206C68.9926 206 70 207.007 70 208.25C70 208.664 70.3358 209 70.75 209C71.1642 209 71.5 208.664 71.5 208.25C71.5 206.179 69.8211 204.5 67.75 204.5Z" fill="#567FEF"/>
<rect x="40.5" y="132.5" width="327" height="47" rx="7.5" fill="white" stroke="#567FEF"/>
<path d="M85.4091 161V149.364H92.4318V150.614H86.8182V154.545H92.0682V155.795H86.8182V159.75H92.5227V161H85.4091ZM93.9898 161V152.273H95.2852V153.636H95.3989C95.5807 153.17 95.8742 152.809 96.2795 152.551C96.6848 152.29 97.1716 152.159 97.7398 152.159C98.3155 152.159 98.7947 152.29 99.1773 152.551C99.5636 152.809 99.8648 153.17 100.081 153.636H100.172C100.395 153.186 100.73 152.828 101.177 152.562C101.624 152.294 102.16 152.159 102.785 152.159C103.566 152.159 104.204 152.403 104.7 152.892C105.196 153.377 105.444 154.133 105.444 155.159V161H104.103V155.159C104.103 154.515 103.927 154.055 103.575 153.778C103.223 153.502 102.808 153.364 102.331 153.364C101.717 153.364 101.242 153.549 100.905 153.92C100.567 154.288 100.399 154.754 100.399 155.318V161H99.0352V155.023C99.0352 154.527 98.8742 154.127 98.5523 153.824C98.2303 153.517 97.8155 153.364 97.308 153.364C96.9595 153.364 96.6337 153.456 96.3307 153.642C96.0314 153.828 95.789 154.085 95.6034 154.415C95.4216 154.741 95.3307 155.117 95.3307 155.545V161H93.9898ZM109.664 161.205C109.111 161.205 108.609 161.1 108.159 160.892C107.708 160.68 107.35 160.375 107.085 159.977C106.82 159.576 106.687 159.091 106.687 158.523C106.687 158.023 106.785 157.617 106.982 157.307C107.179 156.992 107.443 156.746 107.772 156.568C108.102 156.39 108.465 156.258 108.863 156.17C109.265 156.08 109.668 156.008 110.073 155.955C110.604 155.886 111.034 155.835 111.363 155.801C111.696 155.763 111.939 155.701 112.09 155.614C112.246 155.527 112.323 155.375 112.323 155.159V155.114C112.323 154.553 112.17 154.117 111.863 153.807C111.56 153.496 111.1 153.341 110.482 153.341C109.842 153.341 109.34 153.481 108.977 153.761C108.613 154.042 108.357 154.341 108.21 154.659L106.937 154.205C107.164 153.674 107.467 153.261 107.846 152.966C108.229 152.667 108.645 152.458 109.096 152.341C109.551 152.22 109.998 152.159 110.437 152.159C110.717 152.159 111.039 152.193 111.403 152.261C111.77 152.326 112.124 152.46 112.465 152.665C112.81 152.869 113.096 153.178 113.323 153.591C113.551 154.004 113.664 154.557 113.664 155.25V161H112.323V159.818H112.255C112.164 160.008 112.013 160.21 111.801 160.426C111.588 160.642 111.306 160.826 110.954 160.977C110.602 161.129 110.172 161.205 109.664 161.205ZM109.869 160C110.399 160 110.846 159.896 111.21 159.688C111.577 159.479 111.854 159.21 112.039 158.881C112.229 158.551 112.323 158.205 112.323 157.841V156.614C112.266 156.682 112.141 156.744 111.948 156.801C111.759 156.854 111.539 156.902 111.289 156.943C111.043 156.981 110.802 157.015 110.568 157.045C110.337 157.072 110.149 157.095 110.005 157.114C109.657 157.159 109.331 157.233 109.028 157.335C108.729 157.434 108.486 157.583 108.301 157.784C108.119 157.981 108.028 158.25 108.028 158.591C108.028 159.057 108.2 159.409 108.545 159.648C108.893 159.883 109.335 160 109.869 160ZM115.312 161V152.273H116.653V161H115.312ZM115.993 150.818C115.732 150.818 115.507 150.729 115.317 150.551C115.132 150.373 115.039 150.159 115.039 149.909C115.039 149.659 115.132 149.445 115.317 149.267C115.507 149.089 115.732 149 115.993 149C116.255 149 116.478 149.089 116.664 149.267C116.853 149.445 116.948 149.659 116.948 149.909C116.948 150.159 116.853 150.373 116.664 150.551C116.478 150.729 116.255 150.818 115.993 150.818ZM119.649 149.364V161H118.309V149.364H119.649ZM127.574 161.205C127.021 161.205 126.519 161.1 126.068 160.892C125.617 160.68 125.259 160.375 124.994 159.977C124.729 159.576 124.596 159.091 124.596 158.523C124.596 158.023 124.695 157.617 124.892 157.307C125.089 156.992 125.352 156.746 125.682 156.568C126.011 156.39 126.375 156.258 126.772 156.17C127.174 156.08 127.577 156.008 127.983 155.955C128.513 155.886 128.943 155.835 129.272 155.801C129.606 155.763 129.848 155.701 130 155.614C130.155 155.527 130.233 155.375 130.233 155.159V155.114C130.233 154.553 130.079 154.117 129.772 153.807C129.469 153.496 129.009 153.341 128.392 153.341C127.752 153.341 127.25 153.481 126.886 153.761C126.522 154.042 126.267 154.341 126.119 154.659L124.846 154.205C125.074 153.674 125.377 153.261 125.755 152.966C126.138 152.667 126.555 152.458 127.005 152.341C127.46 152.22 127.907 152.159 128.346 152.159C128.627 152.159 128.949 152.193 129.312 152.261C129.68 152.326 130.034 152.46 130.375 152.665C130.719 152.869 131.005 153.178 131.233 153.591C131.46 154.004 131.574 154.557 131.574 155.25V161H130.233V159.818H130.164C130.074 160.008 129.922 160.21 129.71 160.426C129.498 160.642 129.216 160.826 128.863 160.977C128.511 161.129 128.081 161.205 127.574 161.205ZM127.778 160C128.308 160 128.755 159.896 129.119 159.688C129.486 159.479 129.763 159.21 129.949 158.881C130.138 158.551 130.233 158.205 130.233 157.841V156.614C130.176 156.682 130.051 156.744 129.858 156.801C129.668 156.854 129.449 156.902 129.199 156.943C128.952 156.981 128.712 157.015 128.477 157.045C128.246 157.072 128.058 157.095 127.914 157.114C127.566 157.159 127.24 157.233 126.937 157.335C126.638 157.434 126.396 157.583 126.21 157.784C126.028 157.981 125.937 158.25 125.937 158.591C125.937 159.057 126.11 159.409 126.454 159.648C126.803 159.883 127.244 160 127.778 160ZM136.516 161.182C135.789 161.182 135.147 160.998 134.59 160.631C134.034 160.259 133.598 159.737 133.284 159.062C132.969 158.384 132.812 157.583 132.812 156.659C132.812 155.742 132.969 154.947 133.284 154.273C133.598 153.598 134.035 153.078 134.596 152.71C135.157 152.343 135.804 152.159 136.539 152.159C137.107 152.159 137.556 152.254 137.886 152.443C138.219 152.629 138.473 152.841 138.647 153.08C138.825 153.314 138.963 153.508 139.062 153.659H139.176V149.364H140.516V161H139.221V159.659H139.062C138.963 159.818 138.823 160.019 138.641 160.261C138.46 160.5 138.2 160.714 137.863 160.903C137.526 161.089 137.077 161.182 136.516 161.182ZM136.698 159.977C137.236 159.977 137.691 159.837 138.062 159.557C138.433 159.273 138.715 158.881 138.909 158.381C139.102 157.877 139.198 157.295 139.198 156.636C139.198 155.985 139.104 155.415 138.914 154.926C138.725 154.434 138.445 154.051 138.073 153.778C137.702 153.502 137.244 153.364 136.698 153.364C136.13 153.364 135.657 153.509 135.278 153.801C134.903 154.089 134.621 154.481 134.431 154.977C134.246 155.47 134.153 156.023 134.153 156.636C134.153 157.258 134.248 157.822 134.437 158.33C134.63 158.833 134.914 159.235 135.289 159.534C135.668 159.83 136.138 159.977 136.698 159.977ZM145.654 161.182C144.927 161.182 144.285 160.998 143.728 160.631C143.171 160.259 142.735 159.737 142.421 159.062C142.107 158.384 141.949 157.583 141.949 156.659C141.949 155.742 142.107 154.947 142.421 154.273C142.735 153.598 143.173 153.078 143.734 152.71C144.294 152.343 144.942 152.159 145.677 152.159C146.245 152.159 146.694 152.254 147.023 152.443C147.357 152.629 147.61 152.841 147.785 153.08C147.963 153.314 148.101 153.508 148.199 153.659H148.313V149.364H149.654V161H148.359V159.659H148.199C148.101 159.818 147.961 160.019 147.779 160.261C147.597 160.5 147.338 160.714 147.001 160.903C146.663 161.089 146.215 161.182 145.654 161.182ZM145.836 159.977C146.374 159.977 146.828 159.837 147.199 159.557C147.571 159.273 147.853 158.881 148.046 158.381C148.239 157.877 148.336 157.295 148.336 156.636C148.336 155.985 148.241 155.415 148.052 154.926C147.862 154.434 147.582 154.051 147.211 153.778C146.84 153.502 146.381 153.364 145.836 153.364C145.268 153.364 144.794 153.509 144.415 153.801C144.04 154.089 143.758 154.481 143.569 154.977C143.383 155.47 143.29 156.023 143.29 156.636C143.29 157.258 143.385 157.822 143.574 158.33C143.768 158.833 144.052 159.235 144.427 159.534C144.805 159.83 145.275 159.977 145.836 159.977ZM151.496 161V152.273H152.791V153.591H152.882C153.041 153.159 153.329 152.809 153.746 152.54C154.163 152.271 154.632 152.136 155.155 152.136C155.254 152.136 155.377 152.138 155.524 152.142C155.672 152.146 155.784 152.152 155.86 152.159V153.523C155.814 153.511 155.71 153.494 155.547 153.472C155.388 153.445 155.22 153.432 155.041 153.432C154.617 153.432 154.238 153.521 153.905 153.699C153.576 153.873 153.314 154.116 153.121 154.426C152.932 154.733 152.837 155.083 152.837 155.477V161H151.496ZM160.043 161.182C159.202 161.182 158.476 160.996 157.866 160.625C157.26 160.25 156.793 159.727 156.463 159.057C156.137 158.383 155.974 157.598 155.974 156.705C155.974 155.811 156.137 155.023 156.463 154.341C156.793 153.655 157.251 153.121 157.838 152.739C158.429 152.352 159.118 152.159 159.906 152.159C160.361 152.159 160.81 152.235 161.253 152.386C161.696 152.538 162.099 152.784 162.463 153.125C162.827 153.462 163.116 153.909 163.332 154.466C163.548 155.023 163.656 155.708 163.656 156.523V157.091H156.929V155.932H162.293C162.293 155.439 162.194 155 161.997 154.614C161.804 154.227 161.527 153.922 161.168 153.699C160.812 153.475 160.391 153.364 159.906 153.364C159.372 153.364 158.91 153.496 158.52 153.761C158.134 154.023 157.836 154.364 157.628 154.784C157.42 155.205 157.315 155.655 157.315 156.136V156.909C157.315 157.568 157.429 158.127 157.656 158.585C157.887 159.04 158.207 159.386 158.616 159.625C159.026 159.86 159.501 159.977 160.043 159.977C160.395 159.977 160.713 159.928 160.997 159.83C161.285 159.727 161.533 159.576 161.741 159.375C161.95 159.17 162.111 158.917 162.224 158.614L163.52 158.977C163.384 159.417 163.154 159.803 162.832 160.136C162.51 160.466 162.113 160.723 161.639 160.909C161.166 161.091 160.634 161.182 160.043 161.182ZM171.078 154.227L169.873 154.568C169.798 154.367 169.686 154.172 169.538 153.983C169.394 153.79 169.197 153.631 168.947 153.506C168.697 153.381 168.377 153.318 167.987 153.318C167.453 153.318 167.008 153.441 166.652 153.688C166.299 153.93 166.123 154.239 166.123 154.614C166.123 154.947 166.245 155.21 166.487 155.403C166.729 155.597 167.108 155.758 167.623 155.886L168.919 156.205C169.699 156.394 170.28 156.684 170.663 157.074C171.046 157.46 171.237 157.958 171.237 158.568C171.237 159.068 171.093 159.515 170.805 159.909C170.521 160.303 170.123 160.614 169.612 160.841C169.101 161.068 168.506 161.182 167.828 161.182C166.938 161.182 166.201 160.989 165.618 160.602C165.034 160.216 164.665 159.652 164.51 158.909L165.782 158.591C165.904 159.061 166.133 159.413 166.47 159.648C166.811 159.883 167.256 160 167.805 160C168.43 160 168.926 159.867 169.294 159.602C169.665 159.333 169.851 159.011 169.851 158.636C169.851 158.333 169.745 158.08 169.532 157.875C169.32 157.667 168.995 157.511 168.555 157.409L167.101 157.068C166.301 156.879 165.714 156.585 165.339 156.188C164.968 155.786 164.782 155.284 164.782 154.682C164.782 154.189 164.921 153.754 165.197 153.375C165.477 152.996 165.858 152.699 166.339 152.483C166.824 152.267 167.373 152.159 167.987 152.159C168.851 152.159 169.529 152.348 170.021 152.727C170.517 153.106 170.87 153.606 171.078 154.227ZM178.637 154.227L177.433 154.568C177.357 154.367 177.245 154.172 177.097 153.983C176.954 153.79 176.757 153.631 176.507 153.506C176.257 153.381 175.936 153.318 175.546 153.318C175.012 153.318 174.567 153.441 174.211 153.688C173.859 153.93 173.683 154.239 173.683 154.614C173.683 154.947 173.804 155.21 174.046 155.403C174.289 155.597 174.668 155.758 175.183 155.886L176.478 156.205C177.258 156.394 177.84 156.684 178.222 157.074C178.605 157.46 178.796 157.958 178.796 158.568C178.796 159.068 178.652 159.515 178.364 159.909C178.08 160.303 177.683 160.614 177.171 160.841C176.66 161.068 176.065 161.182 175.387 161.182C174.497 161.182 173.76 160.989 173.177 160.602C172.594 160.216 172.224 159.652 172.069 158.909L173.342 158.591C173.463 159.061 173.692 159.413 174.029 159.648C174.37 159.883 174.815 160 175.364 160C175.989 160 176.486 159.867 176.853 159.602C177.224 159.333 177.41 159.011 177.41 158.636C177.41 158.333 177.304 158.08 177.092 157.875C176.88 157.667 176.554 157.511 176.114 157.409L174.66 157.068C173.861 156.879 173.274 156.585 172.899 156.188C172.527 155.786 172.342 155.284 172.342 154.682C172.342 154.189 172.48 153.754 172.757 153.375C173.037 152.996 173.418 152.699 173.899 152.483C174.383 152.267 174.933 152.159 175.546 152.159C176.41 152.159 177.088 152.348 177.58 152.727C178.077 153.106 178.429 153.606 178.637 154.227Z" fill="#747474"/>
<path d="M53.5 152.669V161.25C53.5 162.907 54.8432 164.25 56.5 164.25H71.5C73.1569 164.25 74.5 162.907 74.5 161.25V152.669L65.5723 158.163C64.6081 158.756 63.3919 158.756 62.4277 158.163L53.5 152.669Z" fill="#567FEF"/>
<path d="M74.5 150.908V150.75C74.5 149.093 73.1569 147.75 71.5 147.75H56.5C54.8432 147.75 53.5 149.093 53.5 150.75V150.908L63.2139 156.886C63.696 157.182 64.304 157.182 64.7861 156.886L74.5 150.908Z" fill="#567FEF"/>
<path d="M63.7727 101.273C63.7045 100.697 63.428 100.25 62.9432 99.9318C62.4583 99.6136 61.8636 99.4545 61.1591 99.4545C60.6439 99.4545 60.1932 99.5379 59.8068 99.7045C59.4242 99.8712 59.125 100.1 58.9091 100.392C58.697 100.684 58.5909 101.015 58.5909 101.386C58.5909 101.697 58.6648 101.964 58.8125 102.188C58.964 102.407 59.1572 102.591 59.392 102.739C59.6269 102.883 59.8731 103.002 60.1307 103.097C60.3883 103.187 60.625 103.261 60.8409 103.318L62.0227 103.636C62.3258 103.716 62.6629 103.826 63.0341 103.966C63.4091 104.106 63.767 104.297 64.108 104.54C64.4527 104.778 64.7367 105.085 64.9602 105.46C65.1837 105.835 65.2955 106.295 65.2955 106.841C65.2955 107.47 65.1307 108.038 64.8011 108.545C64.4754 109.053 63.9981 109.456 63.3693 109.756C62.7443 110.055 61.9848 110.205 61.0909 110.205C60.2576 110.205 59.536 110.07 58.9261 109.801C58.3201 109.532 57.8428 109.157 57.4943 108.676C57.1496 108.195 56.9545 107.636 56.9091 107H58.3636C58.4015 107.439 58.5492 107.803 58.8068 108.091C59.0682 108.375 59.3977 108.587 59.7955 108.727C60.197 108.864 60.6288 108.932 61.0909 108.932C61.6288 108.932 62.1117 108.845 62.5398 108.67C62.9678 108.492 63.3068 108.246 63.5568 107.932C63.8068 107.614 63.9318 107.242 63.9318 106.818C63.9318 106.432 63.8239 106.117 63.608 105.875C63.392 105.633 63.108 105.436 62.7557 105.284C62.4034 105.133 62.0227 105 61.6136 104.886L60.1818 104.477C59.2727 104.216 58.553 103.843 58.0227 103.358C57.4924 102.873 57.2273 102.239 57.2273 101.455C57.2273 100.803 57.4034 100.235 57.7557 99.75C58.1117 99.2614 58.589 98.8826 59.1875 98.6136C59.7898 98.3409 60.4621 98.2045 61.2045 98.2045C61.9545 98.2045 62.6212 98.339 63.2045 98.608C63.7879 98.8731 64.25 99.2367 64.5909 99.6989C64.9356 100.161 65.1174 100.686 65.1364 101.273H63.7727ZM66.6304 110V101.273H67.9713V110H66.6304ZM67.3122 99.8182C67.0509 99.8182 66.8255 99.7292 66.6361 99.5511C66.4505 99.3731 66.3577 99.1591 66.3577 98.9091C66.3577 98.6591 66.4505 98.4451 66.6361 98.267C66.8255 98.089 67.0509 98 67.3122 98C67.5736 98 67.7971 98.089 67.9827 98.267C68.1721 98.4451 68.2668 98.6591 68.2668 98.9091C68.2668 99.1591 68.1721 99.3731 67.9827 99.5511C67.7971 99.7292 67.5736 99.8182 67.3122 99.8182ZM73.15 113.455C72.5023 113.455 71.9455 113.371 71.4795 113.205C71.0136 113.042 70.6254 112.826 70.3148 112.557C70.008 112.292 69.7636 112.008 69.5818 111.705L70.65 110.955C70.7712 111.114 70.9246 111.295 71.1102 111.5C71.2958 111.708 71.5496 111.888 71.8716 112.04C72.1973 112.195 72.6235 112.273 73.15 112.273C73.8545 112.273 74.436 112.102 74.8943 111.761C75.3527 111.42 75.5818 110.886 75.5818 110.159V108.386H75.4682C75.3697 108.545 75.2295 108.742 75.0477 108.977C74.8697 109.208 74.6121 109.415 74.275 109.597C73.9417 109.775 73.4909 109.864 72.9227 109.864C72.2182 109.864 71.5856 109.697 71.025 109.364C70.4682 109.03 70.0269 108.545 69.7011 107.909C69.3792 107.273 69.2182 106.5 69.2182 105.591C69.2182 104.697 69.3754 103.919 69.6898 103.256C70.0042 102.589 70.4417 102.074 71.0023 101.71C71.5629 101.343 72.2106 101.159 72.9455 101.159C73.5136 101.159 73.9644 101.254 74.2977 101.443C74.6348 101.629 74.8924 101.841 75.0705 102.08C75.2523 102.314 75.3924 102.508 75.4909 102.659H75.6273V101.273H76.9227V110.25C76.9227 111 76.7523 111.61 76.4114 112.08C76.0742 112.553 75.6197 112.9 75.0477 113.119C74.4795 113.343 73.847 113.455 73.15 113.455ZM73.1045 108.659C73.6424 108.659 74.097 108.536 74.4682 108.29C74.8394 108.044 75.1216 107.689 75.3148 107.227C75.508 106.765 75.6045 106.212 75.6045 105.568C75.6045 104.939 75.5098 104.384 75.3205 103.903C75.1311 103.422 74.8508 103.045 74.4795 102.773C74.1083 102.5 73.65 102.364 73.1045 102.364C72.5364 102.364 72.0629 102.508 71.6841 102.795C71.3091 103.083 71.0269 103.47 70.8375 103.955C70.6519 104.439 70.5591 104.977 70.5591 105.568C70.5591 106.174 70.6538 106.71 70.8432 107.176C71.0364 107.638 71.3205 108.002 71.6955 108.267C72.0742 108.528 72.5439 108.659 73.1045 108.659ZM79.9182 104.75V110H78.5773V101.273H79.8727V102.636H79.9864C80.1909 102.193 80.5015 101.837 80.9182 101.568C81.3348 101.295 81.8727 101.159 82.5318 101.159C83.1227 101.159 83.6398 101.28 84.083 101.523C84.5261 101.761 84.8708 102.125 85.117 102.614C85.3633 103.098 85.4864 103.712 85.4864 104.455V110H84.1455V104.545C84.1455 103.86 83.9674 103.326 83.6114 102.943C83.2553 102.557 82.7667 102.364 82.1455 102.364C81.7174 102.364 81.3348 102.456 80.9977 102.642C80.6644 102.828 80.4011 103.098 80.208 103.455C80.0148 103.811 79.9182 104.242 79.9182 104.75ZM90.8366 110V101.273H92.1776V110H90.8366ZM91.5185 99.8182C91.2571 99.8182 91.0317 99.7292 90.8423 99.5511C90.6567 99.3731 90.5639 99.1591 90.5639 98.9091C90.5639 98.6591 90.6567 98.4451 90.8423 98.267C91.0317 98.089 91.2571 98 91.5185 98C91.7798 98 92.0033 98.089 92.1889 98.267C92.3783 98.4451 92.473 98.6591 92.473 98.9091C92.473 99.1591 92.3783 99.3731 92.1889 99.5511C92.0033 99.7292 91.7798 99.8182 91.5185 99.8182ZM95.1744 104.75V110H93.8335V101.273H95.129V102.636H95.2426C95.4472 102.193 95.7578 101.837 96.1744 101.568C96.5911 101.295 97.129 101.159 97.7881 101.159C98.379 101.159 98.896 101.28 99.3392 101.523C99.7824 101.761 100.127 102.125 100.373 102.614C100.62 103.098 100.743 103.712 100.743 104.455V110H99.4017V104.545C99.4017 103.86 99.2237 103.326 98.8676 102.943C98.5116 102.557 98.0229 102.364 97.4017 102.364C96.9737 102.364 96.5911 102.456 96.254 102.642C95.9206 102.828 95.6574 103.098 95.4642 103.455C95.271 103.811 95.1744 104.242 95.1744 104.75ZM106.275 110V98.3636H107.616V102.659H107.729C107.828 102.508 107.964 102.314 108.138 102.08C108.316 101.841 108.57 101.629 108.9 101.443C109.233 101.254 109.684 101.159 110.252 101.159C110.987 101.159 111.635 101.343 112.195 101.71C112.756 102.078 113.193 102.598 113.508 103.273C113.822 103.947 113.979 104.742 113.979 105.659C113.979 106.583 113.822 107.384 113.508 108.062C113.193 108.737 112.758 109.259 112.201 109.631C111.644 109.998 111.002 110.182 110.275 110.182C109.714 110.182 109.265 110.089 108.928 109.903C108.591 109.714 108.332 109.5 108.15 109.261C107.968 109.019 107.828 108.818 107.729 108.659H107.57V110H106.275ZM107.593 105.636C107.593 106.295 107.689 106.877 107.883 107.381C108.076 107.881 108.358 108.273 108.729 108.557C109.1 108.837 109.555 108.977 110.093 108.977C110.654 108.977 111.121 108.83 111.496 108.534C111.875 108.235 112.159 107.833 112.349 107.33C112.542 106.822 112.638 106.258 112.638 105.636C112.638 105.023 112.544 104.47 112.354 103.977C112.169 103.481 111.886 103.089 111.508 102.801C111.133 102.509 110.661 102.364 110.093 102.364C109.547 102.364 109.089 102.502 108.718 102.778C108.347 103.051 108.066 103.434 107.877 103.926C107.688 104.415 107.593 104.985 107.593 105.636ZM115.782 113.273C115.554 113.273 115.352 113.254 115.174 113.216C114.996 113.182 114.872 113.148 114.804 113.114L115.145 111.932C115.471 112.015 115.759 112.045 116.009 112.023C116.259 112 116.48 111.888 116.674 111.688C116.871 111.491 117.05 111.17 117.213 110.727L117.463 110.045L114.236 101.273H115.691L118.1 108.227H118.191L120.6 101.273H122.054L118.35 111.273C118.183 111.723 117.977 112.097 117.73 112.392C117.484 112.691 117.198 112.913 116.872 113.057C116.55 113.201 116.187 113.273 115.782 113.273ZM132.224 106.432V101.273H133.565V110H132.224V108.523H132.133C131.929 108.966 131.611 109.343 131.179 109.653C130.747 109.96 130.201 110.114 129.542 110.114C128.997 110.114 128.512 109.994 128.088 109.756C127.664 109.513 127.33 109.15 127.088 108.665C126.845 108.176 126.724 107.561 126.724 106.818V101.273H128.065V106.727C128.065 107.364 128.243 107.871 128.599 108.25C128.959 108.629 129.417 108.818 129.974 108.818C130.307 108.818 130.646 108.733 130.991 108.562C131.34 108.392 131.631 108.131 131.866 107.778C132.105 107.426 132.224 106.977 132.224 106.432ZM141.403 103.227L140.198 103.568C140.123 103.367 140.011 103.172 139.863 102.983C139.719 102.79 139.522 102.631 139.272 102.506C139.022 102.381 138.702 102.318 138.312 102.318C137.778 102.318 137.333 102.441 136.977 102.688C136.624 102.93 136.448 103.239 136.448 103.614C136.448 103.947 136.57 104.21 136.812 104.403C137.054 104.597 137.433 104.758 137.948 104.886L139.244 105.205C140.024 105.394 140.605 105.684 140.988 106.074C141.371 106.46 141.562 106.958 141.562 107.568C141.562 108.068 141.418 108.515 141.13 108.909C140.846 109.303 140.448 109.614 139.937 109.841C139.426 110.068 138.831 110.182 138.153 110.182C137.263 110.182 136.526 109.989 135.943 109.602C135.359 109.216 134.99 108.652 134.835 107.909L136.107 107.591C136.229 108.061 136.458 108.413 136.795 108.648C137.136 108.883 137.581 109 138.13 109C138.755 109 139.251 108.867 139.619 108.602C139.99 108.333 140.176 108.011 140.176 107.636C140.176 107.333 140.07 107.08 139.857 106.875C139.645 106.667 139.32 106.511 138.88 106.409L137.426 106.068C136.626 105.879 136.039 105.585 135.664 105.188C135.293 104.786 135.107 104.284 135.107 103.682C135.107 103.189 135.246 102.754 135.522 102.375C135.802 101.996 136.183 101.699 136.664 101.483C137.149 101.267 137.698 101.159 138.312 101.159C139.176 101.159 139.854 101.348 140.346 101.727C140.842 102.106 141.195 102.606 141.403 103.227ZM142.78 110V101.273H144.121V110H142.78ZM143.462 99.8182C143.201 99.8182 142.975 99.7292 142.786 99.5511C142.6 99.3731 142.508 99.1591 142.508 98.9091C142.508 98.6591 142.6 98.4451 142.786 98.267C142.975 98.089 143.201 98 143.462 98C143.724 98 143.947 98.089 144.133 98.267C144.322 98.4451 144.417 98.6591 144.417 98.9091C144.417 99.1591 144.322 99.3731 144.133 99.5511C143.947 99.7292 143.724 99.8182 143.462 99.8182ZM147.118 104.75V110H145.777V101.273H147.073V102.636H147.186C147.391 102.193 147.702 101.837 148.118 101.568C148.535 101.295 149.073 101.159 149.732 101.159C150.323 101.159 150.84 101.28 151.283 101.523C151.726 101.761 152.071 102.125 152.317 102.614C152.563 103.098 152.686 103.712 152.686 104.455V110H151.345V104.545C151.345 103.86 151.167 103.326 150.811 102.943C150.455 102.557 149.967 102.364 149.345 102.364C148.917 102.364 148.535 102.456 148.198 102.642C147.864 102.828 147.601 103.098 147.408 103.455C147.215 103.811 147.118 104.242 147.118 104.75ZM157.859 113.455C157.212 113.455 156.655 113.371 156.189 113.205C155.723 113.042 155.335 112.826 155.024 112.557C154.717 112.292 154.473 112.008 154.291 111.705L155.359 110.955C155.481 111.114 155.634 111.295 155.82 111.5C156.005 111.708 156.259 111.888 156.581 112.04C156.907 112.195 157.333 112.273 157.859 112.273C158.564 112.273 159.145 112.102 159.604 111.761C160.062 111.42 160.291 110.886 160.291 110.159V108.386H160.178C160.079 108.545 159.939 108.742 159.757 108.977C159.579 109.208 159.321 109.415 158.984 109.597C158.651 109.775 158.2 109.864 157.632 109.864C156.928 109.864 156.295 109.697 155.734 109.364C155.178 109.03 154.736 108.545 154.411 107.909C154.089 107.273 153.928 106.5 153.928 105.591C153.928 104.697 154.085 103.919 154.399 103.256C154.714 102.589 155.151 102.074 155.712 101.71C156.272 101.343 156.92 101.159 157.655 101.159C158.223 101.159 158.674 101.254 159.007 101.443C159.344 101.629 159.602 101.841 159.78 102.08C159.962 102.314 160.102 102.508 160.2 102.659H160.337V101.273H161.632V110.25C161.632 111 161.462 111.61 161.121 112.08C160.784 112.553 160.329 112.9 159.757 113.119C159.189 113.343 158.556 113.455 157.859 113.455ZM157.814 108.659C158.352 108.659 158.806 108.536 159.178 108.29C159.549 108.044 159.831 107.689 160.024 107.227C160.217 106.765 160.314 106.212 160.314 105.568C160.314 104.939 160.219 104.384 160.03 103.903C159.84 103.422 159.56 103.045 159.189 102.773C158.818 102.5 158.359 102.364 157.814 102.364C157.246 102.364 156.772 102.508 156.393 102.795C156.018 103.083 155.736 103.47 155.547 103.955C155.361 104.439 155.268 104.977 155.268 105.568C155.268 106.174 155.363 106.71 155.553 107.176C155.746 107.638 156.03 108.002 156.405 108.267C156.784 108.528 157.253 108.659 157.814 108.659ZM167.85 113.273C167.623 113.273 167.42 113.254 167.242 113.216C167.064 113.182 166.941 113.148 166.873 113.114L167.214 111.932C167.54 112.015 167.828 112.045 168.078 112.023C168.328 112 168.549 111.888 168.742 111.688C168.939 111.491 169.119 111.17 169.282 110.727L169.532 110.045L166.305 101.273H167.759L170.168 108.227H170.259L172.668 101.273H174.123L170.418 111.273C170.252 111.723 170.045 112.097 169.799 112.392C169.553 112.691 169.267 112.913 168.941 113.057C168.619 113.201 168.256 113.273 167.85 113.273ZM178.326 110.182C177.538 110.182 176.847 109.994 176.252 109.619C175.661 109.244 175.199 108.72 174.866 108.045C174.536 107.371 174.371 106.583 174.371 105.682C174.371 104.773 174.536 103.979 174.866 103.301C175.199 102.623 175.661 102.097 176.252 101.722C176.847 101.347 177.538 101.159 178.326 101.159C179.114 101.159 179.803 101.347 180.394 101.722C180.989 102.097 181.451 102.623 181.78 103.301C182.114 103.979 182.28 104.773 182.28 105.682C182.28 106.583 182.114 107.371 181.78 108.045C181.451 108.72 180.989 109.244 180.394 109.619C179.803 109.994 179.114 110.182 178.326 110.182ZM178.326 108.977C178.924 108.977 179.417 108.824 179.803 108.517C180.189 108.21 180.475 107.807 180.661 107.307C180.847 106.807 180.939 106.265 180.939 105.682C180.939 105.098 180.847 104.555 180.661 104.051C180.475 103.547 180.189 103.14 179.803 102.83C179.417 102.519 178.924 102.364 178.326 102.364C177.727 102.364 177.235 102.519 176.849 102.83C176.462 103.14 176.176 103.547 175.991 104.051C175.805 104.555 175.712 105.098 175.712 105.682C175.712 106.265 175.805 106.807 175.991 107.307C176.176 107.807 176.462 108.21 176.849 108.517C177.235 108.824 177.727 108.977 178.326 108.977ZM189.027 106.432V101.273H190.368V110H189.027V108.523H188.936C188.732 108.966 188.414 109.343 187.982 109.653C187.55 109.96 187.005 110.114 186.345 110.114C185.8 110.114 185.315 109.994 184.891 109.756C184.467 109.513 184.133 109.15 183.891 108.665C183.648 108.176 183.527 107.561 183.527 106.818V101.273H184.868V106.727C184.868 107.364 185.046 107.871 185.402 108.25C185.762 108.629 186.22 108.818 186.777 108.818C187.111 108.818 187.45 108.733 187.794 108.562C188.143 108.392 188.434 108.131 188.669 107.778C188.908 107.426 189.027 106.977 189.027 106.432ZM192.024 110V101.273H193.32V102.591H193.411C193.57 102.159 193.857 101.809 194.274 101.54C194.691 101.271 195.161 101.136 195.683 101.136C195.782 101.136 195.905 101.138 196.053 101.142C196.2 101.146 196.312 101.152 196.388 101.159V102.523C196.342 102.511 196.238 102.494 196.075 102.472C195.916 102.445 195.748 102.432 195.57 102.432C195.145 102.432 194.767 102.521 194.433 102.699C194.104 102.873 193.842 103.116 193.649 103.426C193.46 103.733 193.365 104.083 193.365 104.477V110H192.024ZM204.536 110.182C203.695 110.182 202.97 109.996 202.36 109.625C201.754 109.25 201.286 108.727 200.957 108.057C200.631 107.383 200.468 106.598 200.468 105.705C200.468 104.811 200.631 104.023 200.957 103.341C201.286 102.655 201.745 102.121 202.332 101.739C202.923 101.352 203.612 101.159 204.4 101.159C204.855 101.159 205.303 101.235 205.747 101.386C206.19 101.538 206.593 101.784 206.957 102.125C207.32 102.462 207.61 102.909 207.826 103.466C208.042 104.023 208.15 104.708 208.15 105.523V106.091H201.423V104.932H206.786C206.786 104.439 206.688 104 206.491 103.614C206.298 103.227 206.021 102.922 205.661 102.699C205.305 102.475 204.885 102.364 204.4 102.364C203.866 102.364 203.404 102.496 203.014 102.761C202.627 103.023 202.33 103.364 202.122 103.784C201.913 104.205 201.809 104.655 201.809 105.136V105.909C201.809 106.568 201.923 107.127 202.15 107.585C202.381 108.04 202.701 108.386 203.11 108.625C203.519 108.86 203.995 108.977 204.536 108.977C204.889 108.977 205.207 108.928 205.491 108.83C205.779 108.727 206.027 108.576 206.235 108.375C206.444 108.17 206.605 107.917 206.718 107.614L208.014 107.977C207.877 108.417 207.648 108.803 207.326 109.136C207.004 109.466 206.606 109.723 206.133 109.909C205.659 110.091 205.127 110.182 204.536 110.182ZM209.39 110V101.273H210.685V102.636H210.799C210.981 102.17 211.274 101.809 211.68 101.551C212.085 101.29 212.572 101.159 213.14 101.159C213.716 101.159 214.195 101.29 214.577 101.551C214.964 101.809 215.265 102.17 215.481 102.636H215.572C215.795 102.186 216.13 101.828 216.577 101.562C217.024 101.294 217.56 101.159 218.185 101.159C218.966 101.159 219.604 101.403 220.1 101.892C220.596 102.377 220.844 103.133 220.844 104.159V110H219.503V104.159C219.503 103.515 219.327 103.055 218.975 102.778C218.623 102.502 218.208 102.364 217.731 102.364C217.117 102.364 216.642 102.549 216.305 102.92C215.967 103.288 215.799 103.754 215.799 104.318V110H214.435V104.023C214.435 103.527 214.274 103.127 213.952 102.824C213.63 102.517 213.216 102.364 212.708 102.364C212.359 102.364 212.034 102.456 211.731 102.642C211.431 102.828 211.189 103.085 211.003 103.415C210.822 103.741 210.731 104.117 210.731 104.545V110H209.39ZM225.064 110.205C224.511 110.205 224.009 110.1 223.559 109.892C223.108 109.68 222.75 109.375 222.485 108.977C222.22 108.576 222.087 108.091 222.087 107.523C222.087 107.023 222.185 106.617 222.382 106.307C222.579 105.992 222.843 105.746 223.172 105.568C223.502 105.39 223.865 105.258 224.263 105.17C224.665 105.08 225.068 105.008 225.473 104.955C226.004 104.886 226.434 104.835 226.763 104.801C227.096 104.763 227.339 104.701 227.49 104.614C227.646 104.527 227.723 104.375 227.723 104.159V104.114C227.723 103.553 227.57 103.117 227.263 102.807C226.96 102.496 226.5 102.341 225.882 102.341C225.242 102.341 224.74 102.481 224.377 102.761C224.013 103.042 223.757 103.341 223.61 103.659L222.337 103.205C222.564 102.674 222.867 102.261 223.246 101.966C223.629 101.667 224.045 101.458 224.496 101.341C224.951 101.22 225.398 101.159 225.837 101.159C226.117 101.159 226.439 101.193 226.803 101.261C227.17 101.326 227.524 101.46 227.865 101.665C228.21 101.869 228.496 102.178 228.723 102.591C228.951 103.004 229.064 103.557 229.064 104.25V110H227.723V108.818H227.655C227.564 109.008 227.413 109.21 227.201 109.426C226.988 109.642 226.706 109.826 226.354 109.977C226.002 110.129 225.572 110.205 225.064 110.205ZM225.269 109C225.799 109 226.246 108.896 226.61 108.688C226.977 108.479 227.254 108.21 227.439 107.881C227.629 107.551 227.723 107.205 227.723 106.841V105.614C227.666 105.682 227.541 105.744 227.348 105.801C227.159 105.854 226.939 105.902 226.689 105.943C226.443 105.981 226.202 106.015 225.968 106.045C225.737 106.072 225.549 106.095 225.405 106.114C225.057 106.159 224.731 106.233 224.428 106.335C224.129 106.434 223.886 106.583 223.701 106.784C223.519 106.981 223.428 107.25 223.428 107.591C223.428 108.057 223.6 108.409 223.945 108.648C224.293 108.883 224.735 109 225.269 109ZM230.712 110V101.273H232.053V110H230.712ZM231.393 99.8182C231.132 99.8182 230.907 99.7292 230.717 99.5511C230.532 99.3731 230.439 99.1591 230.439 98.9091C230.439 98.6591 230.532 98.4451 230.717 98.267C230.907 98.089 231.132 98 231.393 98C231.655 98 231.878 98.089 232.064 98.267C232.253 98.4451 232.348 98.6591 232.348 98.9091C232.348 99.1591 232.253 99.3731 232.064 99.5511C231.878 99.7292 231.655 99.8182 231.393 99.8182ZM235.049 98.3636V110H233.709V98.3636H235.049ZM242.974 110.205C242.421 110.205 241.919 110.1 241.468 109.892C241.017 109.68 240.659 109.375 240.394 108.977C240.129 108.576 239.996 108.091 239.996 107.523C239.996 107.023 240.095 106.617 240.292 106.307C240.489 105.992 240.752 105.746 241.082 105.568C241.411 105.39 241.775 105.258 242.172 105.17C242.574 105.08 242.977 105.008 243.383 104.955C243.913 104.886 244.343 104.835 244.672 104.801C245.006 104.763 245.248 104.701 245.4 104.614C245.555 104.527 245.633 104.375 245.633 104.159V104.114C245.633 103.553 245.479 103.117 245.172 102.807C244.869 102.496 244.409 102.341 243.792 102.341C243.152 102.341 242.65 102.481 242.286 102.761C241.922 103.042 241.667 103.341 241.519 103.659L240.246 103.205C240.474 102.674 240.777 102.261 241.155 101.966C241.538 101.667 241.955 101.458 242.405 101.341C242.86 101.22 243.307 101.159 243.746 101.159C244.027 101.159 244.349 101.193 244.712 101.261C245.08 101.326 245.434 101.46 245.775 101.665C246.119 101.869 246.405 102.178 246.633 102.591C246.86 103.004 246.974 103.557 246.974 104.25V110H245.633V108.818H245.564C245.474 109.008 245.322 109.21 245.11 109.426C244.898 109.642 244.616 109.826 244.263 109.977C243.911 110.129 243.481 110.205 242.974 110.205ZM243.178 109C243.708 109 244.155 108.896 244.519 108.688C244.886 108.479 245.163 108.21 245.349 107.881C245.538 107.551 245.633 107.205 245.633 106.841V105.614C245.576 105.682 245.451 105.744 245.258 105.801C245.068 105.854 244.849 105.902 244.599 105.943C244.352 105.981 244.112 106.015 243.877 106.045C243.646 106.072 243.458 106.095 243.314 106.114C242.966 106.159 242.64 106.233 242.337 106.335C242.038 106.434 241.796 106.583 241.61 106.784C241.428 106.981 241.337 107.25 241.337 107.591C241.337 108.057 241.51 108.409 241.854 108.648C242.203 108.883 242.644 109 243.178 109ZM249.962 104.75V110H248.621V101.273H249.916V102.636H250.03C250.235 102.193 250.545 101.837 250.962 101.568C251.379 101.295 251.916 101.159 252.576 101.159C253.166 101.159 253.684 101.28 254.127 101.523C254.57 101.761 254.915 102.125 255.161 102.614C255.407 103.098 255.53 103.712 255.53 104.455V110H254.189V104.545C254.189 103.86 254.011 103.326 253.655 102.943C253.299 102.557 252.81 102.364 252.189 102.364C251.761 102.364 251.379 102.456 251.041 102.642C250.708 102.828 250.445 103.098 250.252 103.455C250.059 103.811 249.962 104.242 249.962 104.75ZM260.476 110.182C259.749 110.182 259.107 109.998 258.55 109.631C257.993 109.259 257.557 108.737 257.243 108.062C256.929 107.384 256.771 106.583 256.771 105.659C256.771 104.742 256.929 103.947 257.243 103.273C257.557 102.598 257.995 102.078 258.555 101.71C259.116 101.343 259.764 101.159 260.499 101.159C261.067 101.159 261.516 101.254 261.845 101.443C262.179 101.629 262.432 101.841 262.607 102.08C262.785 102.314 262.923 102.508 263.021 102.659H263.135V98.3636H264.476V110H263.18V108.659H263.021C262.923 108.818 262.783 109.019 262.601 109.261C262.419 109.5 262.16 109.714 261.822 109.903C261.485 110.089 261.036 110.182 260.476 110.182ZM260.658 108.977C261.196 108.977 261.65 108.837 262.021 108.557C262.393 108.273 262.675 107.881 262.868 107.381C263.061 106.877 263.158 106.295 263.158 105.636C263.158 104.985 263.063 104.415 262.874 103.926C262.684 103.434 262.404 103.051 262.033 102.778C261.661 102.502 261.203 102.364 260.658 102.364C260.089 102.364 259.616 102.509 259.237 102.801C258.862 103.089 258.58 103.481 258.391 103.977C258.205 104.47 258.112 105.023 258.112 105.636C258.112 106.258 258.207 106.822 258.396 107.33C258.589 107.833 258.874 108.235 259.249 108.534C259.627 108.83 260.097 108.977 260.658 108.977ZM270.018 113.273V101.273H271.313V102.659H271.472C271.571 102.508 271.707 102.314 271.882 102.08C272.06 101.841 272.313 101.629 272.643 101.443C272.976 101.254 273.427 101.159 273.995 101.159C274.73 101.159 275.378 101.343 275.938 101.71C276.499 102.078 276.936 102.598 277.251 103.273C277.565 103.947 277.722 104.742 277.722 105.659C277.722 106.583 277.565 107.384 277.251 108.062C276.936 108.737 276.501 109.259 275.944 109.631C275.387 109.998 274.745 110.182 274.018 110.182C273.457 110.182 273.008 110.089 272.671 109.903C272.334 109.714 272.075 109.5 271.893 109.261C271.711 109.019 271.571 108.818 271.472 108.659H271.359V113.273H270.018ZM271.336 105.636C271.336 106.295 271.433 106.877 271.626 107.381C271.819 107.881 272.101 108.273 272.472 108.557C272.844 108.837 273.298 108.977 273.836 108.977C274.397 108.977 274.864 108.83 275.239 108.534C275.618 108.235 275.902 107.833 276.092 107.33C276.285 106.822 276.382 106.258 276.382 105.636C276.382 105.023 276.287 104.47 276.097 103.977C275.912 103.481 275.63 103.089 275.251 102.801C274.876 102.509 274.404 102.364 273.836 102.364C273.291 102.364 272.832 102.502 272.461 102.778C272.09 103.051 271.81 103.434 271.62 103.926C271.431 104.415 271.336 104.985 271.336 105.636ZM281.536 110.205C280.983 110.205 280.481 110.1 280.03 109.892C279.58 109.68 279.222 109.375 278.957 108.977C278.691 108.576 278.559 108.091 278.559 107.523C278.559 107.023 278.657 106.617 278.854 106.307C279.051 105.992 279.314 105.746 279.644 105.568C279.974 105.39 280.337 105.258 280.735 105.17C281.136 105.08 281.54 105.008 281.945 104.955C282.475 104.886 282.905 104.835 283.235 104.801C283.568 104.763 283.811 104.701 283.962 104.614C284.118 104.527 284.195 104.375 284.195 104.159V104.114C284.195 103.553 284.042 103.117 283.735 102.807C283.432 102.496 282.972 102.341 282.354 102.341C281.714 102.341 281.212 102.481 280.849 102.761C280.485 103.042 280.229 103.341 280.082 103.659L278.809 103.205C279.036 102.674 279.339 102.261 279.718 101.966C280.1 101.667 280.517 101.458 280.968 101.341C281.422 101.22 281.869 101.159 282.309 101.159C282.589 101.159 282.911 101.193 283.275 101.261C283.642 101.326 283.996 101.46 284.337 101.665C284.682 101.869 284.968 102.178 285.195 102.591C285.422 103.004 285.536 103.557 285.536 104.25V110H284.195V108.818H284.127C284.036 109.008 283.885 109.21 283.672 109.426C283.46 109.642 283.178 109.826 282.826 109.977C282.474 110.129 282.044 110.205 281.536 110.205ZM281.741 109C282.271 109 282.718 108.896 283.082 108.688C283.449 108.479 283.725 108.21 283.911 107.881C284.1 107.551 284.195 107.205 284.195 106.841V105.614C284.138 105.682 284.013 105.744 283.82 105.801C283.631 105.854 283.411 105.902 283.161 105.943C282.915 105.981 282.674 106.015 282.439 106.045C282.208 106.072 282.021 106.095 281.877 106.114C281.529 106.159 281.203 106.233 280.9 106.335C280.6 106.434 280.358 106.583 280.172 106.784C279.991 106.981 279.9 107.25 279.9 107.591C279.9 108.057 280.072 108.409 280.417 108.648C280.765 108.883 281.207 109 281.741 109ZM293.365 103.227L292.161 103.568C292.085 103.367 291.973 103.172 291.826 102.983C291.682 102.79 291.485 102.631 291.235 102.506C290.985 102.381 290.665 102.318 290.274 102.318C289.74 102.318 289.295 102.441 288.939 102.688C288.587 102.93 288.411 103.239 288.411 103.614C288.411 103.947 288.532 104.21 288.774 104.403C289.017 104.597 289.396 104.758 289.911 104.886L291.206 105.205C291.987 105.394 292.568 105.684 292.951 106.074C293.333 106.46 293.524 106.958 293.524 107.568C293.524 108.068 293.38 108.515 293.093 108.909C292.809 109.303 292.411 109.614 291.899 109.841C291.388 110.068 290.793 110.182 290.115 110.182C289.225 110.182 288.488 109.989 287.905 109.602C287.322 109.216 286.952 108.652 286.797 107.909L288.07 107.591C288.191 108.061 288.42 108.413 288.757 108.648C289.098 108.883 289.543 109 290.093 109C290.718 109 291.214 108.867 291.581 108.602C291.952 108.333 292.138 108.011 292.138 107.636C292.138 107.333 292.032 107.08 291.82 106.875C291.608 106.667 291.282 106.511 290.843 106.409L289.388 106.068C288.589 105.879 288.002 105.585 287.627 105.188C287.255 104.786 287.07 104.284 287.07 103.682C287.07 103.189 287.208 102.754 287.485 102.375C287.765 101.996 288.146 101.699 288.627 101.483C289.112 101.267 289.661 101.159 290.274 101.159C291.138 101.159 291.816 101.348 292.309 101.727C292.805 102.106 293.157 102.606 293.365 103.227ZM300.925 103.227L299.72 103.568C299.644 103.367 299.533 103.172 299.385 102.983C299.241 102.79 299.044 102.631 298.794 102.506C298.544 102.381 298.224 102.318 297.834 102.318C297.3 102.318 296.855 102.441 296.499 102.688C296.146 102.93 295.97 103.239 295.97 103.614C295.97 103.947 296.091 104.21 296.334 104.403C296.576 104.597 296.955 104.758 297.47 104.886L298.766 105.205C299.546 105.394 300.127 105.684 300.51 106.074C300.893 106.46 301.084 106.958 301.084 107.568C301.084 108.068 300.94 108.515 300.652 108.909C300.368 109.303 299.97 109.614 299.459 109.841C298.947 110.068 298.353 110.182 297.675 110.182C296.785 110.182 296.048 109.989 295.464 109.602C294.881 109.216 294.512 108.652 294.357 107.909L295.629 107.591C295.75 108.061 295.98 108.413 296.317 108.648C296.658 108.883 297.103 109 297.652 109C298.277 109 298.773 108.867 299.141 108.602C299.512 108.333 299.697 108.011 299.697 107.636C299.697 107.333 299.591 107.08 299.379 106.875C299.167 106.667 298.841 106.511 298.402 106.409L296.947 106.068C296.148 105.879 295.561 105.585 295.186 105.188C294.815 104.786 294.629 104.284 294.629 103.682C294.629 103.189 294.768 102.754 295.044 102.375C295.324 101.996 295.705 101.699 296.186 101.483C296.671 101.267 297.22 101.159 297.834 101.159C298.697 101.159 299.375 101.348 299.868 101.727C300.364 102.106 300.716 102.606 300.925 103.227ZM304.28 110L301.62 101.273H303.03L304.916 107.955H305.007L306.87 101.273H308.302L310.143 107.932H310.234L312.12 101.273H313.53L310.87 110H309.552L307.643 103.295H307.507L305.598 110H304.28ZM317.751 110.182C316.963 110.182 316.272 109.994 315.677 109.619C315.086 109.244 314.624 108.72 314.291 108.045C313.961 107.371 313.796 106.583 313.796 105.682C313.796 104.773 313.961 103.979 314.291 103.301C314.624 102.623 315.086 102.097 315.677 101.722C316.272 101.347 316.963 101.159 317.751 101.159C318.539 101.159 319.228 101.347 319.819 101.722C320.414 102.097 320.876 102.623 321.205 103.301C321.539 103.979 321.705 104.773 321.705 105.682C321.705 106.583 321.539 107.371 321.205 108.045C320.876 108.72 320.414 109.244 319.819 109.619C319.228 109.994 318.539 110.182 317.751 110.182ZM317.751 108.977C318.349 108.977 318.842 108.824 319.228 108.517C319.614 108.21 319.9 107.807 320.086 107.307C320.272 106.807 320.364 106.265 320.364 105.682C320.364 105.098 320.272 104.555 320.086 104.051C319.9 103.547 319.614 103.14 319.228 102.83C318.842 102.519 318.349 102.364 317.751 102.364C317.152 102.364 316.66 102.519 316.274 102.83C315.887 103.14 315.601 103.547 315.416 104.051C315.23 104.555 315.137 105.098 315.137 105.682C315.137 106.265 315.23 106.807 315.416 107.307C315.601 107.807 315.887 108.21 316.274 108.517C316.66 108.824 317.152 108.977 317.751 108.977ZM322.952 110V101.273H324.248V102.591H324.339C324.498 102.159 324.786 101.809 325.202 101.54C325.619 101.271 326.089 101.136 326.611 101.136C326.71 101.136 326.833 101.138 326.981 101.142C327.128 101.146 327.24 101.152 327.316 101.159V102.523C327.27 102.511 327.166 102.494 327.003 102.472C326.844 102.445 326.676 102.432 326.498 102.432C326.073 102.432 325.695 102.521 325.361 102.699C325.032 102.873 324.77 103.116 324.577 103.426C324.388 103.733 324.293 104.083 324.293 104.477V110H322.952ZM331.135 110.182C330.408 110.182 329.766 109.998 329.209 109.631C328.652 109.259 328.217 108.737 327.902 108.062C327.588 107.384 327.431 106.583 327.431 105.659C327.431 104.742 327.588 103.947 327.902 103.273C328.217 102.598 328.654 102.078 329.215 101.71C329.775 101.343 330.423 101.159 331.158 101.159C331.726 101.159 332.175 101.254 332.505 101.443C332.838 101.629 333.092 101.841 333.266 102.08C333.444 102.314 333.582 102.508 333.681 102.659H333.794V98.3636H335.135V110H333.84V108.659H333.681C333.582 108.818 333.442 109.019 333.26 109.261C333.078 109.5 332.819 109.714 332.482 109.903C332.145 110.089 331.696 110.182 331.135 110.182ZM331.317 108.977C331.855 108.977 332.309 108.837 332.681 108.557C333.052 108.273 333.334 107.881 333.527 107.381C333.72 106.877 333.817 106.295 333.817 105.636C333.817 104.985 333.722 104.415 333.533 103.926C333.344 103.434 333.063 103.051 332.692 102.778C332.321 102.502 331.862 102.364 331.317 102.364C330.749 102.364 330.275 102.509 329.897 102.801C329.522 103.089 329.239 103.481 329.05 103.977C328.864 104.47 328.772 105.023 328.772 105.636C328.772 106.258 328.866 106.822 329.056 107.33C329.249 107.833 329.533 108.235 329.908 108.534C330.287 108.83 330.756 108.977 331.317 108.977ZM337.955 110.091C337.674 110.091 337.434 109.991 337.233 109.79C337.032 109.589 336.932 109.348 336.932 109.068C336.932 108.788 337.032 108.547 337.233 108.347C337.434 108.146 337.674 108.045 337.955 108.045C338.235 108.045 338.475 108.146 338.676 108.347C338.877 108.547 338.977 108.788 338.977 109.068C338.977 109.254 338.93 109.424 338.835 109.58C338.744 109.735 338.621 109.86 338.466 109.955C338.314 110.045 338.144 110.091 337.955 110.091Z" fill="#303030"/>
<path d="M113.392 62.4531C113.326 61.8329 113.047 61.3499 112.554 61.0043C112.066 60.6586 111.432 60.4858 110.651 60.4858C110.102 60.4858 109.63 60.5687 109.237 60.7344C108.844 60.9001 108.544 61.125 108.335 61.4091C108.127 61.6932 108.021 62.0175 108.016 62.3821C108.016 62.6851 108.084 62.9479 108.222 63.1705C108.364 63.393 108.556 63.5824 108.797 63.7386C109.039 63.8902 109.306 64.018 109.6 64.1222C109.893 64.2263 110.189 64.3139 110.487 64.3849L111.851 64.7259C112.4 64.8537 112.928 65.0265 113.435 65.2443C113.946 65.4621 114.403 65.7367 114.806 66.0682C115.213 66.3996 115.535 66.7997 115.771 67.2685C116.008 67.7372 116.127 68.2865 116.127 68.9162C116.127 69.7685 115.909 70.5189 115.473 71.1676C115.038 71.8116 114.408 72.3158 113.584 72.6804C112.765 73.0402 111.773 73.2202 110.608 73.2202C109.477 73.2202 108.494 73.045 107.661 72.6946C106.832 72.3442 106.183 71.8329 105.715 71.1605C105.251 70.4882 105 69.669 104.962 68.7031H107.554C107.592 69.2098 107.748 69.6312 108.023 69.9673C108.298 70.3035 108.655 70.5545 109.095 70.7202C109.54 70.8859 110.038 70.9688 110.587 70.9688C111.16 70.9688 111.662 70.8835 112.093 70.7131C112.528 70.5379 112.869 70.2964 113.115 69.9886C113.361 69.6761 113.487 69.3116 113.492 68.8949C113.487 68.5161 113.376 68.2036 113.158 67.9574C112.94 67.7064 112.635 67.4981 112.242 67.3324C111.853 67.1619 111.399 67.0104 110.878 66.8778L109.223 66.4517C108.025 66.1439 107.078 65.6776 106.382 65.0526C105.691 64.4228 105.345 63.5871 105.345 62.5455C105.345 61.6884 105.577 60.938 106.041 60.294C106.51 59.6501 107.147 59.1506 107.952 58.7955C108.757 58.4356 109.668 58.2557 110.686 58.2557C111.718 58.2557 112.623 58.4356 113.399 58.7955C114.181 59.1506 114.794 59.6454 115.239 60.2798C115.684 60.9096 115.914 61.634 115.928 62.4531H113.392ZM117.362 73V62.0909H119.933V73H117.362ZM118.655 60.5426C118.247 60.5426 117.897 60.4077 117.604 60.1378C117.31 59.8632 117.163 59.5341 117.163 59.1506C117.163 58.7623 117.31 58.4332 117.604 58.1634C117.897 57.8887 118.247 57.7514 118.655 57.7514C119.067 57.7514 119.417 57.8887 119.706 58.1634C119.999 58.4332 120.146 58.7623 120.146 59.1506C120.146 59.5341 119.999 59.8632 119.706 60.1378C119.417 60.4077 119.067 60.5426 118.655 60.5426ZM126.321 77.3182C125.398 77.3182 124.605 77.1927 123.942 76.9418C123.279 76.6955 122.746 76.3641 122.344 75.9474C121.941 75.5308 121.662 75.0691 121.506 74.5625L123.821 74.0014C123.925 74.2145 124.077 74.4252 124.276 74.6335C124.475 74.8466 124.742 75.0218 125.078 75.1591C125.419 75.3011 125.848 75.3722 126.364 75.3722C127.093 75.3722 127.697 75.1946 128.175 74.8395C128.653 74.4891 128.892 73.9115 128.892 73.1065V71.0398H128.764C128.632 71.3049 128.438 71.5772 128.182 71.8565C127.931 72.1359 127.597 72.3703 127.181 72.5597C126.769 72.7491 126.25 72.8438 125.625 72.8438C124.787 72.8438 124.027 72.6473 123.345 72.2543C122.668 71.8565 122.128 71.2647 121.726 70.4787C121.328 69.688 121.129 68.6984 121.129 67.5099C121.129 66.312 121.328 65.3011 121.726 64.4773C122.128 63.6487 122.671 63.0213 123.352 62.5952C124.034 62.1643 124.794 61.9489 125.632 61.9489C126.271 61.9489 126.797 62.0578 127.209 62.2756C127.626 62.4886 127.957 62.7467 128.203 63.0497C128.45 63.348 128.637 63.6297 128.764 63.8949H128.906V62.0909H131.442V73.1776C131.442 74.1103 131.219 74.8821 130.774 75.4929C130.329 76.1037 129.721 76.5606 128.949 76.8636C128.177 77.1667 127.301 77.3182 126.321 77.3182ZM126.343 70.8267C126.887 70.8267 127.351 70.6941 127.735 70.429C128.118 70.1638 128.409 69.7827 128.608 69.2855C128.807 68.7884 128.906 68.1918 128.906 67.4957C128.906 66.8092 128.807 66.2079 128.608 65.6918C128.414 65.1757 128.125 64.7756 127.742 64.4915C127.363 64.2027 126.896 64.0582 126.343 64.0582C125.77 64.0582 125.291 64.2074 124.908 64.5057C124.524 64.804 124.235 65.2135 124.041 65.7344C123.847 66.2505 123.75 66.8376 123.75 67.4957C123.75 68.1634 123.847 68.7481 124.041 69.25C124.24 69.7472 124.531 70.1354 124.915 70.4148C125.303 70.6894 125.779 70.8267 126.343 70.8267ZM135.648 66.608V73H133.077V62.0909H135.534V63.9446H135.662C135.913 63.3338 136.313 62.8485 136.862 62.4886C137.416 62.1288 138.101 61.9489 138.915 61.9489C139.668 61.9489 140.324 62.1098 140.882 62.4318C141.446 62.7538 141.881 63.2202 142.189 63.831C142.502 64.4418 142.655 65.1828 142.651 66.054V73H140.08V66.4517C140.08 65.7225 139.89 65.152 139.512 64.7401C139.137 64.3281 138.619 64.1222 137.956 64.1222C137.506 64.1222 137.106 64.2216 136.756 64.4205C136.41 64.6146 136.138 64.8963 135.939 65.2656C135.745 65.6349 135.648 66.0824 135.648 66.608ZM148.225 73V62.0909H150.796V73H148.225ZM149.518 60.5426C149.111 60.5426 148.76 60.4077 148.467 60.1378C148.173 59.8632 148.026 59.5341 148.026 59.1506C148.026 58.7623 148.173 58.4332 148.467 58.1634C148.76 57.8887 149.111 57.7514 149.518 57.7514C149.93 57.7514 150.28 57.8887 150.569 58.1634C150.863 58.4332 151.009 58.7623 151.009 59.1506C151.009 59.5341 150.863 59.8632 150.569 60.1378C150.28 60.4077 149.93 60.5426 149.518 60.5426ZM155.011 66.608V73H152.44V62.0909H154.898V63.9446H155.025C155.276 63.3338 155.676 62.8485 156.226 62.4886C156.78 62.1288 157.464 61.9489 158.278 61.9489C159.031 61.9489 159.687 62.1098 160.246 62.4318C160.809 62.7538 161.245 63.2202 161.552 63.831C161.865 64.4418 162.019 65.1828 162.014 66.054V73H159.443V66.4517C159.443 65.7225 159.254 65.152 158.875 64.7401C158.501 64.3281 157.982 64.1222 157.319 64.1222C156.87 64.1222 156.47 64.2216 156.119 64.4205C155.773 64.6146 155.501 64.8963 155.302 65.2656C155.108 65.6349 155.011 66.0824 155.011 66.608ZM173.036 62.0909V64.0795H166.765V62.0909H173.036ZM168.313 59.4773H170.884V69.7188C170.884 70.0644 170.936 70.3295 171.04 70.5142C171.149 70.6941 171.291 70.8172 171.466 70.8835C171.642 70.9498 171.836 70.983 172.049 70.983C172.21 70.983 172.357 70.9711 172.489 70.9474C172.626 70.9238 172.731 70.9025 172.802 70.8835L173.235 72.8935C173.098 72.9408 172.901 72.9929 172.645 73.0497C172.394 73.1065 172.087 73.1397 171.722 73.1491C171.078 73.1681 170.498 73.071 169.982 72.858C169.466 72.6402 169.056 72.304 168.753 71.8494C168.455 71.3949 168.308 70.8267 168.313 70.1449V59.4773ZM178.828 73.2131C177.762 73.2131 176.839 72.9787 176.058 72.5099C175.276 72.0412 174.67 71.3854 174.24 70.5426C173.813 69.6998 173.6 68.715 173.6 67.5881C173.6 66.4612 173.813 65.474 174.24 64.6264C174.67 63.7789 175.276 63.1207 176.058 62.652C176.839 62.1832 177.762 61.9489 178.828 61.9489C179.893 61.9489 180.816 62.1832 181.597 62.652C182.379 63.1207 182.982 63.7789 183.409 64.6264C183.839 65.474 184.055 66.4612 184.055 67.5881C184.055 68.715 183.839 69.6998 183.409 70.5426C182.982 71.3854 182.379 72.0412 181.597 72.5099C180.816 72.9787 179.893 73.2131 178.828 73.2131ZM178.842 71.1534C179.419 71.1534 179.902 70.9948 180.291 70.6776C180.679 70.3556 180.968 69.9247 181.157 69.3849C181.351 68.8452 181.448 68.2438 181.448 67.581C181.448 66.9134 181.351 66.3097 181.157 65.7699C180.968 65.2254 180.679 64.7921 180.291 64.4702C179.902 64.1482 179.419 63.9872 178.842 63.9872C178.25 63.9872 177.758 64.1482 177.365 64.4702C176.976 64.7921 176.685 65.2254 176.491 65.7699C176.302 66.3097 176.207 66.9134 176.207 67.581C176.207 68.2438 176.302 68.8452 176.491 69.3849C176.685 69.9247 176.976 70.3556 177.365 70.6776C177.758 70.9948 178.25 71.1534 178.842 71.1534ZM190.796 77.0909C190.446 77.0909 190.121 77.0625 189.823 77.0057C189.529 76.9536 189.295 76.892 189.12 76.821L189.716 74.8182C190.09 74.9271 190.424 74.9792 190.718 74.9744C191.011 74.9697 191.269 74.8774 191.492 74.6974C191.719 74.5223 191.911 74.2287 192.067 73.8168L192.287 73.2273L188.331 62.0909H191.059L193.573 70.3295H193.687L196.208 62.0909H198.942L194.574 74.321C194.371 74.8987 194.101 75.3935 193.765 75.8054C193.429 76.2221 193.017 76.5393 192.529 76.7571C192.046 76.9796 191.468 77.0909 190.796 77.0909ZM204.109 73.2131C203.044 73.2131 202.12 72.9787 201.339 72.5099C200.558 72.0412 199.952 71.3854 199.521 70.5426C199.095 69.6998 198.882 68.715 198.882 67.5881C198.882 66.4612 199.095 65.474 199.521 64.6264C199.952 63.7789 200.558 63.1207 201.339 62.652C202.12 62.1832 203.044 61.9489 204.109 61.9489C205.174 61.9489 206.097 62.1832 206.879 62.652C207.66 63.1207 208.264 63.7789 208.69 64.6264C209.121 65.474 209.336 66.4612 209.336 67.5881C209.336 68.715 209.121 69.6998 208.69 70.5426C208.264 71.3854 207.66 72.0412 206.879 72.5099C206.097 72.9787 205.174 73.2131 204.109 73.2131ZM204.123 71.1534C204.701 71.1534 205.184 70.9948 205.572 70.6776C205.96 70.3556 206.249 69.9247 206.438 69.3849C206.633 68.8452 206.73 68.2438 206.73 67.581C206.73 66.9134 206.633 66.3097 206.438 65.7699C206.249 65.2254 205.96 64.7921 205.572 64.4702C205.184 64.1482 204.701 63.9872 204.123 63.9872C203.531 63.9872 203.039 64.1482 202.646 64.4702C202.258 64.7921 201.966 65.2254 201.772 65.7699C201.583 66.3097 201.488 66.9134 201.488 67.581C201.488 68.2438 201.583 68.8452 201.772 69.3849C201.966 69.9247 202.258 70.3556 202.646 70.6776C203.039 70.9948 203.531 71.1534 204.123 71.1534ZM217.471 68.4119V62.0909H220.042V73H217.55V71.0611H217.436C217.19 71.6719 216.785 72.1714 216.221 72.5597C215.663 72.9479 214.974 73.142 214.155 73.142C213.44 73.142 212.808 72.9834 212.258 72.6662C211.714 72.3442 211.288 71.8778 210.98 71.267C210.672 70.6515 210.518 69.9081 210.518 69.0369V62.0909H213.089V68.6392C213.089 69.3305 213.279 69.8797 213.657 70.2869C214.036 70.6941 214.533 70.8977 215.149 70.8977C215.528 70.8977 215.895 70.8054 216.25 70.6207C216.605 70.4361 216.896 70.1615 217.123 69.7969C217.355 69.4276 217.471 68.9659 217.471 68.4119ZM221.686 73V62.0909H224.179V63.9091H224.293C224.492 63.2794 224.833 62.794 225.316 62.4531C225.803 62.1075 226.36 61.9347 226.985 61.9347C227.127 61.9347 227.285 61.9418 227.46 61.956C227.64 61.9654 227.789 61.982 227.908 62.0057V64.3707C227.799 64.3329 227.626 64.2997 227.389 64.2713C227.157 64.2382 226.932 64.2216 226.715 64.2216C226.246 64.2216 225.825 64.3234 225.45 64.527C225.081 64.7259 224.79 65.0028 224.577 65.358C224.364 65.7131 224.257 66.1226 224.257 66.5866V73H221.686ZM235.716 73.2202C235.025 73.2202 234.402 73.0971 233.848 72.8509C233.299 72.5999 232.863 72.2306 232.541 71.7429C232.224 71.2552 232.066 70.6539 232.066 69.9389C232.066 69.3234 232.179 68.8144 232.406 68.4119C232.634 68.0095 232.944 67.6875 233.337 67.446C233.73 67.2045 234.173 67.0223 234.665 66.8991C235.162 66.7713 235.676 66.679 236.206 66.6222C236.845 66.5559 237.364 66.4967 237.762 66.4446C238.159 66.3878 238.448 66.3026 238.628 66.1889C238.813 66.0705 238.905 65.8883 238.905 65.642V65.5994C238.905 65.0644 238.746 64.6501 238.429 64.3565C238.112 64.063 237.655 63.9162 237.058 63.9162C236.429 63.9162 235.929 64.0535 235.56 64.3281C235.195 64.6027 234.949 64.9271 234.821 65.3011L232.421 64.9602C232.61 64.2973 232.923 63.7434 233.358 63.2983C233.794 62.8485 234.326 62.5123 234.956 62.2898C235.586 62.0625 236.282 61.9489 237.044 61.9489C237.57 61.9489 238.093 62.0104 238.614 62.1335C239.135 62.2566 239.61 62.4602 240.041 62.7443C240.472 63.0237 240.818 63.4048 241.078 63.8878C241.343 64.3707 241.476 64.9744 241.476 65.6989V73H239.004V71.5014H238.919C238.763 71.8045 238.543 72.0885 238.259 72.3537C237.979 72.6141 237.627 72.8248 237.2 72.9858C236.779 73.142 236.284 73.2202 235.716 73.2202ZM236.384 71.331C236.9 71.331 237.347 71.2292 237.726 71.0256C238.105 70.8172 238.396 70.5426 238.6 70.2017C238.808 69.8608 238.912 69.4891 238.912 69.0866V67.8011C238.832 67.8674 238.694 67.929 238.5 67.9858C238.311 68.0426 238.098 68.0923 237.861 68.1349C237.624 68.1776 237.39 68.2154 237.158 68.2486C236.926 68.2817 236.725 68.3101 236.554 68.3338C236.171 68.3859 235.827 68.4711 235.524 68.5895C235.221 68.7079 234.982 68.8736 234.807 69.0866C234.632 69.295 234.544 69.5649 234.544 69.8963C234.544 70.3698 234.717 70.7273 235.063 70.9688C235.408 71.2102 235.849 71.331 236.384 71.331ZM247.82 73.2131C246.731 73.2131 245.796 72.974 245.014 72.4957C244.238 72.0175 243.639 71.357 243.218 70.5142C242.801 69.6667 242.593 68.6913 242.593 67.5881C242.593 66.4801 242.806 65.5024 243.232 64.6548C243.658 63.8026 244.259 63.1397 245.036 62.6662C245.817 62.188 246.74 61.9489 247.806 61.9489C248.691 61.9489 249.475 62.1122 250.156 62.4389C250.843 62.7609 251.39 63.2178 251.797 63.8097C252.204 64.3968 252.436 65.0833 252.493 65.8693H250.036C249.936 65.3437 249.7 64.9058 249.325 64.5554C248.956 64.2003 248.461 64.0227 247.841 64.0227C247.316 64.0227 246.854 64.1648 246.456 64.4489C246.058 64.7282 245.748 65.1307 245.526 65.6562C245.308 66.1818 245.199 66.8116 245.199 67.5455C245.199 68.2888 245.308 68.928 245.526 69.4631C245.744 69.9934 246.049 70.4029 246.442 70.6918C246.84 70.9759 247.306 71.1179 247.841 71.1179C248.22 71.1179 248.558 71.0469 248.857 70.9048C249.16 70.758 249.413 70.5473 249.617 70.2727C249.82 69.9981 249.96 69.6643 250.036 69.2713H252.493C252.432 70.0431 252.204 70.7273 251.811 71.3239C251.418 71.9157 250.883 72.3797 250.206 72.7159C249.529 73.0473 248.734 73.2131 247.82 73.2131ZM258.363 73.2131C257.274 73.2131 256.339 72.974 255.557 72.4957C254.781 72.0175 254.182 71.357 253.76 70.5142C253.344 69.6667 253.135 68.6913 253.135 67.5881C253.135 66.4801 253.349 65.5024 253.775 64.6548C254.201 63.8026 254.802 63.1397 255.579 62.6662C256.36 62.188 257.283 61.9489 258.349 61.9489C259.234 61.9489 260.018 62.1122 260.699 62.4389C261.386 62.7609 261.933 63.2178 262.34 63.8097C262.747 64.3968 262.979 65.0833 263.036 65.8693H260.579C260.479 65.3437 260.242 64.9058 259.868 64.5554C259.499 64.2003 259.004 64.0227 258.384 64.0227C257.858 64.0227 257.397 64.1648 256.999 64.4489C256.601 64.7282 256.291 65.1307 256.069 65.6562C255.851 66.1818 255.742 66.8116 255.742 67.5455C255.742 68.2888 255.851 68.928 256.069 69.4631C256.287 69.9934 256.592 70.4029 256.985 70.6918C257.383 70.9759 257.849 71.1179 258.384 71.1179C258.763 71.1179 259.101 71.0469 259.4 70.9048C259.703 70.758 259.956 70.5473 260.16 70.2727C260.363 69.9981 260.503 69.6643 260.579 69.2713H263.036C262.974 70.0431 262.747 70.7273 262.354 71.3239C261.961 71.9157 261.426 72.3797 260.749 72.7159C260.072 73.0473 259.277 73.2131 258.363 73.2131ZM268.906 73.2131C267.84 73.2131 266.917 72.9787 266.136 72.5099C265.355 72.0412 264.749 71.3854 264.318 70.5426C263.892 69.6998 263.678 68.715 263.678 67.5881C263.678 66.4612 263.892 65.474 264.318 64.6264C264.749 63.7789 265.355 63.1207 266.136 62.652C266.917 62.1832 267.84 61.9489 268.906 61.9489C269.971 61.9489 270.894 62.1832 271.676 62.652C272.457 63.1207 273.061 63.7789 273.487 64.6264C273.918 65.474 274.133 66.4612 274.133 67.5881C274.133 68.715 273.918 69.6998 273.487 70.5426C273.061 71.3854 272.457 72.0412 271.676 72.5099C270.894 72.9787 269.971 73.2131 268.906 73.2131ZM268.92 71.1534C269.498 71.1534 269.981 70.9948 270.369 70.6776C270.757 70.3556 271.046 69.9247 271.235 69.3849C271.429 68.8452 271.526 68.2438 271.526 67.581C271.526 66.9134 271.429 66.3097 271.235 65.7699C271.046 65.2254 270.757 64.7921 270.369 64.4702C269.981 64.1482 269.498 63.9872 268.92 63.9872C268.328 63.9872 267.836 64.1482 267.443 64.4702C267.054 64.7921 266.763 65.2254 266.569 65.7699C266.38 66.3097 266.285 66.9134 266.285 67.581C266.285 68.2438 266.38 68.8452 266.569 69.3849C266.763 69.9247 267.054 70.3556 267.443 70.6776C267.836 70.9948 268.328 71.1534 268.92 71.1534ZM282.268 68.4119V62.0909H284.839V73H282.346V71.0611H282.233C281.987 71.6719 281.582 72.1714 281.018 72.5597C280.46 72.9479 279.771 73.142 278.952 73.142C278.237 73.142 277.604 72.9834 277.055 72.6662C276.511 72.3442 276.085 71.8778 275.777 71.267C275.469 70.6515 275.315 69.9081 275.315 69.0369V62.0909H277.886V68.6392C277.886 69.3305 278.076 69.8797 278.454 70.2869C278.833 70.6941 279.33 70.8977 279.946 70.8977C280.325 70.8977 280.692 70.8054 281.047 70.6207C281.402 70.4361 281.693 70.1615 281.92 69.7969C282.152 69.4276 282.268 68.9659 282.268 68.4119ZM289.054 66.608V73H286.483V62.0909H288.941V63.9446H289.068C289.319 63.3338 289.719 62.8485 290.269 62.4886C290.823 62.1288 291.507 61.9489 292.321 61.9489C293.074 61.9489 293.73 62.1098 294.289 62.4318C294.852 62.7538 295.288 63.2202 295.595 63.831C295.908 64.4418 296.062 65.1828 296.057 66.054V73H293.486V66.4517C293.486 65.7225 293.297 65.152 292.918 64.7401C292.544 64.3281 292.025 64.1222 291.362 64.1222C290.913 64.1222 290.512 64.2216 290.162 64.4205C289.816 64.6146 289.544 64.8963 289.345 65.2656C289.151 65.6349 289.054 66.0824 289.054 66.608ZM303.118 62.0909V64.0795H296.847V62.0909H303.118ZM298.395 59.4773H300.966V69.7188C300.966 70.0644 301.018 70.3295 301.122 70.5142C301.231 70.6941 301.373 70.8172 301.548 70.8835C301.724 70.9498 301.918 70.983 302.131 70.983C302.292 70.983 302.439 70.9711 302.571 70.9474C302.709 70.9238 302.813 70.9025 302.884 70.8835L303.317 72.8935C303.18 72.9408 302.983 72.9929 302.727 73.0497C302.477 73.1065 302.169 73.1397 301.804 73.1491C301.16 73.1681 300.58 73.071 300.064 72.858C299.548 72.6402 299.138 72.304 298.835 71.8494C298.537 71.3949 298.39 70.8267 298.395 70.1449V59.4773Z" fill="#567FEF"/>
<rect x="0.5" y="0.5" width="407" height="387" rx="7.5" stroke="white" stroke-opacity="0.1"/>
<defs>
<filter id="filter0_d_64_1485" x="20" y="22" width="368" height="348" filterUnits="userSpaceOnUse" color-interpolation-filters="sRGB">
<feFlood flood-opacity="0" result="BackgroundImageFix"/>
<feColorMatrix in="SourceAlpha" type="matrix" values="0 0 0 0 0 0 0 0 0 0 0 0 0 0 0 0 0 0 127 0" result="hardAlpha"/>
<feOffset dy="2"/>
<feGaussianBlur stdDeviation="2"/>
<feComposite in2="hardAlpha" operator="out"/>
<feColorMatrix type="matrix" values="0 0 0 0 0 0 0 0 0 0 0 0 0 0 0 0 0 0 0.2 0"/>
<feBlend mode="normal" in2="BackgroundImageFix" result="effect1_dropShadow_64_1485"/>
<feBlend mode="normal" in="SourceGraphic" in2="effect1_dropShadow_64_1485" result="shape"/>
</filter>
</defs>
</svg>
