<svg width="256" height="123" viewBox="0 0 256 123" fill="none" xmlns="http://www.w3.org/2000/svg">
<rect width="256" height="123" rx="8" fill="#F0F0F0"/>
<path d="M41.0682 47.1591C40.5909 47.1515 40.1136 47.0606 39.6364 46.8864C39.1591 46.7121 38.7235 46.4186 38.3295 46.0057C37.9356 45.589 37.6193 45.0265 37.3807 44.3182C37.142 43.6061 37.0227 42.7121 37.0227 41.6364C37.0227 40.6061 37.1193 39.6932 37.3125 38.8977C37.5057 38.0985 37.786 37.4261 38.1534 36.8807C38.5208 36.3314 38.964 35.9148 39.483 35.6307C40.0057 35.3466 40.5947 35.2045 41.25 35.2045C41.9015 35.2045 42.4811 35.3352 42.9886 35.5966C43.5 35.8542 43.9167 36.214 44.2386 36.6761C44.5606 37.1383 44.7689 37.6705 44.8636 38.2727H43.4773C43.3485 37.75 43.0985 37.3163 42.7273 36.9716C42.3561 36.6269 41.8636 36.4545 41.25 36.4545C40.3485 36.4545 39.6383 36.8466 39.1193 37.6307C38.6042 38.4148 38.3447 39.5152 38.3409 40.9318H38.4318C38.6439 40.6098 38.8958 40.3352 39.1875 40.108C39.483 39.8769 39.8087 39.6989 40.1648 39.5739C40.5208 39.4489 40.8977 39.3864 41.2955 39.3864C41.9621 39.3864 42.572 39.553 43.125 39.8864C43.678 40.2159 44.1212 40.6723 44.4545 41.2557C44.7879 41.8352 44.9545 42.5 44.9545 43.25C44.9545 43.9697 44.7936 44.6288 44.4716 45.2273C44.1496 45.822 43.697 46.2955 43.1136 46.6477C42.5341 46.9962 41.8523 47.1667 41.0682 47.1591ZM41.0682 45.9091C41.5455 45.9091 41.9735 45.7898 42.3523 45.5511C42.7348 45.3125 43.036 44.9924 43.2557 44.5909C43.4792 44.1894 43.5909 43.7424 43.5909 43.25C43.5909 42.7689 43.483 42.3314 43.267 41.9375C43.0549 41.5398 42.7614 41.2235 42.3864 40.9886C42.0152 40.7538 41.5909 40.6364 41.1136 40.6364C40.7538 40.6364 40.4186 40.7083 40.108 40.8523C39.7973 40.9924 39.5246 41.1856 39.2898 41.4318C39.0587 41.678 38.8769 41.9602 38.7443 42.2784C38.6117 42.5928 38.5455 42.9242 38.5455 43.2727C38.5455 43.7348 38.6534 44.1667 38.8693 44.5682C39.089 44.9697 39.3883 45.2936 39.767 45.5398C40.1496 45.786 40.5833 45.9091 41.0682 45.9091ZM46.1162 44.6136V43.4545L51.2298 35.3636H52.0707V37.1591H51.5026L47.6389 43.2727V43.3636H54.5253V44.6136H46.1162ZM51.5935 47V44.2614V43.7216V35.3636H52.9344V47H51.5935ZM67.7136 39C67.5886 38.6174 67.4239 38.2746 67.2193 37.9716C67.0186 37.6648 66.778 37.4034 66.4977 37.1875C66.2212 36.9716 65.9068 36.8068 65.5545 36.6932C65.2023 36.5795 64.8159 36.5227 64.3955 36.5227C63.7061 36.5227 63.0792 36.7008 62.5148 37.0568C61.9504 37.4129 61.5015 37.9375 61.1682 38.6307C60.8348 39.3239 60.6682 40.1742 60.6682 41.1818C60.6682 42.1894 60.8367 43.0398 61.1739 43.733C61.511 44.4261 61.9674 44.9508 62.5432 45.3068C63.1189 45.6629 63.7667 45.8409 64.4864 45.8409C65.153 45.8409 65.7402 45.6989 66.2477 45.4148C66.7591 45.1269 67.1568 44.7216 67.4409 44.1989C67.7288 43.6723 67.8727 43.053 67.8727 42.3409L68.3045 42.4318H64.8045V41.1818H69.2364V42.4318C69.2364 43.3902 69.0318 44.2235 68.6227 44.9318C68.2174 45.6402 67.6568 46.1894 66.9409 46.5795C66.2288 46.9659 65.4106 47.1591 64.4864 47.1591C63.4561 47.1591 62.5508 46.9167 61.7705 46.4318C60.9939 45.947 60.3879 45.2576 59.9523 44.3636C59.5205 43.4697 59.3045 42.4091 59.3045 41.1818C59.3045 40.2614 59.4277 39.4337 59.6739 38.6989C59.9239 37.9602 60.2761 37.3314 60.7307 36.8125C61.1852 36.2936 61.7231 35.8958 62.3443 35.6193C62.9655 35.3428 63.6492 35.2045 64.3955 35.2045C65.0091 35.2045 65.5811 35.2973 66.1114 35.483C66.6455 35.6648 67.1208 35.9242 67.5375 36.2614C67.958 36.5947 68.3083 36.9943 68.5886 37.4602C68.8689 37.9223 69.0621 38.4356 69.1682 39H67.7136ZM70.8497 47V35.3636H74.9179C75.7285 35.3636 76.3971 35.5038 76.9236 35.7841C77.4501 36.0606 77.8421 36.4337 78.0997 36.9034C78.3573 37.3693 78.4861 37.8864 78.4861 38.4545C78.4861 38.9545 78.3971 39.3674 78.219 39.6932C78.0448 40.0189 77.8137 40.2765 77.5259 40.4659C77.2418 40.6553 76.933 40.7955 76.5997 40.8864V41C76.9558 41.0227 77.3137 41.1477 77.6736 41.375C78.0334 41.6023 78.3346 41.928 78.577 42.3523C78.8194 42.7765 78.9406 43.2955 78.9406 43.9091C78.9406 44.4924 78.808 45.017 78.5429 45.483C78.2777 45.9489 77.8592 46.3182 77.2872 46.5909C76.7152 46.8636 75.9709 47 75.0543 47H70.8497ZM72.2588 45.75H75.0543C75.9747 45.75 76.6281 45.572 77.0145 45.2159C77.4046 44.8561 77.5997 44.4205 77.5997 43.9091C77.5997 43.5152 77.4993 43.1515 77.2986 42.8182C77.0978 42.4811 76.8118 42.2121 76.4406 42.0114C76.0694 41.8068 75.63 41.7045 75.1224 41.7045H72.2588V45.75ZM72.2588 40.4773H74.8724C75.2967 40.4773 75.6793 40.3939 76.0202 40.2273C76.3649 40.0606 76.6376 39.8258 76.8384 39.5227C77.0429 39.2197 77.1452 38.8636 77.1452 38.4545C77.1452 37.9432 76.9671 37.5095 76.6111 37.1534C76.255 36.7936 75.6906 36.6136 74.9179 36.6136H72.2588V40.4773Z" fill="#303030"/>
<rect x="24.5" y="24.5" width="67" height="34" rx="3.5" stroke="#303030"/>
<rect x="100" y="24" width="74" height="35" rx="4" fill="#0E9AFF"/>
<path d="M117.295 35.3636V47H115.886V36.8409H115.818L112.977 38.7273V37.2955L115.886 35.3636H117.295ZM119.842 47V45.9773L123.683 41.7727C124.134 41.2803 124.505 40.8523 124.797 40.4886C125.088 40.1212 125.304 39.7765 125.444 39.4545C125.588 39.1288 125.66 38.7879 125.66 38.4318C125.66 38.0227 125.562 37.6686 125.365 37.3693C125.172 37.0701 124.906 36.839 124.569 36.6761C124.232 36.5133 123.853 36.4318 123.433 36.4318C122.986 36.4318 122.596 36.5246 122.262 36.7102C121.933 36.892 121.677 37.1477 121.495 37.4773C121.317 37.8068 121.228 38.1932 121.228 38.6364H119.887C119.887 37.9545 120.045 37.3561 120.359 36.8409C120.673 36.3258 121.102 35.9242 121.643 35.6364C122.189 35.3485 122.8 35.2045 123.478 35.2045C124.16 35.2045 124.764 35.3485 125.291 35.6364C125.817 35.9242 126.23 36.3125 126.53 36.8011C126.829 37.2898 126.978 37.8333 126.978 38.4318C126.978 38.8598 126.901 39.2784 126.745 39.6875C126.594 40.0928 126.329 40.5455 125.95 41.0455C125.575 41.5417 125.054 42.1477 124.387 42.8636L121.774 45.6591V45.75H127.183V47H119.842ZM132.457 47.1591C131.677 47.1591 130.987 47.0208 130.389 46.7443C129.794 46.464 129.33 46.0795 128.997 45.5909C128.663 45.0985 128.498 44.5379 128.502 43.9091C128.498 43.4167 128.595 42.9621 128.792 42.5455C128.989 42.125 129.258 41.7746 129.599 41.4943C129.944 41.2102 130.328 41.0303 130.752 40.9545V40.8864C130.195 40.7424 129.752 40.4299 129.423 39.9489C129.093 39.464 128.93 38.9129 128.934 38.2955C128.93 37.7045 129.08 37.1761 129.383 36.7102C129.686 36.2443 130.103 35.8769 130.633 35.608C131.167 35.339 131.775 35.2045 132.457 35.2045C133.131 35.2045 133.733 35.339 134.264 35.608C134.794 35.8769 135.211 36.2443 135.514 36.7102C135.82 37.1761 135.976 37.7045 135.98 38.2955C135.976 38.9129 135.807 39.464 135.474 39.9489C135.144 40.4299 134.707 40.7424 134.161 40.8864V40.9545C134.582 41.0303 134.961 41.2102 135.298 41.4943C135.635 41.7746 135.904 42.125 136.105 42.5455C136.305 42.9621 136.408 43.4167 136.411 43.9091C136.408 44.5379 136.237 45.0985 135.9 45.5909C135.567 46.0795 135.103 46.464 134.508 46.7443C133.917 47.0208 133.233 47.1591 132.457 47.1591ZM132.457 45.9091C132.983 45.9091 133.438 45.8239 133.82 45.6534C134.203 45.483 134.498 45.2424 134.707 44.9318C134.915 44.6212 135.021 44.2576 135.025 43.8409C135.021 43.4015 134.908 43.0133 134.684 42.6761C134.461 42.339 134.156 42.0739 133.769 41.8807C133.387 41.6875 132.949 41.5909 132.457 41.5909C131.961 41.5909 131.517 41.6875 131.127 41.8807C130.741 42.0739 130.436 42.339 130.212 42.6761C129.993 43.0133 129.885 43.4015 129.889 43.8409C129.885 44.2576 129.985 44.6212 130.19 44.9318C130.398 45.2424 130.695 45.483 131.082 45.6534C131.468 45.8239 131.927 45.9091 132.457 45.9091ZM132.457 40.3864C132.873 40.3864 133.243 40.303 133.565 40.1364C133.891 39.9697 134.146 39.7367 134.332 39.4375C134.517 39.1383 134.612 38.7879 134.616 38.3864C134.612 37.9924 134.519 37.6496 134.337 37.358C134.156 37.0625 133.904 36.8352 133.582 36.6761C133.26 36.5133 132.885 36.4318 132.457 36.4318C132.021 36.4318 131.641 36.5133 131.315 36.6761C130.989 36.8352 130.737 37.0625 130.559 37.358C130.381 37.6496 130.294 37.9924 130.298 38.3864C130.294 38.7879 130.383 39.1383 130.565 39.4375C130.75 39.7367 131.006 39.9697 131.332 40.1364C131.658 40.303 132.033 40.3864 132.457 40.3864ZM149.648 39C149.523 38.6174 149.358 38.2746 149.154 37.9716C148.953 37.6648 148.712 37.4034 148.432 37.1875C148.156 36.9716 147.841 36.8068 147.489 36.6932C147.137 36.5795 146.75 36.5227 146.33 36.5227C145.64 36.5227 145.014 36.7008 144.449 37.0568C143.885 37.4129 143.436 37.9375 143.103 38.6307C142.769 39.3239 142.603 40.1742 142.603 41.1818C142.603 42.1894 142.771 43.0398 143.108 43.733C143.445 44.4261 143.902 44.9508 144.478 45.3068C145.053 45.6629 145.701 45.8409 146.421 45.8409C147.087 45.8409 147.675 45.6989 148.182 45.4148C148.693 45.1269 149.091 44.7216 149.375 44.1989C149.663 43.6723 149.807 43.053 149.807 42.3409L150.239 42.4318H146.739V41.1818H151.171V42.4318C151.171 43.3902 150.966 44.2235 150.557 44.9318C150.152 45.6402 149.591 46.1894 148.875 46.5795C148.163 46.9659 147.345 47.1591 146.421 47.1591C145.39 47.1591 144.485 46.9167 143.705 46.4318C142.928 45.947 142.322 45.2576 141.887 44.3636C141.455 43.4697 141.239 42.4091 141.239 41.1818C141.239 40.2614 141.362 39.4337 141.608 38.6989C141.858 37.9602 142.211 37.3314 142.665 36.8125C143.12 36.2936 143.657 35.8958 144.279 35.6193C144.9 35.3428 145.584 35.2045 146.33 35.2045C146.943 35.2045 147.515 35.2973 148.046 35.483C148.58 35.6648 149.055 35.9242 149.472 36.2614C149.892 36.5947 150.243 36.9943 150.523 37.4602C150.803 37.9223 150.996 38.4356 151.103 39H149.648ZM152.784 47V35.3636H156.852C157.663 35.3636 158.331 35.5038 158.858 35.7841C159.384 36.0606 159.777 36.4337 160.034 36.9034C160.292 37.3693 160.42 37.8864 160.42 38.4545C160.42 38.9545 160.331 39.3674 160.153 39.6932C159.979 40.0189 159.748 40.2765 159.46 40.4659C159.176 40.6553 158.867 40.7955 158.534 40.8864V41C158.89 41.0227 159.248 41.1477 159.608 41.375C159.968 41.6023 160.269 41.928 160.511 42.3523C160.754 42.7765 160.875 43.2955 160.875 43.9091C160.875 44.4924 160.742 45.017 160.477 45.483C160.212 45.9489 159.794 46.3182 159.222 46.5909C158.65 46.8636 157.905 47 156.989 47H152.784ZM154.193 45.75H156.989C157.909 45.75 158.563 45.572 158.949 45.2159C159.339 44.8561 159.534 44.4205 159.534 43.9091C159.534 43.5152 159.434 43.1515 159.233 42.8182C159.032 42.4811 158.746 42.2121 158.375 42.0114C158.004 41.8068 157.564 41.7045 157.057 41.7045H154.193V45.75ZM154.193 40.4773H156.807C157.231 40.4773 157.614 40.3939 157.955 40.2273C158.299 40.0606 158.572 39.8258 158.773 39.5227C158.977 39.2197 159.08 38.8636 159.08 38.4545C159.08 37.9432 158.902 37.5095 158.545 37.1534C158.189 36.7936 157.625 36.6136 156.852 36.6136H154.193V40.4773Z" fill="white"/>
<rect x="24.5" y="75.5" width="31" height="23" rx="3.5" fill="#303030" stroke="#303030"/>
<path d="M33.2245 81.8182L35.8495 86.054H35.929L38.554 81.8182H40.0057L36.804 86.9091L40.0057 92H38.554L35.929 87.8438H35.8495L33.2245 92H31.7728L35.054 86.9091L31.7728 81.8182H33.2245ZM46.4785 84.3636C46.4188 83.8598 46.1769 83.4688 45.7526 83.1903C45.3284 82.9119 44.808 82.7727 44.1915 82.7727C43.7408 82.7727 43.3464 82.8456 43.0083 82.9915C42.6736 83.1373 42.4117 83.3378 42.2228 83.593C42.0372 83.8482 41.9444 84.1383 41.9444 84.4631C41.9444 84.7348 42.009 84.9685 42.1383 85.1641C42.2709 85.3563 42.4399 85.517 42.6454 85.6463C42.8509 85.7723 43.0663 85.8767 43.2917 85.9595C43.5171 86.0391 43.7242 86.1037 43.9131 86.1534L44.9472 86.4318C45.2124 86.5014 45.5074 86.5975 45.8322 86.7202C46.1603 86.8428 46.4735 87.0102 46.7718 87.2223C47.0734 87.4311 47.322 87.6996 47.5175 88.0277C47.7131 88.3558 47.8109 88.7585 47.8109 89.2358C47.8109 89.786 47.6667 90.2831 47.3783 90.7273C47.0933 91.1714 46.6757 91.5244 46.1255 91.7862C45.5786 92.0481 44.9141 92.179 44.1319 92.179C43.4027 92.179 42.7713 92.0613 42.2377 91.826C41.7074 91.5907 41.2898 91.2625 40.9849 90.8416C40.6833 90.4207 40.5126 89.9318 40.4728 89.375H41.7455C41.7787 89.7595 41.9079 90.0777 42.1333 90.3295C42.362 90.5781 42.6504 90.7637 42.9984 90.8864C43.3497 91.0057 43.7275 91.0653 44.1319 91.0653C44.6025 91.0653 45.0251 90.9891 45.3996 90.8366C45.7742 90.6809 46.0708 90.4654 46.2896 90.1903C46.5083 89.9119 46.6177 89.5871 46.6177 89.2159C46.6177 88.8778 46.5232 88.6027 46.3343 88.3906C46.1454 88.1785 45.8968 88.0062 45.5886 87.8736C45.2803 87.741 44.9472 87.625 44.5893 87.5256L43.3364 87.1676C42.541 86.9389 41.9112 86.6125 41.4472 86.1882C40.9832 85.764 40.7512 85.2088 40.7512 84.5227C40.7512 83.9527 40.9053 83.4555 41.2136 83.0312C41.5251 82.6037 41.9427 82.2723 42.4664 82.0369C42.9934 81.7983 43.5817 81.679 44.2313 81.679C44.8876 81.679 45.4709 81.7966 45.9813 82.032C46.4917 82.264 46.8961 82.5821 47.1944 82.9865C47.496 83.3909 47.6551 83.8499 47.6717 84.3636H46.4785Z" fill="white"/>
<rect x="60.5" y="75.5" width="31" height="23" rx="3.5" stroke="#303030"/>
<path d="M78.8373 84.3636C78.7776 83.8598 78.5357 83.4688 78.1114 83.1903C77.6872 82.9119 77.1668 82.7727 76.5503 82.7727C76.0996 82.7727 75.7052 82.8456 75.3671 82.9915C75.0323 83.1373 74.7705 83.3378 74.5816 83.593C74.396 83.8482 74.3032 84.1383 74.3032 84.4631C74.3032 84.7348 74.3678 84.9685 74.4971 85.1641C74.6296 85.3563 74.7987 85.517 75.0042 85.6463C75.2097 85.7723 75.4251 85.8767 75.6505 85.9595C75.8759 86.0391 76.083 86.1037 76.2719 86.1534L77.306 86.4318C77.5712 86.5014 77.8662 86.5975 78.191 86.7202C78.5191 86.8428 78.8323 87.0102 79.1306 87.2223C79.4322 87.4311 79.6808 87.6996 79.8763 88.0277C80.0719 88.3558 80.1697 88.7585 80.1697 89.2358C80.1697 89.786 80.0255 90.2831 79.7371 90.7273C79.4521 91.1714 79.0345 91.5244 78.4843 91.7862C77.9374 92.0481 77.2729 92.179 76.4907 92.179C75.7615 92.179 75.1301 92.0613 74.5965 91.826C74.0662 91.5907 73.6486 91.2625 73.3437 90.8416C73.0421 90.4207 72.8714 89.9318 72.8316 89.375H74.1043C74.1375 89.7595 74.2667 90.0777 74.4921 90.3295C74.7208 90.5781 75.0091 90.7637 75.3572 90.8864C75.7085 91.0057 76.0863 91.0653 76.4907 91.0653C76.9613 91.0653 77.3839 90.9891 77.7584 90.8366C78.133 90.6809 78.4296 90.4654 78.6483 90.1903C78.8671 89.9119 78.9765 89.5871 78.9765 89.2159C78.9765 88.8778 78.882 88.6027 78.6931 88.3906C78.5042 88.1785 78.2556 88.0062 77.9474 87.8736C77.6391 87.741 77.306 87.625 76.9481 87.5256L75.6952 87.1676C74.8998 86.9389 74.27 86.6125 73.806 86.1882C73.342 85.764 73.11 85.2088 73.11 84.5227C73.11 83.9527 73.2641 83.4555 73.5724 83.0312C73.8839 82.6037 74.3015 82.2723 74.8252 82.0369C75.3522 81.7983 75.9405 81.679 76.5901 81.679C77.2464 81.679 77.8297 81.7966 78.3401 82.032C78.8505 82.264 79.2549 82.5821 79.5532 82.9865C79.8548 83.3909 80.0139 83.8499 80.0305 84.3636H78.8373Z" fill="#303030"/>
<rect x="96.5" y="75.5" width="31" height="23" rx="3.5" stroke="#303030"/>
<path d="M107.505 81.8182H108.977L112.437 90.2699H112.557L116.017 81.8182H117.488V92H116.335V84.2642H116.236L113.054 92H111.94L108.758 84.2642H108.659V92H107.505V81.8182Z" fill="#303030"/>
<rect x="132.5" y="75.5" width="31" height="23" rx="3.5" stroke="#303030"/>
<path d="M145.295 92V81.8182H146.528V90.9062H151.261V92H145.295Z" fill="#303030"/>
<rect x="0.5" y="0.5" width="255" height="122" rx="7.5" stroke="white" stroke-opacity="0.1"/>
</svg>
