<svg width="256" height="108" viewBox="0 0 256 108" fill="none" xmlns="http://www.w3.org/2000/svg">
<rect width="256" height="108" rx="8" fill="#F0F0F0"/>
<rect x="22.5" y="22.5" width="19" height="19" rx="9.5" stroke="#303030"/>
<rect x="24.5" y="24.5" width="15" height="15" rx="7.5" fill="#FF0E48" stroke="#D9D9D9"/>
<rect x="48.5" y="24.5" width="15" height="15" rx="7.5" fill="#0E9AFF" stroke="#D9D9D9"/>
<rect x="72.5" y="24.5" width="15" height="15" rx="7.5" fill="white" stroke="#D9D9D9"/>
<rect x="96.5" y="24.5" width="15" height="15" rx="7.5" fill="#303030" stroke="#D9D9D9"/>
<rect x="50.5" y="62.5" width="23" height="23" rx="3.5" stroke="#303030"/>
<rect x="24.5" y="64.5" width="19" height="19" rx="3.5" fill="#FF0E48" stroke="#D9D9D9"/>
<rect x="52.5" y="64.5" width="19" height="19" rx="3.5" fill="#0E9AFF" stroke="#D9D9D9"/>
<rect x="80.5" y="64.5" width="19" height="19" rx="3.5" fill="white" stroke="#D9D9D9"/>
<rect x="108.5" y="64.5" width="19" height="19" rx="3.5" fill="#303030" stroke="#D9D9D9"/>
<rect x="0.5" y="0.5" width="255" height="107" rx="7.5" stroke="white" stroke-opacity="0.1"/>
</svg>
