<svg width="256" height="108" viewBox="0 0 256 108" fill="none" xmlns="http://www.w3.org/2000/svg">
<rect width="256" height="108" rx="8" fill="#F0F0F0"/>
<rect x="24.5" y="24.5" width="15" height="15" rx="7.5" fill="#FF0E48" stroke="#D9D9D9"/>
<rect x="46.5" y="24.5" width="15" height="15" rx="7.5" fill="#0E9AFF" stroke="#D9D9D9"/>
<rect x="68.5" y="24.5" width="15" height="15" rx="7.5" fill="white" stroke="#D9D9D9"/>
<rect x="90.5" y="24.5" width="15" height="15" rx="7.5" fill="#303030" stroke="#D9D9D9"/>
<path d="M31.1528 34.394L28.6919 31.9331L28.6919 31.933C28.4478 31.6891 28.0522 31.6891 27.8081 31.933L27.8081 31.9331C27.564 32.1772 27.564 32.5729 27.8081 32.817L27.8081 32.817L30.8081 35.817L30.8081 35.817C30.9404 35.9493 31.1252 36.0155 31.3115 35.997C31.3116 35.997 31.3116 35.997 31.3116 35.997L31.1528 34.394ZM31.1528 34.394L35.23 28.2784C35.4214 27.9911 35.8095 27.9135 36.0967 28.105C36.3839 28.2965 36.4615 28.6845 36.27 28.9717L31.77 35.7217M31.1528 34.394L31.77 35.7217M31.77 35.7217C31.77 35.7217 31.77 35.7217 31.77 35.7217L31.77 35.7217Z" fill="white" stroke="#D9D9D9" stroke-width="0.5"/>
<rect x="24.5" y="64.5" width="19" height="19" rx="3.5" fill="#FF0E48" stroke="#D9D9D9"/>
<rect x="50.5" y="64.5" width="19" height="19" rx="3.5" fill="#0E9AFF" stroke="#D9D9D9"/>
<rect x="76.5" y="64.5" width="19" height="19" rx="3.5" fill="white" stroke="#D9D9D9"/>
<rect x="102.5" y="64.5" width="19" height="19" rx="3.5" fill="#303030" stroke="#D9D9D9"/>
<path d="M58.8834 77.3229L55.5303 73.9697L55.5303 73.9697C55.2374 73.6769 54.7626 73.6769 54.4697 73.9697L54.4697 73.9697C54.1768 74.2626 54.1768 74.7375 54.4697 75.0304L54.4697 75.0304L58.4697 79.0304L58.4697 79.0304C58.6285 79.1892 58.8502 79.2686 59.0739 79.2464C59.0739 79.2464 59.0739 79.2464 59.074 79.2464L58.8834 77.3229ZM58.8834 77.3229L64.376 69.084C64.376 69.084 64.376 69.084 64.376 69.084C64.6057 68.7394 65.0714 68.6463 65.416 68.876C65.7607 69.1058 65.8538 69.5714 65.624 69.9161L58.8834 77.3229ZM59.624 78.916C59.624 78.916 59.624 78.9161 59.624 78.9161L59.624 78.916ZM59.624 78.916L65.624 69.9161L59.624 78.916Z" fill="white" stroke="#D9D9D9" stroke-width="0.5"/>
<rect x="0.5" y="0.5" width="255" height="107" rx="7.5" stroke="white" stroke-opacity="0.1"/>
</svg>
