<svg width="792" height="288" viewBox="0 0 792 288" fill="none" xmlns="http://www.w3.org/2000/svg">
<rect width="792" height="288" rx="8" fill="#F0F0F0"/>
<g filter="url(#filter0_d_103_105)">
<rect x="24" y="24" width="360" height="240" rx="16" fill="white"/>
</g>
<path d="M150.159 145H148.045C147.92 144.392 147.702 143.858 147.389 143.398C147.082 142.938 146.707 142.551 146.264 142.239C145.827 141.92 145.341 141.682 144.807 141.523C144.273 141.364 143.716 141.284 143.136 141.284C142.08 141.284 141.122 141.551 140.264 142.085C139.412 142.619 138.733 143.406 138.227 144.446C137.727 145.486 137.477 146.761 137.477 148.273C137.477 149.784 137.727 151.06 138.227 152.099C138.733 153.139 139.412 153.926 140.264 154.46C141.122 154.994 142.08 155.261 143.136 155.261C143.716 155.261 144.273 155.182 144.807 155.023C145.341 154.864 145.827 154.628 146.264 154.315C146.707 153.997 147.082 153.608 147.389 153.148C147.702 152.682 147.92 152.148 148.045 151.545H150.159C150 152.437 149.71 153.236 149.29 153.94C148.869 154.645 148.347 155.244 147.722 155.739C147.097 156.227 146.395 156.599 145.616 156.855C144.844 157.111 144.017 157.239 143.136 157.239C141.648 157.239 140.324 156.875 139.165 156.148C138.006 155.42 137.094 154.386 136.429 153.045C135.764 151.705 135.432 150.114 135.432 148.273C135.432 146.432 135.764 144.841 136.429 143.5C137.094 142.159 138.006 141.125 139.165 140.398C140.324 139.67 141.648 139.307 143.136 139.307C144.017 139.307 144.844 139.435 145.616 139.69C146.395 139.946 147.097 140.321 147.722 140.815C148.347 141.304 148.869 141.901 149.29 142.605C149.71 143.304 150 144.102 150.159 145ZM155.954 157.307C155.125 157.307 154.372 157.151 153.696 156.838C153.019 156.52 152.483 156.062 152.085 155.466C151.687 154.864 151.488 154.136 151.488 153.284C151.488 152.534 151.636 151.926 151.931 151.46C152.227 150.989 152.622 150.619 153.116 150.352C153.61 150.085 154.156 149.886 154.752 149.756C155.355 149.619 155.96 149.511 156.568 149.432C157.363 149.33 158.008 149.253 158.502 149.202C159.002 149.145 159.366 149.051 159.593 148.92C159.826 148.79 159.943 148.562 159.943 148.239V148.17C159.943 147.33 159.713 146.676 159.252 146.21C158.798 145.744 158.108 145.511 157.181 145.511C156.221 145.511 155.468 145.722 154.923 146.142C154.377 146.562 153.994 147.011 153.772 147.489L151.863 146.807C152.204 146.011 152.659 145.392 153.227 144.949C153.801 144.5 154.426 144.187 155.102 144.011C155.784 143.83 156.454 143.739 157.113 143.739C157.534 143.739 158.017 143.79 158.562 143.892C159.113 143.989 159.644 144.19 160.156 144.497C160.673 144.804 161.102 145.267 161.443 145.886C161.784 146.506 161.954 147.335 161.954 148.375V157H159.943V155.227H159.84C159.704 155.511 159.477 155.815 159.159 156.139C158.84 156.463 158.417 156.739 157.889 156.966C157.36 157.193 156.715 157.307 155.954 157.307ZM156.261 155.5C157.056 155.5 157.727 155.344 158.272 155.031C158.823 154.719 159.238 154.315 159.517 153.821C159.801 153.327 159.943 152.807 159.943 152.261V150.42C159.858 150.523 159.67 150.616 159.38 150.702C159.096 150.781 158.767 150.852 158.392 150.915C158.022 150.972 157.662 151.023 157.309 151.068C156.963 151.108 156.681 151.142 156.465 151.17C155.943 151.239 155.454 151.349 155 151.503C154.551 151.651 154.187 151.875 153.909 152.176C153.636 152.472 153.5 152.875 153.5 153.386C153.5 154.085 153.758 154.614 154.275 154.972C154.798 155.324 155.46 155.5 156.261 155.5ZM164.425 157V143.909H166.368V145.886H166.505C166.743 145.239 167.175 144.713 167.8 144.31C168.425 143.906 169.13 143.705 169.914 143.705C170.062 143.705 170.246 143.707 170.468 143.713C170.689 143.719 170.857 143.727 170.971 143.739V145.784C170.903 145.767 170.746 145.741 170.502 145.707C170.263 145.668 170.011 145.648 169.743 145.648C169.107 145.648 168.539 145.781 168.039 146.048C167.545 146.31 167.153 146.673 166.863 147.139C166.579 147.599 166.437 148.125 166.437 148.716V157H164.425ZM176.7 157.273C175.609 157.273 174.646 156.997 173.811 156.446C172.975 155.889 172.322 155.105 171.85 154.094C171.379 153.077 171.143 151.875 171.143 150.489C171.143 149.114 171.379 147.92 171.85 146.909C172.322 145.898 172.978 145.116 173.819 144.565C174.66 144.014 175.632 143.739 176.734 143.739C177.586 143.739 178.259 143.881 178.754 144.165C179.254 144.443 179.634 144.761 179.896 145.119C180.163 145.472 180.37 145.761 180.518 145.989H180.688V139.545H182.7V157H180.757V154.989H180.518C180.37 155.227 180.16 155.528 179.887 155.892C179.614 156.25 179.225 156.571 178.72 156.855C178.214 157.134 177.541 157.273 176.7 157.273ZM176.972 155.466C177.779 155.466 178.461 155.256 179.018 154.835C179.575 154.409 179.998 153.821 180.288 153.071C180.578 152.315 180.722 151.443 180.722 150.455C180.722 149.477 180.58 148.622 180.296 147.889C180.012 147.151 179.592 146.577 179.035 146.168C178.478 145.753 177.791 145.545 176.972 145.545C176.12 145.545 175.41 145.764 174.842 146.202C174.279 146.634 173.856 147.222 173.572 147.966C173.293 148.705 173.154 149.534 173.154 150.455C173.154 151.386 173.296 152.233 173.58 152.994C173.87 153.75 174.296 154.352 174.859 154.801C175.427 155.244 176.132 155.466 176.972 155.466ZM205.331 145H203.217C203.092 144.392 202.874 143.858 202.561 143.398C202.254 142.938 201.879 142.551 201.436 142.239C200.999 141.92 200.513 141.682 199.979 141.523C199.445 141.364 198.888 141.284 198.308 141.284C197.251 141.284 196.294 141.551 195.436 142.085C194.584 142.619 193.905 143.406 193.399 144.446C192.899 145.486 192.649 146.761 192.649 148.273C192.649 149.784 192.899 151.06 193.399 152.099C193.905 153.139 194.584 153.926 195.436 154.46C196.294 154.994 197.251 155.261 198.308 155.261C198.888 155.261 199.445 155.182 199.979 155.023C200.513 154.864 200.999 154.628 201.436 154.315C201.879 153.997 202.254 153.608 202.561 153.148C202.874 152.682 203.092 152.148 203.217 151.545H205.331C205.172 152.437 204.882 153.236 204.462 153.94C204.041 154.645 203.518 155.244 202.893 155.739C202.268 156.227 201.567 156.599 200.788 156.855C200.016 157.111 199.189 157.239 198.308 157.239C196.82 157.239 195.496 156.875 194.337 156.148C193.178 155.42 192.266 154.386 191.601 153.045C190.936 151.705 190.604 150.114 190.604 148.273C190.604 146.432 190.936 144.841 191.601 143.5C192.266 142.159 193.178 141.125 194.337 140.398C195.496 139.67 196.82 139.307 198.308 139.307C199.189 139.307 200.016 139.435 200.788 139.69C201.567 139.946 202.268 140.321 202.893 140.815C203.518 141.304 204.041 141.901 204.462 142.605C204.882 143.304 205.172 144.102 205.331 145ZM212.592 157.273C211.41 157.273 210.373 156.991 209.481 156.429C208.595 155.866 207.902 155.08 207.402 154.068C206.907 153.057 206.66 151.875 206.66 150.523C206.66 149.159 206.907 147.969 207.402 146.952C207.902 145.935 208.595 145.145 209.481 144.582C210.373 144.02 211.41 143.739 212.592 143.739C213.774 143.739 214.808 144.02 215.694 144.582C216.586 145.145 217.279 145.935 217.774 146.952C218.274 147.969 218.524 149.159 218.524 150.523C218.524 151.875 218.274 153.057 217.774 154.068C217.279 155.08 216.586 155.866 215.694 156.429C214.808 156.991 213.774 157.273 212.592 157.273ZM212.592 155.466C213.49 155.466 214.228 155.236 214.808 154.776C215.387 154.315 215.816 153.71 216.095 152.96C216.373 152.21 216.512 151.398 216.512 150.523C216.512 149.648 216.373 148.832 216.095 148.077C215.816 147.321 215.387 146.71 214.808 146.244C214.228 145.778 213.49 145.545 212.592 145.545C211.694 145.545 210.956 145.778 210.376 146.244C209.796 146.71 209.367 147.321 209.089 148.077C208.811 148.832 208.671 149.648 208.671 150.523C208.671 151.398 208.811 152.21 209.089 152.96C209.367 153.71 209.796 154.315 210.376 154.776C210.956 155.236 211.694 155.466 212.592 155.466ZM222.405 149.125V157H220.394V143.909H222.337V145.955H222.508C222.814 145.29 223.28 144.756 223.905 144.352C224.53 143.943 225.337 143.739 226.326 143.739C227.212 143.739 227.988 143.92 228.653 144.284C229.317 144.642 229.834 145.188 230.204 145.92C230.573 146.648 230.758 147.568 230.758 148.682V157H228.746V148.818C228.746 147.79 228.479 146.989 227.945 146.415C227.411 145.835 226.678 145.545 225.746 145.545C225.104 145.545 224.53 145.685 224.025 145.963C223.525 146.241 223.13 146.648 222.84 147.182C222.55 147.716 222.405 148.364 222.405 149.125ZM238.926 143.909V145.614H232.142V143.909H238.926ZM234.119 140.773H236.131V153.25C236.131 153.818 236.213 154.244 236.378 154.528C236.548 154.807 236.764 154.994 237.026 155.091C237.293 155.182 237.574 155.227 237.869 155.227C238.091 155.227 238.273 155.216 238.415 155.193C238.557 155.165 238.671 155.142 238.756 155.125L239.165 156.932C239.029 156.983 238.838 157.034 238.594 157.085C238.35 157.142 238.04 157.17 237.665 157.17C237.097 157.17 236.54 157.048 235.994 156.804C235.455 156.56 235.006 156.188 234.648 155.688C234.296 155.188 234.119 154.557 234.119 153.795V140.773ZM246.1 157.273C244.838 157.273 243.75 156.994 242.836 156.438C241.927 155.875 241.225 155.091 240.731 154.085C240.242 153.074 239.998 151.898 239.998 150.557C239.998 149.216 240.242 148.034 240.731 147.011C241.225 145.983 241.912 145.182 242.793 144.608C243.679 144.028 244.713 143.739 245.895 143.739C246.577 143.739 247.25 143.852 247.915 144.08C248.58 144.307 249.185 144.676 249.731 145.188C250.276 145.693 250.711 146.364 251.035 147.199C251.358 148.034 251.52 149.062 251.52 150.284V151.136H241.429V149.398H249.475C249.475 148.659 249.327 148 249.032 147.42C248.742 146.841 248.327 146.384 247.787 146.048C247.253 145.713 246.623 145.545 245.895 145.545C245.094 145.545 244.401 145.744 243.816 146.142C243.236 146.534 242.79 147.045 242.478 147.676C242.165 148.307 242.009 148.983 242.009 149.705V150.864C242.009 151.852 242.179 152.69 242.52 153.378C242.867 154.06 243.347 154.58 243.961 154.938C244.574 155.29 245.287 155.466 246.1 155.466C246.628 155.466 247.106 155.392 247.532 155.244C247.963 155.091 248.336 154.864 248.648 154.562C248.961 154.256 249.202 153.875 249.373 153.42L251.316 153.966C251.111 154.625 250.767 155.205 250.285 155.705C249.802 156.199 249.205 156.585 248.495 156.864C247.785 157.136 246.986 157.273 246.1 157.273ZM255.391 149.125V157H253.38V143.909H255.323V145.955H255.494C255.8 145.29 256.266 144.756 256.891 144.352C257.516 143.943 258.323 143.739 259.312 143.739C260.198 143.739 260.974 143.92 261.638 144.284C262.303 144.642 262.82 145.188 263.19 145.92C263.559 146.648 263.744 147.568 263.744 148.682V157H261.732V148.818C261.732 147.79 261.465 146.989 260.931 146.415C260.397 145.835 259.664 145.545 258.732 145.545C258.09 145.545 257.516 145.685 257.011 145.963C256.511 146.241 256.116 146.648 255.826 147.182C255.536 147.716 255.391 148.364 255.391 149.125ZM271.912 143.909V145.614H265.128V143.909H271.912ZM267.105 140.773H269.117V153.25C269.117 153.818 269.199 154.244 269.364 154.528C269.534 154.807 269.75 154.994 270.012 155.091C270.279 155.182 270.56 155.227 270.855 155.227C271.077 155.227 271.259 155.216 271.401 155.193C271.543 155.165 271.657 155.142 271.742 155.125L272.151 156.932C272.014 156.983 271.824 157.034 271.58 157.085C271.336 157.142 271.026 157.17 270.651 157.17C270.083 157.17 269.526 157.048 268.98 156.804C268.441 156.56 267.992 156.188 267.634 155.688C267.282 155.188 267.105 154.557 267.105 153.795V140.773Z" fill="black"/>
<g filter="url(#filter1_d_103_105)">
<rect x="408" y="24" width="360" height="240" rx="16" fill="white"/>
</g>
<path d="M534.159 145H532.045C531.92 144.392 531.702 143.858 531.389 143.398C531.082 142.938 530.707 142.551 530.264 142.239C529.827 141.92 529.341 141.682 528.807 141.523C528.273 141.364 527.716 141.284 527.136 141.284C526.08 141.284 525.122 141.551 524.264 142.085C523.412 142.619 522.733 143.406 522.227 144.446C521.727 145.486 521.477 146.761 521.477 148.273C521.477 149.784 521.727 151.06 522.227 152.099C522.733 153.139 523.412 153.926 524.264 154.46C525.122 154.994 526.08 155.261 527.136 155.261C527.716 155.261 528.273 155.182 528.807 155.023C529.341 154.864 529.827 154.628 530.264 154.315C530.707 153.997 531.082 153.608 531.389 153.148C531.702 152.682 531.92 152.148 532.045 151.545H534.159C534 152.437 533.71 153.236 533.29 153.94C532.869 154.645 532.347 155.244 531.722 155.739C531.097 156.227 530.395 156.599 529.616 156.855C528.844 157.111 528.017 157.239 527.136 157.239C525.648 157.239 524.324 156.875 523.165 156.148C522.006 155.42 521.094 154.386 520.429 153.045C519.764 151.705 519.432 150.114 519.432 148.273C519.432 146.432 519.764 144.841 520.429 143.5C521.094 142.159 522.006 141.125 523.165 140.398C524.324 139.67 525.648 139.307 527.136 139.307C528.017 139.307 528.844 139.435 529.616 139.69C530.395 139.946 531.097 140.321 531.722 140.815C532.347 141.304 532.869 141.901 533.29 142.605C533.71 143.304 534 144.102 534.159 145ZM539.954 157.307C539.125 157.307 538.372 157.151 537.696 156.838C537.019 156.52 536.483 156.062 536.085 155.466C535.687 154.864 535.488 154.136 535.488 153.284C535.488 152.534 535.636 151.926 535.931 151.46C536.227 150.989 536.622 150.619 537.116 150.352C537.61 150.085 538.156 149.886 538.752 149.756C539.355 149.619 539.96 149.511 540.568 149.432C541.363 149.33 542.008 149.253 542.502 149.202C543.002 149.145 543.366 149.051 543.593 148.92C543.826 148.79 543.943 148.562 543.943 148.239V148.17C543.943 147.33 543.713 146.676 543.252 146.21C542.798 145.744 542.108 145.511 541.181 145.511C540.221 145.511 539.468 145.722 538.923 146.142C538.377 146.562 537.994 147.011 537.772 147.489L535.863 146.807C536.204 146.011 536.659 145.392 537.227 144.949C537.801 144.5 538.426 144.187 539.102 144.011C539.784 143.83 540.454 143.739 541.113 143.739C541.534 143.739 542.017 143.79 542.562 143.892C543.113 143.989 543.644 144.19 544.156 144.497C544.673 144.804 545.102 145.267 545.443 145.886C545.784 146.506 545.954 147.335 545.954 148.375V157H543.943V155.227H543.84C543.704 155.511 543.477 155.815 543.159 156.139C542.84 156.463 542.417 156.739 541.889 156.966C541.36 157.193 540.715 157.307 539.954 157.307ZM540.261 155.5C541.056 155.5 541.727 155.344 542.272 155.031C542.823 154.719 543.238 154.315 543.517 153.821C543.801 153.327 543.943 152.807 543.943 152.261V150.42C543.858 150.523 543.67 150.616 543.38 150.702C543.096 150.781 542.767 150.852 542.392 150.915C542.022 150.972 541.662 151.023 541.309 151.068C540.963 151.108 540.681 151.142 540.465 151.17C539.943 151.239 539.454 151.349 539 151.503C538.551 151.651 538.187 151.875 537.909 152.176C537.636 152.472 537.5 152.875 537.5 153.386C537.5 154.085 537.758 154.614 538.275 154.972C538.798 155.324 539.46 155.5 540.261 155.5ZM548.425 157V143.909H550.368V145.886H550.505C550.743 145.239 551.175 144.713 551.8 144.31C552.425 143.906 553.13 143.705 553.914 143.705C554.062 143.705 554.246 143.707 554.468 143.713C554.689 143.719 554.857 143.727 554.971 143.739V145.784C554.903 145.767 554.746 145.741 554.502 145.707C554.263 145.668 554.011 145.648 553.743 145.648C553.107 145.648 552.539 145.781 552.039 146.048C551.545 146.31 551.153 146.673 550.863 147.139C550.579 147.599 550.437 148.125 550.437 148.716V157H548.425ZM560.7 157.273C559.609 157.273 558.646 156.997 557.811 156.446C556.975 155.889 556.322 155.105 555.85 154.094C555.379 153.077 555.143 151.875 555.143 150.489C555.143 149.114 555.379 147.92 555.85 146.909C556.322 145.898 556.978 145.116 557.819 144.565C558.66 144.014 559.632 143.739 560.734 143.739C561.586 143.739 562.259 143.881 562.754 144.165C563.254 144.443 563.634 144.761 563.896 145.119C564.163 145.472 564.37 145.761 564.518 145.989H564.688V139.545H566.7V157H564.757V154.989H564.518C564.37 155.227 564.16 155.528 563.887 155.892C563.614 156.25 563.225 156.571 562.72 156.855C562.214 157.134 561.541 157.273 560.7 157.273ZM560.972 155.466C561.779 155.466 562.461 155.256 563.018 154.835C563.575 154.409 563.998 153.821 564.288 153.071C564.578 152.315 564.722 151.443 564.722 150.455C564.722 149.477 564.58 148.622 564.296 147.889C564.012 147.151 563.592 146.577 563.035 146.168C562.478 145.753 561.791 145.545 560.972 145.545C560.12 145.545 559.41 145.764 558.842 146.202C558.279 146.634 557.856 147.222 557.572 147.966C557.293 148.705 557.154 149.534 557.154 150.455C557.154 151.386 557.296 152.233 557.58 152.994C557.87 153.75 558.296 154.352 558.859 154.801C559.427 155.244 560.132 155.466 560.972 155.466ZM589.331 145H587.217C587.092 144.392 586.874 143.858 586.561 143.398C586.254 142.938 585.879 142.551 585.436 142.239C584.999 141.92 584.513 141.682 583.979 141.523C583.445 141.364 582.888 141.284 582.308 141.284C581.251 141.284 580.294 141.551 579.436 142.085C578.584 142.619 577.905 143.406 577.399 144.446C576.899 145.486 576.649 146.761 576.649 148.273C576.649 149.784 576.899 151.06 577.399 152.099C577.905 153.139 578.584 153.926 579.436 154.46C580.294 154.994 581.251 155.261 582.308 155.261C582.888 155.261 583.445 155.182 583.979 155.023C584.513 154.864 584.999 154.628 585.436 154.315C585.879 153.997 586.254 153.608 586.561 153.148C586.874 152.682 587.092 152.148 587.217 151.545H589.331C589.172 152.437 588.882 153.236 588.462 153.94C588.041 154.645 587.518 155.244 586.893 155.739C586.268 156.227 585.567 156.599 584.788 156.855C584.016 157.111 583.189 157.239 582.308 157.239C580.82 157.239 579.496 156.875 578.337 156.148C577.178 155.42 576.266 154.386 575.601 153.045C574.936 151.705 574.604 150.114 574.604 148.273C574.604 146.432 574.936 144.841 575.601 143.5C576.266 142.159 577.178 141.125 578.337 140.398C579.496 139.67 580.82 139.307 582.308 139.307C583.189 139.307 584.016 139.435 584.788 139.69C585.567 139.946 586.268 140.321 586.893 140.815C587.518 141.304 588.041 141.901 588.462 142.605C588.882 143.304 589.172 144.102 589.331 145ZM596.592 157.273C595.41 157.273 594.373 156.991 593.481 156.429C592.595 155.866 591.902 155.08 591.402 154.068C590.907 153.057 590.66 151.875 590.66 150.523C590.66 149.159 590.907 147.969 591.402 146.952C591.902 145.935 592.595 145.145 593.481 144.582C594.373 144.02 595.41 143.739 596.592 143.739C597.774 143.739 598.808 144.02 599.694 144.582C600.586 145.145 601.279 145.935 601.774 146.952C602.274 147.969 602.524 149.159 602.524 150.523C602.524 151.875 602.274 153.057 601.774 154.068C601.279 155.08 600.586 155.866 599.694 156.429C598.808 156.991 597.774 157.273 596.592 157.273ZM596.592 155.466C597.49 155.466 598.228 155.236 598.808 154.776C599.387 154.315 599.816 153.71 600.095 152.96C600.373 152.21 600.512 151.398 600.512 150.523C600.512 149.648 600.373 148.832 600.095 148.077C599.816 147.321 599.387 146.71 598.808 146.244C598.228 145.778 597.49 145.545 596.592 145.545C595.694 145.545 594.956 145.778 594.376 146.244C593.796 146.71 593.367 147.321 593.089 148.077C592.811 148.832 592.671 149.648 592.671 150.523C592.671 151.398 592.811 152.21 593.089 152.96C593.367 153.71 593.796 154.315 594.376 154.776C594.956 155.236 595.694 155.466 596.592 155.466ZM606.405 149.125V157H604.394V143.909H606.337V145.955H606.508C606.814 145.29 607.28 144.756 607.905 144.352C608.53 143.943 609.337 143.739 610.326 143.739C611.212 143.739 611.988 143.92 612.653 144.284C613.317 144.642 613.834 145.188 614.204 145.92C614.573 146.648 614.758 147.568 614.758 148.682V157H612.746V148.818C612.746 147.79 612.479 146.989 611.945 146.415C611.411 145.835 610.678 145.545 609.746 145.545C609.104 145.545 608.53 145.685 608.025 145.963C607.525 146.241 607.13 146.648 606.84 147.182C606.55 147.716 606.405 148.364 606.405 149.125ZM622.926 143.909V145.614H616.142V143.909H622.926ZM618.119 140.773H620.131V153.25C620.131 153.818 620.213 154.244 620.378 154.528C620.548 154.807 620.764 154.994 621.026 155.091C621.293 155.182 621.574 155.227 621.869 155.227C622.091 155.227 622.273 155.216 622.415 155.193C622.557 155.165 622.671 155.142 622.756 155.125L623.165 156.932C623.029 156.983 622.838 157.034 622.594 157.085C622.35 157.142 622.04 157.17 621.665 157.17C621.097 157.17 620.54 157.048 619.994 156.804C619.455 156.56 619.006 156.188 618.648 155.688C618.296 155.188 618.119 154.557 618.119 153.795V140.773ZM630.1 157.273C628.838 157.273 627.75 156.994 626.836 156.438C625.927 155.875 625.225 155.091 624.731 154.085C624.242 153.074 623.998 151.898 623.998 150.557C623.998 149.216 624.242 148.034 624.731 147.011C625.225 145.983 625.912 145.182 626.793 144.608C627.679 144.028 628.713 143.739 629.895 143.739C630.577 143.739 631.25 143.852 631.915 144.08C632.58 144.307 633.185 144.676 633.731 145.188C634.276 145.693 634.711 146.364 635.035 147.199C635.358 148.034 635.52 149.062 635.52 150.284V151.136H625.429V149.398H633.475C633.475 148.659 633.327 148 633.032 147.42C632.742 146.841 632.327 146.384 631.787 146.048C631.253 145.713 630.623 145.545 629.895 145.545C629.094 145.545 628.401 145.744 627.816 146.142C627.236 146.534 626.79 147.045 626.478 147.676C626.165 148.307 626.009 148.983 626.009 149.705V150.864C626.009 151.852 626.179 152.69 626.52 153.378C626.867 154.06 627.347 154.58 627.961 154.938C628.574 155.29 629.287 155.466 630.1 155.466C630.628 155.466 631.106 155.392 631.532 155.244C631.963 155.091 632.336 154.864 632.648 154.562C632.961 154.256 633.202 153.875 633.373 153.42L635.316 153.966C635.111 154.625 634.767 155.205 634.285 155.705C633.802 156.199 633.205 156.585 632.495 156.864C631.785 157.136 630.986 157.273 630.1 157.273ZM639.391 149.125V157H637.38V143.909H639.323V145.955H639.494C639.8 145.29 640.266 144.756 640.891 144.352C641.516 143.943 642.323 143.739 643.312 143.739C644.198 143.739 644.974 143.92 645.638 144.284C646.303 144.642 646.82 145.188 647.19 145.92C647.559 146.648 647.744 147.568 647.744 148.682V157H645.732V148.818C645.732 147.79 645.465 146.989 644.931 146.415C644.397 145.835 643.664 145.545 642.732 145.545C642.09 145.545 641.516 145.685 641.011 145.963C640.511 146.241 640.116 146.648 639.826 147.182C639.536 147.716 639.391 148.364 639.391 149.125ZM655.912 143.909V145.614H649.128V143.909H655.912ZM651.105 140.773H653.117V153.25C653.117 153.818 653.199 154.244 653.364 154.528C653.534 154.807 653.75 154.994 654.012 155.091C654.279 155.182 654.56 155.227 654.855 155.227C655.077 155.227 655.259 155.216 655.401 155.193C655.543 155.165 655.657 155.142 655.742 155.125L656.151 156.932C656.014 156.983 655.824 157.034 655.58 157.085C655.336 157.142 655.026 157.17 654.651 157.17C654.083 157.17 653.526 157.048 652.98 156.804C652.441 156.56 651.992 156.188 651.634 155.688C651.282 155.188 651.105 154.557 651.105 153.795V140.773Z" fill="black"/>
<rect x="0.5" y="0.5" width="791" height="287" rx="7.5" stroke="white" stroke-opacity="0.1"/>
<defs>
<filter id="filter0_d_103_105" x="20" y="22" width="368" height="248" filterUnits="userSpaceOnUse" color-interpolation-filters="sRGB">
<feFlood flood-opacity="0" result="BackgroundImageFix"/>
<feColorMatrix in="SourceAlpha" type="matrix" values="0 0 0 0 0 0 0 0 0 0 0 0 0 0 0 0 0 0 127 0" result="hardAlpha"/>
<feOffset dy="2"/>
<feGaussianBlur stdDeviation="2"/>
<feComposite in2="hardAlpha" operator="out"/>
<feColorMatrix type="matrix" values="0 0 0 0 0 0 0 0 0 0 0 0 0 0 0 0 0 0 0.17 0"/>
<feBlend mode="normal" in2="BackgroundImageFix" result="effect1_dropShadow_103_105"/>
<feBlend mode="normal" in="SourceGraphic" in2="effect1_dropShadow_103_105" result="shape"/>
</filter>
<filter id="filter1_d_103_105" x="408" y="24" width="368" height="248" filterUnits="userSpaceOnUse" color-interpolation-filters="sRGB">
<feFlood flood-opacity="0" result="BackgroundImageFix"/>
<feColorMatrix in="SourceAlpha" type="matrix" values="0 0 0 0 0 0 0 0 0 0 0 0 0 0 0 0 0 0 127 0" result="hardAlpha"/>
<feOffset dx="8" dy="8"/>
<feComposite in2="hardAlpha" operator="out"/>
<feColorMatrix type="matrix" values="0 0 0 0 0 0 0 0 0 0 0 0 0 0 0 0 0 0 0.5 0"/>
<feBlend mode="normal" in2="BackgroundImageFix" result="effect1_dropShadow_103_105"/>
<feBlend mode="normal" in="SourceGraphic" in2="effect1_dropShadow_103_105" result="shape"/>
</filter>
</defs>
</svg>
