<svg width="342" height="184" viewBox="0 0 342 184" fill="none" xmlns="http://www.w3.org/2000/svg">
<rect width="342" height="184" rx="8" fill="#F0F0F0"/>
<g filter="url(#filter0_d_142_1000)">
<rect x="24" y="24" width="286" height="56" rx="8" fill="#DEDEDE" shape-rendering="crispEdges"/>
<rect x="24" y="64" width="286" height="16" fill="white"/>
<path d="M24 32C24 27.5817 27.5817 24 32 24H110C114.418 24 118 27.5817 118 32V64H24V32Z" fill="white"/>
<path d="M45.005 39.9119V38.8182H52.6414V39.9119H49.4397V49H48.2067V39.9119H45.005ZM52.8922 49V41.3636H54.0257V42.517H54.1053C54.2445 42.1392 54.4964 41.8326 54.861 41.5973C55.2256 41.362 55.6365 41.2443 56.0939 41.2443C56.1801 41.2443 56.2878 41.246 56.4171 41.2493C56.5463 41.2526 56.6441 41.2576 56.7104 41.2642V42.4574C56.6706 42.4474 56.5795 42.4325 56.437 42.4126C56.2978 42.3894 56.1503 42.3778 55.9945 42.3778C55.6233 42.3778 55.2918 42.4557 55.0002 42.6115C54.7118 42.764 54.4831 42.9761 54.3141 43.2479C54.1484 43.5163 54.0655 43.8229 54.0655 44.1676V49H52.8922ZM60.3705 49.1591C59.6347 49.1591 59 48.9967 58.4664 48.6719C57.9361 48.3438 57.5267 47.8864 57.2384 47.2997C56.9534 46.7098 56.8108 46.0237 56.8108 45.2415C56.8108 44.4593 56.9534 43.7699 57.2384 43.1733C57.5267 42.5734 57.9278 42.1061 58.4415 41.7713C58.9586 41.4332 59.5618 41.2642 60.2512 41.2642C60.6489 41.2642 61.0417 41.3305 61.4294 41.4631C61.8172 41.5956 62.1702 41.8111 62.4884 42.1094C62.8066 42.4044 63.0601 42.7955 63.249 43.2827C63.438 43.7699 63.5324 44.3698 63.5324 45.0824V45.5795H57.6461V44.5653H62.3392C62.3392 44.1345 62.2531 43.75 62.0807 43.4119C61.9117 43.0739 61.6697 42.8071 61.3549 42.6115C61.0433 42.416 60.6754 42.3182 60.2512 42.3182C59.7838 42.3182 59.3795 42.4342 59.0381 42.6662C58.7 42.8949 58.4399 43.1932 58.2576 43.5611C58.0753 43.929 57.9841 44.3234 57.9841 44.7443V45.4205C57.9841 45.9972 58.0836 46.486 58.2824 46.8871C58.4846 47.2848 58.7647 47.5881 59.1226 47.7969C59.4806 48.0024 59.8965 48.1051 60.3705 48.1051C60.6787 48.1051 60.9571 48.062 61.2057 47.9759C61.4576 47.8864 61.6747 47.7538 61.857 47.5781C62.0393 47.3991 62.1802 47.1771 62.2796 46.9119L63.4131 47.2301C63.2938 47.6146 63.0933 47.9527 62.8115 48.2443C62.5298 48.5327 62.1818 48.758 61.7675 48.9205C61.3532 49.0795 60.8875 49.1591 60.3705 49.1591ZM65.7905 44.4062V49H64.6172V41.3636H65.7507V42.5568H65.8502C66.0292 42.169 66.3009 41.8575 66.6655 41.6222C67.0301 41.3835 67.5007 41.2642 68.0775 41.2642C68.5945 41.2642 69.0469 41.3703 69.4347 41.5824C69.8225 41.7912 70.1241 42.1094 70.3395 42.5369C70.555 42.9612 70.6627 43.4981 70.6627 44.1477V49H69.4894V44.2273C69.4894 43.6274 69.3336 43.16 69.0221 42.8253C68.7105 42.4872 68.2829 42.3182 67.7394 42.3182C67.3649 42.3182 67.0301 42.3994 66.7351 42.5618C66.4435 42.7242 66.2131 42.9612 66.0441 43.2727C65.875 43.5843 65.7905 43.9621 65.7905 44.4062ZM74.9902 49.1591C74.3538 49.1591 73.792 48.9983 73.3048 48.6768C72.8176 48.352 72.4365 47.8946 72.1614 47.3047C71.8863 46.7114 71.7487 46.0104 71.7487 45.2017C71.7487 44.3996 71.8863 43.7036 72.1614 43.1136C72.4365 42.5237 72.8193 42.0679 73.3098 41.7464C73.8003 41.425 74.3671 41.2642 75.0101 41.2642C75.5072 41.2642 75.9 41.3471 76.1884 41.5128C76.48 41.6752 76.7021 41.8608 76.8545 42.0696C77.0103 42.2751 77.1313 42.4441 77.2175 42.5767H77.3169V38.8182H78.4902V49H77.3567V47.8267H77.2175C77.1313 47.9659 77.0087 48.1416 76.8496 48.3537C76.6905 48.5625 76.4634 48.7498 76.1685 48.9155C75.8735 49.0779 75.4807 49.1591 74.9902 49.1591ZM75.1493 48.1051C75.6199 48.1051 76.0177 47.9825 76.3425 47.7372C76.6673 47.4886 76.9142 47.1456 77.0832 46.7081C77.2523 46.2673 77.3368 45.7585 77.3368 45.1818C77.3368 44.6117 77.2539 44.1129 77.0882 43.6854C76.9225 43.2545 76.6772 42.9197 76.3524 42.6811C76.0276 42.4392 75.6266 42.3182 75.1493 42.3182C74.6521 42.3182 74.2378 42.4458 73.9064 42.701C73.5783 42.9529 73.3313 43.2959 73.1656 43.7301C73.0032 44.161 72.922 44.6449 72.922 45.1818C72.922 45.7254 73.0049 46.2192 73.1706 46.6634C73.3396 47.1042 73.5882 47.4555 73.9163 47.7173C74.2478 47.9759 74.6588 48.1051 75.1493 48.1051ZM80.102 49V41.3636H81.2753V49H80.102ZM80.6986 40.0909C80.4699 40.0909 80.2727 40.013 80.107 39.8572C79.9446 39.7015 79.8634 39.5142 79.8634 39.2955C79.8634 39.0767 79.9446 38.8894 80.107 38.7337C80.2727 38.5779 80.4699 38.5 80.6986 38.5C80.9273 38.5 81.1228 38.5779 81.2852 38.7337C81.4509 38.8894 81.5338 39.0767 81.5338 39.2955C81.5338 39.5142 81.4509 39.7015 81.2852 39.8572C81.1228 40.013 80.9273 40.0909 80.6986 40.0909ZM83.8975 44.4062V49H82.7243V41.3636H83.8578V42.5568H83.9572C84.1362 42.169 84.408 41.8575 84.7725 41.6222C85.1371 41.3835 85.6078 41.2642 86.1845 41.2642C86.7015 41.2642 87.1539 41.3703 87.5417 41.5824C87.9295 41.7912 88.2311 42.1094 88.4466 42.5369C88.662 42.9612 88.7697 43.4981 88.7697 44.1477V49H87.5964V44.2273C87.5964 43.6274 87.4406 43.16 87.1291 42.8253C86.8175 42.4872 86.39 42.3182 85.8464 42.3182C85.4719 42.3182 85.1371 42.3994 84.8422 42.5618C84.5505 42.7242 84.3201 42.9612 84.1511 43.2727C83.9821 43.5843 83.8975 43.9621 83.8975 44.4062ZM93.2961 52.0227C92.7293 52.0227 92.2421 51.9498 91.8344 51.804C91.4268 51.6615 91.087 51.4725 90.8153 51.2372C90.5468 51.0052 90.333 50.7566 90.1739 50.4915L91.1086 49.8352C91.2147 49.9744 91.3489 50.1335 91.5113 50.3125C91.6737 50.4948 91.8958 50.6522 92.1775 50.7848C92.4625 50.9207 92.8354 50.9886 93.2961 50.9886C93.9126 50.9886 94.4213 50.8395 94.8224 50.5412C95.2234 50.2429 95.4239 49.7756 95.4239 49.1392V47.5881H95.3245C95.2383 47.7273 95.1157 47.8996 94.9566 48.1051C94.8008 48.3073 94.5754 48.4879 94.2805 48.647C93.9888 48.8028 93.5944 48.8807 93.0972 48.8807C92.4808 48.8807 91.9272 48.7348 91.4367 48.4432C90.9495 48.1515 90.5634 47.7273 90.2783 47.1705C89.9966 46.6136 89.8558 45.9375 89.8558 45.142C89.8558 44.3598 89.9933 43.6787 90.2684 43.0987C90.5435 42.5154 90.9263 42.0646 91.4168 41.7464C91.9074 41.425 92.4741 41.2642 93.1171 41.2642C93.6143 41.2642 94.0087 41.3471 94.3004 41.5128C94.5953 41.6752 94.8207 41.8608 94.9765 42.0696C95.1356 42.2751 95.2582 42.4441 95.3444 42.5767H95.4637V41.3636H96.5972V49.2188C96.5972 49.875 96.4481 50.4086 96.1498 50.8196C95.8548 51.2339 95.4571 51.5372 94.9566 51.7294C94.4594 51.925 93.9059 52.0227 93.2961 52.0227ZM93.2563 47.8267C93.727 47.8267 94.1247 47.719 94.4495 47.5036C94.7743 47.2881 95.0212 46.9782 95.1903 46.5739C95.3593 46.1695 95.4438 45.6856 95.4438 45.1222C95.4438 44.572 95.361 44.0864 95.1952 43.6655C95.0295 43.2446 94.7843 42.9148 94.4594 42.6761C94.1346 42.4375 93.7336 42.3182 93.2563 42.3182C92.7592 42.3182 92.3449 42.4441 92.0134 42.696C91.6853 42.9479 91.4384 43.286 91.2727 43.7102C91.1103 44.1345 91.029 44.6051 91.029 45.1222C91.029 45.6525 91.1119 46.1214 91.2776 46.5291C91.4467 46.9335 91.6952 47.2517 92.0234 47.4837C92.3548 47.7124 92.7658 47.8267 93.2563 47.8267Z" fill="#567FEF"/>
<path d="M139.297 49V38.8182H142.738C143.536 38.8182 144.189 38.9624 144.696 39.2507C145.207 39.5357 145.585 39.9219 145.83 40.4091C146.075 40.8963 146.198 41.4399 146.198 42.0398C146.198 42.6397 146.075 43.1849 145.83 43.6754C145.588 44.166 145.213 44.5571 144.706 44.8487C144.199 45.1371 143.55 45.2812 142.757 45.2812H140.292V44.1875H142.718C143.265 44.1875 143.704 44.093 144.035 43.9041C144.367 43.7152 144.607 43.46 144.756 43.1385C144.908 42.8137 144.985 42.4474 144.985 42.0398C144.985 41.6321 144.908 41.2675 144.756 40.946C144.607 40.6245 144.365 40.3726 144.03 40.1903C143.695 40.0047 143.251 39.9119 142.698 39.9119H140.53V49H139.297ZM147.325 49V41.3636H148.458V42.517H148.538C148.677 42.1392 148.929 41.8326 149.294 41.5973C149.658 41.362 150.069 41.2443 150.527 41.2443C150.613 41.2443 150.72 41.246 150.85 41.2493C150.979 41.2526 151.077 41.2576 151.143 41.2642V42.4574C151.103 42.4474 151.012 42.4325 150.87 42.4126C150.73 42.3894 150.583 42.3778 150.427 42.3778C150.056 42.3778 149.724 42.4557 149.433 42.6115C149.144 42.764 148.916 42.9761 148.747 43.2479C148.581 43.5163 148.498 43.8229 148.498 44.1676V49H147.325ZM154.704 49.1591C154.014 49.1591 153.409 48.995 152.889 48.6669C152.372 48.3388 151.968 47.8797 151.676 47.2898C151.388 46.6998 151.243 46.0104 151.243 45.2216C151.243 44.4261 151.388 43.7318 151.676 43.1385C151.968 42.5452 152.372 42.0845 152.889 41.7564C153.409 41.4283 154.014 41.2642 154.704 41.2642C155.393 41.2642 155.996 41.4283 156.513 41.7564C157.034 42.0845 157.438 42.5452 157.726 43.1385C158.018 43.7318 158.164 44.4261 158.164 45.2216C158.164 46.0104 158.018 46.6998 157.726 47.2898C157.438 47.8797 157.034 48.3388 156.513 48.6669C155.996 48.995 155.393 49.1591 154.704 49.1591ZM154.704 48.1051C155.227 48.1051 155.658 47.9709 155.996 47.7024C156.334 47.4339 156.585 47.081 156.747 46.6435C156.909 46.206 156.991 45.732 156.991 45.2216C156.991 44.7112 156.909 44.2356 156.747 43.7947C156.585 43.3539 156.334 42.9976 155.996 42.7259C155.658 42.4541 155.227 42.3182 154.704 42.3182C154.18 42.3182 153.749 42.4541 153.411 42.7259C153.073 42.9976 152.823 43.3539 152.66 43.7947C152.498 44.2356 152.417 44.7112 152.417 45.2216C152.417 45.732 152.498 46.206 152.66 46.6435C152.823 47.081 153.073 47.4339 153.411 47.7024C153.749 47.9709 154.18 48.1051 154.704 48.1051ZM159.255 41.3636H160.428V49.5568C160.428 50.0275 160.347 50.4351 160.185 50.7798C160.026 51.1245 159.784 51.3913 159.459 51.5803C159.137 51.7692 158.731 51.8636 158.241 51.8636C158.201 51.8636 158.161 51.8636 158.121 51.8636C158.082 51.8636 158.042 51.8636 158.002 51.8636V50.7699C158.042 50.7699 158.078 50.7699 158.111 50.7699C158.145 50.7699 158.181 50.7699 158.221 50.7699C158.579 50.7699 158.841 50.6638 159.006 50.4517C159.172 50.2429 159.255 49.9446 159.255 49.5568V41.3636ZM159.832 40.0909C159.603 40.0909 159.406 40.013 159.24 39.8572C159.078 39.7015 158.996 39.5142 158.996 39.2955C158.996 39.0767 159.078 38.8894 159.24 38.7337C159.406 38.5779 159.603 38.5 159.832 38.5C160.06 38.5 160.256 38.5779 160.418 38.7337C160.584 38.8894 160.667 39.0767 160.667 39.2955C160.667 39.5142 160.584 39.7015 160.418 39.8572C160.256 40.013 160.06 40.0909 159.832 40.0909ZM165.079 49.1591C164.343 49.1591 163.708 48.9967 163.175 48.6719C162.644 48.3438 162.235 47.8864 161.947 47.2997C161.662 46.7098 161.519 46.0237 161.519 45.2415C161.519 44.4593 161.662 43.7699 161.947 43.1733C162.235 42.5734 162.636 42.1061 163.15 41.7713C163.667 41.4332 164.27 41.2642 164.96 41.2642C165.357 41.2642 165.75 41.3305 166.138 41.4631C166.526 41.5956 166.879 41.8111 167.197 42.1094C167.515 42.4044 167.769 42.7955 167.957 43.2827C168.146 43.7699 168.241 44.3698 168.241 45.0824V45.5795H162.354V44.5653H167.048C167.048 44.1345 166.961 43.75 166.789 43.4119C166.62 43.0739 166.378 42.8071 166.063 42.6115C165.752 42.416 165.384 42.3182 164.96 42.3182C164.492 42.3182 164.088 42.4342 163.747 42.6662C163.408 42.8949 163.148 43.1932 162.966 43.5611C162.784 43.929 162.693 44.3234 162.693 44.7443V45.4205C162.693 45.9972 162.792 46.486 162.991 46.8871C163.193 47.2848 163.473 47.5881 163.831 47.7969C164.189 48.0024 164.605 48.1051 165.079 48.1051C165.387 48.1051 165.666 48.062 165.914 47.9759C166.166 47.8864 166.383 47.7538 166.565 47.5781C166.748 47.3991 166.889 47.1771 166.988 46.9119L168.122 47.2301C168.002 47.6146 167.802 47.9527 167.52 48.2443C167.238 48.5327 166.89 48.758 166.476 48.9205C166.062 49.0795 165.596 49.1591 165.079 49.1591ZM172.428 49.1591C171.712 49.1591 171.096 48.9901 170.578 48.652C170.061 48.3139 169.664 47.8482 169.385 47.255C169.107 46.6617 168.968 45.9839 168.968 45.2216C168.968 44.446 169.11 43.7616 169.395 43.1683C169.684 42.5717 170.085 42.1061 170.598 41.7713C171.115 41.4332 171.719 41.2642 172.408 41.2642C172.945 41.2642 173.429 41.3636 173.86 41.5625C174.291 41.7614 174.644 42.0398 174.919 42.3977C175.194 42.7557 175.364 43.1733 175.431 43.6506H174.257C174.168 43.3026 173.969 42.9943 173.661 42.7259C173.356 42.4541 172.945 42.3182 172.428 42.3182C171.971 42.3182 171.569 42.4375 171.225 42.6761C170.883 42.9115 170.617 43.2446 170.424 43.6754C170.235 44.103 170.141 44.6051 170.141 45.1818C170.141 45.7718 170.234 46.2855 170.419 46.723C170.608 47.1605 170.873 47.5002 171.215 47.7422C171.56 47.9841 171.964 48.1051 172.428 48.1051C172.733 48.1051 173.01 48.0521 173.258 47.946C173.507 47.84 173.717 47.6875 173.89 47.4886C174.062 47.2898 174.185 47.0511 174.257 46.7727H175.431C175.364 47.2235 175.2 47.6295 174.939 47.9908C174.68 48.3487 174.337 48.6338 173.909 48.8459C173.485 49.0547 172.991 49.1591 172.428 49.1591ZM179.767 41.3636V42.358H175.81V41.3636H179.767ZM176.963 39.5341H178.136V46.8125C178.136 47.1439 178.184 47.3925 178.28 47.5582C178.38 47.7206 178.506 47.83 178.658 47.8864C178.814 47.9394 178.978 47.9659 179.15 47.9659C179.28 47.9659 179.386 47.9593 179.469 47.946C179.552 47.9295 179.618 47.9162 179.668 47.9062L179.906 48.9602C179.827 48.9901 179.716 49.0199 179.573 49.0497C179.431 49.0829 179.25 49.0994 179.031 49.0994C178.7 49.0994 178.375 49.0282 178.057 48.8857C177.742 48.7431 177.48 48.526 177.271 48.2344C177.066 47.9427 176.963 47.5748 176.963 47.1307V39.5341ZM186.104 43.0739L185.05 43.3722C184.984 43.1965 184.886 43.0258 184.757 42.8601C184.631 42.6911 184.459 42.5518 184.24 42.4425C184.021 42.3331 183.741 42.2784 183.4 42.2784C182.932 42.2784 182.543 42.3861 182.231 42.6016C181.923 42.8137 181.769 43.0838 181.769 43.4119C181.769 43.7036 181.875 43.9339 182.087 44.103C182.299 44.272 182.631 44.4129 183.082 44.5256L184.215 44.804C184.898 44.9697 185.407 45.2232 185.741 45.5646C186.076 45.9027 186.243 46.3385 186.243 46.8722C186.243 47.3097 186.118 47.7008 185.866 48.0455C185.617 48.3902 185.269 48.6619 184.822 48.8608C184.374 49.0597 183.854 49.1591 183.26 49.1591C182.482 49.1591 181.837 48.9901 181.327 48.652C180.816 48.3139 180.493 47.8201 180.357 47.1705L181.471 46.892C181.577 47.303 181.777 47.6113 182.072 47.8168C182.371 48.0223 182.76 48.125 183.241 48.125C183.787 48.125 184.222 48.009 184.543 47.777C184.868 47.5417 185.03 47.2599 185.03 46.9318C185.03 46.6667 184.938 46.4446 184.752 46.2656C184.566 46.0833 184.281 45.9474 183.897 45.858L182.624 45.5597C181.925 45.3939 181.411 45.1371 181.083 44.7891C180.758 44.4377 180.596 43.9986 180.596 43.4716C180.596 43.0407 180.717 42.6596 180.959 42.3281C181.204 41.9967 181.537 41.7365 181.958 41.5476C182.382 41.3587 182.863 41.2642 183.4 41.2642C184.155 41.2642 184.749 41.4299 185.18 41.7614C185.614 42.0928 185.922 42.5303 186.104 43.0739Z" fill="#567FEF"/>
<path d="M228.618 49V38.8182H232.058C232.857 38.8182 233.51 38.9624 234.017 39.2507C234.527 39.5357 234.905 39.9219 235.15 40.4091C235.395 40.8963 235.518 41.4399 235.518 42.0398C235.518 42.6397 235.395 43.1849 235.15 43.6754C234.908 44.166 234.534 44.5571 234.027 44.8487C233.52 45.1371 232.87 45.2812 232.078 45.2812H229.612V44.1875H232.038C232.585 44.1875 233.024 44.093 233.355 43.9041C233.687 43.7152 233.927 43.46 234.076 43.1385C234.229 42.8137 234.305 42.4474 234.305 42.0398C234.305 41.6321 234.229 41.2675 234.076 40.946C233.927 40.6245 233.685 40.3726 233.35 40.1903C233.016 40.0047 232.572 39.9119 232.018 39.9119H229.85V49H228.618ZM236.645 49V41.3636H237.779V42.517H237.858C237.997 42.1392 238.249 41.8326 238.614 41.5973C238.978 41.362 239.389 41.2443 239.847 41.2443C239.933 41.2443 240.041 41.246 240.17 41.2493C240.299 41.2526 240.397 41.2576 240.463 41.2642V42.4574C240.424 42.4474 240.332 42.4325 240.19 42.4126C240.051 42.3894 239.903 42.3778 239.747 42.3778C239.376 42.3778 239.045 42.4557 238.753 42.6115C238.465 42.764 238.236 42.9761 238.067 43.2479C237.901 43.5163 237.818 43.8229 237.818 44.1676V49H236.645ZM244.024 49.1591C243.335 49.1591 242.73 48.995 242.209 48.6669C241.692 48.3388 241.288 47.8797 240.996 47.2898C240.708 46.6998 240.564 46.0104 240.564 45.2216C240.564 44.4261 240.708 43.7318 240.996 43.1385C241.288 42.5452 241.692 42.0845 242.209 41.7564C242.73 41.4283 243.335 41.2642 244.024 41.2642C244.713 41.2642 245.317 41.4283 245.834 41.7564C246.354 42.0845 246.758 42.5452 247.047 43.1385C247.338 43.7318 247.484 44.4261 247.484 45.2216C247.484 46.0104 247.338 46.6998 247.047 47.2898C246.758 47.8797 246.354 48.3388 245.834 48.6669C245.317 48.995 244.713 49.1591 244.024 49.1591ZM244.024 48.1051C244.548 48.1051 244.979 47.9709 245.317 47.7024C245.655 47.4339 245.905 47.081 246.067 46.6435C246.23 46.206 246.311 45.732 246.311 45.2216C246.311 44.7112 246.23 44.2356 246.067 43.7947C245.905 43.3539 245.655 42.9976 245.317 42.7259C244.979 42.4541 244.548 42.3182 244.024 42.3182C243.5 42.3182 243.069 42.4541 242.731 42.7259C242.393 42.9976 242.143 43.3539 241.981 43.7947C241.818 44.2356 241.737 44.7112 241.737 45.2216C241.737 45.732 241.818 46.206 241.981 46.6435C242.143 47.081 242.393 47.4339 242.731 47.7024C243.069 47.9709 243.5 48.1051 244.024 48.1051ZM251.459 49.1591C250.822 49.1591 250.261 48.9983 249.773 48.6768C249.286 48.352 248.905 47.8946 248.63 47.3047C248.355 46.7114 248.217 46.0104 248.217 45.2017C248.217 44.3996 248.355 43.7036 248.63 43.1136C248.905 42.5237 249.288 42.0679 249.778 41.7464C250.269 41.425 250.836 41.2642 251.479 41.2642C251.976 41.2642 252.369 41.3471 252.657 41.5128C252.949 41.6752 253.171 41.8608 253.323 42.0696C253.479 42.2751 253.6 42.4441 253.686 42.5767H253.785V38.8182H254.959V49H253.825V47.8267H253.686C253.6 47.9659 253.477 48.1416 253.318 48.3537C253.159 48.5625 252.932 48.7498 252.637 48.9155C252.342 49.0779 251.949 49.1591 251.459 49.1591ZM251.618 48.1051C252.088 48.1051 252.486 47.9825 252.811 47.7372C253.136 47.4886 253.383 47.1456 253.552 46.7081C253.721 46.2673 253.805 45.7585 253.805 45.1818C253.805 44.6117 253.722 44.1129 253.557 43.6854C253.391 43.2545 253.146 42.9197 252.821 42.6811C252.496 42.4392 252.095 42.3182 251.618 42.3182C251.121 42.3182 250.706 42.4458 250.375 42.701C250.047 42.9529 249.8 43.2959 249.634 43.7301C249.472 44.161 249.391 44.6449 249.391 45.1818C249.391 45.7254 249.473 46.2192 249.639 46.6634C249.808 47.1042 250.057 47.4555 250.385 47.7173C250.716 47.9759 251.127 48.1051 251.618 48.1051ZM261.383 45.8778V41.3636H262.556V49H261.383V47.7074H261.303C261.125 48.0952 260.846 48.425 260.468 48.6967C260.09 48.9652 259.613 49.0994 259.036 49.0994C258.559 49.0994 258.135 48.995 257.764 48.7862C257.393 48.5741 257.101 48.2559 256.889 47.8317C256.677 47.4041 256.571 46.8655 256.571 46.2159V41.3636H257.744V46.1364C257.744 46.6932 257.9 47.1373 258.211 47.4688C258.526 47.8002 258.927 47.9659 259.414 47.9659C259.706 47.9659 260.003 47.8913 260.304 47.7422C260.609 47.593 260.864 47.3643 261.07 47.0561C261.279 46.7479 261.383 46.3551 261.383 45.8778ZM267.108 49.1591C266.392 49.1591 265.775 48.9901 265.258 48.652C264.741 48.3139 264.343 47.8482 264.065 47.255C263.787 46.6617 263.647 45.9839 263.647 45.2216C263.647 44.446 263.79 43.7616 264.075 43.1683C264.363 42.5717 264.764 42.1061 265.278 41.7713C265.795 41.4332 266.398 41.2642 267.088 41.2642C267.625 41.2642 268.109 41.3636 268.539 41.5625C268.97 41.7614 269.323 42.0398 269.598 42.3977C269.873 42.7557 270.044 43.1733 270.11 43.6506H268.937C268.848 43.3026 268.649 42.9943 268.341 42.7259C268.036 42.4541 267.625 42.3182 267.108 42.3182C266.65 42.3182 266.249 42.4375 265.904 42.6761C265.563 42.9115 265.296 43.2446 265.104 43.6754C264.915 44.103 264.821 44.6051 264.821 45.1818C264.821 45.7718 264.913 46.2855 265.099 46.723C265.288 47.1605 265.553 47.5002 265.895 47.7422C266.239 47.9841 266.644 48.1051 267.108 48.1051C267.413 48.1051 267.689 48.0521 267.938 47.946C268.186 47.84 268.397 47.6875 268.569 47.4886C268.742 47.2898 268.864 47.0511 268.937 46.7727H270.11C270.044 47.2235 269.88 47.6295 269.618 47.9908C269.36 48.3487 269.017 48.6338 268.589 48.8459C268.165 49.0547 267.671 49.1591 267.108 49.1591ZM274.447 41.3636V42.358H270.489V41.3636H274.447ZM271.643 39.5341H272.816V46.8125C272.816 47.1439 272.864 47.3925 272.96 47.5582C273.06 47.7206 273.186 47.83 273.338 47.8864C273.494 47.9394 273.658 47.9659 273.83 47.9659C273.959 47.9659 274.065 47.9593 274.148 47.946C274.231 47.9295 274.297 47.9162 274.347 47.9062L274.586 48.9602C274.506 48.9901 274.395 49.0199 274.253 49.0497C274.11 49.0829 273.93 49.0994 273.711 49.0994C273.379 49.0994 273.055 49.0282 272.736 48.8857C272.422 48.7431 272.16 48.526 271.951 48.2344C271.745 47.9427 271.643 47.5748 271.643 47.1307V39.5341ZM280.784 43.0739L279.73 43.3722C279.664 43.1965 279.566 43.0258 279.437 42.8601C279.311 42.6911 279.138 42.5518 278.92 42.4425C278.701 42.3331 278.421 42.2784 278.079 42.2784C277.612 42.2784 277.223 42.3861 276.911 42.6016C276.603 42.8137 276.449 43.0838 276.449 43.4119C276.449 43.7036 276.555 43.9339 276.767 44.103C276.979 44.272 277.31 44.4129 277.761 44.5256L278.895 44.804C279.577 44.9697 280.086 45.2232 280.421 45.5646C280.756 45.9027 280.923 46.3385 280.923 46.8722C280.923 47.3097 280.797 47.7008 280.545 48.0455C280.297 48.3902 279.949 48.6619 279.501 48.8608C279.054 49.0597 278.533 49.1591 277.94 49.1591C277.161 49.1591 276.517 48.9901 276.006 48.652C275.496 48.3139 275.173 47.8201 275.037 47.1705L276.15 46.892C276.256 47.303 276.457 47.6113 276.752 47.8168C277.05 48.0223 277.44 48.125 277.92 48.125C278.467 48.125 278.901 48.009 279.223 47.777C279.548 47.5417 279.71 47.2599 279.71 46.9318C279.71 46.6667 279.617 46.4446 279.432 46.2656C279.246 46.0833 278.961 45.9474 278.577 45.858L277.304 45.5597C276.604 45.3939 276.091 45.1371 275.763 44.7891C275.438 44.4377 275.275 43.9986 275.275 43.4716C275.275 43.0407 275.396 42.6596 275.638 42.3281C275.884 41.9967 276.217 41.7365 276.638 41.5476C277.062 41.3587 277.542 41.2642 278.079 41.2642C278.835 41.2642 279.428 41.4299 279.859 41.7614C280.293 42.0928 280.602 42.5303 280.784 43.0739Z" fill="#567FEF"/>
</g>
<g filter="url(#filter1_d_142_1000)">
<rect x="24" y="104" width="286" height="56" rx="8" fill="#DEDEDE" shape-rendering="crispEdges"/>
<rect x="24" y="144" width="286" height="16" fill="white"/>
<g filter="url(#filter2_i_142_1000)">
<path d="M24 112C24 107.582 27.5817 104 32 104H110C114.418 104 118 107.582 118 112V144H24V112Z" fill="url(#paint0_linear_142_1000)"/>
</g>
<path d="M45.005 119.912V118.818H52.6414V119.912H49.4397V129H48.2067V119.912H45.005ZM52.8922 129V121.364H54.0257V122.517H54.1053C54.2445 122.139 54.4964 121.833 54.861 121.597C55.2256 121.362 55.6365 121.244 56.0939 121.244C56.1801 121.244 56.2878 121.246 56.4171 121.249C56.5463 121.253 56.6441 121.258 56.7104 121.264V122.457C56.6706 122.447 56.5795 122.433 56.437 122.413C56.2978 122.389 56.1503 122.378 55.9945 122.378C55.6233 122.378 55.2918 122.456 55.0002 122.612C54.7118 122.764 54.4831 122.976 54.3141 123.248C54.1484 123.516 54.0655 123.823 54.0655 124.168V129H52.8922ZM60.3705 129.159C59.6347 129.159 59 128.997 58.4664 128.672C57.9361 128.344 57.5267 127.886 57.2384 127.3C56.9534 126.71 56.8108 126.024 56.8108 125.241C56.8108 124.459 56.9534 123.77 57.2384 123.173C57.5267 122.573 57.9278 122.106 58.4415 121.771C58.9586 121.433 59.5618 121.264 60.2512 121.264C60.6489 121.264 61.0417 121.33 61.4294 121.463C61.8172 121.596 62.1702 121.811 62.4884 122.109C62.8066 122.404 63.0601 122.795 63.249 123.283C63.438 123.77 63.5324 124.37 63.5324 125.082V125.58H57.6461V124.565H62.3392C62.3392 124.134 62.2531 123.75 62.0807 123.412C61.9117 123.074 61.6697 122.807 61.3549 122.612C61.0433 122.416 60.6754 122.318 60.2512 122.318C59.7838 122.318 59.3795 122.434 59.0381 122.666C58.7 122.895 58.4399 123.193 58.2576 123.561C58.0753 123.929 57.9841 124.323 57.9841 124.744V125.42C57.9841 125.997 58.0836 126.486 58.2824 126.887C58.4846 127.285 58.7647 127.588 59.1226 127.797C59.4806 128.002 59.8965 128.105 60.3705 128.105C60.6787 128.105 60.9571 128.062 61.2057 127.976C61.4576 127.886 61.6747 127.754 61.857 127.578C62.0393 127.399 62.1802 127.177 62.2796 126.912L63.4131 127.23C63.2938 127.615 63.0933 127.953 62.8115 128.244C62.5298 128.533 62.1818 128.758 61.7675 128.92C61.3532 129.08 60.8875 129.159 60.3705 129.159ZM65.7905 124.406V129H64.6172V121.364H65.7507V122.557H65.8502C66.0292 122.169 66.3009 121.857 66.6655 121.622C67.0301 121.384 67.5007 121.264 68.0775 121.264C68.5945 121.264 69.0469 121.37 69.4347 121.582C69.8225 121.791 70.1241 122.109 70.3395 122.537C70.555 122.961 70.6627 123.498 70.6627 124.148V129H69.4894V124.227C69.4894 123.627 69.3336 123.16 69.0221 122.825C68.7105 122.487 68.2829 122.318 67.7394 122.318C67.3649 122.318 67.0301 122.399 66.7351 122.562C66.4435 122.724 66.2131 122.961 66.0441 123.273C65.875 123.584 65.7905 123.962 65.7905 124.406ZM74.9902 129.159C74.3538 129.159 73.792 128.998 73.3048 128.677C72.8176 128.352 72.4365 127.895 72.1614 127.305C71.8863 126.711 71.7487 126.01 71.7487 125.202C71.7487 124.4 71.8863 123.704 72.1614 123.114C72.4365 122.524 72.8193 122.068 73.3098 121.746C73.8003 121.425 74.3671 121.264 75.0101 121.264C75.5072 121.264 75.9 121.347 76.1884 121.513C76.48 121.675 76.7021 121.861 76.8545 122.07C77.0103 122.275 77.1313 122.444 77.2175 122.577H77.3169V118.818H78.4902V129H77.3567V127.827H77.2175C77.1313 127.966 77.0087 128.142 76.8496 128.354C76.6905 128.562 76.4634 128.75 76.1685 128.915C75.8735 129.078 75.4807 129.159 74.9902 129.159ZM75.1493 128.105C75.6199 128.105 76.0177 127.982 76.3425 127.737C76.6673 127.489 76.9142 127.146 77.0832 126.708C77.2523 126.267 77.3368 125.759 77.3368 125.182C77.3368 124.612 77.2539 124.113 77.0882 123.685C76.9225 123.254 76.6772 122.92 76.3524 122.681C76.0276 122.439 75.6266 122.318 75.1493 122.318C74.6521 122.318 74.2378 122.446 73.9064 122.701C73.5783 122.953 73.3313 123.296 73.1656 123.73C73.0032 124.161 72.922 124.645 72.922 125.182C72.922 125.725 73.0049 126.219 73.1706 126.663C73.3396 127.104 73.5882 127.455 73.9163 127.717C74.2478 127.976 74.6588 128.105 75.1493 128.105ZM80.102 129V121.364H81.2753V129H80.102ZM80.6986 120.091C80.4699 120.091 80.2727 120.013 80.107 119.857C79.9446 119.701 79.8634 119.514 79.8634 119.295C79.8634 119.077 79.9446 118.889 80.107 118.734C80.2727 118.578 80.4699 118.5 80.6986 118.5C80.9273 118.5 81.1228 118.578 81.2852 118.734C81.4509 118.889 81.5338 119.077 81.5338 119.295C81.5338 119.514 81.4509 119.701 81.2852 119.857C81.1228 120.013 80.9273 120.091 80.6986 120.091ZM83.8975 124.406V129H82.7243V121.364H83.8578V122.557H83.9572C84.1362 122.169 84.408 121.857 84.7725 121.622C85.1371 121.384 85.6078 121.264 86.1845 121.264C86.7015 121.264 87.1539 121.37 87.5417 121.582C87.9295 121.791 88.2311 122.109 88.4466 122.537C88.662 122.961 88.7697 123.498 88.7697 124.148V129H87.5964V124.227C87.5964 123.627 87.4406 123.16 87.1291 122.825C86.8175 122.487 86.39 122.318 85.8464 122.318C85.4719 122.318 85.1371 122.399 84.8422 122.562C84.5505 122.724 84.3201 122.961 84.1511 123.273C83.9821 123.584 83.8975 123.962 83.8975 124.406ZM93.2961 132.023C92.7293 132.023 92.2421 131.95 91.8344 131.804C91.4268 131.661 91.087 131.473 90.8153 131.237C90.5468 131.005 90.333 130.757 90.1739 130.491L91.1086 129.835C91.2147 129.974 91.3489 130.134 91.5113 130.312C91.6737 130.495 91.8958 130.652 92.1775 130.785C92.4625 130.921 92.8354 130.989 93.2961 130.989C93.9126 130.989 94.4213 130.839 94.8224 130.541C95.2234 130.243 95.4239 129.776 95.4239 129.139V127.588H95.3245C95.2383 127.727 95.1157 127.9 94.9566 128.105C94.8008 128.307 94.5754 128.488 94.2805 128.647C93.9888 128.803 93.5944 128.881 93.0972 128.881C92.4808 128.881 91.9272 128.735 91.4367 128.443C90.9495 128.152 90.5634 127.727 90.2783 127.17C89.9966 126.614 89.8558 125.937 89.8558 125.142C89.8558 124.36 89.9933 123.679 90.2684 123.099C90.5435 122.515 90.9263 122.065 91.4168 121.746C91.9074 121.425 92.4741 121.264 93.1171 121.264C93.6143 121.264 94.0087 121.347 94.3004 121.513C94.5953 121.675 94.8207 121.861 94.9765 122.07C95.1356 122.275 95.2582 122.444 95.3444 122.577H95.4637V121.364H96.5972V129.219C96.5972 129.875 96.4481 130.409 96.1498 130.82C95.8548 131.234 95.4571 131.537 94.9566 131.729C94.4594 131.925 93.9059 132.023 93.2961 132.023ZM93.2563 127.827C93.727 127.827 94.1247 127.719 94.4495 127.504C94.7743 127.288 95.0212 126.978 95.1903 126.574C95.3593 126.17 95.4438 125.686 95.4438 125.122C95.4438 124.572 95.361 124.086 95.1952 123.665C95.0295 123.245 94.7843 122.915 94.4594 122.676C94.1346 122.437 93.7336 122.318 93.2563 122.318C92.7592 122.318 92.3449 122.444 92.0134 122.696C91.6853 122.948 91.4384 123.286 91.2727 123.71C91.1103 124.134 91.029 124.605 91.029 125.122C91.029 125.652 91.1119 126.121 91.2776 126.529C91.4467 126.933 91.6952 127.252 92.0234 127.484C92.3548 127.712 92.7658 127.827 93.2563 127.827Z" fill="#567FEF"/>
<path d="M139.297 129V118.818H142.738C143.536 118.818 144.189 118.962 144.696 119.251C145.207 119.536 145.585 119.922 145.83 120.409C146.075 120.896 146.198 121.44 146.198 122.04C146.198 122.64 146.075 123.185 145.83 123.675C145.588 124.166 145.213 124.557 144.706 124.849C144.199 125.137 143.55 125.281 142.757 125.281H140.292V124.188H142.718C143.265 124.188 143.704 124.093 144.035 123.904C144.367 123.715 144.607 123.46 144.756 123.138C144.908 122.814 144.985 122.447 144.985 122.04C144.985 121.632 144.908 121.268 144.756 120.946C144.607 120.625 144.365 120.373 144.03 120.19C143.695 120.005 143.251 119.912 142.698 119.912H140.53V129H139.297ZM147.325 129V121.364H148.458V122.517H148.538C148.677 122.139 148.929 121.833 149.294 121.597C149.658 121.362 150.069 121.244 150.527 121.244C150.613 121.244 150.72 121.246 150.85 121.249C150.979 121.253 151.077 121.258 151.143 121.264V122.457C151.103 122.447 151.012 122.433 150.87 122.413C150.73 122.389 150.583 122.378 150.427 122.378C150.056 122.378 149.724 122.456 149.433 122.612C149.144 122.764 148.916 122.976 148.747 123.248C148.581 123.516 148.498 123.823 148.498 124.168V129H147.325ZM154.704 129.159C154.014 129.159 153.409 128.995 152.889 128.667C152.372 128.339 151.968 127.88 151.676 127.29C151.388 126.7 151.243 126.01 151.243 125.222C151.243 124.426 151.388 123.732 151.676 123.138C151.968 122.545 152.372 122.085 152.889 121.756C153.409 121.428 154.014 121.264 154.704 121.264C155.393 121.264 155.996 121.428 156.513 121.756C157.034 122.085 157.438 122.545 157.726 123.138C158.018 123.732 158.164 124.426 158.164 125.222C158.164 126.01 158.018 126.7 157.726 127.29C157.438 127.88 157.034 128.339 156.513 128.667C155.996 128.995 155.393 129.159 154.704 129.159ZM154.704 128.105C155.227 128.105 155.658 127.971 155.996 127.702C156.334 127.434 156.585 127.081 156.747 126.643C156.909 126.206 156.991 125.732 156.991 125.222C156.991 124.711 156.909 124.236 156.747 123.795C156.585 123.354 156.334 122.998 155.996 122.726C155.658 122.454 155.227 122.318 154.704 122.318C154.18 122.318 153.749 122.454 153.411 122.726C153.073 122.998 152.823 123.354 152.66 123.795C152.498 124.236 152.417 124.711 152.417 125.222C152.417 125.732 152.498 126.206 152.66 126.643C152.823 127.081 153.073 127.434 153.411 127.702C153.749 127.971 154.18 128.105 154.704 128.105ZM159.255 121.364H160.428V129.557C160.428 130.027 160.347 130.435 160.185 130.78C160.026 131.125 159.784 131.391 159.459 131.58C159.137 131.769 158.731 131.864 158.241 131.864C158.201 131.864 158.161 131.864 158.121 131.864C158.082 131.864 158.042 131.864 158.002 131.864V130.77C158.042 130.77 158.078 130.77 158.111 130.77C158.145 130.77 158.181 130.77 158.221 130.77C158.579 130.77 158.841 130.664 159.006 130.452C159.172 130.243 159.255 129.945 159.255 129.557V121.364ZM159.832 120.091C159.603 120.091 159.406 120.013 159.24 119.857C159.078 119.701 158.996 119.514 158.996 119.295C158.996 119.077 159.078 118.889 159.24 118.734C159.406 118.578 159.603 118.5 159.832 118.5C160.06 118.5 160.256 118.578 160.418 118.734C160.584 118.889 160.667 119.077 160.667 119.295C160.667 119.514 160.584 119.701 160.418 119.857C160.256 120.013 160.06 120.091 159.832 120.091ZM165.079 129.159C164.343 129.159 163.708 128.997 163.175 128.672C162.644 128.344 162.235 127.886 161.947 127.3C161.662 126.71 161.519 126.024 161.519 125.241C161.519 124.459 161.662 123.77 161.947 123.173C162.235 122.573 162.636 122.106 163.15 121.771C163.667 121.433 164.27 121.264 164.96 121.264C165.357 121.264 165.75 121.33 166.138 121.463C166.526 121.596 166.879 121.811 167.197 122.109C167.515 122.404 167.769 122.795 167.957 123.283C168.146 123.77 168.241 124.37 168.241 125.082V125.58H162.354V124.565H167.048C167.048 124.134 166.961 123.75 166.789 123.412C166.62 123.074 166.378 122.807 166.063 122.612C165.752 122.416 165.384 122.318 164.96 122.318C164.492 122.318 164.088 122.434 163.747 122.666C163.408 122.895 163.148 123.193 162.966 123.561C162.784 123.929 162.693 124.323 162.693 124.744V125.42C162.693 125.997 162.792 126.486 162.991 126.887C163.193 127.285 163.473 127.588 163.831 127.797C164.189 128.002 164.605 128.105 165.079 128.105C165.387 128.105 165.666 128.062 165.914 127.976C166.166 127.886 166.383 127.754 166.565 127.578C166.748 127.399 166.889 127.177 166.988 126.912L168.122 127.23C168.002 127.615 167.802 127.953 167.52 128.244C167.238 128.533 166.89 128.758 166.476 128.92C166.062 129.08 165.596 129.159 165.079 129.159ZM172.428 129.159C171.712 129.159 171.096 128.99 170.578 128.652C170.061 128.314 169.664 127.848 169.385 127.255C169.107 126.662 168.968 125.984 168.968 125.222C168.968 124.446 169.11 123.762 169.395 123.168C169.684 122.572 170.085 122.106 170.598 121.771C171.115 121.433 171.719 121.264 172.408 121.264C172.945 121.264 173.429 121.364 173.86 121.562C174.291 121.761 174.644 122.04 174.919 122.398C175.194 122.756 175.364 123.173 175.431 123.651H174.257C174.168 123.303 173.969 122.994 173.661 122.726C173.356 122.454 172.945 122.318 172.428 122.318C171.971 122.318 171.569 122.437 171.225 122.676C170.883 122.911 170.617 123.245 170.424 123.675C170.235 124.103 170.141 124.605 170.141 125.182C170.141 125.772 170.234 126.286 170.419 126.723C170.608 127.161 170.873 127.5 171.215 127.742C171.56 127.984 171.964 128.105 172.428 128.105C172.733 128.105 173.01 128.052 173.258 127.946C173.507 127.84 173.717 127.688 173.89 127.489C174.062 127.29 174.185 127.051 174.257 126.773H175.431C175.364 127.223 175.2 127.629 174.939 127.991C174.68 128.349 174.337 128.634 173.909 128.846C173.485 129.055 172.991 129.159 172.428 129.159ZM179.767 121.364V122.358H175.81V121.364H179.767ZM176.963 119.534H178.136V126.812C178.136 127.144 178.184 127.393 178.28 127.558C178.38 127.721 178.506 127.83 178.658 127.886C178.814 127.939 178.978 127.966 179.15 127.966C179.28 127.966 179.386 127.959 179.469 127.946C179.552 127.929 179.618 127.916 179.668 127.906L179.906 128.96C179.827 128.99 179.716 129.02 179.573 129.05C179.431 129.083 179.25 129.099 179.031 129.099C178.7 129.099 178.375 129.028 178.057 128.886C177.742 128.743 177.48 128.526 177.271 128.234C177.066 127.943 176.963 127.575 176.963 127.131V119.534ZM186.104 123.074L185.05 123.372C184.984 123.196 184.886 123.026 184.757 122.86C184.631 122.691 184.459 122.552 184.24 122.442C184.021 122.333 183.741 122.278 183.4 122.278C182.932 122.278 182.543 122.386 182.231 122.602C181.923 122.814 181.769 123.084 181.769 123.412C181.769 123.704 181.875 123.934 182.087 124.103C182.299 124.272 182.631 124.413 183.082 124.526L184.215 124.804C184.898 124.97 185.407 125.223 185.741 125.565C186.076 125.903 186.243 126.339 186.243 126.872C186.243 127.31 186.118 127.701 185.866 128.045C185.617 128.39 185.269 128.662 184.822 128.861C184.374 129.06 183.854 129.159 183.26 129.159C182.482 129.159 181.837 128.99 181.327 128.652C180.816 128.314 180.493 127.82 180.357 127.17L181.471 126.892C181.577 127.303 181.777 127.611 182.072 127.817C182.371 128.022 182.76 128.125 183.241 128.125C183.787 128.125 184.222 128.009 184.543 127.777C184.868 127.542 185.03 127.26 185.03 126.932C185.03 126.667 184.938 126.445 184.752 126.266C184.566 126.083 184.281 125.947 183.897 125.858L182.624 125.56C181.925 125.394 181.411 125.137 181.083 124.789C180.758 124.438 180.596 123.999 180.596 123.472C180.596 123.041 180.717 122.66 180.959 122.328C181.204 121.997 181.537 121.737 181.958 121.548C182.382 121.359 182.863 121.264 183.4 121.264C184.155 121.264 184.749 121.43 185.18 121.761C185.614 122.093 185.922 122.53 186.104 123.074Z" fill="#567FEF"/>
<path d="M228.618 129V118.818H232.058C232.857 118.818 233.51 118.962 234.017 119.251C234.527 119.536 234.905 119.922 235.15 120.409C235.395 120.896 235.518 121.44 235.518 122.04C235.518 122.64 235.395 123.185 235.15 123.675C234.908 124.166 234.534 124.557 234.027 124.849C233.52 125.137 232.87 125.281 232.078 125.281H229.612V124.188H232.038C232.585 124.188 233.024 124.093 233.355 123.904C233.687 123.715 233.927 123.46 234.076 123.138C234.229 122.814 234.305 122.447 234.305 122.04C234.305 121.632 234.229 121.268 234.076 120.946C233.927 120.625 233.685 120.373 233.35 120.19C233.016 120.005 232.572 119.912 232.018 119.912H229.85V129H228.618ZM236.645 129V121.364H237.779V122.517H237.858C237.997 122.139 238.249 121.833 238.614 121.597C238.978 121.362 239.389 121.244 239.847 121.244C239.933 121.244 240.041 121.246 240.17 121.249C240.299 121.253 240.397 121.258 240.463 121.264V122.457C240.424 122.447 240.332 122.433 240.19 122.413C240.051 122.389 239.903 122.378 239.747 122.378C239.376 122.378 239.045 122.456 238.753 122.612C238.465 122.764 238.236 122.976 238.067 123.248C237.901 123.516 237.818 123.823 237.818 124.168V129H236.645ZM244.024 129.159C243.335 129.159 242.73 128.995 242.209 128.667C241.692 128.339 241.288 127.88 240.996 127.29C240.708 126.7 240.564 126.01 240.564 125.222C240.564 124.426 240.708 123.732 240.996 123.138C241.288 122.545 241.692 122.085 242.209 121.756C242.73 121.428 243.335 121.264 244.024 121.264C244.713 121.264 245.317 121.428 245.834 121.756C246.354 122.085 246.758 122.545 247.047 123.138C247.338 123.732 247.484 124.426 247.484 125.222C247.484 126.01 247.338 126.7 247.047 127.29C246.758 127.88 246.354 128.339 245.834 128.667C245.317 128.995 244.713 129.159 244.024 129.159ZM244.024 128.105C244.548 128.105 244.979 127.971 245.317 127.702C245.655 127.434 245.905 127.081 246.067 126.643C246.23 126.206 246.311 125.732 246.311 125.222C246.311 124.711 246.23 124.236 246.067 123.795C245.905 123.354 245.655 122.998 245.317 122.726C244.979 122.454 244.548 122.318 244.024 122.318C243.5 122.318 243.069 122.454 242.731 122.726C242.393 122.998 242.143 123.354 241.981 123.795C241.818 124.236 241.737 124.711 241.737 125.222C241.737 125.732 241.818 126.206 241.981 126.643C242.143 127.081 242.393 127.434 242.731 127.702C243.069 127.971 243.5 128.105 244.024 128.105ZM251.459 129.159C250.822 129.159 250.261 128.998 249.773 128.677C249.286 128.352 248.905 127.895 248.63 127.305C248.355 126.711 248.217 126.01 248.217 125.202C248.217 124.4 248.355 123.704 248.63 123.114C248.905 122.524 249.288 122.068 249.778 121.746C250.269 121.425 250.836 121.264 251.479 121.264C251.976 121.264 252.369 121.347 252.657 121.513C252.949 121.675 253.171 121.861 253.323 122.07C253.479 122.275 253.6 122.444 253.686 122.577H253.785V118.818H254.959V129H253.825V127.827H253.686C253.6 127.966 253.477 128.142 253.318 128.354C253.159 128.562 252.932 128.75 252.637 128.915C252.342 129.078 251.949 129.159 251.459 129.159ZM251.618 128.105C252.088 128.105 252.486 127.982 252.811 127.737C253.136 127.489 253.383 127.146 253.552 126.708C253.721 126.267 253.805 125.759 253.805 125.182C253.805 124.612 253.722 124.113 253.557 123.685C253.391 123.254 253.146 122.92 252.821 122.681C252.496 122.439 252.095 122.318 251.618 122.318C251.121 122.318 250.706 122.446 250.375 122.701C250.047 122.953 249.8 123.296 249.634 123.73C249.472 124.161 249.391 124.645 249.391 125.182C249.391 125.725 249.473 126.219 249.639 126.663C249.808 127.104 250.057 127.455 250.385 127.717C250.716 127.976 251.127 128.105 251.618 128.105ZM261.383 125.878V121.364H262.556V129H261.383V127.707H261.303C261.125 128.095 260.846 128.425 260.468 128.697C260.09 128.965 259.613 129.099 259.036 129.099C258.559 129.099 258.135 128.995 257.764 128.786C257.393 128.574 257.101 128.256 256.889 127.832C256.677 127.404 256.571 126.866 256.571 126.216V121.364H257.744V126.136C257.744 126.693 257.9 127.137 258.211 127.469C258.526 127.8 258.927 127.966 259.414 127.966C259.706 127.966 260.003 127.891 260.304 127.742C260.609 127.593 260.864 127.364 261.07 127.056C261.279 126.748 261.383 126.355 261.383 125.878ZM267.108 129.159C266.392 129.159 265.775 128.99 265.258 128.652C264.741 128.314 264.343 127.848 264.065 127.255C263.787 126.662 263.647 125.984 263.647 125.222C263.647 124.446 263.79 123.762 264.075 123.168C264.363 122.572 264.764 122.106 265.278 121.771C265.795 121.433 266.398 121.264 267.088 121.264C267.625 121.264 268.109 121.364 268.539 121.562C268.97 121.761 269.323 122.04 269.598 122.398C269.873 122.756 270.044 123.173 270.11 123.651H268.937C268.848 123.303 268.649 122.994 268.341 122.726C268.036 122.454 267.625 122.318 267.108 122.318C266.65 122.318 266.249 122.437 265.904 122.676C265.563 122.911 265.296 123.245 265.104 123.675C264.915 124.103 264.821 124.605 264.821 125.182C264.821 125.772 264.913 126.286 265.099 126.723C265.288 127.161 265.553 127.5 265.895 127.742C266.239 127.984 266.644 128.105 267.108 128.105C267.413 128.105 267.689 128.052 267.938 127.946C268.186 127.84 268.397 127.688 268.569 127.489C268.742 127.29 268.864 127.051 268.937 126.773H270.11C270.044 127.223 269.88 127.629 269.618 127.991C269.36 128.349 269.017 128.634 268.589 128.846C268.165 129.055 267.671 129.159 267.108 129.159ZM274.447 121.364V122.358H270.489V121.364H274.447ZM271.643 119.534H272.816V126.812C272.816 127.144 272.864 127.393 272.96 127.558C273.06 127.721 273.186 127.83 273.338 127.886C273.494 127.939 273.658 127.966 273.83 127.966C273.959 127.966 274.065 127.959 274.148 127.946C274.231 127.929 274.297 127.916 274.347 127.906L274.586 128.96C274.506 128.99 274.395 129.02 274.253 129.05C274.11 129.083 273.93 129.099 273.711 129.099C273.379 129.099 273.055 129.028 272.736 128.886C272.422 128.743 272.16 128.526 271.951 128.234C271.745 127.943 271.643 127.575 271.643 127.131V119.534ZM280.784 123.074L279.73 123.372C279.664 123.196 279.566 123.026 279.437 122.86C279.311 122.691 279.138 122.552 278.92 122.442C278.701 122.333 278.421 122.278 278.079 122.278C277.612 122.278 277.223 122.386 276.911 122.602C276.603 122.814 276.449 123.084 276.449 123.412C276.449 123.704 276.555 123.934 276.767 124.103C276.979 124.272 277.31 124.413 277.761 124.526L278.895 124.804C279.577 124.97 280.086 125.223 280.421 125.565C280.756 125.903 280.923 126.339 280.923 126.872C280.923 127.31 280.797 127.701 280.545 128.045C280.297 128.39 279.949 128.662 279.501 128.861C279.054 129.06 278.533 129.159 277.94 129.159C277.161 129.159 276.517 128.99 276.006 128.652C275.496 128.314 275.173 127.82 275.037 127.17L276.15 126.892C276.256 127.303 276.457 127.611 276.752 127.817C277.05 128.022 277.44 128.125 277.92 128.125C278.467 128.125 278.901 128.009 279.223 127.777C279.548 127.542 279.71 127.26 279.71 126.932C279.71 126.667 279.617 126.445 279.432 126.266C279.246 126.083 278.961 125.947 278.577 125.858L277.304 125.56C276.604 125.394 276.091 125.137 275.763 124.789C275.438 124.438 275.275 123.999 275.275 123.472C275.275 123.041 275.396 122.66 275.638 122.328C275.884 121.997 276.217 121.737 276.638 121.548C277.062 121.359 277.542 121.264 278.079 121.264C278.835 121.264 279.428 121.43 279.859 121.761C280.293 122.093 280.602 122.53 280.784 123.074Z" fill="#567FEF"/>
</g>
<rect x="0.5" y="0.5" width="341" height="183" rx="7.5" stroke="white" stroke-opacity="0.1"/>
<defs>
<filter id="filter0_d_142_1000" x="20" y="22" width="294" height="64" filterUnits="userSpaceOnUse" color-interpolation-filters="sRGB">
<feFlood flood-opacity="0" result="BackgroundImageFix"/>
<feColorMatrix in="SourceAlpha" type="matrix" values="0 0 0 0 0 0 0 0 0 0 0 0 0 0 0 0 0 0 127 0" result="hardAlpha"/>
<feOffset dy="2"/>
<feGaussianBlur stdDeviation="2"/>
<feComposite in2="hardAlpha" operator="out"/>
<feColorMatrix type="matrix" values="0 0 0 0 0.188235 0 0 0 0 0.188235 0 0 0 0 0.188235 0 0 0 0.17 0"/>
<feBlend mode="normal" in2="BackgroundImageFix" result="effect1_dropShadow_142_1000"/>
<feBlend mode="normal" in="SourceGraphic" in2="effect1_dropShadow_142_1000" result="shape"/>
</filter>
<filter id="filter1_d_142_1000" x="20" y="102" width="294" height="64" filterUnits="userSpaceOnUse" color-interpolation-filters="sRGB">
<feFlood flood-opacity="0" result="BackgroundImageFix"/>
<feColorMatrix in="SourceAlpha" type="matrix" values="0 0 0 0 0 0 0 0 0 0 0 0 0 0 0 0 0 0 127 0" result="hardAlpha"/>
<feOffset dy="2"/>
<feGaussianBlur stdDeviation="2"/>
<feComposite in2="hardAlpha" operator="out"/>
<feColorMatrix type="matrix" values="0 0 0 0 0.188235 0 0 0 0 0.188235 0 0 0 0 0.188235 0 0 0 0.17 0"/>
<feBlend mode="normal" in2="BackgroundImageFix" result="effect1_dropShadow_142_1000"/>
<feBlend mode="normal" in="SourceGraphic" in2="effect1_dropShadow_142_1000" result="shape"/>
</filter>
<filter id="filter2_i_142_1000" x="24" y="104" width="94" height="42" filterUnits="userSpaceOnUse" color-interpolation-filters="sRGB">
<feFlood flood-opacity="0" result="BackgroundImageFix"/>
<feBlend mode="normal" in="SourceGraphic" in2="BackgroundImageFix" result="shape"/>
<feColorMatrix in="SourceAlpha" type="matrix" values="0 0 0 0 0 0 0 0 0 0 0 0 0 0 0 0 0 0 127 0" result="hardAlpha"/>
<feOffset dy="2"/>
<feGaussianBlur stdDeviation="1"/>
<feComposite in2="hardAlpha" operator="arithmetic" k2="-1" k3="1"/>
<feColorMatrix type="matrix" values="0 0 0 0 0 0 0 0 0 0 0 0 0 0 0 0 0 0 0.1 0"/>
<feBlend mode="normal" in2="shape" result="effect1_innerShadow_142_1000"/>
</filter>
<linearGradient id="paint0_linear_142_1000" x1="71" y1="104" x2="71" y2="144" gradientUnits="userSpaceOnUse">
<stop stop-color="#ECECEC"/>
<stop offset="1" stop-color="white"/>
</linearGradient>
</defs>
</svg>
