<svg width="342" height="264" viewBox="0 0 342 264" fill="none" xmlns="http://www.w3.org/2000/svg">
<rect width="342" height="264" rx="8" fill="#F0F0F0"/>
<g filter="url(#filter0_d_142_855)">
<rect x="24" y="24" width="294" height="56" rx="16" fill="#FEFEFE" shape-rendering="crispEdges"/>
<rect x="32" y="32" width="94" height="40" rx="8" fill="#567FEF"/>
<path d="M53.005 47.9119V46.8182H60.6414V47.9119H57.4397V57H56.2067V47.9119H53.005ZM60.8922 57V49.3636H62.0257V50.517H62.1053C62.2445 50.1392 62.4964 49.8326 62.861 49.5973C63.2256 49.362 63.6365 49.2443 64.0939 49.2443C64.1801 49.2443 64.2878 49.246 64.4171 49.2493C64.5463 49.2526 64.6441 49.2576 64.7104 49.2642V50.4574C64.6706 50.4474 64.5795 50.4325 64.437 50.4126C64.2978 50.3894 64.1503 50.3778 63.9945 50.3778C63.6233 50.3778 63.2918 50.4557 63.0002 50.6115C62.7118 50.764 62.4831 50.9761 62.3141 51.2479C62.1484 51.5163 62.0655 51.8229 62.0655 52.1676V57H60.8922ZM68.3705 57.1591C67.6347 57.1591 67 56.9967 66.4664 56.6719C65.9361 56.3438 65.5267 55.8864 65.2384 55.2997C64.9534 54.7098 64.8108 54.0237 64.8108 53.2415C64.8108 52.4593 64.9534 51.7699 65.2384 51.1733C65.5267 50.5734 65.9278 50.1061 66.4415 49.7713C66.9586 49.4332 67.5618 49.2642 68.2512 49.2642C68.6489 49.2642 69.0417 49.3305 69.4294 49.4631C69.8172 49.5956 70.1702 49.8111 70.4884 50.1094C70.8066 50.4044 71.0601 50.7955 71.249 51.2827C71.438 51.7699 71.5324 52.3698 71.5324 53.0824V53.5795H65.6461V52.5653H70.3392C70.3392 52.1345 70.2531 51.75 70.0807 51.4119C69.9117 51.0739 69.6697 50.8071 69.3549 50.6115C69.0433 50.416 68.6754 50.3182 68.2512 50.3182C67.7838 50.3182 67.3795 50.4342 67.0381 50.6662C66.7 50.8949 66.4399 51.1932 66.2576 51.5611C66.0753 51.929 65.9841 52.3234 65.9841 52.7443V53.4205C65.9841 53.9972 66.0836 54.486 66.2824 54.8871C66.4846 55.2848 66.7647 55.5881 67.1226 55.7969C67.4806 56.0024 67.8965 56.1051 68.3705 56.1051C68.6787 56.1051 68.9571 56.062 69.2057 55.9759C69.4576 55.8864 69.6747 55.7538 69.857 55.5781C70.0393 55.3991 70.1802 55.1771 70.2796 54.9119L71.4131 55.2301C71.2938 55.6146 71.0933 55.9527 70.8115 56.2443C70.5298 56.5327 70.1818 56.758 69.7675 56.9205C69.3532 57.0795 68.8875 57.1591 68.3705 57.1591ZM73.7905 52.4062V57H72.6172V49.3636H73.7507V50.5568H73.8502C74.0292 50.169 74.3009 49.8575 74.6655 49.6222C75.0301 49.3835 75.5007 49.2642 76.0775 49.2642C76.5945 49.2642 77.0469 49.3703 77.4347 49.5824C77.8225 49.7912 78.1241 50.1094 78.3395 50.5369C78.555 50.9612 78.6627 51.4981 78.6627 52.1477V57H77.4894V52.2273C77.4894 51.6274 77.3336 51.16 77.0221 50.8253C76.7105 50.4872 76.2829 50.3182 75.7394 50.3182C75.3649 50.3182 75.0301 50.3994 74.7351 50.5618C74.4435 50.7242 74.2131 50.9612 74.0441 51.2727C73.875 51.5843 73.7905 51.9621 73.7905 52.4062ZM82.9902 57.1591C82.3538 57.1591 81.792 56.9983 81.3048 56.6768C80.8176 56.352 80.4365 55.8946 80.1614 55.3047C79.8863 54.7114 79.7487 54.0104 79.7487 53.2017C79.7487 52.3996 79.8863 51.7036 80.1614 51.1136C80.4365 50.5237 80.8193 50.0679 81.3098 49.7464C81.8003 49.425 82.3671 49.2642 83.0101 49.2642C83.5072 49.2642 83.9 49.3471 84.1884 49.5128C84.48 49.6752 84.7021 49.8608 84.8545 50.0696C85.0103 50.2751 85.1313 50.4441 85.2175 50.5767H85.3169V46.8182H86.4902V57H85.3567V55.8267H85.2175C85.1313 55.9659 85.0087 56.1416 84.8496 56.3537C84.6905 56.5625 84.4634 56.7498 84.1685 56.9155C83.8735 57.0779 83.4807 57.1591 82.9902 57.1591ZM83.1493 56.1051C83.6199 56.1051 84.0177 55.9825 84.3425 55.7372C84.6673 55.4886 84.9142 55.1456 85.0832 54.7081C85.2523 54.2673 85.3368 53.7585 85.3368 53.1818C85.3368 52.6117 85.2539 52.1129 85.0882 51.6854C84.9225 51.2545 84.6772 50.9197 84.3524 50.6811C84.0276 50.4392 83.6266 50.3182 83.1493 50.3182C82.6521 50.3182 82.2378 50.4458 81.9064 50.701C81.5783 50.9529 81.3313 51.2959 81.1656 51.7301C81.0032 52.161 80.922 52.6449 80.922 53.1818C80.922 53.7254 81.0049 54.2192 81.1706 54.6634C81.3396 55.1042 81.5882 55.4555 81.9163 55.7173C82.2478 55.9759 82.6588 56.1051 83.1493 56.1051ZM88.102 57V49.3636H89.2753V57H88.102ZM88.6986 48.0909C88.4699 48.0909 88.2727 48.013 88.107 47.8572C87.9446 47.7015 87.8634 47.5142 87.8634 47.2955C87.8634 47.0767 87.9446 46.8894 88.107 46.7337C88.2727 46.5779 88.4699 46.5 88.6986 46.5C88.9273 46.5 89.1228 46.5779 89.2852 46.7337C89.4509 46.8894 89.5338 47.0767 89.5338 47.2955C89.5338 47.5142 89.4509 47.7015 89.2852 47.8572C89.1228 48.013 88.9273 48.0909 88.6986 48.0909ZM91.8975 52.4062V57H90.7243V49.3636H91.8578V50.5568H91.9572C92.1362 50.169 92.408 49.8575 92.7725 49.6222C93.1371 49.3835 93.6078 49.2642 94.1845 49.2642C94.7015 49.2642 95.1539 49.3703 95.5417 49.5824C95.9295 49.7912 96.2311 50.1094 96.4466 50.5369C96.662 50.9612 96.7697 51.4981 96.7697 52.1477V57H95.5964V52.2273C95.5964 51.6274 95.4406 51.16 95.1291 50.8253C94.8175 50.4872 94.39 50.3182 93.8464 50.3182C93.4719 50.3182 93.1371 50.3994 92.8422 50.5618C92.5505 50.7242 92.3201 50.9612 92.1511 51.2727C91.9821 51.5843 91.8975 51.9621 91.8975 52.4062ZM101.296 60.0227C100.729 60.0227 100.242 59.9498 99.8344 59.804C99.4268 59.6615 99.087 59.4725 98.8153 59.2372C98.5468 59.0052 98.333 58.7566 98.1739 58.4915L99.1086 57.8352C99.2147 57.9744 99.3489 58.1335 99.5113 58.3125C99.6737 58.4948 99.8958 58.6522 100.177 58.7848C100.463 58.9207 100.835 58.9886 101.296 58.9886C101.913 58.9886 102.421 58.8395 102.822 58.5412C103.223 58.2429 103.424 57.7756 103.424 57.1392V55.5881H103.325C103.238 55.7273 103.116 55.8996 102.957 56.1051C102.801 56.3073 102.575 56.4879 102.28 56.647C101.989 56.8028 101.594 56.8807 101.097 56.8807C100.481 56.8807 99.9272 56.7348 99.4367 56.4432C98.9495 56.1515 98.5634 55.7273 98.2783 55.1705C97.9966 54.6136 97.8558 53.9375 97.8558 53.142C97.8558 52.3598 97.9933 51.6787 98.2684 51.0987C98.5435 50.5154 98.9263 50.0646 99.4168 49.7464C99.9074 49.425 100.474 49.2642 101.117 49.2642C101.614 49.2642 102.009 49.3471 102.3 49.5128C102.595 49.6752 102.821 49.8608 102.976 50.0696C103.136 50.2751 103.258 50.4441 103.344 50.5767H103.464V49.3636H104.597V57.2188C104.597 57.875 104.448 58.4086 104.15 58.8196C103.855 59.2339 103.457 59.5372 102.957 59.7294C102.459 59.925 101.906 60.0227 101.296 60.0227ZM101.256 55.8267C101.727 55.8267 102.125 55.719 102.45 55.5036C102.774 55.2881 103.021 54.9782 103.19 54.5739C103.359 54.1695 103.444 53.6856 103.444 53.1222C103.444 52.572 103.361 52.0864 103.195 51.6655C103.03 51.2446 102.784 50.9148 102.459 50.6761C102.135 50.4375 101.734 50.3182 101.256 50.3182C100.759 50.3182 100.345 50.4441 100.013 50.696C99.6853 50.9479 99.4384 51.286 99.2727 51.7102C99.1103 52.1345 99.029 52.6051 99.029 53.1222C99.029 53.6525 99.1119 54.1214 99.2776 54.5291C99.4467 54.9335 99.6952 55.2517 100.023 55.4837C100.355 55.7124 100.766 55.8267 101.256 55.8267Z" fill="white"/>
<path d="M147.297 57V46.8182H150.738C151.536 46.8182 152.189 46.9624 152.696 47.2507C153.207 47.5357 153.585 47.9219 153.83 48.4091C154.075 48.8963 154.198 49.4399 154.198 50.0398C154.198 50.6397 154.075 51.1849 153.83 51.6754C153.588 52.166 153.213 52.5571 152.706 52.8487C152.199 53.1371 151.55 53.2812 150.757 53.2812H148.292V52.1875H150.718C151.265 52.1875 151.704 52.093 152.035 51.9041C152.367 51.7152 152.607 51.46 152.756 51.1385C152.908 50.8137 152.985 50.4474 152.985 50.0398C152.985 49.6321 152.908 49.2675 152.756 48.946C152.607 48.6245 152.365 48.3726 152.03 48.1903C151.695 48.0047 151.251 47.9119 150.698 47.9119H148.53V57H147.297ZM155.325 57V49.3636H156.458V50.517H156.538C156.677 50.1392 156.929 49.8326 157.294 49.5973C157.658 49.362 158.069 49.2443 158.527 49.2443C158.613 49.2443 158.72 49.246 158.85 49.2493C158.979 49.2526 159.077 49.2576 159.143 49.2642V50.4574C159.103 50.4474 159.012 50.4325 158.87 50.4126C158.73 50.3894 158.583 50.3778 158.427 50.3778C158.056 50.3778 157.724 50.4557 157.433 50.6115C157.144 50.764 156.916 50.9761 156.747 51.2479C156.581 51.5163 156.498 51.8229 156.498 52.1676V57H155.325ZM162.704 57.1591C162.014 57.1591 161.409 56.995 160.889 56.6669C160.372 56.3388 159.968 55.8797 159.676 55.2898C159.388 54.6998 159.243 54.0104 159.243 53.2216C159.243 52.4261 159.388 51.7318 159.676 51.1385C159.968 50.5452 160.372 50.0845 160.889 49.7564C161.409 49.4283 162.014 49.2642 162.704 49.2642C163.393 49.2642 163.996 49.4283 164.513 49.7564C165.034 50.0845 165.438 50.5452 165.726 51.1385C166.018 51.7318 166.164 52.4261 166.164 53.2216C166.164 54.0104 166.018 54.6998 165.726 55.2898C165.438 55.8797 165.034 56.3388 164.513 56.6669C163.996 56.995 163.393 57.1591 162.704 57.1591ZM162.704 56.1051C163.227 56.1051 163.658 55.9709 163.996 55.7024C164.334 55.4339 164.585 55.081 164.747 54.6435C164.909 54.206 164.991 53.732 164.991 53.2216C164.991 52.7112 164.909 52.2356 164.747 51.7947C164.585 51.3539 164.334 50.9976 163.996 50.7259C163.658 50.4541 163.227 50.3182 162.704 50.3182C162.18 50.3182 161.749 50.4541 161.411 50.7259C161.073 50.9976 160.823 51.3539 160.66 51.7947C160.498 52.2356 160.417 52.7112 160.417 53.2216C160.417 53.732 160.498 54.206 160.66 54.6435C160.823 55.081 161.073 55.4339 161.411 55.7024C161.749 55.9709 162.18 56.1051 162.704 56.1051ZM167.255 49.3636H168.428V57.5568C168.428 58.0275 168.347 58.4351 168.185 58.7798C168.026 59.1245 167.784 59.3913 167.459 59.5803C167.137 59.7692 166.731 59.8636 166.241 59.8636C166.201 59.8636 166.161 59.8636 166.121 59.8636C166.082 59.8636 166.042 59.8636 166.002 59.8636V58.7699C166.042 58.7699 166.078 58.7699 166.111 58.7699C166.145 58.7699 166.181 58.7699 166.221 58.7699C166.579 58.7699 166.841 58.6638 167.006 58.4517C167.172 58.2429 167.255 57.9446 167.255 57.5568V49.3636ZM167.832 48.0909C167.603 48.0909 167.406 48.013 167.24 47.8572C167.078 47.7015 166.996 47.5142 166.996 47.2955C166.996 47.0767 167.078 46.8894 167.24 46.7337C167.406 46.5779 167.603 46.5 167.832 46.5C168.06 46.5 168.256 46.5779 168.418 46.7337C168.584 46.8894 168.667 47.0767 168.667 47.2955C168.667 47.5142 168.584 47.7015 168.418 47.8572C168.256 48.013 168.06 48.0909 167.832 48.0909ZM173.079 57.1591C172.343 57.1591 171.708 56.9967 171.175 56.6719C170.644 56.3438 170.235 55.8864 169.947 55.2997C169.662 54.7098 169.519 54.0237 169.519 53.2415C169.519 52.4593 169.662 51.7699 169.947 51.1733C170.235 50.5734 170.636 50.1061 171.15 49.7713C171.667 49.4332 172.27 49.2642 172.96 49.2642C173.357 49.2642 173.75 49.3305 174.138 49.4631C174.526 49.5956 174.879 49.8111 175.197 50.1094C175.515 50.4044 175.769 50.7955 175.957 51.2827C176.146 51.7699 176.241 52.3698 176.241 53.0824V53.5795H170.354V52.5653H175.048C175.048 52.1345 174.961 51.75 174.789 51.4119C174.62 51.0739 174.378 50.8071 174.063 50.6115C173.752 50.416 173.384 50.3182 172.96 50.3182C172.492 50.3182 172.088 50.4342 171.747 50.6662C171.408 50.8949 171.148 51.1932 170.966 51.5611C170.784 51.929 170.693 52.3234 170.693 52.7443V53.4205C170.693 53.9972 170.792 54.486 170.991 54.8871C171.193 55.2848 171.473 55.5881 171.831 55.7969C172.189 56.0024 172.605 56.1051 173.079 56.1051C173.387 56.1051 173.666 56.062 173.914 55.9759C174.166 55.8864 174.383 55.7538 174.565 55.5781C174.748 55.3991 174.889 55.1771 174.988 54.9119L176.122 55.2301C176.002 55.6146 175.802 55.9527 175.52 56.2443C175.238 56.5327 174.89 56.758 174.476 56.9205C174.062 57.0795 173.596 57.1591 173.079 57.1591ZM180.428 57.1591C179.712 57.1591 179.096 56.9901 178.578 56.652C178.061 56.3139 177.664 55.8482 177.385 55.255C177.107 54.6617 176.968 53.9839 176.968 53.2216C176.968 52.446 177.11 51.7616 177.395 51.1683C177.684 50.5717 178.085 50.1061 178.598 49.7713C179.115 49.4332 179.719 49.2642 180.408 49.2642C180.945 49.2642 181.429 49.3636 181.86 49.5625C182.291 49.7614 182.644 50.0398 182.919 50.3977C183.194 50.7557 183.364 51.1733 183.431 51.6506H182.257C182.168 51.3026 181.969 50.9943 181.661 50.7259C181.356 50.4541 180.945 50.3182 180.428 50.3182C179.971 50.3182 179.569 50.4375 179.225 50.6761C178.883 50.9115 178.617 51.2446 178.424 51.6754C178.235 52.103 178.141 52.6051 178.141 53.1818C178.141 53.7718 178.234 54.2855 178.419 54.723C178.608 55.1605 178.873 55.5002 179.215 55.7422C179.56 55.9841 179.964 56.1051 180.428 56.1051C180.733 56.1051 181.01 56.0521 181.258 55.946C181.507 55.84 181.717 55.6875 181.89 55.4886C182.062 55.2898 182.185 55.0511 182.257 54.7727H183.431C183.364 55.2235 183.2 55.6295 182.939 55.9908C182.68 56.3487 182.337 56.6338 181.909 56.8459C181.485 57.0547 180.991 57.1591 180.428 57.1591ZM187.767 49.3636V50.358H183.81V49.3636H187.767ZM184.963 47.5341H186.136V54.8125C186.136 55.1439 186.184 55.3925 186.28 55.5582C186.38 55.7206 186.506 55.83 186.658 55.8864C186.814 55.9394 186.978 55.9659 187.15 55.9659C187.28 55.9659 187.386 55.9593 187.469 55.946C187.552 55.9295 187.618 55.9162 187.668 55.9062L187.906 56.9602C187.827 56.9901 187.716 57.0199 187.573 57.0497C187.431 57.0829 187.25 57.0994 187.031 57.0994C186.7 57.0994 186.375 57.0282 186.057 56.8857C185.742 56.7431 185.48 56.526 185.271 56.2344C185.066 55.9427 184.963 55.5748 184.963 55.1307V47.5341ZM194.104 51.0739L193.05 51.3722C192.984 51.1965 192.886 51.0258 192.757 50.8601C192.631 50.6911 192.459 50.5518 192.24 50.4425C192.021 50.3331 191.741 50.2784 191.4 50.2784C190.932 50.2784 190.543 50.3861 190.231 50.6016C189.923 50.8137 189.769 51.0838 189.769 51.4119C189.769 51.7036 189.875 51.9339 190.087 52.103C190.299 52.272 190.631 52.4129 191.082 52.5256L192.215 52.804C192.898 52.9697 193.407 53.2232 193.741 53.5646C194.076 53.9027 194.243 54.3385 194.243 54.8722C194.243 55.3097 194.118 55.7008 193.866 56.0455C193.617 56.3902 193.269 56.6619 192.822 56.8608C192.374 57.0597 191.854 57.1591 191.26 57.1591C190.482 57.1591 189.837 56.9901 189.327 56.652C188.816 56.3139 188.493 55.8201 188.357 55.1705L189.471 54.892C189.577 55.303 189.777 55.6113 190.072 55.8168C190.371 56.0223 190.76 56.125 191.241 56.125C191.787 56.125 192.222 56.009 192.543 55.777C192.868 55.5417 193.03 55.2599 193.03 54.9318C193.03 54.6667 192.938 54.4446 192.752 54.2656C192.566 54.0833 192.281 53.9474 191.897 53.858L190.624 53.5597C189.925 53.3939 189.411 53.1371 189.083 52.7891C188.758 52.4377 188.596 51.9986 188.596 51.4716C188.596 51.0407 188.717 50.6596 188.959 50.3281C189.204 49.9967 189.537 49.7365 189.958 49.5476C190.382 49.3587 190.863 49.2642 191.4 49.2642C192.155 49.2642 192.749 49.4299 193.18 49.7614C193.614 50.0928 193.922 50.5303 194.104 51.0739Z" fill="#567FEF"/>
<path d="M236.618 57V46.8182H240.058C240.857 46.8182 241.51 46.9624 242.017 47.2507C242.527 47.5357 242.905 47.9219 243.15 48.4091C243.395 48.8963 243.518 49.4399 243.518 50.0398C243.518 50.6397 243.395 51.1849 243.15 51.6754C242.908 52.166 242.534 52.5571 242.027 52.8487C241.52 53.1371 240.87 53.2812 240.078 53.2812H237.612V52.1875H240.038C240.585 52.1875 241.024 52.093 241.355 51.9041C241.687 51.7152 241.927 51.46 242.076 51.1385C242.229 50.8137 242.305 50.4474 242.305 50.0398C242.305 49.6321 242.229 49.2675 242.076 48.946C241.927 48.6245 241.685 48.3726 241.35 48.1903C241.016 48.0047 240.572 47.9119 240.018 47.9119H237.85V57H236.618ZM244.645 57V49.3636H245.779V50.517H245.858C245.997 50.1392 246.249 49.8326 246.614 49.5973C246.978 49.362 247.389 49.2443 247.847 49.2443C247.933 49.2443 248.041 49.246 248.17 49.2493C248.299 49.2526 248.397 49.2576 248.463 49.2642V50.4574C248.424 50.4474 248.332 50.4325 248.19 50.4126C248.051 50.3894 247.903 50.3778 247.747 50.3778C247.376 50.3778 247.045 50.4557 246.753 50.6115C246.465 50.764 246.236 50.9761 246.067 51.2479C245.901 51.5163 245.818 51.8229 245.818 52.1676V57H244.645ZM252.024 57.1591C251.335 57.1591 250.73 56.995 250.209 56.6669C249.692 56.3388 249.288 55.8797 248.996 55.2898C248.708 54.6998 248.564 54.0104 248.564 53.2216C248.564 52.4261 248.708 51.7318 248.996 51.1385C249.288 50.5452 249.692 50.0845 250.209 49.7564C250.73 49.4283 251.335 49.2642 252.024 49.2642C252.713 49.2642 253.317 49.4283 253.834 49.7564C254.354 50.0845 254.758 50.5452 255.047 51.1385C255.338 51.7318 255.484 52.4261 255.484 53.2216C255.484 54.0104 255.338 54.6998 255.047 55.2898C254.758 55.8797 254.354 56.3388 253.834 56.6669C253.317 56.995 252.713 57.1591 252.024 57.1591ZM252.024 56.1051C252.548 56.1051 252.979 55.9709 253.317 55.7024C253.655 55.4339 253.905 55.081 254.067 54.6435C254.23 54.206 254.311 53.732 254.311 53.2216C254.311 52.7112 254.23 52.2356 254.067 51.7947C253.905 51.3539 253.655 50.9976 253.317 50.7259C252.979 50.4541 252.548 50.3182 252.024 50.3182C251.5 50.3182 251.069 50.4541 250.731 50.7259C250.393 50.9976 250.143 51.3539 249.981 51.7947C249.818 52.2356 249.737 52.7112 249.737 53.2216C249.737 53.732 249.818 54.206 249.981 54.6435C250.143 55.081 250.393 55.4339 250.731 55.7024C251.069 55.9709 251.5 56.1051 252.024 56.1051ZM259.459 57.1591C258.822 57.1591 258.261 56.9983 257.773 56.6768C257.286 56.352 256.905 55.8946 256.63 55.3047C256.355 54.7114 256.217 54.0104 256.217 53.2017C256.217 52.3996 256.355 51.7036 256.63 51.1136C256.905 50.5237 257.288 50.0679 257.778 49.7464C258.269 49.425 258.836 49.2642 259.479 49.2642C259.976 49.2642 260.369 49.3471 260.657 49.5128C260.949 49.6752 261.171 49.8608 261.323 50.0696C261.479 50.2751 261.6 50.4441 261.686 50.5767H261.785V46.8182H262.959V57H261.825V55.8267H261.686C261.6 55.9659 261.477 56.1416 261.318 56.3537C261.159 56.5625 260.932 56.7498 260.637 56.9155C260.342 57.0779 259.949 57.1591 259.459 57.1591ZM259.618 56.1051C260.088 56.1051 260.486 55.9825 260.811 55.7372C261.136 55.4886 261.383 55.1456 261.552 54.7081C261.721 54.2673 261.805 53.7585 261.805 53.1818C261.805 52.6117 261.722 52.1129 261.557 51.6854C261.391 51.2545 261.146 50.9197 260.821 50.6811C260.496 50.4392 260.095 50.3182 259.618 50.3182C259.121 50.3182 258.706 50.4458 258.375 50.701C258.047 50.9529 257.8 51.2959 257.634 51.7301C257.472 52.161 257.391 52.6449 257.391 53.1818C257.391 53.7254 257.473 54.2192 257.639 54.6634C257.808 55.1042 258.057 55.4555 258.385 55.7173C258.716 55.9759 259.127 56.1051 259.618 56.1051ZM269.383 53.8778V49.3636H270.556V57H269.383V55.7074H269.303C269.125 56.0952 268.846 56.425 268.468 56.6967C268.09 56.9652 267.613 57.0994 267.036 57.0994C266.559 57.0994 266.135 56.995 265.764 56.7862C265.393 56.5741 265.101 56.2559 264.889 55.8317C264.677 55.4041 264.571 54.8655 264.571 54.2159V49.3636H265.744V54.1364C265.744 54.6932 265.9 55.1373 266.211 55.4688C266.526 55.8002 266.927 55.9659 267.414 55.9659C267.706 55.9659 268.003 55.8913 268.304 55.7422C268.609 55.593 268.864 55.3643 269.07 55.0561C269.279 54.7479 269.383 54.3551 269.383 53.8778ZM275.108 57.1591C274.392 57.1591 273.775 56.9901 273.258 56.652C272.741 56.3139 272.343 55.8482 272.065 55.255C271.787 54.6617 271.647 53.9839 271.647 53.2216C271.647 52.446 271.79 51.7616 272.075 51.1683C272.363 50.5717 272.764 50.1061 273.278 49.7713C273.795 49.4332 274.398 49.2642 275.088 49.2642C275.625 49.2642 276.109 49.3636 276.539 49.5625C276.97 49.7614 277.323 50.0398 277.598 50.3977C277.873 50.7557 278.044 51.1733 278.11 51.6506H276.937C276.848 51.3026 276.649 50.9943 276.341 50.7259C276.036 50.4541 275.625 50.3182 275.108 50.3182C274.65 50.3182 274.249 50.4375 273.904 50.6761C273.563 50.9115 273.296 51.2446 273.104 51.6754C272.915 52.103 272.821 52.6051 272.821 53.1818C272.821 53.7718 272.913 54.2855 273.099 54.723C273.288 55.1605 273.553 55.5002 273.895 55.7422C274.239 55.9841 274.644 56.1051 275.108 56.1051C275.413 56.1051 275.689 56.0521 275.938 55.946C276.186 55.84 276.397 55.6875 276.569 55.4886C276.742 55.2898 276.864 55.0511 276.937 54.7727H278.11C278.044 55.2235 277.88 55.6295 277.618 55.9908C277.36 56.3487 277.017 56.6338 276.589 56.8459C276.165 57.0547 275.671 57.1591 275.108 57.1591ZM282.447 49.3636V50.358H278.489V49.3636H282.447ZM279.643 47.5341H280.816V54.8125C280.816 55.1439 280.864 55.3925 280.96 55.5582C281.06 55.7206 281.186 55.83 281.338 55.8864C281.494 55.9394 281.658 55.9659 281.83 55.9659C281.959 55.9659 282.065 55.9593 282.148 55.946C282.231 55.9295 282.297 55.9162 282.347 55.9062L282.586 56.9602C282.506 56.9901 282.395 57.0199 282.253 57.0497C282.11 57.0829 281.93 57.0994 281.711 57.0994C281.379 57.0994 281.055 57.0282 280.736 56.8857C280.422 56.7431 280.16 56.526 279.951 56.2344C279.745 55.9427 279.643 55.5748 279.643 55.1307V47.5341ZM288.784 51.0739L287.73 51.3722C287.664 51.1965 287.566 51.0258 287.437 50.8601C287.311 50.6911 287.138 50.5518 286.92 50.4425C286.701 50.3331 286.421 50.2784 286.079 50.2784C285.612 50.2784 285.223 50.3861 284.911 50.6016C284.603 50.8137 284.449 51.0838 284.449 51.4119C284.449 51.7036 284.555 51.9339 284.767 52.103C284.979 52.272 285.31 52.4129 285.761 52.5256L286.895 52.804C287.577 52.9697 288.086 53.2232 288.421 53.5646C288.756 53.9027 288.923 54.3385 288.923 54.8722C288.923 55.3097 288.797 55.7008 288.545 56.0455C288.297 56.3902 287.949 56.6619 287.501 56.8608C287.054 57.0597 286.533 57.1591 285.94 57.1591C285.161 57.1591 284.517 56.9901 284.006 56.652C283.496 56.3139 283.173 55.8201 283.037 55.1705L284.15 54.892C284.256 55.303 284.457 55.6113 284.752 55.8168C285.05 56.0223 285.44 56.125 285.92 56.125C286.467 56.125 286.901 56.009 287.223 55.777C287.548 55.5417 287.71 55.2599 287.71 54.9318C287.71 54.6667 287.617 54.4446 287.432 54.2656C287.246 54.0833 286.961 53.9474 286.577 53.858L285.304 53.5597C284.604 53.3939 284.091 53.1371 283.763 52.7891C283.438 52.4377 283.275 51.9986 283.275 51.4716C283.275 51.0407 283.396 50.6596 283.638 50.3281C283.884 49.9967 284.217 49.7365 284.638 49.5476C285.062 49.3587 285.542 49.2642 286.079 49.2642C286.835 49.2642 287.428 49.4299 287.859 49.7614C288.293 50.0928 288.602 50.5303 288.784 51.0739Z" fill="#567FEF"/>
</g>
<g filter="url(#filter1_d_142_855)">
<rect x="24" y="184" width="294" height="56" rx="28" fill="#FEFEFE" shape-rendering="crispEdges"/>
<rect x="32" y="192" width="94" height="40" rx="20" fill="#567FEF"/>
<path d="M53.005 207.912V206.818H60.6414V207.912H57.4397V217H56.2067V207.912H53.005ZM60.8922 217V209.364H62.0257V210.517H62.1053C62.2445 210.139 62.4964 209.833 62.861 209.597C63.2256 209.362 63.6365 209.244 64.0939 209.244C64.1801 209.244 64.2878 209.246 64.4171 209.249C64.5463 209.253 64.6441 209.258 64.7104 209.264V210.457C64.6706 210.447 64.5795 210.433 64.437 210.413C64.2978 210.389 64.1503 210.378 63.9945 210.378C63.6233 210.378 63.2918 210.456 63.0002 210.612C62.7118 210.764 62.4831 210.976 62.3141 211.248C62.1484 211.516 62.0655 211.823 62.0655 212.168V217H60.8922ZM68.3705 217.159C67.6347 217.159 67 216.997 66.4664 216.672C65.9361 216.344 65.5267 215.886 65.2384 215.3C64.9534 214.71 64.8108 214.024 64.8108 213.241C64.8108 212.459 64.9534 211.77 65.2384 211.173C65.5267 210.573 65.9278 210.106 66.4415 209.771C66.9586 209.433 67.5618 209.264 68.2512 209.264C68.6489 209.264 69.0417 209.33 69.4294 209.463C69.8172 209.596 70.1702 209.811 70.4884 210.109C70.8066 210.404 71.0601 210.795 71.249 211.283C71.438 211.77 71.5324 212.37 71.5324 213.082V213.58H65.6461V212.565H70.3392C70.3392 212.134 70.2531 211.75 70.0807 211.412C69.9117 211.074 69.6697 210.807 69.3549 210.612C69.0433 210.416 68.6754 210.318 68.2512 210.318C67.7838 210.318 67.3795 210.434 67.0381 210.666C66.7 210.895 66.4399 211.193 66.2576 211.561C66.0753 211.929 65.9841 212.323 65.9841 212.744V213.42C65.9841 213.997 66.0836 214.486 66.2824 214.887C66.4846 215.285 66.7647 215.588 67.1226 215.797C67.4806 216.002 67.8965 216.105 68.3705 216.105C68.6787 216.105 68.9571 216.062 69.2057 215.976C69.4576 215.886 69.6747 215.754 69.857 215.578C70.0393 215.399 70.1802 215.177 70.2796 214.912L71.4131 215.23C71.2938 215.615 71.0933 215.953 70.8115 216.244C70.5298 216.533 70.1818 216.758 69.7675 216.92C69.3532 217.08 68.8875 217.159 68.3705 217.159ZM73.7905 212.406V217H72.6172V209.364H73.7507V210.557H73.8502C74.0292 210.169 74.3009 209.857 74.6655 209.622C75.0301 209.384 75.5007 209.264 76.0775 209.264C76.5945 209.264 77.0469 209.37 77.4347 209.582C77.8225 209.791 78.1241 210.109 78.3395 210.537C78.555 210.961 78.6627 211.498 78.6627 212.148V217H77.4894V212.227C77.4894 211.627 77.3336 211.16 77.0221 210.825C76.7105 210.487 76.2829 210.318 75.7394 210.318C75.3649 210.318 75.0301 210.399 74.7351 210.562C74.4435 210.724 74.2131 210.961 74.0441 211.273C73.875 211.584 73.7905 211.962 73.7905 212.406ZM82.9902 217.159C82.3538 217.159 81.792 216.998 81.3048 216.677C80.8176 216.352 80.4365 215.895 80.1614 215.305C79.8863 214.711 79.7487 214.01 79.7487 213.202C79.7487 212.4 79.8863 211.704 80.1614 211.114C80.4365 210.524 80.8193 210.068 81.3098 209.746C81.8003 209.425 82.3671 209.264 83.0101 209.264C83.5072 209.264 83.9 209.347 84.1884 209.513C84.48 209.675 84.7021 209.861 84.8545 210.07C85.0103 210.275 85.1313 210.444 85.2175 210.577H85.3169V206.818H86.4902V217H85.3567V215.827H85.2175C85.1313 215.966 85.0087 216.142 84.8496 216.354C84.6905 216.562 84.4634 216.75 84.1685 216.915C83.8735 217.078 83.4807 217.159 82.9902 217.159ZM83.1493 216.105C83.6199 216.105 84.0177 215.982 84.3425 215.737C84.6673 215.489 84.9142 215.146 85.0832 214.708C85.2523 214.267 85.3368 213.759 85.3368 213.182C85.3368 212.612 85.2539 212.113 85.0882 211.685C84.9225 211.254 84.6772 210.92 84.3524 210.681C84.0276 210.439 83.6266 210.318 83.1493 210.318C82.6521 210.318 82.2378 210.446 81.9064 210.701C81.5783 210.953 81.3313 211.296 81.1656 211.73C81.0032 212.161 80.922 212.645 80.922 213.182C80.922 213.725 81.0049 214.219 81.1706 214.663C81.3396 215.104 81.5882 215.455 81.9163 215.717C82.2478 215.976 82.6588 216.105 83.1493 216.105ZM88.102 217V209.364H89.2753V217H88.102ZM88.6986 208.091C88.4699 208.091 88.2727 208.013 88.107 207.857C87.9446 207.701 87.8634 207.514 87.8634 207.295C87.8634 207.077 87.9446 206.889 88.107 206.734C88.2727 206.578 88.4699 206.5 88.6986 206.5C88.9273 206.5 89.1228 206.578 89.2852 206.734C89.4509 206.889 89.5338 207.077 89.5338 207.295C89.5338 207.514 89.4509 207.701 89.2852 207.857C89.1228 208.013 88.9273 208.091 88.6986 208.091ZM91.8975 212.406V217H90.7243V209.364H91.8578V210.557H91.9572C92.1362 210.169 92.408 209.857 92.7725 209.622C93.1371 209.384 93.6078 209.264 94.1845 209.264C94.7015 209.264 95.1539 209.37 95.5417 209.582C95.9295 209.791 96.2311 210.109 96.4466 210.537C96.662 210.961 96.7697 211.498 96.7697 212.148V217H95.5964V212.227C95.5964 211.627 95.4406 211.16 95.1291 210.825C94.8175 210.487 94.39 210.318 93.8464 210.318C93.4719 210.318 93.1371 210.399 92.8422 210.562C92.5505 210.724 92.3201 210.961 92.1511 211.273C91.9821 211.584 91.8975 211.962 91.8975 212.406ZM101.296 220.023C100.729 220.023 100.242 219.95 99.8344 219.804C99.4268 219.661 99.087 219.473 98.8153 219.237C98.5468 219.005 98.333 218.757 98.1739 218.491L99.1086 217.835C99.2147 217.974 99.3489 218.134 99.5113 218.312C99.6737 218.495 99.8958 218.652 100.177 218.785C100.463 218.921 100.835 218.989 101.296 218.989C101.913 218.989 102.421 218.839 102.822 218.541C103.223 218.243 103.424 217.776 103.424 217.139V215.588H103.325C103.238 215.727 103.116 215.9 102.957 216.105C102.801 216.307 102.575 216.488 102.28 216.647C101.989 216.803 101.594 216.881 101.097 216.881C100.481 216.881 99.9272 216.735 99.4367 216.443C98.9495 216.152 98.5634 215.727 98.2783 215.17C97.9966 214.614 97.8558 213.937 97.8558 213.142C97.8558 212.36 97.9933 211.679 98.2684 211.099C98.5435 210.515 98.9263 210.065 99.4168 209.746C99.9074 209.425 100.474 209.264 101.117 209.264C101.614 209.264 102.009 209.347 102.3 209.513C102.595 209.675 102.821 209.861 102.976 210.07C103.136 210.275 103.258 210.444 103.344 210.577H103.464V209.364H104.597V217.219C104.597 217.875 104.448 218.409 104.15 218.82C103.855 219.234 103.457 219.537 102.957 219.729C102.459 219.925 101.906 220.023 101.296 220.023ZM101.256 215.827C101.727 215.827 102.125 215.719 102.45 215.504C102.774 215.288 103.021 214.978 103.19 214.574C103.359 214.17 103.444 213.686 103.444 213.122C103.444 212.572 103.361 212.086 103.195 211.665C103.03 211.245 102.784 210.915 102.459 210.676C102.135 210.437 101.734 210.318 101.256 210.318C100.759 210.318 100.345 210.444 100.013 210.696C99.6853 210.948 99.4384 211.286 99.2727 211.71C99.1103 212.134 99.029 212.605 99.029 213.122C99.029 213.652 99.1119 214.121 99.2776 214.529C99.4467 214.933 99.6952 215.252 100.023 215.484C100.355 215.712 100.766 215.827 101.256 215.827Z" fill="white"/>
<path d="M147.297 217V206.818H150.738C151.536 206.818 152.189 206.962 152.696 207.251C153.207 207.536 153.585 207.922 153.83 208.409C154.075 208.896 154.198 209.44 154.198 210.04C154.198 210.64 154.075 211.185 153.83 211.675C153.588 212.166 153.213 212.557 152.706 212.849C152.199 213.137 151.55 213.281 150.757 213.281H148.292V212.188H150.718C151.265 212.188 151.704 212.093 152.035 211.904C152.367 211.715 152.607 211.46 152.756 211.138C152.908 210.814 152.985 210.447 152.985 210.04C152.985 209.632 152.908 209.268 152.756 208.946C152.607 208.625 152.365 208.373 152.03 208.19C151.695 208.005 151.251 207.912 150.698 207.912H148.53V217H147.297ZM155.325 217V209.364H156.458V210.517H156.538C156.677 210.139 156.929 209.833 157.294 209.597C157.658 209.362 158.069 209.244 158.527 209.244C158.613 209.244 158.72 209.246 158.85 209.249C158.979 209.253 159.077 209.258 159.143 209.264V210.457C159.103 210.447 159.012 210.433 158.87 210.413C158.73 210.389 158.583 210.378 158.427 210.378C158.056 210.378 157.724 210.456 157.433 210.612C157.144 210.764 156.916 210.976 156.747 211.248C156.581 211.516 156.498 211.823 156.498 212.168V217H155.325ZM162.704 217.159C162.014 217.159 161.409 216.995 160.889 216.667C160.372 216.339 159.968 215.88 159.676 215.29C159.388 214.7 159.243 214.01 159.243 213.222C159.243 212.426 159.388 211.732 159.676 211.138C159.968 210.545 160.372 210.085 160.889 209.756C161.409 209.428 162.014 209.264 162.704 209.264C163.393 209.264 163.996 209.428 164.513 209.756C165.034 210.085 165.438 210.545 165.726 211.138C166.018 211.732 166.164 212.426 166.164 213.222C166.164 214.01 166.018 214.7 165.726 215.29C165.438 215.88 165.034 216.339 164.513 216.667C163.996 216.995 163.393 217.159 162.704 217.159ZM162.704 216.105C163.227 216.105 163.658 215.971 163.996 215.702C164.334 215.434 164.585 215.081 164.747 214.643C164.909 214.206 164.991 213.732 164.991 213.222C164.991 212.711 164.909 212.236 164.747 211.795C164.585 211.354 164.334 210.998 163.996 210.726C163.658 210.454 163.227 210.318 162.704 210.318C162.18 210.318 161.749 210.454 161.411 210.726C161.073 210.998 160.823 211.354 160.66 211.795C160.498 212.236 160.417 212.711 160.417 213.222C160.417 213.732 160.498 214.206 160.66 214.643C160.823 215.081 161.073 215.434 161.411 215.702C161.749 215.971 162.18 216.105 162.704 216.105ZM167.255 209.364H168.428V217.557C168.428 218.027 168.347 218.435 168.185 218.78C168.026 219.125 167.784 219.391 167.459 219.58C167.137 219.769 166.731 219.864 166.241 219.864C166.201 219.864 166.161 219.864 166.121 219.864C166.082 219.864 166.042 219.864 166.002 219.864V218.77C166.042 218.77 166.078 218.77 166.111 218.77C166.145 218.77 166.181 218.77 166.221 218.77C166.579 218.77 166.841 218.664 167.006 218.452C167.172 218.243 167.255 217.945 167.255 217.557V209.364ZM167.832 208.091C167.603 208.091 167.406 208.013 167.24 207.857C167.078 207.701 166.996 207.514 166.996 207.295C166.996 207.077 167.078 206.889 167.24 206.734C167.406 206.578 167.603 206.5 167.832 206.5C168.06 206.5 168.256 206.578 168.418 206.734C168.584 206.889 168.667 207.077 168.667 207.295C168.667 207.514 168.584 207.701 168.418 207.857C168.256 208.013 168.06 208.091 167.832 208.091ZM173.079 217.159C172.343 217.159 171.708 216.997 171.175 216.672C170.644 216.344 170.235 215.886 169.947 215.3C169.662 214.71 169.519 214.024 169.519 213.241C169.519 212.459 169.662 211.77 169.947 211.173C170.235 210.573 170.636 210.106 171.15 209.771C171.667 209.433 172.27 209.264 172.96 209.264C173.357 209.264 173.75 209.33 174.138 209.463C174.526 209.596 174.879 209.811 175.197 210.109C175.515 210.404 175.769 210.795 175.957 211.283C176.146 211.77 176.241 212.37 176.241 213.082V213.58H170.354V212.565H175.048C175.048 212.134 174.961 211.75 174.789 211.412C174.62 211.074 174.378 210.807 174.063 210.612C173.752 210.416 173.384 210.318 172.96 210.318C172.492 210.318 172.088 210.434 171.747 210.666C171.408 210.895 171.148 211.193 170.966 211.561C170.784 211.929 170.693 212.323 170.693 212.744V213.42C170.693 213.997 170.792 214.486 170.991 214.887C171.193 215.285 171.473 215.588 171.831 215.797C172.189 216.002 172.605 216.105 173.079 216.105C173.387 216.105 173.666 216.062 173.914 215.976C174.166 215.886 174.383 215.754 174.565 215.578C174.748 215.399 174.889 215.177 174.988 214.912L176.122 215.23C176.002 215.615 175.802 215.953 175.52 216.244C175.238 216.533 174.89 216.758 174.476 216.92C174.062 217.08 173.596 217.159 173.079 217.159ZM180.428 217.159C179.712 217.159 179.096 216.99 178.578 216.652C178.061 216.314 177.664 215.848 177.385 215.255C177.107 214.662 176.968 213.984 176.968 213.222C176.968 212.446 177.11 211.762 177.395 211.168C177.684 210.572 178.085 210.106 178.598 209.771C179.115 209.433 179.719 209.264 180.408 209.264C180.945 209.264 181.429 209.364 181.86 209.562C182.291 209.761 182.644 210.04 182.919 210.398C183.194 210.756 183.364 211.173 183.431 211.651H182.257C182.168 211.303 181.969 210.994 181.661 210.726C181.356 210.454 180.945 210.318 180.428 210.318C179.971 210.318 179.569 210.437 179.225 210.676C178.883 210.911 178.617 211.245 178.424 211.675C178.235 212.103 178.141 212.605 178.141 213.182C178.141 213.772 178.234 214.286 178.419 214.723C178.608 215.161 178.873 215.5 179.215 215.742C179.56 215.984 179.964 216.105 180.428 216.105C180.733 216.105 181.01 216.052 181.258 215.946C181.507 215.84 181.717 215.688 181.89 215.489C182.062 215.29 182.185 215.051 182.257 214.773H183.431C183.364 215.223 183.2 215.629 182.939 215.991C182.68 216.349 182.337 216.634 181.909 216.846C181.485 217.055 180.991 217.159 180.428 217.159ZM187.767 209.364V210.358H183.81V209.364H187.767ZM184.963 207.534H186.136V214.812C186.136 215.144 186.184 215.393 186.28 215.558C186.38 215.721 186.506 215.83 186.658 215.886C186.814 215.939 186.978 215.966 187.15 215.966C187.28 215.966 187.386 215.959 187.469 215.946C187.552 215.929 187.618 215.916 187.668 215.906L187.906 216.96C187.827 216.99 187.716 217.02 187.573 217.05C187.431 217.083 187.25 217.099 187.031 217.099C186.7 217.099 186.375 217.028 186.057 216.886C185.742 216.743 185.48 216.526 185.271 216.234C185.066 215.943 184.963 215.575 184.963 215.131V207.534ZM194.104 211.074L193.05 211.372C192.984 211.196 192.886 211.026 192.757 210.86C192.631 210.691 192.459 210.552 192.24 210.442C192.021 210.333 191.741 210.278 191.4 210.278C190.932 210.278 190.543 210.386 190.231 210.602C189.923 210.814 189.769 211.084 189.769 211.412C189.769 211.704 189.875 211.934 190.087 212.103C190.299 212.272 190.631 212.413 191.082 212.526L192.215 212.804C192.898 212.97 193.407 213.223 193.741 213.565C194.076 213.903 194.243 214.339 194.243 214.872C194.243 215.31 194.118 215.701 193.866 216.045C193.617 216.39 193.269 216.662 192.822 216.861C192.374 217.06 191.854 217.159 191.26 217.159C190.482 217.159 189.837 216.99 189.327 216.652C188.816 216.314 188.493 215.82 188.357 215.17L189.471 214.892C189.577 215.303 189.777 215.611 190.072 215.817C190.371 216.022 190.76 216.125 191.241 216.125C191.787 216.125 192.222 216.009 192.543 215.777C192.868 215.542 193.03 215.26 193.03 214.932C193.03 214.667 192.938 214.445 192.752 214.266C192.566 214.083 192.281 213.947 191.897 213.858L190.624 213.56C189.925 213.394 189.411 213.137 189.083 212.789C188.758 212.438 188.596 211.999 188.596 211.472C188.596 211.041 188.717 210.66 188.959 210.328C189.204 209.997 189.537 209.737 189.958 209.548C190.382 209.359 190.863 209.264 191.4 209.264C192.155 209.264 192.749 209.43 193.18 209.761C193.614 210.093 193.922 210.53 194.104 211.074Z" fill="#567FEF"/>
<path d="M236.618 217V206.818H240.058C240.857 206.818 241.51 206.962 242.017 207.251C242.527 207.536 242.905 207.922 243.15 208.409C243.395 208.896 243.518 209.44 243.518 210.04C243.518 210.64 243.395 211.185 243.15 211.675C242.908 212.166 242.534 212.557 242.027 212.849C241.52 213.137 240.87 213.281 240.078 213.281H237.612V212.188H240.038C240.585 212.188 241.024 212.093 241.355 211.904C241.687 211.715 241.927 211.46 242.076 211.138C242.229 210.814 242.305 210.447 242.305 210.04C242.305 209.632 242.229 209.268 242.076 208.946C241.927 208.625 241.685 208.373 241.35 208.19C241.016 208.005 240.572 207.912 240.018 207.912H237.85V217H236.618ZM244.645 217V209.364H245.779V210.517H245.858C245.997 210.139 246.249 209.833 246.614 209.597C246.978 209.362 247.389 209.244 247.847 209.244C247.933 209.244 248.041 209.246 248.17 209.249C248.299 209.253 248.397 209.258 248.463 209.264V210.457C248.424 210.447 248.332 210.433 248.19 210.413C248.051 210.389 247.903 210.378 247.747 210.378C247.376 210.378 247.045 210.456 246.753 210.612C246.465 210.764 246.236 210.976 246.067 211.248C245.901 211.516 245.818 211.823 245.818 212.168V217H244.645ZM252.024 217.159C251.335 217.159 250.73 216.995 250.209 216.667C249.692 216.339 249.288 215.88 248.996 215.29C248.708 214.7 248.564 214.01 248.564 213.222C248.564 212.426 248.708 211.732 248.996 211.138C249.288 210.545 249.692 210.085 250.209 209.756C250.73 209.428 251.335 209.264 252.024 209.264C252.713 209.264 253.317 209.428 253.834 209.756C254.354 210.085 254.758 210.545 255.047 211.138C255.338 211.732 255.484 212.426 255.484 213.222C255.484 214.01 255.338 214.7 255.047 215.29C254.758 215.88 254.354 216.339 253.834 216.667C253.317 216.995 252.713 217.159 252.024 217.159ZM252.024 216.105C252.548 216.105 252.979 215.971 253.317 215.702C253.655 215.434 253.905 215.081 254.067 214.643C254.23 214.206 254.311 213.732 254.311 213.222C254.311 212.711 254.23 212.236 254.067 211.795C253.905 211.354 253.655 210.998 253.317 210.726C252.979 210.454 252.548 210.318 252.024 210.318C251.5 210.318 251.069 210.454 250.731 210.726C250.393 210.998 250.143 211.354 249.981 211.795C249.818 212.236 249.737 212.711 249.737 213.222C249.737 213.732 249.818 214.206 249.981 214.643C250.143 215.081 250.393 215.434 250.731 215.702C251.069 215.971 251.5 216.105 252.024 216.105ZM259.459 217.159C258.822 217.159 258.261 216.998 257.773 216.677C257.286 216.352 256.905 215.895 256.63 215.305C256.355 214.711 256.217 214.01 256.217 213.202C256.217 212.4 256.355 211.704 256.63 211.114C256.905 210.524 257.288 210.068 257.778 209.746C258.269 209.425 258.836 209.264 259.479 209.264C259.976 209.264 260.369 209.347 260.657 209.513C260.949 209.675 261.171 209.861 261.323 210.07C261.479 210.275 261.6 210.444 261.686 210.577H261.785V206.818H262.959V217H261.825V215.827H261.686C261.6 215.966 261.477 216.142 261.318 216.354C261.159 216.562 260.932 216.75 260.637 216.915C260.342 217.078 259.949 217.159 259.459 217.159ZM259.618 216.105C260.088 216.105 260.486 215.982 260.811 215.737C261.136 215.489 261.383 215.146 261.552 214.708C261.721 214.267 261.805 213.759 261.805 213.182C261.805 212.612 261.722 212.113 261.557 211.685C261.391 211.254 261.146 210.92 260.821 210.681C260.496 210.439 260.095 210.318 259.618 210.318C259.121 210.318 258.706 210.446 258.375 210.701C258.047 210.953 257.8 211.296 257.634 211.73C257.472 212.161 257.391 212.645 257.391 213.182C257.391 213.725 257.473 214.219 257.639 214.663C257.808 215.104 258.057 215.455 258.385 215.717C258.716 215.976 259.127 216.105 259.618 216.105ZM269.383 213.878V209.364H270.556V217H269.383V215.707H269.303C269.125 216.095 268.846 216.425 268.468 216.697C268.09 216.965 267.613 217.099 267.036 217.099C266.559 217.099 266.135 216.995 265.764 216.786C265.393 216.574 265.101 216.256 264.889 215.832C264.677 215.404 264.571 214.866 264.571 214.216V209.364H265.744V214.136C265.744 214.693 265.9 215.137 266.211 215.469C266.526 215.8 266.927 215.966 267.414 215.966C267.706 215.966 268.003 215.891 268.304 215.742C268.609 215.593 268.864 215.364 269.07 215.056C269.279 214.748 269.383 214.355 269.383 213.878ZM275.108 217.159C274.392 217.159 273.775 216.99 273.258 216.652C272.741 216.314 272.343 215.848 272.065 215.255C271.787 214.662 271.647 213.984 271.647 213.222C271.647 212.446 271.79 211.762 272.075 211.168C272.363 210.572 272.764 210.106 273.278 209.771C273.795 209.433 274.398 209.264 275.088 209.264C275.625 209.264 276.109 209.364 276.539 209.562C276.97 209.761 277.323 210.04 277.598 210.398C277.873 210.756 278.044 211.173 278.11 211.651H276.937C276.848 211.303 276.649 210.994 276.341 210.726C276.036 210.454 275.625 210.318 275.108 210.318C274.65 210.318 274.249 210.437 273.904 210.676C273.563 210.911 273.296 211.245 273.104 211.675C272.915 212.103 272.821 212.605 272.821 213.182C272.821 213.772 272.913 214.286 273.099 214.723C273.288 215.161 273.553 215.5 273.895 215.742C274.239 215.984 274.644 216.105 275.108 216.105C275.413 216.105 275.689 216.052 275.938 215.946C276.186 215.84 276.397 215.688 276.569 215.489C276.742 215.29 276.864 215.051 276.937 214.773H278.11C278.044 215.223 277.88 215.629 277.618 215.991C277.36 216.349 277.017 216.634 276.589 216.846C276.165 217.055 275.671 217.159 275.108 217.159ZM282.447 209.364V210.358H278.489V209.364H282.447ZM279.643 207.534H280.816V214.812C280.816 215.144 280.864 215.393 280.96 215.558C281.06 215.721 281.186 215.83 281.338 215.886C281.494 215.939 281.658 215.966 281.83 215.966C281.959 215.966 282.065 215.959 282.148 215.946C282.231 215.929 282.297 215.916 282.347 215.906L282.586 216.96C282.506 216.99 282.395 217.02 282.253 217.05C282.11 217.083 281.93 217.099 281.711 217.099C281.379 217.099 281.055 217.028 280.736 216.886C280.422 216.743 280.16 216.526 279.951 216.234C279.745 215.943 279.643 215.575 279.643 215.131V207.534ZM288.784 211.074L287.73 211.372C287.664 211.196 287.566 211.026 287.437 210.86C287.311 210.691 287.138 210.552 286.92 210.442C286.701 210.333 286.421 210.278 286.079 210.278C285.612 210.278 285.223 210.386 284.911 210.602C284.603 210.814 284.449 211.084 284.449 211.412C284.449 211.704 284.555 211.934 284.767 212.103C284.979 212.272 285.31 212.413 285.761 212.526L286.895 212.804C287.577 212.97 288.086 213.223 288.421 213.565C288.756 213.903 288.923 214.339 288.923 214.872C288.923 215.31 288.797 215.701 288.545 216.045C288.297 216.39 287.949 216.662 287.501 216.861C287.054 217.06 286.533 217.159 285.94 217.159C285.161 217.159 284.517 216.99 284.006 216.652C283.496 216.314 283.173 215.82 283.037 215.17L284.15 214.892C284.256 215.303 284.457 215.611 284.752 215.817C285.05 216.022 285.44 216.125 285.92 216.125C286.467 216.125 286.901 216.009 287.223 215.777C287.548 215.542 287.71 215.26 287.71 214.932C287.71 214.667 287.617 214.445 287.432 214.266C287.246 214.083 286.961 213.947 286.577 213.858L285.304 213.56C284.604 213.394 284.091 213.137 283.763 212.789C283.438 212.438 283.275 211.999 283.275 211.472C283.275 211.041 283.396 210.66 283.638 210.328C283.884 209.997 284.217 209.737 284.638 209.548C285.062 209.359 285.542 209.264 286.079 209.264C286.835 209.264 287.428 209.43 287.859 209.761C288.293 210.093 288.602 210.53 288.784 211.074Z" fill="#567FEF"/>
</g>
<g filter="url(#filter2_d_142_855)">
<rect x="24" y="104" width="294" height="56" rx="16" fill="#FEFEFE" shape-rendering="crispEdges"/>
<rect x="33" y="113" width="92" height="38" rx="7" fill="white" stroke="#567FEF" stroke-width="2"/>
<path d="M53.005 127.912V126.818H60.6414V127.912H57.4397V137H56.2067V127.912H53.005ZM60.8922 137V129.364H62.0257V130.517H62.1053C62.2445 130.139 62.4964 129.833 62.861 129.597C63.2256 129.362 63.6365 129.244 64.0939 129.244C64.1801 129.244 64.2878 129.246 64.4171 129.249C64.5463 129.253 64.6441 129.258 64.7104 129.264V130.457C64.6706 130.447 64.5795 130.433 64.437 130.413C64.2978 130.389 64.1503 130.378 63.9945 130.378C63.6233 130.378 63.2918 130.456 63.0002 130.612C62.7118 130.764 62.4831 130.976 62.3141 131.248C62.1484 131.516 62.0655 131.823 62.0655 132.168V137H60.8922ZM68.3705 137.159C67.6347 137.159 67 136.997 66.4664 136.672C65.9361 136.344 65.5267 135.886 65.2384 135.3C64.9534 134.71 64.8108 134.024 64.8108 133.241C64.8108 132.459 64.9534 131.77 65.2384 131.173C65.5267 130.573 65.9278 130.106 66.4415 129.771C66.9586 129.433 67.5618 129.264 68.2512 129.264C68.6489 129.264 69.0417 129.33 69.4294 129.463C69.8172 129.596 70.1702 129.811 70.4884 130.109C70.8066 130.404 71.0601 130.795 71.249 131.283C71.438 131.77 71.5324 132.37 71.5324 133.082V133.58H65.6461V132.565H70.3392C70.3392 132.134 70.2531 131.75 70.0807 131.412C69.9117 131.074 69.6697 130.807 69.3549 130.612C69.0433 130.416 68.6754 130.318 68.2512 130.318C67.7838 130.318 67.3795 130.434 67.0381 130.666C66.7 130.895 66.4399 131.193 66.2576 131.561C66.0753 131.929 65.9841 132.323 65.9841 132.744V133.42C65.9841 133.997 66.0836 134.486 66.2824 134.887C66.4846 135.285 66.7647 135.588 67.1226 135.797C67.4806 136.002 67.8965 136.105 68.3705 136.105C68.6787 136.105 68.9571 136.062 69.2057 135.976C69.4576 135.886 69.6747 135.754 69.857 135.578C70.0393 135.399 70.1802 135.177 70.2796 134.912L71.4131 135.23C71.2938 135.615 71.0933 135.953 70.8115 136.244C70.5298 136.533 70.1818 136.758 69.7675 136.92C69.3532 137.08 68.8875 137.159 68.3705 137.159ZM73.7905 132.406V137H72.6172V129.364H73.7507V130.557H73.8502C74.0292 130.169 74.3009 129.857 74.6655 129.622C75.0301 129.384 75.5007 129.264 76.0775 129.264C76.5945 129.264 77.0469 129.37 77.4347 129.582C77.8225 129.791 78.1241 130.109 78.3395 130.537C78.555 130.961 78.6627 131.498 78.6627 132.148V137H77.4894V132.227C77.4894 131.627 77.3336 131.16 77.0221 130.825C76.7105 130.487 76.2829 130.318 75.7394 130.318C75.3649 130.318 75.0301 130.399 74.7351 130.562C74.4435 130.724 74.2131 130.961 74.0441 131.273C73.875 131.584 73.7905 131.962 73.7905 132.406ZM82.9902 137.159C82.3538 137.159 81.792 136.998 81.3048 136.677C80.8176 136.352 80.4365 135.895 80.1614 135.305C79.8863 134.711 79.7487 134.01 79.7487 133.202C79.7487 132.4 79.8863 131.704 80.1614 131.114C80.4365 130.524 80.8193 130.068 81.3098 129.746C81.8003 129.425 82.3671 129.264 83.0101 129.264C83.5072 129.264 83.9 129.347 84.1884 129.513C84.48 129.675 84.7021 129.861 84.8545 130.07C85.0103 130.275 85.1313 130.444 85.2175 130.577H85.3169V126.818H86.4902V137H85.3567V135.827H85.2175C85.1313 135.966 85.0087 136.142 84.8496 136.354C84.6905 136.562 84.4634 136.75 84.1685 136.915C83.8735 137.078 83.4807 137.159 82.9902 137.159ZM83.1493 136.105C83.6199 136.105 84.0177 135.982 84.3425 135.737C84.6673 135.489 84.9142 135.146 85.0832 134.708C85.2523 134.267 85.3368 133.759 85.3368 133.182C85.3368 132.612 85.2539 132.113 85.0882 131.685C84.9225 131.254 84.6772 130.92 84.3524 130.681C84.0276 130.439 83.6266 130.318 83.1493 130.318C82.6521 130.318 82.2378 130.446 81.9064 130.701C81.5783 130.953 81.3313 131.296 81.1656 131.73C81.0032 132.161 80.922 132.645 80.922 133.182C80.922 133.725 81.0049 134.219 81.1706 134.663C81.3396 135.104 81.5882 135.455 81.9163 135.717C82.2478 135.976 82.6588 136.105 83.1493 136.105ZM88.102 137V129.364H89.2753V137H88.102ZM88.6986 128.091C88.4699 128.091 88.2727 128.013 88.107 127.857C87.9446 127.701 87.8634 127.514 87.8634 127.295C87.8634 127.077 87.9446 126.889 88.107 126.734C88.2727 126.578 88.4699 126.5 88.6986 126.5C88.9273 126.5 89.1228 126.578 89.2852 126.734C89.4509 126.889 89.5338 127.077 89.5338 127.295C89.5338 127.514 89.4509 127.701 89.2852 127.857C89.1228 128.013 88.9273 128.091 88.6986 128.091ZM91.8975 132.406V137H90.7243V129.364H91.8578V130.557H91.9572C92.1362 130.169 92.408 129.857 92.7725 129.622C93.1371 129.384 93.6078 129.264 94.1845 129.264C94.7015 129.264 95.1539 129.37 95.5417 129.582C95.9295 129.791 96.2311 130.109 96.4466 130.537C96.662 130.961 96.7697 131.498 96.7697 132.148V137H95.5964V132.227C95.5964 131.627 95.4406 131.16 95.1291 130.825C94.8175 130.487 94.39 130.318 93.8464 130.318C93.4719 130.318 93.1371 130.399 92.8422 130.562C92.5505 130.724 92.3201 130.961 92.1511 131.273C91.9821 131.584 91.8975 131.962 91.8975 132.406ZM101.296 140.023C100.729 140.023 100.242 139.95 99.8344 139.804C99.4268 139.661 99.087 139.473 98.8153 139.237C98.5468 139.005 98.333 138.757 98.1739 138.491L99.1086 137.835C99.2147 137.974 99.3489 138.134 99.5113 138.312C99.6737 138.495 99.8958 138.652 100.177 138.785C100.463 138.921 100.835 138.989 101.296 138.989C101.913 138.989 102.421 138.839 102.822 138.541C103.223 138.243 103.424 137.776 103.424 137.139V135.588H103.325C103.238 135.727 103.116 135.9 102.957 136.105C102.801 136.307 102.575 136.488 102.28 136.647C101.989 136.803 101.594 136.881 101.097 136.881C100.481 136.881 99.9272 136.735 99.4367 136.443C98.9495 136.152 98.5634 135.727 98.2783 135.17C97.9966 134.614 97.8558 133.937 97.8558 133.142C97.8558 132.36 97.9933 131.679 98.2684 131.099C98.5435 130.515 98.9263 130.065 99.4168 129.746C99.9074 129.425 100.474 129.264 101.117 129.264C101.614 129.264 102.009 129.347 102.3 129.513C102.595 129.675 102.821 129.861 102.976 130.07C103.136 130.275 103.258 130.444 103.344 130.577H103.464V129.364H104.597V137.219C104.597 137.875 104.448 138.409 104.15 138.82C103.855 139.234 103.457 139.537 102.957 139.729C102.459 139.925 101.906 140.023 101.296 140.023ZM101.256 135.827C101.727 135.827 102.125 135.719 102.45 135.504C102.774 135.288 103.021 134.978 103.19 134.574C103.359 134.17 103.444 133.686 103.444 133.122C103.444 132.572 103.361 132.086 103.195 131.665C103.03 131.245 102.784 130.915 102.459 130.676C102.135 130.437 101.734 130.318 101.256 130.318C100.759 130.318 100.345 130.444 100.013 130.696C99.6853 130.948 99.4384 131.286 99.2727 131.71C99.1103 132.134 99.029 132.605 99.029 133.122C99.029 133.652 99.1119 134.121 99.2776 134.529C99.4467 134.933 99.6952 135.252 100.023 135.484C100.355 135.712 100.766 135.827 101.256 135.827Z" fill="#567FEF"/>
<path d="M147.297 137V126.818H150.738C151.536 126.818 152.189 126.962 152.696 127.251C153.207 127.536 153.585 127.922 153.83 128.409C154.075 128.896 154.198 129.44 154.198 130.04C154.198 130.64 154.075 131.185 153.83 131.675C153.588 132.166 153.213 132.557 152.706 132.849C152.199 133.137 151.55 133.281 150.757 133.281H148.292V132.188H150.718C151.265 132.188 151.704 132.093 152.035 131.904C152.367 131.715 152.607 131.46 152.756 131.138C152.908 130.814 152.985 130.447 152.985 130.04C152.985 129.632 152.908 129.268 152.756 128.946C152.607 128.625 152.365 128.373 152.03 128.19C151.695 128.005 151.251 127.912 150.698 127.912H148.53V137H147.297ZM155.325 137V129.364H156.458V130.517H156.538C156.677 130.139 156.929 129.833 157.294 129.597C157.658 129.362 158.069 129.244 158.527 129.244C158.613 129.244 158.72 129.246 158.85 129.249C158.979 129.253 159.077 129.258 159.143 129.264V130.457C159.103 130.447 159.012 130.433 158.87 130.413C158.73 130.389 158.583 130.378 158.427 130.378C158.056 130.378 157.724 130.456 157.433 130.612C157.144 130.764 156.916 130.976 156.747 131.248C156.581 131.516 156.498 131.823 156.498 132.168V137H155.325ZM162.704 137.159C162.014 137.159 161.409 136.995 160.889 136.667C160.372 136.339 159.968 135.88 159.676 135.29C159.388 134.7 159.243 134.01 159.243 133.222C159.243 132.426 159.388 131.732 159.676 131.138C159.968 130.545 160.372 130.085 160.889 129.756C161.409 129.428 162.014 129.264 162.704 129.264C163.393 129.264 163.996 129.428 164.513 129.756C165.034 130.085 165.438 130.545 165.726 131.138C166.018 131.732 166.164 132.426 166.164 133.222C166.164 134.01 166.018 134.7 165.726 135.29C165.438 135.88 165.034 136.339 164.513 136.667C163.996 136.995 163.393 137.159 162.704 137.159ZM162.704 136.105C163.227 136.105 163.658 135.971 163.996 135.702C164.334 135.434 164.585 135.081 164.747 134.643C164.909 134.206 164.991 133.732 164.991 133.222C164.991 132.711 164.909 132.236 164.747 131.795C164.585 131.354 164.334 130.998 163.996 130.726C163.658 130.454 163.227 130.318 162.704 130.318C162.18 130.318 161.749 130.454 161.411 130.726C161.073 130.998 160.823 131.354 160.66 131.795C160.498 132.236 160.417 132.711 160.417 133.222C160.417 133.732 160.498 134.206 160.66 134.643C160.823 135.081 161.073 135.434 161.411 135.702C161.749 135.971 162.18 136.105 162.704 136.105ZM167.255 129.364H168.428V137.557C168.428 138.027 168.347 138.435 168.185 138.78C168.026 139.125 167.784 139.391 167.459 139.58C167.137 139.769 166.731 139.864 166.241 139.864C166.201 139.864 166.161 139.864 166.121 139.864C166.082 139.864 166.042 139.864 166.002 139.864V138.77C166.042 138.77 166.078 138.77 166.111 138.77C166.145 138.77 166.181 138.77 166.221 138.77C166.579 138.77 166.841 138.664 167.006 138.452C167.172 138.243 167.255 137.945 167.255 137.557V129.364ZM167.832 128.091C167.603 128.091 167.406 128.013 167.24 127.857C167.078 127.701 166.996 127.514 166.996 127.295C166.996 127.077 167.078 126.889 167.24 126.734C167.406 126.578 167.603 126.5 167.832 126.5C168.06 126.5 168.256 126.578 168.418 126.734C168.584 126.889 168.667 127.077 168.667 127.295C168.667 127.514 168.584 127.701 168.418 127.857C168.256 128.013 168.06 128.091 167.832 128.091ZM173.079 137.159C172.343 137.159 171.708 136.997 171.175 136.672C170.644 136.344 170.235 135.886 169.947 135.3C169.662 134.71 169.519 134.024 169.519 133.241C169.519 132.459 169.662 131.77 169.947 131.173C170.235 130.573 170.636 130.106 171.15 129.771C171.667 129.433 172.27 129.264 172.96 129.264C173.357 129.264 173.75 129.33 174.138 129.463C174.526 129.596 174.879 129.811 175.197 130.109C175.515 130.404 175.769 130.795 175.957 131.283C176.146 131.77 176.241 132.37 176.241 133.082V133.58H170.354V132.565H175.048C175.048 132.134 174.961 131.75 174.789 131.412C174.62 131.074 174.378 130.807 174.063 130.612C173.752 130.416 173.384 130.318 172.96 130.318C172.492 130.318 172.088 130.434 171.747 130.666C171.408 130.895 171.148 131.193 170.966 131.561C170.784 131.929 170.693 132.323 170.693 132.744V133.42C170.693 133.997 170.792 134.486 170.991 134.887C171.193 135.285 171.473 135.588 171.831 135.797C172.189 136.002 172.605 136.105 173.079 136.105C173.387 136.105 173.666 136.062 173.914 135.976C174.166 135.886 174.383 135.754 174.565 135.578C174.748 135.399 174.889 135.177 174.988 134.912L176.122 135.23C176.002 135.615 175.802 135.953 175.52 136.244C175.238 136.533 174.89 136.758 174.476 136.92C174.062 137.08 173.596 137.159 173.079 137.159ZM180.428 137.159C179.712 137.159 179.096 136.99 178.578 136.652C178.061 136.314 177.664 135.848 177.385 135.255C177.107 134.662 176.968 133.984 176.968 133.222C176.968 132.446 177.11 131.762 177.395 131.168C177.684 130.572 178.085 130.106 178.598 129.771C179.115 129.433 179.719 129.264 180.408 129.264C180.945 129.264 181.429 129.364 181.86 129.562C182.291 129.761 182.644 130.04 182.919 130.398C183.194 130.756 183.364 131.173 183.431 131.651H182.257C182.168 131.303 181.969 130.994 181.661 130.726C181.356 130.454 180.945 130.318 180.428 130.318C179.971 130.318 179.569 130.437 179.225 130.676C178.883 130.911 178.617 131.245 178.424 131.675C178.235 132.103 178.141 132.605 178.141 133.182C178.141 133.772 178.234 134.286 178.419 134.723C178.608 135.161 178.873 135.5 179.215 135.742C179.56 135.984 179.964 136.105 180.428 136.105C180.733 136.105 181.01 136.052 181.258 135.946C181.507 135.84 181.717 135.688 181.89 135.489C182.062 135.29 182.185 135.051 182.257 134.773H183.431C183.364 135.223 183.2 135.629 182.939 135.991C182.68 136.349 182.337 136.634 181.909 136.846C181.485 137.055 180.991 137.159 180.428 137.159ZM187.767 129.364V130.358H183.81V129.364H187.767ZM184.963 127.534H186.136V134.812C186.136 135.144 186.184 135.393 186.28 135.558C186.38 135.721 186.506 135.83 186.658 135.886C186.814 135.939 186.978 135.966 187.15 135.966C187.28 135.966 187.386 135.959 187.469 135.946C187.552 135.929 187.618 135.916 187.668 135.906L187.906 136.96C187.827 136.99 187.716 137.02 187.573 137.05C187.431 137.083 187.25 137.099 187.031 137.099C186.7 137.099 186.375 137.028 186.057 136.886C185.742 136.743 185.48 136.526 185.271 136.234C185.066 135.943 184.963 135.575 184.963 135.131V127.534ZM194.104 131.074L193.05 131.372C192.984 131.196 192.886 131.026 192.757 130.86C192.631 130.691 192.459 130.552 192.24 130.442C192.021 130.333 191.741 130.278 191.4 130.278C190.932 130.278 190.543 130.386 190.231 130.602C189.923 130.814 189.769 131.084 189.769 131.412C189.769 131.704 189.875 131.934 190.087 132.103C190.299 132.272 190.631 132.413 191.082 132.526L192.215 132.804C192.898 132.97 193.407 133.223 193.741 133.565C194.076 133.903 194.243 134.339 194.243 134.872C194.243 135.31 194.118 135.701 193.866 136.045C193.617 136.39 193.269 136.662 192.822 136.861C192.374 137.06 191.854 137.159 191.26 137.159C190.482 137.159 189.837 136.99 189.327 136.652C188.816 136.314 188.493 135.82 188.357 135.17L189.471 134.892C189.577 135.303 189.777 135.611 190.072 135.817C190.371 136.022 190.76 136.125 191.241 136.125C191.787 136.125 192.222 136.009 192.543 135.777C192.868 135.542 193.03 135.26 193.03 134.932C193.03 134.667 192.938 134.445 192.752 134.266C192.566 134.083 192.281 133.947 191.897 133.858L190.624 133.56C189.925 133.394 189.411 133.137 189.083 132.789C188.758 132.438 188.596 131.999 188.596 131.472C188.596 131.041 188.717 130.66 188.959 130.328C189.204 129.997 189.537 129.737 189.958 129.548C190.382 129.359 190.863 129.264 191.4 129.264C192.155 129.264 192.749 129.43 193.18 129.761C193.614 130.093 193.922 130.53 194.104 131.074Z" fill="#567FEF"/>
<path d="M236.618 137V126.818H240.058C240.857 126.818 241.51 126.962 242.017 127.251C242.527 127.536 242.905 127.922 243.15 128.409C243.395 128.896 243.518 129.44 243.518 130.04C243.518 130.64 243.395 131.185 243.15 131.675C242.908 132.166 242.534 132.557 242.027 132.849C241.52 133.137 240.87 133.281 240.078 133.281H237.612V132.188H240.038C240.585 132.188 241.024 132.093 241.355 131.904C241.687 131.715 241.927 131.46 242.076 131.138C242.229 130.814 242.305 130.447 242.305 130.04C242.305 129.632 242.229 129.268 242.076 128.946C241.927 128.625 241.685 128.373 241.35 128.19C241.016 128.005 240.572 127.912 240.018 127.912H237.85V137H236.618ZM244.645 137V129.364H245.779V130.517H245.858C245.997 130.139 246.249 129.833 246.614 129.597C246.978 129.362 247.389 129.244 247.847 129.244C247.933 129.244 248.041 129.246 248.17 129.249C248.299 129.253 248.397 129.258 248.463 129.264V130.457C248.424 130.447 248.332 130.433 248.19 130.413C248.051 130.389 247.903 130.378 247.747 130.378C247.376 130.378 247.045 130.456 246.753 130.612C246.465 130.764 246.236 130.976 246.067 131.248C245.901 131.516 245.818 131.823 245.818 132.168V137H244.645ZM252.024 137.159C251.335 137.159 250.73 136.995 250.209 136.667C249.692 136.339 249.288 135.88 248.996 135.29C248.708 134.7 248.564 134.01 248.564 133.222C248.564 132.426 248.708 131.732 248.996 131.138C249.288 130.545 249.692 130.085 250.209 129.756C250.73 129.428 251.335 129.264 252.024 129.264C252.713 129.264 253.317 129.428 253.834 129.756C254.354 130.085 254.758 130.545 255.047 131.138C255.338 131.732 255.484 132.426 255.484 133.222C255.484 134.01 255.338 134.7 255.047 135.29C254.758 135.88 254.354 136.339 253.834 136.667C253.317 136.995 252.713 137.159 252.024 137.159ZM252.024 136.105C252.548 136.105 252.979 135.971 253.317 135.702C253.655 135.434 253.905 135.081 254.067 134.643C254.23 134.206 254.311 133.732 254.311 133.222C254.311 132.711 254.23 132.236 254.067 131.795C253.905 131.354 253.655 130.998 253.317 130.726C252.979 130.454 252.548 130.318 252.024 130.318C251.5 130.318 251.069 130.454 250.731 130.726C250.393 130.998 250.143 131.354 249.981 131.795C249.818 132.236 249.737 132.711 249.737 133.222C249.737 133.732 249.818 134.206 249.981 134.643C250.143 135.081 250.393 135.434 250.731 135.702C251.069 135.971 251.5 136.105 252.024 136.105ZM259.459 137.159C258.822 137.159 258.261 136.998 257.773 136.677C257.286 136.352 256.905 135.895 256.63 135.305C256.355 134.711 256.217 134.01 256.217 133.202C256.217 132.4 256.355 131.704 256.63 131.114C256.905 130.524 257.288 130.068 257.778 129.746C258.269 129.425 258.836 129.264 259.479 129.264C259.976 129.264 260.369 129.347 260.657 129.513C260.949 129.675 261.171 129.861 261.323 130.07C261.479 130.275 261.6 130.444 261.686 130.577H261.785V126.818H262.959V137H261.825V135.827H261.686C261.6 135.966 261.477 136.142 261.318 136.354C261.159 136.562 260.932 136.75 260.637 136.915C260.342 137.078 259.949 137.159 259.459 137.159ZM259.618 136.105C260.088 136.105 260.486 135.982 260.811 135.737C261.136 135.489 261.383 135.146 261.552 134.708C261.721 134.267 261.805 133.759 261.805 133.182C261.805 132.612 261.722 132.113 261.557 131.685C261.391 131.254 261.146 130.92 260.821 130.681C260.496 130.439 260.095 130.318 259.618 130.318C259.121 130.318 258.706 130.446 258.375 130.701C258.047 130.953 257.8 131.296 257.634 131.73C257.472 132.161 257.391 132.645 257.391 133.182C257.391 133.725 257.473 134.219 257.639 134.663C257.808 135.104 258.057 135.455 258.385 135.717C258.716 135.976 259.127 136.105 259.618 136.105ZM269.383 133.878V129.364H270.556V137H269.383V135.707H269.303C269.125 136.095 268.846 136.425 268.468 136.697C268.09 136.965 267.613 137.099 267.036 137.099C266.559 137.099 266.135 136.995 265.764 136.786C265.393 136.574 265.101 136.256 264.889 135.832C264.677 135.404 264.571 134.866 264.571 134.216V129.364H265.744V134.136C265.744 134.693 265.9 135.137 266.211 135.469C266.526 135.8 266.927 135.966 267.414 135.966C267.706 135.966 268.003 135.891 268.304 135.742C268.609 135.593 268.864 135.364 269.07 135.056C269.279 134.748 269.383 134.355 269.383 133.878ZM275.108 137.159C274.392 137.159 273.775 136.99 273.258 136.652C272.741 136.314 272.343 135.848 272.065 135.255C271.787 134.662 271.647 133.984 271.647 133.222C271.647 132.446 271.79 131.762 272.075 131.168C272.363 130.572 272.764 130.106 273.278 129.771C273.795 129.433 274.398 129.264 275.088 129.264C275.625 129.264 276.109 129.364 276.539 129.562C276.97 129.761 277.323 130.04 277.598 130.398C277.873 130.756 278.044 131.173 278.11 131.651H276.937C276.848 131.303 276.649 130.994 276.341 130.726C276.036 130.454 275.625 130.318 275.108 130.318C274.65 130.318 274.249 130.437 273.904 130.676C273.563 130.911 273.296 131.245 273.104 131.675C272.915 132.103 272.821 132.605 272.821 133.182C272.821 133.772 272.913 134.286 273.099 134.723C273.288 135.161 273.553 135.5 273.895 135.742C274.239 135.984 274.644 136.105 275.108 136.105C275.413 136.105 275.689 136.052 275.938 135.946C276.186 135.84 276.397 135.688 276.569 135.489C276.742 135.29 276.864 135.051 276.937 134.773H278.11C278.044 135.223 277.88 135.629 277.618 135.991C277.36 136.349 277.017 136.634 276.589 136.846C276.165 137.055 275.671 137.159 275.108 137.159ZM282.447 129.364V130.358H278.489V129.364H282.447ZM279.643 127.534H280.816V134.812C280.816 135.144 280.864 135.393 280.96 135.558C281.06 135.721 281.186 135.83 281.338 135.886C281.494 135.939 281.658 135.966 281.83 135.966C281.959 135.966 282.065 135.959 282.148 135.946C282.231 135.929 282.297 135.916 282.347 135.906L282.586 136.96C282.506 136.99 282.395 137.02 282.253 137.05C282.11 137.083 281.93 137.099 281.711 137.099C281.379 137.099 281.055 137.028 280.736 136.886C280.422 136.743 280.16 136.526 279.951 136.234C279.745 135.943 279.643 135.575 279.643 135.131V127.534ZM288.784 131.074L287.73 131.372C287.664 131.196 287.566 131.026 287.437 130.86C287.311 130.691 287.138 130.552 286.92 130.442C286.701 130.333 286.421 130.278 286.079 130.278C285.612 130.278 285.223 130.386 284.911 130.602C284.603 130.814 284.449 131.084 284.449 131.412C284.449 131.704 284.555 131.934 284.767 132.103C284.979 132.272 285.31 132.413 285.761 132.526L286.895 132.804C287.577 132.97 288.086 133.223 288.421 133.565C288.756 133.903 288.923 134.339 288.923 134.872C288.923 135.31 288.797 135.701 288.545 136.045C288.297 136.39 287.949 136.662 287.501 136.861C287.054 137.06 286.533 137.159 285.94 137.159C285.161 137.159 284.517 136.99 284.006 136.652C283.496 136.314 283.173 135.82 283.037 135.17L284.15 134.892C284.256 135.303 284.457 135.611 284.752 135.817C285.05 136.022 285.44 136.125 285.92 136.125C286.467 136.125 286.901 136.009 287.223 135.777C287.548 135.542 287.71 135.26 287.71 134.932C287.71 134.667 287.617 134.445 287.432 134.266C287.246 134.083 286.961 133.947 286.577 133.858L285.304 133.56C284.604 133.394 284.091 133.137 283.763 132.789C283.438 132.438 283.275 131.999 283.275 131.472C283.275 131.041 283.396 130.66 283.638 130.328C283.884 129.997 284.217 129.737 284.638 129.548C285.062 129.359 285.542 129.264 286.079 129.264C286.835 129.264 287.428 129.43 287.859 129.761C288.293 130.093 288.602 130.53 288.784 131.074Z" fill="#567FEF"/>
</g>
<rect x="0.5" y="0.5" width="341" height="263" rx="7.5" stroke="white" stroke-opacity="0.1"/>
<defs>
<filter id="filter0_d_142_855" x="20" y="22" width="302" height="64" filterUnits="userSpaceOnUse" color-interpolation-filters="sRGB">
<feFlood flood-opacity="0" result="BackgroundImageFix"/>
<feColorMatrix in="SourceAlpha" type="matrix" values="0 0 0 0 0 0 0 0 0 0 0 0 0 0 0 0 0 0 127 0" result="hardAlpha"/>
<feOffset dy="2"/>
<feGaussianBlur stdDeviation="2"/>
<feComposite in2="hardAlpha" operator="out"/>
<feColorMatrix type="matrix" values="0 0 0 0 0.188235 0 0 0 0 0.188235 0 0 0 0 0.188235 0 0 0 0.17 0"/>
<feBlend mode="normal" in2="BackgroundImageFix" result="effect1_dropShadow_142_855"/>
<feBlend mode="normal" in="SourceGraphic" in2="effect1_dropShadow_142_855" result="shape"/>
</filter>
<filter id="filter1_d_142_855" x="20" y="182" width="302" height="64" filterUnits="userSpaceOnUse" color-interpolation-filters="sRGB">
<feFlood flood-opacity="0" result="BackgroundImageFix"/>
<feColorMatrix in="SourceAlpha" type="matrix" values="0 0 0 0 0 0 0 0 0 0 0 0 0 0 0 0 0 0 127 0" result="hardAlpha"/>
<feOffset dy="2"/>
<feGaussianBlur stdDeviation="2"/>
<feComposite in2="hardAlpha" operator="out"/>
<feColorMatrix type="matrix" values="0 0 0 0 0.188235 0 0 0 0 0.188235 0 0 0 0 0.188235 0 0 0 0.17 0"/>
<feBlend mode="normal" in2="BackgroundImageFix" result="effect1_dropShadow_142_855"/>
<feBlend mode="normal" in="SourceGraphic" in2="effect1_dropShadow_142_855" result="shape"/>
</filter>
<filter id="filter2_d_142_855" x="20" y="102" width="302" height="64" filterUnits="userSpaceOnUse" color-interpolation-filters="sRGB">
<feFlood flood-opacity="0" result="BackgroundImageFix"/>
<feColorMatrix in="SourceAlpha" type="matrix" values="0 0 0 0 0 0 0 0 0 0 0 0 0 0 0 0 0 0 127 0" result="hardAlpha"/>
<feOffset dy="2"/>
<feGaussianBlur stdDeviation="2"/>
<feComposite in2="hardAlpha" operator="out"/>
<feColorMatrix type="matrix" values="0 0 0 0 0.188235 0 0 0 0 0.188235 0 0 0 0 0.188235 0 0 0 0.17 0"/>
<feBlend mode="normal" in2="BackgroundImageFix" result="effect1_dropShadow_142_855"/>
<feBlend mode="normal" in="SourceGraphic" in2="effect1_dropShadow_142_855" result="shape"/>
</filter>
</defs>
</svg>
