<svg width="376" height="448" viewBox="0 0 376 448" fill="none" xmlns="http://www.w3.org/2000/svg">
<rect width="376" height="448" rx="8" fill="#F0F0F0"/>
<g filter="url(#filter0_d_98_328)">
<rect x="24" y="24" width="72" height="400" rx="16" fill="#FEFEFE" shape-rendering="crispEdges"/>
<rect x="36" y="362" width="48" height="48" rx="12" fill="white"/>
<path fill-rule="evenodd" clip-rule="evenodd" d="M59.078 376.25C58.1614 376.25 57.3792 376.913 57.2285 377.817L57.0499 378.889C57.0297 379.01 56.9355 379.15 56.7532 379.237C56.4092 379.403 56.0798 379.594 55.7675 379.808C55.601 379.922 55.4327 379.933 55.3178 379.89L54.2986 379.508C53.4403 379.187 52.4753 379.533 52.017 380.327L51.0951 381.924C50.6368 382.717 50.8195 383.726 51.5272 384.309L52.3677 385.001C52.4623 385.078 52.5364 385.23 52.5213 385.431C52.5072 385.619 52.5 385.809 52.5 386C52.5 386.191 52.5072 386.381 52.5213 386.569C52.5364 386.77 52.4623 386.922 52.3677 387L51.5272 387.692C50.8195 388.274 50.6368 389.283 51.0951 390.077L52.017 391.674C52.4753 392.467 53.4403 392.813 54.2986 392.492L55.318 392.11C55.4329 392.067 55.6013 392.079 55.7677 392.192C56.0799 392.406 56.4093 392.597 56.7532 392.763C56.9355 392.85 57.0297 392.99 57.0499 393.111L57.2285 394.183C57.3792 395.087 58.1614 395.75 59.078 395.75H60.922C61.8385 395.75 62.6208 395.087 62.7714 394.183L62.9501 393.111C62.9703 392.99 63.0644 392.85 63.2467 392.763C63.5908 392.597 63.9202 392.406 64.2325 392.192C64.3989 392.078 64.5673 392.067 64.6822 392.11L65.7013 392.492C66.5597 392.813 67.5247 392.467 67.9829 391.673L68.9049 390.076C69.3632 389.283 69.1805 388.274 68.4728 387.691L67.6323 386.999C67.5377 386.922 67.4636 386.77 67.4787 386.569C67.4928 386.381 67.5 386.191 67.5 386C67.5 385.809 67.4928 385.619 67.4786 385.431C67.4635 385.23 67.5376 385.078 67.6323 385L68.4728 384.308C69.1805 383.726 69.3632 382.717 68.9049 381.923L67.9829 380.326C67.5247 379.533 66.5597 379.187 65.7013 379.508L64.6819 379.89C64.567 379.933 64.3987 379.921 64.2322 379.807C63.92 379.594 63.5907 379.403 63.2467 379.237C63.0644 379.15 62.9703 379.01 62.9501 378.889L62.7714 377.817C62.6208 376.913 61.8385 376.25 60.922 376.25H59.078ZM60.0001 389.75C62.0712 389.75 63.7501 388.071 63.7501 386C63.7501 383.929 62.0712 382.25 60.0001 382.25C57.9291 382.25 56.2501 383.929 56.2501 386C56.2501 388.071 57.9291 389.75 60.0001 389.75Z" fill="#303030"/>
<rect x="36" y="249" width="48" height="48" rx="12" fill="white"/>
<path fill-rule="evenodd" clip-rule="evenodd" d="M55.5 267C55.5 264.515 57.5147 262.5 60 262.5C62.4852 262.5 64.5 264.515 64.5 267C64.5 269.485 62.4852 271.5 60 271.5C57.5147 271.5 55.5 269.485 55.5 267Z" fill="#303030"/>
<path fill-rule="evenodd" clip-rule="evenodd" d="M51.7511 281.105C51.8284 276.616 55.4918 273 59.9999 273C64.508 273 68.1715 276.616 68.2486 281.106C68.2537 281.403 68.0822 281.676 67.8115 281.8C65.4326 282.892 62.7864 283.5 60.0002 283.5C57.2137 283.5 54.5673 282.892 52.1882 281.8C51.9175 281.676 51.746 281.403 51.7511 281.105Z" fill="#303030"/>
<rect x="36" y="193" width="48" height="48" rx="12" fill="white"/>
<path d="M49.5 213.669V222.25C49.5 223.907 50.8432 225.25 52.5 225.25H67.5C69.1569 225.25 70.5 223.907 70.5 222.25V213.669L61.5723 219.163C60.6081 219.756 59.3919 219.756 58.4277 219.163L49.5 213.669Z" fill="#303030"/>
<path d="M70.5 211.908V211.75C70.5 210.093 69.1569 208.75 67.5 208.75H52.5C50.8432 208.75 49.5 210.093 49.5 211.75V211.908L59.2139 217.886C59.696 218.182 60.304 218.182 60.7861 217.886L70.5 211.908Z" fill="#303030"/>
<rect x="88" y="147" width="53" height="29" rx="8" fill="#303030"/>
<path d="M97.2664 167V156.818H98.4993V161.352H103.928V156.818H105.161V167H103.928V162.446H98.4993V167H97.2664ZM109.873 167.159C109.183 167.159 108.579 166.995 108.058 166.667C107.541 166.339 107.137 165.88 106.845 165.29C106.557 164.7 106.413 164.01 106.413 163.222C106.413 162.426 106.557 161.732 106.845 161.138C107.137 160.545 107.541 160.085 108.058 159.756C108.579 159.428 109.183 159.264 109.873 159.264C110.562 159.264 111.165 159.428 111.682 159.756C112.203 160.085 112.607 160.545 112.896 161.138C113.187 161.732 113.333 162.426 113.333 163.222C113.333 164.01 113.187 164.7 112.896 165.29C112.607 165.88 112.203 166.339 111.682 166.667C111.165 166.995 110.562 167.159 109.873 167.159ZM109.873 166.105C110.396 166.105 110.827 165.971 111.165 165.702C111.503 165.434 111.754 165.081 111.916 164.643C112.079 164.206 112.16 163.732 112.16 163.222C112.16 162.711 112.079 162.236 111.916 161.795C111.754 161.354 111.503 160.998 111.165 160.726C110.827 160.454 110.396 160.318 109.873 160.318C109.349 160.318 108.918 160.454 108.58 160.726C108.242 160.998 107.992 161.354 107.829 161.795C107.667 162.236 107.586 162.711 107.586 163.222C107.586 163.732 107.667 164.206 107.829 164.643C107.992 165.081 108.242 165.434 108.58 165.702C108.918 165.971 109.349 166.105 109.873 166.105ZM114.424 167V159.364H115.558V160.557H115.657C115.816 160.149 116.073 159.833 116.428 159.607C116.782 159.379 117.208 159.264 117.705 159.264C118.209 159.264 118.628 159.379 118.963 159.607C119.301 159.833 119.565 160.149 119.754 160.557H119.833C120.029 160.162 120.322 159.849 120.713 159.617C121.104 159.382 121.573 159.264 122.12 159.264C122.803 159.264 123.361 159.478 123.796 159.906C124.23 160.33 124.447 160.991 124.447 161.889V167H123.273V161.889C123.273 161.326 123.119 160.923 122.811 160.681C122.503 160.439 122.14 160.318 121.722 160.318C121.185 160.318 120.769 160.481 120.474 160.805C120.18 161.127 120.032 161.535 120.032 162.028V167H118.839V161.77C118.839 161.336 118.698 160.986 118.416 160.721C118.135 160.452 117.772 160.318 117.327 160.318C117.023 160.318 116.738 160.399 116.472 160.562C116.211 160.724 115.998 160.95 115.836 161.238C115.677 161.523 115.597 161.853 115.597 162.227V167H114.424ZM129.094 167.159C128.358 167.159 127.723 166.997 127.19 166.672C126.659 166.344 126.25 165.886 125.962 165.3C125.677 164.71 125.534 164.024 125.534 163.241C125.534 162.459 125.677 161.77 125.962 161.173C126.25 160.573 126.651 160.106 127.165 159.771C127.682 159.433 128.285 159.264 128.974 159.264C129.372 159.264 129.765 159.33 130.153 159.463C130.54 159.596 130.893 159.811 131.212 160.109C131.53 160.404 131.783 160.795 131.972 161.283C132.161 161.77 132.256 162.37 132.256 163.082V163.58H126.369V162.565H131.062C131.062 162.134 130.976 161.75 130.804 161.412C130.635 161.074 130.393 160.807 130.078 160.612C129.767 160.416 129.399 160.318 128.974 160.318C128.507 160.318 128.103 160.434 127.761 160.666C127.423 160.895 127.163 161.193 126.981 161.561C126.799 161.929 126.707 162.323 126.707 162.744V163.42C126.707 163.997 126.807 164.486 127.006 164.887C127.208 165.285 127.488 165.588 127.846 165.797C128.204 166.002 128.62 166.105 129.094 166.105C129.402 166.105 129.68 166.062 129.929 165.976C130.181 165.886 130.398 165.754 130.58 165.578C130.763 165.399 130.903 165.177 131.003 164.912L132.136 165.23C132.017 165.615 131.817 165.953 131.535 166.244C131.253 166.533 130.905 166.758 130.491 166.92C130.076 167.08 129.611 167.159 129.094 167.159Z" fill="white"/>
<rect x="36" y="137" width="48" height="48" rx="12" fill="#567FEF"/>
<path d="M59.4697 151.841C59.7626 151.548 60.2374 151.548 60.5303 151.841L69.2197 160.53C69.5126 160.823 69.9874 160.823 70.2803 160.53C70.5732 160.237 70.5732 159.762 70.2803 159.469L61.591 150.78C60.7123 149.901 59.2877 149.901 58.409 150.78L49.7197 159.469C49.4268 159.762 49.4268 160.237 49.7197 160.53C50.0126 160.823 50.4874 160.823 50.7803 160.53L59.4697 151.841Z" fill="white"/>
<path d="M60 153.432L68.159 161.591C68.1887 161.621 68.2191 161.649 68.25 161.677V167.875C68.25 168.91 67.4105 169.75 66.375 169.75H63C62.5858 169.75 62.25 169.414 62.25 169V164.5C62.25 164.086 61.9142 163.75 61.5 163.75H58.5C58.0858 163.75 57.75 164.086 57.75 164.5V169C57.75 169.414 57.4142 169.75 57 169.75H53.625C52.5895 169.75 51.75 168.91 51.75 167.875V161.677C51.7809 161.649 51.8113 161.621 51.841 161.591L60 153.432Z" fill="white"/>
<path fill-rule="evenodd" clip-rule="evenodd" d="M51 104.75C51 104.336 51.3358 104 51.75 104H68.25C68.6642 104 69 104.336 69 104.75C69 105.164 68.6642 105.5 68.25 105.5H51.75C51.3358 105.5 51 105.164 51 104.75ZM51 110C51 109.586 51.3358 109.25 51.75 109.25H68.25C68.6642 109.25 69 109.586 69 110C69 110.414 68.6642 110.75 68.25 110.75H51.75C51.3358 110.75 51 110.414 51 110ZM51 115.25C51 114.836 51.3358 114.5 51.75 114.5H68.25C68.6642 114.5 69 114.836 69 115.25C69 115.664 68.6642 116 68.25 116H51.75C51.3358 116 51 115.664 51 115.25Z" fill="#303030"/>
<g clip-path="url(#clip0_98_328)">
<mask id="mask0_98_328" style="mask-type:luminance" maskUnits="userSpaceOnUse" x="45" y="38" width="28" height="28">
<path d="M72.8133 38H45V65.8133H72.8133V38Z" fill="white"/>
</mask>
<g mask="url(#mask0_98_328)">
<path fill-rule="evenodd" clip-rule="evenodd" d="M47.3185 65.8133H60.0667C60.3701 65.8133 60.6704 65.7536 60.9506 65.6375C61.231 65.5214 61.4857 65.3512 61.7001 65.1367C62.1333 64.7035 62.3767 64.1159 62.3767 63.5033V50.7482C62.3764 50.1334 62.132 49.544 61.6973 49.1093C61.2627 48.6746 60.6733 48.4303 60.0586 48.43H57.7403C57.1256 48.4303 56.5363 48.6746 56.1016 49.1093C55.6669 49.544 55.4226 50.1334 55.4223 50.7482V58.86H51.9456V50.7482C51.9456 50.1336 51.7015 49.5441 51.267 49.1094C50.8325 48.6747 50.2431 48.4303 49.6285 48.43H47.3104C46.6957 48.4303 46.1062 48.6746 45.6715 49.1093C45.2368 49.544 44.9925 50.1334 44.9922 50.7482V63.4952C44.9927 64.1079 45.2365 64.6954 45.6701 65.1285C45.8857 65.3463 46.1424 65.519 46.4255 65.6366C46.7085 65.7542 47.0121 65.8143 47.3185 65.8133ZM65.8604 63.4952C65.8604 64.1098 66.1044 64.6993 66.5389 65.134C66.9734 65.5687 67.5628 65.813 68.1774 65.8133H70.4955C71.1102 65.813 71.6997 65.5687 72.1344 65.134C72.5691 64.6994 72.8134 64.1099 72.8138 63.4952V61.1782C72.8134 60.5634 72.5691 59.974 72.1344 59.5393C71.6997 59.1046 71.1102 58.8603 70.4955 58.86H68.1774C67.5628 58.8603 66.9734 59.1046 66.5389 59.5393C66.1044 59.974 65.8604 60.5636 65.8604 61.1782V63.4952ZM70.4955 38H57.7473C57.1326 38.0003 56.5432 38.2446 56.1086 38.6793C55.6739 39.114 55.4296 39.7034 55.4292 40.3182V42.6363C55.4296 43.251 55.6739 43.8405 56.1086 44.2752C56.5432 44.7099 57.1326 44.9542 57.7473 44.9545H65.8592V53.0663C65.8592 53.6809 66.1033 54.2704 66.5378 54.7051C66.9723 55.1398 67.5617 55.3841 68.1763 55.3845H70.4943C71.109 55.3841 71.6986 55.1398 72.1333 54.7051C72.568 54.2704 72.8123 53.681 72.8126 53.0663V40.3182C72.8124 39.7056 72.5689 39.1181 72.1358 38.6848C71.9212 38.468 71.6657 38.2959 71.3841 38.1783C71.1026 38.0608 70.8006 38.0002 70.4955 38Z" fill="#567FEF"/>
</g>
</g>
</g>
<g filter="url(#filter1_d_98_328)">
<rect x="160" y="24" width="192" height="400" rx="16" fill="#FEFEFE" shape-rendering="crispEdges"/>
<rect x="172" y="362" width="48" height="48" rx="12" fill="white"/>
<path d="M238.948 383.364C238.889 382.86 238.647 382.469 238.223 382.19C237.798 381.912 237.278 381.773 236.661 381.773C236.211 381.773 235.816 381.846 235.478 381.991C235.143 382.137 234.882 382.338 234.693 382.593C234.507 382.848 234.414 383.138 234.414 383.463C234.414 383.735 234.479 383.969 234.608 384.164C234.741 384.356 234.91 384.517 235.115 384.646C235.321 384.772 235.536 384.877 235.762 384.96C235.987 385.039 236.194 385.104 236.383 385.153L237.417 385.432C237.682 385.501 237.977 385.598 238.302 385.72C238.63 385.843 238.943 386.01 239.242 386.222C239.543 386.431 239.792 386.7 239.987 387.028C240.183 387.356 240.281 387.759 240.281 388.236C240.281 388.786 240.137 389.283 239.848 389.727C239.563 390.171 239.146 390.524 238.595 390.786C238.049 391.048 237.384 391.179 236.602 391.179C235.873 391.179 235.241 391.061 234.708 390.826C234.177 390.591 233.76 390.263 233.455 389.842C233.153 389.421 232.982 388.932 232.943 388.375H234.215C234.249 388.759 234.378 389.078 234.603 389.33C234.832 389.578 235.12 389.764 235.468 389.886C235.82 390.006 236.197 390.065 236.602 390.065C237.072 390.065 237.495 389.989 237.87 389.837C238.244 389.681 238.541 389.465 238.759 389.19C238.978 388.912 239.088 388.587 239.088 388.216C239.088 387.878 238.993 387.603 238.804 387.391C238.615 387.179 238.367 387.006 238.058 386.874C237.75 386.741 237.417 386.625 237.059 386.526L235.806 386.168C235.011 385.939 234.381 385.612 233.917 385.188C233.453 384.764 233.221 384.209 233.221 383.523C233.221 382.953 233.375 382.455 233.683 382.031C233.995 381.604 234.413 381.272 234.936 381.037C235.463 380.798 236.052 380.679 236.701 380.679C237.357 380.679 237.941 380.797 238.451 381.032C238.962 381.264 239.366 381.582 239.664 381.987C239.966 382.391 240.125 382.85 240.142 383.364H238.948ZM244.651 391.159C243.915 391.159 243.28 390.997 242.746 390.672C242.216 390.344 241.807 389.886 241.518 389.3C241.233 388.71 241.091 388.024 241.091 387.241C241.091 386.459 241.233 385.77 241.518 385.173C241.807 384.573 242.208 384.106 242.722 383.771C243.239 383.433 243.842 383.264 244.531 383.264C244.929 383.264 245.322 383.33 245.71 383.463C246.097 383.596 246.45 383.811 246.768 384.109C247.087 384.404 247.34 384.795 247.529 385.283C247.718 385.77 247.813 386.37 247.813 387.082V387.58H241.926V386.565H246.619C246.619 386.134 246.533 385.75 246.361 385.412C246.192 385.074 245.95 384.807 245.635 384.612C245.323 384.416 244.955 384.318 244.531 384.318C244.064 384.318 243.66 384.434 243.318 384.666C242.98 384.895 242.72 385.193 242.538 385.561C242.355 385.929 242.264 386.323 242.264 386.744V387.42C242.264 387.997 242.364 388.486 242.563 388.887C242.765 389.285 243.045 389.588 243.403 389.797C243.761 390.002 244.177 390.105 244.651 390.105C244.959 390.105 245.237 390.062 245.486 389.976C245.738 389.886 245.955 389.754 246.137 389.578C246.319 389.399 246.46 389.177 246.56 388.912L247.693 389.23C247.574 389.615 247.373 389.953 247.092 390.244C246.81 390.533 246.462 390.758 246.048 390.92C245.633 391.08 245.168 391.159 244.651 391.159ZM252.218 383.364V384.358H248.261V383.364H252.218ZM249.414 381.534H250.588V388.812C250.588 389.144 250.636 389.393 250.732 389.558C250.831 389.721 250.957 389.83 251.11 389.886C251.265 389.939 251.429 389.966 251.602 389.966C251.731 389.966 251.837 389.959 251.92 389.946C252.003 389.929 252.069 389.916 252.119 389.906L252.358 390.96C252.278 390.99 252.167 391.02 252.024 391.05C251.882 391.083 251.701 391.099 251.483 391.099C251.151 391.099 250.826 391.028 250.508 390.886C250.193 390.743 249.931 390.526 249.723 390.234C249.517 389.943 249.414 389.575 249.414 389.131V381.534ZM256.604 383.364V384.358H252.647V383.364H256.604ZM253.8 381.534H254.974V388.812C254.974 389.144 255.022 389.393 255.118 389.558C255.217 389.721 255.343 389.83 255.496 389.886C255.651 389.939 255.815 389.966 255.988 389.966C256.117 389.966 256.223 389.959 256.306 389.946C256.389 389.929 256.455 389.916 256.505 389.906L256.743 390.96C256.664 390.99 256.553 391.02 256.41 391.05C256.268 391.083 256.087 391.099 255.868 391.099C255.537 391.099 255.212 391.028 254.894 390.886C254.579 390.743 254.317 390.526 254.109 390.234C253.903 389.943 253.8 389.575 253.8 389.131V381.534ZM257.669 391V383.364H258.842V391H257.669ZM258.266 382.091C258.037 382.091 257.84 382.013 257.674 381.857C257.512 381.701 257.431 381.514 257.431 381.295C257.431 381.077 257.512 380.889 257.674 380.734C257.84 380.578 258.037 380.5 258.266 380.5C258.494 380.5 258.69 380.578 258.852 380.734C259.018 380.889 259.101 381.077 259.101 381.295C259.101 381.514 259.018 381.701 258.852 381.857C258.69 382.013 258.494 382.091 258.266 382.091ZM261.465 386.406V391H260.291V383.364H261.425V384.557H261.524C261.703 384.169 261.975 383.857 262.34 383.622C262.704 383.384 263.175 383.264 263.752 383.264C264.269 383.264 264.721 383.37 265.109 383.582C265.497 383.791 265.798 384.109 266.014 384.537C266.229 384.961 266.337 385.498 266.337 386.148V391H265.164V386.227C265.164 385.627 265.008 385.16 264.696 384.825C264.385 384.487 263.957 384.318 263.414 384.318C263.039 384.318 262.704 384.399 262.409 384.562C262.118 384.724 261.887 384.961 261.718 385.273C261.549 385.584 261.465 385.962 261.465 386.406ZM270.863 394.023C270.297 394.023 269.809 393.95 269.402 393.804C268.994 393.661 268.654 393.473 268.382 393.237C268.114 393.005 267.9 392.757 267.741 392.491L268.676 391.835C268.782 391.974 268.916 392.134 269.078 392.312C269.241 392.495 269.463 392.652 269.745 392.785C270.03 392.921 270.403 392.989 270.863 392.989C271.48 392.989 271.989 392.839 272.39 392.541C272.791 392.243 272.991 391.776 272.991 391.139V389.588H272.892C272.806 389.727 272.683 389.9 272.524 390.105C272.368 390.307 272.143 390.488 271.848 390.647C271.556 390.803 271.162 390.881 270.664 390.881C270.048 390.881 269.494 390.735 269.004 390.443C268.517 390.152 268.131 389.727 267.846 389.17C267.564 388.614 267.423 387.937 267.423 387.142C267.423 386.36 267.56 385.679 267.836 385.099C268.111 384.515 268.493 384.065 268.984 383.746C269.475 383.425 270.041 383.264 270.684 383.264C271.181 383.264 271.576 383.347 271.868 383.513C272.163 383.675 272.388 383.861 272.544 384.07C272.703 384.275 272.825 384.444 272.912 384.577H273.031V383.364H274.164V391.219C274.164 391.875 274.015 392.409 273.717 392.82C273.422 393.234 273.024 393.537 272.524 393.729C272.027 393.925 271.473 394.023 270.863 394.023ZM270.824 389.827C271.294 389.827 271.692 389.719 272.017 389.504C272.342 389.288 272.588 388.978 272.757 388.574C272.926 388.17 273.011 387.686 273.011 387.122C273.011 386.572 272.928 386.086 272.762 385.665C272.597 385.245 272.351 384.915 272.027 384.676C271.702 384.437 271.301 384.318 270.824 384.318C270.326 384.318 269.912 384.444 269.581 384.696C269.252 384.948 269.006 385.286 268.84 385.71C268.677 386.134 268.596 386.605 268.596 387.122C268.596 387.652 268.679 388.121 268.845 388.529C269.014 388.933 269.262 389.252 269.591 389.484C269.922 389.712 270.333 389.827 270.824 389.827ZM281.021 385.074L279.967 385.372C279.901 385.196 279.803 385.026 279.674 384.86C279.548 384.691 279.376 384.552 279.157 384.442C278.938 384.333 278.658 384.278 278.317 384.278C277.849 384.278 277.46 384.386 277.148 384.602C276.84 384.814 276.686 385.084 276.686 385.412C276.686 385.704 276.792 385.934 277.004 386.103C277.216 386.272 277.548 386.413 277.999 386.526L279.132 386.804C279.815 386.97 280.324 387.223 280.658 387.565C280.993 387.903 281.16 388.339 281.16 388.872C281.16 389.31 281.034 389.701 280.783 390.045C280.534 390.39 280.186 390.662 279.739 390.861C279.291 391.06 278.771 391.159 278.177 391.159C277.399 391.159 276.754 390.99 276.244 390.652C275.733 390.314 275.41 389.82 275.274 389.17L276.388 388.892C276.494 389.303 276.694 389.611 276.989 389.817C277.288 390.022 277.677 390.125 278.158 390.125C278.704 390.125 279.139 390.009 279.46 389.777C279.785 389.542 279.947 389.26 279.947 388.932C279.947 388.667 279.855 388.445 279.669 388.266C279.483 388.083 279.198 387.947 278.814 387.858L277.541 387.56C276.842 387.394 276.328 387.137 276 386.789C275.675 386.438 275.513 385.999 275.513 385.472C275.513 385.041 275.634 384.66 275.876 384.328C276.121 383.997 276.454 383.737 276.875 383.548C277.299 383.359 277.78 383.264 278.317 383.264C279.072 383.264 279.666 383.43 280.097 383.761C280.531 384.093 280.839 384.53 281.021 385.074Z" fill="#303030"/>
<path fill-rule="evenodd" clip-rule="evenodd" d="M195.078 376.25C194.161 376.25 193.379 376.913 193.229 377.817L193.05 378.889C193.03 379.01 192.936 379.15 192.753 379.237C192.409 379.403 192.08 379.594 191.768 379.808C191.601 379.922 191.433 379.933 191.318 379.89L190.299 379.508C189.44 379.187 188.475 379.533 188.017 380.327L187.095 381.924C186.637 382.717 186.82 383.726 187.527 384.309L188.368 385.001C188.462 385.078 188.536 385.23 188.521 385.431C188.507 385.619 188.5 385.809 188.5 386C188.5 386.191 188.507 386.381 188.521 386.569C188.536 386.77 188.462 386.922 188.368 387L187.527 387.692C186.82 388.274 186.637 389.283 187.095 390.077L188.017 391.674C188.475 392.467 189.44 392.813 190.299 392.492L191.318 392.11C191.433 392.067 191.601 392.079 191.768 392.192C192.08 392.406 192.409 392.597 192.753 392.763C192.936 392.85 193.03 392.99 193.05 393.111L193.229 394.183C193.379 395.087 194.161 395.75 195.078 395.75H196.922C197.839 395.75 198.621 395.087 198.771 394.183L198.95 393.111C198.97 392.99 199.064 392.85 199.247 392.763C199.591 392.597 199.92 392.406 200.233 392.192C200.399 392.078 200.567 392.067 200.682 392.11L201.701 392.492C202.56 392.813 203.525 392.467 203.983 391.673L204.905 390.076C205.363 389.283 205.181 388.274 204.473 387.691L203.632 386.999C203.538 386.922 203.464 386.77 203.479 386.569C203.493 386.381 203.5 386.191 203.5 386C203.5 385.809 203.493 385.619 203.479 385.431C203.464 385.23 203.538 385.078 203.632 385L204.473 384.308C205.181 383.726 205.363 382.717 204.905 381.923L203.983 380.326C203.525 379.533 202.56 379.187 201.701 379.508L200.682 379.89C200.567 379.933 200.399 379.921 200.232 379.807C199.92 379.594 199.591 379.403 199.247 379.237C199.064 379.15 198.97 379.01 198.95 378.889L198.771 377.817C198.621 376.913 197.839 376.25 196.922 376.25H195.078ZM196 389.75C198.071 389.75 199.75 388.071 199.75 386C199.75 383.929 198.071 382.25 196 382.25C193.929 382.25 192.25 383.929 192.25 386C192.25 388.071 193.929 389.75 196 389.75Z" fill="#303030"/>
<rect x="172" y="249" width="48" height="48" rx="12" fill="white"/>
<path d="M241.721 271H240.488C240.416 270.645 240.288 270.334 240.106 270.065C239.927 269.797 239.708 269.571 239.449 269.389C239.194 269.204 238.911 269.064 238.599 268.972C238.288 268.879 237.963 268.832 237.625 268.832C237.008 268.832 236.45 268.988 235.949 269.3C235.452 269.611 235.056 270.07 234.761 270.677C234.47 271.283 234.324 272.027 234.324 272.909C234.324 273.791 234.47 274.535 234.761 275.141C235.056 275.748 235.452 276.207 235.949 276.518C236.45 276.83 237.008 276.986 237.625 276.986C237.963 276.986 238.288 276.939 238.599 276.847C238.911 276.754 239.194 276.616 239.449 276.434C239.708 276.248 239.927 276.021 240.106 275.753C240.288 275.481 240.416 275.17 240.488 274.818H241.721C241.629 275.339 241.46 275.804 241.214 276.215C240.969 276.626 240.664 276.976 240.3 277.264C239.935 277.549 239.526 277.766 239.072 277.915C238.621 278.065 238.139 278.139 237.625 278.139C236.756 278.139 235.984 277.927 235.308 277.503C234.632 277.079 234.1 276.475 233.712 275.693C233.324 274.911 233.131 273.983 233.131 272.909C233.131 271.835 233.324 270.907 233.712 270.125C234.1 269.343 234.632 268.74 235.308 268.315C235.984 267.891 236.756 267.679 237.625 267.679C238.139 267.679 238.621 267.754 239.072 267.903C239.526 268.052 239.935 268.271 240.3 268.559C240.664 268.844 240.969 269.192 241.214 269.603C241.46 270.011 241.629 270.476 241.721 271ZM245.957 278.159C245.268 278.159 244.663 277.995 244.142 277.667C243.625 277.339 243.221 276.88 242.929 276.29C242.641 275.7 242.497 275.01 242.497 274.222C242.497 273.426 242.641 272.732 242.929 272.138C243.221 271.545 243.625 271.085 244.142 270.756C244.663 270.428 245.268 270.264 245.957 270.264C246.646 270.264 247.25 270.428 247.767 270.756C248.287 271.085 248.691 271.545 248.98 272.138C249.271 272.732 249.417 273.426 249.417 274.222C249.417 275.01 249.271 275.7 248.98 276.29C248.691 276.88 248.287 277.339 247.767 277.667C247.25 277.995 246.646 278.159 245.957 278.159ZM245.957 277.105C246.481 277.105 246.912 276.971 247.25 276.702C247.588 276.434 247.838 276.081 248 275.643C248.163 275.206 248.244 274.732 248.244 274.222C248.244 273.711 248.163 273.236 248 272.795C247.838 272.354 247.588 271.998 247.25 271.726C246.912 271.454 246.481 271.318 245.957 271.318C245.433 271.318 245.002 271.454 244.664 271.726C244.326 271.998 244.076 272.354 243.914 272.795C243.751 273.236 243.67 273.711 243.67 274.222C243.67 274.732 243.751 275.206 243.914 275.643C244.076 276.081 244.326 276.434 244.664 276.702C245.002 276.971 245.433 277.105 245.957 277.105ZM251.682 273.406V278H250.508V270.364H251.642V271.557H251.741C251.92 271.169 252.192 270.857 252.557 270.622C252.921 270.384 253.392 270.264 253.968 270.264C254.486 270.264 254.938 270.37 255.326 270.582C255.713 270.791 256.015 271.109 256.231 271.537C256.446 271.961 256.554 272.498 256.554 273.148V278H255.38V273.227C255.38 272.627 255.225 272.16 254.913 271.825C254.602 271.487 254.174 271.318 253.63 271.318C253.256 271.318 252.921 271.399 252.626 271.562C252.334 271.724 252.104 271.961 251.935 272.273C251.766 272.584 251.682 272.962 251.682 273.406ZM261.319 270.364V271.358H257.361V270.364H261.319ZM258.515 268.534H259.688V275.812C259.688 276.144 259.736 276.393 259.832 276.558C259.932 276.721 260.058 276.83 260.21 276.886C260.366 276.939 260.53 276.966 260.702 276.966C260.831 276.966 260.938 276.959 261.02 276.946C261.103 276.929 261.17 276.916 261.219 276.906L261.458 277.96C261.378 277.99 261.267 278.02 261.125 278.05C260.982 278.083 260.802 278.099 260.583 278.099C260.251 278.099 259.927 278.028 259.608 277.886C259.294 277.743 259.032 277.526 258.823 277.234C258.617 276.943 258.515 276.575 258.515 276.131V268.534ZM264.631 278.179C264.147 278.179 263.708 278.088 263.313 277.906C262.919 277.72 262.606 277.453 262.374 277.105C262.142 276.754 262.026 276.33 262.026 275.832C262.026 275.395 262.112 275.04 262.284 274.768C262.457 274.493 262.687 274.278 262.975 274.122C263.264 273.966 263.582 273.85 263.93 273.774C264.281 273.695 264.634 273.632 264.989 273.585C265.453 273.526 265.829 273.481 266.117 273.451C266.409 273.418 266.621 273.363 266.754 273.287C266.89 273.211 266.957 273.078 266.957 272.889V272.849C266.957 272.359 266.823 271.978 266.555 271.706C266.29 271.434 265.887 271.298 265.347 271.298C264.787 271.298 264.347 271.421 264.029 271.666C263.711 271.911 263.487 272.173 263.358 272.452L262.244 272.054C262.443 271.59 262.708 271.229 263.04 270.97C263.375 270.708 263.739 270.526 264.134 270.423C264.531 270.317 264.922 270.264 265.307 270.264C265.552 270.264 265.834 270.294 266.152 270.354C266.474 270.41 266.783 270.528 267.082 270.707C267.383 270.886 267.634 271.156 267.832 271.517C268.031 271.878 268.131 272.362 268.131 272.969V278H266.957V276.966H266.898C266.818 277.132 266.686 277.309 266.5 277.498C266.315 277.687 266.068 277.848 265.759 277.98C265.451 278.113 265.075 278.179 264.631 278.179ZM264.81 277.125C265.274 277.125 265.665 277.034 265.983 276.852C266.305 276.669 266.547 276.434 266.709 276.146C266.875 275.857 266.957 275.554 266.957 275.236V274.162C266.908 274.222 266.798 274.276 266.629 274.326C266.464 274.372 266.271 274.414 266.053 274.45C265.837 274.483 265.627 274.513 265.421 274.54C265.219 274.563 265.055 274.583 264.929 274.599C264.624 274.639 264.339 274.704 264.074 274.793C263.812 274.879 263.6 275.01 263.438 275.186C263.279 275.358 263.199 275.594 263.199 275.892C263.199 276.3 263.35 276.608 263.651 276.817C263.956 277.022 264.342 277.125 264.81 277.125ZM272.675 278.159C271.959 278.159 271.342 277.99 270.825 277.652C270.308 277.314 269.91 276.848 269.632 276.255C269.354 275.662 269.214 274.984 269.214 274.222C269.214 273.446 269.357 272.762 269.642 272.168C269.93 271.572 270.331 271.106 270.845 270.771C271.362 270.433 271.965 270.264 272.655 270.264C273.192 270.264 273.676 270.364 274.106 270.562C274.537 270.761 274.89 271.04 275.165 271.398C275.44 271.756 275.611 272.173 275.677 272.651H274.504C274.415 272.303 274.216 271.994 273.908 271.726C273.603 271.454 273.192 271.318 272.675 271.318C272.217 271.318 271.816 271.437 271.471 271.676C271.13 271.911 270.863 272.245 270.671 272.675C270.482 273.103 270.388 273.605 270.388 274.182C270.388 274.772 270.48 275.286 270.666 275.723C270.855 276.161 271.12 276.5 271.462 276.742C271.806 276.984 272.211 277.105 272.675 277.105C272.979 277.105 273.256 277.052 273.505 276.946C273.753 276.84 273.964 276.688 274.136 276.489C274.309 276.29 274.431 276.051 274.504 275.773H275.677C275.611 276.223 275.447 276.629 275.185 276.991C274.927 277.349 274.584 277.634 274.156 277.846C273.732 278.055 273.238 278.159 272.675 278.159ZM280.014 270.364V271.358H276.056V270.364H280.014ZM277.21 268.534H278.383V275.812C278.383 276.144 278.431 276.393 278.527 276.558C278.627 276.721 278.753 276.83 278.905 276.886C279.061 276.939 279.225 276.966 279.397 276.966C279.526 276.966 279.632 276.959 279.715 276.946C279.798 276.929 279.864 276.916 279.914 276.906L280.153 277.96C280.073 277.99 279.962 278.02 279.82 278.05C279.677 278.083 279.497 278.099 279.278 278.099C278.946 278.099 278.622 278.028 278.303 277.886C277.989 277.743 277.727 277.526 277.518 277.234C277.312 276.943 277.21 276.575 277.21 276.131V268.534Z" fill="#303030"/>
<path fill-rule="evenodd" clip-rule="evenodd" d="M191.5 267C191.5 264.515 193.515 262.5 196 262.5C198.485 262.5 200.5 264.515 200.5 267C200.5 269.485 198.485 271.5 196 271.5C193.515 271.5 191.5 269.485 191.5 267Z" fill="#303030"/>
<path fill-rule="evenodd" clip-rule="evenodd" d="M187.751 281.105C187.828 276.616 191.492 273 196 273C200.508 273 204.171 276.616 204.249 281.106C204.254 281.403 204.082 281.676 203.811 281.8C201.433 282.892 198.786 283.5 196 283.5C193.214 283.5 190.567 282.892 188.188 281.8C187.917 281.676 187.746 281.403 187.751 281.105Z" fill="#303030"/>
<rect x="172" y="193" width="48" height="48" rx="12" fill="white"/>
<path d="M233.433 212.818H234.904L238.364 221.27H238.484L241.944 212.818H243.416V223H242.262V215.264H242.163L238.981 223H237.867L234.685 215.264H234.586V223H233.433V212.818ZM248.23 223.159C247.494 223.159 246.86 222.997 246.326 222.672C245.796 222.344 245.387 221.886 245.098 221.3C244.813 220.71 244.671 220.024 244.671 219.241C244.671 218.459 244.813 217.77 245.098 217.173C245.387 216.573 245.788 216.106 246.301 215.771C246.818 215.433 247.422 215.264 248.111 215.264C248.509 215.264 248.901 215.33 249.289 215.463C249.677 215.596 250.03 215.811 250.348 216.109C250.666 216.404 250.92 216.795 251.109 217.283C251.298 217.77 251.392 218.37 251.392 219.082V219.58H245.506V218.565H250.199C250.199 218.134 250.113 217.75 249.94 217.412C249.771 217.074 249.529 216.807 249.215 216.612C248.903 216.416 248.535 216.318 248.111 216.318C247.644 216.318 247.239 216.434 246.898 216.666C246.56 216.895 246.3 217.193 246.117 217.561C245.935 217.929 245.844 218.323 245.844 218.744V219.42C245.844 219.997 245.943 220.486 246.142 220.887C246.344 221.285 246.624 221.588 246.982 221.797C247.34 222.002 247.756 222.105 248.23 222.105C248.538 222.105 248.817 222.062 249.065 221.976C249.317 221.886 249.534 221.754 249.717 221.578C249.899 221.399 250.04 221.177 250.139 220.912L251.273 221.23C251.154 221.615 250.953 221.953 250.671 222.244C250.39 222.533 250.042 222.758 249.627 222.92C249.213 223.08 248.747 223.159 248.23 223.159ZM257.886 217.074L256.832 217.372C256.766 217.196 256.668 217.026 256.539 216.86C256.413 216.691 256.24 216.552 256.022 216.442C255.803 216.333 255.523 216.278 255.182 216.278C254.714 216.278 254.325 216.386 254.013 216.602C253.705 216.814 253.551 217.084 253.551 217.412C253.551 217.704 253.657 217.934 253.869 218.103C254.081 218.272 254.413 218.413 254.863 218.526L255.997 218.804C256.68 218.97 257.188 219.223 257.523 219.565C257.858 219.903 258.025 220.339 258.025 220.872C258.025 221.31 257.899 221.701 257.647 222.045C257.399 222.39 257.051 222.662 256.603 222.861C256.156 223.06 255.636 223.159 255.042 223.159C254.263 223.159 253.619 222.99 253.108 222.652C252.598 222.314 252.275 221.82 252.139 221.17L253.253 220.892C253.359 221.303 253.559 221.611 253.854 221.817C254.152 222.022 254.542 222.125 255.022 222.125C255.569 222.125 256.004 222.009 256.325 221.777C256.65 221.542 256.812 221.26 256.812 220.932C256.812 220.667 256.719 220.445 256.534 220.266C256.348 220.083 256.063 219.947 255.679 219.858L254.406 219.56C253.707 219.394 253.193 219.137 252.865 218.789C252.54 218.438 252.378 217.999 252.378 217.472C252.378 217.041 252.499 216.66 252.74 216.328C252.986 215.997 253.319 215.737 253.74 215.548C254.164 215.359 254.645 215.264 255.182 215.264C255.937 215.264 256.53 215.43 256.961 215.761C257.396 216.093 257.704 216.53 257.886 217.074ZM264.501 217.074L263.447 217.372C263.38 217.196 263.282 217.026 263.153 216.86C263.027 216.691 262.855 216.552 262.636 216.442C262.417 216.333 262.137 216.278 261.796 216.278C261.329 216.278 260.939 216.386 260.628 216.602C260.319 216.814 260.165 217.084 260.165 217.412C260.165 217.704 260.271 217.934 260.483 218.103C260.696 218.272 261.027 218.413 261.478 218.526L262.611 218.804C263.294 218.97 263.803 219.223 264.138 219.565C264.472 219.903 264.64 220.339 264.64 220.872C264.64 221.31 264.514 221.701 264.262 222.045C264.013 222.39 263.665 222.662 263.218 222.861C262.77 223.06 262.25 223.159 261.657 223.159C260.878 223.159 260.233 222.99 259.723 222.652C259.212 222.314 258.889 221.82 258.753 221.17L259.867 220.892C259.973 221.303 260.174 221.611 260.469 221.817C260.767 222.022 261.156 222.125 261.637 222.125C262.184 222.125 262.618 222.009 262.939 221.777C263.264 221.542 263.427 221.26 263.427 220.932C263.427 220.667 263.334 220.445 263.148 220.266C262.963 220.083 262.678 219.947 262.293 219.858L261.02 219.56C260.321 219.394 259.807 219.137 259.479 218.789C259.154 218.438 258.992 217.999 258.992 217.472C258.992 217.041 259.113 216.66 259.355 216.328C259.6 215.997 259.933 215.737 260.354 215.548C260.778 215.359 261.259 215.264 261.796 215.264C262.552 215.264 263.145 215.43 263.576 215.761C264.01 216.093 264.318 216.53 264.501 217.074ZM267.953 223.179C267.469 223.179 267.03 223.088 266.636 222.906C266.241 222.72 265.928 222.453 265.696 222.105C265.464 221.754 265.348 221.33 265.348 220.832C265.348 220.395 265.434 220.04 265.606 219.768C265.779 219.493 266.009 219.278 266.298 219.122C266.586 218.966 266.904 218.85 267.252 218.774C267.603 218.695 267.956 218.632 268.311 218.585C268.775 218.526 269.151 218.481 269.44 218.451C269.731 218.418 269.943 218.363 270.076 218.287C270.212 218.211 270.28 218.078 270.28 217.889V217.849C270.28 217.359 270.146 216.978 269.877 216.706C269.612 216.434 269.209 216.298 268.669 216.298C268.109 216.298 267.67 216.421 267.351 216.666C267.033 216.911 266.81 217.173 266.68 217.452L265.567 217.054C265.766 216.59 266.031 216.229 266.362 215.97C266.697 215.708 267.061 215.526 267.456 215.423C267.854 215.317 268.245 215.264 268.629 215.264C268.874 215.264 269.156 215.294 269.474 215.354C269.796 215.41 270.106 215.528 270.404 215.707C270.706 215.886 270.956 216.156 271.155 216.517C271.354 216.878 271.453 217.362 271.453 217.969V223H270.28V221.966H270.22C270.141 222.132 270.008 222.309 269.822 222.498C269.637 222.687 269.39 222.848 269.082 222.98C268.773 223.113 268.397 223.179 267.953 223.179ZM268.132 222.125C268.596 222.125 268.987 222.034 269.305 221.852C269.627 221.669 269.869 221.434 270.031 221.146C270.197 220.857 270.28 220.554 270.28 220.236V219.162C270.23 219.222 270.121 219.276 269.952 219.326C269.786 219.372 269.594 219.414 269.375 219.45C269.159 219.483 268.949 219.513 268.744 219.54C268.541 219.563 268.377 219.583 268.251 219.599C267.946 219.639 267.661 219.704 267.396 219.793C267.134 219.879 266.922 220.01 266.76 220.186C266.601 220.358 266.521 220.594 266.521 220.892C266.521 221.3 266.672 221.608 266.974 221.817C267.279 222.022 267.665 222.125 268.132 222.125ZM275.977 226.023C275.41 226.023 274.923 225.95 274.515 225.804C274.108 225.661 273.768 225.473 273.496 225.237C273.228 225.005 273.014 224.757 272.855 224.491L273.789 223.835C273.896 223.974 274.03 224.134 274.192 224.312C274.355 224.495 274.577 224.652 274.858 224.785C275.143 224.921 275.516 224.989 275.977 224.989C276.593 224.989 277.102 224.839 277.503 224.541C277.904 224.243 278.105 223.776 278.105 223.139V221.588H278.005C277.919 221.727 277.797 221.9 277.637 222.105C277.482 222.307 277.256 222.488 276.961 222.647C276.67 222.803 276.275 222.881 275.778 222.881C275.162 222.881 274.608 222.735 274.118 222.443C273.63 222.152 273.244 221.727 272.959 221.17C272.677 220.614 272.537 219.937 272.537 219.142C272.537 218.36 272.674 217.679 272.949 217.099C273.224 216.515 273.607 216.065 274.098 215.746C274.588 215.425 275.155 215.264 275.798 215.264C276.295 215.264 276.69 215.347 276.981 215.513C277.276 215.675 277.502 215.861 277.657 216.07C277.816 216.275 277.939 216.444 278.025 216.577H278.145V215.364H279.278V223.219C279.278 223.875 279.129 224.409 278.831 224.82C278.536 225.234 278.138 225.537 277.637 225.729C277.14 225.925 276.587 226.023 275.977 226.023ZM275.937 221.827C276.408 221.827 276.806 221.719 277.13 221.504C277.455 221.288 277.702 220.978 277.871 220.574C278.04 220.17 278.125 219.686 278.125 219.122C278.125 218.572 278.042 218.086 277.876 217.665C277.71 217.245 277.465 216.915 277.14 216.676C276.815 216.437 276.414 216.318 275.937 216.318C275.44 216.318 275.026 216.444 274.694 216.696C274.366 216.948 274.119 217.286 273.954 217.71C273.791 218.134 273.71 218.605 273.71 219.122C273.71 219.652 273.793 220.121 273.958 220.529C274.128 220.933 274.376 221.252 274.704 221.484C275.036 221.712 275.447 221.827 275.937 221.827ZM283.928 223.159C283.192 223.159 282.557 222.997 282.023 222.672C281.493 222.344 281.084 221.886 280.795 221.3C280.51 220.71 280.368 220.024 280.368 219.241C280.368 218.459 280.51 217.77 280.795 217.173C281.084 216.573 281.485 216.106 281.999 215.771C282.516 215.433 283.119 215.264 283.808 215.264C284.206 215.264 284.599 215.33 284.986 215.463C285.374 215.596 285.727 215.811 286.045 216.109C286.364 216.404 286.617 216.795 286.806 217.283C286.995 217.77 287.089 218.37 287.089 219.082V219.58H281.203V218.565H285.896C285.896 218.134 285.81 217.75 285.638 217.412C285.469 217.074 285.227 216.807 284.912 216.612C284.6 216.416 284.232 216.318 283.808 216.318C283.341 216.318 282.937 216.434 282.595 216.666C282.257 216.895 281.997 217.193 281.815 217.561C281.632 217.929 281.541 218.323 281.541 218.744V219.42C281.541 219.997 281.641 220.486 281.839 220.887C282.042 221.285 282.322 221.588 282.68 221.797C283.038 222.002 283.454 222.105 283.928 222.105C284.236 222.105 284.514 222.062 284.763 221.976C285.015 221.886 285.232 221.754 285.414 221.578C285.596 221.399 285.737 221.177 285.837 220.912L286.97 221.23C286.851 221.615 286.65 221.953 286.369 222.244C286.087 222.533 285.739 222.758 285.325 222.92C284.91 223.08 284.445 223.159 283.928 223.159Z" fill="#303030"/>
<path d="M185.5 213.669V222.25C185.5 223.907 186.843 225.25 188.5 225.25H203.5C205.157 225.25 206.5 223.907 206.5 222.25V213.669L197.572 219.163C196.608 219.756 195.392 219.756 194.428 219.163L185.5 213.669Z" fill="#303030"/>
<path d="M206.5 211.908V211.75C206.5 210.093 205.157 208.75 203.5 208.75H188.5C186.843 208.75 185.5 210.093 185.5 211.75V211.908L195.214 217.886C195.696 218.182 196.304 218.182 196.786 217.886L206.5 211.908Z" fill="#303030"/>
<path d="M233.266 167V156.818H234.499V161.352H239.928V156.818H241.161V167H239.928V162.446H234.499V167H233.266ZM245.873 167.159C245.183 167.159 244.579 166.995 244.058 166.667C243.541 166.339 243.137 165.88 242.845 165.29C242.557 164.7 242.413 164.01 242.413 163.222C242.413 162.426 242.557 161.732 242.845 161.138C243.137 160.545 243.541 160.085 244.058 159.756C244.579 159.428 245.183 159.264 245.873 159.264C246.562 159.264 247.165 159.428 247.682 159.756C248.203 160.085 248.607 160.545 248.896 161.138C249.187 161.732 249.333 162.426 249.333 163.222C249.333 164.01 249.187 164.7 248.896 165.29C248.607 165.88 248.203 166.339 247.682 166.667C247.165 166.995 246.562 167.159 245.873 167.159ZM245.873 166.105C246.396 166.105 246.827 165.971 247.165 165.702C247.503 165.434 247.754 165.081 247.916 164.643C248.079 164.206 248.16 163.732 248.16 163.222C248.16 162.711 248.079 162.236 247.916 161.795C247.754 161.354 247.503 160.998 247.165 160.726C246.827 160.454 246.396 160.318 245.873 160.318C245.349 160.318 244.918 160.454 244.58 160.726C244.242 160.998 243.992 161.354 243.829 161.795C243.667 162.236 243.586 162.711 243.586 163.222C243.586 163.732 243.667 164.206 243.829 164.643C243.992 165.081 244.242 165.434 244.58 165.702C244.918 165.971 245.349 166.105 245.873 166.105ZM250.424 167V159.364H251.558V160.557H251.657C251.816 160.149 252.073 159.833 252.428 159.607C252.782 159.379 253.208 159.264 253.705 159.264C254.209 159.264 254.628 159.379 254.963 159.607C255.301 159.833 255.565 160.149 255.754 160.557H255.833C256.029 160.162 256.322 159.849 256.713 159.617C257.104 159.382 257.573 159.264 258.12 159.264C258.803 159.264 259.361 159.478 259.796 159.906C260.23 160.33 260.447 160.991 260.447 161.889V167H259.273V161.889C259.273 161.326 259.119 160.923 258.811 160.681C258.503 160.439 258.14 160.318 257.722 160.318C257.185 160.318 256.769 160.481 256.474 160.805C256.18 161.127 256.032 161.535 256.032 162.028V167H254.839V161.77C254.839 161.336 254.698 160.986 254.416 160.721C254.135 160.452 253.772 160.318 253.327 160.318C253.023 160.318 252.738 160.399 252.472 160.562C252.211 160.724 251.998 160.95 251.836 161.238C251.677 161.523 251.597 161.853 251.597 162.227V167H250.424ZM265.094 167.159C264.358 167.159 263.723 166.997 263.19 166.672C262.659 166.344 262.25 165.886 261.962 165.3C261.677 164.71 261.534 164.024 261.534 163.241C261.534 162.459 261.677 161.77 261.962 161.173C262.25 160.573 262.651 160.106 263.165 159.771C263.682 159.433 264.285 159.264 264.974 159.264C265.372 159.264 265.765 159.33 266.153 159.463C266.54 159.596 266.893 159.811 267.212 160.109C267.53 160.404 267.783 160.795 267.972 161.283C268.161 161.77 268.256 162.37 268.256 163.082V163.58H262.369V162.565H267.062C267.062 162.134 266.976 161.75 266.804 161.412C266.635 161.074 266.393 160.807 266.078 160.612C265.767 160.416 265.399 160.318 264.974 160.318C264.507 160.318 264.103 160.434 263.761 160.666C263.423 160.895 263.163 161.193 262.981 161.561C262.799 161.929 262.707 162.323 262.707 162.744V163.42C262.707 163.997 262.807 164.486 263.006 164.887C263.208 165.285 263.488 165.588 263.846 165.797C264.204 166.002 264.62 166.105 265.094 166.105C265.402 166.105 265.68 166.062 265.929 165.976C266.181 165.886 266.398 165.754 266.58 165.578C266.763 165.399 266.903 165.177 267.003 164.912L268.136 165.23C268.017 165.615 267.817 165.953 267.535 166.244C267.253 166.533 266.905 166.758 266.491 166.92C266.076 167.08 265.611 167.159 265.094 167.159Z" fill="#303030"/>
<rect x="172" y="137" width="48" height="48" rx="12" fill="#567FEF"/>
<path d="M195.47 151.841C195.763 151.548 196.237 151.548 196.53 151.841L205.22 160.53C205.513 160.823 205.987 160.823 206.28 160.53C206.573 160.237 206.573 159.762 206.28 159.469L197.591 150.78C196.712 149.901 195.288 149.901 194.409 150.78L185.72 159.469C185.427 159.762 185.427 160.237 185.72 160.53C186.013 160.823 186.487 160.823 186.78 160.53L195.47 151.841Z" fill="white"/>
<path d="M196 153.432L204.159 161.591C204.189 161.621 204.219 161.649 204.25 161.677V167.875C204.25 168.91 203.41 169.75 202.375 169.75H199C198.586 169.75 198.25 169.414 198.25 169V164.5C198.25 164.086 197.914 163.75 197.5 163.75H194.5C194.086 163.75 193.75 164.086 193.75 164.5V169C193.75 169.414 193.414 169.75 193 169.75H189.625C188.589 169.75 187.75 168.91 187.75 167.875V161.677C187.781 161.649 187.811 161.621 187.841 161.591L196 153.432Z" fill="white"/>
<path fill-rule="evenodd" clip-rule="evenodd" d="M187 104.75C187 104.336 187.336 104 187.75 104H204.25C204.664 104 205 104.336 205 104.75C205 105.164 204.664 105.5 204.25 105.5H187.75C187.336 105.5 187 105.164 187 104.75ZM187 110C187 109.586 187.336 109.25 187.75 109.25H204.25C204.664 109.25 205 109.586 205 110C205 110.414 204.664 110.75 204.25 110.75H187.75C187.336 110.75 187 110.414 187 110ZM187 115.25C187 114.836 187.336 114.5 187.75 114.5H204.25C204.664 114.5 205 114.836 205 115.25C205 115.664 204.664 116 204.25 116H187.75C187.336 116 187 115.664 187 115.25Z" fill="#303030"/>
<g clip-path="url(#clip1_98_328)">
<mask id="mask1_98_328" style="mask-type:luminance" maskUnits="userSpaceOnUse" x="181" y="38" width="28" height="28">
<path d="M208.813 38H181V65.8133H208.813V38Z" fill="white"/>
</mask>
<g mask="url(#mask1_98_328)">
<path fill-rule="evenodd" clip-rule="evenodd" d="M183.319 65.8133H196.067C196.37 65.8133 196.67 65.7536 196.951 65.6375C197.231 65.5214 197.486 65.3512 197.7 65.1367C198.133 64.7035 198.377 64.1159 198.377 63.5033V50.7482C198.376 50.1334 198.132 49.544 197.697 49.1093C197.263 48.6746 196.673 48.4303 196.059 48.43H193.74C193.126 48.4303 192.536 48.6746 192.102 49.1093C191.667 49.544 191.423 50.1334 191.422 50.7482V58.86H187.946V50.7482C187.946 50.1336 187.702 49.5441 187.267 49.1094C186.833 48.6747 186.243 48.4303 185.629 48.43H183.31C182.696 48.4303 182.106 48.6746 181.672 49.1093C181.237 49.544 180.992 50.1334 180.992 50.7482V63.4952C180.993 64.1079 181.237 64.6954 181.67 65.1285C181.886 65.3463 182.142 65.519 182.425 65.6366C182.708 65.7542 183.012 65.8143 183.319 65.8133ZM201.86 63.4952C201.86 64.1098 202.104 64.6993 202.539 65.134C202.973 65.5687 203.563 65.813 204.177 65.8133H206.495C207.11 65.813 207.7 65.5687 208.134 65.134C208.569 64.6994 208.813 64.1099 208.814 63.4952V61.1782C208.813 60.5634 208.569 59.974 208.134 59.5393C207.7 59.1046 207.11 58.8603 206.495 58.86H204.177C203.563 58.8603 202.973 59.1046 202.539 59.5393C202.104 59.974 201.86 60.5636 201.86 61.1782V63.4952ZM206.495 38H193.747C193.133 38.0003 192.543 38.2446 192.109 38.6793C191.674 39.114 191.43 39.7034 191.429 40.3182V42.6363C191.43 43.251 191.674 43.8405 192.109 44.2752C192.543 44.7099 193.133 44.9542 193.747 44.9545H201.859V53.0663C201.859 53.6809 202.103 54.2704 202.538 54.7051C202.972 55.1398 203.562 55.3841 204.176 55.3845H206.494C207.109 55.3841 207.699 55.1398 208.133 54.7051C208.568 54.2704 208.812 53.681 208.813 53.0663V40.3182C208.812 39.7056 208.569 39.1181 208.136 38.6848C207.921 38.468 207.666 38.2959 207.384 38.1783C207.103 38.0608 206.801 38.0002 206.495 38Z" fill="#567FEF"/>
</g>
</g>
</g>
<rect x="0.5" y="0.5" width="375" height="447" rx="7.5" stroke="white" stroke-opacity="0.1"/>
<defs>
<filter id="filter0_d_98_328" x="20" y="22" width="125" height="408" filterUnits="userSpaceOnUse" color-interpolation-filters="sRGB">
<feFlood flood-opacity="0" result="BackgroundImageFix"/>
<feColorMatrix in="SourceAlpha" type="matrix" values="0 0 0 0 0 0 0 0 0 0 0 0 0 0 0 0 0 0 127 0" result="hardAlpha"/>
<feOffset dy="2"/>
<feGaussianBlur stdDeviation="2"/>
<feComposite in2="hardAlpha" operator="out"/>
<feColorMatrix type="matrix" values="0 0 0 0 0.188235 0 0 0 0 0.188235 0 0 0 0 0.188235 0 0 0 0.17 0"/>
<feBlend mode="normal" in2="BackgroundImageFix" result="effect1_dropShadow_98_328"/>
<feBlend mode="normal" in="SourceGraphic" in2="effect1_dropShadow_98_328" result="shape"/>
</filter>
<filter id="filter1_d_98_328" x="156" y="22" width="200" height="408" filterUnits="userSpaceOnUse" color-interpolation-filters="sRGB">
<feFlood flood-opacity="0" result="BackgroundImageFix"/>
<feColorMatrix in="SourceAlpha" type="matrix" values="0 0 0 0 0 0 0 0 0 0 0 0 0 0 0 0 0 0 127 0" result="hardAlpha"/>
<feOffset dy="2"/>
<feGaussianBlur stdDeviation="2"/>
<feComposite in2="hardAlpha" operator="out"/>
<feColorMatrix type="matrix" values="0 0 0 0 0.188235 0 0 0 0 0.188235 0 0 0 0 0.188235 0 0 0 0.17 0"/>
<feBlend mode="normal" in2="BackgroundImageFix" result="effect1_dropShadow_98_328"/>
<feBlend mode="normal" in="SourceGraphic" in2="effect1_dropShadow_98_328" result="shape"/>
</filter>
<clipPath id="clip0_98_328">
<rect width="28" height="28" fill="white" transform="translate(45 38)"/>
</clipPath>
<clipPath id="clip1_98_328">
<rect width="28" height="28" fill="white" transform="translate(181 38)"/>
</clipPath>
</defs>
</svg>
