<svg width="264" height="448" viewBox="0 0 264 448" fill="none" xmlns="http://www.w3.org/2000/svg">
<rect width="264" height="448" rx="8" fill="#F0F0F0"/>
<g filter="url(#filter0_d_99_481)">
<rect x="24" y="24" width="96" height="400" rx="16" fill="#FEFEFE" shape-rendering="crispEdges"/>
<rect x="32" y="350" width="80" height="62" rx="12" fill="white"/>
<path d="M53.9484 391.364C53.8887 390.86 53.6468 390.469 53.2226 390.19C52.7983 389.912 52.2779 389.773 51.6615 389.773C51.2107 389.773 50.8163 389.846 50.4782 389.991C50.1435 390.137 49.8816 390.338 49.6927 390.593C49.5071 390.848 49.4143 391.138 49.4143 391.463C49.4143 391.735 49.4789 391.969 49.6082 392.164C49.7408 392.356 49.9098 392.517 50.1153 392.646C50.3208 392.772 50.5362 392.877 50.7616 392.96C50.987 393.039 51.1941 393.104 51.3831 393.153L52.4172 393.432C52.6823 393.501 52.9773 393.598 53.3021 393.72C53.6302 393.843 53.9434 394.01 54.2417 394.222C54.5433 394.431 54.7919 394.7 54.9875 395.028C55.183 395.356 55.2808 395.759 55.2808 396.236C55.2808 396.786 55.1366 397.283 54.8483 397.727C54.5632 398.171 54.1456 398.524 53.5954 398.786C53.0485 399.048 52.384 399.179 51.6018 399.179C50.8726 399.179 50.2413 399.061 49.7076 398.826C49.1773 398.591 48.7597 398.263 48.4548 397.842C48.1532 397.421 47.9825 396.932 47.9427 396.375H49.2154C49.2486 396.759 49.3779 397.078 49.6032 397.33C49.8319 397.578 50.1203 397.764 50.4683 397.886C50.8196 398.006 51.1975 398.065 51.6018 398.065C52.0725 398.065 52.495 397.989 52.8696 397.837C53.2441 397.681 53.5407 397.465 53.7595 397.19C53.9782 396.912 54.0876 396.587 54.0876 396.216C54.0876 395.878 53.9931 395.603 53.8042 395.391C53.6153 395.179 53.3667 395.006 53.0585 394.874C52.7502 394.741 52.4172 394.625 52.0592 394.526L50.8064 394.168C50.0109 393.939 49.3812 393.612 48.9172 393.188C48.4531 392.764 48.2211 392.209 48.2211 391.523C48.2211 390.953 48.3752 390.455 48.6835 390.031C48.995 389.604 49.4127 389.272 49.9363 389.037C50.4633 388.798 51.0516 388.679 51.7012 388.679C52.3575 388.679 52.9408 388.797 53.4512 389.032C53.9617 389.264 54.366 389.582 54.6643 389.987C54.9659 390.391 55.125 390.85 55.1416 391.364H53.9484ZM59.6506 399.159C58.9148 399.159 58.2801 398.997 57.7464 398.672C57.2161 398.344 56.8068 397.886 56.5185 397.3C56.2334 396.71 56.0909 396.024 56.0909 395.241C56.0909 394.459 56.2334 393.77 56.5185 393.173C56.8068 392.573 57.2079 392.106 57.7216 391.771C58.2386 391.433 58.8419 391.264 59.5313 391.264C59.929 391.264 60.3217 391.33 60.7095 391.463C61.0973 391.596 61.4503 391.811 61.7685 392.109C62.0866 392.404 62.3402 392.795 62.5291 393.283C62.718 393.77 62.8125 394.37 62.8125 395.082V395.58H56.9261V394.565H61.6193C61.6193 394.134 61.5331 393.75 61.3608 393.412C61.1918 393.074 60.9498 392.807 60.6349 392.612C60.3234 392.416 59.9555 392.318 59.5313 392.318C59.0639 392.318 58.6596 392.434 58.3182 392.666C57.9801 392.895 57.7199 393.193 57.5376 393.561C57.3554 393.929 57.2642 394.323 57.2642 394.744V395.42C57.2642 395.997 57.3636 396.486 57.5625 396.887C57.7647 397.285 58.0447 397.588 58.4027 397.797C58.7607 398.002 59.1766 398.105 59.6506 398.105C59.9588 398.105 60.2372 398.062 60.4858 397.976C60.7377 397.886 60.9548 397.754 61.1371 397.578C61.3194 397.399 61.4602 397.177 61.5597 396.912L62.6932 397.23C62.5739 397.615 62.3733 397.953 62.0916 398.244C61.8099 398.533 61.4619 398.758 61.0476 398.92C60.6333 399.08 60.1676 399.159 59.6506 399.159ZM67.2183 391.364V392.358H63.2609V391.364H67.2183ZM64.4143 389.534H65.5876V396.812C65.5876 397.144 65.6357 397.393 65.7318 397.558C65.8313 397.721 65.9572 397.83 66.1097 397.886C66.2654 397.939 66.4295 397.966 66.6018 397.966C66.7311 397.966 66.8372 397.959 66.92 397.946C67.0029 397.929 67.0692 397.916 67.1189 397.906L67.3575 398.96C67.278 398.99 67.167 399.02 67.0244 399.05C66.8819 399.083 66.7013 399.099 66.4825 399.099C66.1511 399.099 65.8263 399.028 65.5081 398.886C65.1932 398.743 64.9314 398.526 64.7226 398.234C64.5171 397.943 64.4143 397.575 64.4143 397.131V389.534ZM71.6043 391.364V392.358H67.6469V391.364H71.6043ZM68.8003 389.534H69.9736V396.812C69.9736 397.144 70.0216 397.393 70.1178 397.558C70.2172 397.721 70.3431 397.83 70.4956 397.886C70.6514 397.939 70.8154 397.966 70.9878 397.966C71.117 397.966 71.2231 397.959 71.306 397.946C71.3888 397.929 71.4551 397.916 71.5048 397.906L71.7435 398.96C71.6639 398.99 71.5529 399.02 71.4104 399.05C71.2679 399.083 71.0872 399.099 70.8685 399.099C70.537 399.099 70.2122 399.028 69.894 398.886C69.5792 398.743 69.3173 398.526 69.1085 398.234C68.903 397.943 68.8003 397.575 68.8003 397.131V389.534ZM72.6692 399V391.364H73.8425V399H72.6692ZM73.2658 390.091C73.0371 390.091 72.8399 390.013 72.6741 389.857C72.5117 389.701 72.4305 389.514 72.4305 389.295C72.4305 389.077 72.5117 388.889 72.6741 388.734C72.8399 388.578 73.0371 388.5 73.2658 388.5C73.4945 388.5 73.69 388.578 73.8524 388.734C74.0181 388.889 74.101 389.077 74.101 389.295C74.101 389.514 74.0181 389.701 73.8524 389.857C73.69 390.013 73.4945 390.091 73.2658 390.091ZM76.4647 394.406V399H75.2914V391.364H76.425V392.557H76.5244C76.7034 392.169 76.9752 391.857 77.3397 391.622C77.7043 391.384 78.175 391.264 78.7517 391.264C79.2687 391.264 79.7211 391.37 80.1089 391.582C80.4967 391.791 80.7983 392.109 81.0137 392.537C81.2292 392.961 81.3369 393.498 81.3369 394.148V399H80.1636V394.227C80.1636 393.627 80.0078 393.16 79.6963 392.825C79.3847 392.487 78.9572 392.318 78.4136 392.318C78.0391 392.318 77.7043 392.399 77.4093 392.562C77.1177 392.724 76.8873 392.961 76.7183 393.273C76.5493 393.584 76.4647 393.962 76.4647 394.406ZM85.8633 402.023C85.2965 402.023 84.8093 401.95 84.4016 401.804C83.994 401.661 83.6542 401.473 83.3825 401.237C83.114 401.005 82.9002 400.757 82.7411 400.491L83.6758 399.835C83.7818 399.974 83.9161 400.134 84.0785 400.312C84.2409 400.495 84.4629 400.652 84.7447 400.785C85.0297 400.921 85.4026 400.989 85.8633 400.989C86.4798 400.989 86.9885 400.839 87.3896 400.541C87.7906 400.243 87.9911 399.776 87.9911 399.139V397.588H87.8917C87.8055 397.727 87.6829 397.9 87.5238 398.105C87.368 398.307 87.1426 398.488 86.8477 398.647C86.556 398.803 86.1616 398.881 85.6644 398.881C85.0479 398.881 84.4944 398.735 84.0039 398.443C83.5167 398.152 83.1306 397.727 82.8455 397.17C82.5638 396.614 82.4229 395.937 82.4229 395.142C82.4229 394.36 82.5605 393.679 82.8356 393.099C83.1107 392.515 83.4935 392.065 83.984 391.746C84.4746 391.425 85.0413 391.264 85.6843 391.264C86.1815 391.264 86.5759 391.347 86.8675 391.513C87.1625 391.675 87.3879 391.861 87.5437 392.07C87.7028 392.275 87.8254 392.444 87.9116 392.577H88.0309V391.364H89.1644V399.219C89.1644 399.875 89.0153 400.409 88.717 400.82C88.422 401.234 88.0243 401.537 87.5238 401.729C87.0266 401.925 86.4731 402.023 85.8633 402.023ZM85.8235 397.827C86.2942 397.827 86.6919 397.719 87.0167 397.504C87.3415 397.288 87.5884 396.978 87.7575 396.574C87.9265 396.17 88.011 395.686 88.011 395.122C88.011 394.572 87.9281 394.086 87.7624 393.665C87.5967 393.245 87.3514 392.915 87.0266 392.676C86.7018 392.437 86.3008 392.318 85.8235 392.318C85.3263 392.318 84.9121 392.444 84.5806 392.696C84.2525 392.948 84.0056 393.286 83.8398 393.71C83.6774 394.134 83.5962 394.605 83.5962 395.122C83.5962 395.652 83.6791 396.121 83.8448 396.529C84.0138 396.933 84.2624 397.252 84.5906 397.484C84.922 397.712 85.333 397.827 85.8235 397.827ZM96.0212 393.074L94.9673 393.372C94.901 393.196 94.8032 393.026 94.6739 392.86C94.548 392.691 94.3756 392.552 94.1569 392.442C93.9381 392.333 93.6581 392.278 93.3167 392.278C92.8494 392.278 92.4599 392.386 92.1484 392.602C91.8401 392.814 91.686 393.084 91.686 393.412C91.686 393.704 91.7921 393.934 92.0042 394.103C92.2163 394.272 92.5478 394.413 92.9985 394.526L94.132 394.804C94.8148 394.97 95.3236 395.223 95.6583 395.565C95.9931 395.903 96.1604 396.339 96.1604 396.872C96.1604 397.31 96.0345 397.701 95.7826 398.045C95.534 398.39 95.186 398.662 94.7386 398.861C94.2911 399.06 93.7708 399.159 93.1775 399.159C92.3986 399.159 91.754 398.99 91.2435 398.652C90.7331 398.314 90.41 397.82 90.2741 397.17L91.3877 396.892C91.4938 397.303 91.6943 397.611 91.9893 397.817C92.2876 398.022 92.677 398.125 93.1576 398.125C93.7045 398.125 94.1387 398.009 94.4602 397.777C94.785 397.542 94.9474 397.26 94.9474 396.932C94.9474 396.667 94.8546 396.445 94.669 396.266C94.4834 396.083 94.1983 395.947 93.8138 395.858L92.5411 395.56C91.8418 395.394 91.3281 395.137 90.9999 394.789C90.6751 394.438 90.5127 393.999 90.5127 393.472C90.5127 393.041 90.6337 392.66 90.8756 392.328C91.1209 391.997 91.454 391.737 91.8749 391.548C92.2992 391.359 92.7798 391.264 93.3167 391.264C94.0724 391.264 94.6656 391.43 95.0965 391.761C95.5307 392.093 95.8389 392.53 96.0212 393.074Z" fill="#303030"/>
<path fill-rule="evenodd" clip-rule="evenodd" d="M71.0779 363.25C70.1613 363.25 69.3791 363.913 69.2284 364.817L69.0497 365.889C69.0296 366.01 68.9354 366.15 68.7531 366.237C68.4091 366.403 68.0797 366.594 67.7674 366.808C67.6009 366.922 67.4326 366.933 67.3177 366.89L66.2985 366.508C65.4402 366.187 64.4752 366.533 64.0169 367.327L63.0949 368.924C62.6367 369.717 62.8194 370.726 63.527 371.309L64.3676 372.001C64.4622 372.078 64.5363 372.23 64.5212 372.431C64.5071 372.619 64.4999 372.809 64.4999 373C64.4999 373.191 64.5071 373.381 64.5212 373.569C64.5363 373.77 64.4622 373.922 64.3676 374L63.527 374.692C62.8194 375.274 62.6367 376.283 63.0949 377.077L64.0169 378.674C64.4752 379.467 65.4402 379.813 66.2985 379.492L67.3179 379.11C67.4328 379.067 67.6011 379.079 67.7676 379.192C68.0798 379.406 68.4091 379.597 68.7531 379.763C68.9354 379.85 69.0296 379.99 69.0497 380.111L69.2284 381.183C69.3791 382.087 70.1613 382.75 71.0779 382.75H72.9219C73.8384 382.75 74.6207 382.087 74.7713 381.183L74.95 380.111C74.9702 379.99 75.0643 379.85 75.2466 379.763C75.5907 379.597 75.9201 379.406 76.2324 379.192C76.3988 379.078 76.5672 379.067 76.6821 379.11L77.7012 379.492C78.5596 379.813 79.5246 379.467 79.9828 378.673L80.9048 377.076C81.3631 376.283 81.1804 375.274 80.4727 374.691L79.6322 373.999C79.5376 373.922 79.4635 373.77 79.4786 373.569C79.4927 373.381 79.4999 373.191 79.4999 373C79.4999 372.809 79.4927 372.619 79.4785 372.431C79.4634 372.23 79.5375 372.078 79.6322 372L80.4727 371.308C81.1804 370.726 81.3631 369.717 80.9048 368.923L79.9828 367.326C79.5246 366.533 78.5596 366.187 77.7012 366.508L76.6818 366.89C76.5669 366.933 76.3986 366.921 76.2321 366.807C75.9199 366.594 75.5906 366.403 75.2466 366.237C75.0643 366.15 74.9702 366.01 74.95 365.889L74.7713 364.817C74.6207 363.913 73.8384 363.25 72.9219 363.25H71.0779ZM72 376.75C74.0711 376.75 75.75 375.071 75.75 373C75.75 370.929 74.0711 369.25 72 369.25C69.9289 369.25 68.25 370.929 68.25 373C68.25 375.071 69.9289 376.75 72 376.75Z" fill="#0E9AFF"/>
<rect x="32" y="238" width="80" height="62" rx="12" fill="white"/>
<path d="M57.7214 282H56.4885C56.4156 281.645 56.288 281.334 56.1057 281.065C55.9267 280.797 55.708 280.571 55.4494 280.389C55.1942 280.204 54.9108 280.064 54.5993 279.972C54.2877 279.879 53.9629 279.832 53.6249 279.832C53.0084 279.832 52.4499 279.988 51.9494 280.3C51.4523 280.611 51.0562 281.07 50.7612 281.677C50.4696 282.283 50.3237 283.027 50.3237 283.909C50.3237 284.791 50.4696 285.535 50.7612 286.141C51.0562 286.748 51.4523 287.207 51.9494 287.518C52.4499 287.83 53.0084 287.986 53.6249 287.986C53.9629 287.986 54.2877 287.939 54.5993 287.847C54.9108 287.754 55.1942 287.616 55.4494 287.434C55.708 287.248 55.9267 287.021 56.1057 286.753C56.288 286.481 56.4156 286.17 56.4885 285.818H57.7214C57.6286 286.339 57.4596 286.804 57.2143 287.215C56.9691 287.626 56.6642 287.976 56.2996 288.264C55.935 288.549 55.5257 288.766 55.0716 288.915C54.6208 289.065 54.1386 289.139 53.6249 289.139C52.7565 289.139 51.9842 288.927 51.3081 288.503C50.632 288.079 50.1 287.475 49.7122 286.693C49.3244 285.911 49.1305 284.983 49.1305 283.909C49.1305 282.835 49.3244 281.907 49.7122 281.125C50.1 280.343 50.632 279.74 51.3081 279.315C51.9842 278.891 52.7565 278.679 53.6249 278.679C54.1386 278.679 54.6208 278.754 55.0716 278.903C55.5257 279.052 55.935 279.271 56.2996 279.559C56.6642 279.844 56.9691 280.192 57.2143 280.603C57.4596 281.011 57.6286 281.476 57.7214 282ZM61.957 289.159C61.2676 289.159 60.6627 288.995 60.1424 288.667C59.6253 288.339 59.221 287.88 58.9293 287.29C58.6409 286.7 58.4968 286.01 58.4968 285.222C58.4968 284.426 58.6409 283.732 58.9293 283.138C59.221 282.545 59.6253 282.085 60.1424 281.756C60.6627 281.428 61.2676 281.264 61.957 281.264C62.6464 281.264 63.2496 281.428 63.7667 281.756C64.287 282.085 64.6914 282.545 64.9797 283.138C65.2714 283.732 65.4172 284.426 65.4172 285.222C65.4172 286.01 65.2714 286.7 64.9797 287.29C64.6914 287.88 64.287 288.339 63.7667 288.667C63.2496 288.995 62.6464 289.159 61.957 289.159ZM61.957 288.105C62.4807 288.105 62.9115 287.971 63.2496 287.702C63.5877 287.434 63.8379 287.081 64.0003 286.643C64.1627 286.206 64.2439 285.732 64.2439 285.222C64.2439 284.711 64.1627 284.236 64.0003 283.795C63.8379 283.354 63.5877 282.998 63.2496 282.726C62.9115 282.454 62.4807 282.318 61.957 282.318C61.4333 282.318 61.0025 282.454 60.6644 282.726C60.3263 282.998 60.0761 283.354 59.9137 283.795C59.7513 284.236 59.6701 284.711 59.6701 285.222C59.6701 285.732 59.7513 286.206 59.9137 286.643C60.0761 287.081 60.3263 287.434 60.6644 287.702C61.0025 287.971 61.4333 288.105 61.957 288.105ZM67.6815 284.406V289H66.5082V281.364H67.6418V282.557H67.7412C67.9202 282.169 68.192 281.857 68.5565 281.622C68.9211 281.384 69.3918 281.264 69.9685 281.264C70.4855 281.264 70.9379 281.37 71.3257 281.582C71.7135 281.791 72.0151 282.109 72.2305 282.537C72.446 282.961 72.5537 283.498 72.5537 284.148V289H71.3804V284.227C71.3804 283.627 71.2246 283.16 70.9131 282.825C70.6015 282.487 70.174 282.318 69.6304 282.318C69.2559 282.318 68.9211 282.399 68.6261 282.562C68.3345 282.724 68.1041 282.961 67.9351 283.273C67.7661 283.584 67.6815 283.962 67.6815 284.406ZM77.3187 281.364V282.358H73.3613V281.364H77.3187ZM74.5147 279.534H75.688V286.812C75.688 287.144 75.7361 287.393 75.8322 287.558C75.9316 287.721 76.0576 287.83 76.21 287.886C76.3658 287.939 76.5299 287.966 76.7022 287.966C76.8315 287.966 76.9376 287.959 77.0204 287.946C77.1033 287.929 77.1696 287.916 77.2193 287.906L77.4579 288.96C77.3784 288.99 77.2673 289.02 77.1248 289.05C76.9823 289.083 76.8017 289.099 76.5829 289.099C76.2515 289.099 75.9267 289.028 75.6085 288.886C75.2936 288.743 75.0318 288.526 74.823 288.234C74.6175 287.943 74.5147 287.575 74.5147 287.131V279.534ZM80.6308 289.179C80.1469 289.179 79.7077 289.088 79.3133 288.906C78.9189 288.72 78.6057 288.453 78.3737 288.105C78.1417 287.754 78.0257 287.33 78.0257 286.832C78.0257 286.395 78.1119 286.04 78.2842 285.768C78.4565 285.493 78.6869 285.278 78.9752 285.122C79.2636 284.966 79.5818 284.85 79.9298 284.774C80.2811 284.695 80.6341 284.632 80.9887 284.585C81.4528 284.526 81.8289 284.481 82.1173 284.451C82.409 284.418 82.6211 284.363 82.7537 284.287C82.8895 284.211 82.9575 284.078 82.9575 283.889V283.849C82.9575 283.359 82.8233 282.978 82.5548 282.706C82.2896 282.434 81.8869 282.298 81.3467 282.298C80.7866 282.298 80.3474 282.421 80.0292 282.666C79.711 282.911 79.4873 283.173 79.3581 283.452L78.2444 283.054C78.4433 282.59 78.7084 282.229 79.0399 281.97C79.3746 281.708 79.7392 281.526 80.1336 281.423C80.5314 281.317 80.9225 281.264 81.3069 281.264C81.5522 281.264 81.8339 281.294 82.1521 281.354C82.4736 281.41 82.7835 281.528 83.0818 281.707C83.3834 281.886 83.6336 282.156 83.8325 282.517C84.0314 282.878 84.1308 283.362 84.1308 283.969V289H82.9575V287.966H82.8978C82.8183 288.132 82.6857 288.309 82.5001 288.498C82.3145 288.687 82.0676 288.848 81.7593 288.98C81.4511 289.113 81.0749 289.179 80.6308 289.179ZM80.8098 288.125C81.2738 288.125 81.6649 288.034 81.9831 287.852C82.3046 287.669 82.5465 287.434 82.7089 287.146C82.8746 286.857 82.9575 286.554 82.9575 286.236V285.162C82.9078 285.222 82.7984 285.276 82.6294 285.326C82.4636 285.372 82.2714 285.414 82.0527 285.45C81.8372 285.483 81.6268 285.513 81.4213 285.54C81.2191 285.563 81.055 285.583 80.9291 285.599C80.6242 285.639 80.3391 285.704 80.074 285.793C79.8121 285.879 79.6 286.01 79.4376 286.186C79.2785 286.358 79.199 286.594 79.199 286.892C79.199 287.3 79.3498 287.608 79.6514 287.817C79.9563 288.022 80.3424 288.125 80.8098 288.125ZM88.6746 289.159C87.9587 289.159 87.3422 288.99 86.8251 288.652C86.3081 288.314 85.9104 287.848 85.632 287.255C85.3535 286.662 85.2143 285.984 85.2143 285.222C85.2143 284.446 85.3569 283.762 85.6419 283.168C85.9303 282.572 86.3313 282.106 86.845 281.771C87.3621 281.433 87.9653 281.264 88.6547 281.264C89.1916 281.264 89.6755 281.364 90.1064 281.562C90.5373 281.761 90.8902 282.04 91.1653 282.398C91.4404 282.756 91.6111 283.173 91.6774 283.651H90.5041C90.4146 283.303 90.2158 282.994 89.9075 282.726C89.6026 282.454 89.1916 282.318 88.6746 282.318C88.2172 282.318 87.8161 282.437 87.4714 282.676C87.1301 282.911 86.8633 283.245 86.671 283.675C86.4821 284.103 86.3876 284.605 86.3876 285.182C86.3876 285.772 86.4804 286.286 86.666 286.723C86.855 287.161 87.1201 287.5 87.4615 287.742C87.8062 287.984 88.2106 288.105 88.6746 288.105C88.9795 288.105 89.2562 288.052 89.5048 287.946C89.7534 287.84 89.9639 287.688 90.1362 287.489C90.3086 287.29 90.4312 287.051 90.5041 286.773H91.6774C91.6111 287.223 91.4471 287.629 91.1852 287.991C90.9267 288.349 90.5837 288.634 90.1561 288.846C89.7319 289.055 89.238 289.159 88.6746 289.159ZM96.0136 281.364V282.358H92.0563V281.364H96.0136ZM93.2097 279.534H94.383V286.812C94.383 287.144 94.431 287.393 94.5271 287.558C94.6266 287.721 94.7525 287.83 94.905 287.886C95.0607 287.939 95.2248 287.966 95.3972 287.966C95.5264 287.966 95.6325 287.959 95.7153 287.946C95.7982 287.929 95.8645 287.916 95.9142 287.906L96.1528 288.96C96.0733 288.99 95.9623 289.02 95.8197 289.05C95.6772 289.083 95.4966 289.099 95.2778 289.099C94.9464 289.099 94.6216 289.028 94.3034 288.886C93.9885 288.743 93.7267 288.526 93.5179 288.234C93.3124 287.943 93.2097 287.575 93.2097 287.131V279.534Z" fill="#303030"/>
<path fill-rule="evenodd" clip-rule="evenodd" d="M67.5 256C67.5 253.515 69.5147 251.5 72 251.5C74.4852 251.5 76.5 253.515 76.5 256C76.5 258.485 74.4852 260.5 72 260.5C69.5147 260.5 67.5 258.485 67.5 256Z" fill="#0E9AFF"/>
<path fill-rule="evenodd" clip-rule="evenodd" d="M63.7512 270.105C63.8286 265.616 67.492 262 72 262C76.5081 262 80.1716 265.616 80.2487 270.106C80.2538 270.403 80.0823 270.676 79.8116 270.8C77.4327 271.892 74.7865 272.5 72.0003 272.5C69.2138 272.5 66.5674 271.892 64.1883 270.8C63.9176 270.676 63.7461 270.403 63.7512 270.105Z" fill="#0E9AFF"/>
<rect x="32" y="175" width="80" height="62" rx="12" fill="white"/>
<path d="M45.4326 212.818H46.9042L50.3644 221.27H50.4837L53.9439 212.818H55.4155V223H54.2621V215.264H54.1627L50.9809 223H49.8672L46.6854 215.264H46.586V223H45.4326V212.818ZM60.2303 223.159C59.4945 223.159 58.8598 222.997 58.3261 222.672C57.7958 222.344 57.3865 221.886 57.0982 221.3C56.8131 220.71 56.6706 220.024 56.6706 219.241C56.6706 218.459 56.8131 217.77 57.0982 217.173C57.3865 216.573 57.7875 216.106 58.3013 215.771C58.8183 215.433 59.4215 215.264 60.1109 215.264C60.5087 215.264 60.9014 215.33 61.2892 215.463C61.677 215.596 62.03 215.811 62.3482 216.109C62.6663 216.404 62.9199 216.795 63.1088 217.283C63.2977 217.77 63.3922 218.37 63.3922 219.082V219.58H57.5058V218.565H62.199C62.199 218.134 62.1128 217.75 61.9405 217.412C61.7714 217.074 61.5295 216.807 61.2146 216.612C60.9031 216.416 60.5352 216.318 60.1109 216.318C59.6436 216.318 59.2393 216.434 58.8979 216.666C58.5598 216.895 58.2996 217.193 58.1173 217.561C57.935 217.929 57.8439 218.323 57.8439 218.744V219.42C57.8439 219.997 57.9433 220.486 58.1422 220.887C58.3444 221.285 58.6244 221.588 58.9824 221.797C59.3403 222.002 59.7563 222.105 60.2303 222.105C60.5385 222.105 60.8169 222.062 61.0655 221.976C61.3174 221.886 61.5345 221.754 61.7168 221.578C61.8991 221.399 62.0399 221.177 62.1393 220.912L63.2729 221.23C63.1536 221.615 62.953 221.953 62.6713 222.244C62.3896 222.533 62.0416 222.758 61.6273 222.92C61.213 223.08 60.7473 223.159 60.2303 223.159ZM69.8861 217.074L68.8321 217.372C68.7658 217.196 68.668 217.026 68.5388 216.86C68.4128 216.691 68.2405 216.552 68.0217 216.442C67.803 216.333 67.5229 216.278 67.1815 216.278C66.7142 216.278 66.3248 216.386 66.0132 216.602C65.705 216.814 65.5509 217.084 65.5509 217.412C65.5509 217.704 65.6569 217.934 65.869 218.103C66.0812 218.272 66.4126 218.413 66.8634 218.526L67.9969 218.804C68.6796 218.97 69.1884 219.223 69.5232 219.565C69.8579 219.903 70.0253 220.339 70.0253 220.872C70.0253 221.31 69.8993 221.701 69.6474 222.045C69.3989 222.39 69.0509 222.662 68.6034 222.861C68.156 223.06 67.6356 223.159 67.0423 223.159C66.2634 223.159 65.6188 222.99 65.1084 222.652C64.598 222.314 64.2748 221.82 64.1389 221.17L65.2526 220.892C65.3586 221.303 65.5591 221.611 65.8541 221.817C66.1524 222.022 66.5419 222.125 67.0224 222.125C67.5693 222.125 68.0035 222.009 68.325 221.777C68.6498 221.542 68.8122 221.26 68.8122 220.932C68.8122 220.667 68.7194 220.445 68.5338 220.266C68.3482 220.083 68.0632 219.947 67.6787 219.858L66.406 219.56C65.7066 219.394 65.1929 219.137 64.8648 218.789C64.54 218.438 64.3776 217.999 64.3776 217.472C64.3776 217.041 64.4985 216.66 64.7405 216.328C64.9857 215.997 65.3188 215.737 65.7398 215.548C66.164 215.359 66.6446 215.264 67.1815 215.264C67.9372 215.264 68.5305 215.43 68.9614 215.761C69.3956 216.093 69.7038 216.53 69.8861 217.074ZM76.5005 217.074L75.4466 217.372C75.3803 217.196 75.2825 217.026 75.1532 216.86C75.0273 216.691 74.8549 216.552 74.6362 216.442C74.4174 216.333 74.1374 216.278 73.796 216.278C73.3287 216.278 72.9392 216.386 72.6277 216.602C72.3194 216.814 72.1653 217.084 72.1653 217.412C72.1653 217.704 72.2714 217.934 72.4835 218.103C72.6956 218.272 73.027 218.413 73.4778 218.526L74.6113 218.804C75.2941 218.97 75.8029 219.223 76.1376 219.565C76.4724 219.903 76.6397 220.339 76.6397 220.872C76.6397 221.31 76.5138 221.701 76.2619 222.045C76.0133 222.39 75.6653 222.662 75.2179 222.861C74.7704 223.06 74.2501 223.159 73.6568 223.159C72.8779 223.159 72.2333 222.99 71.7228 222.652C71.2124 222.314 70.8893 221.82 70.7534 221.17L71.867 220.892C71.9731 221.303 72.1736 221.611 72.4686 221.817C72.7669 222.022 73.1563 222.125 73.6369 222.125C74.1838 222.125 74.618 222.009 74.9395 221.777C75.2643 221.542 75.4267 221.26 75.4267 220.932C75.4267 220.667 75.3339 220.445 75.1483 220.266C74.9627 220.083 74.6776 219.947 74.2931 219.858L73.0204 219.56C72.3211 219.394 71.8074 219.137 71.4792 218.789C71.1544 218.438 70.992 217.999 70.992 217.472C70.992 217.041 71.113 216.66 71.3549 216.328C71.6002 215.997 71.9333 215.737 72.3542 215.548C72.7785 215.359 73.2591 215.264 73.796 215.264C74.5517 215.264 75.1449 215.43 75.5758 215.761C76.01 216.093 76.3182 216.53 76.5005 217.074ZM79.9531 223.179C79.4692 223.179 79.03 223.088 78.6356 222.906C78.2412 222.72 77.928 222.453 77.696 222.105C77.4639 221.754 77.3479 221.33 77.3479 220.832C77.3479 220.395 77.4341 220.04 77.6065 219.768C77.7788 219.493 78.0092 219.278 78.2975 219.122C78.5859 218.966 78.9041 218.85 79.2521 218.774C79.6034 218.695 79.9564 218.632 80.311 218.585C80.775 218.526 81.1512 218.481 81.4396 218.451C81.7312 218.418 81.9434 218.363 82.0759 218.287C82.2118 218.211 82.2798 218.078 82.2798 217.889V217.849C82.2798 217.359 82.1455 216.978 81.8771 216.706C81.6119 216.434 81.2092 216.298 80.669 216.298C80.1088 216.298 79.6697 216.421 79.3515 216.666C79.0333 216.911 78.8096 217.173 78.6803 217.452L77.5667 217.054C77.7656 216.59 78.0307 216.229 78.3621 215.97C78.6969 215.708 79.0615 215.526 79.4559 215.423C79.8536 215.317 80.2447 215.264 80.6292 215.264C80.8745 215.264 81.1562 215.294 81.4744 215.354C81.7959 215.41 82.1058 215.528 82.4041 215.707C82.7057 215.886 82.9559 216.156 83.1548 216.517C83.3536 216.878 83.4531 217.362 83.4531 217.969V223H82.2798V221.966H82.2201C82.1406 222.132 82.008 222.309 81.8224 222.498C81.6368 222.687 81.3898 222.848 81.0816 222.98C80.7734 223.113 80.3972 223.179 79.9531 223.179ZM80.132 222.125C80.596 222.125 80.9871 222.034 81.3053 221.852C81.6268 221.669 81.8688 221.434 82.0312 221.146C82.1969 220.857 82.2798 220.554 82.2798 220.236V219.162C82.23 219.222 82.1207 219.276 81.9516 219.326C81.7859 219.372 81.5937 219.414 81.3749 219.45C81.1595 219.483 80.949 219.513 80.7435 219.54C80.5414 219.563 80.3773 219.583 80.2514 219.599C79.9464 219.639 79.6614 219.704 79.3962 219.793C79.1344 219.879 78.9223 220.01 78.7599 220.186C78.6008 220.358 78.5212 220.594 78.5212 220.892C78.5212 221.3 78.672 221.608 78.9737 221.817C79.2786 222.022 79.6647 222.125 80.132 222.125ZM87.977 226.023C87.4102 226.023 86.923 225.95 86.5153 225.804C86.1076 225.661 85.7679 225.473 85.4961 225.237C85.2277 225.005 85.0139 224.757 84.8548 224.491L85.7895 223.835C85.8955 223.974 86.0297 224.134 86.1922 224.312C86.3546 224.495 86.5766 224.652 86.8583 224.785C87.1434 224.921 87.5163 224.989 87.977 224.989C88.5934 224.989 89.1022 224.839 89.5032 224.541C89.9043 224.243 90.1048 223.776 90.1048 223.139V221.588H90.0054C89.9192 221.727 89.7966 221.9 89.6375 222.105C89.4817 222.307 89.2563 222.488 88.9613 222.647C88.6697 222.803 88.2752 222.881 87.7781 222.881C87.1616 222.881 86.6081 222.735 86.1176 222.443C85.6304 222.152 85.2442 221.727 84.9592 221.17C84.6775 220.614 84.5366 219.937 84.5366 219.142C84.5366 218.36 84.6742 217.679 84.9493 217.099C85.2243 216.515 85.6072 216.065 86.0977 215.746C86.5882 215.425 87.155 215.264 87.798 215.264C88.2951 215.264 88.6895 215.347 88.9812 215.513C89.2762 215.675 89.5016 215.861 89.6573 216.07C89.8164 216.275 89.9391 216.444 90.0252 216.577H90.1446V215.364H91.2781V223.219C91.2781 223.875 91.1289 224.409 90.8306 224.82C90.5357 225.234 90.1379 225.537 89.6375 225.729C89.1403 225.925 88.5868 226.023 87.977 226.023ZM87.9372 221.827C88.4078 221.827 88.8056 221.719 89.1304 221.504C89.4552 221.288 89.7021 220.978 89.8711 220.574C90.0402 220.17 90.1247 219.686 90.1247 219.122C90.1247 218.572 90.0418 218.086 89.8761 217.665C89.7104 217.245 89.4651 216.915 89.1403 216.676C88.8155 216.437 88.4145 216.318 87.9372 216.318C87.44 216.318 87.0257 216.444 86.6943 216.696C86.3662 216.948 86.1192 217.286 85.9535 217.71C85.7911 218.134 85.7099 218.605 85.7099 219.122C85.7099 219.652 85.7928 220.121 85.9585 220.529C86.1275 220.933 86.3761 221.252 86.7042 221.484C87.0357 221.712 87.4466 221.827 87.9372 221.827ZM95.9275 223.159C95.1917 223.159 94.557 222.997 94.0234 222.672C93.4931 222.344 93.0838 221.886 92.7954 221.3C92.5104 220.71 92.3679 220.024 92.3679 219.241C92.3679 218.459 92.5104 217.77 92.7954 217.173C93.0838 216.573 93.4848 216.106 93.9985 215.771C94.5156 215.433 95.1188 215.264 95.8082 215.264C96.2059 215.264 96.5987 215.33 96.9865 215.463C97.3743 215.596 97.7272 215.811 98.0454 216.109C98.3636 216.404 98.6172 216.795 98.8061 217.283C98.995 217.77 99.0895 218.37 99.0895 219.082V219.58H93.2031V218.565H97.8963C97.8963 218.134 97.8101 217.75 97.6378 217.412C97.4687 217.074 97.2268 216.807 96.9119 216.612C96.6003 216.416 96.2324 216.318 95.8082 216.318C95.3409 216.318 94.9365 216.434 94.5951 216.666C94.2571 216.895 93.9969 217.193 93.8146 217.561C93.6323 217.929 93.5412 218.323 93.5412 218.744V219.42C93.5412 219.997 93.6406 220.486 93.8395 220.887C94.0416 221.285 94.3217 221.588 94.6797 221.797C95.0376 222.002 95.4536 222.105 95.9275 222.105C96.2358 222.105 96.5142 222.062 96.7628 221.976C97.0146 221.886 97.2317 221.754 97.414 221.578C97.5963 221.399 97.7372 221.177 97.8366 220.912L98.9701 221.23C98.8508 221.615 98.6503 221.953 98.3686 222.244C98.0869 222.533 97.7388 222.758 97.3245 222.92C96.9102 223.08 96.4446 223.159 95.9275 223.159Z" fill="#303030"/>
<path d="M61.5 194.669V203.25C61.5 204.907 62.8432 206.25 64.5 206.25H79.5C81.1569 206.25 82.5 204.907 82.5 203.25V194.669L73.5723 200.163C72.6081 200.756 71.3919 200.756 70.4277 200.163L61.5 194.669Z" fill="#0E9AFF"/>
<path d="M82.5 192.908V192.75C82.5 191.093 81.1569 189.75 79.5 189.75H64.5C62.8432 189.75 61.5 191.093 61.5 192.75V192.908L71.2139 198.886C71.696 199.182 72.304 199.182 72.7861 198.886L82.5 192.908Z" fill="#0E9AFF"/>
<rect x="32" y="98" width="80" height="62" rx="12" fill="#0E9AFF"/>
<path d="M55.2664 145V134.818H56.4993V139.352H61.9283V134.818H63.1612V145H61.9283V140.446H56.4993V145H55.2664ZM67.8728 145.159C67.1834 145.159 66.5785 144.995 66.0582 144.667C65.5411 144.339 65.1368 143.88 64.8451 143.29C64.5568 142.7 64.4126 142.01 64.4126 141.222C64.4126 140.426 64.5568 139.732 64.8451 139.138C65.1368 138.545 65.5411 138.085 66.0582 137.756C66.5785 137.428 67.1834 137.264 67.8728 137.264C68.5622 137.264 69.1654 137.428 69.6825 137.756C70.2028 138.085 70.6072 138.545 70.8955 139.138C71.1872 139.732 71.333 140.426 71.333 141.222C71.333 142.01 71.1872 142.7 70.8955 143.29C70.6072 143.88 70.2028 144.339 69.6825 144.667C69.1654 144.995 68.5622 145.159 67.8728 145.159ZM67.8728 144.105C68.3965 144.105 68.8274 143.971 69.1654 143.702C69.5035 143.434 69.7537 143.081 69.9161 142.643C70.0785 142.206 70.1597 141.732 70.1597 141.222C70.1597 140.711 70.0785 140.236 69.9161 139.795C69.7537 139.354 69.5035 138.998 69.1654 138.726C68.8274 138.454 68.3965 138.318 67.8728 138.318C67.3491 138.318 66.9183 138.454 66.5802 138.726C66.2421 138.998 65.9919 139.354 65.8295 139.795C65.6671 140.236 65.5859 140.711 65.5859 141.222C65.5859 141.732 65.6671 142.206 65.8295 142.643C65.9919 143.081 66.2421 143.434 66.5802 143.702C66.9183 143.971 67.3491 144.105 67.8728 144.105ZM72.4241 145V137.364H73.5576V138.557H73.657C73.8161 138.149 74.073 137.833 74.4276 137.607C74.7822 137.379 75.2081 137.264 75.7053 137.264C76.2091 137.264 76.6284 137.379 76.9631 137.607C77.3012 137.833 77.5647 138.149 77.7536 138.557H77.8331C78.0287 138.162 78.322 137.849 78.7131 137.617C79.1042 137.382 79.5732 137.264 80.1201 137.264C80.8028 137.264 81.3613 137.478 81.7955 137.906C82.2297 138.33 82.4468 138.991 82.4468 139.889V145H81.2735V139.889C81.2735 139.326 81.1194 138.923 80.8111 138.681C80.5029 138.439 80.14 138.318 79.7224 138.318C79.1854 138.318 78.7695 138.481 78.4745 138.805C78.1795 139.127 78.032 139.535 78.032 140.028V145H76.8388V139.77C76.8388 139.336 76.698 138.986 76.4162 138.721C76.1345 138.452 75.7716 138.318 75.3275 138.318C75.0225 138.318 74.7375 138.399 74.4724 138.562C74.2105 138.724 73.9984 138.95 73.836 139.238C73.6769 139.523 73.5974 139.853 73.5974 140.227V145H72.4241ZM87.0937 145.159C86.3579 145.159 85.7232 144.997 85.1896 144.672C84.6593 144.344 84.25 143.886 83.9616 143.3C83.6766 142.71 83.5341 142.024 83.5341 141.241C83.5341 140.459 83.6766 139.77 83.9616 139.173C84.25 138.573 84.651 138.106 85.1648 137.771C85.6818 137.433 86.285 137.264 86.9744 137.264C87.3721 137.264 87.7649 137.33 88.1527 137.463C88.5405 137.596 88.8934 137.811 89.2116 138.109C89.5298 138.404 89.7834 138.795 89.9723 139.283C90.1612 139.77 90.2557 140.37 90.2557 141.082V141.58H84.3693V140.565H89.0625C89.0625 140.134 88.9763 139.75 88.804 139.412C88.6349 139.074 88.393 138.807 88.0781 138.612C87.7666 138.416 87.3987 138.318 86.9744 138.318C86.5071 138.318 86.1027 138.434 85.7613 138.666C85.4233 138.895 85.1631 139.193 84.9808 139.561C84.7985 139.929 84.7074 140.323 84.7074 140.744V141.42C84.7074 141.997 84.8068 142.486 85.0057 142.887C85.2078 143.285 85.4879 143.588 85.8459 143.797C86.2038 144.002 86.6198 144.105 87.0937 144.105C87.402 144.105 87.6804 144.062 87.929 143.976C88.1809 143.886 88.3979 143.754 88.5802 143.578C88.7625 143.399 88.9034 143.177 89.0028 142.912L90.1363 143.23C90.017 143.615 89.8165 143.953 89.5348 144.244C89.2531 144.533 88.905 144.758 88.4907 144.92C88.0764 145.08 87.6108 145.159 87.0937 145.159Z" fill="white"/>
<path d="M71.4697 110.841C71.7626 110.548 72.2374 110.548 72.5303 110.841L81.2197 119.53C81.5126 119.823 81.9874 119.823 82.2803 119.53C82.5732 119.237 82.5732 118.762 82.2803 118.469L73.591 109.78C72.7123 108.901 71.2877 108.901 70.409 109.78L61.7197 118.469C61.4268 118.762 61.4268 119.237 61.7197 119.53C62.0126 119.823 62.4874 119.823 62.7803 119.53L71.4697 110.841Z" fill="white"/>
<path d="M72 112.432L80.159 120.591C80.1887 120.621 80.2191 120.649 80.25 120.677V126.875C80.25 127.91 79.4105 128.75 78.375 128.75H75C74.5858 128.75 74.25 128.414 74.25 128V123.5C74.25 123.086 73.9142 122.75 73.5 122.75H70.5C70.0858 122.75 69.75 123.086 69.75 123.5V128C69.75 128.414 69.4142 128.75 69 128.75H65.625C64.5895 128.75 63.75 127.91 63.75 126.875V120.677C63.7809 120.649 63.8113 120.621 63.841 120.591L72 112.432Z" fill="white"/>
<g clip-path="url(#clip0_99_481)">
<mask id="mask0_99_481" style="mask-type:luminance" maskUnits="userSpaceOnUse" x="58" y="38" width="28" height="28">
<path d="M85.8133 38H58V65.8133H85.8133V38Z" fill="white"/>
</mask>
<g mask="url(#mask0_99_481)">
<path fill-rule="evenodd" clip-rule="evenodd" d="M60.3181 65.8133H73.0662C73.3696 65.8133 73.6699 65.7536 73.9502 65.6375C74.2305 65.5214 74.4852 65.3512 74.6996 65.1367C75.1328 64.7035 75.3762 64.1159 75.3762 63.5033V50.7482C75.3759 50.1334 75.1315 49.544 74.6968 49.1093C74.2622 48.6746 73.6728 48.4303 73.0581 48.43H70.7398C70.1251 48.4303 69.5358 48.6746 69.1011 49.1093C68.6664 49.544 68.4221 50.1334 68.4218 50.7482V58.86H64.9451V50.7482C64.9451 50.1336 64.701 49.5441 64.2665 49.1094C63.832 48.6747 63.2426 48.4303 62.628 48.43H60.3099C59.6952 48.4303 59.1057 48.6746 58.671 49.1093C58.2363 49.544 57.992 50.1334 57.9917 50.7482V63.4952C57.9922 64.1079 58.2361 64.6954 58.6696 65.1285C58.8852 65.3463 59.1419 65.519 59.425 65.6366C59.708 65.7542 60.0116 65.8143 60.3181 65.8133ZM78.86 63.4952C78.86 64.1098 79.1039 64.6993 79.5384 65.134C79.973 65.5687 80.5624 65.813 81.177 65.8133H83.495C84.1097 65.813 84.6992 65.5687 85.1339 65.134C85.5686 64.6994 85.8129 64.1099 85.8133 63.4952V61.1782C85.8129 60.5634 85.5686 59.974 85.1339 59.5393C84.6992 59.1046 84.1097 58.8603 83.495 58.86H81.177C80.5624 58.8603 79.973 59.1046 79.5384 59.5393C79.1039 59.974 78.86 60.5636 78.86 61.1782V63.4952ZM83.495 38H70.7468C70.1321 38.0003 69.5428 38.2446 69.1081 38.6793C68.6734 39.114 68.4291 39.7034 68.4287 40.3182V42.6363C68.4291 43.251 68.6734 43.8405 69.1081 44.2752C69.5428 44.7099 70.1321 44.9542 70.7468 44.9545H78.8587V53.0663C78.8587 53.6809 79.1029 54.2704 79.5373 54.7051C79.9718 55.1398 80.5612 55.3841 81.1758 55.3845H83.4938C84.1086 55.3841 84.6981 55.1398 85.1328 54.7051C85.5675 54.2704 85.8118 53.681 85.8121 53.0663V40.3182C85.8119 39.7056 85.5684 39.1181 85.1353 38.6848C84.9207 38.468 84.6652 38.2959 84.3837 38.1783C84.1021 38.0608 83.8001 38.0002 83.495 38Z" fill="#0E9AFF"/>
</g>
</g>
</g>
<g filter="url(#filter1_d_99_481)">
<rect x="144" y="24" width="96" height="400" rx="16" fill="#FEFEFE" shape-rendering="crispEdges"/>
<rect x="152" y="350" width="80" height="62" rx="12" fill="white"/>
<path d="M173.948 391.364C173.889 390.86 173.647 390.469 173.223 390.19C172.798 389.912 172.278 389.773 171.661 389.773C171.211 389.773 170.816 389.846 170.478 389.991C170.143 390.137 169.882 390.338 169.693 390.593C169.507 390.848 169.414 391.138 169.414 391.463C169.414 391.735 169.479 391.969 169.608 392.164C169.741 392.356 169.91 392.517 170.115 392.646C170.321 392.772 170.536 392.877 170.762 392.96C170.987 393.039 171.194 393.104 171.383 393.153L172.417 393.432C172.682 393.501 172.977 393.598 173.302 393.72C173.63 393.843 173.943 394.01 174.242 394.222C174.543 394.431 174.792 394.7 174.987 395.028C175.183 395.356 175.281 395.759 175.281 396.236C175.281 396.786 175.137 397.283 174.848 397.727C174.563 398.171 174.146 398.524 173.595 398.786C173.049 399.048 172.384 399.179 171.602 399.179C170.873 399.179 170.241 399.061 169.708 398.826C169.177 398.591 168.76 398.263 168.455 397.842C168.153 397.421 167.982 396.932 167.943 396.375H169.215C169.249 396.759 169.378 397.078 169.603 397.33C169.832 397.578 170.12 397.764 170.468 397.886C170.82 398.006 171.197 398.065 171.602 398.065C172.072 398.065 172.495 397.989 172.87 397.837C173.244 397.681 173.541 397.465 173.759 397.19C173.978 396.912 174.088 396.587 174.088 396.216C174.088 395.878 173.993 395.603 173.804 395.391C173.615 395.179 173.367 395.006 173.058 394.874C172.75 394.741 172.417 394.625 172.059 394.526L170.806 394.168C170.011 393.939 169.381 393.612 168.917 393.188C168.453 392.764 168.221 392.209 168.221 391.523C168.221 390.953 168.375 390.455 168.683 390.031C168.995 389.604 169.413 389.272 169.936 389.037C170.463 388.798 171.052 388.679 171.701 388.679C172.357 388.679 172.941 388.797 173.451 389.032C173.962 389.264 174.366 389.582 174.664 389.987C174.966 390.391 175.125 390.85 175.142 391.364H173.948ZM179.651 399.159C178.915 399.159 178.28 398.997 177.746 398.672C177.216 398.344 176.807 397.886 176.518 397.3C176.233 396.71 176.091 396.024 176.091 395.241C176.091 394.459 176.233 393.77 176.518 393.173C176.807 392.573 177.208 392.106 177.722 391.771C178.239 391.433 178.842 391.264 179.531 391.264C179.929 391.264 180.322 391.33 180.71 391.463C181.097 391.596 181.45 391.811 181.768 392.109C182.087 392.404 182.34 392.795 182.529 393.283C182.718 393.77 182.813 394.37 182.813 395.082V395.58H176.926V394.565H181.619C181.619 394.134 181.533 393.75 181.361 393.412C181.192 393.074 180.95 392.807 180.635 392.612C180.323 392.416 179.955 392.318 179.531 392.318C179.064 392.318 178.66 392.434 178.318 392.666C177.98 392.895 177.72 393.193 177.538 393.561C177.355 393.929 177.264 394.323 177.264 394.744V395.42C177.264 395.997 177.364 396.486 177.563 396.887C177.765 397.285 178.045 397.588 178.403 397.797C178.761 398.002 179.177 398.105 179.651 398.105C179.959 398.105 180.237 398.062 180.486 397.976C180.738 397.886 180.955 397.754 181.137 397.578C181.319 397.399 181.46 397.177 181.56 396.912L182.693 397.23C182.574 397.615 182.373 397.953 182.092 398.244C181.81 398.533 181.462 398.758 181.048 398.92C180.633 399.08 180.168 399.159 179.651 399.159ZM187.218 391.364V392.358H183.261V391.364H187.218ZM184.414 389.534H185.588V396.812C185.588 397.144 185.636 397.393 185.732 397.558C185.831 397.721 185.957 397.83 186.11 397.886C186.265 397.939 186.429 397.966 186.602 397.966C186.731 397.966 186.837 397.959 186.92 397.946C187.003 397.929 187.069 397.916 187.119 397.906L187.358 398.96C187.278 398.99 187.167 399.02 187.024 399.05C186.882 399.083 186.701 399.099 186.483 399.099C186.151 399.099 185.826 399.028 185.508 398.886C185.193 398.743 184.931 398.526 184.723 398.234C184.517 397.943 184.414 397.575 184.414 397.131V389.534ZM191.604 391.364V392.358H187.647V391.364H191.604ZM188.8 389.534H189.974V396.812C189.974 397.144 190.022 397.393 190.118 397.558C190.217 397.721 190.343 397.83 190.496 397.886C190.651 397.939 190.815 397.966 190.988 397.966C191.117 397.966 191.223 397.959 191.306 397.946C191.389 397.929 191.455 397.916 191.505 397.906L191.743 398.96C191.664 398.99 191.553 399.02 191.41 399.05C191.268 399.083 191.087 399.099 190.868 399.099C190.537 399.099 190.212 399.028 189.894 398.886C189.579 398.743 189.317 398.526 189.109 398.234C188.903 397.943 188.8 397.575 188.8 397.131V389.534ZM192.669 399V391.364H193.842V399H192.669ZM193.266 390.091C193.037 390.091 192.84 390.013 192.674 389.857C192.512 389.701 192.431 389.514 192.431 389.295C192.431 389.077 192.512 388.889 192.674 388.734C192.84 388.578 193.037 388.5 193.266 388.5C193.494 388.5 193.69 388.578 193.852 388.734C194.018 388.889 194.101 389.077 194.101 389.295C194.101 389.514 194.018 389.701 193.852 389.857C193.69 390.013 193.494 390.091 193.266 390.091ZM196.465 394.406V399H195.291V391.364H196.425V392.557H196.524C196.703 392.169 196.975 391.857 197.34 391.622C197.704 391.384 198.175 391.264 198.752 391.264C199.269 391.264 199.721 391.37 200.109 391.582C200.497 391.791 200.798 392.109 201.014 392.537C201.229 392.961 201.337 393.498 201.337 394.148V399H200.164V394.227C200.164 393.627 200.008 393.16 199.696 392.825C199.385 392.487 198.957 392.318 198.414 392.318C198.039 392.318 197.704 392.399 197.409 392.562C197.118 392.724 196.887 392.961 196.718 393.273C196.549 393.584 196.465 393.962 196.465 394.406ZM205.863 402.023C205.297 402.023 204.809 401.95 204.402 401.804C203.994 401.661 203.654 401.473 203.382 401.237C203.114 401.005 202.9 400.757 202.741 400.491L203.676 399.835C203.782 399.974 203.916 400.134 204.078 400.312C204.241 400.495 204.463 400.652 204.745 400.785C205.03 400.921 205.403 400.989 205.863 400.989C206.48 400.989 206.989 400.839 207.39 400.541C207.791 400.243 207.991 399.776 207.991 399.139V397.588H207.892C207.806 397.727 207.683 397.9 207.524 398.105C207.368 398.307 207.143 398.488 206.848 398.647C206.556 398.803 206.162 398.881 205.664 398.881C205.048 398.881 204.494 398.735 204.004 398.443C203.517 398.152 203.131 397.727 202.846 397.17C202.564 396.614 202.423 395.937 202.423 395.142C202.423 394.36 202.56 393.679 202.836 393.099C203.111 392.515 203.493 392.065 203.984 391.746C204.475 391.425 205.041 391.264 205.684 391.264C206.181 391.264 206.576 391.347 206.868 391.513C207.163 391.675 207.388 391.861 207.544 392.07C207.703 392.275 207.825 392.444 207.912 392.577H208.031V391.364H209.164V399.219C209.164 399.875 209.015 400.409 208.717 400.82C208.422 401.234 208.024 401.537 207.524 401.729C207.027 401.925 206.473 402.023 205.863 402.023ZM205.824 397.827C206.294 397.827 206.692 397.719 207.017 397.504C207.342 397.288 207.588 396.978 207.757 396.574C207.926 396.17 208.011 395.686 208.011 395.122C208.011 394.572 207.928 394.086 207.762 393.665C207.597 393.245 207.351 392.915 207.027 392.676C206.702 392.437 206.301 392.318 205.824 392.318C205.326 392.318 204.912 392.444 204.581 392.696C204.252 392.948 204.006 393.286 203.84 393.71C203.677 394.134 203.596 394.605 203.596 395.122C203.596 395.652 203.679 396.121 203.845 396.529C204.014 396.933 204.262 397.252 204.591 397.484C204.922 397.712 205.333 397.827 205.824 397.827ZM216.021 393.074L214.967 393.372C214.901 393.196 214.803 393.026 214.674 392.86C214.548 392.691 214.376 392.552 214.157 392.442C213.938 392.333 213.658 392.278 213.317 392.278C212.849 392.278 212.46 392.386 212.148 392.602C211.84 392.814 211.686 393.084 211.686 393.412C211.686 393.704 211.792 393.934 212.004 394.103C212.216 394.272 212.548 394.413 212.999 394.526L214.132 394.804C214.815 394.97 215.324 395.223 215.658 395.565C215.993 395.903 216.16 396.339 216.16 396.872C216.16 397.31 216.034 397.701 215.783 398.045C215.534 398.39 215.186 398.662 214.739 398.861C214.291 399.06 213.771 399.159 213.177 399.159C212.399 399.159 211.754 398.99 211.244 398.652C210.733 398.314 210.41 397.82 210.274 397.17L211.388 396.892C211.494 397.303 211.694 397.611 211.989 397.817C212.288 398.022 212.677 398.125 213.158 398.125C213.704 398.125 214.139 398.009 214.46 397.777C214.785 397.542 214.947 397.26 214.947 396.932C214.947 396.667 214.855 396.445 214.669 396.266C214.483 396.083 214.198 395.947 213.814 395.858L212.541 395.56C211.842 395.394 211.328 395.137 211 394.789C210.675 394.438 210.513 393.999 210.513 393.472C210.513 393.041 210.634 392.66 210.876 392.328C211.121 391.997 211.454 391.737 211.875 391.548C212.299 391.359 212.78 391.264 213.317 391.264C214.072 391.264 214.666 391.43 215.097 391.761C215.531 392.093 215.839 392.53 216.021 393.074Z" fill="#303030"/>
<path fill-rule="evenodd" clip-rule="evenodd" d="M191.078 363.25C190.161 363.25 189.379 363.913 189.228 364.817L189.05 365.889C189.03 366.01 188.935 366.15 188.753 366.237C188.409 366.403 188.08 366.594 187.767 366.808C187.601 366.922 187.433 366.933 187.318 366.89L186.299 366.508C185.44 366.187 184.475 366.533 184.017 367.327L183.095 368.924C182.637 369.717 182.819 370.726 183.527 371.309L184.368 372.001C184.462 372.078 184.536 372.23 184.521 372.431C184.507 372.619 184.5 372.809 184.5 373C184.5 373.191 184.507 373.381 184.521 373.569C184.536 373.77 184.462 373.922 184.368 374L183.527 374.692C182.819 375.274 182.637 376.283 183.095 377.077L184.017 378.674C184.475 379.467 185.44 379.813 186.299 379.492L187.318 379.11C187.433 379.067 187.601 379.079 187.768 379.192C188.08 379.406 188.409 379.597 188.753 379.763C188.935 379.85 189.03 379.99 189.05 380.111L189.228 381.183C189.379 382.087 190.161 382.75 191.078 382.75H192.922C193.838 382.75 194.621 382.087 194.771 381.183L194.95 380.111C194.97 379.99 195.064 379.85 195.247 379.763C195.591 379.597 195.92 379.406 196.232 379.192C196.399 379.078 196.567 379.067 196.682 379.11L197.701 379.492C198.56 379.813 199.525 379.467 199.983 378.673L200.905 377.076C201.363 376.283 201.18 375.274 200.473 374.691L199.632 373.999C199.538 373.922 199.463 373.77 199.479 373.569C199.493 373.381 199.5 373.191 199.5 373C199.5 372.809 199.493 372.619 199.479 372.431C199.463 372.23 199.538 372.078 199.632 372L200.473 371.308C201.18 370.726 201.363 369.717 200.905 368.923L199.983 367.326C199.525 366.533 198.56 366.187 197.701 366.508L196.682 366.89C196.567 366.933 196.399 366.921 196.232 366.807C195.92 366.594 195.591 366.403 195.247 366.237C195.064 366.15 194.97 366.01 194.95 365.889L194.771 364.817C194.621 363.913 193.838 363.25 192.922 363.25H191.078ZM192 376.75C194.071 376.75 195.75 375.071 195.75 373C195.75 370.929 194.071 369.25 192 369.25C189.929 369.25 188.25 370.929 188.25 373C188.25 375.071 189.929 376.75 192 376.75Z" fill="#0E9AFF"/>
<rect x="152" y="238" width="80" height="62" rx="12" fill="white"/>
<path d="M177.721 282H176.488C176.416 281.645 176.288 281.334 176.106 281.065C175.927 280.797 175.708 280.571 175.449 280.389C175.194 280.204 174.911 280.064 174.599 279.972C174.288 279.879 173.963 279.832 173.625 279.832C173.008 279.832 172.45 279.988 171.949 280.3C171.452 280.611 171.056 281.07 170.761 281.677C170.47 282.283 170.324 283.027 170.324 283.909C170.324 284.791 170.47 285.535 170.761 286.141C171.056 286.748 171.452 287.207 171.949 287.518C172.45 287.83 173.008 287.986 173.625 287.986C173.963 287.986 174.288 287.939 174.599 287.847C174.911 287.754 175.194 287.616 175.449 287.434C175.708 287.248 175.927 287.021 176.106 286.753C176.288 286.481 176.416 286.17 176.488 285.818H177.721C177.629 286.339 177.46 286.804 177.214 287.215C176.969 287.626 176.664 287.976 176.3 288.264C175.935 288.549 175.526 288.766 175.072 288.915C174.621 289.065 174.139 289.139 173.625 289.139C172.756 289.139 171.984 288.927 171.308 288.503C170.632 288.079 170.1 287.475 169.712 286.693C169.324 285.911 169.131 284.983 169.131 283.909C169.131 282.835 169.324 281.907 169.712 281.125C170.1 280.343 170.632 279.74 171.308 279.315C171.984 278.891 172.756 278.679 173.625 278.679C174.139 278.679 174.621 278.754 175.072 278.903C175.526 279.052 175.935 279.271 176.3 279.559C176.664 279.844 176.969 280.192 177.214 280.603C177.46 281.011 177.629 281.476 177.721 282ZM181.957 289.159C181.268 289.159 180.663 288.995 180.142 288.667C179.625 288.339 179.221 287.88 178.929 287.29C178.641 286.7 178.497 286.01 178.497 285.222C178.497 284.426 178.641 283.732 178.929 283.138C179.221 282.545 179.625 282.085 180.142 281.756C180.663 281.428 181.268 281.264 181.957 281.264C182.646 281.264 183.25 281.428 183.767 281.756C184.287 282.085 184.691 282.545 184.98 283.138C185.271 283.732 185.417 284.426 185.417 285.222C185.417 286.01 185.271 286.7 184.98 287.29C184.691 287.88 184.287 288.339 183.767 288.667C183.25 288.995 182.646 289.159 181.957 289.159ZM181.957 288.105C182.481 288.105 182.912 287.971 183.25 287.702C183.588 287.434 183.838 287.081 184 286.643C184.163 286.206 184.244 285.732 184.244 285.222C184.244 284.711 184.163 284.236 184 283.795C183.838 283.354 183.588 282.998 183.25 282.726C182.912 282.454 182.481 282.318 181.957 282.318C181.433 282.318 181.002 282.454 180.664 282.726C180.326 282.998 180.076 283.354 179.914 283.795C179.751 284.236 179.67 284.711 179.67 285.222C179.67 285.732 179.751 286.206 179.914 286.643C180.076 287.081 180.326 287.434 180.664 287.702C181.002 287.971 181.433 288.105 181.957 288.105ZM187.682 284.406V289H186.508V281.364H187.642V282.557H187.741C187.92 282.169 188.192 281.857 188.557 281.622C188.921 281.384 189.392 281.264 189.968 281.264C190.486 281.264 190.938 281.37 191.326 281.582C191.713 281.791 192.015 282.109 192.231 282.537C192.446 282.961 192.554 283.498 192.554 284.148V289H191.38V284.227C191.38 283.627 191.225 283.16 190.913 282.825C190.602 282.487 190.174 282.318 189.63 282.318C189.256 282.318 188.921 282.399 188.626 282.562C188.334 282.724 188.104 282.961 187.935 283.273C187.766 283.584 187.682 283.962 187.682 284.406ZM197.319 281.364V282.358H193.361V281.364H197.319ZM194.515 279.534H195.688V286.812C195.688 287.144 195.736 287.393 195.832 287.558C195.932 287.721 196.058 287.83 196.21 287.886C196.366 287.939 196.53 287.966 196.702 287.966C196.831 287.966 196.938 287.959 197.02 287.946C197.103 287.929 197.17 287.916 197.219 287.906L197.458 288.96C197.378 288.99 197.267 289.02 197.125 289.05C196.982 289.083 196.802 289.099 196.583 289.099C196.251 289.099 195.927 289.028 195.608 288.886C195.294 288.743 195.032 288.526 194.823 288.234C194.617 287.943 194.515 287.575 194.515 287.131V279.534ZM200.631 289.179C200.147 289.179 199.708 289.088 199.313 288.906C198.919 288.72 198.606 288.453 198.374 288.105C198.142 287.754 198.026 287.33 198.026 286.832C198.026 286.395 198.112 286.04 198.284 285.768C198.457 285.493 198.687 285.278 198.975 285.122C199.264 284.966 199.582 284.85 199.93 284.774C200.281 284.695 200.634 284.632 200.989 284.585C201.453 284.526 201.829 284.481 202.117 284.451C202.409 284.418 202.621 284.363 202.754 284.287C202.89 284.211 202.957 284.078 202.957 283.889V283.849C202.957 283.359 202.823 282.978 202.555 282.706C202.29 282.434 201.887 282.298 201.347 282.298C200.787 282.298 200.347 282.421 200.029 282.666C199.711 282.911 199.487 283.173 199.358 283.452L198.244 283.054C198.443 282.59 198.708 282.229 199.04 281.97C199.375 281.708 199.739 281.526 200.134 281.423C200.531 281.317 200.922 281.264 201.307 281.264C201.552 281.264 201.834 281.294 202.152 281.354C202.474 281.41 202.783 281.528 203.082 281.707C203.383 281.886 203.634 282.156 203.832 282.517C204.031 282.878 204.131 283.362 204.131 283.969V289H202.957V287.966H202.898C202.818 288.132 202.686 288.309 202.5 288.498C202.315 288.687 202.068 288.848 201.759 288.98C201.451 289.113 201.075 289.179 200.631 289.179ZM200.81 288.125C201.274 288.125 201.665 288.034 201.983 287.852C202.305 287.669 202.547 287.434 202.709 287.146C202.875 286.857 202.957 286.554 202.957 286.236V285.162C202.908 285.222 202.798 285.276 202.629 285.326C202.464 285.372 202.271 285.414 202.053 285.45C201.837 285.483 201.627 285.513 201.421 285.54C201.219 285.563 201.055 285.583 200.929 285.599C200.624 285.639 200.339 285.704 200.074 285.793C199.812 285.879 199.6 286.01 199.438 286.186C199.279 286.358 199.199 286.594 199.199 286.892C199.199 287.3 199.35 287.608 199.651 287.817C199.956 288.022 200.342 288.125 200.81 288.125ZM208.675 289.159C207.959 289.159 207.342 288.99 206.825 288.652C206.308 288.314 205.91 287.848 205.632 287.255C205.354 286.662 205.214 285.984 205.214 285.222C205.214 284.446 205.357 283.762 205.642 283.168C205.93 282.572 206.331 282.106 206.845 281.771C207.362 281.433 207.965 281.264 208.655 281.264C209.192 281.264 209.676 281.364 210.106 281.562C210.537 281.761 210.89 282.04 211.165 282.398C211.44 282.756 211.611 283.173 211.677 283.651H210.504C210.415 283.303 210.216 282.994 209.908 282.726C209.603 282.454 209.192 282.318 208.675 282.318C208.217 282.318 207.816 282.437 207.471 282.676C207.13 282.911 206.863 283.245 206.671 283.675C206.482 284.103 206.388 284.605 206.388 285.182C206.388 285.772 206.48 286.286 206.666 286.723C206.855 287.161 207.12 287.5 207.462 287.742C207.806 287.984 208.211 288.105 208.675 288.105C208.979 288.105 209.256 288.052 209.505 287.946C209.753 287.84 209.964 287.688 210.136 287.489C210.309 287.29 210.431 287.051 210.504 286.773H211.677C211.611 287.223 211.447 287.629 211.185 287.991C210.927 288.349 210.584 288.634 210.156 288.846C209.732 289.055 209.238 289.159 208.675 289.159ZM216.014 281.364V282.358H212.056V281.364H216.014ZM213.21 279.534H214.383V286.812C214.383 287.144 214.431 287.393 214.527 287.558C214.627 287.721 214.753 287.83 214.905 287.886C215.061 287.939 215.225 287.966 215.397 287.966C215.526 287.966 215.632 287.959 215.715 287.946C215.798 287.929 215.864 287.916 215.914 287.906L216.153 288.96C216.073 288.99 215.962 289.02 215.82 289.05C215.677 289.083 215.497 289.099 215.278 289.099C214.946 289.099 214.622 289.028 214.303 288.886C213.989 288.743 213.727 288.526 213.518 288.234C213.312 287.943 213.21 287.575 213.21 287.131V279.534Z" fill="#303030"/>
<path fill-rule="evenodd" clip-rule="evenodd" d="M187.5 256C187.5 253.515 189.515 251.5 192 251.5C194.485 251.5 196.5 253.515 196.5 256C196.5 258.485 194.485 260.5 192 260.5C189.515 260.5 187.5 258.485 187.5 256Z" fill="#0E9AFF"/>
<path fill-rule="evenodd" clip-rule="evenodd" d="M183.751 270.105C183.829 265.616 187.492 262 192 262C196.508 262 200.172 265.616 200.249 270.106C200.254 270.403 200.082 270.676 199.812 270.8C197.433 271.892 194.787 272.5 192 272.5C189.214 272.5 186.567 271.892 184.188 270.8C183.918 270.676 183.746 270.403 183.751 270.105Z" fill="#0E9AFF"/>
<rect x="152" y="175" width="80" height="62" rx="12" fill="white"/>
<path d="M165.433 212.818H166.904L170.364 221.27H170.484L173.944 212.818H175.416V223H174.262V215.264H174.163L170.981 223H169.867L166.685 215.264H166.586V223H165.433V212.818ZM180.23 223.159C179.494 223.159 178.86 222.997 178.326 222.672C177.796 222.344 177.387 221.886 177.098 221.3C176.813 220.71 176.671 220.024 176.671 219.241C176.671 218.459 176.813 217.77 177.098 217.173C177.387 216.573 177.788 216.106 178.301 215.771C178.818 215.433 179.422 215.264 180.111 215.264C180.509 215.264 180.901 215.33 181.289 215.463C181.677 215.596 182.03 215.811 182.348 216.109C182.666 216.404 182.92 216.795 183.109 217.283C183.298 217.77 183.392 218.37 183.392 219.082V219.58H177.506V218.565H182.199C182.199 218.134 182.113 217.75 181.94 217.412C181.771 217.074 181.529 216.807 181.215 216.612C180.903 216.416 180.535 216.318 180.111 216.318C179.644 216.318 179.239 216.434 178.898 216.666C178.56 216.895 178.3 217.193 178.117 217.561C177.935 217.929 177.844 218.323 177.844 218.744V219.42C177.844 219.997 177.943 220.486 178.142 220.887C178.344 221.285 178.624 221.588 178.982 221.797C179.34 222.002 179.756 222.105 180.23 222.105C180.538 222.105 180.817 222.062 181.065 221.976C181.317 221.886 181.534 221.754 181.717 221.578C181.899 221.399 182.04 221.177 182.139 220.912L183.273 221.23C183.154 221.615 182.953 221.953 182.671 222.244C182.39 222.533 182.042 222.758 181.627 222.92C181.213 223.08 180.747 223.159 180.23 223.159ZM189.886 217.074L188.832 217.372C188.766 217.196 188.668 217.026 188.539 216.86C188.413 216.691 188.24 216.552 188.022 216.442C187.803 216.333 187.523 216.278 187.182 216.278C186.714 216.278 186.325 216.386 186.013 216.602C185.705 216.814 185.551 217.084 185.551 217.412C185.551 217.704 185.657 217.934 185.869 218.103C186.081 218.272 186.413 218.413 186.863 218.526L187.997 218.804C188.68 218.97 189.188 219.223 189.523 219.565C189.858 219.903 190.025 220.339 190.025 220.872C190.025 221.31 189.899 221.701 189.647 222.045C189.399 222.39 189.051 222.662 188.603 222.861C188.156 223.06 187.636 223.159 187.042 223.159C186.263 223.159 185.619 222.99 185.108 222.652C184.598 222.314 184.275 221.82 184.139 221.17L185.253 220.892C185.359 221.303 185.559 221.611 185.854 221.817C186.152 222.022 186.542 222.125 187.022 222.125C187.569 222.125 188.004 222.009 188.325 221.777C188.65 221.542 188.812 221.26 188.812 220.932C188.812 220.667 188.719 220.445 188.534 220.266C188.348 220.083 188.063 219.947 187.679 219.858L186.406 219.56C185.707 219.394 185.193 219.137 184.865 218.789C184.54 218.438 184.378 217.999 184.378 217.472C184.378 217.041 184.499 216.66 184.74 216.328C184.986 215.997 185.319 215.737 185.74 215.548C186.164 215.359 186.645 215.264 187.182 215.264C187.937 215.264 188.53 215.43 188.961 215.761C189.396 216.093 189.704 216.53 189.886 217.074ZM196.501 217.074L195.447 217.372C195.38 217.196 195.282 217.026 195.153 216.86C195.027 216.691 194.855 216.552 194.636 216.442C194.417 216.333 194.137 216.278 193.796 216.278C193.329 216.278 192.939 216.386 192.628 216.602C192.319 216.814 192.165 217.084 192.165 217.412C192.165 217.704 192.271 217.934 192.483 218.103C192.696 218.272 193.027 218.413 193.478 218.526L194.611 218.804C195.294 218.97 195.803 219.223 196.138 219.565C196.472 219.903 196.64 220.339 196.64 220.872C196.64 221.31 196.514 221.701 196.262 222.045C196.013 222.39 195.665 222.662 195.218 222.861C194.77 223.06 194.25 223.159 193.657 223.159C192.878 223.159 192.233 222.99 191.723 222.652C191.212 222.314 190.889 221.82 190.753 221.17L191.867 220.892C191.973 221.303 192.174 221.611 192.469 221.817C192.767 222.022 193.156 222.125 193.637 222.125C194.184 222.125 194.618 222.009 194.939 221.777C195.264 221.542 195.427 221.26 195.427 220.932C195.427 220.667 195.334 220.445 195.148 220.266C194.963 220.083 194.678 219.947 194.293 219.858L193.02 219.56C192.321 219.394 191.807 219.137 191.479 218.789C191.154 218.438 190.992 217.999 190.992 217.472C190.992 217.041 191.113 216.66 191.355 216.328C191.6 215.997 191.933 215.737 192.354 215.548C192.778 215.359 193.259 215.264 193.796 215.264C194.552 215.264 195.145 215.43 195.576 215.761C196.01 216.093 196.318 216.53 196.501 217.074ZM199.953 223.179C199.469 223.179 199.03 223.088 198.636 222.906C198.241 222.72 197.928 222.453 197.696 222.105C197.464 221.754 197.348 221.33 197.348 220.832C197.348 220.395 197.434 220.04 197.606 219.768C197.779 219.493 198.009 219.278 198.298 219.122C198.586 218.966 198.904 218.85 199.252 218.774C199.603 218.695 199.956 218.632 200.311 218.585C200.775 218.526 201.151 218.481 201.44 218.451C201.731 218.418 201.943 218.363 202.076 218.287C202.212 218.211 202.28 218.078 202.28 217.889V217.849C202.28 217.359 202.146 216.978 201.877 216.706C201.612 216.434 201.209 216.298 200.669 216.298C200.109 216.298 199.67 216.421 199.351 216.666C199.033 216.911 198.81 217.173 198.68 217.452L197.567 217.054C197.766 216.59 198.031 216.229 198.362 215.97C198.697 215.708 199.061 215.526 199.456 215.423C199.854 215.317 200.245 215.264 200.629 215.264C200.874 215.264 201.156 215.294 201.474 215.354C201.796 215.41 202.106 215.528 202.404 215.707C202.706 215.886 202.956 216.156 203.155 216.517C203.354 216.878 203.453 217.362 203.453 217.969V223H202.28V221.966H202.22C202.141 222.132 202.008 222.309 201.822 222.498C201.637 222.687 201.39 222.848 201.082 222.98C200.773 223.113 200.397 223.179 199.953 223.179ZM200.132 222.125C200.596 222.125 200.987 222.034 201.305 221.852C201.627 221.669 201.869 221.434 202.031 221.146C202.197 220.857 202.28 220.554 202.28 220.236V219.162C202.23 219.222 202.121 219.276 201.952 219.326C201.786 219.372 201.594 219.414 201.375 219.45C201.159 219.483 200.949 219.513 200.744 219.54C200.541 219.563 200.377 219.583 200.251 219.599C199.946 219.639 199.661 219.704 199.396 219.793C199.134 219.879 198.922 220.01 198.76 220.186C198.601 220.358 198.521 220.594 198.521 220.892C198.521 221.3 198.672 221.608 198.974 221.817C199.279 222.022 199.665 222.125 200.132 222.125ZM207.977 226.023C207.41 226.023 206.923 225.95 206.515 225.804C206.108 225.661 205.768 225.473 205.496 225.237C205.228 225.005 205.014 224.757 204.855 224.491L205.789 223.835C205.896 223.974 206.03 224.134 206.192 224.312C206.355 224.495 206.577 224.652 206.858 224.785C207.143 224.921 207.516 224.989 207.977 224.989C208.593 224.989 209.102 224.839 209.503 224.541C209.904 224.243 210.105 223.776 210.105 223.139V221.588H210.005C209.919 221.727 209.797 221.9 209.637 222.105C209.482 222.307 209.256 222.488 208.961 222.647C208.67 222.803 208.275 222.881 207.778 222.881C207.162 222.881 206.608 222.735 206.118 222.443C205.63 222.152 205.244 221.727 204.959 221.17C204.677 220.614 204.537 219.937 204.537 219.142C204.537 218.36 204.674 217.679 204.949 217.099C205.224 216.515 205.607 216.065 206.098 215.746C206.588 215.425 207.155 215.264 207.798 215.264C208.295 215.264 208.69 215.347 208.981 215.513C209.276 215.675 209.502 215.861 209.657 216.07C209.816 216.275 209.939 216.444 210.025 216.577H210.145V215.364H211.278V223.219C211.278 223.875 211.129 224.409 210.831 224.82C210.536 225.234 210.138 225.537 209.637 225.729C209.14 225.925 208.587 226.023 207.977 226.023ZM207.937 221.827C208.408 221.827 208.806 221.719 209.13 221.504C209.455 221.288 209.702 220.978 209.871 220.574C210.04 220.17 210.125 219.686 210.125 219.122C210.125 218.572 210.042 218.086 209.876 217.665C209.71 217.245 209.465 216.915 209.14 216.676C208.815 216.437 208.414 216.318 207.937 216.318C207.44 216.318 207.026 216.444 206.694 216.696C206.366 216.948 206.119 217.286 205.954 217.71C205.791 218.134 205.71 218.605 205.71 219.122C205.71 219.652 205.793 220.121 205.958 220.529C206.128 220.933 206.376 221.252 206.704 221.484C207.036 221.712 207.447 221.827 207.937 221.827ZM215.928 223.159C215.192 223.159 214.557 222.997 214.023 222.672C213.493 222.344 213.084 221.886 212.795 221.3C212.51 220.71 212.368 220.024 212.368 219.241C212.368 218.459 212.51 217.77 212.795 217.173C213.084 216.573 213.485 216.106 213.999 215.771C214.516 215.433 215.119 215.264 215.808 215.264C216.206 215.264 216.599 215.33 216.986 215.463C217.374 215.596 217.727 215.811 218.045 216.109C218.364 216.404 218.617 216.795 218.806 217.283C218.995 217.77 219.089 218.37 219.089 219.082V219.58H213.203V218.565H217.896C217.896 218.134 217.81 217.75 217.638 217.412C217.469 217.074 217.227 216.807 216.912 216.612C216.6 216.416 216.232 216.318 215.808 216.318C215.341 216.318 214.937 216.434 214.595 216.666C214.257 216.895 213.997 217.193 213.815 217.561C213.632 217.929 213.541 218.323 213.541 218.744V219.42C213.541 219.997 213.641 220.486 213.839 220.887C214.042 221.285 214.322 221.588 214.68 221.797C215.038 222.002 215.454 222.105 215.928 222.105C216.236 222.105 216.514 222.062 216.763 221.976C217.015 221.886 217.232 221.754 217.414 221.578C217.596 221.399 217.737 221.177 217.837 220.912L218.97 221.23C218.851 221.615 218.65 221.953 218.369 222.244C218.087 222.533 217.739 222.758 217.325 222.92C216.91 223.08 216.445 223.159 215.928 223.159Z" fill="#303030"/>
<path d="M181.5 194.669V203.25C181.5 204.907 182.843 206.25 184.5 206.25H199.5C201.157 206.25 202.5 204.907 202.5 203.25V194.669L193.572 200.163C192.608 200.756 191.392 200.756 190.428 200.163L181.5 194.669Z" fill="#0E9AFF"/>
<path d="M202.5 192.908V192.75C202.5 191.093 201.157 189.75 199.5 189.75H184.5C182.843 189.75 181.5 191.093 181.5 192.75V192.908L191.214 198.886C191.696 199.182 192.304 199.182 192.786 198.886L202.5 192.908Z" fill="#0E9AFF"/>
<rect x="153" y="99" width="78" height="60" rx="11" fill="white" stroke="#0E9AFF" stroke-width="2"/>
<path d="M175.266 145V134.818H176.499V139.352H181.928V134.818H183.161V145H181.928V140.446H176.499V145H175.266ZM187.873 145.159C187.183 145.159 186.579 144.995 186.058 144.667C185.541 144.339 185.137 143.88 184.845 143.29C184.557 142.7 184.413 142.01 184.413 141.222C184.413 140.426 184.557 139.732 184.845 139.138C185.137 138.545 185.541 138.085 186.058 137.756C186.579 137.428 187.183 137.264 187.873 137.264C188.562 137.264 189.165 137.428 189.682 137.756C190.203 138.085 190.607 138.545 190.896 139.138C191.187 139.732 191.333 140.426 191.333 141.222C191.333 142.01 191.187 142.7 190.896 143.29C190.607 143.88 190.203 144.339 189.682 144.667C189.165 144.995 188.562 145.159 187.873 145.159ZM187.873 144.105C188.396 144.105 188.827 143.971 189.165 143.702C189.503 143.434 189.754 143.081 189.916 142.643C190.079 142.206 190.16 141.732 190.16 141.222C190.16 140.711 190.079 140.236 189.916 139.795C189.754 139.354 189.503 138.998 189.165 138.726C188.827 138.454 188.396 138.318 187.873 138.318C187.349 138.318 186.918 138.454 186.58 138.726C186.242 138.998 185.992 139.354 185.829 139.795C185.667 140.236 185.586 140.711 185.586 141.222C185.586 141.732 185.667 142.206 185.829 142.643C185.992 143.081 186.242 143.434 186.58 143.702C186.918 143.971 187.349 144.105 187.873 144.105ZM192.424 145V137.364H193.558V138.557H193.657C193.816 138.149 194.073 137.833 194.428 137.607C194.782 137.379 195.208 137.264 195.705 137.264C196.209 137.264 196.628 137.379 196.963 137.607C197.301 137.833 197.565 138.149 197.754 138.557H197.833C198.029 138.162 198.322 137.849 198.713 137.617C199.104 137.382 199.573 137.264 200.12 137.264C200.803 137.264 201.361 137.478 201.796 137.906C202.23 138.33 202.447 138.991 202.447 139.889V145H201.273V139.889C201.273 139.326 201.119 138.923 200.811 138.681C200.503 138.439 200.14 138.318 199.722 138.318C199.185 138.318 198.769 138.481 198.474 138.805C198.18 139.127 198.032 139.535 198.032 140.028V145H196.839V139.77C196.839 139.336 196.698 138.986 196.416 138.721C196.135 138.452 195.772 138.318 195.327 138.318C195.023 138.318 194.738 138.399 194.472 138.562C194.211 138.724 193.998 138.95 193.836 139.238C193.677 139.523 193.597 139.853 193.597 140.227V145H192.424ZM207.094 145.159C206.358 145.159 205.723 144.997 205.19 144.672C204.659 144.344 204.25 143.886 203.962 143.3C203.677 142.71 203.534 142.024 203.534 141.241C203.534 140.459 203.677 139.77 203.962 139.173C204.25 138.573 204.651 138.106 205.165 137.771C205.682 137.433 206.285 137.264 206.974 137.264C207.372 137.264 207.765 137.33 208.153 137.463C208.54 137.596 208.893 137.811 209.212 138.109C209.53 138.404 209.783 138.795 209.972 139.283C210.161 139.77 210.256 140.37 210.256 141.082V141.58H204.369V140.565H209.062C209.062 140.134 208.976 139.75 208.804 139.412C208.635 139.074 208.393 138.807 208.078 138.612C207.767 138.416 207.399 138.318 206.974 138.318C206.507 138.318 206.103 138.434 205.761 138.666C205.423 138.895 205.163 139.193 204.981 139.561C204.799 139.929 204.707 140.323 204.707 140.744V141.42C204.707 141.997 204.807 142.486 205.006 142.887C205.208 143.285 205.488 143.588 205.846 143.797C206.204 144.002 206.62 144.105 207.094 144.105C207.402 144.105 207.68 144.062 207.929 143.976C208.181 143.886 208.398 143.754 208.58 143.578C208.763 143.399 208.903 143.177 209.003 142.912L210.136 143.23C210.017 143.615 209.817 143.953 209.535 144.244C209.253 144.533 208.905 144.758 208.491 144.92C208.076 145.08 207.611 145.159 207.094 145.159Z" fill="#0E9AFF"/>
<path d="M191.47 110.841C191.763 110.548 192.237 110.548 192.53 110.841L201.22 119.53C201.513 119.823 201.987 119.823 202.28 119.53C202.573 119.237 202.573 118.762 202.28 118.469L193.591 109.78C192.712 108.901 191.288 108.901 190.409 109.78L181.72 118.469C181.427 118.762 181.427 119.237 181.72 119.53C182.013 119.823 182.487 119.823 182.78 119.53L191.47 110.841Z" fill="#0E9AFF"/>
<path d="M192 112.432L200.159 120.591C200.189 120.621 200.219 120.649 200.25 120.677V126.875C200.25 127.91 199.411 128.75 198.375 128.75H195C194.586 128.75 194.25 128.414 194.25 128V123.5C194.25 123.086 193.914 122.75 193.5 122.75H190.5C190.086 122.75 189.75 123.086 189.75 123.5V128C189.75 128.414 189.414 128.75 189 128.75H185.625C184.589 128.75 183.75 127.91 183.75 126.875V120.677C183.781 120.649 183.811 120.621 183.841 120.591L192 112.432Z" fill="#0E9AFF"/>
<g clip-path="url(#clip1_99_481)">
<mask id="mask1_99_481" style="mask-type:luminance" maskUnits="userSpaceOnUse" x="178" y="38" width="28" height="28">
<path d="M205.813 38H178V65.8133H205.813V38Z" fill="white"/>
</mask>
<g mask="url(#mask1_99_481)">
<path fill-rule="evenodd" clip-rule="evenodd" d="M180.318 65.8133H193.066C193.37 65.8133 193.67 65.7536 193.95 65.6375C194.231 65.5214 194.485 65.3512 194.7 65.1367C195.133 64.7035 195.376 64.1159 195.376 63.5033V50.7482C195.376 50.1334 195.132 49.544 194.697 49.1093C194.262 48.6746 193.673 48.4303 193.058 48.43H190.74C190.125 48.4303 189.536 48.6746 189.101 49.1093C188.666 49.544 188.422 50.1334 188.422 50.7482V58.86H184.945V50.7482C184.945 50.1336 184.701 49.5441 184.267 49.1094C183.832 48.6747 183.243 48.4303 182.628 48.43H180.31C179.695 48.4303 179.106 48.6746 178.671 49.1093C178.236 49.544 177.992 50.1334 177.992 50.7482V63.4952C177.992 64.1079 178.236 64.6954 178.67 65.1285C178.885 65.3463 179.142 65.519 179.425 65.6366C179.708 65.7542 180.012 65.8143 180.318 65.8133ZM198.86 63.4952C198.86 64.1098 199.104 64.6993 199.538 65.134C199.973 65.5687 200.562 65.813 201.177 65.8133H203.495C204.11 65.813 204.699 65.5687 205.134 65.134C205.569 64.6994 205.813 64.1099 205.813 63.4952V61.1782C205.813 60.5634 205.569 59.974 205.134 59.5393C204.699 59.1046 204.11 58.8603 203.495 58.86H201.177C200.562 58.8603 199.973 59.1046 199.538 59.5393C199.104 59.974 198.86 60.5636 198.86 61.1782V63.4952ZM203.495 38H190.747C190.132 38.0003 189.543 38.2446 189.108 38.6793C188.673 39.114 188.429 39.7034 188.429 40.3182V42.6363C188.429 43.251 188.673 43.8405 189.108 44.2752C189.543 44.7099 190.132 44.9542 190.747 44.9545H198.859V53.0663C198.859 53.6809 199.103 54.2704 199.537 54.7051C199.972 55.1398 200.561 55.3841 201.176 55.3845H203.494C204.109 55.3841 204.698 55.1398 205.133 54.7051C205.567 54.2704 205.812 53.681 205.812 53.0663V40.3182C205.812 39.7056 205.568 39.1181 205.135 38.6848C204.921 38.468 204.665 38.2959 204.384 38.1783C204.102 38.0608 203.8 38.0002 203.495 38Z" fill="#0E9AFF"/>
</g>
</g>
</g>
<rect x="0.5" y="0.5" width="263" height="447" rx="7.5" stroke="white" stroke-opacity="0.1"/>
<defs>
<filter id="filter0_d_99_481" x="20" y="22" width="104" height="408" filterUnits="userSpaceOnUse" color-interpolation-filters="sRGB">
<feFlood flood-opacity="0" result="BackgroundImageFix"/>
<feColorMatrix in="SourceAlpha" type="matrix" values="0 0 0 0 0 0 0 0 0 0 0 0 0 0 0 0 0 0 127 0" result="hardAlpha"/>
<feOffset dy="2"/>
<feGaussianBlur stdDeviation="2"/>
<feComposite in2="hardAlpha" operator="out"/>
<feColorMatrix type="matrix" values="0 0 0 0 0.188235 0 0 0 0 0.188235 0 0 0 0 0.188235 0 0 0 0.17 0"/>
<feBlend mode="normal" in2="BackgroundImageFix" result="effect1_dropShadow_99_481"/>
<feBlend mode="normal" in="SourceGraphic" in2="effect1_dropShadow_99_481" result="shape"/>
</filter>
<filter id="filter1_d_99_481" x="140" y="22" width="104" height="408" filterUnits="userSpaceOnUse" color-interpolation-filters="sRGB">
<feFlood flood-opacity="0" result="BackgroundImageFix"/>
<feColorMatrix in="SourceAlpha" type="matrix" values="0 0 0 0 0 0 0 0 0 0 0 0 0 0 0 0 0 0 127 0" result="hardAlpha"/>
<feOffset dy="2"/>
<feGaussianBlur stdDeviation="2"/>
<feComposite in2="hardAlpha" operator="out"/>
<feColorMatrix type="matrix" values="0 0 0 0 0.188235 0 0 0 0 0.188235 0 0 0 0 0.188235 0 0 0 0.17 0"/>
<feBlend mode="normal" in2="BackgroundImageFix" result="effect1_dropShadow_99_481"/>
<feBlend mode="normal" in="SourceGraphic" in2="effect1_dropShadow_99_481" result="shape"/>
</filter>
<clipPath id="clip0_99_481">
<rect width="28" height="28" fill="white" transform="translate(58 38)"/>
</clipPath>
<clipPath id="clip1_99_481">
<rect width="28" height="28" fill="white" transform="translate(178 38)"/>
</clipPath>
</defs>
</svg>
