<svg width="554" height="448" viewBox="0 0 554 448" fill="none" xmlns="http://www.w3.org/2000/svg">
<rect width="554" height="448" rx="8" fill="#F0F0F0"/>
<g filter="url(#filter0_d_97_3)">
<rect x="24" y="24" width="72" height="400" rx="16" fill="#FEFEFE" shape-rendering="crispEdges"/>
<rect x="36" y="362" width="48" height="48" rx="12" fill="white"/>
<path fill-rule="evenodd" clip-rule="evenodd" d="M59.078 376.25C58.1614 376.25 57.3792 376.913 57.2285 377.817L57.0499 378.889C57.0297 379.01 56.9355 379.15 56.7532 379.237C56.4092 379.403 56.0798 379.594 55.7675 379.808C55.601 379.922 55.4327 379.933 55.3178 379.89L54.2986 379.508C53.4403 379.187 52.4753 379.533 52.017 380.327L51.0951 381.924C50.6368 382.717 50.8195 383.726 51.5272 384.309L52.3677 385.001C52.4623 385.078 52.5364 385.23 52.5213 385.431C52.5072 385.619 52.5 385.809 52.5 386C52.5 386.191 52.5072 386.381 52.5213 386.569C52.5364 386.77 52.4623 386.922 52.3677 387L51.5272 387.692C50.8195 388.274 50.6368 389.283 51.0951 390.077L52.017 391.674C52.4753 392.467 53.4403 392.813 54.2986 392.492L55.318 392.11C55.4329 392.067 55.6013 392.079 55.7677 392.192C56.0799 392.406 56.4093 392.597 56.7532 392.763C56.9355 392.85 57.0297 392.99 57.0499 393.111L57.2285 394.183C57.3792 395.087 58.1614 395.75 59.078 395.75H60.922C61.8385 395.75 62.6208 395.087 62.7714 394.183L62.9501 393.111C62.9703 392.99 63.0644 392.85 63.2467 392.763C63.5908 392.597 63.9202 392.406 64.2325 392.192C64.3989 392.078 64.5673 392.067 64.6822 392.11L65.7013 392.492C66.5597 392.813 67.5247 392.467 67.9829 391.673L68.9049 390.076C69.3632 389.283 69.1805 388.274 68.4728 387.691L67.6323 386.999C67.5377 386.922 67.4636 386.77 67.4787 386.569C67.4928 386.381 67.5 386.191 67.5 386C67.5 385.809 67.4928 385.619 67.4786 385.431C67.4635 385.23 67.5376 385.078 67.6323 385L68.4728 384.308C69.1805 383.726 69.3632 382.717 68.9049 381.923L67.9829 380.326C67.5247 379.533 66.5597 379.187 65.7013 379.508L64.6819 379.89C64.567 379.933 64.3987 379.921 64.2322 379.807C63.92 379.594 63.5907 379.403 63.2467 379.237C63.0644 379.15 62.9703 379.01 62.9501 378.889L62.7714 377.817C62.6208 376.913 61.8385 376.25 60.922 376.25H59.078ZM60.0001 389.75C62.0712 389.75 63.7501 388.071 63.7501 386C63.7501 383.929 62.0712 382.25 60.0001 382.25C57.9291 382.25 56.2501 383.929 56.2501 386C56.2501 388.071 57.9291 389.75 60.0001 389.75Z" fill="#303030"/>
<rect x="36" y="210" width="48" height="48" rx="12" fill="white"/>
<path fill-rule="evenodd" clip-rule="evenodd" d="M55.5 228C55.5 225.515 57.5147 223.5 60 223.5C62.4852 223.5 64.5 225.515 64.5 228C64.5 230.485 62.4852 232.5 60 232.5C57.5147 232.5 55.5 230.485 55.5 228Z" fill="#303030"/>
<path fill-rule="evenodd" clip-rule="evenodd" d="M51.7511 242.105C51.8284 237.616 55.4918 234 59.9999 234C64.508 234 68.1715 237.616 68.2486 242.106C68.2537 242.403 68.0822 242.676 67.8115 242.8C65.4326 243.892 62.7864 244.5 60.0002 244.5C57.2137 244.5 54.5673 243.892 52.1882 242.8C51.9175 242.676 51.746 242.403 51.7511 242.105Z" fill="#303030"/>
<rect x="36" y="154" width="48" height="48" rx="12" fill="white"/>
<path d="M49.5 174.669V183.25C49.5 184.907 50.8432 186.25 52.5 186.25H67.5C69.1569 186.25 70.5 184.907 70.5 183.25V174.669L61.5723 180.163C60.6081 180.756 59.3919 180.756 58.4277 180.163L49.5 174.669Z" fill="#303030"/>
<path d="M70.5 172.908V172.75C70.5 171.093 69.1569 169.75 67.5 169.75H52.5C50.8432 169.75 49.5 171.093 49.5 172.75V172.908L59.2139 178.886C59.696 179.182 60.304 179.182 60.7861 178.886L70.5 172.908Z" fill="#303030"/>
<rect x="88" y="108" width="53" height="29" rx="8" fill="#303030"/>
<path d="M97.2664 128V117.818H98.4993V122.352H103.928V117.818H105.161V128H103.928V123.446H98.4993V128H97.2664ZM109.873 128.159C109.183 128.159 108.579 127.995 108.058 127.667C107.541 127.339 107.137 126.88 106.845 126.29C106.557 125.7 106.413 125.01 106.413 124.222C106.413 123.426 106.557 122.732 106.845 122.138C107.137 121.545 107.541 121.085 108.058 120.756C108.579 120.428 109.183 120.264 109.873 120.264C110.562 120.264 111.165 120.428 111.682 120.756C112.203 121.085 112.607 121.545 112.896 122.138C113.187 122.732 113.333 123.426 113.333 124.222C113.333 125.01 113.187 125.7 112.896 126.29C112.607 126.88 112.203 127.339 111.682 127.667C111.165 127.995 110.562 128.159 109.873 128.159ZM109.873 127.105C110.396 127.105 110.827 126.971 111.165 126.702C111.503 126.434 111.754 126.081 111.916 125.643C112.079 125.206 112.16 124.732 112.16 124.222C112.16 123.711 112.079 123.236 111.916 122.795C111.754 122.354 111.503 121.998 111.165 121.726C110.827 121.454 110.396 121.318 109.873 121.318C109.349 121.318 108.918 121.454 108.58 121.726C108.242 121.998 107.992 122.354 107.829 122.795C107.667 123.236 107.586 123.711 107.586 124.222C107.586 124.732 107.667 125.206 107.829 125.643C107.992 126.081 108.242 126.434 108.58 126.702C108.918 126.971 109.349 127.105 109.873 127.105ZM114.424 128V120.364H115.558V121.557H115.657C115.816 121.149 116.073 120.833 116.428 120.607C116.782 120.379 117.208 120.264 117.705 120.264C118.209 120.264 118.628 120.379 118.963 120.607C119.301 120.833 119.565 121.149 119.754 121.557H119.833C120.029 121.162 120.322 120.849 120.713 120.617C121.104 120.382 121.573 120.264 122.12 120.264C122.803 120.264 123.361 120.478 123.796 120.906C124.23 121.33 124.447 121.991 124.447 122.889V128H123.273V122.889C123.273 122.326 123.119 121.923 122.811 121.681C122.503 121.439 122.14 121.318 121.722 121.318C121.185 121.318 120.769 121.481 120.474 121.805C120.18 122.127 120.032 122.535 120.032 123.028V128H118.839V122.77C118.839 122.336 118.698 121.986 118.416 121.721C118.135 121.452 117.772 121.318 117.327 121.318C117.023 121.318 116.738 121.399 116.472 121.562C116.211 121.724 115.998 121.95 115.836 122.238C115.677 122.523 115.597 122.853 115.597 123.227V128H114.424ZM129.094 128.159C128.358 128.159 127.723 127.997 127.19 127.672C126.659 127.344 126.25 126.886 125.962 126.3C125.677 125.71 125.534 125.024 125.534 124.241C125.534 123.459 125.677 122.77 125.962 122.173C126.25 121.573 126.651 121.106 127.165 120.771C127.682 120.433 128.285 120.264 128.974 120.264C129.372 120.264 129.765 120.33 130.153 120.463C130.54 120.596 130.893 120.811 131.212 121.109C131.53 121.404 131.783 121.795 131.972 122.283C132.161 122.77 132.256 123.37 132.256 124.082V124.58H126.369V123.565H131.062C131.062 123.134 130.976 122.75 130.804 122.412C130.635 122.074 130.393 121.807 130.078 121.612C129.767 121.416 129.399 121.318 128.974 121.318C128.507 121.318 128.103 121.434 127.761 121.666C127.423 121.895 127.163 122.193 126.981 122.561C126.799 122.929 126.707 123.323 126.707 123.744V124.42C126.707 124.997 126.807 125.486 127.006 125.887C127.208 126.285 127.488 126.588 127.846 126.797C128.204 127.002 128.62 127.105 129.094 127.105C129.402 127.105 129.68 127.062 129.929 126.976C130.181 126.886 130.398 126.754 130.58 126.578C130.763 126.399 130.903 126.177 131.003 125.912L132.136 126.23C132.017 126.615 131.817 126.953 131.535 127.244C131.253 127.533 130.905 127.758 130.491 127.92C130.076 128.08 129.611 128.159 129.094 128.159Z" fill="white"/>
<rect x="36" y="98" width="48" height="48" rx="12" fill="#567FEF"/>
<path d="M59.4697 112.841C59.7626 112.548 60.2374 112.548 60.5303 112.841L69.2197 121.53C69.5126 121.823 69.9874 121.823 70.2803 121.53C70.5732 121.237 70.5732 120.762 70.2803 120.469L61.591 111.78C60.7123 110.901 59.2877 110.901 58.409 111.78L49.7197 120.469C49.4268 120.762 49.4268 121.237 49.7197 121.53C50.0126 121.823 50.4874 121.823 50.7803 121.53L59.4697 112.841Z" fill="white"/>
<path d="M60 114.432L68.159 122.591C68.1887 122.621 68.2191 122.649 68.25 122.677V128.875C68.25 129.91 67.4105 130.75 66.375 130.75H63C62.5858 130.75 62.25 130.414 62.25 130V125.5C62.25 125.086 61.9142 124.75 61.5 124.75H58.5C58.0858 124.75 57.75 125.086 57.75 125.5V130C57.75 130.414 57.4142 130.75 57 130.75H53.625C52.5895 130.75 51.75 129.91 51.75 128.875V122.677C51.7809 122.649 51.8113 122.621 51.841 122.591L60 114.432Z" fill="white"/>
<g clip-path="url(#clip0_97_3)">
<mask id="mask0_97_3" style="mask-type:luminance" maskUnits="userSpaceOnUse" x="45" y="38" width="28" height="28">
<path d="M72.8133 38H45V65.8133H72.8133V38Z" fill="white"/>
</mask>
<g mask="url(#mask0_97_3)">
<path fill-rule="evenodd" clip-rule="evenodd" d="M47.3185 65.8133H60.0667C60.3701 65.8133 60.6704 65.7536 60.9506 65.6375C61.231 65.5214 61.4857 65.3512 61.7001 65.1367C62.1333 64.7035 62.3767 64.1159 62.3767 63.5033V50.7482C62.3764 50.1334 62.132 49.544 61.6973 49.1093C61.2627 48.6746 60.6733 48.4303 60.0586 48.43H57.7403C57.1256 48.4303 56.5363 48.6746 56.1016 49.1093C55.6669 49.544 55.4226 50.1334 55.4223 50.7482V58.86H51.9456V50.7482C51.9456 50.1336 51.7015 49.5441 51.267 49.1094C50.8325 48.6747 50.2431 48.4303 49.6285 48.43H47.3104C46.6957 48.4303 46.1062 48.6746 45.6715 49.1093C45.2368 49.544 44.9925 50.1334 44.9922 50.7482V63.4952C44.9927 64.1079 45.2365 64.6954 45.6701 65.1285C45.8857 65.3463 46.1424 65.519 46.4255 65.6366C46.7085 65.7542 47.0121 65.8143 47.3185 65.8133ZM65.8604 63.4952C65.8604 64.1098 66.1044 64.6993 66.5389 65.134C66.9734 65.5687 67.5628 65.813 68.1774 65.8133H70.4955C71.1102 65.813 71.6997 65.5687 72.1344 65.134C72.5691 64.6994 72.8134 64.1099 72.8138 63.4952V61.1782C72.8134 60.5634 72.5691 59.974 72.1344 59.5393C71.6997 59.1046 71.1102 58.8603 70.4955 58.86H68.1774C67.5628 58.8603 66.9734 59.1046 66.5389 59.5393C66.1044 59.974 65.8604 60.5636 65.8604 61.1782V63.4952ZM70.4955 38H57.7473C57.1326 38.0003 56.5432 38.2446 56.1086 38.6793C55.6739 39.114 55.4296 39.7034 55.4292 40.3182V42.6363C55.4296 43.251 55.6739 43.8405 56.1086 44.2752C56.5432 44.7099 57.1326 44.9542 57.7473 44.9545H65.8592V53.0663C65.8592 53.6809 66.1033 54.2704 66.5378 54.7051C66.9723 55.1398 67.5617 55.3841 68.1763 55.3845H70.4943C71.109 55.3841 71.6986 55.1398 72.1333 54.7051C72.568 54.2704 72.8123 53.681 72.8126 53.0663V40.3182C72.8124 39.7056 72.5689 39.1181 72.1358 38.6848C71.9212 38.468 71.6657 38.2959 71.3841 38.1783C71.1026 38.0608 70.8006 38.0002 70.4955 38Z" fill="#567FEF"/>
</g>
</g>
</g>
<g filter="url(#filter1_d_97_3)">
<rect x="153" y="24" width="72" height="400" rx="16" fill="#FEFEFE" shape-rendering="crispEdges"/>
<rect x="165" y="362" width="48" height="48" rx="12" fill="white"/>
<path fill-rule="evenodd" clip-rule="evenodd" d="M188.078 376.25C187.161 376.25 186.379 376.913 186.229 377.817L186.05 378.889C186.03 379.01 185.936 379.15 185.753 379.237C185.409 379.403 185.08 379.594 184.768 379.808C184.601 379.922 184.433 379.933 184.318 379.89L183.299 379.508C182.44 379.187 181.475 379.533 181.017 380.327L180.095 381.924C179.637 382.717 179.82 383.726 180.527 384.309L181.368 385.001C181.462 385.078 181.536 385.23 181.521 385.431C181.507 385.619 181.5 385.809 181.5 386C181.5 386.191 181.507 386.381 181.521 386.569C181.536 386.77 181.462 386.922 181.368 387L180.527 387.692C179.82 388.274 179.637 389.283 180.095 390.077L181.017 391.674C181.475 392.467 182.44 392.813 183.299 392.492L184.318 392.11C184.433 392.067 184.601 392.079 184.768 392.192C185.08 392.406 185.409 392.597 185.753 392.763C185.936 392.85 186.03 392.99 186.05 393.111L186.229 394.183C186.379 395.087 187.161 395.75 188.078 395.75H189.922C190.839 395.75 191.621 395.087 191.771 394.183L191.95 393.111C191.97 392.99 192.064 392.85 192.247 392.763C192.591 392.597 192.92 392.406 193.233 392.192C193.399 392.078 193.567 392.067 193.682 392.11L194.701 392.492C195.56 392.813 196.525 392.467 196.983 391.673L197.905 390.076C198.363 389.283 198.181 388.274 197.473 387.691L196.632 386.999C196.538 386.922 196.464 386.77 196.479 386.569C196.493 386.381 196.5 386.191 196.5 386C196.5 385.809 196.493 385.619 196.479 385.431C196.464 385.23 196.538 385.078 196.632 385L197.473 384.308C198.181 383.726 198.363 382.717 197.905 381.923L196.983 380.326C196.525 379.533 195.56 379.187 194.701 379.508L193.682 379.89C193.567 379.933 193.399 379.921 193.232 379.807C192.92 379.594 192.591 379.403 192.247 379.237C192.064 379.15 191.97 379.01 191.95 378.889L191.771 377.817C191.621 376.913 190.839 376.25 189.922 376.25H188.078ZM189 389.75C191.071 389.75 192.75 388.071 192.75 386C192.75 383.929 191.071 382.25 189 382.25C186.929 382.25 185.25 383.929 185.25 386C185.25 388.071 186.929 389.75 189 389.75Z" fill="#567FEF"/>
<rect x="165" y="210" width="48" height="48" rx="12" fill="white"/>
<path fill-rule="evenodd" clip-rule="evenodd" d="M184.5 228C184.5 225.515 186.515 223.5 189 223.5C191.485 223.5 193.5 225.515 193.5 228C193.5 230.485 191.485 232.5 189 232.5C186.515 232.5 184.5 230.485 184.5 228Z" fill="#567FEF"/>
<path fill-rule="evenodd" clip-rule="evenodd" d="M180.751 242.105C180.828 237.616 184.492 234 189 234C193.508 234 197.171 237.616 197.249 242.106C197.254 242.403 197.082 242.676 196.811 242.8C194.433 243.892 191.786 244.5 189 244.5C186.214 244.5 183.567 243.892 181.188 242.8C180.917 242.676 180.746 242.403 180.751 242.105Z" fill="#567FEF"/>
<rect x="165" y="154" width="48" height="48" rx="12" fill="white"/>
<path d="M178.5 174.669V183.25C178.5 184.907 179.843 186.25 181.5 186.25H196.5C198.157 186.25 199.5 184.907 199.5 183.25V174.669L190.572 180.163C189.608 180.756 188.392 180.756 187.428 180.163L178.5 174.669Z" fill="#567FEF"/>
<path d="M199.5 172.908V172.75C199.5 171.093 198.157 169.75 196.5 169.75H181.5C179.843 169.75 178.5 171.093 178.5 172.75V172.908L188.214 178.886C188.696 179.182 189.304 179.182 189.786 178.886L199.5 172.908Z" fill="#567FEF"/>
<rect x="217" y="108" width="53" height="29" rx="8" fill="#303030"/>
<path d="M226.266 128V117.818H227.499V122.352H232.928V117.818H234.161V128H232.928V123.446H227.499V128H226.266ZM238.873 128.159C238.183 128.159 237.579 127.995 237.058 127.667C236.541 127.339 236.137 126.88 235.845 126.29C235.557 125.7 235.413 125.01 235.413 124.222C235.413 123.426 235.557 122.732 235.845 122.138C236.137 121.545 236.541 121.085 237.058 120.756C237.579 120.428 238.183 120.264 238.873 120.264C239.562 120.264 240.165 120.428 240.682 120.756C241.203 121.085 241.607 121.545 241.896 122.138C242.187 122.732 242.333 123.426 242.333 124.222C242.333 125.01 242.187 125.7 241.896 126.29C241.607 126.88 241.203 127.339 240.682 127.667C240.165 127.995 239.562 128.159 238.873 128.159ZM238.873 127.105C239.396 127.105 239.827 126.971 240.165 126.702C240.503 126.434 240.754 126.081 240.916 125.643C241.079 125.206 241.16 124.732 241.16 124.222C241.16 123.711 241.079 123.236 240.916 122.795C240.754 122.354 240.503 121.998 240.165 121.726C239.827 121.454 239.396 121.318 238.873 121.318C238.349 121.318 237.918 121.454 237.58 121.726C237.242 121.998 236.992 122.354 236.829 122.795C236.667 123.236 236.586 123.711 236.586 124.222C236.586 124.732 236.667 125.206 236.829 125.643C236.992 126.081 237.242 126.434 237.58 126.702C237.918 126.971 238.349 127.105 238.873 127.105ZM243.424 128V120.364H244.558V121.557H244.657C244.816 121.149 245.073 120.833 245.428 120.607C245.782 120.379 246.208 120.264 246.705 120.264C247.209 120.264 247.628 120.379 247.963 120.607C248.301 120.833 248.565 121.149 248.754 121.557H248.833C249.029 121.162 249.322 120.849 249.713 120.617C250.104 120.382 250.573 120.264 251.12 120.264C251.803 120.264 252.361 120.478 252.796 120.906C253.23 121.33 253.447 121.991 253.447 122.889V128H252.273V122.889C252.273 122.326 252.119 121.923 251.811 121.681C251.503 121.439 251.14 121.318 250.722 121.318C250.185 121.318 249.769 121.481 249.474 121.805C249.18 122.127 249.032 122.535 249.032 123.028V128H247.839V122.77C247.839 122.336 247.698 121.986 247.416 121.721C247.135 121.452 246.772 121.318 246.327 121.318C246.023 121.318 245.738 121.399 245.472 121.562C245.211 121.724 244.998 121.95 244.836 122.238C244.677 122.523 244.597 122.853 244.597 123.227V128H243.424ZM258.094 128.159C257.358 128.159 256.723 127.997 256.19 127.672C255.659 127.344 255.25 126.886 254.962 126.3C254.677 125.71 254.534 125.024 254.534 124.241C254.534 123.459 254.677 122.77 254.962 122.173C255.25 121.573 255.651 121.106 256.165 120.771C256.682 120.433 257.285 120.264 257.974 120.264C258.372 120.264 258.765 120.33 259.153 120.463C259.54 120.596 259.893 120.811 260.212 121.109C260.53 121.404 260.783 121.795 260.972 122.283C261.161 122.77 261.256 123.37 261.256 124.082V124.58H255.369V123.565H260.062C260.062 123.134 259.976 122.75 259.804 122.412C259.635 122.074 259.393 121.807 259.078 121.612C258.767 121.416 258.399 121.318 257.974 121.318C257.507 121.318 257.103 121.434 256.761 121.666C256.423 121.895 256.163 122.193 255.981 122.561C255.799 122.929 255.707 123.323 255.707 123.744V124.42C255.707 124.997 255.807 125.486 256.006 125.887C256.208 126.285 256.488 126.588 256.846 126.797C257.204 127.002 257.62 127.105 258.094 127.105C258.402 127.105 258.68 127.062 258.929 126.976C259.181 126.886 259.398 126.754 259.58 126.578C259.763 126.399 259.903 126.177 260.003 125.912L261.136 126.23C261.017 126.615 260.817 126.953 260.535 127.244C260.253 127.533 259.905 127.758 259.491 127.92C259.076 128.08 258.611 128.159 258.094 128.159Z" fill="white"/>
<rect x="165" y="98" width="48" height="48" rx="24" fill="#567FEF"/>
<path d="M188.47 112.841C188.763 112.548 189.237 112.548 189.53 112.841L198.22 121.53C198.513 121.823 198.987 121.823 199.28 121.53C199.573 121.237 199.573 120.762 199.28 120.469L190.591 111.78C189.712 110.901 188.288 110.901 187.409 111.78L178.72 120.469C178.427 120.762 178.427 121.237 178.72 121.53C179.013 121.823 179.487 121.823 179.78 121.53L188.47 112.841Z" fill="white"/>
<path d="M189 114.432L197.159 122.591C197.189 122.621 197.219 122.649 197.25 122.677V128.875C197.25 129.91 196.41 130.75 195.375 130.75H192C191.586 130.75 191.25 130.414 191.25 130V125.5C191.25 125.086 190.914 124.75 190.5 124.75H187.5C187.086 124.75 186.75 125.086 186.75 125.5V130C186.75 130.414 186.414 130.75 186 130.75H182.625C181.589 130.75 180.75 129.91 180.75 128.875V122.677C180.781 122.649 180.811 122.621 180.841 122.591L189 114.432Z" fill="white"/>
<g clip-path="url(#clip1_97_3)">
<mask id="mask1_97_3" style="mask-type:luminance" maskUnits="userSpaceOnUse" x="174" y="38" width="28" height="28">
<path d="M201.813 38H174V65.8133H201.813V38Z" fill="white"/>
</mask>
<g mask="url(#mask1_97_3)">
<path fill-rule="evenodd" clip-rule="evenodd" d="M176.319 65.8133H189.067C189.37 65.8133 189.67 65.7536 189.951 65.6375C190.231 65.5214 190.486 65.3512 190.7 65.1367C191.133 64.7035 191.377 64.1159 191.377 63.5033V50.7482C191.376 50.1334 191.132 49.544 190.697 49.1093C190.263 48.6746 189.673 48.4303 189.059 48.43H186.74C186.126 48.4303 185.536 48.6746 185.102 49.1093C184.667 49.544 184.423 50.1334 184.422 50.7482V58.86H180.946V50.7482C180.946 50.1336 180.702 49.5441 180.267 49.1094C179.833 48.6747 179.243 48.4303 178.629 48.43H176.31C175.696 48.4303 175.106 48.6746 174.672 49.1093C174.237 49.544 173.992 50.1334 173.992 50.7482V63.4952C173.993 64.1079 174.237 64.6954 174.67 65.1285C174.886 65.3463 175.142 65.519 175.425 65.6366C175.708 65.7542 176.012 65.8143 176.319 65.8133ZM194.86 63.4952C194.86 64.1098 195.104 64.6993 195.539 65.134C195.973 65.5687 196.563 65.813 197.177 65.8133H199.495C200.11 65.813 200.7 65.5687 201.134 65.134C201.569 64.6994 201.813 64.1099 201.814 63.4952V61.1782C201.813 60.5634 201.569 59.974 201.134 59.5393C200.7 59.1046 200.11 58.8603 199.495 58.86H197.177C196.563 58.8603 195.973 59.1046 195.539 59.5393C195.104 59.974 194.86 60.5636 194.86 61.1782V63.4952ZM199.495 38H186.747C186.133 38.0003 185.543 38.2446 185.109 38.6793C184.674 39.114 184.43 39.7034 184.429 40.3182V42.6363C184.43 43.251 184.674 43.8405 185.109 44.2752C185.543 44.7099 186.133 44.9542 186.747 44.9545H194.859V53.0663C194.859 53.6809 195.103 54.2704 195.538 54.7051C195.972 55.1398 196.562 55.3841 197.176 55.3845H199.494C200.109 55.3841 200.699 55.1398 201.133 54.7051C201.568 54.2704 201.812 53.681 201.813 53.0663V40.3182C201.812 39.7056 201.569 39.1181 201.136 38.6848C200.921 38.468 200.666 38.2959 200.384 38.1783C200.103 38.0608 199.801 38.0002 199.495 38Z" fill="#567FEF"/>
</g>
</g>
</g>
<g filter="url(#filter2_d_97_3)">
<rect x="282" y="24" width="72" height="400" rx="16" fill="#FEFEFE" shape-rendering="crispEdges"/>
<rect x="294" y="362" width="48" height="48" rx="12" fill="white"/>
<path fill-rule="evenodd" clip-rule="evenodd" d="M317.078 376.25C316.161 376.25 315.379 376.913 315.229 377.817L315.05 378.889C315.03 379.01 314.936 379.15 314.753 379.237C314.409 379.403 314.08 379.594 313.768 379.808C313.601 379.922 313.433 379.933 313.318 379.89L312.299 379.508C311.44 379.187 310.475 379.533 310.017 380.327L309.095 381.924C308.637 382.717 308.82 383.726 309.527 384.309L310.368 385.001C310.462 385.078 310.536 385.23 310.521 385.431C310.507 385.619 310.5 385.809 310.5 386C310.5 386.191 310.507 386.381 310.521 386.569C310.536 386.77 310.462 386.922 310.368 387L309.527 387.692C308.82 388.274 308.637 389.283 309.095 390.077L310.017 391.674C310.475 392.467 311.44 392.813 312.299 392.492L313.318 392.11C313.433 392.067 313.601 392.079 313.768 392.192C314.08 392.406 314.409 392.597 314.753 392.763C314.936 392.85 315.03 392.99 315.05 393.111L315.229 394.183C315.379 395.087 316.161 395.75 317.078 395.75H318.922C319.839 395.75 320.621 395.087 320.771 394.183L320.95 393.111C320.97 392.99 321.064 392.85 321.247 392.763C321.591 392.597 321.92 392.406 322.233 392.192C322.399 392.078 322.567 392.067 322.682 392.11L323.701 392.492C324.56 392.813 325.525 392.467 325.983 391.673L326.905 390.076C327.363 389.283 327.181 388.274 326.473 387.691L325.632 386.999C325.538 386.922 325.464 386.77 325.479 386.569C325.493 386.381 325.5 386.191 325.5 386C325.5 385.809 325.493 385.619 325.479 385.431C325.464 385.23 325.538 385.078 325.632 385L326.473 384.308C327.181 383.726 327.363 382.717 326.905 381.923L325.983 380.326C325.525 379.533 324.56 379.187 323.701 379.508L322.682 379.89C322.567 379.933 322.399 379.921 322.232 379.807C321.92 379.594 321.591 379.403 321.247 379.237C321.064 379.15 320.97 379.01 320.95 378.889L320.771 377.817C320.621 376.913 319.839 376.25 318.922 376.25H317.078ZM318 389.75C320.071 389.75 321.75 388.071 321.75 386C321.75 383.929 320.071 382.25 318 382.25C315.929 382.25 314.25 383.929 314.25 386C314.25 388.071 315.929 389.75 318 389.75Z" fill="#303030"/>
<rect x="294" y="210" width="48" height="48" rx="12" fill="white"/>
<path fill-rule="evenodd" clip-rule="evenodd" d="M313.5 228C313.5 225.515 315.515 223.5 318 223.5C320.485 223.5 322.5 225.515 322.5 228C322.5 230.485 320.485 232.5 318 232.5C315.515 232.5 313.5 230.485 313.5 228Z" fill="#303030"/>
<path fill-rule="evenodd" clip-rule="evenodd" d="M309.751 242.105C309.828 237.616 313.492 234 318 234C322.508 234 326.171 237.616 326.249 242.106C326.254 242.403 326.082 242.676 325.811 242.8C323.433 243.892 320.786 244.5 318 244.5C315.214 244.5 312.567 243.892 310.188 242.8C309.917 242.676 309.746 242.403 309.751 242.105Z" fill="#303030"/>
<rect x="294" y="154" width="48" height="48" rx="12" fill="white"/>
<path d="M307.5 174.669V183.25C307.5 184.907 308.843 186.25 310.5 186.25H325.5C327.157 186.25 328.5 184.907 328.5 183.25V174.669L319.572 180.163C318.608 180.756 317.392 180.756 316.428 180.163L307.5 174.669Z" fill="#303030"/>
<path d="M328.5 172.908V172.75C328.5 171.093 327.157 169.75 325.5 169.75H310.5C308.843 169.75 307.5 171.093 307.5 172.75V172.908L317.214 178.886C317.696 179.182 318.304 179.182 318.786 178.886L328.5 172.908Z" fill="#303030"/>
<rect x="346" y="108" width="53" height="29" rx="8" fill="#303030"/>
<path d="M355.266 128V117.818H356.499V122.352H361.928V117.818H363.161V128H361.928V123.446H356.499V128H355.266ZM367.873 128.159C367.183 128.159 366.579 127.995 366.058 127.667C365.541 127.339 365.137 126.88 364.845 126.29C364.557 125.7 364.413 125.01 364.413 124.222C364.413 123.426 364.557 122.732 364.845 122.138C365.137 121.545 365.541 121.085 366.058 120.756C366.579 120.428 367.183 120.264 367.873 120.264C368.562 120.264 369.165 120.428 369.682 120.756C370.203 121.085 370.607 121.545 370.896 122.138C371.187 122.732 371.333 123.426 371.333 124.222C371.333 125.01 371.187 125.7 370.896 126.29C370.607 126.88 370.203 127.339 369.682 127.667C369.165 127.995 368.562 128.159 367.873 128.159ZM367.873 127.105C368.396 127.105 368.827 126.971 369.165 126.702C369.503 126.434 369.754 126.081 369.916 125.643C370.079 125.206 370.16 124.732 370.16 124.222C370.16 123.711 370.079 123.236 369.916 122.795C369.754 122.354 369.503 121.998 369.165 121.726C368.827 121.454 368.396 121.318 367.873 121.318C367.349 121.318 366.918 121.454 366.58 121.726C366.242 121.998 365.992 122.354 365.829 122.795C365.667 123.236 365.586 123.711 365.586 124.222C365.586 124.732 365.667 125.206 365.829 125.643C365.992 126.081 366.242 126.434 366.58 126.702C366.918 126.971 367.349 127.105 367.873 127.105ZM372.424 128V120.364H373.558V121.557H373.657C373.816 121.149 374.073 120.833 374.428 120.607C374.782 120.379 375.208 120.264 375.705 120.264C376.209 120.264 376.628 120.379 376.963 120.607C377.301 120.833 377.565 121.149 377.754 121.557H377.833C378.029 121.162 378.322 120.849 378.713 120.617C379.104 120.382 379.573 120.264 380.12 120.264C380.803 120.264 381.361 120.478 381.796 120.906C382.23 121.33 382.447 121.991 382.447 122.889V128H381.273V122.889C381.273 122.326 381.119 121.923 380.811 121.681C380.503 121.439 380.14 121.318 379.722 121.318C379.185 121.318 378.769 121.481 378.474 121.805C378.18 122.127 378.032 122.535 378.032 123.028V128H376.839V122.77C376.839 122.336 376.698 121.986 376.416 121.721C376.135 121.452 375.772 121.318 375.327 121.318C375.023 121.318 374.738 121.399 374.472 121.562C374.211 121.724 373.998 121.95 373.836 122.238C373.677 122.523 373.597 122.853 373.597 123.227V128H372.424ZM387.094 128.159C386.358 128.159 385.723 127.997 385.19 127.672C384.659 127.344 384.25 126.886 383.962 126.3C383.677 125.71 383.534 125.024 383.534 124.241C383.534 123.459 383.677 122.77 383.962 122.173C384.25 121.573 384.651 121.106 385.165 120.771C385.682 120.433 386.285 120.264 386.974 120.264C387.372 120.264 387.765 120.33 388.153 120.463C388.54 120.596 388.893 120.811 389.212 121.109C389.53 121.404 389.783 121.795 389.972 122.283C390.161 122.77 390.256 123.37 390.256 124.082V124.58H384.369V123.565H389.062C389.062 123.134 388.976 122.75 388.804 122.412C388.635 122.074 388.393 121.807 388.078 121.612C387.767 121.416 387.399 121.318 386.974 121.318C386.507 121.318 386.103 121.434 385.761 121.666C385.423 121.895 385.163 122.193 384.981 122.561C384.799 122.929 384.707 123.323 384.707 123.744V124.42C384.707 124.997 384.807 125.486 385.006 125.887C385.208 126.285 385.488 126.588 385.846 126.797C386.204 127.002 386.62 127.105 387.094 127.105C387.402 127.105 387.68 127.062 387.929 126.976C388.181 126.886 388.398 126.754 388.58 126.578C388.763 126.399 388.903 126.177 389.003 125.912L390.136 126.23C390.017 126.615 389.817 126.953 389.535 127.244C389.253 127.533 388.905 127.758 388.491 127.92C388.076 128.08 387.611 128.159 387.094 128.159Z" fill="white"/>
<rect x="295" y="99" width="46" height="46" rx="11" fill="white" stroke="#567FEF" stroke-width="2"/>
<path d="M317.47 112.841C317.763 112.548 318.237 112.548 318.53 112.841L327.22 121.53C327.513 121.823 327.987 121.823 328.28 121.53C328.573 121.237 328.573 120.762 328.28 120.469L319.591 111.78C318.712 110.901 317.288 110.901 316.409 111.78L307.72 120.469C307.427 120.762 307.427 121.237 307.72 121.53C308.013 121.823 308.487 121.823 308.78 121.53L317.47 112.841Z" fill="#567FEF"/>
<path d="M318 114.432L326.159 122.591C326.189 122.621 326.219 122.649 326.25 122.677V128.875C326.25 129.91 325.41 130.75 324.375 130.75H321C320.586 130.75 320.25 130.414 320.25 130V125.5C320.25 125.086 319.914 124.75 319.5 124.75H316.5C316.086 124.75 315.75 125.086 315.75 125.5V130C315.75 130.414 315.414 130.75 315 130.75H311.625C310.589 130.75 309.75 129.91 309.75 128.875V122.677C309.781 122.649 309.811 122.621 309.841 122.591L318 114.432Z" fill="#567FEF"/>
<g clip-path="url(#clip2_97_3)">
<mask id="mask2_97_3" style="mask-type:luminance" maskUnits="userSpaceOnUse" x="303" y="38" width="28" height="28">
<path d="M330.813 38H303V65.8133H330.813V38Z" fill="white"/>
</mask>
<g mask="url(#mask2_97_3)">
<path fill-rule="evenodd" clip-rule="evenodd" d="M305.319 65.8133H318.067C318.37 65.8133 318.67 65.7536 318.951 65.6375C319.231 65.5214 319.486 65.3512 319.7 65.1367C320.133 64.7035 320.377 64.1159 320.377 63.5033V50.7482C320.376 50.1334 320.132 49.544 319.697 49.1093C319.263 48.6746 318.673 48.4303 318.059 48.43H315.74C315.126 48.4303 314.536 48.6746 314.102 49.1093C313.667 49.544 313.423 50.1334 313.422 50.7482V58.86H309.946V50.7482C309.946 50.1336 309.702 49.5441 309.267 49.1094C308.833 48.6747 308.243 48.4303 307.629 48.43H305.31C304.696 48.4303 304.106 48.6746 303.672 49.1093C303.237 49.544 302.992 50.1334 302.992 50.7482V63.4952C302.993 64.1079 303.237 64.6954 303.67 65.1285C303.886 65.3463 304.142 65.519 304.425 65.6366C304.708 65.7542 305.012 65.8143 305.319 65.8133ZM323.86 63.4952C323.86 64.1098 324.104 64.6993 324.539 65.134C324.973 65.5687 325.563 65.813 326.177 65.8133H328.495C329.11 65.813 329.7 65.5687 330.134 65.134C330.569 64.6994 330.813 64.1099 330.814 63.4952V61.1782C330.813 60.5634 330.569 59.974 330.134 59.5393C329.7 59.1046 329.11 58.8603 328.495 58.86H326.177C325.563 58.8603 324.973 59.1046 324.539 59.5393C324.104 59.974 323.86 60.5636 323.86 61.1782V63.4952ZM328.495 38H315.747C315.133 38.0003 314.543 38.2446 314.109 38.6793C313.674 39.114 313.43 39.7034 313.429 40.3182V42.6363C313.43 43.251 313.674 43.8405 314.109 44.2752C314.543 44.7099 315.133 44.9542 315.747 44.9545H323.859V53.0663C323.859 53.6809 324.103 54.2704 324.538 54.7051C324.972 55.1398 325.562 55.3841 326.176 55.3845H328.494C329.109 55.3841 329.699 55.1398 330.133 54.7051C330.568 54.2704 330.812 53.681 330.813 53.0663V40.3182C330.812 39.7056 330.569 39.1181 330.136 38.6848C329.921 38.468 329.666 38.2959 329.384 38.1783C329.103 38.0608 328.801 38.0002 328.495 38Z" fill="#567FEF"/>
</g>
</g>
</g>
<g filter="url(#filter3_d_97_3)">
<rect x="411" y="24" width="72" height="400" rx="16" fill="#567FEF" shape-rendering="crispEdges"/>
<path fill-rule="evenodd" clip-rule="evenodd" d="M446.078 376.25C445.161 376.25 444.379 376.913 444.229 377.817L444.05 378.889C444.03 379.01 443.936 379.15 443.753 379.237C443.409 379.403 443.08 379.594 442.768 379.808C442.601 379.922 442.433 379.933 442.318 379.89L441.299 379.508C440.44 379.187 439.475 379.533 439.017 380.327L438.095 381.924C437.637 382.717 437.82 383.726 438.527 384.309L439.368 385.001C439.462 385.078 439.536 385.23 439.521 385.431C439.507 385.619 439.5 385.809 439.5 386C439.5 386.191 439.507 386.381 439.521 386.569C439.536 386.77 439.462 386.922 439.368 387L438.527 387.692C437.82 388.274 437.637 389.283 438.095 390.077L439.017 391.674C439.475 392.467 440.44 392.813 441.299 392.492L442.318 392.11C442.433 392.067 442.601 392.079 442.768 392.192C443.08 392.406 443.409 392.597 443.753 392.763C443.936 392.85 444.03 392.99 444.05 393.111L444.229 394.183C444.379 395.087 445.161 395.75 446.078 395.75H447.922C448.839 395.75 449.621 395.087 449.771 394.183L449.95 393.111C449.97 392.99 450.064 392.85 450.247 392.763C450.591 392.597 450.92 392.406 451.233 392.192C451.399 392.078 451.567 392.067 451.682 392.11L452.701 392.492C453.56 392.813 454.525 392.467 454.983 391.673L455.905 390.076C456.363 389.283 456.181 388.274 455.473 387.691L454.632 386.999C454.538 386.922 454.464 386.77 454.479 386.569C454.493 386.381 454.5 386.191 454.5 386C454.5 385.809 454.493 385.619 454.479 385.431C454.464 385.23 454.538 385.078 454.632 385L455.473 384.308C456.181 383.726 456.363 382.717 455.905 381.923L454.983 380.326C454.525 379.533 453.56 379.187 452.701 379.508L451.682 379.89C451.567 379.933 451.399 379.921 451.232 379.807C450.92 379.594 450.591 379.403 450.247 379.237C450.064 379.15 449.97 379.01 449.95 378.889L449.771 377.817C449.621 376.913 448.839 376.25 447.922 376.25H446.078ZM447 389.75C449.071 389.75 450.75 388.071 450.75 386C450.75 383.929 449.071 382.25 447 382.25C444.929 382.25 443.25 383.929 443.25 386C443.25 388.071 444.929 389.75 447 389.75Z" fill="white"/>
<path fill-rule="evenodd" clip-rule="evenodd" d="M442.5 228C442.5 225.515 444.515 223.5 447 223.5C449.485 223.5 451.5 225.515 451.5 228C451.5 230.485 449.485 232.5 447 232.5C444.515 232.5 442.5 230.485 442.5 228Z" fill="white"/>
<path fill-rule="evenodd" clip-rule="evenodd" d="M438.751 242.105C438.828 237.616 442.492 234 447 234C451.508 234 455.171 237.616 455.249 242.106C455.254 242.403 455.082 242.676 454.811 242.8C452.433 243.892 449.786 244.5 447 244.5C444.214 244.5 441.567 243.892 439.188 242.8C438.917 242.676 438.746 242.403 438.751 242.105Z" fill="white"/>
<path d="M436.5 174.669V183.25C436.5 184.907 437.843 186.25 439.5 186.25H454.5C456.157 186.25 457.5 184.907 457.5 183.25V174.669L448.572 180.163C447.608 180.756 446.392 180.756 445.428 180.163L436.5 174.669Z" fill="white"/>
<path d="M457.5 172.908V172.75C457.5 171.093 456.157 169.75 454.5 169.75H439.5C437.843 169.75 436.5 171.093 436.5 172.75V172.908L446.214 178.886C446.696 179.182 447.304 179.182 447.786 178.886L457.5 172.908Z" fill="white"/>
<rect x="475" y="108" width="53" height="29" rx="8" fill="white"/>
<path d="M484.266 128V117.818H485.499V122.352H490.928V117.818H492.161V128H490.928V123.446H485.499V128H484.266ZM496.873 128.159C496.183 128.159 495.579 127.995 495.058 127.667C494.541 127.339 494.137 126.88 493.845 126.29C493.557 125.7 493.413 125.01 493.413 124.222C493.413 123.426 493.557 122.732 493.845 122.138C494.137 121.545 494.541 121.085 495.058 120.756C495.579 120.428 496.183 120.264 496.873 120.264C497.562 120.264 498.165 120.428 498.682 120.756C499.203 121.085 499.607 121.545 499.896 122.138C500.187 122.732 500.333 123.426 500.333 124.222C500.333 125.01 500.187 125.7 499.896 126.29C499.607 126.88 499.203 127.339 498.682 127.667C498.165 127.995 497.562 128.159 496.873 128.159ZM496.873 127.105C497.396 127.105 497.827 126.971 498.165 126.702C498.503 126.434 498.754 126.081 498.916 125.643C499.079 125.206 499.16 124.732 499.16 124.222C499.16 123.711 499.079 123.236 498.916 122.795C498.754 122.354 498.503 121.998 498.165 121.726C497.827 121.454 497.396 121.318 496.873 121.318C496.349 121.318 495.918 121.454 495.58 121.726C495.242 121.998 494.992 122.354 494.829 122.795C494.667 123.236 494.586 123.711 494.586 124.222C494.586 124.732 494.667 125.206 494.829 125.643C494.992 126.081 495.242 126.434 495.58 126.702C495.918 126.971 496.349 127.105 496.873 127.105ZM501.424 128V120.364H502.558V121.557H502.657C502.816 121.149 503.073 120.833 503.428 120.607C503.782 120.379 504.208 120.264 504.705 120.264C505.209 120.264 505.628 120.379 505.963 120.607C506.301 120.833 506.565 121.149 506.754 121.557H506.833C507.029 121.162 507.322 120.849 507.713 120.617C508.104 120.382 508.573 120.264 509.12 120.264C509.803 120.264 510.361 120.478 510.796 120.906C511.23 121.33 511.447 121.991 511.447 122.889V128H510.273V122.889C510.273 122.326 510.119 121.923 509.811 121.681C509.503 121.439 509.14 121.318 508.722 121.318C508.185 121.318 507.769 121.481 507.474 121.805C507.18 122.127 507.032 122.535 507.032 123.028V128H505.839V122.77C505.839 122.336 505.698 121.986 505.416 121.721C505.135 121.452 504.772 121.318 504.327 121.318C504.023 121.318 503.738 121.399 503.472 121.562C503.211 121.724 502.998 121.95 502.836 122.238C502.677 122.523 502.597 122.853 502.597 123.227V128H501.424ZM516.094 128.159C515.358 128.159 514.723 127.997 514.19 127.672C513.659 127.344 513.25 126.886 512.962 126.3C512.677 125.71 512.534 125.024 512.534 124.241C512.534 123.459 512.677 122.77 512.962 122.173C513.25 121.573 513.651 121.106 514.165 120.771C514.682 120.433 515.285 120.264 515.974 120.264C516.372 120.264 516.765 120.33 517.153 120.463C517.54 120.596 517.893 120.811 518.212 121.109C518.53 121.404 518.783 121.795 518.972 122.283C519.161 122.77 519.256 123.37 519.256 124.082V124.58H513.369V123.565H518.062C518.062 123.134 517.976 122.75 517.804 122.412C517.635 122.074 517.393 121.807 517.078 121.612C516.767 121.416 516.399 121.318 515.974 121.318C515.507 121.318 515.103 121.434 514.761 121.666C514.423 121.895 514.163 122.193 513.981 122.561C513.799 122.929 513.707 123.323 513.707 123.744V124.42C513.707 124.997 513.807 125.486 514.006 125.887C514.208 126.285 514.488 126.588 514.846 126.797C515.204 127.002 515.62 127.105 516.094 127.105C516.402 127.105 516.68 127.062 516.929 126.976C517.181 126.886 517.398 126.754 517.58 126.578C517.763 126.399 517.903 126.177 518.003 125.912L519.136 126.23C519.017 126.615 518.817 126.953 518.535 127.244C518.253 127.533 517.905 127.758 517.491 127.92C517.076 128.08 516.611 128.159 516.094 128.159Z" fill="#567FEF"/>
<rect x="423" y="98" width="48" height="48" rx="12" fill="white" fill-opacity="0.2"/>
<path d="M446.47 112.841C446.763 112.548 447.237 112.548 447.53 112.841L456.22 121.53C456.513 121.823 456.987 121.823 457.28 121.53C457.573 121.237 457.573 120.762 457.28 120.469L448.591 111.78C447.712 110.901 446.288 110.901 445.409 111.78L436.72 120.469C436.427 120.762 436.427 121.237 436.72 121.53C437.013 121.823 437.487 121.823 437.78 121.53L446.47 112.841Z" fill="white"/>
<path d="M447 114.432L455.159 122.591C455.189 122.621 455.219 122.649 455.25 122.677V128.875C455.25 129.91 454.41 130.75 453.375 130.75H450C449.586 130.75 449.25 130.414 449.25 130V125.5C449.25 125.086 448.914 124.75 448.5 124.75H445.5C445.086 124.75 444.75 125.086 444.75 125.5V130C444.75 130.414 444.414 130.75 444 130.75H440.625C439.589 130.75 438.75 129.91 438.75 128.875V122.677C438.781 122.649 438.811 122.621 438.841 122.591L447 114.432Z" fill="white"/>
<g clip-path="url(#clip3_97_3)">
<mask id="mask3_97_3" style="mask-type:luminance" maskUnits="userSpaceOnUse" x="432" y="38" width="28" height="28">
<path d="M459.813 38H432V65.8133H459.813V38Z" fill="white"/>
</mask>
<g mask="url(#mask3_97_3)">
<path fill-rule="evenodd" clip-rule="evenodd" d="M434.319 65.8133H447.067C447.37 65.8133 447.67 65.7536 447.951 65.6375C448.231 65.5214 448.486 65.3512 448.7 65.1367C449.133 64.7035 449.377 64.1159 449.377 63.5033V50.7482C449.376 50.1334 449.132 49.544 448.697 49.1093C448.263 48.6746 447.673 48.4303 447.059 48.43H444.74C444.126 48.4303 443.536 48.6746 443.102 49.1093C442.667 49.544 442.423 50.1334 442.422 50.7482V58.86H438.946V50.7482C438.946 50.1336 438.702 49.5441 438.267 49.1094C437.833 48.6747 437.243 48.4303 436.629 48.43H434.31C433.696 48.4303 433.106 48.6746 432.672 49.1093C432.237 49.544 431.992 50.1334 431.992 50.7482V63.4952C431.993 64.1079 432.237 64.6954 432.67 65.1285C432.886 65.3463 433.142 65.519 433.425 65.6366C433.708 65.7542 434.012 65.8143 434.319 65.8133ZM452.86 63.4952C452.86 64.1098 453.104 64.6993 453.539 65.134C453.973 65.5687 454.563 65.813 455.177 65.8133H457.495C458.11 65.813 458.7 65.5687 459.134 65.134C459.569 64.6994 459.813 64.1099 459.814 63.4952V61.1782C459.813 60.5634 459.569 59.974 459.134 59.5393C458.7 59.1046 458.11 58.8603 457.495 58.86H455.177C454.563 58.8603 453.973 59.1046 453.539 59.5393C453.104 59.974 452.86 60.5636 452.86 61.1782V63.4952ZM457.495 38H444.747C444.133 38.0003 443.543 38.2446 443.109 38.6793C442.674 39.114 442.43 39.7034 442.429 40.3182V42.6363C442.43 43.251 442.674 43.8405 443.109 44.2752C443.543 44.7099 444.133 44.9542 444.747 44.9545H452.859V53.0663C452.859 53.6809 453.103 54.2704 453.538 54.7051C453.972 55.1398 454.562 55.3841 455.176 55.3845H457.494C458.109 55.3841 458.699 55.1398 459.133 54.7051C459.568 54.2704 459.812 53.681 459.813 53.0663V40.3182C459.812 39.7056 459.569 39.1181 459.136 38.6848C458.921 38.468 458.666 38.2959 458.384 38.1783C458.103 38.0608 457.801 38.0002 457.495 38Z" fill="white"/>
</g>
</g>
</g>
<rect x="0.5" y="0.5" width="553" height="447" rx="7.5" stroke="white" stroke-opacity="0.1"/>
<defs>
<filter id="filter0_d_97_3" x="20" y="22" width="125" height="408" filterUnits="userSpaceOnUse" color-interpolation-filters="sRGB">
<feFlood flood-opacity="0" result="BackgroundImageFix"/>
<feColorMatrix in="SourceAlpha" type="matrix" values="0 0 0 0 0 0 0 0 0 0 0 0 0 0 0 0 0 0 127 0" result="hardAlpha"/>
<feOffset dy="2"/>
<feGaussianBlur stdDeviation="2"/>
<feComposite in2="hardAlpha" operator="out"/>
<feColorMatrix type="matrix" values="0 0 0 0 0.188235 0 0 0 0 0.188235 0 0 0 0 0.188235 0 0 0 0.17 0"/>
<feBlend mode="normal" in2="BackgroundImageFix" result="effect1_dropShadow_97_3"/>
<feBlend mode="normal" in="SourceGraphic" in2="effect1_dropShadow_97_3" result="shape"/>
</filter>
<filter id="filter1_d_97_3" x="149" y="22" width="125" height="408" filterUnits="userSpaceOnUse" color-interpolation-filters="sRGB">
<feFlood flood-opacity="0" result="BackgroundImageFix"/>
<feColorMatrix in="SourceAlpha" type="matrix" values="0 0 0 0 0 0 0 0 0 0 0 0 0 0 0 0 0 0 127 0" result="hardAlpha"/>
<feOffset dy="2"/>
<feGaussianBlur stdDeviation="2"/>
<feComposite in2="hardAlpha" operator="out"/>
<feColorMatrix type="matrix" values="0 0 0 0 0.188235 0 0 0 0 0.188235 0 0 0 0 0.188235 0 0 0 0.17 0"/>
<feBlend mode="normal" in2="BackgroundImageFix" result="effect1_dropShadow_97_3"/>
<feBlend mode="normal" in="SourceGraphic" in2="effect1_dropShadow_97_3" result="shape"/>
</filter>
<filter id="filter2_d_97_3" x="278" y="22" width="125" height="408" filterUnits="userSpaceOnUse" color-interpolation-filters="sRGB">
<feFlood flood-opacity="0" result="BackgroundImageFix"/>
<feColorMatrix in="SourceAlpha" type="matrix" values="0 0 0 0 0 0 0 0 0 0 0 0 0 0 0 0 0 0 127 0" result="hardAlpha"/>
<feOffset dy="2"/>
<feGaussianBlur stdDeviation="2"/>
<feComposite in2="hardAlpha" operator="out"/>
<feColorMatrix type="matrix" values="0 0 0 0 0.188235 0 0 0 0 0.188235 0 0 0 0 0.188235 0 0 0 0.17 0"/>
<feBlend mode="normal" in2="BackgroundImageFix" result="effect1_dropShadow_97_3"/>
<feBlend mode="normal" in="SourceGraphic" in2="effect1_dropShadow_97_3" result="shape"/>
</filter>
<filter id="filter3_d_97_3" x="407" y="22" width="125" height="408" filterUnits="userSpaceOnUse" color-interpolation-filters="sRGB">
<feFlood flood-opacity="0" result="BackgroundImageFix"/>
<feColorMatrix in="SourceAlpha" type="matrix" values="0 0 0 0 0 0 0 0 0 0 0 0 0 0 0 0 0 0 127 0" result="hardAlpha"/>
<feOffset dy="2"/>
<feGaussianBlur stdDeviation="2"/>
<feComposite in2="hardAlpha" operator="out"/>
<feColorMatrix type="matrix" values="0 0 0 0 0.188235 0 0 0 0 0.188235 0 0 0 0 0.188235 0 0 0 0.17 0"/>
<feBlend mode="normal" in2="BackgroundImageFix" result="effect1_dropShadow_97_3"/>
<feBlend mode="normal" in="SourceGraphic" in2="effect1_dropShadow_97_3" result="shape"/>
</filter>
<clipPath id="clip0_97_3">
<rect width="28" height="28" fill="white" transform="translate(45 38)"/>
</clipPath>
<clipPath id="clip1_97_3">
<rect width="28" height="28" fill="white" transform="translate(174 38)"/>
</clipPath>
<clipPath id="clip2_97_3">
<rect width="28" height="28" fill="white" transform="translate(303 38)"/>
</clipPath>
<clipPath id="clip3_97_3">
<rect width="28" height="28" fill="white" transform="translate(432 38)"/>
</clipPath>
</defs>
</svg>
