<svg width="408" height="456" viewBox="0 0 408 456" fill="none" xmlns="http://www.w3.org/2000/svg">
<rect width="408" height="456" rx="8" fill="#F0F0F0"/>
<g filter="url(#filter0_d_64_1203)">
<rect x="24" y="24" width="360" height="48" rx="8" fill="white"/>
<rect x="24.5" y="24.5" width="359" height="47" rx="7.5" stroke="#303030" stroke-opacity="0.1"/>
</g>
<path d="M41.4091 53V41.3636H42.8182V47.1364H42.9545L48.1818 41.3636H50.0227L45.1364 46.6136L50.0227 53H48.3182L44.2727 47.5909L42.8182 49.2273V53H41.4091ZM53.8832 53.1818C53.0423 53.1818 52.317 52.9962 51.7071 52.625C51.101 52.25 50.6332 51.7273 50.3037 51.0568C49.9779 50.3826 49.8151 49.5985 49.8151 48.7045C49.8151 47.8106 49.9779 47.0227 50.3037 46.3409C50.6332 45.6553 51.0916 45.1212 51.6787 44.7386C52.2696 44.3523 52.959 44.1591 53.7469 44.1591C54.2014 44.1591 54.6503 44.2348 55.0935 44.3864C55.5366 44.5379 55.9401 44.7841 56.3037 45.125C56.6673 45.4621 56.9571 45.9091 57.173 46.4659C57.3889 47.0227 57.4969 47.7083 57.4969 48.5227V49.0909H50.7696V47.9318H56.1332C56.1332 47.4394 56.0348 47 55.8378 46.6136C55.6446 46.2273 55.3681 45.9223 55.0082 45.6989C54.6522 45.4754 54.2317 45.3636 53.7469 45.3636C53.2128 45.3636 52.7507 45.4962 52.3605 45.7614C51.9741 46.0227 51.6768 46.3636 51.4685 46.7841C51.2601 47.2045 51.156 47.6553 51.156 48.1364V48.9091C51.156 49.5682 51.2696 50.1269 51.4969 50.5852C51.7279 51.0398 52.048 51.3864 52.4571 51.625C52.8662 51.8598 53.3416 51.9773 53.8832 51.9773C54.2355 51.9773 54.5537 51.928 54.8378 51.8295C55.1257 51.7273 55.3738 51.5758 55.5821 51.375C55.7904 51.1705 55.9514 50.9167 56.0651 50.6136L57.3605 50.9773C57.2241 51.4167 56.995 51.803 56.673 52.1364C56.351 52.4659 55.9533 52.7235 55.4798 52.9091C55.0063 53.0909 54.4741 53.1818 53.8832 53.1818ZM59.3347 56.2727C59.1074 56.2727 58.9047 56.2538 58.7267 56.2159C58.5487 56.1818 58.4256 56.1477 58.3574 56.1136L58.6983 54.9318C59.0241 55.0152 59.3119 55.0455 59.5619 55.0227C59.8119 55 60.0335 54.8883 60.2267 54.6875C60.4237 54.4905 60.6036 54.1705 60.7665 53.7273L61.0165 53.0455L57.7892 44.2727H59.2437L61.6528 51.2273H61.7437L64.1528 44.2727H65.6074L61.9028 54.2727C61.7362 54.7235 61.5297 55.0966 61.2835 55.392C61.0373 55.6913 60.7513 55.9129 60.4256 56.0568C60.1036 56.2008 59.74 56.2727 59.3347 56.2727ZM68.5545 53L65.8955 44.2727H67.3045L69.1909 50.9545H69.2818L71.1455 44.2727H72.5773L74.4182 50.9318H74.5091L76.3955 44.2727H77.8045L75.1455 53H73.8273L71.9182 46.2955H71.7818L69.8727 53H68.5545ZM82.0259 53.1818C81.238 53.1818 80.5467 52.9943 79.952 52.6193C79.3611 52.2443 78.899 51.7197 78.5656 51.0455C78.2361 50.3712 78.0713 49.5833 78.0713 48.6818C78.0713 47.7727 78.2361 46.9792 78.5656 46.3011C78.899 45.6231 79.3611 45.0966 79.952 44.7216C80.5467 44.3466 81.238 44.1591 82.0259 44.1591C82.8137 44.1591 83.5031 44.3466 84.094 44.7216C84.6887 45.0966 85.1509 45.6231 85.4804 46.3011C85.8137 46.9792 85.9804 47.7727 85.9804 48.6818C85.9804 49.5833 85.8137 50.3712 85.4804 51.0455C85.1509 51.7197 84.6887 52.2443 84.094 52.6193C83.5031 52.9943 82.8137 53.1818 82.0259 53.1818ZM82.0259 51.9773C82.6243 51.9773 83.1168 51.8239 83.5031 51.517C83.8895 51.2102 84.1755 50.8068 84.3611 50.3068C84.5467 49.8068 84.6395 49.2652 84.6395 48.6818C84.6395 48.0985 84.5467 47.5549 84.3611 47.0511C84.1755 46.5473 83.8895 46.1402 83.5031 45.8295C83.1168 45.5189 82.6243 45.3636 82.0259 45.3636C81.4274 45.3636 80.9349 45.5189 80.5486 45.8295C80.1622 46.1402 79.8762 46.5473 79.6906 47.0511C79.505 47.5549 79.4122 48.0985 79.4122 48.6818C79.4122 49.2652 79.505 49.8068 79.6906 50.3068C79.8762 50.8068 80.1622 51.2102 80.5486 51.517C80.9349 51.8239 81.4274 51.9773 82.0259 51.9773ZM87.2273 53V44.2727H88.5227V45.5909H88.6136C88.7727 45.1591 89.0606 44.8087 89.4773 44.5398C89.8939 44.2708 90.3636 44.1364 90.8864 44.1364C90.9848 44.1364 91.108 44.1383 91.2557 44.142C91.4034 44.1458 91.5152 44.1515 91.5909 44.1591V45.5227C91.5455 45.5114 91.4413 45.4943 91.2784 45.4716C91.1193 45.4451 90.9508 45.4318 90.7727 45.4318C90.3485 45.4318 89.9697 45.5208 89.6364 45.6989C89.3068 45.8731 89.0455 46.1155 88.8523 46.4261C88.6629 46.733 88.5682 47.0833 88.5682 47.4773V53H87.2273ZM95.4102 53.1818C94.683 53.1818 94.0409 52.9981 93.4841 52.6307C92.9273 52.2595 92.4917 51.7367 92.1773 51.0625C91.8629 50.3845 91.7057 49.5833 91.7057 48.6591C91.7057 47.7424 91.8629 46.947 92.1773 46.2727C92.4917 45.5985 92.9292 45.0777 93.4898 44.7102C94.0504 44.3428 94.6981 44.1591 95.433 44.1591C96.0011 44.1591 96.45 44.2538 96.7795 44.4432C97.1129 44.6288 97.3667 44.8409 97.5409 45.0795C97.7189 45.3144 97.8572 45.5076 97.9557 45.6591H98.0693V41.3636H99.4102V53H98.1148V51.6591H97.9557C97.8572 51.8182 97.717 52.0189 97.5352 52.2614C97.3534 52.5 97.0939 52.714 96.7568 52.9034C96.4197 53.089 95.9708 53.1818 95.4102 53.1818ZM95.592 51.9773C96.1299 51.9773 96.5845 51.8371 96.9557 51.5568C97.3269 51.2727 97.6091 50.8807 97.8023 50.3807C97.9955 49.8769 98.092 49.2955 98.092 48.6364C98.092 47.9848 97.9973 47.4148 97.808 46.9261C97.6186 46.4337 97.3383 46.0511 96.967 45.7784C96.5958 45.5019 96.1375 45.3636 95.592 45.3636C95.0239 45.3636 94.5504 45.5095 94.1716 45.8011C93.7966 46.089 93.5144 46.4811 93.325 46.9773C93.1394 47.4697 93.0466 48.0227 93.0466 48.6364C93.0466 49.2576 93.1413 49.822 93.3307 50.3295C93.5239 50.8333 93.808 51.2348 94.183 51.5341C94.5617 51.8295 95.0314 51.9773 95.592 51.9773ZM105.93 53.0909C105.649 53.0909 105.409 52.9905 105.208 52.7898C105.007 52.589 104.907 52.3485 104.907 52.0682C104.907 51.7879 105.007 51.5473 105.208 51.3466C105.409 51.1458 105.649 51.0455 105.93 51.0455C106.21 51.0455 106.45 51.1458 106.651 51.3466C106.852 51.5473 106.952 51.7879 106.952 52.0682C106.952 52.2538 106.905 52.4242 106.81 52.5795C106.719 52.7348 106.596 52.8598 106.441 52.9545C106.289 53.0455 106.119 53.0909 105.93 53.0909ZM109.536 53.0909C109.255 53.0909 109.015 52.9905 108.814 52.7898C108.613 52.589 108.513 52.3485 108.513 52.0682C108.513 51.7879 108.613 51.5473 108.814 51.3466C109.015 51.1458 109.255 51.0455 109.536 51.0455C109.816 51.0455 110.057 51.1458 110.257 51.3466C110.458 51.5473 110.559 51.7879 110.559 52.0682C110.559 52.2538 110.511 52.4242 110.416 52.5795C110.326 52.7348 110.202 52.8598 110.047 52.9545C109.896 53.0455 109.725 53.0909 109.536 53.0909ZM113.142 53.0909C112.862 53.0909 112.621 52.9905 112.42 52.7898C112.22 52.589 112.119 52.3485 112.119 52.0682C112.119 51.7879 112.22 51.5473 112.42 51.3466C112.621 51.1458 112.862 51.0455 113.142 51.0455C113.422 51.0455 113.663 51.1458 113.864 51.3466C114.064 51.5473 114.165 51.7879 114.165 52.0682C114.165 52.2538 114.117 52.4242 114.023 52.5795C113.932 52.7348 113.809 52.8598 113.653 52.9545C113.502 53.0455 113.331 53.0909 113.142 53.0909Z" fill="#747474"/>
<path fill-rule="evenodd" clip-rule="evenodd" d="M358.5 39.75C354.772 39.75 351.75 42.7721 351.75 46.5C351.75 50.2279 354.772 53.25 358.5 53.25C360.364 53.25 362.051 52.4953 363.273 51.273C364.495 50.0506 365.25 48.3642 365.25 46.5C365.25 42.7721 362.228 39.75 358.5 39.75ZM350.25 46.5C350.25 41.9436 353.944 38.25 358.5 38.25C363.056 38.25 366.75 41.9436 366.75 46.5C366.75 48.5078 366.032 50.3491 364.84 51.7793L369.53 56.4697C369.823 56.7626 369.823 57.2374 369.53 57.5303C369.237 57.8232 368.763 57.8232 368.47 57.5303L363.779 52.8399C362.349 54.032 360.508 54.75 358.5 54.75C353.944 54.75 350.25 51.0563 350.25 46.5Z" fill="#303030"/>
<g filter="url(#filter1_d_64_1203)">
<rect x="24" y="96" width="360" height="48" rx="24" fill="white"/>
<rect x="24.5" y="96.5" width="359" height="47" rx="23.5" stroke="#303030" stroke-opacity="0.1"/>
</g>
<path d="M73.4091 125V113.364H74.8182V119.136H74.9545L80.1818 113.364H82.0227L77.1364 118.614L82.0227 125H80.3182L76.2727 119.591L74.8182 121.227V125H73.4091ZM85.8832 125.182C85.0423 125.182 84.317 124.996 83.7071 124.625C83.101 124.25 82.6332 123.727 82.3037 123.057C81.9779 122.383 81.8151 121.598 81.8151 120.705C81.8151 119.811 81.9779 119.023 82.3037 118.341C82.6332 117.655 83.0916 117.121 83.6787 116.739C84.2696 116.352 84.959 116.159 85.7469 116.159C86.2014 116.159 86.6503 116.235 87.0935 116.386C87.5366 116.538 87.9401 116.784 88.3037 117.125C88.6673 117.462 88.9571 117.909 89.173 118.466C89.3889 119.023 89.4969 119.708 89.4969 120.523V121.091H82.7696V119.932H88.1332C88.1332 119.439 88.0348 119 87.8378 118.614C87.6446 118.227 87.3681 117.922 87.0082 117.699C86.6522 117.475 86.2317 117.364 85.7469 117.364C85.2128 117.364 84.7507 117.496 84.3605 117.761C83.9741 118.023 83.6768 118.364 83.4685 118.784C83.2601 119.205 83.156 119.655 83.156 120.136V120.909C83.156 121.568 83.2696 122.127 83.4969 122.585C83.7279 123.04 84.048 123.386 84.4571 123.625C84.8662 123.86 85.3416 123.977 85.8832 123.977C86.2355 123.977 86.5537 123.928 86.8378 123.83C87.1257 123.727 87.3738 123.576 87.5821 123.375C87.7904 123.17 87.9514 122.917 88.0651 122.614L89.3605 122.977C89.2241 123.417 88.995 123.803 88.673 124.136C88.351 124.466 87.9533 124.723 87.4798 124.909C87.0063 125.091 86.4741 125.182 85.8832 125.182ZM91.3347 128.273C91.1074 128.273 90.9047 128.254 90.7267 128.216C90.5487 128.182 90.4256 128.148 90.3574 128.114L90.6983 126.932C91.0241 127.015 91.3119 127.045 91.5619 127.023C91.8119 127 92.0335 126.888 92.2267 126.688C92.4237 126.491 92.6036 126.17 92.7665 125.727L93.0165 125.045L89.7892 116.273H91.2437L93.6528 123.227H93.7437L96.1528 116.273H97.6074L93.9028 126.273C93.7362 126.723 93.5297 127.097 93.2835 127.392C93.0373 127.691 92.7513 127.913 92.4256 128.057C92.1036 128.201 91.74 128.273 91.3347 128.273ZM100.555 125L97.8955 116.273H99.3045L101.191 122.955H101.282L103.145 116.273H104.577L106.418 122.932H106.509L108.395 116.273H109.805L107.145 125H105.827L103.918 118.295H103.782L101.873 125H100.555ZM114.026 125.182C113.238 125.182 112.547 124.994 111.952 124.619C111.361 124.244 110.899 123.72 110.566 123.045C110.236 122.371 110.071 121.583 110.071 120.682C110.071 119.773 110.236 118.979 110.566 118.301C110.899 117.623 111.361 117.097 111.952 116.722C112.547 116.347 113.238 116.159 114.026 116.159C114.814 116.159 115.503 116.347 116.094 116.722C116.689 117.097 117.151 117.623 117.48 118.301C117.814 118.979 117.98 119.773 117.98 120.682C117.98 121.583 117.814 122.371 117.48 123.045C117.151 123.72 116.689 124.244 116.094 124.619C115.503 124.994 114.814 125.182 114.026 125.182ZM114.026 123.977C114.624 123.977 115.117 123.824 115.503 123.517C115.889 123.21 116.175 122.807 116.361 122.307C116.547 121.807 116.639 121.265 116.639 120.682C116.639 120.098 116.547 119.555 116.361 119.051C116.175 118.547 115.889 118.14 115.503 117.83C115.117 117.519 114.624 117.364 114.026 117.364C113.427 117.364 112.935 117.519 112.549 117.83C112.162 118.14 111.876 118.547 111.691 119.051C111.505 119.555 111.412 120.098 111.412 120.682C111.412 121.265 111.505 121.807 111.691 122.307C111.876 122.807 112.162 123.21 112.549 123.517C112.935 123.824 113.427 123.977 114.026 123.977ZM119.227 125V116.273H120.523V117.591H120.614C120.773 117.159 121.061 116.809 121.477 116.54C121.894 116.271 122.364 116.136 122.886 116.136C122.985 116.136 123.108 116.138 123.256 116.142C123.403 116.146 123.515 116.152 123.591 116.159V117.523C123.545 117.511 123.441 117.494 123.278 117.472C123.119 117.445 122.951 117.432 122.773 117.432C122.348 117.432 121.97 117.521 121.636 117.699C121.307 117.873 121.045 118.116 120.852 118.426C120.663 118.733 120.568 119.083 120.568 119.477V125H119.227ZM127.41 125.182C126.683 125.182 126.041 124.998 125.484 124.631C124.927 124.259 124.492 123.737 124.177 123.062C123.863 122.384 123.706 121.583 123.706 120.659C123.706 119.742 123.863 118.947 124.177 118.273C124.492 117.598 124.929 117.078 125.49 116.71C126.05 116.343 126.698 116.159 127.433 116.159C128.001 116.159 128.45 116.254 128.78 116.443C129.113 116.629 129.367 116.841 129.541 117.08C129.719 117.314 129.857 117.508 129.956 117.659H130.069V113.364H131.41V125H130.115V123.659H129.956C129.857 123.818 129.717 124.019 129.535 124.261C129.353 124.5 129.094 124.714 128.757 124.903C128.42 125.089 127.971 125.182 127.41 125.182ZM127.592 123.977C128.13 123.977 128.584 123.837 128.956 123.557C129.327 123.273 129.609 122.881 129.802 122.381C129.995 121.877 130.092 121.295 130.092 120.636C130.092 119.985 129.997 119.415 129.808 118.926C129.619 118.434 129.338 118.051 128.967 117.778C128.596 117.502 128.138 117.364 127.592 117.364C127.024 117.364 126.55 117.509 126.172 117.801C125.797 118.089 125.514 118.481 125.325 118.977C125.139 119.47 125.047 120.023 125.047 120.636C125.047 121.258 125.141 121.822 125.331 122.33C125.524 122.833 125.808 123.235 126.183 123.534C126.562 123.83 127.031 123.977 127.592 123.977ZM137.93 125.091C137.649 125.091 137.409 124.991 137.208 124.79C137.007 124.589 136.907 124.348 136.907 124.068C136.907 123.788 137.007 123.547 137.208 123.347C137.409 123.146 137.649 123.045 137.93 123.045C138.21 123.045 138.45 123.146 138.651 123.347C138.852 123.547 138.952 123.788 138.952 124.068C138.952 124.254 138.905 124.424 138.81 124.58C138.719 124.735 138.596 124.86 138.441 124.955C138.289 125.045 138.119 125.091 137.93 125.091ZM141.536 125.091C141.255 125.091 141.015 124.991 140.814 124.79C140.613 124.589 140.513 124.348 140.513 124.068C140.513 123.788 140.613 123.547 140.814 123.347C141.015 123.146 141.255 123.045 141.536 123.045C141.816 123.045 142.057 123.146 142.257 123.347C142.458 123.547 142.559 123.788 142.559 124.068C142.559 124.254 142.511 124.424 142.416 124.58C142.326 124.735 142.202 124.86 142.047 124.955C141.896 125.045 141.725 125.091 141.536 125.091ZM145.142 125.091C144.862 125.091 144.621 124.991 144.42 124.79C144.22 124.589 144.119 124.348 144.119 124.068C144.119 123.788 144.22 123.547 144.42 123.347C144.621 123.146 144.862 123.045 145.142 123.045C145.422 123.045 145.663 123.146 145.864 123.347C146.064 123.547 146.165 123.788 146.165 124.068C146.165 124.254 146.117 124.424 146.023 124.58C145.932 124.735 145.809 124.86 145.653 124.955C145.502 125.045 145.331 125.091 145.142 125.091Z" fill="#747474"/>
<path fill-rule="evenodd" clip-rule="evenodd" d="M43 114.75C43 114.336 43.3358 114 43.75 114H60.25C60.6642 114 61 114.336 61 114.75C61 115.164 60.6642 115.5 60.25 115.5H43.75C43.3358 115.5 43 115.164 43 114.75ZM43 120C43 119.586 43.3358 119.25 43.75 119.25H60.25C60.6642 119.25 61 119.586 61 120C61 120.414 60.6642 120.75 60.25 120.75H43.75C43.3358 120.75 43 120.414 43 120ZM43 125.25C43 124.836 43.3358 124.5 43.75 124.5H60.25C60.6642 124.5 61 124.836 61 125.25C61 125.664 60.6642 126 60.25 126H43.75C43.3358 126 43 125.664 43 125.25Z" fill="#303030"/>
<path fill-rule="evenodd" clip-rule="evenodd" d="M358.5 111.75C354.772 111.75 351.75 114.772 351.75 118.5C351.75 122.228 354.772 125.25 358.5 125.25C360.364 125.25 362.051 124.495 363.273 123.273C364.495 122.051 365.25 120.364 365.25 118.5C365.25 114.772 362.228 111.75 358.5 111.75ZM350.25 118.5C350.25 113.944 353.944 110.25 358.5 110.25C363.056 110.25 366.75 113.944 366.75 118.5C366.75 120.508 366.032 122.349 364.84 123.779L369.53 128.47C369.823 128.763 369.823 129.237 369.53 129.53C369.237 129.823 368.763 129.823 368.47 129.53L363.779 124.84C362.349 126.032 360.508 126.75 358.5 126.75C353.944 126.75 350.25 123.056 350.25 118.5Z" fill="#303030"/>
<g filter="url(#filter2_d_64_1203)">
<rect x="24" y="168" width="360" height="48" rx="24" fill="white"/>
<rect x="24.5" y="168.5" width="359" height="47" rx="23.5" stroke="#303030" stroke-opacity="0.1"/>
</g>
<path d="M41.4091 197V185.364H42.8182V191.136H42.9545L48.1818 185.364H50.0227L45.1364 190.614L50.0227 197H48.3182L44.2727 191.591L42.8182 193.227V197H41.4091ZM53.8832 197.182C53.0423 197.182 52.317 196.996 51.7071 196.625C51.101 196.25 50.6332 195.727 50.3037 195.057C49.9779 194.383 49.8151 193.598 49.8151 192.705C49.8151 191.811 49.9779 191.023 50.3037 190.341C50.6332 189.655 51.0916 189.121 51.6787 188.739C52.2696 188.352 52.959 188.159 53.7469 188.159C54.2014 188.159 54.6503 188.235 55.0935 188.386C55.5366 188.538 55.9401 188.784 56.3037 189.125C56.6673 189.462 56.9571 189.909 57.173 190.466C57.3889 191.023 57.4969 191.708 57.4969 192.523V193.091H50.7696V191.932H56.1332C56.1332 191.439 56.0348 191 55.8378 190.614C55.6446 190.227 55.3681 189.922 55.0082 189.699C54.6522 189.475 54.2317 189.364 53.7469 189.364C53.2128 189.364 52.7507 189.496 52.3605 189.761C51.9741 190.023 51.6768 190.364 51.4685 190.784C51.2601 191.205 51.156 191.655 51.156 192.136V192.909C51.156 193.568 51.2696 194.127 51.4969 194.585C51.7279 195.04 52.048 195.386 52.4571 195.625C52.8662 195.86 53.3416 195.977 53.8832 195.977C54.2355 195.977 54.5537 195.928 54.8378 195.83C55.1257 195.727 55.3738 195.576 55.5821 195.375C55.7904 195.17 55.9514 194.917 56.0651 194.614L57.3605 194.977C57.2241 195.417 56.995 195.803 56.673 196.136C56.351 196.466 55.9533 196.723 55.4798 196.909C55.0063 197.091 54.4741 197.182 53.8832 197.182ZM59.3347 200.273C59.1074 200.273 58.9047 200.254 58.7267 200.216C58.5487 200.182 58.4256 200.148 58.3574 200.114L58.6983 198.932C59.0241 199.015 59.3119 199.045 59.5619 199.023C59.8119 199 60.0335 198.888 60.2267 198.688C60.4237 198.491 60.6036 198.17 60.7665 197.727L61.0165 197.045L57.7892 188.273H59.2437L61.6528 195.227H61.7437L64.1528 188.273H65.6074L61.9028 198.273C61.7362 198.723 61.5297 199.097 61.2835 199.392C61.0373 199.691 60.7513 199.913 60.4256 200.057C60.1036 200.201 59.74 200.273 59.3347 200.273ZM68.5545 197L65.8955 188.273H67.3045L69.1909 194.955H69.2818L71.1455 188.273H72.5773L74.4182 194.932H74.5091L76.3955 188.273H77.8045L75.1455 197H73.8273L71.9182 190.295H71.7818L69.8727 197H68.5545ZM82.0259 197.182C81.238 197.182 80.5467 196.994 79.952 196.619C79.3611 196.244 78.899 195.72 78.5656 195.045C78.2361 194.371 78.0713 193.583 78.0713 192.682C78.0713 191.773 78.2361 190.979 78.5656 190.301C78.899 189.623 79.3611 189.097 79.952 188.722C80.5467 188.347 81.238 188.159 82.0259 188.159C82.8137 188.159 83.5031 188.347 84.094 188.722C84.6887 189.097 85.1509 189.623 85.4804 190.301C85.8137 190.979 85.9804 191.773 85.9804 192.682C85.9804 193.583 85.8137 194.371 85.4804 195.045C85.1509 195.72 84.6887 196.244 84.094 196.619C83.5031 196.994 82.8137 197.182 82.0259 197.182ZM82.0259 195.977C82.6243 195.977 83.1168 195.824 83.5031 195.517C83.8895 195.21 84.1755 194.807 84.3611 194.307C84.5467 193.807 84.6395 193.265 84.6395 192.682C84.6395 192.098 84.5467 191.555 84.3611 191.051C84.1755 190.547 83.8895 190.14 83.5031 189.83C83.1168 189.519 82.6243 189.364 82.0259 189.364C81.4274 189.364 80.9349 189.519 80.5486 189.83C80.1622 190.14 79.8762 190.547 79.6906 191.051C79.505 191.555 79.4122 192.098 79.4122 192.682C79.4122 193.265 79.505 193.807 79.6906 194.307C79.8762 194.807 80.1622 195.21 80.5486 195.517C80.9349 195.824 81.4274 195.977 82.0259 195.977ZM87.2273 197V188.273H88.5227V189.591H88.6136C88.7727 189.159 89.0606 188.809 89.4773 188.54C89.8939 188.271 90.3636 188.136 90.8864 188.136C90.9848 188.136 91.108 188.138 91.2557 188.142C91.4034 188.146 91.5152 188.152 91.5909 188.159V189.523C91.5455 189.511 91.4413 189.494 91.2784 189.472C91.1193 189.445 90.9508 189.432 90.7727 189.432C90.3485 189.432 89.9697 189.521 89.6364 189.699C89.3068 189.873 89.0455 190.116 88.8523 190.426C88.6629 190.733 88.5682 191.083 88.5682 191.477V197H87.2273ZM95.4102 197.182C94.683 197.182 94.0409 196.998 93.4841 196.631C92.9273 196.259 92.4917 195.737 92.1773 195.062C91.8629 194.384 91.7057 193.583 91.7057 192.659C91.7057 191.742 91.8629 190.947 92.1773 190.273C92.4917 189.598 92.9292 189.078 93.4898 188.71C94.0504 188.343 94.6981 188.159 95.433 188.159C96.0011 188.159 96.45 188.254 96.7795 188.443C97.1129 188.629 97.3667 188.841 97.5409 189.08C97.7189 189.314 97.8572 189.508 97.9557 189.659H98.0693V185.364H99.4102V197H98.1148V195.659H97.9557C97.8572 195.818 97.717 196.019 97.5352 196.261C97.3534 196.5 97.0939 196.714 96.7568 196.903C96.4197 197.089 95.9708 197.182 95.4102 197.182ZM95.592 195.977C96.1299 195.977 96.5845 195.837 96.9557 195.557C97.3269 195.273 97.6091 194.881 97.8023 194.381C97.9955 193.877 98.092 193.295 98.092 192.636C98.092 191.985 97.9973 191.415 97.808 190.926C97.6186 190.434 97.3383 190.051 96.967 189.778C96.5958 189.502 96.1375 189.364 95.592 189.364C95.0239 189.364 94.5504 189.509 94.1716 189.801C93.7966 190.089 93.5144 190.481 93.325 190.977C93.1394 191.47 93.0466 192.023 93.0466 192.636C93.0466 193.258 93.1413 193.822 93.3307 194.33C93.5239 194.833 93.808 195.235 94.183 195.534C94.5617 195.83 95.0314 195.977 95.592 195.977ZM105.93 197.091C105.649 197.091 105.409 196.991 105.208 196.79C105.007 196.589 104.907 196.348 104.907 196.068C104.907 195.788 105.007 195.547 105.208 195.347C105.409 195.146 105.649 195.045 105.93 195.045C106.21 195.045 106.45 195.146 106.651 195.347C106.852 195.547 106.952 195.788 106.952 196.068C106.952 196.254 106.905 196.424 106.81 196.58C106.719 196.735 106.596 196.86 106.441 196.955C106.289 197.045 106.119 197.091 105.93 197.091ZM109.536 197.091C109.255 197.091 109.015 196.991 108.814 196.79C108.613 196.589 108.513 196.348 108.513 196.068C108.513 195.788 108.613 195.547 108.814 195.347C109.015 195.146 109.255 195.045 109.536 195.045C109.816 195.045 110.057 195.146 110.257 195.347C110.458 195.547 110.559 195.788 110.559 196.068C110.559 196.254 110.511 196.424 110.416 196.58C110.326 196.735 110.202 196.86 110.047 196.955C109.896 197.045 109.725 197.091 109.536 197.091ZM113.142 197.091C112.862 197.091 112.621 196.991 112.42 196.79C112.22 196.589 112.119 196.348 112.119 196.068C112.119 195.788 112.22 195.547 112.42 195.347C112.621 195.146 112.862 195.045 113.142 195.045C113.422 195.045 113.663 195.146 113.864 195.347C114.064 195.547 114.165 195.788 114.165 196.068C114.165 196.254 114.117 196.424 114.023 196.58C113.932 196.735 113.809 196.86 113.653 196.955C113.502 197.045 113.331 197.091 113.142 197.091Z" fill="#747474"/>
<rect x="340" y="172" width="40" height="40" rx="20" fill="#303030"/>
<path fill-rule="evenodd" clip-rule="evenodd" d="M358.5 183.75C354.772 183.75 351.75 186.772 351.75 190.5C351.75 194.228 354.772 197.25 358.5 197.25C360.364 197.25 362.051 196.495 363.273 195.273C364.495 194.051 365.25 192.364 365.25 190.5C365.25 186.772 362.228 183.75 358.5 183.75ZM350.25 190.5C350.25 185.944 353.944 182.25 358.5 182.25C363.056 182.25 366.75 185.944 366.75 190.5C366.75 192.508 366.032 194.349 364.84 195.779L369.53 200.47C369.823 200.763 369.823 201.237 369.53 201.53C369.237 201.823 368.763 201.823 368.47 201.53L363.779 196.84C362.349 198.032 360.508 198.75 358.5 198.75C353.944 198.75 350.25 195.056 350.25 190.5Z" fill="white"/>
<g filter="url(#filter3_d_64_1203)">
<rect x="24" y="240" width="360" height="48" rx="4" fill="white"/>
<rect x="24.5" y="240.5" width="359" height="47" rx="3.5" stroke="#303030" stroke-opacity="0.1"/>
</g>
<path d="M41.4091 269V257.364H42.8182V263.136H42.9545L48.1818 257.364H50.0227L45.1364 262.614L50.0227 269H48.3182L44.2727 263.591L42.8182 265.227V269H41.4091ZM53.8832 269.182C53.0423 269.182 52.317 268.996 51.7071 268.625C51.101 268.25 50.6332 267.727 50.3037 267.057C49.9779 266.383 49.8151 265.598 49.8151 264.705C49.8151 263.811 49.9779 263.023 50.3037 262.341C50.6332 261.655 51.0916 261.121 51.6787 260.739C52.2696 260.352 52.959 260.159 53.7469 260.159C54.2014 260.159 54.6503 260.235 55.0935 260.386C55.5366 260.538 55.9401 260.784 56.3037 261.125C56.6673 261.462 56.9571 261.909 57.173 262.466C57.3889 263.023 57.4969 263.708 57.4969 264.523V265.091H50.7696V263.932H56.1332C56.1332 263.439 56.0348 263 55.8378 262.614C55.6446 262.227 55.3681 261.922 55.0082 261.699C54.6522 261.475 54.2317 261.364 53.7469 261.364C53.2128 261.364 52.7507 261.496 52.3605 261.761C51.9741 262.023 51.6768 262.364 51.4685 262.784C51.2601 263.205 51.156 263.655 51.156 264.136V264.909C51.156 265.568 51.2696 266.127 51.4969 266.585C51.7279 267.04 52.048 267.386 52.4571 267.625C52.8662 267.86 53.3416 267.977 53.8832 267.977C54.2355 267.977 54.5537 267.928 54.8378 267.83C55.1257 267.727 55.3738 267.576 55.5821 267.375C55.7904 267.17 55.9514 266.917 56.0651 266.614L57.3605 266.977C57.2241 267.417 56.995 267.803 56.673 268.136C56.351 268.466 55.9533 268.723 55.4798 268.909C55.0063 269.091 54.4741 269.182 53.8832 269.182ZM59.3347 272.273C59.1074 272.273 58.9047 272.254 58.7267 272.216C58.5487 272.182 58.4256 272.148 58.3574 272.114L58.6983 270.932C59.0241 271.015 59.3119 271.045 59.5619 271.023C59.8119 271 60.0335 270.888 60.2267 270.688C60.4237 270.491 60.6036 270.17 60.7665 269.727L61.0165 269.045L57.7892 260.273H59.2437L61.6528 267.227H61.7437L64.1528 260.273H65.6074L61.9028 270.273C61.7362 270.723 61.5297 271.097 61.2835 271.392C61.0373 271.691 60.7513 271.913 60.4256 272.057C60.1036 272.201 59.74 272.273 59.3347 272.273ZM68.5545 269L65.8955 260.273H67.3045L69.1909 266.955H69.2818L71.1455 260.273H72.5773L74.4182 266.932H74.5091L76.3955 260.273H77.8045L75.1455 269H73.8273L71.9182 262.295H71.7818L69.8727 269H68.5545ZM82.0259 269.182C81.238 269.182 80.5467 268.994 79.952 268.619C79.3611 268.244 78.899 267.72 78.5656 267.045C78.2361 266.371 78.0713 265.583 78.0713 264.682C78.0713 263.773 78.2361 262.979 78.5656 262.301C78.899 261.623 79.3611 261.097 79.952 260.722C80.5467 260.347 81.238 260.159 82.0259 260.159C82.8137 260.159 83.5031 260.347 84.094 260.722C84.6887 261.097 85.1509 261.623 85.4804 262.301C85.8137 262.979 85.9804 263.773 85.9804 264.682C85.9804 265.583 85.8137 266.371 85.4804 267.045C85.1509 267.72 84.6887 268.244 84.094 268.619C83.5031 268.994 82.8137 269.182 82.0259 269.182ZM82.0259 267.977C82.6243 267.977 83.1168 267.824 83.5031 267.517C83.8895 267.21 84.1755 266.807 84.3611 266.307C84.5467 265.807 84.6395 265.265 84.6395 264.682C84.6395 264.098 84.5467 263.555 84.3611 263.051C84.1755 262.547 83.8895 262.14 83.5031 261.83C83.1168 261.519 82.6243 261.364 82.0259 261.364C81.4274 261.364 80.9349 261.519 80.5486 261.83C80.1622 262.14 79.8762 262.547 79.6906 263.051C79.505 263.555 79.4122 264.098 79.4122 264.682C79.4122 265.265 79.505 265.807 79.6906 266.307C79.8762 266.807 80.1622 267.21 80.5486 267.517C80.9349 267.824 81.4274 267.977 82.0259 267.977ZM87.2273 269V260.273H88.5227V261.591H88.6136C88.7727 261.159 89.0606 260.809 89.4773 260.54C89.8939 260.271 90.3636 260.136 90.8864 260.136C90.9848 260.136 91.108 260.138 91.2557 260.142C91.4034 260.146 91.5152 260.152 91.5909 260.159V261.523C91.5455 261.511 91.4413 261.494 91.2784 261.472C91.1193 261.445 90.9508 261.432 90.7727 261.432C90.3485 261.432 89.9697 261.521 89.6364 261.699C89.3068 261.873 89.0455 262.116 88.8523 262.426C88.6629 262.733 88.5682 263.083 88.5682 263.477V269H87.2273ZM95.4102 269.182C94.683 269.182 94.0409 268.998 93.4841 268.631C92.9273 268.259 92.4917 267.737 92.1773 267.062C91.8629 266.384 91.7057 265.583 91.7057 264.659C91.7057 263.742 91.8629 262.947 92.1773 262.273C92.4917 261.598 92.9292 261.078 93.4898 260.71C94.0504 260.343 94.6981 260.159 95.433 260.159C96.0011 260.159 96.45 260.254 96.7795 260.443C97.1129 260.629 97.3667 260.841 97.5409 261.08C97.7189 261.314 97.8572 261.508 97.9557 261.659H98.0693V257.364H99.4102V269H98.1148V267.659H97.9557C97.8572 267.818 97.717 268.019 97.5352 268.261C97.3534 268.5 97.0939 268.714 96.7568 268.903C96.4197 269.089 95.9708 269.182 95.4102 269.182ZM95.592 267.977C96.1299 267.977 96.5845 267.837 96.9557 267.557C97.3269 267.273 97.6091 266.881 97.8023 266.381C97.9955 265.877 98.092 265.295 98.092 264.636C98.092 263.985 97.9973 263.415 97.808 262.926C97.6186 262.434 97.3383 262.051 96.967 261.778C96.5958 261.502 96.1375 261.364 95.592 261.364C95.0239 261.364 94.5504 261.509 94.1716 261.801C93.7966 262.089 93.5144 262.481 93.325 262.977C93.1394 263.47 93.0466 264.023 93.0466 264.636C93.0466 265.258 93.1413 265.822 93.3307 266.33C93.5239 266.833 93.808 267.235 94.183 267.534C94.5617 267.83 95.0314 267.977 95.592 267.977ZM105.93 269.091C105.649 269.091 105.409 268.991 105.208 268.79C105.007 268.589 104.907 268.348 104.907 268.068C104.907 267.788 105.007 267.547 105.208 267.347C105.409 267.146 105.649 267.045 105.93 267.045C106.21 267.045 106.45 267.146 106.651 267.347C106.852 267.547 106.952 267.788 106.952 268.068C106.952 268.254 106.905 268.424 106.81 268.58C106.719 268.735 106.596 268.86 106.441 268.955C106.289 269.045 106.119 269.091 105.93 269.091ZM109.536 269.091C109.255 269.091 109.015 268.991 108.814 268.79C108.613 268.589 108.513 268.348 108.513 268.068C108.513 267.788 108.613 267.547 108.814 267.347C109.015 267.146 109.255 267.045 109.536 267.045C109.816 267.045 110.057 267.146 110.257 267.347C110.458 267.547 110.559 267.788 110.559 268.068C110.559 268.254 110.511 268.424 110.416 268.58C110.326 268.735 110.202 268.86 110.047 268.955C109.896 269.045 109.725 269.091 109.536 269.091ZM113.142 269.091C112.862 269.091 112.621 268.991 112.42 268.79C112.22 268.589 112.119 268.348 112.119 268.068C112.119 267.788 112.22 267.547 112.42 267.347C112.621 267.146 112.862 267.045 113.142 267.045C113.422 267.045 113.663 267.146 113.864 267.347C114.064 267.547 114.165 267.788 114.165 268.068C114.165 268.254 114.117 268.424 114.023 268.58C113.932 268.735 113.809 268.86 113.653 268.955C113.502 269.045 113.331 269.091 113.142 269.091Z" fill="#747474"/>
<path fill-rule="evenodd" clip-rule="evenodd" d="M358.5 255.75C354.772 255.75 351.75 258.772 351.75 262.5C351.75 266.228 354.772 269.25 358.5 269.25C360.364 269.25 362.051 268.495 363.273 267.273C364.495 266.051 365.25 264.364 365.25 262.5C365.25 258.772 362.228 255.75 358.5 255.75ZM350.25 262.5C350.25 257.944 353.944 254.25 358.5 254.25C363.056 254.25 366.75 257.944 366.75 262.5C366.75 264.508 366.032 266.349 364.84 267.779L369.53 272.47C369.823 272.763 369.823 273.237 369.53 273.53C369.237 273.823 368.763 273.823 368.47 273.53L363.779 268.84C362.349 270.032 360.508 270.75 358.5 270.75C353.944 270.75 350.25 267.056 350.25 262.5Z" fill="#303030"/>
<path d="M299.163 260.273C299.095 259.697 298.819 259.25 298.334 258.932C297.849 258.614 297.254 258.455 296.55 258.455C296.035 258.455 295.584 258.538 295.197 258.705C294.815 258.871 294.516 259.1 294.3 259.392C294.088 259.684 293.982 260.015 293.982 260.386C293.982 260.697 294.055 260.964 294.203 261.188C294.355 261.407 294.548 261.591 294.783 261.739C295.018 261.883 295.264 262.002 295.521 262.097C295.779 262.187 296.016 262.261 296.232 262.318L297.413 262.636C297.716 262.716 298.054 262.826 298.425 262.966C298.8 263.106 299.158 263.297 299.499 263.54C299.843 263.778 300.127 264.085 300.351 264.46C300.574 264.835 300.686 265.295 300.686 265.841C300.686 266.47 300.521 267.038 300.192 267.545C299.866 268.053 299.389 268.456 298.76 268.756C298.135 269.055 297.375 269.205 296.482 269.205C295.648 269.205 294.927 269.07 294.317 268.801C293.711 268.532 293.233 268.157 292.885 267.676C292.54 267.195 292.345 266.636 292.3 266H293.754C293.792 266.439 293.94 266.803 294.197 267.091C294.459 267.375 294.788 267.587 295.186 267.727C295.588 267.864 296.019 267.932 296.482 267.932C297.019 267.932 297.502 267.845 297.93 267.67C298.358 267.492 298.697 267.246 298.947 266.932C299.197 266.614 299.322 266.242 299.322 265.818C299.322 265.432 299.214 265.117 298.999 264.875C298.783 264.633 298.499 264.436 298.146 264.284C297.794 264.133 297.413 264 297.004 263.886L295.572 263.477C294.663 263.216 293.944 262.843 293.413 262.358C292.883 261.873 292.618 261.239 292.618 260.455C292.618 259.803 292.794 259.235 293.146 258.75C293.502 258.261 293.98 257.883 294.578 257.614C295.18 257.341 295.853 257.205 296.595 257.205C297.345 257.205 298.012 257.339 298.595 257.608C299.179 257.873 299.641 258.237 299.982 258.699C300.326 259.161 300.508 259.686 300.527 260.273H299.163ZM305.68 269.182C304.839 269.182 304.114 268.996 303.504 268.625C302.898 268.25 302.43 267.727 302.101 267.057C301.775 266.383 301.612 265.598 301.612 264.705C301.612 263.811 301.775 263.023 302.101 262.341C302.43 261.655 302.888 261.121 303.476 260.739C304.066 260.352 304.756 260.159 305.544 260.159C305.998 260.159 306.447 260.235 306.89 260.386C307.334 260.538 307.737 260.784 308.101 261.125C308.464 261.462 308.754 261.909 308.97 262.466C309.186 263.023 309.294 263.708 309.294 264.523V265.091H302.566V263.932H307.93C307.93 263.439 307.832 263 307.635 262.614C307.441 262.227 307.165 261.922 306.805 261.699C306.449 261.475 306.029 261.364 305.544 261.364C305.01 261.364 304.548 261.496 304.157 261.761C303.771 262.023 303.474 262.364 303.265 262.784C303.057 263.205 302.953 263.655 302.953 264.136V264.909C302.953 265.568 303.066 266.127 303.294 266.585C303.525 267.04 303.845 267.386 304.254 267.625C304.663 267.86 305.138 267.977 305.68 267.977C306.032 267.977 306.351 267.928 306.635 267.83C306.923 267.727 307.171 267.576 307.379 267.375C307.587 267.17 307.748 266.917 307.862 266.614L309.157 266.977C309.021 267.417 308.792 267.803 308.47 268.136C308.148 268.466 307.75 268.723 307.277 268.909C306.803 269.091 306.271 269.182 305.68 269.182ZM313.102 269.205C312.549 269.205 312.047 269.1 311.596 268.892C311.145 268.68 310.787 268.375 310.522 267.977C310.257 267.576 310.124 267.091 310.124 266.523C310.124 266.023 310.223 265.617 310.42 265.307C310.617 264.992 310.88 264.746 311.21 264.568C311.539 264.39 311.903 264.258 312.301 264.17C312.702 264.08 313.105 264.008 313.511 263.955C314.041 263.886 314.471 263.835 314.801 263.801C315.134 263.763 315.376 263.701 315.528 263.614C315.683 263.527 315.761 263.375 315.761 263.159V263.114C315.761 262.553 315.607 262.117 315.301 261.807C314.998 261.496 314.537 261.341 313.92 261.341C313.28 261.341 312.778 261.481 312.414 261.761C312.051 262.042 311.795 262.341 311.647 262.659L310.374 262.205C310.602 261.674 310.905 261.261 311.284 260.966C311.666 260.667 312.083 260.458 312.534 260.341C312.988 260.22 313.435 260.159 313.874 260.159C314.155 260.159 314.477 260.193 314.84 260.261C315.208 260.326 315.562 260.46 315.903 260.665C316.248 260.869 316.534 261.178 316.761 261.591C316.988 262.004 317.102 262.557 317.102 263.25V269H315.761V267.818H315.693C315.602 268.008 315.45 268.21 315.238 268.426C315.026 268.642 314.744 268.826 314.391 268.977C314.039 269.129 313.609 269.205 313.102 269.205ZM313.306 268C313.837 268 314.284 267.896 314.647 267.688C315.015 267.479 315.291 267.21 315.477 266.881C315.666 266.551 315.761 266.205 315.761 265.841V264.614C315.704 264.682 315.579 264.744 315.386 264.801C315.196 264.854 314.977 264.902 314.727 264.943C314.48 264.981 314.24 265.015 314.005 265.045C313.774 265.072 313.587 265.095 313.443 265.114C313.094 265.159 312.768 265.233 312.465 265.335C312.166 265.434 311.924 265.583 311.738 265.784C311.556 265.981 311.465 266.25 311.465 266.591C311.465 267.057 311.638 267.409 311.982 267.648C312.331 267.883 312.772 268 313.306 268ZM318.749 269V260.273H320.045V261.591H320.136C320.295 261.159 320.582 260.809 320.999 260.54C321.416 260.271 321.886 260.136 322.408 260.136C322.507 260.136 322.63 260.138 322.778 260.142C322.925 260.146 323.037 260.152 323.113 260.159V261.523C323.067 261.511 322.963 261.494 322.8 261.472C322.641 261.445 322.473 261.432 322.295 261.432C321.87 261.432 321.492 261.521 321.158 261.699C320.829 261.873 320.567 262.116 320.374 262.426C320.185 262.733 320.09 263.083 320.09 263.477V269H318.749ZM327.182 269.182C326.364 269.182 325.659 268.989 325.068 268.602C324.478 268.216 324.023 267.684 323.705 267.006C323.387 266.328 323.228 265.553 323.228 264.682C323.228 263.795 323.39 263.013 323.716 262.335C324.046 261.653 324.504 261.121 325.091 260.739C325.682 260.352 326.371 260.159 327.159 260.159C327.773 260.159 328.326 260.273 328.818 260.5C329.311 260.727 329.714 261.045 330.029 261.455C330.343 261.864 330.538 262.341 330.614 262.886H329.273C329.171 262.489 328.943 262.136 328.591 261.83C328.243 261.519 327.773 261.364 327.182 261.364C326.659 261.364 326.201 261.5 325.807 261.773C325.417 262.042 325.112 262.422 324.892 262.915C324.676 263.403 324.568 263.977 324.568 264.636C324.568 265.311 324.675 265.898 324.887 266.398C325.103 266.898 325.406 267.286 325.796 267.562C326.19 267.839 326.652 267.977 327.182 267.977C327.531 267.977 327.847 267.917 328.131 267.795C328.415 267.674 328.656 267.5 328.853 267.273C329.05 267.045 329.19 266.773 329.273 266.455H330.614C330.538 266.97 330.351 267.434 330.051 267.847C329.756 268.256 329.364 268.581 328.875 268.824C328.39 269.062 327.826 269.182 327.182 269.182ZM333.115 263.75V269H331.774V257.364H333.115V261.636H333.229C333.433 261.186 333.74 260.828 334.149 260.562C334.562 260.294 335.111 260.159 335.797 260.159C336.392 260.159 336.912 260.278 337.359 260.517C337.806 260.752 338.153 261.114 338.399 261.602C338.649 262.087 338.774 262.705 338.774 263.455V269H337.433V263.545C337.433 262.852 337.253 262.316 336.893 261.938C336.537 261.555 336.043 261.364 335.411 261.364C334.971 261.364 334.577 261.456 334.229 261.642C333.884 261.828 333.611 262.098 333.411 262.455C333.214 262.811 333.115 263.242 333.115 263.75Z" fill="#303030"/>
<g filter="url(#filter4_d_64_1203)">
<rect x="24" y="312" width="360" height="48" rx="16" fill="white"/>
<rect x="24.5" y="312.5" width="359" height="47" rx="15.5" stroke="#303030" stroke-opacity="0.1"/>
</g>
<path d="M41.4091 341V329.364H42.8182V335.136H42.9545L48.1818 329.364H50.0227L45.1364 334.614L50.0227 341H48.3182L44.2727 335.591L42.8182 337.227V341H41.4091ZM53.8832 341.182C53.0423 341.182 52.317 340.996 51.7071 340.625C51.101 340.25 50.6332 339.727 50.3037 339.057C49.9779 338.383 49.8151 337.598 49.8151 336.705C49.8151 335.811 49.9779 335.023 50.3037 334.341C50.6332 333.655 51.0916 333.121 51.6787 332.739C52.2696 332.352 52.959 332.159 53.7469 332.159C54.2014 332.159 54.6503 332.235 55.0935 332.386C55.5366 332.538 55.9401 332.784 56.3037 333.125C56.6673 333.462 56.9571 333.909 57.173 334.466C57.3889 335.023 57.4969 335.708 57.4969 336.523V337.091H50.7696V335.932H56.1332C56.1332 335.439 56.0348 335 55.8378 334.614C55.6446 334.227 55.3681 333.922 55.0082 333.699C54.6522 333.475 54.2317 333.364 53.7469 333.364C53.2128 333.364 52.7507 333.496 52.3605 333.761C51.9741 334.023 51.6768 334.364 51.4685 334.784C51.2601 335.205 51.156 335.655 51.156 336.136V336.909C51.156 337.568 51.2696 338.127 51.4969 338.585C51.7279 339.04 52.048 339.386 52.4571 339.625C52.8662 339.86 53.3416 339.977 53.8832 339.977C54.2355 339.977 54.5537 339.928 54.8378 339.83C55.1257 339.727 55.3738 339.576 55.5821 339.375C55.7904 339.17 55.9514 338.917 56.0651 338.614L57.3605 338.977C57.2241 339.417 56.995 339.803 56.673 340.136C56.351 340.466 55.9533 340.723 55.4798 340.909C55.0063 341.091 54.4741 341.182 53.8832 341.182ZM59.3347 344.273C59.1074 344.273 58.9047 344.254 58.7267 344.216C58.5487 344.182 58.4256 344.148 58.3574 344.114L58.6983 342.932C59.0241 343.015 59.3119 343.045 59.5619 343.023C59.8119 343 60.0335 342.888 60.2267 342.688C60.4237 342.491 60.6036 342.17 60.7665 341.727L61.0165 341.045L57.7892 332.273H59.2437L61.6528 339.227H61.7437L64.1528 332.273H65.6074L61.9028 342.273C61.7362 342.723 61.5297 343.097 61.2835 343.392C61.0373 343.691 60.7513 343.913 60.4256 344.057C60.1036 344.201 59.74 344.273 59.3347 344.273ZM68.5545 341L65.8955 332.273H67.3045L69.1909 338.955H69.2818L71.1455 332.273H72.5773L74.4182 338.932H74.5091L76.3955 332.273H77.8045L75.1455 341H73.8273L71.9182 334.295H71.7818L69.8727 341H68.5545ZM82.0259 341.182C81.238 341.182 80.5467 340.994 79.952 340.619C79.3611 340.244 78.899 339.72 78.5656 339.045C78.2361 338.371 78.0713 337.583 78.0713 336.682C78.0713 335.773 78.2361 334.979 78.5656 334.301C78.899 333.623 79.3611 333.097 79.952 332.722C80.5467 332.347 81.238 332.159 82.0259 332.159C82.8137 332.159 83.5031 332.347 84.094 332.722C84.6887 333.097 85.1509 333.623 85.4804 334.301C85.8137 334.979 85.9804 335.773 85.9804 336.682C85.9804 337.583 85.8137 338.371 85.4804 339.045C85.1509 339.72 84.6887 340.244 84.094 340.619C83.5031 340.994 82.8137 341.182 82.0259 341.182ZM82.0259 339.977C82.6243 339.977 83.1168 339.824 83.5031 339.517C83.8895 339.21 84.1755 338.807 84.3611 338.307C84.5467 337.807 84.6395 337.265 84.6395 336.682C84.6395 336.098 84.5467 335.555 84.3611 335.051C84.1755 334.547 83.8895 334.14 83.5031 333.83C83.1168 333.519 82.6243 333.364 82.0259 333.364C81.4274 333.364 80.9349 333.519 80.5486 333.83C80.1622 334.14 79.8762 334.547 79.6906 335.051C79.505 335.555 79.4122 336.098 79.4122 336.682C79.4122 337.265 79.505 337.807 79.6906 338.307C79.8762 338.807 80.1622 339.21 80.5486 339.517C80.9349 339.824 81.4274 339.977 82.0259 339.977ZM87.2273 341V332.273H88.5227V333.591H88.6136C88.7727 333.159 89.0606 332.809 89.4773 332.54C89.8939 332.271 90.3636 332.136 90.8864 332.136C90.9848 332.136 91.108 332.138 91.2557 332.142C91.4034 332.146 91.5152 332.152 91.5909 332.159V333.523C91.5455 333.511 91.4413 333.494 91.2784 333.472C91.1193 333.445 90.9508 333.432 90.7727 333.432C90.3485 333.432 89.9697 333.521 89.6364 333.699C89.3068 333.873 89.0455 334.116 88.8523 334.426C88.6629 334.733 88.5682 335.083 88.5682 335.477V341H87.2273ZM95.4102 341.182C94.683 341.182 94.0409 340.998 93.4841 340.631C92.9273 340.259 92.4917 339.737 92.1773 339.062C91.8629 338.384 91.7057 337.583 91.7057 336.659C91.7057 335.742 91.8629 334.947 92.1773 334.273C92.4917 333.598 92.9292 333.078 93.4898 332.71C94.0504 332.343 94.6981 332.159 95.433 332.159C96.0011 332.159 96.45 332.254 96.7795 332.443C97.1129 332.629 97.3667 332.841 97.5409 333.08C97.7189 333.314 97.8572 333.508 97.9557 333.659H98.0693V329.364H99.4102V341H98.1148V339.659H97.9557C97.8572 339.818 97.717 340.019 97.5352 340.261C97.3534 340.5 97.0939 340.714 96.7568 340.903C96.4197 341.089 95.9708 341.182 95.4102 341.182ZM95.592 339.977C96.1299 339.977 96.5845 339.837 96.9557 339.557C97.3269 339.273 97.6091 338.881 97.8023 338.381C97.9955 337.877 98.092 337.295 98.092 336.636C98.092 335.985 97.9973 335.415 97.808 334.926C97.6186 334.434 97.3383 334.051 96.967 333.778C96.5958 333.502 96.1375 333.364 95.592 333.364C95.0239 333.364 94.5504 333.509 94.1716 333.801C93.7966 334.089 93.5144 334.481 93.325 334.977C93.1394 335.47 93.0466 336.023 93.0466 336.636C93.0466 337.258 93.1413 337.822 93.3307 338.33C93.5239 338.833 93.808 339.235 94.183 339.534C94.5617 339.83 95.0314 339.977 95.592 339.977ZM105.93 341.091C105.649 341.091 105.409 340.991 105.208 340.79C105.007 340.589 104.907 340.348 104.907 340.068C104.907 339.788 105.007 339.547 105.208 339.347C105.409 339.146 105.649 339.045 105.93 339.045C106.21 339.045 106.45 339.146 106.651 339.347C106.852 339.547 106.952 339.788 106.952 340.068C106.952 340.254 106.905 340.424 106.81 340.58C106.719 340.735 106.596 340.86 106.441 340.955C106.289 341.045 106.119 341.091 105.93 341.091ZM109.536 341.091C109.255 341.091 109.015 340.991 108.814 340.79C108.613 340.589 108.513 340.348 108.513 340.068C108.513 339.788 108.613 339.547 108.814 339.347C109.015 339.146 109.255 339.045 109.536 339.045C109.816 339.045 110.057 339.146 110.257 339.347C110.458 339.547 110.559 339.788 110.559 340.068C110.559 340.254 110.511 340.424 110.416 340.58C110.326 340.735 110.202 340.86 110.047 340.955C109.896 341.045 109.725 341.091 109.536 341.091ZM113.142 341.091C112.862 341.091 112.621 340.991 112.42 340.79C112.22 340.589 112.119 340.348 112.119 340.068C112.119 339.788 112.22 339.547 112.42 339.347C112.621 339.146 112.862 339.045 113.142 339.045C113.422 339.045 113.663 339.146 113.864 339.347C114.064 339.547 114.165 339.788 114.165 340.068C114.165 340.254 114.117 340.424 114.023 340.58C113.932 340.735 113.809 340.86 113.653 340.955C113.502 341.045 113.331 341.091 113.142 341.091Z" fill="#747474"/>
<rect x="267" y="316" width="113" height="40" rx="12" fill="#303030"/>
<path fill-rule="evenodd" clip-rule="evenodd" d="M350.5 327.75C346.772 327.75 343.75 330.772 343.75 334.5C343.75 338.228 346.772 341.25 350.5 341.25C352.364 341.25 354.051 340.495 355.273 339.273C356.495 338.051 357.25 336.364 357.25 334.5C357.25 330.772 354.228 327.75 350.5 327.75ZM342.25 334.5C342.25 329.944 345.944 326.25 350.5 326.25C355.056 326.25 358.75 329.944 358.75 334.5C358.75 336.508 358.032 338.349 356.84 339.779L361.53 344.47C361.823 344.763 361.823 345.237 361.53 345.53C361.237 345.823 360.763 345.823 360.47 345.53L355.779 340.84C354.349 342.032 352.508 342.75 350.5 342.75C345.944 342.75 342.25 339.056 342.25 334.5Z" fill="white"/>
<path d="M291.163 332.273C291.095 331.697 290.819 331.25 290.334 330.932C289.849 330.614 289.254 330.455 288.55 330.455C288.035 330.455 287.584 330.538 287.197 330.705C286.815 330.871 286.516 331.1 286.3 331.392C286.088 331.684 285.982 332.015 285.982 332.386C285.982 332.697 286.055 332.964 286.203 333.188C286.355 333.407 286.548 333.591 286.783 333.739C287.018 333.883 287.264 334.002 287.521 334.097C287.779 334.187 288.016 334.261 288.232 334.318L289.413 334.636C289.716 334.716 290.054 334.826 290.425 334.966C290.8 335.106 291.158 335.297 291.499 335.54C291.843 335.778 292.127 336.085 292.351 336.46C292.574 336.835 292.686 337.295 292.686 337.841C292.686 338.47 292.521 339.038 292.192 339.545C291.866 340.053 291.389 340.456 290.76 340.756C290.135 341.055 289.375 341.205 288.482 341.205C287.648 341.205 286.927 341.07 286.317 340.801C285.711 340.532 285.233 340.157 284.885 339.676C284.54 339.195 284.345 338.636 284.3 338H285.754C285.792 338.439 285.94 338.803 286.197 339.091C286.459 339.375 286.788 339.587 287.186 339.727C287.588 339.864 288.019 339.932 288.482 339.932C289.019 339.932 289.502 339.845 289.93 339.67C290.358 339.492 290.697 339.246 290.947 338.932C291.197 338.614 291.322 338.242 291.322 337.818C291.322 337.432 291.214 337.117 290.999 336.875C290.783 336.633 290.499 336.436 290.146 336.284C289.794 336.133 289.413 336 289.004 335.886L287.572 335.477C286.663 335.216 285.944 334.843 285.413 334.358C284.883 333.873 284.618 333.239 284.618 332.455C284.618 331.803 284.794 331.235 285.146 330.75C285.502 330.261 285.98 329.883 286.578 329.614C287.18 329.341 287.853 329.205 288.595 329.205C289.345 329.205 290.012 329.339 290.595 329.608C291.179 329.873 291.641 330.237 291.982 330.699C292.326 331.161 292.508 331.686 292.527 332.273H291.163ZM297.68 341.182C296.839 341.182 296.114 340.996 295.504 340.625C294.898 340.25 294.43 339.727 294.101 339.057C293.775 338.383 293.612 337.598 293.612 336.705C293.612 335.811 293.775 335.023 294.101 334.341C294.43 333.655 294.888 333.121 295.476 332.739C296.066 332.352 296.756 332.159 297.544 332.159C297.998 332.159 298.447 332.235 298.89 332.386C299.334 332.538 299.737 332.784 300.101 333.125C300.464 333.462 300.754 333.909 300.97 334.466C301.186 335.023 301.294 335.708 301.294 336.523V337.091H294.566V335.932H299.93C299.93 335.439 299.832 335 299.635 334.614C299.441 334.227 299.165 333.922 298.805 333.699C298.449 333.475 298.029 333.364 297.544 333.364C297.01 333.364 296.548 333.496 296.157 333.761C295.771 334.023 295.474 334.364 295.265 334.784C295.057 335.205 294.953 335.655 294.953 336.136V336.909C294.953 337.568 295.066 338.127 295.294 338.585C295.525 339.04 295.845 339.386 296.254 339.625C296.663 339.86 297.138 339.977 297.68 339.977C298.032 339.977 298.351 339.928 298.635 339.83C298.923 339.727 299.171 339.576 299.379 339.375C299.587 339.17 299.748 338.917 299.862 338.614L301.157 338.977C301.021 339.417 300.792 339.803 300.47 340.136C300.148 340.466 299.75 340.723 299.277 340.909C298.803 341.091 298.271 341.182 297.68 341.182ZM305.102 341.205C304.549 341.205 304.047 341.1 303.596 340.892C303.145 340.68 302.787 340.375 302.522 339.977C302.257 339.576 302.124 339.091 302.124 338.523C302.124 338.023 302.223 337.617 302.42 337.307C302.617 336.992 302.88 336.746 303.21 336.568C303.539 336.39 303.903 336.258 304.301 336.17C304.702 336.08 305.105 336.008 305.511 335.955C306.041 335.886 306.471 335.835 306.801 335.801C307.134 335.763 307.376 335.701 307.528 335.614C307.683 335.527 307.761 335.375 307.761 335.159V335.114C307.761 334.553 307.607 334.117 307.301 333.807C306.998 333.496 306.537 333.341 305.92 333.341C305.28 333.341 304.778 333.481 304.414 333.761C304.051 334.042 303.795 334.341 303.647 334.659L302.374 334.205C302.602 333.674 302.905 333.261 303.284 332.966C303.666 332.667 304.083 332.458 304.534 332.341C304.988 332.22 305.435 332.159 305.874 332.159C306.155 332.159 306.477 332.193 306.84 332.261C307.208 332.326 307.562 332.46 307.903 332.665C308.248 332.869 308.534 333.178 308.761 333.591C308.988 334.004 309.102 334.557 309.102 335.25V341H307.761V339.818H307.693C307.602 340.008 307.45 340.21 307.238 340.426C307.026 340.642 306.744 340.826 306.391 340.977C306.039 341.129 305.609 341.205 305.102 341.205ZM305.306 340C305.837 340 306.284 339.896 306.647 339.688C307.015 339.479 307.291 339.21 307.477 338.881C307.666 338.551 307.761 338.205 307.761 337.841V336.614C307.704 336.682 307.579 336.744 307.386 336.801C307.196 336.854 306.977 336.902 306.727 336.943C306.48 336.981 306.24 337.015 306.005 337.045C305.774 337.072 305.587 337.095 305.443 337.114C305.094 337.159 304.768 337.233 304.465 337.335C304.166 337.434 303.924 337.583 303.738 337.784C303.556 337.981 303.465 338.25 303.465 338.591C303.465 339.057 303.638 339.409 303.982 339.648C304.331 339.883 304.772 340 305.306 340ZM310.749 341V332.273H312.045V333.591H312.136C312.295 333.159 312.582 332.809 312.999 332.54C313.416 332.271 313.886 332.136 314.408 332.136C314.507 332.136 314.63 332.138 314.778 332.142C314.925 332.146 315.037 332.152 315.113 332.159V333.523C315.067 333.511 314.963 333.494 314.8 333.472C314.641 333.445 314.473 333.432 314.295 333.432C313.87 333.432 313.492 333.521 313.158 333.699C312.829 333.873 312.567 334.116 312.374 334.426C312.185 334.733 312.09 335.083 312.09 335.477V341H310.749ZM319.182 341.182C318.364 341.182 317.659 340.989 317.068 340.602C316.478 340.216 316.023 339.684 315.705 339.006C315.387 338.328 315.228 337.553 315.228 336.682C315.228 335.795 315.39 335.013 315.716 334.335C316.046 333.653 316.504 333.121 317.091 332.739C317.682 332.352 318.371 332.159 319.159 332.159C319.773 332.159 320.326 332.273 320.818 332.5C321.311 332.727 321.714 333.045 322.029 333.455C322.343 333.864 322.538 334.341 322.614 334.886H321.273C321.171 334.489 320.943 334.136 320.591 333.83C320.243 333.519 319.773 333.364 319.182 333.364C318.659 333.364 318.201 333.5 317.807 333.773C317.417 334.042 317.112 334.422 316.892 334.915C316.676 335.403 316.568 335.977 316.568 336.636C316.568 337.311 316.675 337.898 316.887 338.398C317.103 338.898 317.406 339.286 317.796 339.562C318.19 339.839 318.652 339.977 319.182 339.977C319.531 339.977 319.847 339.917 320.131 339.795C320.415 339.674 320.656 339.5 320.853 339.273C321.05 339.045 321.19 338.773 321.273 338.455H322.614C322.538 338.97 322.351 339.434 322.051 339.847C321.756 340.256 321.364 340.581 320.875 340.824C320.39 341.062 319.826 341.182 319.182 341.182ZM325.115 335.75V341H323.774V329.364H325.115V333.636H325.229C325.433 333.186 325.74 332.828 326.149 332.562C326.562 332.294 327.111 332.159 327.797 332.159C328.392 332.159 328.912 332.278 329.359 332.517C329.806 332.752 330.153 333.114 330.399 333.602C330.649 334.087 330.774 334.705 330.774 335.455V341H329.433V335.545C329.433 334.852 329.253 334.316 328.893 333.938C328.537 333.555 328.043 333.364 327.411 333.364C326.971 333.364 326.577 333.456 326.229 333.642C325.884 333.828 325.611 334.098 325.411 334.455C325.214 334.811 325.115 335.242 325.115 335.75Z" fill="white"/>
<g filter="url(#filter5_d_64_1203)">
<rect x="24" y="384" width="360" height="48" rx="24" fill="white"/>
<rect x="24.5" y="384.5" width="359" height="47" rx="23.5" stroke="#303030" stroke-opacity="0.1"/>
</g>
<path d="M41.4091 413V401.364H42.8182V407.136H42.9545L48.1818 401.364H50.0227L45.1364 406.614L50.0227 413H48.3182L44.2727 407.591L42.8182 409.227V413H41.4091ZM53.8832 413.182C53.0423 413.182 52.317 412.996 51.7071 412.625C51.101 412.25 50.6332 411.727 50.3037 411.057C49.9779 410.383 49.8151 409.598 49.8151 408.705C49.8151 407.811 49.9779 407.023 50.3037 406.341C50.6332 405.655 51.0916 405.121 51.6787 404.739C52.2696 404.352 52.959 404.159 53.7469 404.159C54.2014 404.159 54.6503 404.235 55.0935 404.386C55.5366 404.538 55.9401 404.784 56.3037 405.125C56.6673 405.462 56.9571 405.909 57.173 406.466C57.3889 407.023 57.4969 407.708 57.4969 408.523V409.091H50.7696V407.932H56.1332C56.1332 407.439 56.0348 407 55.8378 406.614C55.6446 406.227 55.3681 405.922 55.0082 405.699C54.6522 405.475 54.2317 405.364 53.7469 405.364C53.2128 405.364 52.7507 405.496 52.3605 405.761C51.9741 406.023 51.6768 406.364 51.4685 406.784C51.2601 407.205 51.156 407.655 51.156 408.136V408.909C51.156 409.568 51.2696 410.127 51.4969 410.585C51.7279 411.04 52.048 411.386 52.4571 411.625C52.8662 411.86 53.3416 411.977 53.8832 411.977C54.2355 411.977 54.5537 411.928 54.8378 411.83C55.1257 411.727 55.3738 411.576 55.5821 411.375C55.7904 411.17 55.9514 410.917 56.0651 410.614L57.3605 410.977C57.2241 411.417 56.995 411.803 56.673 412.136C56.351 412.466 55.9533 412.723 55.4798 412.909C55.0063 413.091 54.4741 413.182 53.8832 413.182ZM59.3347 416.273C59.1074 416.273 58.9047 416.254 58.7267 416.216C58.5487 416.182 58.4256 416.148 58.3574 416.114L58.6983 414.932C59.0241 415.015 59.3119 415.045 59.5619 415.023C59.8119 415 60.0335 414.888 60.2267 414.688C60.4237 414.491 60.6036 414.17 60.7665 413.727L61.0165 413.045L57.7892 404.273H59.2437L61.6528 411.227H61.7437L64.1528 404.273H65.6074L61.9028 414.273C61.7362 414.723 61.5297 415.097 61.2835 415.392C61.0373 415.691 60.7513 415.913 60.4256 416.057C60.1036 416.201 59.74 416.273 59.3347 416.273ZM68.5545 413L65.8955 404.273H67.3045L69.1909 410.955H69.2818L71.1455 404.273H72.5773L74.4182 410.932H74.5091L76.3955 404.273H77.8045L75.1455 413H73.8273L71.9182 406.295H71.7818L69.8727 413H68.5545ZM82.0259 413.182C81.238 413.182 80.5467 412.994 79.952 412.619C79.3611 412.244 78.899 411.72 78.5656 411.045C78.2361 410.371 78.0713 409.583 78.0713 408.682C78.0713 407.773 78.2361 406.979 78.5656 406.301C78.899 405.623 79.3611 405.097 79.952 404.722C80.5467 404.347 81.238 404.159 82.0259 404.159C82.8137 404.159 83.5031 404.347 84.094 404.722C84.6887 405.097 85.1509 405.623 85.4804 406.301C85.8137 406.979 85.9804 407.773 85.9804 408.682C85.9804 409.583 85.8137 410.371 85.4804 411.045C85.1509 411.72 84.6887 412.244 84.094 412.619C83.5031 412.994 82.8137 413.182 82.0259 413.182ZM82.0259 411.977C82.6243 411.977 83.1168 411.824 83.5031 411.517C83.8895 411.21 84.1755 410.807 84.3611 410.307C84.5467 409.807 84.6395 409.265 84.6395 408.682C84.6395 408.098 84.5467 407.555 84.3611 407.051C84.1755 406.547 83.8895 406.14 83.5031 405.83C83.1168 405.519 82.6243 405.364 82.0259 405.364C81.4274 405.364 80.9349 405.519 80.5486 405.83C80.1622 406.14 79.8762 406.547 79.6906 407.051C79.505 407.555 79.4122 408.098 79.4122 408.682C79.4122 409.265 79.505 409.807 79.6906 410.307C79.8762 410.807 80.1622 411.21 80.5486 411.517C80.9349 411.824 81.4274 411.977 82.0259 411.977ZM87.2273 413V404.273H88.5227V405.591H88.6136C88.7727 405.159 89.0606 404.809 89.4773 404.54C89.8939 404.271 90.3636 404.136 90.8864 404.136C90.9848 404.136 91.108 404.138 91.2557 404.142C91.4034 404.146 91.5152 404.152 91.5909 404.159V405.523C91.5455 405.511 91.4413 405.494 91.2784 405.472C91.1193 405.445 90.9508 405.432 90.7727 405.432C90.3485 405.432 89.9697 405.521 89.6364 405.699C89.3068 405.873 89.0455 406.116 88.8523 406.426C88.6629 406.733 88.5682 407.083 88.5682 407.477V413H87.2273ZM95.4102 413.182C94.683 413.182 94.0409 412.998 93.4841 412.631C92.9273 412.259 92.4917 411.737 92.1773 411.062C91.8629 410.384 91.7057 409.583 91.7057 408.659C91.7057 407.742 91.8629 406.947 92.1773 406.273C92.4917 405.598 92.9292 405.078 93.4898 404.71C94.0504 404.343 94.6981 404.159 95.433 404.159C96.0011 404.159 96.45 404.254 96.7795 404.443C97.1129 404.629 97.3667 404.841 97.5409 405.08C97.7189 405.314 97.8572 405.508 97.9557 405.659H98.0693V401.364H99.4102V413H98.1148V411.659H97.9557C97.8572 411.818 97.717 412.019 97.5352 412.261C97.3534 412.5 97.0939 412.714 96.7568 412.903C96.4197 413.089 95.9708 413.182 95.4102 413.182ZM95.592 411.977C96.1299 411.977 96.5845 411.837 96.9557 411.557C97.3269 411.273 97.6091 410.881 97.8023 410.381C97.9955 409.877 98.092 409.295 98.092 408.636C98.092 407.985 97.9973 407.415 97.808 406.926C97.6186 406.434 97.3383 406.051 96.967 405.778C96.5958 405.502 96.1375 405.364 95.592 405.364C95.0239 405.364 94.5504 405.509 94.1716 405.801C93.7966 406.089 93.5144 406.481 93.325 406.977C93.1394 407.47 93.0466 408.023 93.0466 408.636C93.0466 409.258 93.1413 409.822 93.3307 410.33C93.5239 410.833 93.808 411.235 94.183 411.534C94.5617 411.83 95.0314 411.977 95.592 411.977ZM105.93 413.091C105.649 413.091 105.409 412.991 105.208 412.79C105.007 412.589 104.907 412.348 104.907 412.068C104.907 411.788 105.007 411.547 105.208 411.347C105.409 411.146 105.649 411.045 105.93 411.045C106.21 411.045 106.45 411.146 106.651 411.347C106.852 411.547 106.952 411.788 106.952 412.068C106.952 412.254 106.905 412.424 106.81 412.58C106.719 412.735 106.596 412.86 106.441 412.955C106.289 413.045 106.119 413.091 105.93 413.091ZM109.536 413.091C109.255 413.091 109.015 412.991 108.814 412.79C108.613 412.589 108.513 412.348 108.513 412.068C108.513 411.788 108.613 411.547 108.814 411.347C109.015 411.146 109.255 411.045 109.536 411.045C109.816 411.045 110.057 411.146 110.257 411.347C110.458 411.547 110.559 411.788 110.559 412.068C110.559 412.254 110.511 412.424 110.416 412.58C110.326 412.735 110.202 412.86 110.047 412.955C109.896 413.045 109.725 413.091 109.536 413.091ZM113.142 413.091C112.862 413.091 112.621 412.991 112.42 412.79C112.22 412.589 112.119 412.348 112.119 412.068C112.119 411.788 112.22 411.547 112.42 411.347C112.621 411.146 112.862 411.045 113.142 411.045C113.422 411.045 113.663 411.146 113.864 411.347C114.064 411.547 114.165 411.788 114.165 412.068C114.165 412.254 114.117 412.424 114.023 412.58C113.932 412.735 113.809 412.86 113.653 412.955C113.502 413.045 113.331 413.091 113.142 413.091Z" fill="#747474"/>
<path fill-rule="evenodd" clip-rule="evenodd" d="M358.5 399.75C354.772 399.75 351.75 402.772 351.75 406.5C351.75 410.228 354.772 413.25 358.5 413.25C360.364 413.25 362.051 412.495 363.273 411.273C364.495 410.051 365.25 408.364 365.25 406.5C365.25 402.772 362.228 399.75 358.5 399.75ZM350.25 406.5C350.25 401.944 353.944 398.25 358.5 398.25C363.056 398.25 366.75 401.944 366.75 406.5C366.75 408.508 366.032 410.349 364.84 411.779L369.53 416.47C369.823 416.763 369.823 417.237 369.53 417.53C369.237 417.823 368.763 417.823 368.47 417.53L363.779 412.84C362.349 414.032 360.508 414.75 358.5 414.75C353.944 414.75 350.25 411.056 350.25 406.5Z" fill="#303030"/>
<path d="M299.163 404.273C299.095 403.697 298.819 403.25 298.334 402.932C297.849 402.614 297.254 402.455 296.55 402.455C296.035 402.455 295.584 402.538 295.197 402.705C294.815 402.871 294.516 403.1 294.3 403.392C294.088 403.684 293.982 404.015 293.982 404.386C293.982 404.697 294.055 404.964 294.203 405.188C294.355 405.407 294.548 405.591 294.783 405.739C295.018 405.883 295.264 406.002 295.521 406.097C295.779 406.187 296.016 406.261 296.232 406.318L297.413 406.636C297.716 406.716 298.054 406.826 298.425 406.966C298.8 407.106 299.158 407.297 299.499 407.54C299.843 407.778 300.127 408.085 300.351 408.46C300.574 408.835 300.686 409.295 300.686 409.841C300.686 410.47 300.521 411.038 300.192 411.545C299.866 412.053 299.389 412.456 298.76 412.756C298.135 413.055 297.375 413.205 296.482 413.205C295.648 413.205 294.927 413.07 294.317 412.801C293.711 412.532 293.233 412.157 292.885 411.676C292.54 411.195 292.345 410.636 292.3 410H293.754C293.792 410.439 293.94 410.803 294.197 411.091C294.459 411.375 294.788 411.587 295.186 411.727C295.588 411.864 296.019 411.932 296.482 411.932C297.019 411.932 297.502 411.845 297.93 411.67C298.358 411.492 298.697 411.246 298.947 410.932C299.197 410.614 299.322 410.242 299.322 409.818C299.322 409.432 299.214 409.117 298.999 408.875C298.783 408.633 298.499 408.436 298.146 408.284C297.794 408.133 297.413 408 297.004 407.886L295.572 407.477C294.663 407.216 293.944 406.843 293.413 406.358C292.883 405.873 292.618 405.239 292.618 404.455C292.618 403.803 292.794 403.235 293.146 402.75C293.502 402.261 293.98 401.883 294.578 401.614C295.18 401.341 295.853 401.205 296.595 401.205C297.345 401.205 298.012 401.339 298.595 401.608C299.179 401.873 299.641 402.237 299.982 402.699C300.326 403.161 300.508 403.686 300.527 404.273H299.163ZM305.68 413.182C304.839 413.182 304.114 412.996 303.504 412.625C302.898 412.25 302.43 411.727 302.101 411.057C301.775 410.383 301.612 409.598 301.612 408.705C301.612 407.811 301.775 407.023 302.101 406.341C302.43 405.655 302.888 405.121 303.476 404.739C304.066 404.352 304.756 404.159 305.544 404.159C305.998 404.159 306.447 404.235 306.89 404.386C307.334 404.538 307.737 404.784 308.101 405.125C308.464 405.462 308.754 405.909 308.97 406.466C309.186 407.023 309.294 407.708 309.294 408.523V409.091H302.566V407.932H307.93C307.93 407.439 307.832 407 307.635 406.614C307.441 406.227 307.165 405.922 306.805 405.699C306.449 405.475 306.029 405.364 305.544 405.364C305.01 405.364 304.548 405.496 304.157 405.761C303.771 406.023 303.474 406.364 303.265 406.784C303.057 407.205 302.953 407.655 302.953 408.136V408.909C302.953 409.568 303.066 410.127 303.294 410.585C303.525 411.04 303.845 411.386 304.254 411.625C304.663 411.86 305.138 411.977 305.68 411.977C306.032 411.977 306.351 411.928 306.635 411.83C306.923 411.727 307.171 411.576 307.379 411.375C307.587 411.17 307.748 410.917 307.862 410.614L309.157 410.977C309.021 411.417 308.792 411.803 308.47 412.136C308.148 412.466 307.75 412.723 307.277 412.909C306.803 413.091 306.271 413.182 305.68 413.182ZM313.102 413.205C312.549 413.205 312.047 413.1 311.596 412.892C311.145 412.68 310.787 412.375 310.522 411.977C310.257 411.576 310.124 411.091 310.124 410.523C310.124 410.023 310.223 409.617 310.42 409.307C310.617 408.992 310.88 408.746 311.21 408.568C311.539 408.39 311.903 408.258 312.301 408.17C312.702 408.08 313.105 408.008 313.511 407.955C314.041 407.886 314.471 407.835 314.801 407.801C315.134 407.763 315.376 407.701 315.528 407.614C315.683 407.527 315.761 407.375 315.761 407.159V407.114C315.761 406.553 315.607 406.117 315.301 405.807C314.998 405.496 314.537 405.341 313.92 405.341C313.28 405.341 312.778 405.481 312.414 405.761C312.051 406.042 311.795 406.341 311.647 406.659L310.374 406.205C310.602 405.674 310.905 405.261 311.284 404.966C311.666 404.667 312.083 404.458 312.534 404.341C312.988 404.22 313.435 404.159 313.874 404.159C314.155 404.159 314.477 404.193 314.84 404.261C315.208 404.326 315.562 404.46 315.903 404.665C316.248 404.869 316.534 405.178 316.761 405.591C316.988 406.004 317.102 406.557 317.102 407.25V413H315.761V411.818H315.693C315.602 412.008 315.45 412.21 315.238 412.426C315.026 412.642 314.744 412.826 314.391 412.977C314.039 413.129 313.609 413.205 313.102 413.205ZM313.306 412C313.837 412 314.284 411.896 314.647 411.688C315.015 411.479 315.291 411.21 315.477 410.881C315.666 410.551 315.761 410.205 315.761 409.841V408.614C315.704 408.682 315.579 408.744 315.386 408.801C315.196 408.854 314.977 408.902 314.727 408.943C314.48 408.981 314.24 409.015 314.005 409.045C313.774 409.072 313.587 409.095 313.443 409.114C313.094 409.159 312.768 409.233 312.465 409.335C312.166 409.434 311.924 409.583 311.738 409.784C311.556 409.981 311.465 410.25 311.465 410.591C311.465 411.057 311.638 411.409 311.982 411.648C312.331 411.883 312.772 412 313.306 412ZM318.749 413V404.273H320.045V405.591H320.136C320.295 405.159 320.582 404.809 320.999 404.54C321.416 404.271 321.886 404.136 322.408 404.136C322.507 404.136 322.63 404.138 322.778 404.142C322.925 404.146 323.037 404.152 323.113 404.159V405.523C323.067 405.511 322.963 405.494 322.8 405.472C322.641 405.445 322.473 405.432 322.295 405.432C321.87 405.432 321.492 405.521 321.158 405.699C320.829 405.873 320.567 406.116 320.374 406.426C320.185 406.733 320.09 407.083 320.09 407.477V413H318.749ZM327.182 413.182C326.364 413.182 325.659 412.989 325.068 412.602C324.478 412.216 324.023 411.684 323.705 411.006C323.387 410.328 323.228 409.553 323.228 408.682C323.228 407.795 323.39 407.013 323.716 406.335C324.046 405.653 324.504 405.121 325.091 404.739C325.682 404.352 326.371 404.159 327.159 404.159C327.773 404.159 328.326 404.273 328.818 404.5C329.311 404.727 329.714 405.045 330.029 405.455C330.343 405.864 330.538 406.341 330.614 406.886H329.273C329.171 406.489 328.943 406.136 328.591 405.83C328.243 405.519 327.773 405.364 327.182 405.364C326.659 405.364 326.201 405.5 325.807 405.773C325.417 406.042 325.112 406.422 324.892 406.915C324.676 407.403 324.568 407.977 324.568 408.636C324.568 409.311 324.675 409.898 324.887 410.398C325.103 410.898 325.406 411.286 325.796 411.562C326.19 411.839 326.652 411.977 327.182 411.977C327.531 411.977 327.847 411.917 328.131 411.795C328.415 411.674 328.656 411.5 328.853 411.273C329.05 411.045 329.19 410.773 329.273 410.455H330.614C330.538 410.97 330.351 411.434 330.051 411.847C329.756 412.256 329.364 412.581 328.875 412.824C328.39 413.062 327.826 413.182 327.182 413.182ZM333.115 407.75V413H331.774V401.364H333.115V405.636H333.229C333.433 405.186 333.74 404.828 334.149 404.562C334.562 404.294 335.111 404.159 335.797 404.159C336.392 404.159 336.912 404.278 337.359 404.517C337.806 404.752 338.153 405.114 338.399 405.602C338.649 406.087 338.774 406.705 338.774 407.455V413H337.433V407.545C337.433 406.852 337.253 406.316 336.893 405.938C336.537 405.555 336.043 405.364 335.411 405.364C334.971 405.364 334.577 405.456 334.229 405.642C333.884 405.828 333.611 406.098 333.411 406.455C333.214 406.811 333.115 407.242 333.115 407.75Z" fill="#303030"/>
<rect x="0.5" y="0.5" width="407" height="455" rx="7.5" stroke="white" stroke-opacity="0.1"/>
<defs>
<filter id="filter0_d_64_1203" x="20" y="22" width="368" height="56" filterUnits="userSpaceOnUse" color-interpolation-filters="sRGB">
<feFlood flood-opacity="0" result="BackgroundImageFix"/>
<feColorMatrix in="SourceAlpha" type="matrix" values="0 0 0 0 0 0 0 0 0 0 0 0 0 0 0 0 0 0 127 0" result="hardAlpha"/>
<feOffset dy="2"/>
<feGaussianBlur stdDeviation="2"/>
<feComposite in2="hardAlpha" operator="out"/>
<feColorMatrix type="matrix" values="0 0 0 0 0 0 0 0 0 0 0 0 0 0 0 0 0 0 0.2 0"/>
<feBlend mode="normal" in2="BackgroundImageFix" result="effect1_dropShadow_64_1203"/>
<feBlend mode="normal" in="SourceGraphic" in2="effect1_dropShadow_64_1203" result="shape"/>
</filter>
<filter id="filter1_d_64_1203" x="20" y="94" width="368" height="56" filterUnits="userSpaceOnUse" color-interpolation-filters="sRGB">
<feFlood flood-opacity="0" result="BackgroundImageFix"/>
<feColorMatrix in="SourceAlpha" type="matrix" values="0 0 0 0 0 0 0 0 0 0 0 0 0 0 0 0 0 0 127 0" result="hardAlpha"/>
<feOffset dy="2"/>
<feGaussianBlur stdDeviation="2"/>
<feComposite in2="hardAlpha" operator="out"/>
<feColorMatrix type="matrix" values="0 0 0 0 0 0 0 0 0 0 0 0 0 0 0 0 0 0 0.2 0"/>
<feBlend mode="normal" in2="BackgroundImageFix" result="effect1_dropShadow_64_1203"/>
<feBlend mode="normal" in="SourceGraphic" in2="effect1_dropShadow_64_1203" result="shape"/>
</filter>
<filter id="filter2_d_64_1203" x="20" y="166" width="368" height="56" filterUnits="userSpaceOnUse" color-interpolation-filters="sRGB">
<feFlood flood-opacity="0" result="BackgroundImageFix"/>
<feColorMatrix in="SourceAlpha" type="matrix" values="0 0 0 0 0 0 0 0 0 0 0 0 0 0 0 0 0 0 127 0" result="hardAlpha"/>
<feOffset dy="2"/>
<feGaussianBlur stdDeviation="2"/>
<feComposite in2="hardAlpha" operator="out"/>
<feColorMatrix type="matrix" values="0 0 0 0 0 0 0 0 0 0 0 0 0 0 0 0 0 0 0.2 0"/>
<feBlend mode="normal" in2="BackgroundImageFix" result="effect1_dropShadow_64_1203"/>
<feBlend mode="normal" in="SourceGraphic" in2="effect1_dropShadow_64_1203" result="shape"/>
</filter>
<filter id="filter3_d_64_1203" x="20" y="238" width="368" height="56" filterUnits="userSpaceOnUse" color-interpolation-filters="sRGB">
<feFlood flood-opacity="0" result="BackgroundImageFix"/>
<feColorMatrix in="SourceAlpha" type="matrix" values="0 0 0 0 0 0 0 0 0 0 0 0 0 0 0 0 0 0 127 0" result="hardAlpha"/>
<feOffset dy="2"/>
<feGaussianBlur stdDeviation="2"/>
<feComposite in2="hardAlpha" operator="out"/>
<feColorMatrix type="matrix" values="0 0 0 0 0 0 0 0 0 0 0 0 0 0 0 0 0 0 0.2 0"/>
<feBlend mode="normal" in2="BackgroundImageFix" result="effect1_dropShadow_64_1203"/>
<feBlend mode="normal" in="SourceGraphic" in2="effect1_dropShadow_64_1203" result="shape"/>
</filter>
<filter id="filter4_d_64_1203" x="20" y="310" width="368" height="56" filterUnits="userSpaceOnUse" color-interpolation-filters="sRGB">
<feFlood flood-opacity="0" result="BackgroundImageFix"/>
<feColorMatrix in="SourceAlpha" type="matrix" values="0 0 0 0 0 0 0 0 0 0 0 0 0 0 0 0 0 0 127 0" result="hardAlpha"/>
<feOffset dy="2"/>
<feGaussianBlur stdDeviation="2"/>
<feComposite in2="hardAlpha" operator="out"/>
<feColorMatrix type="matrix" values="0 0 0 0 0 0 0 0 0 0 0 0 0 0 0 0 0 0 0.2 0"/>
<feBlend mode="normal" in2="BackgroundImageFix" result="effect1_dropShadow_64_1203"/>
<feBlend mode="normal" in="SourceGraphic" in2="effect1_dropShadow_64_1203" result="shape"/>
</filter>
<filter id="filter5_d_64_1203" x="20" y="382" width="368" height="56" filterUnits="userSpaceOnUse" color-interpolation-filters="sRGB">
<feFlood flood-opacity="0" result="BackgroundImageFix"/>
<feColorMatrix in="SourceAlpha" type="matrix" values="0 0 0 0 0 0 0 0 0 0 0 0 0 0 0 0 0 0 127 0" result="hardAlpha"/>
<feOffset dy="2"/>
<feGaussianBlur stdDeviation="2"/>
<feComposite in2="hardAlpha" operator="out"/>
<feColorMatrix type="matrix" values="0 0 0 0 0 0 0 0 0 0 0 0 0 0 0 0 0 0 0.2 0"/>
<feBlend mode="normal" in2="BackgroundImageFix" result="effect1_dropShadow_64_1203"/>
<feBlend mode="normal" in="SourceGraphic" in2="effect1_dropShadow_64_1203" result="shape"/>
</filter>
</defs>
</svg>
