<svg width="408" height="456" viewBox="0 0 408 456" fill="none" xmlns="http://www.w3.org/2000/svg">
<rect width="408" height="456" rx="8" fill="#F0F0F0"/>
<g filter="url(#filter0_d_64_1279)">
<rect x="24" y="24" width="312" height="48" rx="8" fill="white"/>
<rect x="24.5" y="24.5" width="311" height="47" rx="7.5" stroke="#303030" stroke-opacity="0.1"/>
</g>
<path d="M41.6171 53V41.3636H43.0262V47.1364H43.1626L48.3898 41.3636H50.2307L45.3444 46.6136L50.2307 53H48.5262L44.4807 47.5909L43.0262 49.2273V53H41.6171ZM54.0912 53.1818C53.2503 53.1818 52.525 52.9962 51.9151 52.625C51.309 52.25 50.8412 51.7273 50.5117 51.0568C50.1859 50.3826 50.0231 49.5985 50.0231 48.7045C50.0231 47.8106 50.1859 47.0227 50.5117 46.3409C50.8412 45.6553 51.2996 45.1212 51.8867 44.7386C52.4776 44.3523 53.167 44.1591 53.9549 44.1591C54.4094 44.1591 54.8583 44.2348 55.3015 44.3864C55.7447 44.5379 56.1481 44.7841 56.5117 45.125C56.8753 45.4621 57.1651 45.9091 57.381 46.4659C57.5969 47.0227 57.7049 47.7083 57.7049 48.5227V49.0909H50.9776V47.9318H56.3412C56.3412 47.4394 56.2428 47 56.0458 46.6136C55.8526 46.2273 55.5761 45.9223 55.2162 45.6989C54.8602 45.4754 54.4397 45.3636 53.9549 45.3636C53.4208 45.3636 52.9587 45.4962 52.5685 45.7614C52.1822 46.0227 51.8848 46.3636 51.6765 46.7841C51.4681 47.2045 51.364 47.6553 51.364 48.1364V48.9091C51.364 49.5682 51.4776 50.1269 51.7049 50.5852C51.9359 51.0398 52.256 51.3864 52.6651 51.625C53.0742 51.8598 53.5496 51.9773 54.0912 51.9773C54.4435 51.9773 54.7617 51.928 55.0458 51.8295C55.3337 51.7273 55.5818 51.5758 55.7901 51.375C55.9984 51.1705 56.1594 50.9167 56.2731 50.6136L57.5685 50.9773C57.4322 51.4167 57.203 51.803 56.881 52.1364C56.559 52.4659 56.1613 52.7235 55.6878 52.9091C55.2144 53.0909 54.6822 53.1818 54.0912 53.1818ZM59.5427 56.2727C59.3154 56.2727 59.1127 56.2538 58.9347 56.2159C58.7567 56.1818 58.6336 56.1477 58.5654 56.1136L58.9063 54.9318C59.2321 55.0152 59.5199 55.0455 59.7699 55.0227C60.0199 55 60.2415 54.8883 60.4347 54.6875C60.6317 54.4905 60.8116 54.1705 60.9745 53.7273L61.2245 53.0455L57.9972 44.2727H59.4518L61.8608 51.2273H61.9518L64.3608 44.2727H65.8154L62.1108 54.2727C61.9442 54.7235 61.7377 55.0966 61.4915 55.392C61.2453 55.6913 60.9593 55.9129 60.6336 56.0568C60.3116 56.2008 59.948 56.2727 59.5427 56.2727ZM68.7626 53L66.1035 44.2727H67.5126L69.3989 50.9545H69.4898L71.3535 44.2727H72.7853L74.6262 50.9318H74.7171L76.6035 44.2727H78.0126L75.3535 53H74.0353L72.1262 46.2955H71.9898L70.0807 53H68.7626ZM82.2339 53.1818C81.446 53.1818 80.7547 52.9943 80.16 52.6193C79.5691 52.2443 79.107 51.7197 78.7736 51.0455C78.4441 50.3712 78.2793 49.5833 78.2793 48.6818C78.2793 47.7727 78.4441 46.9792 78.7736 46.3011C79.107 45.6231 79.5691 45.0966 80.16 44.7216C80.7547 44.3466 81.446 44.1591 82.2339 44.1591C83.0217 44.1591 83.7111 44.3466 84.302 44.7216C84.8967 45.0966 85.3589 45.6231 85.6884 46.3011C86.0217 46.9792 86.1884 47.7727 86.1884 48.6818C86.1884 49.5833 86.0217 50.3712 85.6884 51.0455C85.3589 51.7197 84.8967 52.2443 84.302 52.6193C83.7111 52.9943 83.0217 53.1818 82.2339 53.1818ZM82.2339 51.9773C82.8323 51.9773 83.3248 51.8239 83.7111 51.517C84.0975 51.2102 84.3835 50.8068 84.5691 50.3068C84.7547 49.8068 84.8475 49.2652 84.8475 48.6818C84.8475 48.0985 84.7547 47.5549 84.5691 47.0511C84.3835 46.5473 84.0975 46.1402 83.7111 45.8295C83.3248 45.5189 82.8323 45.3636 82.2339 45.3636C81.6354 45.3636 81.143 45.5189 80.7566 45.8295C80.3702 46.1402 80.0842 46.5473 79.8986 47.0511C79.713 47.5549 79.6202 48.0985 79.6202 48.6818C79.6202 49.2652 79.713 49.8068 79.8986 50.3068C80.0842 50.8068 80.3702 51.2102 80.7566 51.517C81.143 51.8239 81.6354 51.9773 82.2339 51.9773ZM87.4353 53V44.2727H88.7307V45.5909H88.8216C88.9807 45.1591 89.2686 44.8087 89.6853 44.5398C90.1019 44.2708 90.5716 44.1364 91.0944 44.1364C91.1929 44.1364 91.316 44.1383 91.4637 44.142C91.6114 44.1458 91.7232 44.1515 91.7989 44.1591V45.5227C91.7535 45.5114 91.6493 45.4943 91.4864 45.4716C91.3273 45.4451 91.1588 45.4318 90.9807 45.4318C90.5565 45.4318 90.1777 45.5208 89.8444 45.6989C89.5148 45.8731 89.2535 46.1155 89.0603 46.4261C88.8709 46.733 88.7762 47.0833 88.7762 47.4773V53H87.4353ZM95.6182 53.1818C94.891 53.1818 94.2489 52.9981 93.6921 52.6307C93.1353 52.2595 92.6997 51.7367 92.3853 51.0625C92.0709 50.3845 91.9137 49.5833 91.9137 48.6591C91.9137 47.7424 92.0709 46.947 92.3853 46.2727C92.6997 45.5985 93.1372 45.0777 93.6978 44.7102C94.2584 44.3428 94.9061 44.1591 95.641 44.1591C96.2091 44.1591 96.658 44.2538 96.9876 44.4432C97.3209 44.6288 97.5747 44.8409 97.7489 45.0795C97.9269 45.3144 98.0652 45.5076 98.1637 45.6591H98.2773V41.3636H99.6182V53H98.3228V51.6591H98.1637C98.0652 51.8182 97.9251 52.0189 97.7432 52.2614C97.5614 52.5 97.3019 52.714 96.9648 52.9034C96.6277 53.089 96.1788 53.1818 95.6182 53.1818ZM95.8001 51.9773C96.3379 51.9773 96.7925 51.8371 97.1637 51.5568C97.5349 51.2727 97.8171 50.8807 98.0103 50.3807C98.2035 49.8769 98.3001 49.2955 98.3001 48.6364C98.3001 47.9848 98.2054 47.4148 98.016 46.9261C97.8266 46.4337 97.5463 46.0511 97.1751 45.7784C96.8038 45.5019 96.3455 45.3636 95.8001 45.3636C95.2319 45.3636 94.7584 45.5095 94.3796 45.8011C94.0046 46.089 93.7224 46.4811 93.533 46.9773C93.3474 47.4697 93.2546 48.0227 93.2546 48.6364C93.2546 49.2576 93.3493 49.822 93.5387 50.3295C93.7319 50.8333 94.016 51.2348 94.391 51.5341C94.7698 51.8295 95.2394 51.9773 95.8001 51.9773ZM106.138 53.0909C105.857 53.0909 105.617 52.9905 105.416 52.7898C105.215 52.589 105.115 52.3485 105.115 52.0682C105.115 51.7879 105.215 51.5473 105.416 51.3466C105.617 51.1458 105.857 51.0455 106.138 51.0455C106.418 51.0455 106.658 51.1458 106.859 51.3466C107.06 51.5473 107.16 51.7879 107.16 52.0682C107.16 52.2538 107.113 52.4242 107.018 52.5795C106.927 52.7348 106.804 52.8598 106.649 52.9545C106.497 53.0455 106.327 53.0909 106.138 53.0909ZM109.744 53.0909C109.464 53.0909 109.223 52.9905 109.022 52.7898C108.821 52.589 108.721 52.3485 108.721 52.0682C108.721 51.7879 108.821 51.5473 109.022 51.3466C109.223 51.1458 109.464 51.0455 109.744 51.0455C110.024 51.0455 110.265 51.1458 110.465 51.3466C110.666 51.5473 110.767 51.7879 110.767 52.0682C110.767 52.2538 110.719 52.4242 110.624 52.5795C110.534 52.7348 110.41 52.8598 110.255 52.9545C110.104 53.0455 109.933 53.0909 109.744 53.0909ZM113.35 53.0909C113.07 53.0909 112.829 52.9905 112.628 52.7898C112.428 52.589 112.327 52.3485 112.327 52.0682C112.327 51.7879 112.428 51.5473 112.628 51.3466C112.829 51.1458 113.07 51.0455 113.35 51.0455C113.63 51.0455 113.871 51.1458 114.072 51.3466C114.272 51.5473 114.373 51.7879 114.373 52.0682C114.373 52.2538 114.325 52.4242 114.231 52.5795C114.14 52.7348 114.017 52.8598 113.861 52.9545C113.71 53.0455 113.539 53.0909 113.35 53.0909Z" fill="#747474"/>
<path fill-rule="evenodd" clip-rule="evenodd" d="M362.5 39.75C358.772 39.75 355.75 42.7721 355.75 46.5C355.75 50.2279 358.772 53.25 362.5 53.25C364.364 53.25 366.051 52.4953 367.273 51.273C368.495 50.0506 369.25 48.3642 369.25 46.5C369.25 42.7721 366.228 39.75 362.5 39.75ZM354.25 46.5C354.25 41.9436 357.944 38.25 362.5 38.25C367.056 38.25 370.75 41.9436 370.75 46.5C370.75 48.5078 370.032 50.3491 368.84 51.7793L373.53 56.4697C373.823 56.7626 373.823 57.2374 373.53 57.5303C373.237 57.8232 372.763 57.8232 372.47 57.5303L367.779 52.8399C366.349 54.032 364.508 54.75 362.5 54.75C357.944 54.75 354.25 51.0563 354.25 46.5Z" fill="#303030"/>
<g filter="url(#filter1_d_64_1279)">
<rect x="24" y="96" width="312" height="48" rx="24" fill="white"/>
<rect x="24.5" y="96.5" width="311" height="47" rx="23.5" stroke="#303030" stroke-opacity="0.1"/>
</g>
<path fill-rule="evenodd" clip-rule="evenodd" d="M43 114.75C43 114.336 43.3358 114 43.75 114H60.25C60.6642 114 61 114.336 61 114.75C61 115.164 60.6642 115.5 60.25 115.5H43.75C43.3358 115.5 43 115.164 43 114.75ZM43 120C43 119.586 43.3358 119.25 43.75 119.25H60.25C60.6642 119.25 61 119.586 61 120C61 120.414 60.6642 120.75 60.25 120.75H43.75C43.3358 120.75 43 120.414 43 120ZM43 125.25C43 124.836 43.3358 124.5 43.75 124.5H60.25C60.6642 124.5 61 124.836 61 125.25C61 125.664 60.6642 126 60.25 126H43.75C43.3358 126 43 125.664 43 125.25Z" fill="#303030"/>
<path d="M73.4091 125V113.364H74.8182V119.136H74.9545L80.1818 113.364H82.0227L77.1364 118.614L82.0227 125H80.3182L76.2727 119.591L74.8182 121.227V125H73.4091ZM85.8832 125.182C85.0423 125.182 84.317 124.996 83.7071 124.625C83.101 124.25 82.6332 123.727 82.3037 123.057C81.9779 122.383 81.8151 121.598 81.8151 120.705C81.8151 119.811 81.9779 119.023 82.3037 118.341C82.6332 117.655 83.0916 117.121 83.6787 116.739C84.2696 116.352 84.959 116.159 85.7469 116.159C86.2014 116.159 86.6503 116.235 87.0935 116.386C87.5366 116.538 87.9401 116.784 88.3037 117.125C88.6673 117.462 88.9571 117.909 89.173 118.466C89.3889 119.023 89.4969 119.708 89.4969 120.523V121.091H82.7696V119.932H88.1332C88.1332 119.439 88.0348 119 87.8378 118.614C87.6446 118.227 87.3681 117.922 87.0082 117.699C86.6522 117.475 86.2317 117.364 85.7469 117.364C85.2128 117.364 84.7507 117.496 84.3605 117.761C83.9741 118.023 83.6768 118.364 83.4685 118.784C83.2601 119.205 83.156 119.655 83.156 120.136V120.909C83.156 121.568 83.2696 122.127 83.4969 122.585C83.7279 123.04 84.048 123.386 84.4571 123.625C84.8662 123.86 85.3416 123.977 85.8832 123.977C86.2355 123.977 86.5537 123.928 86.8378 123.83C87.1257 123.727 87.3738 123.576 87.5821 123.375C87.7904 123.17 87.9514 122.917 88.0651 122.614L89.3605 122.977C89.2241 123.417 88.995 123.803 88.673 124.136C88.351 124.466 87.9533 124.723 87.4798 124.909C87.0063 125.091 86.4741 125.182 85.8832 125.182ZM91.3347 128.273C91.1074 128.273 90.9047 128.254 90.7267 128.216C90.5487 128.182 90.4256 128.148 90.3574 128.114L90.6983 126.932C91.0241 127.015 91.3119 127.045 91.5619 127.023C91.8119 127 92.0335 126.888 92.2267 126.688C92.4237 126.491 92.6036 126.17 92.7665 125.727L93.0165 125.045L89.7892 116.273H91.2437L93.6528 123.227H93.7437L96.1528 116.273H97.6074L93.9028 126.273C93.7362 126.723 93.5297 127.097 93.2835 127.392C93.0373 127.691 92.7513 127.913 92.4256 128.057C92.1036 128.201 91.74 128.273 91.3347 128.273ZM100.555 125L97.8955 116.273H99.3045L101.191 122.955H101.282L103.145 116.273H104.577L106.418 122.932H106.509L108.395 116.273H109.805L107.145 125H105.827L103.918 118.295H103.782L101.873 125H100.555ZM114.026 125.182C113.238 125.182 112.547 124.994 111.952 124.619C111.361 124.244 110.899 123.72 110.566 123.045C110.236 122.371 110.071 121.583 110.071 120.682C110.071 119.773 110.236 118.979 110.566 118.301C110.899 117.623 111.361 117.097 111.952 116.722C112.547 116.347 113.238 116.159 114.026 116.159C114.814 116.159 115.503 116.347 116.094 116.722C116.689 117.097 117.151 117.623 117.48 118.301C117.814 118.979 117.98 119.773 117.98 120.682C117.98 121.583 117.814 122.371 117.48 123.045C117.151 123.72 116.689 124.244 116.094 124.619C115.503 124.994 114.814 125.182 114.026 125.182ZM114.026 123.977C114.624 123.977 115.117 123.824 115.503 123.517C115.889 123.21 116.175 122.807 116.361 122.307C116.547 121.807 116.639 121.265 116.639 120.682C116.639 120.098 116.547 119.555 116.361 119.051C116.175 118.547 115.889 118.14 115.503 117.83C115.117 117.519 114.624 117.364 114.026 117.364C113.427 117.364 112.935 117.519 112.549 117.83C112.162 118.14 111.876 118.547 111.691 119.051C111.505 119.555 111.412 120.098 111.412 120.682C111.412 121.265 111.505 121.807 111.691 122.307C111.876 122.807 112.162 123.21 112.549 123.517C112.935 123.824 113.427 123.977 114.026 123.977ZM119.227 125V116.273H120.523V117.591H120.614C120.773 117.159 121.061 116.809 121.477 116.54C121.894 116.271 122.364 116.136 122.886 116.136C122.985 116.136 123.108 116.138 123.256 116.142C123.403 116.146 123.515 116.152 123.591 116.159V117.523C123.545 117.511 123.441 117.494 123.278 117.472C123.119 117.445 122.951 117.432 122.773 117.432C122.348 117.432 121.97 117.521 121.636 117.699C121.307 117.873 121.045 118.116 120.852 118.426C120.663 118.733 120.568 119.083 120.568 119.477V125H119.227ZM127.41 125.182C126.683 125.182 126.041 124.998 125.484 124.631C124.927 124.259 124.492 123.737 124.177 123.062C123.863 122.384 123.706 121.583 123.706 120.659C123.706 119.742 123.863 118.947 124.177 118.273C124.492 117.598 124.929 117.078 125.49 116.71C126.05 116.343 126.698 116.159 127.433 116.159C128.001 116.159 128.45 116.254 128.78 116.443C129.113 116.629 129.367 116.841 129.541 117.08C129.719 117.314 129.857 117.508 129.956 117.659H130.069V113.364H131.41V125H130.115V123.659H129.956C129.857 123.818 129.717 124.019 129.535 124.261C129.353 124.5 129.094 124.714 128.757 124.903C128.42 125.089 127.971 125.182 127.41 125.182ZM127.592 123.977C128.13 123.977 128.584 123.837 128.956 123.557C129.327 123.273 129.609 122.881 129.802 122.381C129.995 121.877 130.092 121.295 130.092 120.636C130.092 119.985 129.997 119.415 129.808 118.926C129.619 118.434 129.338 118.051 128.967 117.778C128.596 117.502 128.138 117.364 127.592 117.364C127.024 117.364 126.55 117.509 126.172 117.801C125.797 118.089 125.514 118.481 125.325 118.977C125.139 119.47 125.047 120.023 125.047 120.636C125.047 121.258 125.141 121.822 125.331 122.33C125.524 122.833 125.808 123.235 126.183 123.534C126.562 123.83 127.031 123.977 127.592 123.977ZM137.93 125.091C137.649 125.091 137.409 124.991 137.208 124.79C137.007 124.589 136.907 124.348 136.907 124.068C136.907 123.788 137.007 123.547 137.208 123.347C137.409 123.146 137.649 123.045 137.93 123.045C138.21 123.045 138.45 123.146 138.651 123.347C138.852 123.547 138.952 123.788 138.952 124.068C138.952 124.254 138.905 124.424 138.81 124.58C138.719 124.735 138.596 124.86 138.441 124.955C138.289 125.045 138.119 125.091 137.93 125.091ZM141.536 125.091C141.255 125.091 141.015 124.991 140.814 124.79C140.613 124.589 140.513 124.348 140.513 124.068C140.513 123.788 140.613 123.547 140.814 123.347C141.015 123.146 141.255 123.045 141.536 123.045C141.816 123.045 142.057 123.146 142.257 123.347C142.458 123.547 142.559 123.788 142.559 124.068C142.559 124.254 142.511 124.424 142.416 124.58C142.326 124.735 142.202 124.86 142.047 124.955C141.896 125.045 141.725 125.091 141.536 125.091ZM145.142 125.091C144.862 125.091 144.621 124.991 144.42 124.79C144.22 124.589 144.119 124.348 144.119 124.068C144.119 123.788 144.22 123.547 144.42 123.347C144.621 123.146 144.862 123.045 145.142 123.045C145.422 123.045 145.663 123.146 145.864 123.347C146.064 123.547 146.165 123.788 146.165 124.068C146.165 124.254 146.117 124.424 146.023 124.58C145.932 124.735 145.809 124.86 145.653 124.955C145.502 125.045 145.331 125.091 145.142 125.091Z" fill="#747474"/>
<path fill-rule="evenodd" clip-rule="evenodd" d="M362.5 111.75C358.772 111.75 355.75 114.772 355.75 118.5C355.75 122.228 358.772 125.25 362.5 125.25C364.364 125.25 366.051 124.495 367.273 123.273C368.495 122.051 369.25 120.364 369.25 118.5C369.25 114.772 366.228 111.75 362.5 111.75ZM354.25 118.5C354.25 113.944 357.944 110.25 362.5 110.25C367.056 110.25 370.75 113.944 370.75 118.5C370.75 120.508 370.032 122.349 368.84 123.779L373.53 128.47C373.823 128.763 373.823 129.237 373.53 129.53C373.237 129.823 372.763 129.823 372.47 129.53L367.779 124.84C366.349 126.032 364.508 126.75 362.5 126.75C357.944 126.75 354.25 123.056 354.25 118.5Z" fill="#303030"/>
<g filter="url(#filter2_d_64_1279)">
<rect x="24" y="168" width="312" height="48" rx="24" fill="white"/>
<rect x="24.5" y="168.5" width="311" height="47" rx="23.5" stroke="#303030" stroke-opacity="0.1"/>
</g>
<path d="M41.4091 197V185.364H42.8182V191.136H42.9545L48.1818 185.364H50.0227L45.1364 190.614L50.0227 197H48.3182L44.2727 191.591L42.8182 193.227V197H41.4091ZM53.8832 197.182C53.0423 197.182 52.317 196.996 51.7071 196.625C51.101 196.25 50.6332 195.727 50.3037 195.057C49.9779 194.383 49.8151 193.598 49.8151 192.705C49.8151 191.811 49.9779 191.023 50.3037 190.341C50.6332 189.655 51.0916 189.121 51.6787 188.739C52.2696 188.352 52.959 188.159 53.7469 188.159C54.2014 188.159 54.6503 188.235 55.0935 188.386C55.5366 188.538 55.9401 188.784 56.3037 189.125C56.6673 189.462 56.9571 189.909 57.173 190.466C57.3889 191.023 57.4969 191.708 57.4969 192.523V193.091H50.7696V191.932H56.1332C56.1332 191.439 56.0348 191 55.8378 190.614C55.6446 190.227 55.3681 189.922 55.0082 189.699C54.6522 189.475 54.2317 189.364 53.7469 189.364C53.2128 189.364 52.7507 189.496 52.3605 189.761C51.9741 190.023 51.6768 190.364 51.4685 190.784C51.2601 191.205 51.156 191.655 51.156 192.136V192.909C51.156 193.568 51.2696 194.127 51.4969 194.585C51.7279 195.04 52.048 195.386 52.4571 195.625C52.8662 195.86 53.3416 195.977 53.8832 195.977C54.2355 195.977 54.5537 195.928 54.8378 195.83C55.1257 195.727 55.3738 195.576 55.5821 195.375C55.7904 195.17 55.9514 194.917 56.0651 194.614L57.3605 194.977C57.2241 195.417 56.995 195.803 56.673 196.136C56.351 196.466 55.9533 196.723 55.4798 196.909C55.0063 197.091 54.4741 197.182 53.8832 197.182ZM59.3347 200.273C59.1074 200.273 58.9047 200.254 58.7267 200.216C58.5487 200.182 58.4256 200.148 58.3574 200.114L58.6983 198.932C59.0241 199.015 59.3119 199.045 59.5619 199.023C59.8119 199 60.0335 198.888 60.2267 198.688C60.4237 198.491 60.6036 198.17 60.7665 197.727L61.0165 197.045L57.7892 188.273H59.2437L61.6528 195.227H61.7437L64.1528 188.273H65.6074L61.9028 198.273C61.7362 198.723 61.5297 199.097 61.2835 199.392C61.0373 199.691 60.7513 199.913 60.4256 200.057C60.1036 200.201 59.74 200.273 59.3347 200.273ZM68.5545 197L65.8955 188.273H67.3045L69.1909 194.955H69.2818L71.1455 188.273H72.5773L74.4182 194.932H74.5091L76.3955 188.273H77.8045L75.1455 197H73.8273L71.9182 190.295H71.7818L69.8727 197H68.5545ZM82.0259 197.182C81.238 197.182 80.5467 196.994 79.952 196.619C79.3611 196.244 78.899 195.72 78.5656 195.045C78.2361 194.371 78.0713 193.583 78.0713 192.682C78.0713 191.773 78.2361 190.979 78.5656 190.301C78.899 189.623 79.3611 189.097 79.952 188.722C80.5467 188.347 81.238 188.159 82.0259 188.159C82.8137 188.159 83.5031 188.347 84.094 188.722C84.6887 189.097 85.1509 189.623 85.4804 190.301C85.8137 190.979 85.9804 191.773 85.9804 192.682C85.9804 193.583 85.8137 194.371 85.4804 195.045C85.1509 195.72 84.6887 196.244 84.094 196.619C83.5031 196.994 82.8137 197.182 82.0259 197.182ZM82.0259 195.977C82.6243 195.977 83.1168 195.824 83.5031 195.517C83.8895 195.21 84.1755 194.807 84.3611 194.307C84.5467 193.807 84.6395 193.265 84.6395 192.682C84.6395 192.098 84.5467 191.555 84.3611 191.051C84.1755 190.547 83.8895 190.14 83.5031 189.83C83.1168 189.519 82.6243 189.364 82.0259 189.364C81.4274 189.364 80.9349 189.519 80.5486 189.83C80.1622 190.14 79.8762 190.547 79.6906 191.051C79.505 191.555 79.4122 192.098 79.4122 192.682C79.4122 193.265 79.505 193.807 79.6906 194.307C79.8762 194.807 80.1622 195.21 80.5486 195.517C80.9349 195.824 81.4274 195.977 82.0259 195.977ZM87.2273 197V188.273H88.5227V189.591H88.6136C88.7727 189.159 89.0606 188.809 89.4773 188.54C89.8939 188.271 90.3636 188.136 90.8864 188.136C90.9848 188.136 91.108 188.138 91.2557 188.142C91.4034 188.146 91.5152 188.152 91.5909 188.159V189.523C91.5455 189.511 91.4413 189.494 91.2784 189.472C91.1193 189.445 90.9508 189.432 90.7727 189.432C90.3485 189.432 89.9697 189.521 89.6364 189.699C89.3068 189.873 89.0455 190.116 88.8523 190.426C88.6629 190.733 88.5682 191.083 88.5682 191.477V197H87.2273ZM95.4102 197.182C94.683 197.182 94.0409 196.998 93.4841 196.631C92.9273 196.259 92.4917 195.737 92.1773 195.062C91.8629 194.384 91.7057 193.583 91.7057 192.659C91.7057 191.742 91.8629 190.947 92.1773 190.273C92.4917 189.598 92.9292 189.078 93.4898 188.71C94.0504 188.343 94.6981 188.159 95.433 188.159C96.0011 188.159 96.45 188.254 96.7795 188.443C97.1129 188.629 97.3667 188.841 97.5409 189.08C97.7189 189.314 97.8572 189.508 97.9557 189.659H98.0693V185.364H99.4102V197H98.1148V195.659H97.9557C97.8572 195.818 97.717 196.019 97.5352 196.261C97.3534 196.5 97.0939 196.714 96.7568 196.903C96.4197 197.089 95.9708 197.182 95.4102 197.182ZM95.592 195.977C96.1299 195.977 96.5845 195.837 96.9557 195.557C97.3269 195.273 97.6091 194.881 97.8023 194.381C97.9955 193.877 98.092 193.295 98.092 192.636C98.092 191.985 97.9973 191.415 97.808 190.926C97.6186 190.434 97.3383 190.051 96.967 189.778C96.5958 189.502 96.1375 189.364 95.592 189.364C95.0239 189.364 94.5504 189.509 94.1716 189.801C93.7966 190.089 93.5144 190.481 93.325 190.977C93.1394 191.47 93.0466 192.023 93.0466 192.636C93.0466 193.258 93.1413 193.822 93.3307 194.33C93.5239 194.833 93.808 195.235 94.183 195.534C94.5617 195.83 95.0314 195.977 95.592 195.977ZM105.93 197.091C105.649 197.091 105.409 196.991 105.208 196.79C105.007 196.589 104.907 196.348 104.907 196.068C104.907 195.788 105.007 195.547 105.208 195.347C105.409 195.146 105.649 195.045 105.93 195.045C106.21 195.045 106.45 195.146 106.651 195.347C106.852 195.547 106.952 195.788 106.952 196.068C106.952 196.254 106.905 196.424 106.81 196.58C106.719 196.735 106.596 196.86 106.441 196.955C106.289 197.045 106.119 197.091 105.93 197.091ZM109.536 197.091C109.255 197.091 109.015 196.991 108.814 196.79C108.613 196.589 108.513 196.348 108.513 196.068C108.513 195.788 108.613 195.547 108.814 195.347C109.015 195.146 109.255 195.045 109.536 195.045C109.816 195.045 110.057 195.146 110.257 195.347C110.458 195.547 110.559 195.788 110.559 196.068C110.559 196.254 110.511 196.424 110.416 196.58C110.326 196.735 110.202 196.86 110.047 196.955C109.896 197.045 109.725 197.091 109.536 197.091ZM113.142 197.091C112.862 197.091 112.621 196.991 112.42 196.79C112.22 196.589 112.119 196.348 112.119 196.068C112.119 195.788 112.22 195.547 112.42 195.347C112.621 195.146 112.862 195.045 113.142 195.045C113.422 195.045 113.663 195.146 113.864 195.347C114.064 195.547 114.165 195.788 114.165 196.068C114.165 196.254 114.117 196.424 114.023 196.58C113.932 196.735 113.809 196.86 113.653 196.955C113.502 197.045 113.331 197.091 113.142 197.091Z" fill="#747474"/>
<rect x="344" y="172" width="40" height="40" rx="20" fill="#303030"/>
<path fill-rule="evenodd" clip-rule="evenodd" d="M362.5 183.75C358.772 183.75 355.75 186.772 355.75 190.5C355.75 194.228 358.772 197.25 362.5 197.25C364.364 197.25 366.051 196.495 367.273 195.273C368.495 194.051 369.25 192.364 369.25 190.5C369.25 186.772 366.228 183.75 362.5 183.75ZM354.25 190.5C354.25 185.944 357.944 182.25 362.5 182.25C367.056 182.25 370.75 185.944 370.75 190.5C370.75 192.508 370.032 194.349 368.84 195.779L373.53 200.47C373.823 200.763 373.823 201.237 373.53 201.53C373.237 201.823 372.763 201.823 372.47 201.53L367.779 196.84C366.349 198.032 364.508 198.75 362.5 198.75C357.944 198.75 354.25 195.056 354.25 190.5Z" fill="white"/>
<g filter="url(#filter3_d_64_1279)">
<rect x="24" y="240" width="263" height="48" rx="4" fill="white"/>
<rect x="24.5" y="240.5" width="262" height="47" rx="3.5" stroke="#303030" stroke-opacity="0.1"/>
</g>
<path d="M41.6562 269V257.364H43.0653V263.136H43.2016L48.4289 257.364H50.2698L45.3834 262.614L50.2698 269H48.5653L44.5198 263.591L43.0653 265.227V269H41.6562ZM54.1303 269.182C53.2894 269.182 52.564 268.996 51.9542 268.625C51.3481 268.25 50.8803 267.727 50.5508 267.057C50.225 266.383 50.0621 265.598 50.0621 264.705C50.0621 263.811 50.225 263.023 50.5508 262.341C50.8803 261.655 51.3386 261.121 51.9258 260.739C52.5167 260.352 53.2061 260.159 53.9939 260.159C54.4485 260.159 54.8974 260.235 55.3405 260.386C55.7837 260.538 56.1871 260.784 56.5508 261.125C56.9144 261.462 57.2042 261.909 57.4201 262.466C57.636 263.023 57.7439 263.708 57.7439 264.523V265.091H51.0167V263.932H56.3803C56.3803 263.439 56.2818 263 56.0849 262.614C55.8917 262.227 55.6152 261.922 55.2553 261.699C54.8992 261.475 54.4788 261.364 53.9939 261.364C53.4599 261.364 52.9977 261.496 52.6076 261.761C52.2212 262.023 51.9239 262.364 51.7155 262.784C51.5072 263.205 51.403 263.655 51.403 264.136V264.909C51.403 265.568 51.5167 266.127 51.7439 266.585C51.975 267.04 52.2951 267.386 52.7042 267.625C53.1133 267.86 53.5886 267.977 54.1303 267.977C54.4826 267.977 54.8008 267.928 55.0849 267.83C55.3727 267.727 55.6208 267.576 55.8292 267.375C56.0375 267.17 56.1985 266.917 56.3121 266.614L57.6076 266.977C57.4712 267.417 57.2421 267.803 56.9201 268.136C56.5981 268.466 56.2004 268.723 55.7269 268.909C55.2534 269.091 54.7212 269.182 54.1303 269.182ZM59.5817 272.273C59.3545 272.273 59.1518 272.254 58.9738 272.216C58.7957 272.182 58.6726 272.148 58.6045 272.114L58.9454 270.932C59.2711 271.015 59.559 271.045 59.809 271.023C60.059 271 60.2806 270.888 60.4738 270.688C60.6707 270.491 60.8507 270.17 61.0135 269.727L61.2635 269.045L58.0363 260.273H59.4908L61.8999 267.227H61.9908L64.3999 260.273H65.8545L62.1499 270.273C61.9832 270.723 61.7768 271.097 61.5306 271.392C61.2844 271.691 60.9984 271.913 60.6726 272.057C60.3507 272.201 59.987 272.273 59.5817 272.273ZM68.8016 269L66.1425 260.273H67.5516L69.438 266.955H69.5289L71.3925 260.273H72.8243L74.6653 266.932H74.7562L76.6425 260.273H78.0516L75.3925 269H74.0743L72.1653 262.295H72.0289L70.1198 269H68.8016ZM82.2729 269.182C81.485 269.182 80.7938 268.994 80.1991 268.619C79.6081 268.244 79.146 267.72 78.8127 267.045C78.4831 266.371 78.3184 265.583 78.3184 264.682C78.3184 263.773 78.4831 262.979 78.8127 262.301C79.146 261.623 79.6081 261.097 80.1991 260.722C80.7938 260.347 81.485 260.159 82.2729 260.159C83.0608 260.159 83.7502 260.347 84.3411 260.722C84.9358 261.097 85.3979 261.623 85.7275 262.301C86.0608 262.979 86.2275 263.773 86.2275 264.682C86.2275 265.583 86.0608 266.371 85.7275 267.045C85.3979 267.72 84.9358 268.244 84.3411 268.619C83.7502 268.994 83.0608 269.182 82.2729 269.182ZM82.2729 267.977C82.8714 267.977 83.3638 267.824 83.7502 267.517C84.1366 267.21 84.4225 266.807 84.6081 266.307C84.7938 265.807 84.8866 265.265 84.8866 264.682C84.8866 264.098 84.7938 263.555 84.6081 263.051C84.4225 262.547 84.1366 262.14 83.7502 261.83C83.3638 261.519 82.8714 261.364 82.2729 261.364C81.6744 261.364 81.182 261.519 80.7956 261.83C80.4093 262.14 80.1233 262.547 79.9377 263.051C79.7521 263.555 79.6593 264.098 79.6593 264.682C79.6593 265.265 79.7521 265.807 79.9377 266.307C80.1233 266.807 80.4093 267.21 80.7956 267.517C81.182 267.824 81.6744 267.977 82.2729 267.977ZM87.4743 269V260.273H88.7698V261.591H88.8607C89.0198 261.159 89.3077 260.809 89.7243 260.54C90.141 260.271 90.6107 260.136 91.1334 260.136C91.2319 260.136 91.355 260.138 91.5028 260.142C91.6505 260.146 91.7622 260.152 91.838 260.159V261.523C91.7925 261.511 91.6884 261.494 91.5255 261.472C91.3664 261.445 91.1978 261.432 91.0198 261.432C90.5956 261.432 90.2168 261.521 89.8834 261.699C89.5539 261.873 89.2925 262.116 89.0993 262.426C88.9099 262.733 88.8153 263.083 88.8153 263.477V269H87.4743ZM95.6573 269.182C94.93 269.182 94.288 268.998 93.7312 268.631C93.1743 268.259 92.7387 267.737 92.4243 267.062C92.1099 266.384 91.9528 265.583 91.9528 264.659C91.9528 263.742 92.1099 262.947 92.4243 262.273C92.7387 261.598 93.1762 261.078 93.7368 260.71C94.2974 260.343 94.9452 260.159 95.68 260.159C96.2482 260.159 96.6971 260.254 97.0266 260.443C97.3599 260.629 97.6137 260.841 97.788 261.08C97.966 261.314 98.1043 261.508 98.2028 261.659H98.3164V257.364H99.6573V269H98.3618V267.659H98.2028C98.1043 267.818 97.9641 268.019 97.7823 268.261C97.6005 268.5 97.341 268.714 97.0039 268.903C96.6668 269.089 96.2179 269.182 95.6573 269.182ZM95.8391 267.977C96.377 267.977 96.8315 267.837 97.2028 267.557C97.574 267.273 97.8562 266.881 98.0493 266.381C98.2425 265.877 98.3391 265.295 98.3391 264.636C98.3391 263.985 98.2444 263.415 98.055 262.926C97.8656 262.434 97.5853 262.051 97.2141 261.778C96.8429 261.502 96.3846 261.364 95.8391 261.364C95.2709 261.364 94.7974 261.509 94.4187 261.801C94.0437 262.089 93.7615 262.481 93.5721 262.977C93.3865 263.47 93.2937 264.023 93.2937 264.636C93.2937 265.258 93.3884 265.822 93.5778 266.33C93.7709 266.833 94.055 267.235 94.43 267.534C94.8088 267.83 95.2785 267.977 95.8391 267.977ZM106.177 269.091C105.896 269.091 105.656 268.991 105.455 268.79C105.254 268.589 105.154 268.348 105.154 268.068C105.154 267.788 105.254 267.547 105.455 267.347C105.656 267.146 105.896 267.045 106.177 267.045C106.457 267.045 106.697 267.146 106.898 267.347C107.099 267.547 107.199 267.788 107.199 268.068C107.199 268.254 107.152 268.424 107.057 268.58C106.966 268.735 106.843 268.86 106.688 268.955C106.536 269.045 106.366 269.091 106.177 269.091ZM109.783 269.091C109.503 269.091 109.262 268.991 109.061 268.79C108.861 268.589 108.76 268.348 108.76 268.068C108.76 267.788 108.861 267.547 109.061 267.347C109.262 267.146 109.503 267.045 109.783 267.045C110.063 267.045 110.304 267.146 110.504 267.347C110.705 267.547 110.806 267.788 110.806 268.068C110.806 268.254 110.758 268.424 110.664 268.58C110.573 268.735 110.45 268.86 110.294 268.955C110.143 269.045 109.972 269.091 109.783 269.091ZM113.389 269.091C113.109 269.091 112.868 268.991 112.668 268.79C112.467 268.589 112.366 268.348 112.366 268.068C112.366 267.788 112.467 267.547 112.668 267.347C112.868 267.146 113.109 267.045 113.389 267.045C113.669 267.045 113.91 267.146 114.111 267.347C114.311 267.547 114.412 267.788 114.412 268.068C114.412 268.254 114.364 268.424 114.27 268.58C114.179 268.735 114.056 268.86 113.9 268.955C113.749 269.045 113.579 269.091 113.389 269.091Z" fill="#747474"/>
<path fill-rule="evenodd" clip-rule="evenodd" d="M362.5 255.75C358.772 255.75 355.75 258.772 355.75 262.5C355.75 266.228 358.772 269.25 362.5 269.25C364.364 269.25 366.051 268.495 367.273 267.273C368.495 266.051 369.25 264.364 369.25 262.5C369.25 258.772 366.228 255.75 362.5 255.75ZM354.25 262.5C354.25 257.944 357.944 254.25 362.5 254.25C367.056 254.25 370.75 257.944 370.75 262.5C370.75 264.508 370.032 266.349 368.84 267.779L373.53 272.47C373.823 272.763 373.823 273.237 373.53 273.53C373.237 273.823 372.763 273.823 372.47 273.53L367.779 268.84C366.349 270.032 364.508 270.75 362.5 270.75C357.944 270.75 354.25 267.056 354.25 262.5Z" fill="#303030"/>
<path d="M303.163 260.273C303.095 259.697 302.819 259.25 302.334 258.932C301.849 258.614 301.254 258.455 300.55 258.455C300.035 258.455 299.584 258.538 299.197 258.705C298.815 258.871 298.516 259.1 298.3 259.392C298.088 259.684 297.982 260.015 297.982 260.386C297.982 260.697 298.055 260.964 298.203 261.188C298.355 261.407 298.548 261.591 298.783 261.739C299.018 261.883 299.264 262.002 299.521 262.097C299.779 262.187 300.016 262.261 300.232 262.318L301.413 262.636C301.716 262.716 302.054 262.826 302.425 262.966C302.8 263.106 303.158 263.297 303.499 263.54C303.843 263.778 304.127 264.085 304.351 264.46C304.574 264.835 304.686 265.295 304.686 265.841C304.686 266.47 304.521 267.038 304.192 267.545C303.866 268.053 303.389 268.456 302.76 268.756C302.135 269.055 301.375 269.205 300.482 269.205C299.648 269.205 298.927 269.07 298.317 268.801C297.711 268.532 297.233 268.157 296.885 267.676C296.54 267.195 296.345 266.636 296.3 266H297.754C297.792 266.439 297.94 266.803 298.197 267.091C298.459 267.375 298.788 267.587 299.186 267.727C299.588 267.864 300.019 267.932 300.482 267.932C301.019 267.932 301.502 267.845 301.93 267.67C302.358 267.492 302.697 267.246 302.947 266.932C303.197 266.614 303.322 266.242 303.322 265.818C303.322 265.432 303.214 265.117 302.999 264.875C302.783 264.633 302.499 264.436 302.146 264.284C301.794 264.133 301.413 264 301.004 263.886L299.572 263.477C298.663 263.216 297.944 262.843 297.413 262.358C296.883 261.873 296.618 261.239 296.618 260.455C296.618 259.803 296.794 259.235 297.146 258.75C297.502 258.261 297.98 257.883 298.578 257.614C299.18 257.341 299.853 257.205 300.595 257.205C301.345 257.205 302.012 257.339 302.595 257.608C303.179 257.873 303.641 258.237 303.982 258.699C304.326 259.161 304.508 259.686 304.527 260.273H303.163ZM309.68 269.182C308.839 269.182 308.114 268.996 307.504 268.625C306.898 268.25 306.43 267.727 306.101 267.057C305.775 266.383 305.612 265.598 305.612 264.705C305.612 263.811 305.775 263.023 306.101 262.341C306.43 261.655 306.888 261.121 307.476 260.739C308.066 260.352 308.756 260.159 309.544 260.159C309.998 260.159 310.447 260.235 310.89 260.386C311.334 260.538 311.737 260.784 312.101 261.125C312.464 261.462 312.754 261.909 312.97 262.466C313.186 263.023 313.294 263.708 313.294 264.523V265.091H306.566V263.932H311.93C311.93 263.439 311.832 263 311.635 262.614C311.441 262.227 311.165 261.922 310.805 261.699C310.449 261.475 310.029 261.364 309.544 261.364C309.01 261.364 308.548 261.496 308.157 261.761C307.771 262.023 307.474 262.364 307.265 262.784C307.057 263.205 306.953 263.655 306.953 264.136V264.909C306.953 265.568 307.066 266.127 307.294 266.585C307.525 267.04 307.845 267.386 308.254 267.625C308.663 267.86 309.138 267.977 309.68 267.977C310.032 267.977 310.351 267.928 310.635 267.83C310.923 267.727 311.171 267.576 311.379 267.375C311.587 267.17 311.748 266.917 311.862 266.614L313.157 266.977C313.021 267.417 312.792 267.803 312.47 268.136C312.148 268.466 311.75 268.723 311.277 268.909C310.803 269.091 310.271 269.182 309.68 269.182ZM317.102 269.205C316.549 269.205 316.047 269.1 315.596 268.892C315.145 268.68 314.787 268.375 314.522 267.977C314.257 267.576 314.124 267.091 314.124 266.523C314.124 266.023 314.223 265.617 314.42 265.307C314.617 264.992 314.88 264.746 315.21 264.568C315.539 264.39 315.903 264.258 316.301 264.17C316.702 264.08 317.105 264.008 317.511 263.955C318.041 263.886 318.471 263.835 318.801 263.801C319.134 263.763 319.376 263.701 319.528 263.614C319.683 263.527 319.761 263.375 319.761 263.159V263.114C319.761 262.553 319.607 262.117 319.301 261.807C318.998 261.496 318.537 261.341 317.92 261.341C317.28 261.341 316.778 261.481 316.414 261.761C316.051 262.042 315.795 262.341 315.647 262.659L314.374 262.205C314.602 261.674 314.905 261.261 315.284 260.966C315.666 260.667 316.083 260.458 316.534 260.341C316.988 260.22 317.435 260.159 317.874 260.159C318.155 260.159 318.477 260.193 318.84 260.261C319.208 260.326 319.562 260.46 319.903 260.665C320.248 260.869 320.534 261.178 320.761 261.591C320.988 262.004 321.102 262.557 321.102 263.25V269H319.761V267.818H319.693C319.602 268.008 319.45 268.21 319.238 268.426C319.026 268.642 318.744 268.826 318.391 268.977C318.039 269.129 317.609 269.205 317.102 269.205ZM317.306 268C317.837 268 318.284 267.896 318.647 267.688C319.015 267.479 319.291 267.21 319.477 266.881C319.666 266.551 319.761 266.205 319.761 265.841V264.614C319.704 264.682 319.579 264.744 319.386 264.801C319.196 264.854 318.977 264.902 318.727 264.943C318.48 264.981 318.24 265.015 318.005 265.045C317.774 265.072 317.587 265.095 317.443 265.114C317.094 265.159 316.768 265.233 316.465 265.335C316.166 265.434 315.924 265.583 315.738 265.784C315.556 265.981 315.465 266.25 315.465 266.591C315.465 267.057 315.638 267.409 315.982 267.648C316.331 267.883 316.772 268 317.306 268ZM322.749 269V260.273H324.045V261.591H324.136C324.295 261.159 324.582 260.809 324.999 260.54C325.416 260.271 325.886 260.136 326.408 260.136C326.507 260.136 326.63 260.138 326.778 260.142C326.925 260.146 327.037 260.152 327.113 260.159V261.523C327.067 261.511 326.963 261.494 326.8 261.472C326.641 261.445 326.473 261.432 326.295 261.432C325.87 261.432 325.492 261.521 325.158 261.699C324.829 261.873 324.567 262.116 324.374 262.426C324.185 262.733 324.09 263.083 324.09 263.477V269H322.749ZM331.182 269.182C330.364 269.182 329.659 268.989 329.068 268.602C328.478 268.216 328.023 267.684 327.705 267.006C327.387 266.328 327.228 265.553 327.228 264.682C327.228 263.795 327.39 263.013 327.716 262.335C328.046 261.653 328.504 261.121 329.091 260.739C329.682 260.352 330.371 260.159 331.159 260.159C331.773 260.159 332.326 260.273 332.818 260.5C333.311 260.727 333.714 261.045 334.029 261.455C334.343 261.864 334.538 262.341 334.614 262.886H333.273C333.171 262.489 332.943 262.136 332.591 261.83C332.243 261.519 331.773 261.364 331.182 261.364C330.659 261.364 330.201 261.5 329.807 261.773C329.417 262.042 329.112 262.422 328.892 262.915C328.676 263.403 328.568 263.977 328.568 264.636C328.568 265.311 328.675 265.898 328.887 266.398C329.103 266.898 329.406 267.286 329.796 267.562C330.19 267.839 330.652 267.977 331.182 267.977C331.531 267.977 331.847 267.917 332.131 267.795C332.415 267.674 332.656 267.5 332.853 267.273C333.05 267.045 333.19 266.773 333.273 266.455H334.614C334.538 266.97 334.351 267.434 334.051 267.847C333.756 268.256 333.364 268.581 332.875 268.824C332.39 269.062 331.826 269.182 331.182 269.182ZM337.115 263.75V269H335.774V257.364H337.115V261.636H337.229C337.433 261.186 337.74 260.828 338.149 260.562C338.562 260.294 339.111 260.159 339.797 260.159C340.392 260.159 340.912 260.278 341.359 260.517C341.806 260.752 342.153 261.114 342.399 261.602C342.649 262.087 342.774 262.705 342.774 263.455V269H341.433V263.545C341.433 262.852 341.253 262.316 340.893 261.938C340.537 261.555 340.043 261.364 339.411 261.364C338.971 261.364 338.577 261.456 338.229 261.642C337.884 261.828 337.611 262.098 337.411 262.455C337.214 262.811 337.115 263.242 337.115 263.75Z" fill="#303030"/>
<g filter="url(#filter4_d_64_1279)">
<rect x="24" y="312" width="239" height="48" rx="16" fill="white"/>
<rect x="24.5" y="312.5" width="238" height="47" rx="15.5" stroke="#303030" stroke-opacity="0.1"/>
</g>
<path d="M41.4091 341V329.364H42.8182V335.136H42.9545L48.1818 329.364H50.0227L45.1364 334.614L50.0227 341H48.3182L44.2727 335.591L42.8182 337.227V341H41.4091ZM53.8832 341.182C53.0423 341.182 52.317 340.996 51.7071 340.625C51.101 340.25 50.6332 339.727 50.3037 339.057C49.9779 338.383 49.8151 337.598 49.8151 336.705C49.8151 335.811 49.9779 335.023 50.3037 334.341C50.6332 333.655 51.0916 333.121 51.6787 332.739C52.2696 332.352 52.959 332.159 53.7469 332.159C54.2014 332.159 54.6503 332.235 55.0935 332.386C55.5366 332.538 55.9401 332.784 56.3037 333.125C56.6673 333.462 56.9571 333.909 57.173 334.466C57.3889 335.023 57.4969 335.708 57.4969 336.523V337.091H50.7696V335.932H56.1332C56.1332 335.439 56.0348 335 55.8378 334.614C55.6446 334.227 55.3681 333.922 55.0082 333.699C54.6522 333.475 54.2317 333.364 53.7469 333.364C53.2128 333.364 52.7507 333.496 52.3605 333.761C51.9741 334.023 51.6768 334.364 51.4685 334.784C51.2601 335.205 51.156 335.655 51.156 336.136V336.909C51.156 337.568 51.2696 338.127 51.4969 338.585C51.7279 339.04 52.048 339.386 52.4571 339.625C52.8662 339.86 53.3416 339.977 53.8832 339.977C54.2355 339.977 54.5537 339.928 54.8378 339.83C55.1257 339.727 55.3738 339.576 55.5821 339.375C55.7904 339.17 55.9514 338.917 56.0651 338.614L57.3605 338.977C57.2241 339.417 56.995 339.803 56.673 340.136C56.351 340.466 55.9533 340.723 55.4798 340.909C55.0063 341.091 54.4741 341.182 53.8832 341.182ZM59.3347 344.273C59.1074 344.273 58.9047 344.254 58.7267 344.216C58.5487 344.182 58.4256 344.148 58.3574 344.114L58.6983 342.932C59.0241 343.015 59.3119 343.045 59.5619 343.023C59.8119 343 60.0335 342.888 60.2267 342.688C60.4237 342.491 60.6036 342.17 60.7665 341.727L61.0165 341.045L57.7892 332.273H59.2437L61.6528 339.227H61.7437L64.1528 332.273H65.6074L61.9028 342.273C61.7362 342.723 61.5297 343.097 61.2835 343.392C61.0373 343.691 60.7513 343.913 60.4256 344.057C60.1036 344.201 59.74 344.273 59.3347 344.273ZM68.5545 341L65.8955 332.273H67.3045L69.1909 338.955H69.2818L71.1455 332.273H72.5773L74.4182 338.932H74.5091L76.3955 332.273H77.8045L75.1455 341H73.8273L71.9182 334.295H71.7818L69.8727 341H68.5545ZM82.0259 341.182C81.238 341.182 80.5467 340.994 79.952 340.619C79.3611 340.244 78.899 339.72 78.5656 339.045C78.2361 338.371 78.0713 337.583 78.0713 336.682C78.0713 335.773 78.2361 334.979 78.5656 334.301C78.899 333.623 79.3611 333.097 79.952 332.722C80.5467 332.347 81.238 332.159 82.0259 332.159C82.8137 332.159 83.5031 332.347 84.094 332.722C84.6887 333.097 85.1509 333.623 85.4804 334.301C85.8137 334.979 85.9804 335.773 85.9804 336.682C85.9804 337.583 85.8137 338.371 85.4804 339.045C85.1509 339.72 84.6887 340.244 84.094 340.619C83.5031 340.994 82.8137 341.182 82.0259 341.182ZM82.0259 339.977C82.6243 339.977 83.1168 339.824 83.5031 339.517C83.8895 339.21 84.1755 338.807 84.3611 338.307C84.5467 337.807 84.6395 337.265 84.6395 336.682C84.6395 336.098 84.5467 335.555 84.3611 335.051C84.1755 334.547 83.8895 334.14 83.5031 333.83C83.1168 333.519 82.6243 333.364 82.0259 333.364C81.4274 333.364 80.9349 333.519 80.5486 333.83C80.1622 334.14 79.8762 334.547 79.6906 335.051C79.505 335.555 79.4122 336.098 79.4122 336.682C79.4122 337.265 79.505 337.807 79.6906 338.307C79.8762 338.807 80.1622 339.21 80.5486 339.517C80.9349 339.824 81.4274 339.977 82.0259 339.977ZM87.2273 341V332.273H88.5227V333.591H88.6136C88.7727 333.159 89.0606 332.809 89.4773 332.54C89.8939 332.271 90.3636 332.136 90.8864 332.136C90.9848 332.136 91.108 332.138 91.2557 332.142C91.4034 332.146 91.5152 332.152 91.5909 332.159V333.523C91.5455 333.511 91.4413 333.494 91.2784 333.472C91.1193 333.445 90.9508 333.432 90.7727 333.432C90.3485 333.432 89.9697 333.521 89.6364 333.699C89.3068 333.873 89.0455 334.116 88.8523 334.426C88.6629 334.733 88.5682 335.083 88.5682 335.477V341H87.2273ZM95.4102 341.182C94.683 341.182 94.0409 340.998 93.4841 340.631C92.9273 340.259 92.4917 339.737 92.1773 339.062C91.8629 338.384 91.7057 337.583 91.7057 336.659C91.7057 335.742 91.8629 334.947 92.1773 334.273C92.4917 333.598 92.9292 333.078 93.4898 332.71C94.0504 332.343 94.6981 332.159 95.433 332.159C96.0011 332.159 96.45 332.254 96.7795 332.443C97.1129 332.629 97.3667 332.841 97.5409 333.08C97.7189 333.314 97.8572 333.508 97.9557 333.659H98.0693V329.364H99.4102V341H98.1148V339.659H97.9557C97.8572 339.818 97.717 340.019 97.5352 340.261C97.3534 340.5 97.0939 340.714 96.7568 340.903C96.4197 341.089 95.9708 341.182 95.4102 341.182ZM95.592 339.977C96.1299 339.977 96.5845 339.837 96.9557 339.557C97.3269 339.273 97.6091 338.881 97.8023 338.381C97.9955 337.877 98.092 337.295 98.092 336.636C98.092 335.985 97.9973 335.415 97.808 334.926C97.6186 334.434 97.3383 334.051 96.967 333.778C96.5958 333.502 96.1375 333.364 95.592 333.364C95.0239 333.364 94.5504 333.509 94.1716 333.801C93.7966 334.089 93.5144 334.481 93.325 334.977C93.1394 335.47 93.0466 336.023 93.0466 336.636C93.0466 337.258 93.1413 337.822 93.3307 338.33C93.5239 338.833 93.808 339.235 94.183 339.534C94.5617 339.83 95.0314 339.977 95.592 339.977ZM105.93 341.091C105.649 341.091 105.409 340.991 105.208 340.79C105.007 340.589 104.907 340.348 104.907 340.068C104.907 339.788 105.007 339.547 105.208 339.347C105.409 339.146 105.649 339.045 105.93 339.045C106.21 339.045 106.45 339.146 106.651 339.347C106.852 339.547 106.952 339.788 106.952 340.068C106.952 340.254 106.905 340.424 106.81 340.58C106.719 340.735 106.596 340.86 106.441 340.955C106.289 341.045 106.119 341.091 105.93 341.091ZM109.536 341.091C109.255 341.091 109.015 340.991 108.814 340.79C108.613 340.589 108.513 340.348 108.513 340.068C108.513 339.788 108.613 339.547 108.814 339.347C109.015 339.146 109.255 339.045 109.536 339.045C109.816 339.045 110.057 339.146 110.257 339.347C110.458 339.547 110.559 339.788 110.559 340.068C110.559 340.254 110.511 340.424 110.416 340.58C110.326 340.735 110.202 340.86 110.047 340.955C109.896 341.045 109.725 341.091 109.536 341.091ZM113.142 341.091C112.862 341.091 112.621 340.991 112.42 340.79C112.22 340.589 112.119 340.348 112.119 340.068C112.119 339.788 112.22 339.547 112.42 339.347C112.621 339.146 112.862 339.045 113.142 339.045C113.422 339.045 113.663 339.146 113.864 339.347C114.064 339.547 114.165 339.788 114.165 340.068C114.165 340.254 114.117 340.424 114.023 340.58C113.932 340.735 113.809 340.86 113.653 340.955C113.502 341.045 113.331 341.091 113.142 341.091Z" fill="#747474"/>
<rect x="271" y="312" width="113" height="48" rx="16" fill="#303030"/>
<path fill-rule="evenodd" clip-rule="evenodd" d="M354.5 327.75C350.772 327.75 347.75 330.772 347.75 334.5C347.75 338.228 350.772 341.25 354.5 341.25C356.364 341.25 358.051 340.495 359.273 339.273C360.495 338.051 361.25 336.364 361.25 334.5C361.25 330.772 358.228 327.75 354.5 327.75ZM346.25 334.5C346.25 329.944 349.944 326.25 354.5 326.25C359.056 326.25 362.75 329.944 362.75 334.5C362.75 336.508 362.032 338.349 360.84 339.779L365.53 344.47C365.823 344.763 365.823 345.237 365.53 345.53C365.237 345.823 364.763 345.823 364.47 345.53L359.779 340.84C358.349 342.032 356.508 342.75 354.5 342.75C349.944 342.75 346.25 339.056 346.25 334.5Z" fill="white"/>
<path d="M295.163 332.273C295.095 331.697 294.819 331.25 294.334 330.932C293.849 330.614 293.254 330.455 292.55 330.455C292.035 330.455 291.584 330.538 291.197 330.705C290.815 330.871 290.516 331.1 290.3 331.392C290.088 331.684 289.982 332.015 289.982 332.386C289.982 332.697 290.055 332.964 290.203 333.188C290.355 333.407 290.548 333.591 290.783 333.739C291.018 333.883 291.264 334.002 291.521 334.097C291.779 334.187 292.016 334.261 292.232 334.318L293.413 334.636C293.716 334.716 294.054 334.826 294.425 334.966C294.8 335.106 295.158 335.297 295.499 335.54C295.843 335.778 296.127 336.085 296.351 336.46C296.574 336.835 296.686 337.295 296.686 337.841C296.686 338.47 296.521 339.038 296.192 339.545C295.866 340.053 295.389 340.456 294.76 340.756C294.135 341.055 293.375 341.205 292.482 341.205C291.648 341.205 290.927 341.07 290.317 340.801C289.711 340.532 289.233 340.157 288.885 339.676C288.54 339.195 288.345 338.636 288.3 338H289.754C289.792 338.439 289.94 338.803 290.197 339.091C290.459 339.375 290.788 339.587 291.186 339.727C291.588 339.864 292.019 339.932 292.482 339.932C293.019 339.932 293.502 339.845 293.93 339.67C294.358 339.492 294.697 339.246 294.947 338.932C295.197 338.614 295.322 338.242 295.322 337.818C295.322 337.432 295.214 337.117 294.999 336.875C294.783 336.633 294.499 336.436 294.146 336.284C293.794 336.133 293.413 336 293.004 335.886L291.572 335.477C290.663 335.216 289.944 334.843 289.413 334.358C288.883 333.873 288.618 333.239 288.618 332.455C288.618 331.803 288.794 331.235 289.146 330.75C289.502 330.261 289.98 329.883 290.578 329.614C291.18 329.341 291.853 329.205 292.595 329.205C293.345 329.205 294.012 329.339 294.595 329.608C295.179 329.873 295.641 330.237 295.982 330.699C296.326 331.161 296.508 331.686 296.527 332.273H295.163ZM301.68 341.182C300.839 341.182 300.114 340.996 299.504 340.625C298.898 340.25 298.43 339.727 298.101 339.057C297.775 338.383 297.612 337.598 297.612 336.705C297.612 335.811 297.775 335.023 298.101 334.341C298.43 333.655 298.888 333.121 299.476 332.739C300.066 332.352 300.756 332.159 301.544 332.159C301.998 332.159 302.447 332.235 302.89 332.386C303.334 332.538 303.737 332.784 304.101 333.125C304.464 333.462 304.754 333.909 304.97 334.466C305.186 335.023 305.294 335.708 305.294 336.523V337.091H298.566V335.932H303.93C303.93 335.439 303.832 335 303.635 334.614C303.441 334.227 303.165 333.922 302.805 333.699C302.449 333.475 302.029 333.364 301.544 333.364C301.01 333.364 300.548 333.496 300.157 333.761C299.771 334.023 299.474 334.364 299.265 334.784C299.057 335.205 298.953 335.655 298.953 336.136V336.909C298.953 337.568 299.066 338.127 299.294 338.585C299.525 339.04 299.845 339.386 300.254 339.625C300.663 339.86 301.138 339.977 301.68 339.977C302.032 339.977 302.351 339.928 302.635 339.83C302.923 339.727 303.171 339.576 303.379 339.375C303.587 339.17 303.748 338.917 303.862 338.614L305.157 338.977C305.021 339.417 304.792 339.803 304.47 340.136C304.148 340.466 303.75 340.723 303.277 340.909C302.803 341.091 302.271 341.182 301.68 341.182ZM309.102 341.205C308.549 341.205 308.047 341.1 307.596 340.892C307.145 340.68 306.787 340.375 306.522 339.977C306.257 339.576 306.124 339.091 306.124 338.523C306.124 338.023 306.223 337.617 306.42 337.307C306.617 336.992 306.88 336.746 307.21 336.568C307.539 336.39 307.903 336.258 308.301 336.17C308.702 336.08 309.105 336.008 309.511 335.955C310.041 335.886 310.471 335.835 310.801 335.801C311.134 335.763 311.376 335.701 311.528 335.614C311.683 335.527 311.761 335.375 311.761 335.159V335.114C311.761 334.553 311.607 334.117 311.301 333.807C310.998 333.496 310.537 333.341 309.92 333.341C309.28 333.341 308.778 333.481 308.414 333.761C308.051 334.042 307.795 334.341 307.647 334.659L306.374 334.205C306.602 333.674 306.905 333.261 307.284 332.966C307.666 332.667 308.083 332.458 308.534 332.341C308.988 332.22 309.435 332.159 309.874 332.159C310.155 332.159 310.477 332.193 310.84 332.261C311.208 332.326 311.562 332.46 311.903 332.665C312.248 332.869 312.534 333.178 312.761 333.591C312.988 334.004 313.102 334.557 313.102 335.25V341H311.761V339.818H311.693C311.602 340.008 311.45 340.21 311.238 340.426C311.026 340.642 310.744 340.826 310.391 340.977C310.039 341.129 309.609 341.205 309.102 341.205ZM309.306 340C309.837 340 310.284 339.896 310.647 339.688C311.015 339.479 311.291 339.21 311.477 338.881C311.666 338.551 311.761 338.205 311.761 337.841V336.614C311.704 336.682 311.579 336.744 311.386 336.801C311.196 336.854 310.977 336.902 310.727 336.943C310.48 336.981 310.24 337.015 310.005 337.045C309.774 337.072 309.587 337.095 309.443 337.114C309.094 337.159 308.768 337.233 308.465 337.335C308.166 337.434 307.924 337.583 307.738 337.784C307.556 337.981 307.465 338.25 307.465 338.591C307.465 339.057 307.638 339.409 307.982 339.648C308.331 339.883 308.772 340 309.306 340ZM314.749 341V332.273H316.045V333.591H316.136C316.295 333.159 316.582 332.809 316.999 332.54C317.416 332.271 317.886 332.136 318.408 332.136C318.507 332.136 318.63 332.138 318.778 332.142C318.925 332.146 319.037 332.152 319.113 332.159V333.523C319.067 333.511 318.963 333.494 318.8 333.472C318.641 333.445 318.473 333.432 318.295 333.432C317.87 333.432 317.492 333.521 317.158 333.699C316.829 333.873 316.567 334.116 316.374 334.426C316.185 334.733 316.09 335.083 316.09 335.477V341H314.749ZM323.182 341.182C322.364 341.182 321.659 340.989 321.068 340.602C320.478 340.216 320.023 339.684 319.705 339.006C319.387 338.328 319.228 337.553 319.228 336.682C319.228 335.795 319.39 335.013 319.716 334.335C320.046 333.653 320.504 333.121 321.091 332.739C321.682 332.352 322.371 332.159 323.159 332.159C323.773 332.159 324.326 332.273 324.818 332.5C325.311 332.727 325.714 333.045 326.029 333.455C326.343 333.864 326.538 334.341 326.614 334.886H325.273C325.171 334.489 324.943 334.136 324.591 333.83C324.243 333.519 323.773 333.364 323.182 333.364C322.659 333.364 322.201 333.5 321.807 333.773C321.417 334.042 321.112 334.422 320.892 334.915C320.676 335.403 320.568 335.977 320.568 336.636C320.568 337.311 320.675 337.898 320.887 338.398C321.103 338.898 321.406 339.286 321.796 339.562C322.19 339.839 322.652 339.977 323.182 339.977C323.531 339.977 323.847 339.917 324.131 339.795C324.415 339.674 324.656 339.5 324.853 339.273C325.05 339.045 325.19 338.773 325.273 338.455H326.614C326.538 338.97 326.351 339.434 326.051 339.847C325.756 340.256 325.364 340.581 324.875 340.824C324.39 341.062 323.826 341.182 323.182 341.182ZM329.115 335.75V341H327.774V329.364H329.115V333.636H329.229C329.433 333.186 329.74 332.828 330.149 332.562C330.562 332.294 331.111 332.159 331.797 332.159C332.392 332.159 332.912 332.278 333.359 332.517C333.806 332.752 334.153 333.114 334.399 333.602C334.649 334.087 334.774 334.705 334.774 335.455V341H333.433V335.545C333.433 334.852 333.253 334.316 332.893 333.938C332.537 333.555 332.043 333.364 331.411 333.364C330.971 333.364 330.577 333.456 330.229 333.642C329.884 333.828 329.611 334.098 329.411 334.455C329.214 334.811 329.115 335.242 329.115 335.75Z" fill="white"/>
<g filter="url(#filter5_d_64_1279)">
<rect x="24" y="384" width="263" height="48" rx="24" fill="white"/>
<rect x="24.5" y="384.5" width="262" height="47" rx="23.5" stroke="#303030" stroke-opacity="0.1"/>
</g>
<path d="M41.4091 413V401.364H42.8182V407.136H42.9545L48.1818 401.364H50.0227L45.1364 406.614L50.0227 413H48.3182L44.2727 407.591L42.8182 409.227V413H41.4091ZM53.8832 413.182C53.0423 413.182 52.317 412.996 51.7071 412.625C51.101 412.25 50.6332 411.727 50.3037 411.057C49.9779 410.383 49.8151 409.598 49.8151 408.705C49.8151 407.811 49.9779 407.023 50.3037 406.341C50.6332 405.655 51.0916 405.121 51.6787 404.739C52.2696 404.352 52.959 404.159 53.7469 404.159C54.2014 404.159 54.6503 404.235 55.0935 404.386C55.5366 404.538 55.9401 404.784 56.3037 405.125C56.6673 405.462 56.9571 405.909 57.173 406.466C57.3889 407.023 57.4969 407.708 57.4969 408.523V409.091H50.7696V407.932H56.1332C56.1332 407.439 56.0348 407 55.8378 406.614C55.6446 406.227 55.3681 405.922 55.0082 405.699C54.6522 405.475 54.2317 405.364 53.7469 405.364C53.2128 405.364 52.7507 405.496 52.3605 405.761C51.9741 406.023 51.6768 406.364 51.4685 406.784C51.2601 407.205 51.156 407.655 51.156 408.136V408.909C51.156 409.568 51.2696 410.127 51.4969 410.585C51.7279 411.04 52.048 411.386 52.4571 411.625C52.8662 411.86 53.3416 411.977 53.8832 411.977C54.2355 411.977 54.5537 411.928 54.8378 411.83C55.1257 411.727 55.3738 411.576 55.5821 411.375C55.7904 411.17 55.9514 410.917 56.0651 410.614L57.3605 410.977C57.2241 411.417 56.995 411.803 56.673 412.136C56.351 412.466 55.9533 412.723 55.4798 412.909C55.0063 413.091 54.4741 413.182 53.8832 413.182ZM59.3347 416.273C59.1074 416.273 58.9047 416.254 58.7267 416.216C58.5487 416.182 58.4256 416.148 58.3574 416.114L58.6983 414.932C59.0241 415.015 59.3119 415.045 59.5619 415.023C59.8119 415 60.0335 414.888 60.2267 414.688C60.4237 414.491 60.6036 414.17 60.7665 413.727L61.0165 413.045L57.7892 404.273H59.2437L61.6528 411.227H61.7437L64.1528 404.273H65.6074L61.9028 414.273C61.7362 414.723 61.5297 415.097 61.2835 415.392C61.0373 415.691 60.7513 415.913 60.4256 416.057C60.1036 416.201 59.74 416.273 59.3347 416.273ZM68.5545 413L65.8955 404.273H67.3045L69.1909 410.955H69.2818L71.1455 404.273H72.5773L74.4182 410.932H74.5091L76.3955 404.273H77.8045L75.1455 413H73.8273L71.9182 406.295H71.7818L69.8727 413H68.5545ZM82.0259 413.182C81.238 413.182 80.5467 412.994 79.952 412.619C79.3611 412.244 78.899 411.72 78.5656 411.045C78.2361 410.371 78.0713 409.583 78.0713 408.682C78.0713 407.773 78.2361 406.979 78.5656 406.301C78.899 405.623 79.3611 405.097 79.952 404.722C80.5467 404.347 81.238 404.159 82.0259 404.159C82.8137 404.159 83.5031 404.347 84.094 404.722C84.6887 405.097 85.1509 405.623 85.4804 406.301C85.8137 406.979 85.9804 407.773 85.9804 408.682C85.9804 409.583 85.8137 410.371 85.4804 411.045C85.1509 411.72 84.6887 412.244 84.094 412.619C83.5031 412.994 82.8137 413.182 82.0259 413.182ZM82.0259 411.977C82.6243 411.977 83.1168 411.824 83.5031 411.517C83.8895 411.21 84.1755 410.807 84.3611 410.307C84.5467 409.807 84.6395 409.265 84.6395 408.682C84.6395 408.098 84.5467 407.555 84.3611 407.051C84.1755 406.547 83.8895 406.14 83.5031 405.83C83.1168 405.519 82.6243 405.364 82.0259 405.364C81.4274 405.364 80.9349 405.519 80.5486 405.83C80.1622 406.14 79.8762 406.547 79.6906 407.051C79.505 407.555 79.4122 408.098 79.4122 408.682C79.4122 409.265 79.505 409.807 79.6906 410.307C79.8762 410.807 80.1622 411.21 80.5486 411.517C80.9349 411.824 81.4274 411.977 82.0259 411.977ZM87.2273 413V404.273H88.5227V405.591H88.6136C88.7727 405.159 89.0606 404.809 89.4773 404.54C89.8939 404.271 90.3636 404.136 90.8864 404.136C90.9848 404.136 91.108 404.138 91.2557 404.142C91.4034 404.146 91.5152 404.152 91.5909 404.159V405.523C91.5455 405.511 91.4413 405.494 91.2784 405.472C91.1193 405.445 90.9508 405.432 90.7727 405.432C90.3485 405.432 89.9697 405.521 89.6364 405.699C89.3068 405.873 89.0455 406.116 88.8523 406.426C88.6629 406.733 88.5682 407.083 88.5682 407.477V413H87.2273ZM95.4102 413.182C94.683 413.182 94.0409 412.998 93.4841 412.631C92.9273 412.259 92.4917 411.737 92.1773 411.062C91.8629 410.384 91.7057 409.583 91.7057 408.659C91.7057 407.742 91.8629 406.947 92.1773 406.273C92.4917 405.598 92.9292 405.078 93.4898 404.71C94.0504 404.343 94.6981 404.159 95.433 404.159C96.0011 404.159 96.45 404.254 96.7795 404.443C97.1129 404.629 97.3667 404.841 97.5409 405.08C97.7189 405.314 97.8572 405.508 97.9557 405.659H98.0693V401.364H99.4102V413H98.1148V411.659H97.9557C97.8572 411.818 97.717 412.019 97.5352 412.261C97.3534 412.5 97.0939 412.714 96.7568 412.903C96.4197 413.089 95.9708 413.182 95.4102 413.182ZM95.592 411.977C96.1299 411.977 96.5845 411.837 96.9557 411.557C97.3269 411.273 97.6091 410.881 97.8023 410.381C97.9955 409.877 98.092 409.295 98.092 408.636C98.092 407.985 97.9973 407.415 97.808 406.926C97.6186 406.434 97.3383 406.051 96.967 405.778C96.5958 405.502 96.1375 405.364 95.592 405.364C95.0239 405.364 94.5504 405.509 94.1716 405.801C93.7966 406.089 93.5144 406.481 93.325 406.977C93.1394 407.47 93.0466 408.023 93.0466 408.636C93.0466 409.258 93.1413 409.822 93.3307 410.33C93.5239 410.833 93.808 411.235 94.183 411.534C94.5617 411.83 95.0314 411.977 95.592 411.977ZM105.93 413.091C105.649 413.091 105.409 412.991 105.208 412.79C105.007 412.589 104.907 412.348 104.907 412.068C104.907 411.788 105.007 411.547 105.208 411.347C105.409 411.146 105.649 411.045 105.93 411.045C106.21 411.045 106.45 411.146 106.651 411.347C106.852 411.547 106.952 411.788 106.952 412.068C106.952 412.254 106.905 412.424 106.81 412.58C106.719 412.735 106.596 412.86 106.441 412.955C106.289 413.045 106.119 413.091 105.93 413.091ZM109.536 413.091C109.255 413.091 109.015 412.991 108.814 412.79C108.613 412.589 108.513 412.348 108.513 412.068C108.513 411.788 108.613 411.547 108.814 411.347C109.015 411.146 109.255 411.045 109.536 411.045C109.816 411.045 110.057 411.146 110.257 411.347C110.458 411.547 110.559 411.788 110.559 412.068C110.559 412.254 110.511 412.424 110.416 412.58C110.326 412.735 110.202 412.86 110.047 412.955C109.896 413.045 109.725 413.091 109.536 413.091ZM113.142 413.091C112.862 413.091 112.621 412.991 112.42 412.79C112.22 412.589 112.119 412.348 112.119 412.068C112.119 411.788 112.22 411.547 112.42 411.347C112.621 411.146 112.862 411.045 113.142 411.045C113.422 411.045 113.663 411.146 113.864 411.347C114.064 411.547 114.165 411.788 114.165 412.068C114.165 412.254 114.117 412.424 114.023 412.58C113.932 412.735 113.809 412.86 113.653 412.955C113.502 413.045 113.331 413.091 113.142 413.091Z" fill="#747474"/>
<path fill-rule="evenodd" clip-rule="evenodd" d="M362.5 399.75C358.772 399.75 355.75 402.772 355.75 406.5C355.75 410.228 358.772 413.25 362.5 413.25C364.364 413.25 366.051 412.495 367.273 411.273C368.495 410.051 369.25 408.364 369.25 406.5C369.25 402.772 366.228 399.75 362.5 399.75ZM354.25 406.5C354.25 401.944 357.944 398.25 362.5 398.25C367.056 398.25 370.75 401.944 370.75 406.5C370.75 408.508 370.032 410.349 368.84 411.779L373.53 416.47C373.823 416.763 373.823 417.237 373.53 417.53C373.237 417.823 372.763 417.823 372.47 417.53L367.779 412.84C366.349 414.032 364.508 414.75 362.5 414.75C357.944 414.75 354.25 411.056 354.25 406.5Z" fill="#303030"/>
<path d="M303.163 404.273C303.095 403.697 302.819 403.25 302.334 402.932C301.849 402.614 301.254 402.455 300.55 402.455C300.035 402.455 299.584 402.538 299.197 402.705C298.815 402.871 298.516 403.1 298.3 403.392C298.088 403.684 297.982 404.015 297.982 404.386C297.982 404.697 298.055 404.964 298.203 405.188C298.355 405.407 298.548 405.591 298.783 405.739C299.018 405.883 299.264 406.002 299.521 406.097C299.779 406.187 300.016 406.261 300.232 406.318L301.413 406.636C301.716 406.716 302.054 406.826 302.425 406.966C302.8 407.106 303.158 407.297 303.499 407.54C303.843 407.778 304.127 408.085 304.351 408.46C304.574 408.835 304.686 409.295 304.686 409.841C304.686 410.47 304.521 411.038 304.192 411.545C303.866 412.053 303.389 412.456 302.76 412.756C302.135 413.055 301.375 413.205 300.482 413.205C299.648 413.205 298.927 413.07 298.317 412.801C297.711 412.532 297.233 412.157 296.885 411.676C296.54 411.195 296.345 410.636 296.3 410H297.754C297.792 410.439 297.94 410.803 298.197 411.091C298.459 411.375 298.788 411.587 299.186 411.727C299.588 411.864 300.019 411.932 300.482 411.932C301.019 411.932 301.502 411.845 301.93 411.67C302.358 411.492 302.697 411.246 302.947 410.932C303.197 410.614 303.322 410.242 303.322 409.818C303.322 409.432 303.214 409.117 302.999 408.875C302.783 408.633 302.499 408.436 302.146 408.284C301.794 408.133 301.413 408 301.004 407.886L299.572 407.477C298.663 407.216 297.944 406.843 297.413 406.358C296.883 405.873 296.618 405.239 296.618 404.455C296.618 403.803 296.794 403.235 297.146 402.75C297.502 402.261 297.98 401.883 298.578 401.614C299.18 401.341 299.853 401.205 300.595 401.205C301.345 401.205 302.012 401.339 302.595 401.608C303.179 401.873 303.641 402.237 303.982 402.699C304.326 403.161 304.508 403.686 304.527 404.273H303.163ZM309.68 413.182C308.839 413.182 308.114 412.996 307.504 412.625C306.898 412.25 306.43 411.727 306.101 411.057C305.775 410.383 305.612 409.598 305.612 408.705C305.612 407.811 305.775 407.023 306.101 406.341C306.43 405.655 306.888 405.121 307.476 404.739C308.066 404.352 308.756 404.159 309.544 404.159C309.998 404.159 310.447 404.235 310.89 404.386C311.334 404.538 311.737 404.784 312.101 405.125C312.464 405.462 312.754 405.909 312.97 406.466C313.186 407.023 313.294 407.708 313.294 408.523V409.091H306.566V407.932H311.93C311.93 407.439 311.832 407 311.635 406.614C311.441 406.227 311.165 405.922 310.805 405.699C310.449 405.475 310.029 405.364 309.544 405.364C309.01 405.364 308.548 405.496 308.157 405.761C307.771 406.023 307.474 406.364 307.265 406.784C307.057 407.205 306.953 407.655 306.953 408.136V408.909C306.953 409.568 307.066 410.127 307.294 410.585C307.525 411.04 307.845 411.386 308.254 411.625C308.663 411.86 309.138 411.977 309.68 411.977C310.032 411.977 310.351 411.928 310.635 411.83C310.923 411.727 311.171 411.576 311.379 411.375C311.587 411.17 311.748 410.917 311.862 410.614L313.157 410.977C313.021 411.417 312.792 411.803 312.47 412.136C312.148 412.466 311.75 412.723 311.277 412.909C310.803 413.091 310.271 413.182 309.68 413.182ZM317.102 413.205C316.549 413.205 316.047 413.1 315.596 412.892C315.145 412.68 314.787 412.375 314.522 411.977C314.257 411.576 314.124 411.091 314.124 410.523C314.124 410.023 314.223 409.617 314.42 409.307C314.617 408.992 314.88 408.746 315.21 408.568C315.539 408.39 315.903 408.258 316.301 408.17C316.702 408.08 317.105 408.008 317.511 407.955C318.041 407.886 318.471 407.835 318.801 407.801C319.134 407.763 319.376 407.701 319.528 407.614C319.683 407.527 319.761 407.375 319.761 407.159V407.114C319.761 406.553 319.607 406.117 319.301 405.807C318.998 405.496 318.537 405.341 317.92 405.341C317.28 405.341 316.778 405.481 316.414 405.761C316.051 406.042 315.795 406.341 315.647 406.659L314.374 406.205C314.602 405.674 314.905 405.261 315.284 404.966C315.666 404.667 316.083 404.458 316.534 404.341C316.988 404.22 317.435 404.159 317.874 404.159C318.155 404.159 318.477 404.193 318.84 404.261C319.208 404.326 319.562 404.46 319.903 404.665C320.248 404.869 320.534 405.178 320.761 405.591C320.988 406.004 321.102 406.557 321.102 407.25V413H319.761V411.818H319.693C319.602 412.008 319.45 412.21 319.238 412.426C319.026 412.642 318.744 412.826 318.391 412.977C318.039 413.129 317.609 413.205 317.102 413.205ZM317.306 412C317.837 412 318.284 411.896 318.647 411.688C319.015 411.479 319.291 411.21 319.477 410.881C319.666 410.551 319.761 410.205 319.761 409.841V408.614C319.704 408.682 319.579 408.744 319.386 408.801C319.196 408.854 318.977 408.902 318.727 408.943C318.48 408.981 318.24 409.015 318.005 409.045C317.774 409.072 317.587 409.095 317.443 409.114C317.094 409.159 316.768 409.233 316.465 409.335C316.166 409.434 315.924 409.583 315.738 409.784C315.556 409.981 315.465 410.25 315.465 410.591C315.465 411.057 315.638 411.409 315.982 411.648C316.331 411.883 316.772 412 317.306 412ZM322.749 413V404.273H324.045V405.591H324.136C324.295 405.159 324.582 404.809 324.999 404.54C325.416 404.271 325.886 404.136 326.408 404.136C326.507 404.136 326.63 404.138 326.778 404.142C326.925 404.146 327.037 404.152 327.113 404.159V405.523C327.067 405.511 326.963 405.494 326.8 405.472C326.641 405.445 326.473 405.432 326.295 405.432C325.87 405.432 325.492 405.521 325.158 405.699C324.829 405.873 324.567 406.116 324.374 406.426C324.185 406.733 324.09 407.083 324.09 407.477V413H322.749ZM331.182 413.182C330.364 413.182 329.659 412.989 329.068 412.602C328.478 412.216 328.023 411.684 327.705 411.006C327.387 410.328 327.228 409.553 327.228 408.682C327.228 407.795 327.39 407.013 327.716 406.335C328.046 405.653 328.504 405.121 329.091 404.739C329.682 404.352 330.371 404.159 331.159 404.159C331.773 404.159 332.326 404.273 332.818 404.5C333.311 404.727 333.714 405.045 334.029 405.455C334.343 405.864 334.538 406.341 334.614 406.886H333.273C333.171 406.489 332.943 406.136 332.591 405.83C332.243 405.519 331.773 405.364 331.182 405.364C330.659 405.364 330.201 405.5 329.807 405.773C329.417 406.042 329.112 406.422 328.892 406.915C328.676 407.403 328.568 407.977 328.568 408.636C328.568 409.311 328.675 409.898 328.887 410.398C329.103 410.898 329.406 411.286 329.796 411.562C330.19 411.839 330.652 411.977 331.182 411.977C331.531 411.977 331.847 411.917 332.131 411.795C332.415 411.674 332.656 411.5 332.853 411.273C333.05 411.045 333.19 410.773 333.273 410.455H334.614C334.538 410.97 334.351 411.434 334.051 411.847C333.756 412.256 333.364 412.581 332.875 412.824C332.39 413.062 331.826 413.182 331.182 413.182ZM337.115 407.75V413H335.774V401.364H337.115V405.636H337.229C337.433 405.186 337.74 404.828 338.149 404.562C338.562 404.294 339.111 404.159 339.797 404.159C340.392 404.159 340.912 404.278 341.359 404.517C341.806 404.752 342.153 405.114 342.399 405.602C342.649 406.087 342.774 406.705 342.774 407.455V413H341.433V407.545C341.433 406.852 341.253 406.316 340.893 405.938C340.537 405.555 340.043 405.364 339.411 405.364C338.971 405.364 338.577 405.456 338.229 405.642C337.884 405.828 337.611 406.098 337.411 406.455C337.214 406.811 337.115 407.242 337.115 407.75Z" fill="#303030"/>
<rect x="0.5" y="0.5" width="407" height="455" rx="7.5" stroke="white" stroke-opacity="0.1"/>
<defs>
<filter id="filter0_d_64_1279" x="20" y="22" width="320" height="56" filterUnits="userSpaceOnUse" color-interpolation-filters="sRGB">
<feFlood flood-opacity="0" result="BackgroundImageFix"/>
<feColorMatrix in="SourceAlpha" type="matrix" values="0 0 0 0 0 0 0 0 0 0 0 0 0 0 0 0 0 0 127 0" result="hardAlpha"/>
<feOffset dy="2"/>
<feGaussianBlur stdDeviation="2"/>
<feComposite in2="hardAlpha" operator="out"/>
<feColorMatrix type="matrix" values="0 0 0 0 0 0 0 0 0 0 0 0 0 0 0 0 0 0 0.2 0"/>
<feBlend mode="normal" in2="BackgroundImageFix" result="effect1_dropShadow_64_1279"/>
<feBlend mode="normal" in="SourceGraphic" in2="effect1_dropShadow_64_1279" result="shape"/>
</filter>
<filter id="filter1_d_64_1279" x="20" y="94" width="320" height="56" filterUnits="userSpaceOnUse" color-interpolation-filters="sRGB">
<feFlood flood-opacity="0" result="BackgroundImageFix"/>
<feColorMatrix in="SourceAlpha" type="matrix" values="0 0 0 0 0 0 0 0 0 0 0 0 0 0 0 0 0 0 127 0" result="hardAlpha"/>
<feOffset dy="2"/>
<feGaussianBlur stdDeviation="2"/>
<feComposite in2="hardAlpha" operator="out"/>
<feColorMatrix type="matrix" values="0 0 0 0 0 0 0 0 0 0 0 0 0 0 0 0 0 0 0.2 0"/>
<feBlend mode="normal" in2="BackgroundImageFix" result="effect1_dropShadow_64_1279"/>
<feBlend mode="normal" in="SourceGraphic" in2="effect1_dropShadow_64_1279" result="shape"/>
</filter>
<filter id="filter2_d_64_1279" x="20" y="166" width="320" height="56" filterUnits="userSpaceOnUse" color-interpolation-filters="sRGB">
<feFlood flood-opacity="0" result="BackgroundImageFix"/>
<feColorMatrix in="SourceAlpha" type="matrix" values="0 0 0 0 0 0 0 0 0 0 0 0 0 0 0 0 0 0 127 0" result="hardAlpha"/>
<feOffset dy="2"/>
<feGaussianBlur stdDeviation="2"/>
<feComposite in2="hardAlpha" operator="out"/>
<feColorMatrix type="matrix" values="0 0 0 0 0 0 0 0 0 0 0 0 0 0 0 0 0 0 0.2 0"/>
<feBlend mode="normal" in2="BackgroundImageFix" result="effect1_dropShadow_64_1279"/>
<feBlend mode="normal" in="SourceGraphic" in2="effect1_dropShadow_64_1279" result="shape"/>
</filter>
<filter id="filter3_d_64_1279" x="20" y="238" width="271" height="56" filterUnits="userSpaceOnUse" color-interpolation-filters="sRGB">
<feFlood flood-opacity="0" result="BackgroundImageFix"/>
<feColorMatrix in="SourceAlpha" type="matrix" values="0 0 0 0 0 0 0 0 0 0 0 0 0 0 0 0 0 0 127 0" result="hardAlpha"/>
<feOffset dy="2"/>
<feGaussianBlur stdDeviation="2"/>
<feComposite in2="hardAlpha" operator="out"/>
<feColorMatrix type="matrix" values="0 0 0 0 0 0 0 0 0 0 0 0 0 0 0 0 0 0 0.2 0"/>
<feBlend mode="normal" in2="BackgroundImageFix" result="effect1_dropShadow_64_1279"/>
<feBlend mode="normal" in="SourceGraphic" in2="effect1_dropShadow_64_1279" result="shape"/>
</filter>
<filter id="filter4_d_64_1279" x="20" y="310" width="247" height="56" filterUnits="userSpaceOnUse" color-interpolation-filters="sRGB">
<feFlood flood-opacity="0" result="BackgroundImageFix"/>
<feColorMatrix in="SourceAlpha" type="matrix" values="0 0 0 0 0 0 0 0 0 0 0 0 0 0 0 0 0 0 127 0" result="hardAlpha"/>
<feOffset dy="2"/>
<feGaussianBlur stdDeviation="2"/>
<feComposite in2="hardAlpha" operator="out"/>
<feColorMatrix type="matrix" values="0 0 0 0 0 0 0 0 0 0 0 0 0 0 0 0 0 0 0.2 0"/>
<feBlend mode="normal" in2="BackgroundImageFix" result="effect1_dropShadow_64_1279"/>
<feBlend mode="normal" in="SourceGraphic" in2="effect1_dropShadow_64_1279" result="shape"/>
</filter>
<filter id="filter5_d_64_1279" x="20" y="382" width="271" height="56" filterUnits="userSpaceOnUse" color-interpolation-filters="sRGB">
<feFlood flood-opacity="0" result="BackgroundImageFix"/>
<feColorMatrix in="SourceAlpha" type="matrix" values="0 0 0 0 0 0 0 0 0 0 0 0 0 0 0 0 0 0 127 0" result="hardAlpha"/>
<feOffset dy="2"/>
<feGaussianBlur stdDeviation="2"/>
<feComposite in2="hardAlpha" operator="out"/>
<feColorMatrix type="matrix" values="0 0 0 0 0 0 0 0 0 0 0 0 0 0 0 0 0 0 0.2 0"/>
<feBlend mode="normal" in2="BackgroundImageFix" result="effect1_dropShadow_64_1279"/>
<feBlend mode="normal" in="SourceGraphic" in2="effect1_dropShadow_64_1279" result="shape"/>
</filter>
</defs>
</svg>
