<svg width="128" height="108" viewBox="0 0 128 108" fill="none" xmlns="http://www.w3.org/2000/svg">
<rect width="128" height="108" rx="8" fill="#F0F0F0"/>
<rect x="24" y="28" width="8" height="2" rx="1" fill="#303030"/>
<rect x="24" y="32" width="16" height="2" rx="1" fill="#303030"/>
<rect x="32" y="36" width="8" height="2" rx="1" fill="#303030"/>
<rect x="72" y="37.5" width="16" height="2" rx="1" transform="rotate(-45 72 37.5)" fill="#303030"/>
<rect x="73.4143" y="26" width="16" height="2" rx="1" transform="rotate(45 73.4143 26)" fill="#303030"/>
<rect x="24" y="64" width="12" height="4" rx="2" fill="#632AFF"/>
<rect x="24" y="72" width="24" height="4" rx="2" fill="#632AFF"/>
<rect x="36" y="80" width="12" height="4" rx="2" fill="#632AFF"/>
<rect x="82.8284" y="64" width="24" height="4" rx="2" transform="rotate(45 82.8284 64)" fill="#632AFF"/>
<rect x="80" y="81" width="24" height="4" rx="2" transform="rotate(-45 80 81)" fill="#632AFF"/>
<rect x="0.5" y="0.5" width="127" height="107" rx="7.5" stroke="white" stroke-opacity="0.1"/>
</svg>
