<svg width="332" height="216" viewBox="0 0 332 216" fill="none" xmlns="http://www.w3.org/2000/svg">
<rect width="332" height="216" rx="8" fill="#F0F0F0"/>
<path fill-rule="evenodd" clip-rule="evenodd" d="M39.0779 34.25C38.1613 34.25 37.3791 34.9127 37.2284 35.8168L37.0497 36.8887C37.0296 37.0096 36.9354 37.1498 36.7531 37.2375C36.4091 37.4029 36.0797 37.5938 35.7674 37.8076C35.6009 37.9216 35.4326 37.9332 35.3177 37.8902L34.2985 37.5083C33.4402 37.1868 32.4752 37.5329 32.0169 38.3267L31.0949 39.9236C30.6367 40.7174 30.8194 41.7261 31.527 42.3087L32.3676 43.0006C32.4622 43.0785 32.5363 43.2298 32.5212 43.4307C32.5071 43.6188 32.4999 43.8086 32.4999 44C32.4999 44.1915 32.5071 44.3814 32.5212 44.5695C32.5363 44.7704 32.4622 44.9217 32.3676 44.9996L31.527 45.6916C30.8194 46.2741 30.6367 47.2829 31.0949 48.0767L32.0169 49.6736C32.4752 50.4674 33.4402 50.8135 34.2985 50.4919L35.3179 50.11C35.4328 50.067 35.6011 50.0786 35.7676 50.1925C36.0798 50.4063 36.4091 50.5971 36.7531 50.7625C36.9354 50.8502 37.0296 50.9904 37.0497 51.1113L37.2284 52.1832C37.3791 53.0874 38.1613 53.75 39.0779 53.75H40.9219C41.8384 53.75 42.6207 53.0874 42.7713 52.1832L42.95 51.1113C42.9702 50.9904 43.0643 50.8502 43.2466 50.7625C43.5907 50.5971 43.9201 50.4062 44.2324 50.1924C44.3988 50.0784 44.5672 50.0668 44.6821 50.1098L45.7012 50.4917C46.5596 50.8132 47.5246 50.4671 47.9828 49.6733L48.9048 48.0764C49.3631 47.2826 49.1804 46.2739 48.4727 45.6913L47.6322 44.9994C47.5376 44.9215 47.4635 44.7702 47.4786 44.5693C47.4927 44.3812 47.4999 44.1914 47.4999 44C47.4999 43.8085 47.4927 43.6186 47.4785 43.4305C47.4634 43.2296 47.5375 43.0783 47.6322 43.0004L48.4727 42.3084C49.1804 41.7259 49.3631 40.7171 48.9048 39.9233L47.9828 38.3264C47.5246 37.5326 46.5596 37.1865 45.7012 37.5081L44.6818 37.89C44.5669 37.933 44.3986 37.9214 44.2321 37.8075C43.9199 37.5937 43.5906 37.4029 43.2466 37.2375C43.0643 37.1498 42.9702 37.0096 42.95 36.8887L42.7713 35.8168C42.6207 34.9127 41.8384 34.25 40.9219 34.25H39.0779ZM40 47.75C42.0711 47.75 43.75 46.0711 43.75 44C43.75 41.9289 42.0711 40.25 40 40.25C37.9289 40.25 36.25 41.9289 36.25 44C36.25 46.0711 37.9289 47.75 40 47.75Z" fill="#303030"/>
<path d="M64.1289 49.6777C63.3997 49.6777 62.7686 49.5615 62.2354 49.3291C61.7021 49.0921 61.2829 48.764 60.9775 48.3447C60.6768 47.9209 60.5059 47.431 60.4648 46.875H61.7363C61.7728 47.2578 61.9027 47.5745 62.126 47.8252C62.3538 48.0758 62.6432 48.2627 62.9941 48.3857C63.3451 48.5088 63.7233 48.5703 64.1289 48.5703C64.5983 48.5703 65.0199 48.4928 65.3936 48.3379C65.7718 48.1829 66.0703 47.9665 66.2891 47.6885C66.5078 47.4105 66.6172 47.0846 66.6172 46.7109C66.6172 46.3737 66.5215 46.1003 66.3301 45.8906C66.1387 45.681 65.888 45.5101 65.5781 45.3779C65.2728 45.2458 64.9401 45.1296 64.5801 45.0293L63.3359 44.6738C62.5384 44.446 61.9072 44.1201 61.4424 43.6963C60.9821 43.2679 60.752 42.7096 60.752 42.0215C60.752 41.4518 60.9046 40.9551 61.21 40.5312C61.5199 40.1029 61.9368 39.7702 62.4609 39.5332C62.9896 39.2962 63.5775 39.1777 64.2246 39.1777C64.8809 39.1777 65.4642 39.2962 65.9746 39.5332C66.485 39.7656 66.8906 40.0846 67.1914 40.4902C67.4922 40.8913 67.6517 41.347 67.6699 41.8574H66.4668C66.4076 41.3561 66.166 40.9665 65.7422 40.6885C65.3229 40.4105 64.8034 40.2715 64.1836 40.2715C63.737 40.2715 63.3451 40.3444 63.0078 40.4902C62.6706 40.6361 62.4085 40.8366 62.2217 41.0918C62.0348 41.347 61.9414 41.6387 61.9414 41.9668C61.9414 42.3268 62.0531 42.6185 62.2764 42.8418C62.4997 43.0605 62.764 43.2314 63.0693 43.3545C63.3792 43.4775 63.6595 43.5755 63.9102 43.6484L64.9355 43.9355C65.1999 44.0085 65.4938 44.1064 65.8174 44.2295C66.1455 44.3525 66.46 44.5189 66.7607 44.7285C67.0661 44.9382 67.3167 45.207 67.5127 45.5352C67.7087 45.8587 67.8066 46.2598 67.8066 46.7383C67.8066 47.2852 67.6631 47.7819 67.376 48.2285C67.0889 48.6706 66.6719 49.0238 66.125 49.2881C65.5781 49.5479 64.9128 49.6777 64.1289 49.6777ZM72.2227 49.6641C71.4889 49.6641 70.8532 49.5 70.3154 49.1719C69.7822 48.8438 69.3721 48.3857 69.085 47.7979C68.7979 47.2054 68.6543 46.5195 68.6543 45.7402C68.6543 44.9564 68.7956 44.266 69.0781 43.6689C69.3607 43.0719 69.7572 42.6048 70.2676 42.2676C70.7826 41.9303 71.3841 41.7617 72.0723 41.7617C72.4688 41.7617 72.863 41.8278 73.2549 41.96C73.6468 42.0921 74.0023 42.3063 74.3213 42.6025C74.6449 42.8988 74.9023 43.2907 75.0938 43.7783C75.2852 44.266 75.3809 44.8652 75.3809 45.5762V46.082H69.4883V45.0703H74.7451L74.2051 45.4531C74.2051 44.9427 74.1253 44.4893 73.9658 44.0928C73.8063 43.6963 73.5671 43.3841 73.248 43.1562C72.9336 42.9284 72.5417 42.8145 72.0723 42.8145C71.6029 42.8145 71.1995 42.9307 70.8623 43.1631C70.5296 43.391 70.2744 43.6895 70.0967 44.0586C69.9189 44.4277 69.8301 44.8242 69.8301 45.248V45.918C69.8301 46.4967 69.9303 46.9867 70.1309 47.3877C70.3314 47.7887 70.6117 48.0941 70.9717 48.3037C71.3317 48.5088 71.7487 48.6113 72.2227 48.6113C72.528 48.6113 72.806 48.568 73.0566 48.4814C73.3073 48.3903 73.5238 48.2559 73.7061 48.0781C73.8883 47.8958 74.0273 47.6725 74.123 47.4082L75.2578 47.7363C75.1393 48.1191 74.9388 48.4564 74.6562 48.748C74.3783 49.0352 74.0319 49.2607 73.6172 49.4248C73.2025 49.5843 72.7376 49.6641 72.2227 49.6641ZM79.7969 41.8574V42.8555H75.8457V41.8574H79.7969ZM76.9941 40.0391H78.1562V47.3125C78.1562 47.709 78.2383 48.0007 78.4023 48.1875C78.5664 48.3698 78.8262 48.4609 79.1816 48.4609C79.2591 48.4609 79.3389 48.4564 79.4209 48.4473C79.5075 48.4382 79.6009 48.4245 79.7012 48.4062L79.9473 49.459C79.8379 49.5 79.7035 49.5319 79.5439 49.5547C79.389 49.582 79.2318 49.5957 79.0723 49.5957C78.457 49.5957 77.9557 49.4134 77.5684 49.0488C77.1855 48.6842 76.9941 48.2103 76.9941 47.627V40.0391ZM84.2266 41.8574V42.8555H80.2754V41.8574H84.2266ZM81.4238 40.0391H82.5859V47.3125C82.5859 47.709 82.668 48.0007 82.832 48.1875C82.9961 48.3698 83.2559 48.4609 83.6113 48.4609C83.6888 48.4609 83.7686 48.4564 83.8506 48.4473C83.9372 48.4382 84.0306 48.4245 84.1309 48.4062L84.377 49.459C84.2676 49.5 84.1331 49.5319 83.9736 49.5547C83.8187 49.582 83.6615 49.5957 83.502 49.5957C82.8867 49.5957 82.3854 49.4134 81.998 49.0488C81.6152 48.6842 81.4238 48.2103 81.4238 47.627V40.0391ZM85.3477 49.5V41.8574H86.5098V49.5H85.3477ZM85.9355 40.5859C85.7077 40.5859 85.5117 40.5085 85.3477 40.3535C85.1836 40.1986 85.1016 40.0117 85.1016 39.793C85.1016 39.5742 85.1836 39.3874 85.3477 39.2324C85.5117 39.0775 85.7077 39 85.9355 39C86.1634 39 86.3594 39.0775 86.5234 39.2324C86.6875 39.3874 86.7695 39.5742 86.7695 39.793C86.7695 40.0117 86.6875 40.1986 86.5234 40.3535C86.3594 40.5085 86.1634 40.5859 85.9355 40.5859ZM89.1758 44.9062V49.5H88.0137V41.8574H89.1348V43.0605H89.2441C89.4219 42.6686 89.693 42.3542 90.0576 42.1172C90.4222 41.8802 90.8939 41.7617 91.4727 41.7617C91.9876 41.7617 92.4388 41.8665 92.8262 42.0762C93.2135 42.2858 93.5143 42.6048 93.7285 43.0332C93.9473 43.457 94.0566 43.9948 94.0566 44.6465V49.5H92.8945V44.7285C92.8945 44.1315 92.7373 43.6644 92.4229 43.3271C92.1084 42.9854 91.68 42.8145 91.1377 42.8145C90.764 42.8145 90.429 42.8965 90.1328 43.0605C89.8366 43.2246 89.6019 43.4616 89.4287 43.7715C89.2601 44.0814 89.1758 44.4596 89.1758 44.9062ZM98.6367 52.5215C97.7845 52.5215 97.11 52.3665 96.6133 52.0566C96.1211 51.7467 95.7565 51.3913 95.5195 50.9902L96.4492 50.334C96.554 50.4753 96.6885 50.6348 96.8525 50.8125C97.0166 50.9948 97.2399 51.152 97.5225 51.2842C97.805 51.4163 98.1764 51.4824 98.6367 51.4824C99.252 51.4824 99.7601 51.3343 100.161 51.0381C100.567 50.7419 100.77 50.2747 100.77 49.6367V48.0918H100.66C100.578 48.2285 100.457 48.3994 100.298 48.6045C100.143 48.805 99.9173 48.985 99.6211 49.1445C99.3294 49.2995 98.9329 49.377 98.4316 49.377C97.8164 49.377 97.265 49.2311 96.7773 48.9395C96.2897 48.6478 95.9023 48.224 95.6152 47.668C95.3327 47.112 95.1914 46.4375 95.1914 45.6445C95.1914 44.8607 95.3281 44.1794 95.6016 43.6006C95.8796 43.0173 96.2646 42.5661 96.7568 42.2471C97.249 41.9235 97.8164 41.7617 98.459 41.7617C98.9557 41.7617 99.3499 41.8438 99.6416 42.0078C99.9378 42.1719 100.163 42.3587 100.318 42.5684C100.478 42.7734 100.601 42.9421 100.688 43.0742H100.811V41.8574H101.932V49.7188C101.932 50.375 101.784 50.9082 101.487 51.3184C101.196 51.7331 100.799 52.0361 100.298 52.2275C99.8011 52.4235 99.2474 52.5215 98.6367 52.5215ZM98.5957 48.3242C99.3021 48.3242 99.8421 48.085 100.216 47.6064C100.594 47.1279 100.783 46.4648 100.783 45.6172C100.783 45.0658 100.701 44.5804 100.537 44.1611C100.373 43.7419 100.127 43.4137 99.7988 43.1768C99.4753 42.9352 99.0742 42.8145 98.5957 42.8145C98.099 42.8145 97.6842 42.9421 97.3516 43.1973C97.0234 43.4479 96.7773 43.7852 96.6133 44.209C96.4492 44.6328 96.3672 45.1022 96.3672 45.6172C96.3672 46.1458 96.4492 46.6152 96.6133 47.0254C96.7819 47.431 97.0326 47.75 97.3652 47.9824C97.6979 48.2103 98.1081 48.3242 98.5957 48.3242ZM108.836 43.5801L107.783 43.8672C107.683 43.6074 107.51 43.3613 107.264 43.1289C107.022 42.8919 106.644 42.7734 106.129 42.7734C105.664 42.7734 105.277 42.8828 104.967 43.1016C104.657 43.3158 104.502 43.5846 104.502 43.9082C104.502 44.1999 104.607 44.4323 104.816 44.6055C105.031 44.7786 105.363 44.9199 105.814 45.0293L106.949 45.3027C107.628 45.4668 108.134 45.7197 108.467 46.0615C108.804 46.4033 108.973 46.8385 108.973 47.3672C108.973 47.8047 108.847 48.1966 108.597 48.543C108.346 48.8893 107.997 49.1628 107.551 49.3633C107.104 49.5638 106.585 49.6641 105.992 49.6641C105.213 49.6641 104.568 49.4932 104.058 49.1514C103.552 48.8096 103.23 48.3151 103.094 47.668L104.201 47.3945C104.306 47.8047 104.507 48.1123 104.803 48.3174C105.104 48.5225 105.495 48.625 105.979 48.625C106.521 48.625 106.954 48.5088 107.277 48.2764C107.605 48.0394 107.77 47.7591 107.77 47.4355C107.77 46.8978 107.391 46.5378 106.635 46.3555L105.363 46.0547C104.661 45.8861 104.146 45.6286 103.818 45.2822C103.49 44.9359 103.326 44.5007 103.326 43.9766C103.326 43.5436 103.447 43.1608 103.688 42.8281C103.935 42.4954 104.27 42.2357 104.693 42.0488C105.117 41.8574 105.596 41.7617 106.129 41.7617C106.89 41.7617 107.485 41.9303 107.913 42.2676C108.346 42.6003 108.654 43.0378 108.836 43.5801Z" fill="#303030"/>
<rect x="126" y="24" width="68" height="40" rx="8" fill="#D3D3D3"/>
<path fill-rule="evenodd" clip-rule="evenodd" d="M132.25 44C132.25 38.6152 136.615 34.25 142 34.25C147.385 34.25 151.75 38.6152 151.75 44C151.75 49.3848 147.385 53.75 142 53.75C136.615 53.75 132.25 49.3848 132.25 44ZM140.956 42.5584C142.102 41.9853 143.393 43.0206 143.082 44.2639L142.373 47.0999L142.415 47.0792C142.785 46.894 143.236 47.0441 143.421 47.4146C143.606 47.7851 143.456 48.2356 143.086 48.4208L143.044 48.4416C141.898 49.0147 140.607 47.9794 140.918 46.7361L141.627 43.9001L141.586 43.9208C141.215 44.1061 140.765 43.9559 140.579 43.5854C140.394 43.2149 140.544 42.7644 140.915 42.5792L140.956 42.5584ZM142 41C142.414 41 142.75 40.6642 142.75 40.25C142.75 39.8358 142.414 39.5 142 39.5C141.586 39.5 141.25 39.8358 141.25 40.25C141.25 40.6642 141.586 41 142 41Z" fill="#303030"/>
<path d="M162.902 49.5V39.3145H164.133V43.8535H169.561V39.3145H170.791V49.5H169.561V44.9473H164.133V49.5H162.902ZM175.645 49.6641C174.911 49.6641 174.275 49.5 173.737 49.1719C173.204 48.8438 172.794 48.3857 172.507 47.7979C172.22 47.2054 172.076 46.5195 172.076 45.7402C172.076 44.9564 172.217 44.266 172.5 43.6689C172.783 43.0719 173.179 42.6048 173.689 42.2676C174.204 41.9303 174.806 41.7617 175.494 41.7617C175.891 41.7617 176.285 41.8278 176.677 41.96C177.069 42.0921 177.424 42.3063 177.743 42.6025C178.067 42.8988 178.324 43.2907 178.516 43.7783C178.707 44.266 178.803 44.8652 178.803 45.5762V46.082H172.91V45.0703H178.167L177.627 45.4531C177.627 44.9427 177.547 44.4893 177.388 44.0928C177.228 43.6963 176.989 43.3841 176.67 43.1562C176.355 42.9284 175.964 42.8145 175.494 42.8145C175.025 42.8145 174.621 42.9307 174.284 43.1631C173.951 43.391 173.696 43.6895 173.519 44.0586C173.341 44.4277 173.252 44.8242 173.252 45.248V45.918C173.252 46.4967 173.352 46.9867 173.553 47.3877C173.753 47.7887 174.034 48.0941 174.394 48.3037C174.754 48.5088 175.171 48.6113 175.645 48.6113C175.95 48.6113 176.228 48.568 176.479 48.4814C176.729 48.3903 176.946 48.2559 177.128 48.0781C177.31 47.8958 177.449 47.6725 177.545 47.4082L178.68 47.7363C178.561 48.1191 178.361 48.4564 178.078 48.748C177.8 49.0352 177.454 49.2607 177.039 49.4248C176.624 49.5843 176.16 49.6641 175.645 49.6641ZM181.072 39.3145V49.5H179.91V39.3145H181.072ZM182.576 52.3574V41.8574H183.697V43.0742H183.834C183.921 42.9421 184.041 42.7734 184.196 42.5684C184.351 42.3587 184.575 42.1719 184.866 42.0078C185.158 41.8438 185.552 41.7617 186.049 41.7617C186.691 41.7617 187.257 41.9235 187.744 42.2471C188.232 42.5661 188.612 43.0218 188.886 43.6143C189.164 44.2021 189.303 44.8971 189.303 45.6992C189.303 46.5059 189.166 47.2077 188.893 47.8047C188.619 48.3971 188.239 48.8551 187.751 49.1787C187.263 49.5023 186.701 49.6641 186.062 49.6641C185.575 49.6641 185.183 49.582 184.887 49.418C184.59 49.2493 184.363 49.0602 184.203 48.8506C184.044 48.6364 183.921 48.4609 183.834 48.3242H183.738V52.3574H182.576ZM185.912 48.6113C186.4 48.6113 186.808 48.4814 187.136 48.2217C187.464 47.9574 187.71 47.6042 187.874 47.1621C188.043 46.7201 188.127 46.2279 188.127 45.6855C188.127 45.1478 188.045 44.6624 187.881 44.2295C187.717 43.7965 187.471 43.4525 187.143 43.1973C186.819 42.9421 186.409 42.8145 185.912 42.8145C185.434 42.8145 185.033 42.9352 184.709 43.1768C184.385 43.4137 184.139 43.7487 183.971 44.1816C183.807 44.61 183.725 45.1113 183.725 45.6855C183.725 46.2598 183.809 46.7679 183.978 47.21C184.146 47.6475 184.392 47.9915 184.716 48.2422C185.044 48.4883 185.443 48.6113 185.912 48.6113Z" fill="#303030"/>
<path fill-rule="evenodd" clip-rule="evenodd" d="M217.5 35.75C216.672 35.75 216 36.4216 216 37.25V50.75C216 51.5784 216.672 52.25 217.5 52.25H223.5C224.328 52.25 225 51.5784 225 50.75V47C225 46.5858 225.336 46.25 225.75 46.25C226.164 46.25 226.5 46.5858 226.5 47V50.75C226.5 52.4069 225.157 53.75 223.5 53.75H217.5C215.843 53.75 214.5 52.4069 214.5 50.75V37.25C214.5 35.5932 215.843 34.25 217.5 34.25H223.5C225.157 34.25 226.5 35.5932 226.5 37.25V41C226.5 41.4142 226.164 41.75 225.75 41.75C225.336 41.75 225 41.4142 225 41V37.25C225 36.4216 224.328 35.75 223.5 35.75H217.5ZM228.22 40.4697C228.513 40.1768 228.987 40.1768 229.28 40.4697L232.28 43.4697C232.573 43.7626 232.573 44.2374 232.28 44.5303L229.28 47.5303C228.987 47.8232 228.513 47.8232 228.22 47.5303C227.927 47.2374 227.927 46.7626 228.22 46.4697L229.939 44.75H219C218.586 44.75 218.25 44.4142 218.25 44C218.25 43.5858 218.586 43.25 219 43.25H229.939L228.22 41.5303C227.927 41.2374 227.927 40.7626 228.22 40.4697Z" fill="#303030"/>
<path d="M242.902 49.5V39.3145H244.133V48.4062H248.877V49.5H242.902ZM253.061 49.6641C252.372 49.6641 251.769 49.5 251.249 49.1719C250.729 48.8438 250.324 48.3835 250.032 47.791C249.745 47.1986 249.602 46.5104 249.602 45.7266C249.602 44.929 249.745 44.234 250.032 43.6416C250.324 43.0446 250.729 42.582 251.249 42.2539C251.769 41.9258 252.372 41.7617 253.061 41.7617C253.753 41.7617 254.359 41.9258 254.879 42.2539C255.398 42.582 255.804 43.0446 256.096 43.6416C256.387 44.234 256.533 44.929 256.533 45.7266C256.533 46.5104 256.387 47.1986 256.096 47.791C255.804 48.3835 255.398 48.8438 254.879 49.1719C254.359 49.5 253.753 49.6641 253.061 49.6641ZM253.061 48.6113C253.589 48.6113 254.022 48.4769 254.359 48.208C254.697 47.9391 254.947 47.5859 255.111 47.1484C255.275 46.7064 255.357 46.2324 255.357 45.7266C255.357 45.2116 255.275 44.7331 255.111 44.291C254.947 43.849 254.697 43.4935 254.359 43.2246C254.022 42.9512 253.589 42.8145 253.061 42.8145C252.541 42.8145 252.113 42.9512 251.775 43.2246C251.438 43.4935 251.188 43.849 251.023 44.291C250.859 44.7331 250.777 45.2116 250.777 45.7266C250.777 46.2324 250.859 46.7064 251.023 47.1484C251.188 47.5859 251.438 47.9391 251.775 48.208C252.113 48.4769 252.541 48.6113 253.061 48.6113ZM260.744 52.5215C259.892 52.5215 259.217 52.3665 258.721 52.0566C258.229 51.7467 257.864 51.3913 257.627 50.9902L258.557 50.334C258.661 50.4753 258.796 50.6348 258.96 50.8125C259.124 50.9948 259.347 51.152 259.63 51.2842C259.912 51.4163 260.284 51.4824 260.744 51.4824C261.359 51.4824 261.868 51.3343 262.269 51.0381C262.674 50.7419 262.877 50.2747 262.877 49.6367V48.0918H262.768C262.686 48.2285 262.565 48.3994 262.405 48.6045C262.25 48.805 262.025 48.985 261.729 49.1445C261.437 49.2995 261.04 49.377 260.539 49.377C259.924 49.377 259.372 49.2311 258.885 48.9395C258.397 48.6478 258.01 48.224 257.723 47.668C257.44 47.112 257.299 46.4375 257.299 45.6445C257.299 44.8607 257.436 44.1794 257.709 43.6006C257.987 43.0173 258.372 42.5661 258.864 42.2471C259.356 41.9235 259.924 41.7617 260.566 41.7617C261.063 41.7617 261.457 41.8438 261.749 42.0078C262.045 42.1719 262.271 42.3587 262.426 42.5684C262.585 42.7734 262.708 42.9421 262.795 43.0742H262.918V41.8574H264.039V49.7188C264.039 50.375 263.891 50.9082 263.595 51.3184C263.303 51.7331 262.907 52.0361 262.405 52.2275C261.909 52.4235 261.355 52.5215 260.744 52.5215ZM260.703 48.3242C261.41 48.3242 261.95 48.085 262.323 47.6064C262.701 47.1279 262.891 46.4648 262.891 45.6172C262.891 45.0658 262.809 44.5804 262.645 44.1611C262.48 43.7419 262.234 43.4137 261.906 43.1768C261.583 42.9352 261.182 42.8145 260.703 42.8145C260.206 42.8145 259.792 42.9421 259.459 43.1973C259.131 43.4479 258.885 43.7852 258.721 44.209C258.557 44.6328 258.475 45.1022 258.475 45.6172C258.475 46.1458 258.557 46.6152 258.721 47.0254C258.889 47.431 259.14 47.75 259.473 47.9824C259.805 48.2103 260.215 48.3242 260.703 48.3242ZM271.914 49.6641C271.226 49.6641 270.622 49.5 270.103 49.1719C269.583 48.8438 269.177 48.3835 268.886 47.791C268.599 47.1986 268.455 46.5104 268.455 45.7266C268.455 44.929 268.599 44.234 268.886 43.6416C269.177 43.0446 269.583 42.582 270.103 42.2539C270.622 41.9258 271.226 41.7617 271.914 41.7617C272.607 41.7617 273.213 41.9258 273.732 42.2539C274.252 42.582 274.658 43.0446 274.949 43.6416C275.241 44.234 275.387 44.929 275.387 45.7266C275.387 46.5104 275.241 47.1986 274.949 47.791C274.658 48.3835 274.252 48.8438 273.732 49.1719C273.213 49.5 272.607 49.6641 271.914 49.6641ZM271.914 48.6113C272.443 48.6113 272.876 48.4769 273.213 48.208C273.55 47.9391 273.801 47.5859 273.965 47.1484C274.129 46.7064 274.211 46.2324 274.211 45.7266C274.211 45.2116 274.129 44.7331 273.965 44.291C273.801 43.849 273.55 43.4935 273.213 43.2246C272.876 42.9512 272.443 42.8145 271.914 42.8145C271.395 42.8145 270.966 42.9512 270.629 43.2246C270.292 43.4935 270.041 43.849 269.877 44.291C269.713 44.7331 269.631 45.2116 269.631 45.7266C269.631 46.2324 269.713 46.7064 269.877 47.1484C270.041 47.5859 270.292 47.9391 270.629 48.208C270.966 48.4769 271.395 48.6113 271.914 48.6113ZM281.334 46.3828V41.8574H282.496V49.5H281.334V48.2012H281.252C281.07 48.5885 280.789 48.9189 280.411 49.1924C280.037 49.4658 279.561 49.6003 278.982 49.5957C278.504 49.5957 278.08 49.4932 277.711 49.2881C277.342 49.0785 277.05 48.7594 276.836 48.3311C276.626 47.9027 276.521 47.3626 276.521 46.7109V41.8574H277.684V46.6426C277.684 47.194 277.841 47.6361 278.155 47.9688C278.474 48.3014 278.878 48.4655 279.365 48.4609C279.657 48.4609 279.953 48.388 280.254 48.2422C280.559 48.0918 280.814 47.8639 281.02 47.5586C281.229 47.2487 281.334 46.8568 281.334 46.3828ZM287.309 41.8574V42.8555H283.357V41.8574H287.309ZM284.506 40.0391H285.668V47.3125C285.668 47.709 285.75 48.0007 285.914 48.1875C286.078 48.3698 286.338 48.4609 286.693 48.4609C286.771 48.4609 286.851 48.4564 286.933 48.4473C287.019 48.4382 287.113 48.4245 287.213 48.4062L287.459 49.459C287.35 49.5 287.215 49.5319 287.056 49.5547C286.901 49.582 286.743 49.5957 286.584 49.5957C285.969 49.5957 285.467 49.4134 285.08 49.0488C284.697 48.6842 284.506 48.2103 284.506 47.627V40.0391Z" fill="#303030"/>
<path fill-rule="evenodd" clip-rule="evenodd" d="M43.0779 98.25C42.1613 98.25 41.3791 98.9127 41.2284 99.8168L41.0497 100.889C41.0296 101.01 40.9354 101.15 40.7531 101.237C40.4091 101.403 40.0797 101.594 39.7674 101.808C39.6009 101.922 39.4326 101.933 39.3177 101.89L38.2985 101.508C37.4402 101.187 36.4752 101.533 36.0169 102.327L35.0949 103.924C34.6367 104.717 34.8194 105.726 35.527 106.309L36.3676 107.001C36.4622 107.078 36.5363 107.23 36.5212 107.431C36.5071 107.619 36.4999 107.809 36.4999 108C36.4999 108.191 36.5071 108.381 36.5212 108.569C36.5363 108.77 36.4622 108.922 36.3676 109L35.527 109.692C34.8194 110.274 34.6367 111.283 35.0949 112.077L36.0169 113.674C36.4752 114.467 37.4402 114.813 38.2985 114.492L39.3179 114.11C39.4328 114.067 39.6011 114.079 39.7676 114.192C40.0798 114.406 40.4091 114.597 40.7531 114.763C40.9354 114.85 41.0296 114.99 41.0497 115.111L41.2284 116.183C41.3791 117.087 42.1613 117.75 43.0779 117.75H44.9219C45.8384 117.75 46.6207 117.087 46.7713 116.183L46.95 115.111C46.9702 114.99 47.0643 114.85 47.2466 114.763C47.5907 114.597 47.9201 114.406 48.2324 114.192C48.3988 114.078 48.5672 114.067 48.6821 114.11L49.7012 114.492C50.5596 114.813 51.5246 114.467 51.9828 113.673L52.9048 112.076C53.3631 111.283 53.1804 110.274 52.4727 109.691L51.6322 108.999C51.5376 108.922 51.4635 108.77 51.4786 108.569C51.4927 108.381 51.4999 108.191 51.4999 108C51.4999 107.809 51.4927 107.619 51.4785 107.431C51.4634 107.23 51.5375 107.078 51.6322 107L52.4727 106.308C53.1804 105.726 53.3631 104.717 52.9048 103.923L51.9828 102.326C51.5246 101.533 50.5596 101.187 49.7012 101.508L48.6818 101.89C48.5669 101.933 48.3986 101.921 48.2321 101.807C47.9199 101.594 47.5906 101.403 47.2466 101.237C47.0643 101.15 46.9702 101.01 46.95 100.889L46.7713 99.8168C46.6207 98.9127 45.8384 98.25 44.9219 98.25H43.0779ZM44 111.75C46.0711 111.75 47.75 110.071 47.75 108C47.75 105.929 46.0711 104.25 44 104.25C41.9289 104.25 40.25 105.929 40.25 108C40.25 110.071 41.9289 111.75 44 111.75Z" fill="#303030"/>
<rect x="76" y="88" width="40" height="40" rx="8" fill="#D3D3D3"/>
<path fill-rule="evenodd" clip-rule="evenodd" d="M86.25 108C86.25 102.615 90.6152 98.25 96 98.25C101.385 98.25 105.75 102.615 105.75 108C105.75 113.385 101.385 117.75 96 117.75C90.6152 117.75 86.25 113.385 86.25 108ZM94.9562 106.558C96.1025 105.985 97.3931 107.021 97.0823 108.264L96.3733 111.1L96.4148 111.079C96.7852 110.894 97.2357 111.044 97.421 111.415C97.6062 111.785 97.4561 112.236 97.0856 112.421L97.0441 112.442C95.8979 113.015 94.6072 111.979 94.9181 110.736L95.6271 107.9L95.5856 107.921C95.2151 108.106 94.7646 107.956 94.5793 107.585C94.3941 107.215 94.5443 106.764 94.9148 106.579L94.9562 106.558ZM96 105C96.4142 105 96.75 104.664 96.75 104.25C96.75 103.836 96.4142 103.5 96 103.5C95.5858 103.5 95.25 103.836 95.25 104.25C95.25 104.664 95.5858 105 96 105Z" fill="#303030"/>
<path fill-rule="evenodd" clip-rule="evenodd" d="M143.5 99.75C142.672 99.75 142 100.422 142 101.25V114.75C142 115.578 142.672 116.25 143.5 116.25H149.5C150.328 116.25 151 115.578 151 114.75V111C151 110.586 151.336 110.25 151.75 110.25C152.164 110.25 152.5 110.586 152.5 111V114.75C152.5 116.407 151.157 117.75 149.5 117.75H143.5C141.843 117.75 140.5 116.407 140.5 114.75V101.25C140.5 99.5932 141.843 98.25 143.5 98.25H149.5C151.157 98.25 152.5 99.5932 152.5 101.25V105C152.5 105.414 152.164 105.75 151.75 105.75C151.336 105.75 151 105.414 151 105V101.25C151 100.422 150.328 99.75 149.5 99.75H143.5ZM154.22 104.47C154.513 104.177 154.987 104.177 155.28 104.47L158.28 107.47C158.573 107.763 158.573 108.237 158.28 108.53L155.28 111.53C154.987 111.823 154.513 111.823 154.22 111.53C153.927 111.237 153.927 110.763 154.22 110.47L155.939 108.75H145C144.586 108.75 144.25 108.414 144.25 108C144.25 107.586 144.586 107.25 145 107.25H155.939L154.22 105.53C153.927 105.237 153.927 104.763 154.22 104.47Z" fill="#303030"/>
<rect x="24" y="152" width="98" height="40" rx="8" fill="white"/>
<path fill-rule="evenodd" clip-rule="evenodd" d="M43.0779 162.25C42.1613 162.25 41.3791 162.913 41.2284 163.817L41.0497 164.889C41.0296 165.01 40.9354 165.15 40.7531 165.237C40.4091 165.403 40.0797 165.594 39.7674 165.808C39.6009 165.922 39.4326 165.933 39.3177 165.89L38.2985 165.508C37.4402 165.187 36.4752 165.533 36.0169 166.327L35.0949 167.924C34.6367 168.717 34.8194 169.726 35.527 170.309L36.3676 171.001C36.4622 171.078 36.5363 171.23 36.5212 171.431C36.5071 171.619 36.4999 171.809 36.4999 172C36.4999 172.191 36.5071 172.381 36.5212 172.569C36.5363 172.77 36.4622 172.922 36.3676 173L35.527 173.692C34.8194 174.274 34.6367 175.283 35.0949 176.077L36.0169 177.674C36.4752 178.467 37.4402 178.813 38.2985 178.492L39.3179 178.11C39.4328 178.067 39.6011 178.079 39.7676 178.192C40.0798 178.406 40.4091 178.597 40.7531 178.763C40.9354 178.85 41.0296 178.99 41.0497 179.111L41.2284 180.183C41.3791 181.087 42.1613 181.75 43.0779 181.75H44.9219C45.8384 181.75 46.6207 181.087 46.7713 180.183L46.95 179.111C46.9702 178.99 47.0643 178.85 47.2466 178.763C47.5907 178.597 47.9201 178.406 48.2324 178.192C48.3988 178.078 48.5672 178.067 48.6821 178.11L49.7012 178.492C50.5596 178.813 51.5246 178.467 51.9828 177.673L52.9048 176.076C53.3631 175.283 53.1804 174.274 52.4727 173.691L51.6322 172.999C51.5376 172.922 51.4635 172.77 51.4786 172.569C51.4927 172.381 51.4999 172.191 51.4999 172C51.4999 171.809 51.4927 171.619 51.4785 171.431C51.4634 171.23 51.5375 171.078 51.6322 171L52.4727 170.308C53.1804 169.726 53.3631 168.717 52.9048 167.923L51.9828 166.326C51.5246 165.533 50.5596 165.187 49.7012 165.508L48.6818 165.89C48.5669 165.933 48.3986 165.921 48.2321 165.807C47.9199 165.594 47.5906 165.403 47.2466 165.237C47.0643 165.15 46.9702 165.01 46.95 164.889L46.7713 163.817C46.6207 162.913 45.8384 162.25 44.9219 162.25H43.0779ZM44 175.75C46.0711 175.75 47.75 174.071 47.75 172C47.75 169.929 46.0711 168.25 44 168.25C41.9289 168.25 40.25 169.929 40.25 172C40.25 174.071 41.9289 175.75 44 175.75Z" fill="#303030"/>
<path d="M68.1289 177.678C67.3997 177.678 66.7686 177.562 66.2354 177.329C65.7021 177.092 65.2829 176.764 64.9775 176.345C64.6768 175.921 64.5059 175.431 64.4648 174.875H65.7363C65.7728 175.258 65.9027 175.575 66.126 175.825C66.3538 176.076 66.6432 176.263 66.9941 176.386C67.3451 176.509 67.7233 176.57 68.1289 176.57C68.5983 176.57 69.0199 176.493 69.3936 176.338C69.7718 176.183 70.0703 175.966 70.2891 175.688C70.5078 175.41 70.6172 175.085 70.6172 174.711C70.6172 174.374 70.5215 174.1 70.3301 173.891C70.1387 173.681 69.888 173.51 69.5781 173.378C69.2728 173.246 68.9401 173.13 68.5801 173.029L67.3359 172.674C66.5384 172.446 65.9072 172.12 65.4424 171.696C64.9821 171.268 64.752 170.71 64.752 170.021C64.752 169.452 64.9046 168.955 65.21 168.531C65.5199 168.103 65.9368 167.77 66.4609 167.533C66.9896 167.296 67.5775 167.178 68.2246 167.178C68.8809 167.178 69.4642 167.296 69.9746 167.533C70.485 167.766 70.8906 168.085 71.1914 168.49C71.4922 168.891 71.6517 169.347 71.6699 169.857H70.4668C70.4076 169.356 70.166 168.966 69.7422 168.688C69.3229 168.41 68.8034 168.271 68.1836 168.271C67.737 168.271 67.3451 168.344 67.0078 168.49C66.6706 168.636 66.4085 168.837 66.2217 169.092C66.0348 169.347 65.9414 169.639 65.9414 169.967C65.9414 170.327 66.0531 170.618 66.2764 170.842C66.4997 171.061 66.764 171.231 67.0693 171.354C67.3792 171.478 67.6595 171.576 67.9102 171.648L68.9355 171.936C69.1999 172.008 69.4938 172.106 69.8174 172.229C70.1455 172.353 70.46 172.519 70.7607 172.729C71.0661 172.938 71.3167 173.207 71.5127 173.535C71.7087 173.859 71.8066 174.26 71.8066 174.738C71.8066 175.285 71.6631 175.782 71.376 176.229C71.0889 176.671 70.6719 177.024 70.125 177.288C69.5781 177.548 68.9128 177.678 68.1289 177.678ZM76.2227 177.664C75.4889 177.664 74.8532 177.5 74.3154 177.172C73.7822 176.844 73.3721 176.386 73.085 175.798C72.7979 175.205 72.6543 174.52 72.6543 173.74C72.6543 172.956 72.7956 172.266 73.0781 171.669C73.3607 171.072 73.7572 170.605 74.2676 170.268C74.7826 169.93 75.3841 169.762 76.0723 169.762C76.4688 169.762 76.863 169.828 77.2549 169.96C77.6468 170.092 78.0023 170.306 78.3213 170.603C78.6449 170.899 78.9023 171.291 79.0938 171.778C79.2852 172.266 79.3809 172.865 79.3809 173.576V174.082H73.4883V173.07H78.7451L78.2051 173.453C78.2051 172.943 78.1253 172.489 77.9658 172.093C77.8063 171.696 77.5671 171.384 77.248 171.156C76.9336 170.928 76.5417 170.814 76.0723 170.814C75.6029 170.814 75.1995 170.931 74.8623 171.163C74.5296 171.391 74.2744 171.689 74.0967 172.059C73.9189 172.428 73.8301 172.824 73.8301 173.248V173.918C73.8301 174.497 73.9303 174.987 74.1309 175.388C74.3314 175.789 74.6117 176.094 74.9717 176.304C75.3317 176.509 75.7487 176.611 76.2227 176.611C76.528 176.611 76.806 176.568 77.0566 176.481C77.3073 176.39 77.5238 176.256 77.7061 176.078C77.8883 175.896 78.0273 175.673 78.123 175.408L79.2578 175.736C79.1393 176.119 78.9388 176.456 78.6562 176.748C78.3783 177.035 78.0319 177.261 77.6172 177.425C77.2025 177.584 76.7376 177.664 76.2227 177.664ZM83.7969 169.857V170.855H79.8457V169.857H83.7969ZM80.9941 168.039H82.1562V175.312C82.1562 175.709 82.2383 176.001 82.4023 176.188C82.5664 176.37 82.8262 176.461 83.1816 176.461C83.2591 176.461 83.3389 176.456 83.4209 176.447C83.5075 176.438 83.6009 176.424 83.7012 176.406L83.9473 177.459C83.8379 177.5 83.7035 177.532 83.5439 177.555C83.389 177.582 83.2318 177.596 83.0723 177.596C82.457 177.596 81.9557 177.413 81.5684 177.049C81.1855 176.684 80.9941 176.21 80.9941 175.627V168.039ZM88.2266 169.857V170.855H84.2754V169.857H88.2266ZM85.4238 168.039H86.5859V175.312C86.5859 175.709 86.668 176.001 86.832 176.188C86.9961 176.37 87.2559 176.461 87.6113 176.461C87.6888 176.461 87.7686 176.456 87.8506 176.447C87.9372 176.438 88.0306 176.424 88.1309 176.406L88.377 177.459C88.2676 177.5 88.1331 177.532 87.9736 177.555C87.8187 177.582 87.6615 177.596 87.502 177.596C86.8867 177.596 86.3854 177.413 85.998 177.049C85.6152 176.684 85.4238 176.21 85.4238 175.627V168.039ZM89.3477 177.5V169.857H90.5098V177.5H89.3477ZM89.9355 168.586C89.7077 168.586 89.5117 168.508 89.3477 168.354C89.1836 168.199 89.1016 168.012 89.1016 167.793C89.1016 167.574 89.1836 167.387 89.3477 167.232C89.5117 167.077 89.7077 167 89.9355 167C90.1634 167 90.3594 167.077 90.5234 167.232C90.6875 167.387 90.7695 167.574 90.7695 167.793C90.7695 168.012 90.6875 168.199 90.5234 168.354C90.3594 168.508 90.1634 168.586 89.9355 168.586ZM93.1758 172.906V177.5H92.0137V169.857H93.1348V171.061H93.2441C93.4219 170.669 93.693 170.354 94.0576 170.117C94.4222 169.88 94.8939 169.762 95.4727 169.762C95.9876 169.762 96.4388 169.867 96.8262 170.076C97.2135 170.286 97.5143 170.605 97.7285 171.033C97.9473 171.457 98.0566 171.995 98.0566 172.646V177.5H96.8945V172.729C96.8945 172.132 96.7373 171.664 96.4229 171.327C96.1084 170.985 95.68 170.814 95.1377 170.814C94.764 170.814 94.429 170.896 94.1328 171.061C93.8366 171.225 93.6019 171.462 93.4287 171.771C93.2601 172.081 93.1758 172.46 93.1758 172.906ZM102.637 180.521C101.785 180.521 101.11 180.367 100.613 180.057C100.121 179.747 99.7565 179.391 99.5195 178.99L100.449 178.334C100.554 178.475 100.688 178.635 100.853 178.812C101.017 178.995 101.24 179.152 101.522 179.284C101.805 179.416 102.176 179.482 102.637 179.482C103.252 179.482 103.76 179.334 104.161 179.038C104.567 178.742 104.77 178.275 104.77 177.637V176.092H104.66C104.578 176.229 104.457 176.399 104.298 176.604C104.143 176.805 103.917 176.985 103.621 177.145C103.329 177.299 102.933 177.377 102.432 177.377C101.816 177.377 101.265 177.231 100.777 176.939C100.29 176.648 99.9023 176.224 99.6152 175.668C99.3327 175.112 99.1914 174.438 99.1914 173.645C99.1914 172.861 99.3281 172.179 99.6016 171.601C99.8796 171.017 100.265 170.566 100.757 170.247C101.249 169.924 101.816 169.762 102.459 169.762C102.956 169.762 103.35 169.844 103.642 170.008C103.938 170.172 104.163 170.359 104.318 170.568C104.478 170.773 104.601 170.942 104.688 171.074H104.811V169.857H105.932V177.719C105.932 178.375 105.784 178.908 105.487 179.318C105.196 179.733 104.799 180.036 104.298 180.228C103.801 180.424 103.247 180.521 102.637 180.521ZM102.596 176.324C103.302 176.324 103.842 176.085 104.216 175.606C104.594 175.128 104.783 174.465 104.783 173.617C104.783 173.066 104.701 172.58 104.537 172.161C104.373 171.742 104.127 171.414 103.799 171.177C103.475 170.935 103.074 170.814 102.596 170.814C102.099 170.814 101.684 170.942 101.352 171.197C101.023 171.448 100.777 171.785 100.613 172.209C100.449 172.633 100.367 173.102 100.367 173.617C100.367 174.146 100.449 174.615 100.613 175.025C100.782 175.431 101.033 175.75 101.365 175.982C101.698 176.21 102.108 176.324 102.596 176.324ZM112.836 171.58L111.783 171.867C111.683 171.607 111.51 171.361 111.264 171.129C111.022 170.892 110.644 170.773 110.129 170.773C109.664 170.773 109.277 170.883 108.967 171.102C108.657 171.316 108.502 171.585 108.502 171.908C108.502 172.2 108.607 172.432 108.816 172.605C109.031 172.779 109.363 172.92 109.814 173.029L110.949 173.303C111.628 173.467 112.134 173.72 112.467 174.062C112.804 174.403 112.973 174.839 112.973 175.367C112.973 175.805 112.847 176.197 112.597 176.543C112.346 176.889 111.997 177.163 111.551 177.363C111.104 177.564 110.585 177.664 109.992 177.664C109.213 177.664 108.568 177.493 108.058 177.151C107.552 176.81 107.23 176.315 107.094 175.668L108.201 175.395C108.306 175.805 108.507 176.112 108.803 176.317C109.104 176.522 109.495 176.625 109.979 176.625C110.521 176.625 110.954 176.509 111.277 176.276C111.605 176.039 111.77 175.759 111.77 175.436C111.77 174.898 111.391 174.538 110.635 174.355L109.363 174.055C108.661 173.886 108.146 173.629 107.818 173.282C107.49 172.936 107.326 172.501 107.326 171.977C107.326 171.544 107.447 171.161 107.688 170.828C107.935 170.495 108.27 170.236 108.693 170.049C109.117 169.857 109.596 169.762 110.129 169.762C110.89 169.762 111.485 169.93 111.913 170.268C112.346 170.6 112.654 171.038 112.836 171.58Z" fill="#303030"/>
<rect x="130" y="152" width="76" height="40" rx="8" fill="white"/>
<path fill-rule="evenodd" clip-rule="evenodd" d="M140.25 172C140.25 166.615 144.615 162.25 150 162.25C155.385 162.25 159.75 166.615 159.75 172C159.75 177.385 155.385 181.75 150 181.75C144.615 181.75 140.25 177.385 140.25 172ZM148.956 170.558C150.102 169.985 151.393 171.021 151.082 172.264L150.373 175.1L150.415 175.079C150.785 174.894 151.236 175.044 151.421 175.415C151.606 175.785 151.456 176.236 151.086 176.421L151.044 176.442C149.898 177.015 148.607 175.979 148.918 174.736L149.627 171.9L149.586 171.921C149.215 172.106 148.765 171.956 148.579 171.585C148.394 171.215 148.544 170.764 148.915 170.579L148.956 170.558ZM150 169C150.414 169 150.75 168.664 150.75 168.25C150.75 167.836 150.414 167.5 150 167.5C149.586 167.5 149.25 167.836 149.25 168.25C149.25 168.664 149.586 169 150 169Z" fill="#303030"/>
<path d="M170.902 177.5V167.314H172.133V171.854H177.561V167.314H178.791V177.5H177.561V172.947H172.133V177.5H170.902ZM183.645 177.664C182.911 177.664 182.275 177.5 181.737 177.172C181.204 176.844 180.794 176.386 180.507 175.798C180.22 175.205 180.076 174.52 180.076 173.74C180.076 172.956 180.217 172.266 180.5 171.669C180.783 171.072 181.179 170.605 181.689 170.268C182.204 169.93 182.806 169.762 183.494 169.762C183.891 169.762 184.285 169.828 184.677 169.96C185.069 170.092 185.424 170.306 185.743 170.603C186.067 170.899 186.324 171.291 186.516 171.778C186.707 172.266 186.803 172.865 186.803 173.576V174.082H180.91V173.07H186.167L185.627 173.453C185.627 172.943 185.547 172.489 185.388 172.093C185.228 171.696 184.989 171.384 184.67 171.156C184.355 170.928 183.964 170.814 183.494 170.814C183.025 170.814 182.621 170.931 182.284 171.163C181.951 171.391 181.696 171.689 181.519 172.059C181.341 172.428 181.252 172.824 181.252 173.248V173.918C181.252 174.497 181.352 174.987 181.553 175.388C181.753 175.789 182.034 176.094 182.394 176.304C182.754 176.509 183.171 176.611 183.645 176.611C183.95 176.611 184.228 176.568 184.479 176.481C184.729 176.39 184.946 176.256 185.128 176.078C185.31 175.896 185.449 175.673 185.545 175.408L186.68 175.736C186.561 176.119 186.361 176.456 186.078 176.748C185.8 177.035 185.454 177.261 185.039 177.425C184.624 177.584 184.16 177.664 183.645 177.664ZM189.072 167.314V177.5H187.91V167.314H189.072ZM190.576 180.357V169.857H191.697V171.074H191.834C191.921 170.942 192.041 170.773 192.196 170.568C192.351 170.359 192.575 170.172 192.866 170.008C193.158 169.844 193.552 169.762 194.049 169.762C194.691 169.762 195.257 169.924 195.744 170.247C196.232 170.566 196.612 171.022 196.886 171.614C197.164 172.202 197.303 172.897 197.303 173.699C197.303 174.506 197.166 175.208 196.893 175.805C196.619 176.397 196.239 176.855 195.751 177.179C195.263 177.502 194.701 177.664 194.062 177.664C193.575 177.664 193.183 177.582 192.887 177.418C192.59 177.249 192.363 177.06 192.203 176.851C192.044 176.636 191.921 176.461 191.834 176.324H191.738V180.357H190.576ZM193.912 176.611C194.4 176.611 194.808 176.481 195.136 176.222C195.464 175.957 195.71 175.604 195.874 175.162C196.043 174.72 196.127 174.228 196.127 173.686C196.127 173.148 196.045 172.662 195.881 172.229C195.717 171.797 195.471 171.452 195.143 171.197C194.819 170.942 194.409 170.814 193.912 170.814C193.434 170.814 193.033 170.935 192.709 171.177C192.385 171.414 192.139 171.749 191.971 172.182C191.807 172.61 191.725 173.111 191.725 173.686C191.725 174.26 191.809 174.768 191.978 175.21C192.146 175.647 192.392 175.992 192.716 176.242C193.044 176.488 193.443 176.611 193.912 176.611Z" fill="#303030"/>
<rect x="214" y="152" width="94" height="40" rx="8" fill="white"/>
<path fill-rule="evenodd" clip-rule="evenodd" d="M229.5 163.75C228.672 163.75 228 164.422 228 165.25V178.75C228 179.578 228.672 180.25 229.5 180.25H235.5C236.328 180.25 237 179.578 237 178.75V175C237 174.586 237.336 174.25 237.75 174.25C238.164 174.25 238.5 174.586 238.5 175V178.75C238.5 180.407 237.157 181.75 235.5 181.75H229.5C227.843 181.75 226.5 180.407 226.5 178.75V165.25C226.5 163.593 227.843 162.25 229.5 162.25H235.5C237.157 162.25 238.5 163.593 238.5 165.25V169C238.5 169.414 238.164 169.75 237.75 169.75C237.336 169.75 237 169.414 237 169V165.25C237 164.422 236.328 163.75 235.5 163.75H229.5ZM240.22 168.47C240.513 168.177 240.987 168.177 241.28 168.47L244.28 171.47C244.573 171.763 244.573 172.237 244.28 172.53L241.28 175.53C240.987 175.823 240.513 175.823 240.22 175.53C239.927 175.237 239.927 174.763 240.22 174.47L241.939 172.75H231C230.586 172.75 230.25 172.414 230.25 172C230.25 171.586 230.586 171.25 231 171.25H241.939L240.22 169.53C239.927 169.237 239.927 168.763 240.22 168.47Z" fill="#303030"/>
<path d="M254.902 177.5V167.314H256.133V176.406H260.877V177.5H254.902ZM265.061 177.664C264.372 177.664 263.769 177.5 263.249 177.172C262.729 176.844 262.324 176.383 262.032 175.791C261.745 175.199 261.602 174.51 261.602 173.727C261.602 172.929 261.745 172.234 262.032 171.642C262.324 171.045 262.729 170.582 263.249 170.254C263.769 169.926 264.372 169.762 265.061 169.762C265.753 169.762 266.359 169.926 266.879 170.254C267.398 170.582 267.804 171.045 268.096 171.642C268.387 172.234 268.533 172.929 268.533 173.727C268.533 174.51 268.387 175.199 268.096 175.791C267.804 176.383 267.398 176.844 266.879 177.172C266.359 177.5 265.753 177.664 265.061 177.664ZM265.061 176.611C265.589 176.611 266.022 176.477 266.359 176.208C266.697 175.939 266.947 175.586 267.111 175.148C267.275 174.706 267.357 174.232 267.357 173.727C267.357 173.212 267.275 172.733 267.111 172.291C266.947 171.849 266.697 171.493 266.359 171.225C266.022 170.951 265.589 170.814 265.061 170.814C264.541 170.814 264.113 170.951 263.775 171.225C263.438 171.493 263.188 171.849 263.023 172.291C262.859 172.733 262.777 173.212 262.777 173.727C262.777 174.232 262.859 174.706 263.023 175.148C263.188 175.586 263.438 175.939 263.775 176.208C264.113 176.477 264.541 176.611 265.061 176.611ZM272.744 180.521C271.892 180.521 271.217 180.367 270.721 180.057C270.229 179.747 269.864 179.391 269.627 178.99L270.557 178.334C270.661 178.475 270.796 178.635 270.96 178.812C271.124 178.995 271.347 179.152 271.63 179.284C271.912 179.416 272.284 179.482 272.744 179.482C273.359 179.482 273.868 179.334 274.269 179.038C274.674 178.742 274.877 178.275 274.877 177.637V176.092H274.768C274.686 176.229 274.565 176.399 274.405 176.604C274.25 176.805 274.025 176.985 273.729 177.145C273.437 177.299 273.04 177.377 272.539 177.377C271.924 177.377 271.372 177.231 270.885 176.939C270.397 176.648 270.01 176.224 269.723 175.668C269.44 175.112 269.299 174.438 269.299 173.645C269.299 172.861 269.436 172.179 269.709 171.601C269.987 171.017 270.372 170.566 270.864 170.247C271.356 169.924 271.924 169.762 272.566 169.762C273.063 169.762 273.457 169.844 273.749 170.008C274.045 170.172 274.271 170.359 274.426 170.568C274.585 170.773 274.708 170.942 274.795 171.074H274.918V169.857H276.039V177.719C276.039 178.375 275.891 178.908 275.595 179.318C275.303 179.733 274.907 180.036 274.405 180.228C273.909 180.424 273.355 180.521 272.744 180.521ZM272.703 176.324C273.41 176.324 273.95 176.085 274.323 175.606C274.701 175.128 274.891 174.465 274.891 173.617C274.891 173.066 274.809 172.58 274.645 172.161C274.48 171.742 274.234 171.414 273.906 171.177C273.583 170.935 273.182 170.814 272.703 170.814C272.206 170.814 271.792 170.942 271.459 171.197C271.131 171.448 270.885 171.785 270.721 172.209C270.557 172.633 270.475 173.102 270.475 173.617C270.475 174.146 270.557 174.615 270.721 175.025C270.889 175.431 271.14 175.75 271.473 175.982C271.805 176.21 272.215 176.324 272.703 176.324ZM283.914 177.664C283.226 177.664 282.622 177.5 282.103 177.172C281.583 176.844 281.177 176.383 280.886 175.791C280.599 175.199 280.455 174.51 280.455 173.727C280.455 172.929 280.599 172.234 280.886 171.642C281.177 171.045 281.583 170.582 282.103 170.254C282.622 169.926 283.226 169.762 283.914 169.762C284.607 169.762 285.213 169.926 285.732 170.254C286.252 170.582 286.658 171.045 286.949 171.642C287.241 172.234 287.387 172.929 287.387 173.727C287.387 174.51 287.241 175.199 286.949 175.791C286.658 176.383 286.252 176.844 285.732 177.172C285.213 177.5 284.607 177.664 283.914 177.664ZM283.914 176.611C284.443 176.611 284.876 176.477 285.213 176.208C285.55 175.939 285.801 175.586 285.965 175.148C286.129 174.706 286.211 174.232 286.211 173.727C286.211 173.212 286.129 172.733 285.965 172.291C285.801 171.849 285.55 171.493 285.213 171.225C284.876 170.951 284.443 170.814 283.914 170.814C283.395 170.814 282.966 170.951 282.629 171.225C282.292 171.493 282.041 171.849 281.877 172.291C281.713 172.733 281.631 173.212 281.631 173.727C281.631 174.232 281.713 174.706 281.877 175.148C282.041 175.586 282.292 175.939 282.629 176.208C282.966 176.477 283.395 176.611 283.914 176.611ZM293.334 174.383V169.857H294.496V177.5H293.334V176.201H293.252C293.07 176.589 292.789 176.919 292.411 177.192C292.037 177.466 291.561 177.6 290.982 177.596C290.504 177.596 290.08 177.493 289.711 177.288C289.342 177.078 289.05 176.759 288.836 176.331C288.626 175.903 288.521 175.363 288.521 174.711V169.857H289.684V174.643C289.684 175.194 289.841 175.636 290.155 175.969C290.474 176.301 290.878 176.465 291.365 176.461C291.657 176.461 291.953 176.388 292.254 176.242C292.559 176.092 292.814 175.864 293.02 175.559C293.229 175.249 293.334 174.857 293.334 174.383ZM299.309 169.857V170.855H295.357V169.857H299.309ZM296.506 168.039H297.668V175.312C297.668 175.709 297.75 176.001 297.914 176.188C298.078 176.37 298.338 176.461 298.693 176.461C298.771 176.461 298.851 176.456 298.933 176.447C299.019 176.438 299.113 176.424 299.213 176.406L299.459 177.459C299.35 177.5 299.215 177.532 299.056 177.555C298.901 177.582 298.743 177.596 298.584 177.596C297.969 177.596 297.467 177.413 297.08 177.049C296.697 176.684 296.506 176.21 296.506 175.627V168.039Z" fill="#303030"/>
<rect x="0.5" y="0.5" width="331" height="215" rx="7.5" stroke="white" stroke-opacity="0.1"/>
</svg>
