<svg width="330" height="121" viewBox="0 0 330 121" fill="none" xmlns="http://www.w3.org/2000/svg">
<rect width="330" height="121" rx="8" fill="#F0F0F0"/>
<path d="M33.5581 28.2006C33.8022 27.9566 34.1978 27.9566 34.4419 28.2006L41.6831 35.4418C41.9272 35.6858 42.3228 35.6858 42.5669 35.4418C42.811 35.1977 42.811 34.8019 42.5669 34.5578L35.3258 27.3168C34.5936 26.5845 33.4064 26.5845 32.6742 27.3168L25.4331 34.5578C25.189 34.8019 25.189 35.1977 25.4331 35.4418C25.6771 35.6858 26.0729 35.6858 26.3169 35.4418L33.5581 28.2006Z" fill="#567FEF"/>
<path d="M34 29.5265L40.7992 36.3257C40.8239 36.3504 40.8492 36.3744 40.875 36.3974V41.5624C40.875 42.4253 40.1754 43.1249 39.3125 43.1249H36.5C36.1548 43.1249 35.875 42.845 35.875 42.4999V38.7499C35.875 38.4047 35.5952 38.1249 35.25 38.1249H32.75C32.4048 38.1249 32.125 38.4047 32.125 38.7499V42.4999C32.125 42.845 31.8452 43.1249 31.5 43.1249H28.6875C27.8246 43.1249 27.125 42.4253 27.125 41.5624V36.3974C27.1508 36.3744 27.1761 36.3504 27.2008 36.3257L34 29.5265Z" fill="#567FEF"/>
<path fill-rule="evenodd" clip-rule="evenodd" d="M62.8535 35.6465C63.0488 35.8417 63.0488 36.1583 62.8535 36.3535L57.8536 41.3535C57.6583 41.5488 57.3417 41.5488 57.1464 41.3535C56.9512 41.1583 56.9512 40.8417 57.1464 40.6465L61.7929 36L57.1464 31.3536C56.9512 31.1583 56.9512 30.8417 57.1464 30.6464C57.3417 30.4512 57.6583 30.4512 57.8536 30.6464L62.8535 35.6465Z" fill="#567FEF"/>
<path d="M77.4091 42V30.3636H81.3409C82.2538 30.3636 83 30.5284 83.5795 30.858C84.1629 31.1837 84.5947 31.625 84.875 32.1818C85.1553 32.7386 85.2955 33.3598 85.2955 34.0455C85.2955 34.7311 85.1553 35.3542 84.875 35.9148C84.5985 36.4754 84.1705 36.9223 83.5909 37.2557C83.0114 37.5852 82.2689 37.75 81.3636 37.75H78.5455V36.5H81.3182C81.9432 36.5 82.4451 36.392 82.8239 36.1761C83.2027 35.9602 83.4773 35.6686 83.6477 35.3011C83.822 34.9299 83.9091 34.5114 83.9091 34.0455C83.9091 33.5795 83.822 33.1629 83.6477 32.7955C83.4773 32.428 83.2008 32.1402 82.8182 31.9318C82.4356 31.7197 81.928 31.6136 81.2955 31.6136H78.8182V42H77.4091ZM86.5835 42V33.2727H87.879V34.5909H87.9699C88.129 34.1591 88.4169 33.8087 88.8335 33.5398C89.2502 33.2708 89.7199 33.1364 90.2426 33.1364C90.3411 33.1364 90.4642 33.1383 90.6119 33.142C90.7597 33.1458 90.8714 33.1515 90.9472 33.1591V34.5227C90.9017 34.5114 90.7975 34.4943 90.6347 34.4716C90.4756 34.4451 90.307 34.4318 90.129 34.4318C89.7047 34.4318 89.3259 34.5208 88.9926 34.6989C88.6631 34.8731 88.4017 35.1155 88.2085 35.4261C88.0191 35.733 87.9244 36.0833 87.9244 36.4773V42H86.5835ZM95.0165 42.1818C94.2286 42.1818 93.5373 41.9943 92.9426 41.6193C92.3517 41.2443 91.8896 40.7197 91.5562 40.0455C91.2267 39.3712 91.0619 38.5833 91.0619 37.6818C91.0619 36.7727 91.2267 35.9792 91.5562 35.3011C91.8896 34.6231 92.3517 34.0966 92.9426 33.7216C93.5373 33.3466 94.2286 33.1591 95.0165 33.1591C95.8044 33.1591 96.4937 33.3466 97.0847 33.7216C97.6794 34.0966 98.1415 34.6231 98.471 35.3011C98.8044 35.9792 98.971 36.7727 98.971 37.6818C98.971 38.5833 98.8044 39.3712 98.471 40.0455C98.1415 40.7197 97.6794 41.2443 97.0847 41.6193C96.4937 41.9943 95.8044 42.1818 95.0165 42.1818ZM95.0165 40.9773C95.615 40.9773 96.1074 40.8239 96.4937 40.517C96.8801 40.2102 97.1661 39.8068 97.3517 39.3068C97.5373 38.8068 97.6301 38.2652 97.6301 37.6818C97.6301 37.0985 97.5373 36.5549 97.3517 36.0511C97.1661 35.5473 96.8801 35.1402 96.4937 34.8295C96.1074 34.5189 95.615 34.3636 95.0165 34.3636C94.418 34.3636 93.9256 34.5189 93.5392 34.8295C93.1528 35.1402 92.8669 35.5473 92.6812 36.0511C92.4956 36.5549 92.4028 37.0985 92.4028 37.6818C92.4028 38.2652 92.4956 38.8068 92.6812 39.3068C92.8669 39.8068 93.1528 40.2102 93.5392 40.517C93.9256 40.8239 94.418 40.9773 95.0165 40.9773ZM103.513 42.1818C102.786 42.1818 102.144 41.9981 101.587 41.6307C101.03 41.2595 100.595 40.7367 100.28 40.0625C99.966 39.3845 99.8088 38.5833 99.8088 37.6591C99.8088 36.7424 99.966 35.947 100.28 35.2727C100.595 34.5985 101.032 34.0777 101.593 33.7102C102.154 33.3428 102.801 33.1591 103.536 33.1591C104.104 33.1591 104.553 33.2538 104.883 33.4432C105.216 33.6288 105.47 33.8409 105.644 34.0795C105.822 34.3144 105.96 34.5076 106.059 34.6591H106.172V30.3636H107.513V42H106.218V40.6591H106.059C105.96 40.8182 105.82 41.0189 105.638 41.2614C105.457 41.5 105.197 41.714 104.86 41.9034C104.523 42.089 104.074 42.1818 103.513 42.1818ZM103.695 40.9773C104.233 40.9773 104.688 40.8371 105.059 40.5568C105.43 40.2727 105.712 39.8807 105.905 39.3807C106.099 38.8769 106.195 38.2955 106.195 37.6364C106.195 36.9848 106.1 36.4148 105.911 35.9261C105.722 35.4337 105.441 35.0511 105.07 34.7784C104.699 34.5019 104.241 34.3636 103.695 34.3636C103.127 34.3636 102.654 34.5095 102.275 34.8011C101.9 35.089 101.618 35.4811 101.428 35.9773C101.243 36.4697 101.15 37.0227 101.15 37.6364C101.15 38.2576 101.244 38.822 101.434 39.3295C101.627 39.8333 101.911 40.2348 102.286 40.5341C102.665 40.8295 103.135 40.9773 103.695 40.9773ZM114.855 38.4318V33.2727H116.196V42H114.855V40.5227H114.764C114.56 40.9659 114.242 41.3428 113.81 41.6534C113.378 41.9602 112.833 42.1136 112.174 42.1136C111.628 42.1136 111.143 41.9943 110.719 41.7557C110.295 41.5133 109.961 41.1496 109.719 40.6648C109.477 40.1761 109.355 39.5606 109.355 38.8182V33.2727H110.696V38.7273C110.696 39.3636 110.874 39.8712 111.23 40.25C111.59 40.6288 112.049 40.8182 112.605 40.8182C112.939 40.8182 113.278 40.733 113.622 40.5625C113.971 40.392 114.263 40.1307 114.497 39.7784C114.736 39.4261 114.855 38.9773 114.855 38.4318ZM121.398 42.1818C120.58 42.1818 119.875 41.9886 119.284 41.6023C118.693 41.2159 118.239 40.6837 117.92 40.0057C117.602 39.3277 117.443 38.553 117.443 37.6818C117.443 36.7955 117.606 36.0133 117.932 35.3352C118.261 34.6534 118.72 34.1212 119.307 33.7386C119.898 33.3523 120.587 33.1591 121.375 33.1591C121.989 33.1591 122.542 33.2727 123.034 33.5C123.527 33.7273 123.93 34.0455 124.244 34.4545C124.559 34.8636 124.754 35.3409 124.83 35.8864H123.489C123.386 35.4886 123.159 35.1364 122.807 34.8295C122.458 34.5189 121.989 34.3636 121.398 34.3636C120.875 34.3636 120.417 34.5 120.023 34.7727C119.633 35.0417 119.328 35.4223 119.108 35.9148C118.892 36.4034 118.784 36.9773 118.784 37.6364C118.784 38.3106 118.89 38.8977 119.102 39.3977C119.318 39.8977 119.621 40.286 120.011 40.5625C120.405 40.839 120.867 40.9773 121.398 40.9773C121.746 40.9773 122.062 40.9167 122.347 40.7955C122.631 40.6742 122.871 40.5 123.068 40.2727C123.265 40.0455 123.405 39.7727 123.489 39.4545H124.83C124.754 39.9697 124.566 40.4337 124.267 40.8466C123.972 41.2557 123.58 41.5814 123.091 41.8239C122.606 42.0625 122.042 42.1818 121.398 42.1818ZM129.785 33.2727V34.4091H125.263V33.2727H129.785ZM126.581 31.1818H127.922V39.5C127.922 39.8788 127.977 40.1629 128.086 40.3523C128.2 40.5379 128.344 40.6629 128.518 40.7273C128.696 40.7879 128.884 40.8182 129.081 40.8182C129.228 40.8182 129.35 40.8106 129.444 40.7955C129.539 40.7765 129.615 40.7614 129.672 40.75L129.944 41.9545C129.853 41.9886 129.727 42.0227 129.564 42.0568C129.401 42.0947 129.194 42.1136 128.944 42.1136C128.566 42.1136 128.194 42.0322 127.831 41.8693C127.471 41.7064 127.172 41.4583 126.933 41.125C126.698 40.7917 126.581 40.3712 126.581 39.8636V31.1818ZM137.028 35.2273L135.823 35.5682C135.748 35.3674 135.636 35.1723 135.488 34.983C135.344 34.7898 135.147 34.6307 134.897 34.5057C134.647 34.3807 134.327 34.3182 133.937 34.3182C133.403 34.3182 132.958 34.4413 132.602 34.6875C132.249 34.9299 132.073 35.2386 132.073 35.6136C132.073 35.947 132.195 36.2102 132.437 36.4034C132.679 36.5966 133.058 36.7576 133.573 36.8864L134.869 37.2045C135.649 37.3939 136.23 37.6837 136.613 38.0739C136.996 38.4602 137.187 38.9583 137.187 39.5682C137.187 40.0682 137.043 40.5152 136.755 40.9091C136.471 41.303 136.073 41.6136 135.562 41.8409C135.051 42.0682 134.456 42.1818 133.778 42.1818C132.888 42.1818 132.151 41.9886 131.568 41.6023C130.984 41.2159 130.615 40.6515 130.46 39.9091L131.732 39.5909C131.854 40.0606 132.083 40.4129 132.42 40.6477C132.761 40.8826 133.206 41 133.755 41C134.38 41 134.876 40.8674 135.244 40.6023C135.615 40.3333 135.801 40.0114 135.801 39.6364C135.801 39.3333 135.695 39.0795 135.482 38.875C135.27 38.6667 134.945 38.5114 134.505 38.4091L133.051 38.0682C132.251 37.8788 131.664 37.5852 131.289 37.1875C130.918 36.786 130.732 36.2841 130.732 35.6818C130.732 35.1894 130.871 34.7538 131.147 34.375C131.427 33.9962 131.808 33.6989 132.289 33.483C132.774 33.267 133.323 33.1591 133.937 33.1591C134.801 33.1591 135.479 33.3485 135.971 33.7273C136.467 34.1061 136.82 34.6061 137.028 35.2273Z" fill="#303030"/>
<path fill-rule="evenodd" clip-rule="evenodd" d="M156.854 35.6465C157.049 35.8417 157.049 36.1583 156.854 36.3535L151.854 41.3535C151.658 41.5488 151.342 41.5488 151.146 41.3535C150.951 41.1583 150.951 40.8417 151.146 40.6465L155.793 36L151.146 31.3536C150.951 31.1583 150.951 30.8417 151.146 30.6464C151.342 30.4512 151.658 30.4512 151.854 30.6464L156.854 35.6465Z" fill="#567FEF"/>
<rect x="166" y="24" width="66" height="24" rx="4" fill="#D4DFFF"/>
<path d="M180.773 34H179.364C179.28 33.5947 179.134 33.2386 178.926 32.9318C178.722 32.625 178.472 32.3674 178.176 32.1591C177.884 31.947 177.561 31.7879 177.205 31.6818C176.848 31.5758 176.477 31.5227 176.091 31.5227C175.386 31.5227 174.748 31.7008 174.176 32.0568C173.608 32.4129 173.155 32.9375 172.818 33.6307C172.485 34.3239 172.318 35.1742 172.318 36.1818C172.318 37.1894 172.485 38.0398 172.818 38.733C173.155 39.4261 173.608 39.9508 174.176 40.3068C174.748 40.6629 175.386 40.8409 176.091 40.8409C176.477 40.8409 176.848 40.7879 177.205 40.6818C177.561 40.5758 177.884 40.4186 178.176 40.2102C178.472 39.9981 178.722 39.7386 178.926 39.4318C179.134 39.1212 179.28 38.7652 179.364 38.3636H180.773C180.667 38.9583 180.473 39.4905 180.193 39.9602C179.913 40.4299 179.564 40.8295 179.148 41.1591C178.731 41.4848 178.263 41.733 177.744 41.9034C177.229 42.0739 176.678 42.1591 176.091 42.1591C175.098 42.1591 174.216 41.9167 173.443 41.4318C172.67 40.947 172.063 40.2576 171.619 39.3636C171.176 38.4697 170.955 37.4091 170.955 36.1818C170.955 34.9545 171.176 33.8939 171.619 33C172.063 32.1061 172.67 31.4167 173.443 30.9318C174.216 30.447 175.098 30.2045 176.091 30.2045C176.678 30.2045 177.229 30.2898 177.744 30.4602C178.263 30.6307 178.731 30.8807 179.148 31.2102C179.564 31.536 179.913 31.9337 180.193 32.4034C180.473 32.8693 180.667 33.4015 180.773 34ZM183.409 30.3636V42H182.068V30.3636H183.409ZM188.61 42.1818C187.822 42.1818 187.131 41.9943 186.536 41.6193C185.945 41.2443 185.483 40.7197 185.15 40.0455C184.82 39.3712 184.656 38.5833 184.656 37.6818C184.656 36.7727 184.82 35.9792 185.15 35.3011C185.483 34.6231 185.945 34.0966 186.536 33.7216C187.131 33.3466 187.822 33.1591 188.61 33.1591C189.398 33.1591 190.087 33.3466 190.678 33.7216C191.273 34.0966 191.735 34.6231 192.065 35.3011C192.398 35.9792 192.565 36.7727 192.565 37.6818C192.565 38.5833 192.398 39.3712 192.065 40.0455C191.735 40.7197 191.273 41.2443 190.678 41.6193C190.087 41.9943 189.398 42.1818 188.61 42.1818ZM188.61 40.9773C189.209 40.9773 189.701 40.8239 190.087 40.517C190.474 40.2102 190.76 39.8068 190.945 39.3068C191.131 38.8068 191.224 38.2652 191.224 37.6818C191.224 37.0985 191.131 36.5549 190.945 36.0511C190.76 35.5473 190.474 35.1402 190.087 34.8295C189.701 34.5189 189.209 34.3636 188.61 34.3636C188.012 34.3636 187.519 34.5189 187.133 34.8295C186.747 35.1402 186.461 35.5473 186.275 36.0511C186.089 36.5549 185.997 37.0985 185.997 37.6818C185.997 38.2652 186.089 38.8068 186.275 39.3068C186.461 39.8068 186.747 40.2102 187.133 40.517C187.519 40.8239 188.012 40.9773 188.61 40.9773ZM197.607 33.2727V34.4091H193.084V33.2727H197.607ZM194.403 31.1818H195.743V39.5C195.743 39.8788 195.798 40.1629 195.908 40.3523C196.022 40.5379 196.166 40.6629 196.34 40.7273C196.518 40.7879 196.706 40.8182 196.903 40.8182C197.05 40.8182 197.171 40.8106 197.266 40.7955C197.361 40.7765 197.437 40.7614 197.493 40.75L197.766 41.9545C197.675 41.9886 197.548 42.0227 197.386 42.0568C197.223 42.0947 197.016 42.1136 196.766 42.1136C196.387 42.1136 196.016 42.0322 195.653 41.8693C195.293 41.7064 194.993 41.4583 194.755 41.125C194.52 40.7917 194.403 40.3712 194.403 39.8636V31.1818ZM200.353 36.75V42H199.012V30.3636H200.353V34.6364H200.466C200.671 34.1856 200.978 33.8277 201.387 33.5625C201.8 33.2936 202.349 33.1591 203.034 33.1591C203.629 33.1591 204.15 33.2784 204.597 33.517C205.044 33.7519 205.39 34.1136 205.637 34.6023C205.887 35.0871 206.012 35.7045 206.012 36.4545V42H204.671V36.5455C204.671 35.8523 204.491 35.3163 204.131 34.9375C203.775 34.5549 203.281 34.3636 202.648 34.3636C202.209 34.3636 201.815 34.4564 201.466 34.642C201.121 34.8277 200.849 35.0985 200.648 35.4545C200.451 35.8106 200.353 36.2424 200.353 36.75ZM207.665 42V33.2727H209.006V42H207.665ZM208.347 31.8182C208.085 31.8182 207.86 31.7292 207.67 31.5511C207.485 31.3731 207.392 31.1591 207.392 30.9091C207.392 30.6591 207.485 30.4451 207.67 30.267C207.86 30.089 208.085 30 208.347 30C208.608 30 208.831 30.089 209.017 30.267C209.206 30.4451 209.301 30.6591 209.301 30.9091C209.301 31.1591 209.206 31.3731 209.017 31.5511C208.831 31.7292 208.608 31.8182 208.347 31.8182ZM212.003 36.75V42H210.662V33.2727H211.957V34.6364H212.071C212.275 34.1932 212.586 33.8371 213.003 33.5682C213.419 33.2955 213.957 33.1591 214.616 33.1591C215.207 33.1591 215.724 33.2803 216.167 33.5227C216.611 33.7614 216.955 34.125 217.201 34.6136C217.448 35.0985 217.571 35.7121 217.571 36.4545V42H216.23V36.5455C216.23 35.8598 216.052 35.3258 215.696 34.9432C215.34 34.5568 214.851 34.3636 214.23 34.3636C213.802 34.3636 213.419 34.4564 213.082 34.642C212.749 34.8277 212.486 35.0985 212.292 35.4545C212.099 35.8106 212.003 36.2424 212.003 36.75ZM222.744 45.4545C222.096 45.4545 221.539 45.3712 221.073 45.2045C220.607 45.0417 220.219 44.8258 219.909 44.5568C219.602 44.2917 219.357 44.0076 219.176 43.7045L220.244 42.9545C220.365 43.1136 220.518 43.2955 220.704 43.5C220.89 43.7083 221.143 43.8883 221.465 44.0398C221.791 44.1951 222.217 44.2727 222.744 44.2727C223.448 44.2727 224.03 44.1023 224.488 43.7614C224.946 43.4205 225.176 42.8864 225.176 42.1591V40.3864H225.062C224.963 40.5455 224.823 40.7424 224.641 40.9773C224.463 41.2083 224.206 41.4148 223.869 41.5966C223.535 41.7746 223.085 41.8636 222.516 41.8636C221.812 41.8636 221.179 41.697 220.619 41.3636C220.062 41.0303 219.621 40.5455 219.295 39.9091C218.973 39.2727 218.812 38.5 218.812 37.5909C218.812 36.697 218.969 35.9186 219.284 35.2557C219.598 34.589 220.035 34.0739 220.596 33.7102C221.157 33.3428 221.804 33.1591 222.539 33.1591C223.107 33.1591 223.558 33.2538 223.891 33.4432C224.229 33.6288 224.486 33.8409 224.664 34.0795C224.846 34.3144 224.986 34.5076 225.085 34.6591H225.221V33.2727H226.516V42.25C226.516 43 226.346 43.6098 226.005 44.0795C225.668 44.553 225.213 44.8996 224.641 45.1193C224.073 45.3428 223.441 45.4545 222.744 45.4545ZM222.698 40.6591C223.236 40.6591 223.691 40.536 224.062 40.2898C224.433 40.0436 224.715 39.6894 224.909 39.2273C225.102 38.7652 225.198 38.2121 225.198 37.5682C225.198 36.9394 225.104 36.3845 224.914 35.9034C224.725 35.4223 224.445 35.0455 224.073 34.7727C223.702 34.5 223.244 34.3636 222.698 34.3636C222.13 34.3636 221.657 34.5076 221.278 34.7955C220.903 35.0833 220.621 35.4697 220.431 35.9545C220.246 36.4394 220.153 36.9773 220.153 37.5682C220.153 38.1742 220.248 38.7102 220.437 39.1761C220.63 39.6383 220.914 40.0019 221.289 40.267C221.668 40.5284 222.138 40.6591 222.698 40.6591Z" fill="#303030"/>
<path fill-rule="evenodd" clip-rule="evenodd" d="M246.854 35.6465C247.049 35.8417 247.049 36.1583 246.854 36.3535L241.854 41.3535C241.658 41.5488 241.342 41.5488 241.146 41.3535C240.951 41.1583 240.951 40.8417 241.146 40.6465L245.793 36L241.146 31.3536C240.951 31.1583 240.951 30.8417 241.146 30.6464C241.342 30.4512 241.658 30.4512 241.854 30.6464L246.854 35.6465Z" fill="#567FEF"/>
<rect x="256" y="24" width="50" height="24" rx="4" fill="#D4DFFF"/>
<path d="M265.091 42H261.148V30.3636H265.17C266.326 30.3636 267.318 30.5966 268.148 31.0625C268.981 31.5246 269.621 32.1894 270.068 33.0568C270.515 33.9242 270.739 34.9621 270.739 36.1705C270.739 37.3826 270.513 38.4242 270.062 39.2955C269.616 40.1667 268.97 40.8352 268.125 41.3011C267.284 41.767 266.273 42 265.091 42ZM263.256 40.1761H264.989C265.799 40.1761 266.475 40.0284 267.017 39.733C267.559 39.4337 267.966 38.9886 268.239 38.3977C268.511 37.803 268.648 37.0606 268.648 36.1705C268.648 35.2803 268.511 34.5417 268.239 33.9545C267.966 33.3636 267.563 32.9223 267.028 32.6307C266.498 32.3352 265.839 32.1875 265.051 32.1875H263.256V40.1761ZM271.851 42V33.2727H273.845V34.7273H273.936C274.095 34.2235 274.368 33.8352 274.754 33.5625C275.144 33.286 275.589 33.1477 276.089 33.1477C276.203 33.1477 276.33 33.1534 276.47 33.1648C276.614 33.1723 276.733 33.1856 276.828 33.2045V35.0966C276.741 35.0663 276.602 35.0398 276.413 35.017C276.227 34.9905 276.048 34.9773 275.873 34.9773C275.498 34.9773 275.161 35.0587 274.862 35.2216C274.566 35.3807 274.334 35.6023 274.163 35.8864C273.993 36.1705 273.907 36.4981 273.907 36.8693V42H271.851ZM280.899 42.1705C280.024 42.1705 279.268 41.9886 278.632 41.625C277.999 41.2576 277.512 40.7386 277.171 40.0682C276.83 39.3939 276.66 38.6004 276.66 37.6875C276.66 36.7898 276.83 36.0019 277.171 35.3239C277.516 34.642 277.997 34.1117 278.614 33.733C279.232 33.3504 279.957 33.1591 280.791 33.1591C281.329 33.1591 281.836 33.2462 282.313 33.4205C282.794 33.5909 283.219 33.8561 283.586 34.2159C283.957 34.5758 284.249 35.0341 284.461 35.5909C284.673 36.1439 284.779 36.803 284.779 37.5682V38.1989H277.626V36.8125H282.808C282.804 36.4186 282.719 36.0682 282.552 35.7614C282.385 35.4508 282.152 35.2064 281.853 35.0284C281.558 34.8504 281.213 34.7614 280.819 34.7614C280.399 34.7614 280.029 34.8636 279.711 35.0682C279.393 35.2689 279.145 35.5341 278.967 35.8636C278.793 36.1894 278.704 36.5473 278.7 36.9375V38.1477C278.7 38.6553 278.793 39.0909 278.978 39.4545C279.164 39.8144 279.423 40.0909 279.757 40.2841C280.09 40.4735 280.48 40.5682 280.927 40.5682C281.226 40.5682 281.497 40.5265 281.739 40.4432C281.982 40.3561 282.192 40.2292 282.37 40.0625C282.548 39.8958 282.683 39.6894 282.774 39.4432L284.694 39.6591C284.573 40.1667 284.342 40.6098 284.001 40.9886C283.664 41.3636 283.232 41.6553 282.705 41.8636C282.179 42.0682 281.577 42.1705 280.899 42.1705ZM292.617 35.5795L290.742 35.7841C290.689 35.5947 290.596 35.4167 290.464 35.25C290.335 35.0833 290.161 34.9489 289.941 34.8466C289.721 34.7443 289.452 34.6932 289.134 34.6932C288.706 34.6932 288.346 34.786 288.055 34.9716C287.767 35.1572 287.625 35.3977 287.628 35.6932C287.625 35.947 287.717 36.1534 287.907 36.3125C288.1 36.4716 288.418 36.6023 288.861 36.7045L290.35 37.0227C291.176 37.2008 291.789 37.483 292.191 37.8693C292.596 38.2557 292.801 38.7614 292.805 39.3864C292.801 39.9356 292.64 40.4205 292.322 40.8409C292.007 41.2576 291.57 41.5833 291.009 41.8182C290.448 42.053 289.805 42.1705 289.077 42.1705C288.009 42.1705 287.149 41.947 286.498 41.5C285.846 41.0492 285.458 40.4223 285.333 39.6193L287.339 39.4261C287.43 39.8201 287.623 40.1174 287.918 40.3182C288.214 40.5189 288.598 40.6193 289.072 40.6193C289.56 40.6193 289.952 40.5189 290.248 40.3182C290.547 40.1174 290.697 39.8693 290.697 39.5739C290.697 39.3239 290.6 39.1174 290.407 38.9545C290.217 38.7917 289.922 38.6667 289.52 38.5795L288.032 38.267C287.195 38.0928 286.575 37.7992 286.174 37.3864C285.772 36.9697 285.573 36.4432 285.577 35.8068C285.573 35.2689 285.719 34.803 286.015 34.4091C286.314 34.0114 286.729 33.7045 287.259 33.4886C287.793 33.2689 288.409 33.1591 289.106 33.1591C290.128 33.1591 290.933 33.3769 291.52 33.8125C292.111 34.2481 292.477 34.8371 292.617 35.5795ZM300.598 35.5795L298.723 35.7841C298.67 35.5947 298.577 35.4167 298.445 35.25C298.316 35.0833 298.142 34.9489 297.922 34.8466C297.702 34.7443 297.434 34.6932 297.115 34.6932C296.687 34.6932 296.327 34.786 296.036 34.9716C295.748 35.1572 295.606 35.3977 295.61 35.6932C295.606 35.947 295.699 36.1534 295.888 36.3125C296.081 36.4716 296.399 36.6023 296.843 36.7045L298.331 37.0227C299.157 37.2008 299.771 37.483 300.172 37.8693C300.577 38.2557 300.782 38.7614 300.786 39.3864C300.782 39.9356 300.621 40.4205 300.303 40.8409C299.988 41.2576 299.551 41.5833 298.99 41.8182C298.43 42.053 297.786 42.1705 297.059 42.1705C295.99 42.1705 295.13 41.947 294.479 41.5C293.827 41.0492 293.439 40.4223 293.314 39.6193L295.32 39.4261C295.411 39.8201 295.604 40.1174 295.899 40.3182C296.195 40.5189 296.579 40.6193 297.053 40.6193C297.541 40.6193 297.934 40.5189 298.229 40.3182C298.528 40.1174 298.678 39.8693 298.678 39.5739C298.678 39.3239 298.581 39.1174 298.388 38.9545C298.199 38.7917 297.903 38.6667 297.502 38.5795L296.013 38.267C295.176 38.0928 294.557 37.7992 294.155 37.3864C293.754 36.9697 293.555 36.4432 293.559 35.8068C293.555 35.2689 293.701 34.803 293.996 34.4091C294.295 34.0114 294.71 33.7045 295.24 33.4886C295.774 33.2689 296.39 33.1591 297.087 33.1591C298.11 33.1591 298.915 33.3769 299.502 33.8125C300.093 34.2481 300.458 34.8371 300.598 35.5795Z" fill="#567FEF"/>
<path d="M33.5581 77.2006C33.8022 76.9566 34.1978 76.9566 34.4419 77.2006L41.6831 84.4418C41.9272 84.6858 42.3228 84.6858 42.5669 84.4418C42.811 84.1977 42.811 83.8019 42.5669 83.5578L35.3258 76.3168C34.5936 75.5845 33.4064 75.5845 32.6742 76.3168L25.4331 83.5578C25.189 83.8019 25.189 84.1977 25.4331 84.4418C25.6771 84.6858 26.0729 84.6858 26.3169 84.4418L33.5581 77.2006Z" fill="#567FEF"/>
<path d="M34 78.5265L40.7992 85.3257C40.8239 85.3504 40.8492 85.3744 40.875 85.3974V90.5624C40.875 91.4253 40.1754 92.1249 39.3125 92.1249H36.5C36.1548 92.1249 35.875 91.845 35.875 91.4999V87.7499C35.875 87.4047 35.5952 87.1249 35.25 87.1249H32.75C32.4048 87.1249 32.125 87.4047 32.125 87.7499V91.4999C32.125 91.845 31.8452 92.1249 31.5 92.1249H28.6875C27.8246 92.1249 27.125 91.4253 27.125 90.5624V85.3974C27.1508 85.3744 27.1761 85.3504 27.2008 85.3257L34 78.5265Z" fill="#567FEF"/>
<rect x="62.7393" y="79" width="1" height="12.9454" rx="0.5" transform="rotate(26.3175 62.7393 79)" fill="#567FEF"/>
<path d="M77.4091 91V79.3636H81.3409C82.2538 79.3636 83 79.5284 83.5795 79.858C84.1629 80.1837 84.5947 80.625 84.875 81.1818C85.1553 81.7386 85.2955 82.3598 85.2955 83.0455C85.2955 83.7311 85.1553 84.3542 84.875 84.9148C84.5985 85.4754 84.1705 85.9223 83.5909 86.2557C83.0114 86.5852 82.2689 86.75 81.3636 86.75H78.5455V85.5H81.3182C81.9432 85.5 82.4451 85.392 82.8239 85.1761C83.2027 84.9602 83.4773 84.6686 83.6477 84.3011C83.822 83.9299 83.9091 83.5114 83.9091 83.0455C83.9091 82.5795 83.822 82.1629 83.6477 81.7955C83.4773 81.428 83.2008 81.1402 82.8182 80.9318C82.4356 80.7197 81.928 80.6136 81.2955 80.6136H78.8182V91H77.4091ZM86.5835 91V82.2727H87.879V83.5909H87.9699C88.129 83.1591 88.4169 82.8087 88.8335 82.5398C89.2502 82.2708 89.7199 82.1364 90.2426 82.1364C90.3411 82.1364 90.4642 82.1383 90.6119 82.142C90.7597 82.1458 90.8714 82.1515 90.9472 82.1591V83.5227C90.9017 83.5114 90.7975 83.4943 90.6347 83.4716C90.4756 83.4451 90.307 83.4318 90.129 83.4318C89.7047 83.4318 89.3259 83.5208 88.9926 83.6989C88.6631 83.8731 88.4017 84.1155 88.2085 84.4261C88.0191 84.733 87.9244 85.0833 87.9244 85.4773V91H86.5835ZM95.0165 91.1818C94.2286 91.1818 93.5373 90.9943 92.9426 90.6193C92.3517 90.2443 91.8896 89.7197 91.5562 89.0455C91.2267 88.3712 91.0619 87.5833 91.0619 86.6818C91.0619 85.7727 91.2267 84.9792 91.5562 84.3011C91.8896 83.6231 92.3517 83.0966 92.9426 82.7216C93.5373 82.3466 94.2286 82.1591 95.0165 82.1591C95.8044 82.1591 96.4937 82.3466 97.0847 82.7216C97.6794 83.0966 98.1415 83.6231 98.471 84.3011C98.8044 84.9792 98.971 85.7727 98.971 86.6818C98.971 87.5833 98.8044 88.3712 98.471 89.0455C98.1415 89.7197 97.6794 90.2443 97.0847 90.6193C96.4937 90.9943 95.8044 91.1818 95.0165 91.1818ZM95.0165 89.9773C95.615 89.9773 96.1074 89.8239 96.4937 89.517C96.8801 89.2102 97.1661 88.8068 97.3517 88.3068C97.5373 87.8068 97.6301 87.2652 97.6301 86.6818C97.6301 86.0985 97.5373 85.5549 97.3517 85.0511C97.1661 84.5473 96.8801 84.1402 96.4937 83.8295C96.1074 83.5189 95.615 83.3636 95.0165 83.3636C94.418 83.3636 93.9256 83.5189 93.5392 83.8295C93.1528 84.1402 92.8669 84.5473 92.6812 85.0511C92.4956 85.5549 92.4028 86.0985 92.4028 86.6818C92.4028 87.2652 92.4956 87.8068 92.6812 88.3068C92.8669 88.8068 93.1528 89.2102 93.5392 89.517C93.9256 89.8239 94.418 89.9773 95.0165 89.9773ZM103.513 91.1818C102.786 91.1818 102.144 90.9981 101.587 90.6307C101.03 90.2595 100.595 89.7367 100.28 89.0625C99.966 88.3845 99.8088 87.5833 99.8088 86.6591C99.8088 85.7424 99.966 84.947 100.28 84.2727C100.595 83.5985 101.032 83.0777 101.593 82.7102C102.154 82.3428 102.801 82.1591 103.536 82.1591C104.104 82.1591 104.553 82.2538 104.883 82.4432C105.216 82.6288 105.47 82.8409 105.644 83.0795C105.822 83.3144 105.96 83.5076 106.059 83.6591H106.172V79.3636H107.513V91H106.218V89.6591H106.059C105.96 89.8182 105.82 90.0189 105.638 90.2614C105.457 90.5 105.197 90.714 104.86 90.9034C104.523 91.089 104.074 91.1818 103.513 91.1818ZM103.695 89.9773C104.233 89.9773 104.688 89.8371 105.059 89.5568C105.43 89.2727 105.712 88.8807 105.905 88.3807C106.099 87.8769 106.195 87.2955 106.195 86.6364C106.195 85.9848 106.1 85.4148 105.911 84.9261C105.722 84.4337 105.441 84.0511 105.07 83.7784C104.699 83.5019 104.241 83.3636 103.695 83.3636C103.127 83.3636 102.654 83.5095 102.275 83.8011C101.9 84.089 101.618 84.4811 101.428 84.9773C101.243 85.4697 101.15 86.0227 101.15 86.6364C101.15 87.2576 101.244 87.822 101.434 88.3295C101.627 88.8333 101.911 89.2348 102.286 89.5341C102.665 89.8295 103.135 89.9773 103.695 89.9773ZM114.855 87.4318V82.2727H116.196V91H114.855V89.5227H114.764C114.56 89.9659 114.242 90.3428 113.81 90.6534C113.378 90.9602 112.833 91.1136 112.174 91.1136C111.628 91.1136 111.143 90.9943 110.719 90.7557C110.295 90.5133 109.961 90.1496 109.719 89.6648C109.477 89.1761 109.355 88.5606 109.355 87.8182V82.2727H110.696V87.7273C110.696 88.3636 110.874 88.8712 111.23 89.25C111.59 89.6288 112.049 89.8182 112.605 89.8182C112.939 89.8182 113.278 89.733 113.622 89.5625C113.971 89.392 114.263 89.1307 114.497 88.7784C114.736 88.4261 114.855 87.9773 114.855 87.4318ZM121.398 91.1818C120.58 91.1818 119.875 90.9886 119.284 90.6023C118.693 90.2159 118.239 89.6837 117.92 89.0057C117.602 88.3277 117.443 87.553 117.443 86.6818C117.443 85.7955 117.606 85.0133 117.932 84.3352C118.261 83.6534 118.72 83.1212 119.307 82.7386C119.898 82.3523 120.587 82.1591 121.375 82.1591C121.989 82.1591 122.542 82.2727 123.034 82.5C123.527 82.7273 123.93 83.0455 124.244 83.4545C124.559 83.8636 124.754 84.3409 124.83 84.8864H123.489C123.386 84.4886 123.159 84.1364 122.807 83.8295C122.458 83.5189 121.989 83.3636 121.398 83.3636C120.875 83.3636 120.417 83.5 120.023 83.7727C119.633 84.0417 119.328 84.4223 119.108 84.9148C118.892 85.4034 118.784 85.9773 118.784 86.6364C118.784 87.3106 118.89 87.8977 119.102 88.3977C119.318 88.8977 119.621 89.286 120.011 89.5625C120.405 89.839 120.867 89.9773 121.398 89.9773C121.746 89.9773 122.062 89.9167 122.347 89.7955C122.631 89.6742 122.871 89.5 123.068 89.2727C123.265 89.0455 123.405 88.7727 123.489 88.4545H124.83C124.754 88.9697 124.566 89.4337 124.267 89.8466C123.972 90.2557 123.58 90.5814 123.091 90.8239C122.606 91.0625 122.042 91.1818 121.398 91.1818ZM129.785 82.2727V83.4091H125.263V82.2727H129.785ZM126.581 80.1818H127.922V88.5C127.922 88.8788 127.977 89.1629 128.086 89.3523C128.2 89.5379 128.344 89.6629 128.518 89.7273C128.696 89.7879 128.884 89.8182 129.081 89.8182C129.228 89.8182 129.35 89.8106 129.444 89.7955C129.539 89.7765 129.615 89.7614 129.672 89.75L129.944 90.9545C129.853 90.9886 129.727 91.0227 129.564 91.0568C129.401 91.0947 129.194 91.1136 128.944 91.1136C128.566 91.1136 128.194 91.0322 127.831 90.8693C127.471 90.7064 127.172 90.4583 126.933 90.125C126.698 89.7917 126.581 89.3712 126.581 88.8636V80.1818ZM137.028 84.2273L135.823 84.5682C135.748 84.3674 135.636 84.1723 135.488 83.983C135.344 83.7898 135.147 83.6307 134.897 83.5057C134.647 83.3807 134.327 83.3182 133.937 83.3182C133.403 83.3182 132.958 83.4413 132.602 83.6875C132.249 83.9299 132.073 84.2386 132.073 84.6136C132.073 84.947 132.195 85.2102 132.437 85.4034C132.679 85.5966 133.058 85.7576 133.573 85.8864L134.869 86.2045C135.649 86.3939 136.23 86.6837 136.613 87.0739C136.996 87.4602 137.187 87.9583 137.187 88.5682C137.187 89.0682 137.043 89.5152 136.755 89.9091C136.471 90.303 136.073 90.6136 135.562 90.8409C135.051 91.0682 134.456 91.1818 133.778 91.1818C132.888 91.1818 132.151 90.9886 131.568 90.6023C130.984 90.2159 130.615 89.6515 130.46 88.9091L131.732 88.5909C131.854 89.0606 132.083 89.4129 132.42 89.6477C132.761 89.8826 133.206 90 133.755 90C134.38 90 134.876 89.8674 135.244 89.6023C135.615 89.3333 135.801 89.0114 135.801 88.6364C135.801 88.3333 135.695 88.0795 135.482 87.875C135.27 87.6667 134.945 87.5114 134.505 87.4091L133.051 87.0682C132.251 86.8788 131.664 86.5852 131.289 86.1875C130.918 85.786 130.732 85.2841 130.732 84.6818C130.732 84.1894 130.871 83.7538 131.147 83.375C131.427 82.9962 131.808 82.6989 132.289 82.483C132.774 82.267 133.323 82.1591 133.937 82.1591C134.801 82.1591 135.479 82.3485 135.971 82.7273C136.467 83.1061 136.82 83.6061 137.028 84.2273Z" fill="#303030"/>
<rect x="156.739" y="79" width="1" height="12.9454" rx="0.5" transform="rotate(26.3175 156.739 79)" fill="#567FEF"/>
<rect x="166" y="73" width="66" height="24" rx="4" fill="#D4DFFF"/>
<path d="M180.773 83H179.364C179.28 82.5947 179.134 82.2386 178.926 81.9318C178.722 81.625 178.472 81.3674 178.176 81.1591C177.884 80.947 177.561 80.7879 177.205 80.6818C176.848 80.5758 176.477 80.5227 176.091 80.5227C175.386 80.5227 174.748 80.7008 174.176 81.0568C173.608 81.4129 173.155 81.9375 172.818 82.6307C172.485 83.3239 172.318 84.1742 172.318 85.1818C172.318 86.1894 172.485 87.0398 172.818 87.733C173.155 88.4261 173.608 88.9508 174.176 89.3068C174.748 89.6629 175.386 89.8409 176.091 89.8409C176.477 89.8409 176.848 89.7879 177.205 89.6818C177.561 89.5758 177.884 89.4186 178.176 89.2102C178.472 88.9981 178.722 88.7386 178.926 88.4318C179.134 88.1212 179.28 87.7652 179.364 87.3636H180.773C180.667 87.9583 180.473 88.4905 180.193 88.9602C179.913 89.4299 179.564 89.8295 179.148 90.1591C178.731 90.4848 178.263 90.733 177.744 90.9034C177.229 91.0739 176.678 91.1591 176.091 91.1591C175.098 91.1591 174.216 90.9167 173.443 90.4318C172.67 89.947 172.063 89.2576 171.619 88.3636C171.176 87.4697 170.955 86.4091 170.955 85.1818C170.955 83.9545 171.176 82.8939 171.619 82C172.063 81.1061 172.67 80.4167 173.443 79.9318C174.216 79.447 175.098 79.2045 176.091 79.2045C176.678 79.2045 177.229 79.2898 177.744 79.4602C178.263 79.6307 178.731 79.8807 179.148 80.2102C179.564 80.536 179.913 80.9337 180.193 81.4034C180.473 81.8693 180.667 82.4015 180.773 83ZM183.409 79.3636V91H182.068V79.3636H183.409ZM188.61 91.1818C187.822 91.1818 187.131 90.9943 186.536 90.6193C185.945 90.2443 185.483 89.7197 185.15 89.0455C184.82 88.3712 184.656 87.5833 184.656 86.6818C184.656 85.7727 184.82 84.9792 185.15 84.3011C185.483 83.6231 185.945 83.0966 186.536 82.7216C187.131 82.3466 187.822 82.1591 188.61 82.1591C189.398 82.1591 190.087 82.3466 190.678 82.7216C191.273 83.0966 191.735 83.6231 192.065 84.3011C192.398 84.9792 192.565 85.7727 192.565 86.6818C192.565 87.5833 192.398 88.3712 192.065 89.0455C191.735 89.7197 191.273 90.2443 190.678 90.6193C190.087 90.9943 189.398 91.1818 188.61 91.1818ZM188.61 89.9773C189.209 89.9773 189.701 89.8239 190.087 89.517C190.474 89.2102 190.76 88.8068 190.945 88.3068C191.131 87.8068 191.224 87.2652 191.224 86.6818C191.224 86.0985 191.131 85.5549 190.945 85.0511C190.76 84.5473 190.474 84.1402 190.087 83.8295C189.701 83.5189 189.209 83.3636 188.61 83.3636C188.012 83.3636 187.519 83.5189 187.133 83.8295C186.747 84.1402 186.461 84.5473 186.275 85.0511C186.089 85.5549 185.997 86.0985 185.997 86.6818C185.997 87.2652 186.089 87.8068 186.275 88.3068C186.461 88.8068 186.747 89.2102 187.133 89.517C187.519 89.8239 188.012 89.9773 188.61 89.9773ZM197.607 82.2727V83.4091H193.084V82.2727H197.607ZM194.403 80.1818H195.743V88.5C195.743 88.8788 195.798 89.1629 195.908 89.3523C196.022 89.5379 196.166 89.6629 196.34 89.7273C196.518 89.7879 196.706 89.8182 196.903 89.8182C197.05 89.8182 197.171 89.8106 197.266 89.7955C197.361 89.7765 197.437 89.7614 197.493 89.75L197.766 90.9545C197.675 90.9886 197.548 91.0227 197.386 91.0568C197.223 91.0947 197.016 91.1136 196.766 91.1136C196.387 91.1136 196.016 91.0322 195.653 90.8693C195.293 90.7064 194.993 90.4583 194.755 90.125C194.52 89.7917 194.403 89.3712 194.403 88.8636V80.1818ZM200.353 85.75V91H199.012V79.3636H200.353V83.6364H200.466C200.671 83.1856 200.978 82.8277 201.387 82.5625C201.8 82.2936 202.349 82.1591 203.034 82.1591C203.629 82.1591 204.15 82.2784 204.597 82.517C205.044 82.7519 205.39 83.1136 205.637 83.6023C205.887 84.0871 206.012 84.7045 206.012 85.4545V91H204.671V85.5455C204.671 84.8523 204.491 84.3163 204.131 83.9375C203.775 83.5549 203.281 83.3636 202.648 83.3636C202.209 83.3636 201.815 83.4564 201.466 83.642C201.121 83.8277 200.849 84.0985 200.648 84.4545C200.451 84.8106 200.353 85.2424 200.353 85.75ZM207.665 91V82.2727H209.006V91H207.665ZM208.347 80.8182C208.085 80.8182 207.86 80.7292 207.67 80.5511C207.485 80.3731 207.392 80.1591 207.392 79.9091C207.392 79.6591 207.485 79.4451 207.67 79.267C207.86 79.089 208.085 79 208.347 79C208.608 79 208.831 79.089 209.017 79.267C209.206 79.4451 209.301 79.6591 209.301 79.9091C209.301 80.1591 209.206 80.3731 209.017 80.5511C208.831 80.7292 208.608 80.8182 208.347 80.8182ZM212.003 85.75V91H210.662V82.2727H211.957V83.6364H212.071C212.275 83.1932 212.586 82.8371 213.003 82.5682C213.419 82.2955 213.957 82.1591 214.616 82.1591C215.207 82.1591 215.724 82.2803 216.167 82.5227C216.611 82.7614 216.955 83.125 217.201 83.6136C217.448 84.0985 217.571 84.7121 217.571 85.4545V91H216.23V85.5455C216.23 84.8598 216.052 84.3258 215.696 83.9432C215.34 83.5568 214.851 83.3636 214.23 83.3636C213.802 83.3636 213.419 83.4564 213.082 83.642C212.749 83.8277 212.486 84.0985 212.292 84.4545C212.099 84.8106 212.003 85.2424 212.003 85.75ZM222.744 94.4545C222.096 94.4545 221.539 94.3712 221.073 94.2045C220.607 94.0417 220.219 93.8258 219.909 93.5568C219.602 93.2917 219.357 93.0076 219.176 92.7045L220.244 91.9545C220.365 92.1136 220.518 92.2955 220.704 92.5C220.89 92.7083 221.143 92.8883 221.465 93.0398C221.791 93.1951 222.217 93.2727 222.744 93.2727C223.448 93.2727 224.03 93.1023 224.488 92.7614C224.946 92.4205 225.176 91.8864 225.176 91.1591V89.3864H225.062C224.963 89.5455 224.823 89.7424 224.641 89.9773C224.463 90.2083 224.206 90.4148 223.869 90.5966C223.535 90.7746 223.085 90.8636 222.516 90.8636C221.812 90.8636 221.179 90.697 220.619 90.3636C220.062 90.0303 219.621 89.5455 219.295 88.9091C218.973 88.2727 218.812 87.5 218.812 86.5909C218.812 85.697 218.969 84.9186 219.284 84.2557C219.598 83.589 220.035 83.0739 220.596 82.7102C221.157 82.3428 221.804 82.1591 222.539 82.1591C223.107 82.1591 223.558 82.2538 223.891 82.4432C224.229 82.6288 224.486 82.8409 224.664 83.0795C224.846 83.3144 224.986 83.5076 225.085 83.6591H225.221V82.2727H226.516V91.25C226.516 92 226.346 92.6098 226.005 93.0795C225.668 93.553 225.213 93.8996 224.641 94.1193C224.073 94.3428 223.441 94.4545 222.744 94.4545ZM222.698 89.6591C223.236 89.6591 223.691 89.536 224.062 89.2898C224.433 89.0436 224.715 88.6894 224.909 88.2273C225.102 87.7652 225.198 87.2121 225.198 86.5682C225.198 85.9394 225.104 85.3845 224.914 84.9034C224.725 84.4223 224.445 84.0455 224.073 83.7727C223.702 83.5 223.244 83.3636 222.698 83.3636C222.13 83.3636 221.657 83.5076 221.278 83.7955C220.903 84.0833 220.621 84.4697 220.431 84.9545C220.246 85.4394 220.153 85.9773 220.153 86.5682C220.153 87.1742 220.248 87.7102 220.437 88.1761C220.63 88.6383 220.914 89.0019 221.289 89.267C221.668 89.5284 222.138 89.6591 222.698 89.6591Z" fill="#303030"/>
<rect x="246.739" y="79" width="1" height="12.9454" rx="0.5" transform="rotate(26.3175 246.739 79)" fill="#567FEF"/>
<rect x="256" y="73" width="50" height="24" rx="4" fill="#D4DFFF"/>
<path d="M265.091 91H261.148V79.3636H265.17C266.326 79.3636 267.318 79.5966 268.148 80.0625C268.981 80.5246 269.621 81.1894 270.068 82.0568C270.515 82.9242 270.739 83.9621 270.739 85.1705C270.739 86.3826 270.513 87.4242 270.062 88.2955C269.616 89.1667 268.97 89.8352 268.125 90.3011C267.284 90.767 266.273 91 265.091 91ZM263.256 89.1761H264.989C265.799 89.1761 266.475 89.0284 267.017 88.733C267.559 88.4337 267.966 87.9886 268.239 87.3977C268.511 86.803 268.648 86.0606 268.648 85.1705C268.648 84.2803 268.511 83.5417 268.239 82.9545C267.966 82.3636 267.563 81.9223 267.028 81.6307C266.498 81.3352 265.839 81.1875 265.051 81.1875H263.256V89.1761ZM271.851 91V82.2727H273.845V83.7273H273.936C274.095 83.2235 274.368 82.8352 274.754 82.5625C275.144 82.286 275.589 82.1477 276.089 82.1477C276.203 82.1477 276.33 82.1534 276.47 82.1648C276.614 82.1723 276.733 82.1856 276.828 82.2045V84.0966C276.741 84.0663 276.602 84.0398 276.413 84.017C276.227 83.9905 276.048 83.9773 275.873 83.9773C275.498 83.9773 275.161 84.0587 274.862 84.2216C274.566 84.3807 274.334 84.6023 274.163 84.8864C273.993 85.1705 273.907 85.4981 273.907 85.8693V91H271.851ZM280.899 91.1705C280.024 91.1705 279.268 90.9886 278.632 90.625C277.999 90.2576 277.512 89.7386 277.171 89.0682C276.83 88.3939 276.66 87.6004 276.66 86.6875C276.66 85.7898 276.83 85.0019 277.171 84.3239C277.516 83.642 277.997 83.1117 278.614 82.733C279.232 82.3504 279.957 82.1591 280.791 82.1591C281.329 82.1591 281.836 82.2462 282.313 82.4205C282.794 82.5909 283.219 82.8561 283.586 83.2159C283.957 83.5758 284.249 84.0341 284.461 84.5909C284.673 85.1439 284.779 85.803 284.779 86.5682V87.1989H277.626V85.8125H282.808C282.804 85.4186 282.719 85.0682 282.552 84.7614C282.385 84.4508 282.152 84.2064 281.853 84.0284C281.558 83.8504 281.213 83.7614 280.819 83.7614C280.399 83.7614 280.029 83.8636 279.711 84.0682C279.393 84.2689 279.145 84.5341 278.967 84.8636C278.793 85.1894 278.704 85.5473 278.7 85.9375V87.1477C278.7 87.6553 278.793 88.0909 278.978 88.4545C279.164 88.8144 279.423 89.0909 279.757 89.2841C280.09 89.4735 280.48 89.5682 280.927 89.5682C281.226 89.5682 281.497 89.5265 281.739 89.4432C281.982 89.3561 282.192 89.2292 282.37 89.0625C282.548 88.8958 282.683 88.6894 282.774 88.4432L284.694 88.6591C284.573 89.1667 284.342 89.6098 284.001 89.9886C283.664 90.3636 283.232 90.6553 282.705 90.8636C282.179 91.0682 281.577 91.1705 280.899 91.1705ZM292.617 84.5795L290.742 84.7841C290.689 84.5947 290.596 84.4167 290.464 84.25C290.335 84.0833 290.161 83.9489 289.941 83.8466C289.721 83.7443 289.452 83.6932 289.134 83.6932C288.706 83.6932 288.346 83.786 288.055 83.9716C287.767 84.1572 287.625 84.3977 287.628 84.6932C287.625 84.947 287.717 85.1534 287.907 85.3125C288.1 85.4716 288.418 85.6023 288.861 85.7045L290.35 86.0227C291.176 86.2008 291.789 86.483 292.191 86.8693C292.596 87.2557 292.801 87.7614 292.805 88.3864C292.801 88.9356 292.64 89.4205 292.322 89.8409C292.007 90.2576 291.57 90.5833 291.009 90.8182C290.448 91.053 289.805 91.1705 289.077 91.1705C288.009 91.1705 287.149 90.947 286.498 90.5C285.846 90.0492 285.458 89.4223 285.333 88.6193L287.339 88.4261C287.43 88.8201 287.623 89.1174 287.918 89.3182C288.214 89.5189 288.598 89.6193 289.072 89.6193C289.56 89.6193 289.952 89.5189 290.248 89.3182C290.547 89.1174 290.697 88.8693 290.697 88.5739C290.697 88.3239 290.6 88.1174 290.407 87.9545C290.217 87.7917 289.922 87.6667 289.52 87.5795L288.032 87.267C287.195 87.0928 286.575 86.7992 286.174 86.3864C285.772 85.9697 285.573 85.4432 285.577 84.8068C285.573 84.2689 285.719 83.803 286.015 83.4091C286.314 83.0114 286.729 82.7045 287.259 82.4886C287.793 82.2689 288.409 82.1591 289.106 82.1591C290.128 82.1591 290.933 82.3769 291.52 82.8125C292.111 83.2481 292.477 83.8371 292.617 84.5795ZM300.598 84.5795L298.723 84.7841C298.67 84.5947 298.577 84.4167 298.445 84.25C298.316 84.0833 298.142 83.9489 297.922 83.8466C297.702 83.7443 297.434 83.6932 297.115 83.6932C296.687 83.6932 296.327 83.786 296.036 83.9716C295.748 84.1572 295.606 84.3977 295.61 84.6932C295.606 84.947 295.699 85.1534 295.888 85.3125C296.081 85.4716 296.399 85.6023 296.843 85.7045L298.331 86.0227C299.157 86.2008 299.771 86.483 300.172 86.8693C300.577 87.2557 300.782 87.7614 300.786 88.3864C300.782 88.9356 300.621 89.4205 300.303 89.8409C299.988 90.2576 299.551 90.5833 298.99 90.8182C298.43 91.053 297.786 91.1705 297.059 91.1705C295.99 91.1705 295.13 90.947 294.479 90.5C293.827 90.0492 293.439 89.4223 293.314 88.6193L295.32 88.4261C295.411 88.8201 295.604 89.1174 295.899 89.3182C296.195 89.5189 296.579 89.6193 297.053 89.6193C297.541 89.6193 297.934 89.5189 298.229 89.3182C298.528 89.1174 298.678 88.8693 298.678 88.5739C298.678 88.3239 298.581 88.1174 298.388 87.9545C298.199 87.7917 297.903 87.6667 297.502 87.5795L296.013 87.267C295.176 87.0928 294.557 86.7992 294.155 86.3864C293.754 85.9697 293.555 85.4432 293.559 84.8068C293.555 84.2689 293.701 83.803 293.996 83.4091C294.295 83.0114 294.71 82.7045 295.24 82.4886C295.774 82.2689 296.39 82.1591 297.087 82.1591C298.11 82.1591 298.915 82.3769 299.502 82.8125C300.093 83.2481 300.458 83.8371 300.598 84.5795Z" fill="#567FEF"/>
<rect x="0.5" y="0.5" width="329" height="120" rx="7.5" stroke="white" stroke-opacity="0.1"/>
</svg>
