<svg width="358" height="71" viewBox="0 0 358 71" fill="none" xmlns="http://www.w3.org/2000/svg">
<rect width="358" height="71" rx="8" fill="#F0F0F0"/>
<path d="M29 39H25.4091V27.3636H29.1591C30.2879 27.3636 31.2538 27.5966 32.0568 28.0625C32.8598 28.5246 33.4754 29.1894 33.9034 30.0568C34.3314 30.9205 34.5455 31.9545 34.5455 33.1591C34.5455 34.3712 34.3295 35.4148 33.8977 36.2898C33.4659 37.161 32.8371 37.8314 32.0114 38.3011C31.1856 38.767 30.1818 39 29 39ZM26.8182 37.75H28.9091C29.8712 37.75 30.6686 37.5644 31.3011 37.1932C31.9337 36.822 32.4053 36.2936 32.7159 35.608C33.0265 34.9223 33.1818 34.1061 33.1818 33.1591C33.1818 32.2197 33.0284 31.411 32.7216 30.733C32.4148 30.0511 31.9564 29.5284 31.3466 29.1648C30.7367 28.7973 29.9773 28.6136 29.0682 28.6136H26.8182V37.75ZM39.4727 39.1818C38.6848 39.1818 37.9936 38.9943 37.3989 38.6193C36.808 38.2443 36.3458 37.7197 36.0125 37.0455C35.683 36.3712 35.5182 35.5833 35.5182 34.6818C35.5182 33.7727 35.683 32.9792 36.0125 32.3011C36.3458 31.6231 36.808 31.0966 37.3989 30.7216C37.9936 30.3466 38.6848 30.1591 39.4727 30.1591C40.2606 30.1591 40.95 30.3466 41.5409 30.7216C42.1356 31.0966 42.5977 31.6231 42.9273 32.3011C43.2606 32.9792 43.4273 33.7727 43.4273 34.6818C43.4273 35.5833 43.2606 36.3712 42.9273 37.0455C42.5977 37.7197 42.1356 38.2443 41.5409 38.6193C40.95 38.9943 40.2606 39.1818 39.4727 39.1818ZM39.4727 37.9773C40.0712 37.9773 40.5636 37.8239 40.95 37.517C41.3364 37.2102 41.6223 36.8068 41.808 36.3068C41.9936 35.8068 42.0864 35.2652 42.0864 34.6818C42.0864 34.0985 41.9936 33.5549 41.808 33.0511C41.6223 32.5473 41.3364 32.1402 40.95 31.8295C40.5636 31.5189 40.0712 31.3636 39.4727 31.3636C38.8742 31.3636 38.3818 31.5189 37.9955 31.8295C37.6091 32.1402 37.3231 32.5473 37.1375 33.0511C36.9519 33.5549 36.8591 34.0985 36.8591 34.6818C36.8591 35.2652 36.9519 35.8068 37.1375 36.3068C37.3231 36.8068 37.6091 37.2102 37.9955 37.517C38.3818 37.8239 38.8742 37.9773 39.4727 37.9773ZM46.3545 39L43.6955 30.2727H45.1045L46.9909 36.9545H47.0818L48.9455 30.2727H50.3773L52.2182 36.9318H52.3091L54.1955 30.2727H55.6045L52.9455 39H51.6273L49.7182 32.2955H49.5818L47.6727 39H46.3545ZM57.9182 33.75V39H56.5773V30.2727H57.8727V31.6364H57.9864C58.1909 31.1932 58.5015 30.8371 58.9182 30.5682C59.3348 30.2955 59.8727 30.1591 60.5318 30.1591C61.1227 30.1591 61.6398 30.2803 62.083 30.5227C62.5261 30.7614 62.8708 31.125 63.117 31.6136C63.3633 32.0985 63.4864 32.7121 63.4864 33.4545V39H62.1455V33.5455C62.1455 32.8598 61.9674 32.3258 61.6114 31.9432C61.2553 31.5568 60.7667 31.3636 60.1455 31.3636C59.7174 31.3636 59.3348 31.4564 58.9977 31.642C58.6644 31.8277 58.4011 32.0985 58.208 32.4545C58.0148 32.8106 57.9182 33.2424 57.9182 33.75ZM66.4776 27.3636V39H65.1366V27.3636H66.4776ZM71.679 39.1818C70.8911 39.1818 70.1998 38.9943 69.6051 38.6193C69.0142 38.2443 68.5521 37.7197 68.2188 37.0455C67.8892 36.3712 67.7244 35.5833 67.7244 34.6818C67.7244 33.7727 67.8892 32.9792 68.2188 32.3011C68.5521 31.6231 69.0142 31.0966 69.6051 30.7216C70.1998 30.3466 70.8911 30.1591 71.679 30.1591C72.4669 30.1591 73.1563 30.3466 73.7472 30.7216C74.3419 31.0966 74.804 31.6231 75.1335 32.3011C75.4669 32.9792 75.6335 33.7727 75.6335 34.6818C75.6335 35.5833 75.4669 36.3712 75.1335 37.0455C74.804 37.7197 74.3419 38.2443 73.7472 38.6193C73.1563 38.9943 72.4669 39.1818 71.679 39.1818ZM71.679 37.9773C72.2775 37.9773 72.7699 37.8239 73.1562 37.517C73.5426 37.2102 73.8286 36.8068 74.0142 36.3068C74.1998 35.8068 74.2926 35.2652 74.2926 34.6818C74.2926 34.0985 74.1998 33.5549 74.0142 33.0511C73.8286 32.5473 73.5426 32.1402 73.1562 31.8295C72.7699 31.5189 72.2775 31.3636 71.679 31.3636C71.0805 31.3636 70.5881 31.5189 70.2017 31.8295C69.8153 32.1402 69.5294 32.5473 69.3438 33.0511C69.1581 33.5549 69.0653 34.0985 69.0653 34.6818C69.0653 35.2652 69.1581 35.8068 69.3438 36.3068C69.5294 36.8068 69.8153 37.2102 70.2017 37.517C70.5881 37.8239 71.0805 37.9773 71.679 37.9773ZM79.4486 39.2045C78.8956 39.2045 78.3937 39.1004 77.9429 38.892C77.4921 38.6799 77.1342 38.375 76.869 37.9773C76.6039 37.5758 76.4713 37.0909 76.4713 36.5227C76.4713 36.0227 76.5698 35.6174 76.7668 35.3068C76.9637 34.9924 77.227 34.7462 77.5565 34.5682C77.8861 34.3902 78.2497 34.2576 78.6474 34.1705C79.049 34.0795 79.4524 34.0076 79.8577 33.9545C80.388 33.8864 80.8179 33.8352 81.1474 33.8011C81.4808 33.7633 81.7232 33.7008 81.8747 33.6136C82.03 33.5265 82.1077 33.375 82.1077 33.1591V33.1136C82.1077 32.553 81.9543 32.1174 81.6474 31.8068C81.3444 31.4962 80.8842 31.3409 80.2668 31.3409C79.6266 31.3409 79.1247 31.4811 78.7611 31.7614C78.3974 32.0417 78.1418 32.3409 77.994 32.6591L76.7213 32.2045C76.9486 31.6742 77.2516 31.2614 77.6304 30.9659C78.013 30.6667 78.4296 30.4583 78.8804 30.3409C79.3349 30.2197 79.7819 30.1591 80.2213 30.1591C80.5016 30.1591 80.8236 30.1932 81.1872 30.2614C81.5546 30.3258 81.9088 30.4602 82.2497 30.6648C82.5944 30.8693 82.8804 31.178 83.1077 31.5909C83.3349 32.0038 83.4486 32.5568 83.4486 33.25V39H82.1077V37.8182H82.0395C81.9486 38.0076 81.7971 38.2102 81.5849 38.4261C81.3728 38.642 81.0906 38.8258 80.7384 38.9773C80.3861 39.1288 79.9562 39.2045 79.4486 39.2045ZM79.6531 38C80.1834 38 80.6304 37.8958 80.994 37.6875C81.3615 37.4792 81.638 37.2102 81.8236 36.8807C82.013 36.5511 82.1077 36.2045 82.1077 35.8409V34.6136C82.0509 34.6818 81.9259 34.7443 81.7327 34.8011C81.5433 34.8542 81.3236 34.9015 81.0736 34.9432C80.8274 34.9811 80.5868 35.0152 80.352 35.0455C80.1209 35.072 79.9334 35.0947 79.7895 35.1136C79.441 35.1591 79.1152 35.233 78.8122 35.3352C78.513 35.4337 78.2706 35.5833 78.0849 35.7841C77.9031 35.9811 77.8122 36.25 77.8122 36.5909C77.8122 37.0568 77.9846 37.4091 78.3293 37.6477C78.6777 37.8826 79.119 38 79.6531 38ZM88.3915 39.1818C87.6642 39.1818 87.0222 38.9981 86.4653 38.6307C85.9085 38.2595 85.4729 37.7367 85.1585 37.0625C84.8441 36.3845 84.6869 35.5833 84.6869 34.6591C84.6869 33.7424 84.8441 32.947 85.1585 32.2727C85.4729 31.5985 85.9104 31.0777 86.471 30.7102C87.0316 30.3428 87.6794 30.1591 88.4142 30.1591C88.9824 30.1591 89.4313 30.2538 89.7608 30.4432C90.0941 30.6288 90.3479 30.8409 90.5222 31.0795C90.7002 31.3144 90.8384 31.5076 90.9369 31.6591H91.0506V27.3636H92.3915V39H91.096V37.6591H90.9369C90.8384 37.8182 90.6983 38.0189 90.5165 38.2614C90.3347 38.5 90.0752 38.714 89.7381 38.9034C89.4009 39.089 88.9521 39.1818 88.3915 39.1818ZM88.5733 37.9773C89.1112 37.9773 89.5657 37.8371 89.9369 37.5568C90.3081 37.2727 90.5903 36.8807 90.7835 36.3807C90.9767 35.8769 91.0733 35.2955 91.0733 34.6364C91.0733 33.9848 90.9786 33.4148 90.7892 32.9261C90.5998 32.4337 90.3195 32.0511 89.9483 31.7784C89.5771 31.5019 89.1188 31.3636 88.5733 31.3636C88.0051 31.3636 87.5316 31.5095 87.1528 31.8011C86.7778 32.089 86.4956 32.4811 86.3063 32.9773C86.1206 33.4697 86.0278 34.0227 86.0278 34.6364C86.0278 35.2576 86.1225 35.822 86.3119 36.3295C86.5051 36.8333 86.7892 37.2348 87.1642 37.5341C87.543 37.8295 88.0127 37.9773 88.5733 37.9773Z" fill="#303030"/>
<path d="M256.409 39V27.3636H257.818V37.75H263.227V39H256.409ZM268.086 39.1818C267.245 39.1818 266.52 38.9962 265.91 38.625C265.304 38.25 264.836 37.7273 264.507 37.0568C264.181 36.3826 264.018 35.5985 264.018 34.7045C264.018 33.8106 264.181 33.0227 264.507 32.3409C264.836 31.6553 265.295 31.1212 265.882 30.7386C266.473 30.3523 267.162 30.1591 267.95 30.1591C268.405 30.1591 268.853 30.2348 269.297 30.3864C269.74 30.5379 270.143 30.7841 270.507 31.125C270.87 31.4621 271.16 31.9091 271.376 32.4659C271.592 33.0227 271.7 33.7083 271.7 34.5227V35.0909H264.973V33.9318H270.336C270.336 33.4394 270.238 33 270.041 32.6136C269.848 32.2273 269.571 31.9223 269.211 31.6989C268.855 31.4754 268.435 31.3636 267.95 31.3636C267.416 31.3636 266.954 31.4962 266.564 31.7614C266.177 32.0227 265.88 32.3636 265.672 32.7841C265.463 33.2045 265.359 33.6553 265.359 34.1364V34.9091C265.359 35.5682 265.473 36.1269 265.7 36.5852C265.931 37.0398 266.251 37.3864 266.66 37.625C267.069 37.8598 267.545 37.9773 268.086 37.9773C268.439 37.9773 268.757 37.928 269.041 37.8295C269.329 37.7273 269.577 37.5758 269.785 37.375C269.994 37.1705 270.155 36.9167 270.268 36.6136L271.564 36.9773C271.427 37.4167 271.198 37.803 270.876 38.1364C270.554 38.4659 270.156 38.7235 269.683 38.9091C269.209 39.0909 268.677 39.1818 268.086 39.1818ZM275.508 39.2045C274.955 39.2045 274.453 39.1004 274.002 38.892C273.552 38.6799 273.194 38.375 272.928 37.9773C272.663 37.5758 272.531 37.0909 272.531 36.5227C272.531 36.0227 272.629 35.6174 272.826 35.3068C273.023 34.9924 273.286 34.7462 273.616 34.5682C273.945 34.3902 274.309 34.2576 274.707 34.1705C275.108 34.0795 275.512 34.0076 275.917 33.9545C276.447 33.8864 276.877 33.8352 277.207 33.8011C277.54 33.7633 277.783 33.7008 277.934 33.6136C278.089 33.5265 278.167 33.375 278.167 33.1591V33.1136C278.167 32.553 278.014 32.1174 277.707 31.8068C277.404 31.4962 276.944 31.3409 276.326 31.3409C275.686 31.3409 275.184 31.4811 274.82 31.7614C274.457 32.0417 274.201 32.3409 274.053 32.6591L272.781 32.2045C273.008 31.6742 273.311 31.2614 273.69 30.9659C274.072 30.6667 274.489 30.4583 274.94 30.3409C275.394 30.2197 275.841 30.1591 276.281 30.1591C276.561 30.1591 276.883 30.1932 277.247 30.2614C277.614 30.3258 277.968 30.4602 278.309 30.6648C278.654 30.8693 278.94 31.178 279.167 31.5909C279.394 32.0038 279.508 32.5568 279.508 33.25V39H278.167V37.8182H278.099C278.008 38.0076 277.856 38.2102 277.644 38.4261C277.432 38.642 277.15 38.8258 276.798 38.9773C276.445 39.1288 276.016 39.2045 275.508 39.2045ZM275.712 38C276.243 38 276.69 37.8958 277.053 37.6875C277.421 37.4792 277.697 37.2102 277.883 36.8807C278.072 36.5511 278.167 36.2045 278.167 35.8409V34.6136C278.11 34.6818 277.985 34.7443 277.792 34.8011C277.603 34.8542 277.383 34.9015 277.133 34.9432C276.887 34.9811 276.646 35.0152 276.411 35.0455C276.18 35.072 275.993 35.0947 275.849 35.1136C275.5 35.1591 275.175 35.233 274.872 35.3352C274.572 35.4337 274.33 35.5833 274.144 35.7841C273.962 35.9811 273.872 36.25 273.872 36.5909C273.872 37.0568 274.044 37.4091 274.389 37.6477C274.737 37.8826 275.178 38 275.712 38ZM281.155 39V30.2727H282.451V31.5909H282.542C282.701 31.1591 282.989 30.8087 283.405 30.5398C283.822 30.2708 284.292 30.1364 284.814 30.1364C284.913 30.1364 285.036 30.1383 285.184 30.142C285.332 30.1458 285.443 30.1515 285.519 30.1591V31.5227C285.474 31.5114 285.369 31.4943 285.207 31.4716C285.047 31.4451 284.879 31.4318 284.701 31.4318C284.277 31.4318 283.898 31.5208 283.564 31.6989C283.235 31.8731 282.974 32.1155 282.78 32.4261C282.591 32.733 282.496 33.0833 282.496 33.4773V39H281.155ZM287.649 33.75V39H286.309V30.2727H287.604V31.6364H287.718C287.922 31.1932 288.233 30.8371 288.649 30.5682C289.066 30.2955 289.604 30.1591 290.263 30.1591C290.854 30.1591 291.371 30.2803 291.814 30.5227C292.257 30.7614 292.602 31.125 292.848 31.6136C293.095 32.0985 293.218 32.7121 293.218 33.4545V39H291.877V33.5455C291.877 32.8598 291.699 32.3258 291.343 31.9432C290.987 31.5568 290.498 31.3636 289.877 31.3636C289.449 31.3636 289.066 31.4564 288.729 31.642C288.396 31.8277 288.132 32.0985 287.939 32.4545C287.746 32.8106 287.649 33.2424 287.649 33.75ZM298.568 39V30.2727H299.863V31.6364H299.977C300.159 31.1705 300.452 30.8087 300.858 30.5511C301.263 30.2898 301.75 30.1591 302.318 30.1591C302.894 30.1591 303.373 30.2898 303.755 30.5511C304.142 30.8087 304.443 31.1705 304.659 31.6364H304.75C304.973 31.1856 305.308 30.8277 305.755 30.5625C306.202 30.2936 306.738 30.1591 307.363 30.1591C308.144 30.1591 308.782 30.4034 309.278 30.892C309.774 31.3769 310.022 32.1326 310.022 33.1591V39H308.682V33.1591C308.682 32.5152 308.505 32.0549 308.153 31.7784C307.801 31.5019 307.386 31.3636 306.909 31.3636C306.295 31.3636 305.82 31.5492 305.483 31.9205C305.146 32.2879 304.977 32.7538 304.977 33.3182V39H303.613V33.0227C303.613 32.5265 303.452 32.1269 303.13 31.8239C302.808 31.517 302.394 31.3636 301.886 31.3636C301.538 31.3636 301.212 31.4564 300.909 31.642C300.61 31.8277 300.367 32.0852 300.182 32.4148C300 32.7405 299.909 33.1174 299.909 33.5455V39H298.568ZM315.22 39.1818C314.432 39.1818 313.74 38.9943 313.146 38.6193C312.555 38.2443 312.093 37.7197 311.759 37.0455C311.43 36.3712 311.265 35.5833 311.265 34.6818C311.265 33.7727 311.43 32.9792 311.759 32.3011C312.093 31.6231 312.555 31.0966 313.146 30.7216C313.74 30.3466 314.432 30.1591 315.22 30.1591C316.007 30.1591 316.697 30.3466 317.288 30.7216C317.882 31.0966 318.345 31.6231 318.674 32.3011C319.007 32.9792 319.174 33.7727 319.174 34.6818C319.174 35.5833 319.007 36.3712 318.674 37.0455C318.345 37.7197 317.882 38.2443 317.288 38.6193C316.697 38.9943 316.007 39.1818 315.22 39.1818ZM315.22 37.9773C315.818 37.9773 316.311 37.8239 316.697 37.517C317.083 37.2102 317.369 36.8068 317.555 36.3068C317.74 35.8068 317.833 35.2652 317.833 34.6818C317.833 34.0985 317.74 33.5549 317.555 33.0511C317.369 32.5473 317.083 32.1402 316.697 31.8295C316.311 31.5189 315.818 31.3636 315.22 31.3636C314.621 31.3636 314.129 31.5189 313.742 31.8295C313.356 32.1402 313.07 32.5473 312.884 33.0511C312.699 33.5549 312.606 34.0985 312.606 34.6818C312.606 35.2652 312.699 35.8068 312.884 36.3068C313.07 36.8068 313.356 37.2102 313.742 37.517C314.129 37.8239 314.621 37.9773 315.22 37.9773ZM320.421 39V30.2727H321.716V31.5909H321.807C321.966 31.1591 322.254 30.8087 322.671 30.5398C323.088 30.2708 323.557 30.1364 324.08 30.1364C324.179 30.1364 324.302 30.1383 324.449 30.142C324.597 30.1458 324.709 30.1515 324.785 30.1591V31.5227C324.739 31.5114 324.635 31.4943 324.472 31.4716C324.313 31.4451 324.145 31.4318 323.966 31.4318C323.542 31.4318 323.163 31.5208 322.83 31.6989C322.501 31.8731 322.239 32.1155 322.046 32.4261C321.857 32.733 321.762 33.0833 321.762 33.4773V39H320.421ZM328.968 39.1818C328.127 39.1818 327.401 38.9962 326.791 38.625C326.185 38.25 325.718 37.7273 325.388 37.0568C325.062 36.3826 324.899 35.5985 324.899 34.7045C324.899 33.8106 325.062 33.0227 325.388 32.3409C325.718 31.6553 326.176 31.1212 326.763 30.7386C327.354 30.3523 328.043 30.1591 328.831 30.1591C329.286 30.1591 329.735 30.2348 330.178 30.3864C330.621 30.5379 331.024 30.7841 331.388 31.125C331.752 31.4621 332.041 31.9091 332.257 32.4659C332.473 33.0227 332.581 33.7083 332.581 34.5227V35.0909H325.854V33.9318H331.218C331.218 33.4394 331.119 33 330.922 32.6136C330.729 32.2273 330.452 31.9223 330.093 31.6989C329.737 31.4754 329.316 31.3636 328.831 31.3636C328.297 31.3636 327.835 31.4962 327.445 31.7614C327.059 32.0227 326.761 32.3636 326.553 32.7841C326.345 33.2045 326.24 33.6553 326.24 34.1364V34.9091C326.24 35.5682 326.354 36.1269 326.581 36.5852C326.812 37.0398 327.132 37.3864 327.541 37.625C327.951 37.8598 328.426 37.9773 328.968 37.9773C329.32 37.9773 329.638 37.928 329.922 37.8295C330.21 37.7273 330.458 37.5758 330.666 37.375C330.875 37.1705 331.036 36.9167 331.149 36.6136L332.445 36.9773C332.309 37.4167 332.079 37.803 331.757 38.1364C331.435 38.4659 331.038 38.7235 330.564 38.9091C330.091 39.0909 329.559 39.1818 328.968 39.1818Z" fill="#567FEF"/>
<rect x="256" y="44" width="48" height="2" rx="1" fill="#567FEF"/>
<path d="M119.886 27.3636L123.341 37.1591H123.477L126.932 27.3636H128.409L124.136 39H122.682L118.409 27.3636H119.886ZM129.24 39V30.2727H130.581V39H129.24ZM129.922 28.8182C129.66 28.8182 129.435 28.7292 129.245 28.5511C129.06 28.3731 128.967 28.1591 128.967 27.9091C128.967 27.6591 129.06 27.4451 129.245 27.267C129.435 27.089 129.66 27 129.922 27C130.183 27 130.406 27.089 130.592 27.267C130.781 27.4451 130.876 27.6591 130.876 27.9091C130.876 28.1591 130.781 28.3731 130.592 28.5511C130.406 28.7292 130.183 28.8182 129.922 28.8182ZM135.896 39.1818C135.055 39.1818 134.329 38.9962 133.72 38.625C133.114 38.25 132.646 37.7273 132.316 37.0568C131.99 36.3826 131.828 35.5985 131.828 34.7045C131.828 33.8106 131.99 33.0227 132.316 32.3409C132.646 31.6553 133.104 31.1212 133.691 30.7386C134.282 30.3523 134.971 30.1591 135.759 30.1591C136.214 30.1591 136.663 30.2348 137.106 30.3864C137.549 30.5379 137.953 30.7841 138.316 31.125C138.68 31.4621 138.97 31.9091 139.186 32.4659C139.401 33.0227 139.509 33.7083 139.509 34.5227V35.0909H132.782V33.9318H138.146C138.146 33.4394 138.047 33 137.85 32.6136C137.657 32.2273 137.381 31.9223 137.021 31.6989C136.665 31.4754 136.244 31.3636 135.759 31.3636C135.225 31.3636 134.763 31.4962 134.373 31.7614C133.987 32.0227 133.689 32.3636 133.481 32.7841C133.273 33.2045 133.168 33.6553 133.168 34.1364V34.9091C133.168 35.5682 133.282 36.1269 133.509 36.5852C133.74 37.0398 134.061 37.3864 134.47 37.625C134.879 37.8598 135.354 37.9773 135.896 37.9773C136.248 37.9773 136.566 37.928 136.85 37.8295C137.138 37.7273 137.386 37.5758 137.595 37.375C137.803 37.1705 137.964 36.9167 138.078 36.6136L139.373 36.9773C139.237 37.4167 139.007 37.803 138.686 38.1364C138.364 38.4659 137.966 38.7235 137.492 38.9091C137.019 39.0909 136.487 39.1818 135.896 39.1818ZM142.726 39L140.067 30.2727H141.476L143.363 36.9545H143.454L145.317 30.2727H146.749L148.59 36.9318H148.681L150.567 30.2727H151.976L149.317 39H147.999L146.09 32.2955H145.954L144.045 39H142.726ZM160.422 39H156.831V27.3636H160.581C161.71 27.3636 162.676 27.5966 163.479 28.0625C164.282 28.5246 164.897 29.1894 165.325 30.0568C165.753 30.9205 165.967 31.9545 165.967 33.1591C165.967 34.3712 165.751 35.4148 165.32 36.2898C164.888 37.161 164.259 37.8314 163.433 38.3011C162.607 38.767 161.604 39 160.422 39ZM158.24 37.75H160.331C161.293 37.75 162.09 37.5644 162.723 37.1932C163.356 36.822 163.827 36.2936 164.138 35.608C164.448 34.9223 164.604 34.1061 164.604 33.1591C164.604 32.2197 164.45 31.411 164.143 30.733C163.837 30.0511 163.378 29.5284 162.768 29.1648C162.159 28.7973 161.399 28.6136 160.49 28.6136H158.24V37.75ZM171.008 39.1818C170.167 39.1818 169.442 38.9962 168.832 38.625C168.226 38.25 167.758 37.7273 167.429 37.0568C167.103 36.3826 166.94 35.5985 166.94 34.7045C166.94 33.8106 167.103 33.0227 167.429 32.3409C167.758 31.6553 168.217 31.1212 168.804 30.7386C169.395 30.3523 170.084 30.1591 170.872 30.1591C171.326 30.1591 171.775 30.2348 172.218 30.3864C172.662 30.5379 173.065 30.7841 173.429 31.125C173.792 31.4621 174.082 31.9091 174.298 32.4659C174.514 33.0227 174.622 33.7083 174.622 34.5227V35.0909H167.895V33.9318H173.258C173.258 33.4394 173.16 33 172.963 32.6136C172.77 32.2273 172.493 31.9223 172.133 31.6989C171.777 31.4754 171.357 31.3636 170.872 31.3636C170.338 31.3636 169.876 31.4962 169.486 31.7614C169.099 32.0227 168.802 32.3636 168.593 32.7841C168.385 33.2045 168.281 33.6553 168.281 34.1364V34.9091C168.281 35.5682 168.395 36.1269 168.622 36.5852C168.853 37.0398 169.173 37.3864 169.582 37.625C169.991 37.8598 170.467 37.9773 171.008 37.9773C171.361 37.9773 171.679 37.928 171.963 37.8295C172.251 37.7273 172.499 37.5758 172.707 37.375C172.915 37.1705 173.076 36.9167 173.19 36.6136L174.486 36.9773C174.349 37.4167 174.12 37.803 173.798 38.1364C173.476 38.4659 173.078 38.7235 172.605 38.9091C172.131 39.0909 171.599 39.1818 171.008 39.1818ZM179.657 30.2727V31.4091H175.134V30.2727H179.657ZM176.453 28.1818H177.793V36.5C177.793 36.8788 177.848 37.1629 177.958 37.3523C178.072 37.5379 178.216 37.6629 178.39 37.7273C178.568 37.7879 178.756 37.8182 178.953 37.8182C179.1 37.8182 179.221 37.8106 179.316 37.7955C179.411 37.7765 179.487 37.7614 179.543 37.75L179.816 38.9545C179.725 38.9886 179.598 39.0227 179.436 39.0568C179.273 39.0947 179.066 39.1136 178.816 39.1136C178.437 39.1136 178.066 39.0322 177.703 38.8693C177.343 38.7064 177.043 38.4583 176.805 38.125C176.57 37.7917 176.453 37.3712 176.453 36.8636V28.1818ZM183.442 39.2045C182.889 39.2045 182.387 39.1004 181.937 38.892C181.486 38.6799 181.128 38.375 180.863 37.9773C180.598 37.5758 180.465 37.0909 180.465 36.5227C180.465 36.0227 180.564 35.6174 180.761 35.3068C180.957 34.9924 181.221 34.7462 181.55 34.5682C181.88 34.3902 182.243 34.2576 182.641 34.1705C183.043 34.0795 183.446 34.0076 183.851 33.9545C184.382 33.8864 184.812 33.8352 185.141 33.8011C185.475 33.7633 185.717 33.7008 185.868 33.6136C186.024 33.5265 186.101 33.375 186.101 33.1591V33.1136C186.101 32.553 185.948 32.1174 185.641 31.8068C185.338 31.4962 184.878 31.3409 184.261 31.3409C183.62 31.3409 183.118 31.4811 182.755 31.7614C182.391 32.0417 182.136 32.3409 181.988 32.6591L180.715 32.2045C180.942 31.6742 181.245 31.2614 181.624 30.9659C182.007 30.6667 182.423 30.4583 182.874 30.3409C183.329 30.2197 183.776 30.1591 184.215 30.1591C184.495 30.1591 184.817 30.1932 185.181 30.2614C185.548 30.3258 185.903 30.4602 186.243 30.6648C186.588 30.8693 186.874 31.178 187.101 31.5909C187.329 32.0038 187.442 32.5568 187.442 33.25V39H186.101V37.8182H186.033C185.942 38.0076 185.791 38.2102 185.579 38.4261C185.367 38.642 185.084 38.8258 184.732 38.9773C184.38 39.1288 183.95 39.2045 183.442 39.2045ZM183.647 38C184.177 38 184.624 37.8958 184.988 37.6875C185.355 37.4792 185.632 37.2102 185.817 36.8807C186.007 36.5511 186.101 36.2045 186.101 35.8409V34.6136C186.045 34.6818 185.92 34.7443 185.726 34.8011C185.537 34.8542 185.317 34.9015 185.067 34.9432C184.821 34.9811 184.581 35.0152 184.346 35.0455C184.115 35.072 183.927 35.0947 183.783 35.1136C183.435 35.1591 183.109 35.233 182.806 35.3352C182.507 35.4337 182.264 35.5833 182.079 35.7841C181.897 35.9811 181.806 36.25 181.806 36.5909C181.806 37.0568 181.978 37.4091 182.323 37.6477C182.671 37.8826 183.113 38 183.647 38ZM189.09 39V30.2727H190.431V39H189.09ZM189.772 28.8182C189.51 28.8182 189.285 28.7292 189.095 28.5511C188.91 28.3731 188.817 28.1591 188.817 27.9091C188.817 27.6591 188.91 27.4451 189.095 27.267C189.285 27.089 189.51 27 189.772 27C190.033 27 190.256 27.089 190.442 27.267C190.631 27.4451 190.726 27.6591 190.726 27.9091C190.726 28.1591 190.631 28.3731 190.442 28.5511C190.256 28.7292 190.033 28.8182 189.772 28.8182ZM193.428 27.3636V39H192.087V27.3636H193.428ZM201.265 32.2273L200.061 32.5682C199.985 32.3674 199.873 32.1723 199.726 31.983C199.582 31.7898 199.385 31.6307 199.135 31.5057C198.885 31.3807 198.565 31.3182 198.174 31.3182C197.64 31.3182 197.195 31.4413 196.839 31.6875C196.487 31.9299 196.311 32.2386 196.311 32.6136C196.311 32.947 196.432 33.2102 196.674 33.4034C196.917 33.5966 197.296 33.7576 197.811 33.8864L199.106 34.2045C199.887 34.3939 200.468 34.6837 200.851 35.0739C201.233 35.4602 201.424 35.9583 201.424 36.5682C201.424 37.0682 201.28 37.5152 200.993 37.9091C200.709 38.303 200.311 38.6136 199.799 38.8409C199.288 39.0682 198.693 39.1818 198.015 39.1818C197.125 39.1818 196.388 38.9886 195.805 38.6023C195.222 38.2159 194.852 37.6515 194.697 36.9091L195.97 36.5909C196.091 37.0606 196.32 37.4129 196.657 37.6477C196.998 37.8826 197.443 38 197.993 38C198.618 38 199.114 37.8674 199.481 37.6023C199.852 37.3333 200.038 37.0114 200.038 36.6364C200.038 36.3333 199.932 36.0795 199.72 35.875C199.508 35.6667 199.182 35.5114 198.743 35.4091L197.288 35.0682C196.489 34.8788 195.902 34.5852 195.527 34.1875C195.155 33.786 194.97 33.2841 194.97 32.6818C194.97 32.1894 195.108 31.7538 195.385 31.375C195.665 30.9962 196.046 30.6989 196.527 30.483C197.012 30.267 197.561 30.1591 198.174 30.1591C199.038 30.1591 199.716 30.3485 200.209 30.7273C200.705 31.1061 201.057 31.6061 201.265 32.2273Z" fill="#303030"/>
<path fill-rule="evenodd" clip-rule="evenodd" d="M217.875 27.125H227.25C227.416 27.125 227.575 27.1909 227.692 27.3081C227.809 27.4253 227.875 27.5842 227.875 27.75V37.125C227.875 37.4702 227.595 37.75 227.25 37.75C226.905 37.75 226.625 37.4702 226.625 37.125V29.2589L215.192 40.6919C214.948 40.936 214.552 40.936 214.308 40.6919C214.064 40.4478 214.064 40.0522 214.308 39.8081L225.741 28.375H217.875C217.53 28.375 217.25 28.0952 217.25 27.75C217.25 27.4048 217.53 27.125 217.875 27.125Z" fill="#303030"/>
<rect x="119" y="44" width="60" height="2" rx="1" fill="#303030"/>
<rect x="0.5" y="0.5" width="357" height="70" rx="7.5" stroke="white" stroke-opacity="0.1"/>
</svg>
