<svg width="394" height="160" viewBox="0 0 394 160" fill="none" xmlns="http://www.w3.org/2000/svg">
<rect width="394" height="160" rx="8" fill="#F0F0F0"/>
<rect x="29" y="28" width="102" height="40" rx="8" fill="#567FEF" fill-opacity="0.15"/>
<rect x="26" y="25" width="100" height="38" rx="7" stroke="#567FEF" stroke-width="2"/>
<path d="M46.0969 49.5H42.506V37.8636H46.256C47.3848 37.8636 48.3507 38.0966 49.1537 38.5625C49.9567 39.0246 50.5723 39.6894 51.0003 40.5568C51.4283 41.4205 51.6423 42.4545 51.6423 43.6591C51.6423 44.8712 51.4264 45.9148 50.9946 46.7898C50.5628 47.661 49.934 48.3314 49.1082 48.8011C48.2825 49.267 47.2787 49.5 46.0969 49.5ZM43.9151 48.25H46.006C46.9681 48.25 47.7654 48.0644 48.398 47.6932C49.0306 47.322 49.5022 46.7936 49.8128 46.108C50.1234 45.4223 50.2787 44.6061 50.2787 43.6591C50.2787 42.7197 50.1253 41.911 49.8185 41.233C49.5116 40.5511 49.0533 40.0284 48.4435 39.6648C47.8336 39.2973 47.0741 39.1136 46.1651 39.1136H43.9151V48.25ZM56.5696 49.6818C55.7817 49.6818 55.0904 49.4943 54.4957 49.1193C53.9048 48.7443 53.4427 48.2197 53.1094 47.5455C52.7798 46.8712 52.6151 46.0833 52.6151 45.1818C52.6151 44.2727 52.7798 43.4792 53.1094 42.8011C53.4427 42.1231 53.9048 41.5966 54.4957 41.2216C55.0904 40.8466 55.7817 40.6591 56.5696 40.6591C57.3575 40.6591 58.0469 40.8466 58.6378 41.2216C59.2325 41.5966 59.6946 42.1231 60.0241 42.8011C60.3575 43.4792 60.5241 44.2727 60.5241 45.1818C60.5241 46.0833 60.3575 46.8712 60.0241 47.5455C59.6946 48.2197 59.2325 48.7443 58.6378 49.1193C58.0469 49.4943 57.3575 49.6818 56.5696 49.6818ZM56.5696 48.4773C57.1681 48.4773 57.6605 48.3239 58.0469 48.017C58.4332 47.7102 58.7192 47.3068 58.9048 46.8068C59.0904 46.3068 59.1832 45.7652 59.1832 45.1818C59.1832 44.5985 59.0904 44.0549 58.9048 43.5511C58.7192 43.0473 58.4332 42.6402 58.0469 42.3295C57.6605 42.0189 57.1681 41.8636 56.5696 41.8636C55.9711 41.8636 55.4787 42.0189 55.0923 42.3295C54.706 42.6402 54.42 43.0473 54.2344 43.5511C54.0488 44.0549 53.956 44.5985 53.956 45.1818C53.956 45.7652 54.0488 46.3068 54.2344 46.8068C54.42 47.3068 54.706 47.7102 55.0923 48.017C55.4787 48.3239 55.9711 48.4773 56.5696 48.4773ZM63.4514 49.5L60.7923 40.7727H62.2014L64.0878 47.4545H64.1787L66.0423 40.7727H67.4741L69.3151 47.4318H69.406L71.2923 40.7727H72.7014L70.0423 49.5H68.7241L66.8151 42.7955H66.6787L64.7696 49.5H63.4514ZM75.0151 44.25V49.5H73.6741V40.7727H74.9696V42.1364H75.0832C75.2878 41.6932 75.5984 41.3371 76.0151 41.0682C76.4317 40.7955 76.9696 40.6591 77.6287 40.6591C78.2196 40.6591 78.7366 40.7803 79.1798 41.0227C79.623 41.2614 79.9677 41.625 80.2139 42.1136C80.4601 42.5985 80.5832 43.2121 80.5832 43.9545V49.5H79.2423V44.0455C79.2423 43.3598 79.0643 42.8258 78.7082 42.4432C78.3522 42.0568 77.8635 41.8636 77.2423 41.8636C76.8143 41.8636 76.4317 41.9564 76.0946 42.142C75.7613 42.3277 75.498 42.5985 75.3048 42.9545C75.1116 43.3106 75.0151 43.7424 75.0151 44.25ZM83.5744 37.8636V49.5H82.2335V37.8636H83.5744ZM88.7759 49.6818C87.988 49.6818 87.2967 49.4943 86.702 49.1193C86.1111 48.7443 85.649 48.2197 85.3156 47.5455C84.9861 46.8712 84.8213 46.0833 84.8213 45.1818C84.8213 44.2727 84.9861 43.4792 85.3156 42.8011C85.649 42.1231 86.1111 41.5966 86.702 41.2216C87.2967 40.8466 87.988 40.6591 88.7759 40.6591C89.5637 40.6591 90.2531 40.8466 90.844 41.2216C91.4387 41.5966 91.9009 42.1231 92.2304 42.8011C92.5637 43.4792 92.7304 44.2727 92.7304 45.1818C92.7304 46.0833 92.5637 46.8712 92.2304 47.5455C91.9009 48.2197 91.4387 48.7443 90.844 49.1193C90.2531 49.4943 89.5637 49.6818 88.7759 49.6818ZM88.7759 48.4773C89.3743 48.4773 89.8668 48.3239 90.2531 48.017C90.6395 47.7102 90.9255 47.3068 91.1111 46.8068C91.2967 46.3068 91.3895 45.7652 91.3895 45.1818C91.3895 44.5985 91.2967 44.0549 91.1111 43.5511C90.9255 43.0473 90.6395 42.6402 90.2531 42.3295C89.8668 42.0189 89.3743 41.8636 88.7759 41.8636C88.1774 41.8636 87.6849 42.0189 87.2986 42.3295C86.9122 42.6402 86.6262 43.0473 86.4406 43.5511C86.255 44.0549 86.1622 44.5985 86.1622 45.1818C86.1622 45.7652 86.255 46.3068 86.4406 46.8068C86.6262 47.3068 86.9122 47.7102 87.2986 48.017C87.6849 48.3239 88.1774 48.4773 88.7759 48.4773ZM96.5455 49.7045C95.9924 49.7045 95.4905 49.6004 95.0398 49.392C94.589 49.1799 94.2311 48.875 93.9659 48.4773C93.7008 48.0758 93.5682 47.5909 93.5682 47.0227C93.5682 46.5227 93.6667 46.1174 93.8636 45.8068C94.0606 45.4924 94.3239 45.2462 94.6534 45.0682C94.983 44.8902 95.3466 44.7576 95.7443 44.6705C96.1458 44.5795 96.5492 44.5076 96.9545 44.4545C97.4848 44.3864 97.9148 44.3352 98.2443 44.3011C98.5777 44.2633 98.8201 44.2008 98.9716 44.1136C99.1269 44.0265 99.2045 43.875 99.2045 43.6591V43.6136C99.2045 43.053 99.0511 42.6174 98.7443 42.3068C98.4413 41.9962 97.9811 41.8409 97.3636 41.8409C96.7235 41.8409 96.2216 41.9811 95.858 42.2614C95.4943 42.5417 95.2386 42.8409 95.0909 43.1591L93.8182 42.7045C94.0455 42.1742 94.3485 41.7614 94.7273 41.4659C95.1098 41.1667 95.5265 40.9583 95.9773 40.8409C96.4318 40.7197 96.8788 40.6591 97.3182 40.6591C97.5985 40.6591 97.9205 40.6932 98.2841 40.7614C98.6515 40.8258 99.0057 40.9602 99.3466 41.1648C99.6913 41.3693 99.9773 41.678 100.205 42.0909C100.432 42.5038 100.545 43.0568 100.545 43.75V49.5H99.2045V48.3182H99.1364C99.0455 48.5076 98.8939 48.7102 98.6818 48.9261C98.4697 49.142 98.1875 49.3258 97.8352 49.4773C97.483 49.6288 97.053 49.7045 96.5455 49.7045ZM96.75 48.5C97.2803 48.5 97.7273 48.3958 98.0909 48.1875C98.4583 47.9792 98.7348 47.7102 98.9205 47.3807C99.1098 47.0511 99.2045 46.7045 99.2045 46.3409V45.1136C99.1477 45.1818 99.0227 45.2443 98.8295 45.3011C98.6402 45.3542 98.4205 45.4015 98.1705 45.4432C97.9242 45.4811 97.6837 45.5152 97.4489 45.5455C97.2178 45.572 97.0303 45.5947 96.8864 45.6136C96.5379 45.6591 96.2121 45.733 95.9091 45.8352C95.6098 45.9337 95.3674 46.0833 95.1818 46.2841C95 46.4811 94.9091 46.75 94.9091 47.0909C94.9091 47.5568 95.0814 47.9091 95.4261 48.1477C95.7746 48.3826 96.2159 48.5 96.75 48.5ZM105.488 49.6818C104.761 49.6818 104.119 49.4981 103.562 49.1307C103.005 48.7595 102.57 48.2367 102.255 47.5625C101.941 46.8845 101.784 46.0833 101.784 45.1591C101.784 44.2424 101.941 43.447 102.255 42.7727C102.57 42.0985 103.007 41.5777 103.568 41.2102C104.129 40.8428 104.776 40.6591 105.511 40.6591C106.079 40.6591 106.528 40.7538 106.858 40.9432C107.191 41.1288 107.445 41.3409 107.619 41.5795C107.797 41.8144 107.935 42.0076 108.034 42.1591H108.147V37.8636H109.488V49.5H108.193V48.1591H108.034C107.935 48.3182 107.795 48.5189 107.613 48.7614C107.432 49 107.172 49.214 106.835 49.4034C106.498 49.589 106.049 49.6818 105.488 49.6818ZM105.67 48.4773C106.208 48.4773 106.663 48.3371 107.034 48.0568C107.405 47.7727 107.687 47.3807 107.88 46.8807C108.074 46.3769 108.17 45.7955 108.17 45.1364C108.17 44.4848 108.075 43.9148 107.886 43.4261C107.697 42.9337 107.416 42.5511 107.045 42.2784C106.674 42.0019 106.216 41.8636 105.67 41.8636C105.102 41.8636 104.629 42.0095 104.25 42.3011C103.875 42.589 103.593 42.9811 103.403 43.4773C103.218 43.9697 103.125 44.5227 103.125 45.1364C103.125 45.7576 103.219 46.322 103.409 46.8295C103.602 47.3333 103.886 47.7348 104.261 48.0341C104.64 48.3295 105.11 48.4773 105.67 48.4773Z" fill="#567FEF"/>
<rect x="155" y="28.5" width="102" height="40" rx="8" fill="#303030" fill-opacity="0.25"/>
<rect x="152" y="25.5" width="100" height="38" rx="7" stroke="#303030" stroke-width="2"/>
<path d="M175.041 41.2727C174.973 40.697 174.697 40.25 174.212 39.9318C173.727 39.6136 173.132 39.4545 172.428 39.4545C171.913 39.4545 171.462 39.5379 171.076 39.7045C170.693 39.8712 170.394 40.1004 170.178 40.392C169.966 40.6837 169.86 41.0152 169.86 41.3864C169.86 41.697 169.934 41.964 170.081 42.1875C170.233 42.4072 170.426 42.5909 170.661 42.7386C170.896 42.8826 171.142 43.0019 171.399 43.0966C171.657 43.1875 171.894 43.2614 172.11 43.3182L173.291 43.6364C173.595 43.7159 173.932 43.8258 174.303 43.9659C174.678 44.1061 175.036 44.2973 175.377 44.5398C175.721 44.7784 176.005 45.0852 176.229 45.4602C176.452 45.8352 176.564 46.2955 176.564 46.8409C176.564 47.4697 176.399 48.0379 176.07 48.5455C175.744 49.053 175.267 49.4564 174.638 49.7557C174.013 50.0549 173.254 50.2045 172.36 50.2045C171.526 50.2045 170.805 50.0701 170.195 49.8011C169.589 49.5322 169.112 49.1572 168.763 48.6761C168.418 48.1951 168.223 47.6364 168.178 47H169.632C169.67 47.4394 169.818 47.803 170.076 48.0909C170.337 48.375 170.666 48.5871 171.064 48.7273C171.466 48.8636 171.898 48.9318 172.36 48.9318C172.898 48.9318 173.38 48.8447 173.809 48.6705C174.237 48.4924 174.576 48.2462 174.826 47.9318C175.076 47.6136 175.201 47.2424 175.201 46.8182C175.201 46.4318 175.093 46.1174 174.877 45.875C174.661 45.6326 174.377 45.4356 174.024 45.2841C173.672 45.1326 173.291 45 172.882 44.8864L171.451 44.4773C170.541 44.2159 169.822 43.8428 169.291 43.358C168.761 42.8731 168.496 42.2386 168.496 41.4545C168.496 40.803 168.672 40.2348 169.024 39.75C169.38 39.2614 169.858 38.8826 170.456 38.6136C171.059 38.3409 171.731 38.2045 172.473 38.2045C173.223 38.2045 173.89 38.339 174.473 38.608C175.057 38.8731 175.519 39.2367 175.86 39.6989C176.204 40.161 176.386 40.6856 176.405 41.2727H175.041ZM179.24 44.75V50H177.899V38.3636H179.24V42.6364H179.354C179.558 42.1856 179.865 41.8277 180.274 41.5625C180.687 41.2936 181.236 41.1591 181.922 41.1591C182.517 41.1591 183.037 41.2784 183.484 41.517C183.931 41.7519 184.278 42.1136 184.524 42.6023C184.774 43.0871 184.899 43.7045 184.899 44.4545V50H183.558V44.5455C183.558 43.8523 183.378 43.3163 183.018 42.9375C182.662 42.5549 182.168 42.3636 181.536 42.3636C181.096 42.3636 180.702 42.4564 180.354 42.642C180.009 42.8277 179.736 43.0985 179.536 43.4545C179.339 43.8106 179.24 44.2424 179.24 44.75ZM190.098 50.1818C189.31 50.1818 188.619 49.9943 188.024 49.6193C187.433 49.2443 186.971 48.7197 186.637 48.0455C186.308 47.3712 186.143 46.5833 186.143 45.6818C186.143 44.7727 186.308 43.9792 186.637 43.3011C186.971 42.6231 187.433 42.0966 188.024 41.7216C188.619 41.3466 189.31 41.1591 190.098 41.1591C190.886 41.1591 191.575 41.3466 192.166 41.7216C192.761 42.0966 193.223 42.6231 193.552 43.3011C193.886 43.9792 194.052 44.7727 194.052 45.6818C194.052 46.5833 193.886 47.3712 193.552 48.0455C193.223 48.7197 192.761 49.2443 192.166 49.6193C191.575 49.9943 190.886 50.1818 190.098 50.1818ZM190.098 48.9773C190.696 48.9773 191.189 48.8239 191.575 48.517C191.961 48.2102 192.247 47.8068 192.433 47.3068C192.619 46.8068 192.711 46.2652 192.711 45.6818C192.711 45.0985 192.619 44.5549 192.433 44.0511C192.247 43.5473 191.961 43.1402 191.575 42.8295C191.189 42.5189 190.696 42.3636 190.098 42.3636C189.499 42.3636 189.007 42.5189 188.62 42.8295C188.234 43.1402 187.948 43.5473 187.762 44.0511C187.577 44.5549 187.484 45.0985 187.484 45.6818C187.484 46.2652 187.577 46.8068 187.762 47.3068C187.948 47.8068 188.234 48.2102 188.62 48.517C189.007 48.8239 189.499 48.9773 190.098 48.9773ZM195.299 53.2727V41.2727H196.595V42.6591H196.754C196.852 42.5076 196.989 42.3144 197.163 42.0795C197.341 41.8409 197.595 41.6288 197.924 41.4432C198.257 41.2538 198.708 41.1591 199.276 41.1591C200.011 41.1591 200.659 41.3428 201.22 41.7102C201.78 42.0777 202.218 42.5985 202.532 43.2727C202.846 43.947 203.004 44.7424 203.004 45.6591C203.004 46.5833 202.846 47.3845 202.532 48.0625C202.218 48.7367 201.782 49.2595 201.225 49.6307C200.668 49.9981 200.026 50.1818 199.299 50.1818C198.739 50.1818 198.29 50.089 197.953 49.9034C197.615 49.714 197.356 49.5 197.174 49.2614C196.992 49.0189 196.852 48.8182 196.754 48.6591H196.64V53.2727H195.299ZM196.617 45.6364C196.617 46.2955 196.714 46.8769 196.907 47.3807C197.1 47.8807 197.382 48.2727 197.754 48.5568C198.125 48.8371 198.579 48.9773 199.117 48.9773C199.678 48.9773 200.146 48.8295 200.521 48.5341C200.9 48.2348 201.184 47.8333 201.373 47.3295C201.566 46.822 201.663 46.2576 201.663 45.6364C201.663 45.0227 201.568 44.4697 201.379 43.9773C201.193 43.4811 200.911 43.089 200.532 42.8011C200.157 42.5095 199.686 42.3636 199.117 42.3636C198.572 42.3636 198.114 42.5019 197.742 42.7784C197.371 43.0511 197.091 43.4337 196.901 43.9261C196.712 44.4148 196.617 44.9848 196.617 45.6364ZM209.29 44.75V50H207.949V41.2727H209.245V42.6364H209.358C209.563 42.1932 209.873 41.8371 210.29 41.5682C210.707 41.2955 211.245 41.1591 211.904 41.1591C212.495 41.1591 213.012 41.2803 213.455 41.5227C213.898 41.7614 214.243 42.125 214.489 42.6136C214.735 43.0985 214.858 43.7121 214.858 44.4545V50H213.517V44.5455C213.517 43.8598 213.339 43.3258 212.983 42.9432C212.627 42.5568 212.139 42.3636 211.517 42.3636C211.089 42.3636 210.707 42.4564 210.37 42.642C210.036 42.8277 209.773 43.0985 209.58 43.4545C209.387 43.8106 209.29 44.2424 209.29 44.75ZM220.054 50.1818C219.266 50.1818 218.575 49.9943 217.98 49.6193C217.389 49.2443 216.927 48.7197 216.594 48.0455C216.264 47.3712 216.099 46.5833 216.099 45.6818C216.099 44.7727 216.264 43.9792 216.594 43.3011C216.927 42.6231 217.389 42.0966 217.98 41.7216C218.575 41.3466 219.266 41.1591 220.054 41.1591C220.842 41.1591 221.531 41.3466 222.122 41.7216C222.717 42.0966 223.179 42.6231 223.509 43.3011C223.842 43.9792 224.009 44.7727 224.009 45.6818C224.009 46.5833 223.842 47.3712 223.509 48.0455C223.179 48.7197 222.717 49.2443 222.122 49.6193C221.531 49.9943 220.842 50.1818 220.054 50.1818ZM220.054 48.9773C220.652 48.9773 221.145 48.8239 221.531 48.517C221.918 48.2102 222.204 47.8068 222.389 47.3068C222.575 46.8068 222.668 46.2652 222.668 45.6818C222.668 45.0985 222.575 44.5549 222.389 44.0511C222.204 43.5473 221.918 43.1402 221.531 42.8295C221.145 42.5189 220.652 42.3636 220.054 42.3636C219.455 42.3636 218.963 42.5189 218.577 42.8295C218.19 43.1402 217.904 43.5473 217.719 44.0511C217.533 44.5549 217.44 45.0985 217.44 45.6818C217.44 46.2652 217.533 46.8068 217.719 47.3068C217.904 47.8068 218.19 48.2102 218.577 48.517C218.963 48.8239 219.455 48.9773 220.054 48.9773ZM226.936 50L224.277 41.2727H225.686L227.572 47.9545H227.663L229.527 41.2727H230.959L232.799 47.9318H232.89L234.777 41.2727H236.186L233.527 50H232.209L230.299 43.2955H230.163L228.254 50H226.936Z" fill="white"/>
<rect x="281" y="29" width="90" height="40" rx="8" fill="#567FEF"/>
<rect x="278" y="26" width="88" height="38" rx="7" stroke="#D5EDFF" stroke-width="2"/>
<path d="M294.537 50V38.3636H298.469C299.378 38.3636 300.124 38.5189 300.708 38.8295C301.291 39.1364 301.723 39.5587 302.003 40.0966C302.283 40.6345 302.424 41.2462 302.424 41.9318C302.424 42.6174 302.283 43.2254 302.003 43.7557C301.723 44.286 301.293 44.7027 300.713 45.0057C300.134 45.3049 299.393 45.4545 298.492 45.4545H295.31V44.1818H298.446C299.068 44.1818 299.568 44.0909 299.946 43.9091C300.329 43.7273 300.605 43.4697 300.776 43.1364C300.95 42.7992 301.037 42.3977 301.037 41.9318C301.037 41.4659 300.95 41.0587 300.776 40.7102C300.602 40.3617 300.323 40.0928 299.941 39.9034C299.558 39.7102 299.052 39.6136 298.424 39.6136H295.946V50H294.537ZM300.014 44.7727L302.878 50H301.242L298.424 44.7727H300.014ZM307.355 50.1818C306.514 50.1818 305.789 49.9962 305.179 49.625C304.573 49.25 304.105 48.7273 303.776 48.0568C303.45 47.3826 303.287 46.5985 303.287 45.7045C303.287 44.8106 303.45 44.0227 303.776 43.3409C304.105 42.6553 304.563 42.1212 305.151 41.7386C305.741 41.3523 306.431 41.1591 307.219 41.1591C307.673 41.1591 308.122 41.2348 308.565 41.3864C309.009 41.5379 309.412 41.7841 309.776 42.125C310.139 42.4621 310.429 42.9091 310.645 43.4659C310.861 44.0227 310.969 44.7083 310.969 45.5227V46.0909H304.241V44.9318H309.605C309.605 44.4394 309.507 44 309.31 43.6136C309.116 43.2273 308.84 42.9223 308.48 42.6989C308.124 42.4754 307.704 42.3636 307.219 42.3636C306.685 42.3636 306.223 42.4962 305.832 42.7614C305.446 43.0227 305.149 43.3636 304.94 43.7841C304.732 44.2045 304.628 44.6553 304.628 45.1364V45.9091C304.628 46.5682 304.741 47.1269 304.969 47.5852C305.2 48.0398 305.52 48.3864 305.929 48.625C306.338 48.8598 306.813 48.9773 307.355 48.9773C307.707 48.9773 308.026 48.928 308.31 48.8295C308.598 48.7273 308.846 48.5758 309.054 48.375C309.262 48.1705 309.423 47.9167 309.537 47.6136L310.832 47.9773C310.696 48.4167 310.467 48.803 310.145 49.1364C309.823 49.4659 309.425 49.7235 308.952 49.9091C308.478 50.0909 307.946 50.1818 307.355 50.1818ZM315.731 53.4545C315.084 53.4545 314.527 53.3712 314.061 53.2045C313.595 53.0417 313.207 52.8258 312.896 52.5568C312.589 52.2917 312.345 52.0076 312.163 51.7045L313.231 50.9545C313.352 51.1136 313.506 51.2955 313.691 51.5C313.877 51.7083 314.131 51.8883 314.453 52.0398C314.779 52.1951 315.205 52.2727 315.731 52.2727C316.436 52.2727 317.017 52.1023 317.476 51.7614C317.934 51.4205 318.163 50.8864 318.163 50.1591V48.3864H318.049C317.951 48.5455 317.811 48.7424 317.629 48.9773C317.451 49.2083 317.193 49.4148 316.856 49.5966C316.523 49.7746 316.072 49.8636 315.504 49.8636C314.799 49.8636 314.167 49.697 313.606 49.3636C313.049 49.0303 312.608 48.5455 312.282 47.9091C311.96 47.2727 311.799 46.5 311.799 45.5909C311.799 44.697 311.957 43.9186 312.271 43.2557C312.585 42.589 313.023 42.0739 313.584 41.7102C314.144 41.3428 314.792 41.1591 315.527 41.1591C316.095 41.1591 316.546 41.2538 316.879 41.4432C317.216 41.6288 317.474 41.8409 317.652 42.0795C317.834 42.3144 317.974 42.5076 318.072 42.6591H318.209V41.2727H319.504V50.25C319.504 51 319.334 51.6098 318.993 52.0795C318.655 52.553 318.201 52.8996 317.629 53.1193C317.061 53.3428 316.428 53.4545 315.731 53.4545ZM315.686 48.6591C316.224 48.6591 316.678 48.536 317.049 48.2898C317.421 48.0436 317.703 47.6894 317.896 47.2273C318.089 46.7652 318.186 46.2121 318.186 45.5682C318.186 44.9394 318.091 44.3845 317.902 43.9034C317.712 43.4223 317.432 43.0455 317.061 42.7727C316.69 42.5 316.231 42.3636 315.686 42.3636C315.118 42.3636 314.644 42.5076 314.265 42.7955C313.89 43.0833 313.608 43.4697 313.419 43.9545C313.233 44.4394 313.14 44.9773 313.14 45.5682C313.14 46.1742 313.235 46.7102 313.424 47.1761C313.618 47.6383 313.902 48.0019 314.277 48.267C314.655 48.5284 315.125 48.6591 315.686 48.6591ZM321.159 50V41.2727H322.499V50H321.159ZM321.84 39.8182C321.579 39.8182 321.354 39.7292 321.164 39.5511C320.979 39.3731 320.886 39.1591 320.886 38.9091C320.886 38.6591 320.979 38.4451 321.164 38.267C321.354 38.089 321.579 38 321.84 38C322.102 38 322.325 38.089 322.511 38.267C322.7 38.4451 322.795 38.6591 322.795 38.9091C322.795 39.1591 322.7 39.3731 322.511 39.5511C322.325 39.7292 322.102 39.8182 321.84 39.8182ZM330.337 43.2273L329.133 43.5682C329.057 43.3674 328.945 43.1723 328.797 42.983C328.654 42.7898 328.457 42.6307 328.207 42.5057C327.957 42.3807 327.636 42.3182 327.246 42.3182C326.712 42.3182 326.267 42.4413 325.911 42.6875C325.559 42.9299 325.383 43.2386 325.383 43.6136C325.383 43.947 325.504 44.2102 325.746 44.4034C325.989 44.5966 326.368 44.7576 326.883 44.8864L328.178 45.2045C328.958 45.3939 329.54 45.6837 329.922 46.0739C330.305 46.4602 330.496 46.9583 330.496 47.5682C330.496 48.0682 330.352 48.5152 330.064 48.9091C329.78 49.303 329.383 49.6136 328.871 49.8409C328.36 50.0682 327.765 50.1818 327.087 50.1818C326.197 50.1818 325.46 49.9886 324.877 49.6023C324.294 49.2159 323.924 48.6515 323.769 47.9091L325.042 47.5909C325.163 48.0606 325.392 48.4129 325.729 48.6477C326.07 48.8826 326.515 49 327.064 49C327.689 49 328.186 48.8674 328.553 48.6023C328.924 48.3333 329.11 48.0114 329.11 47.6364C329.11 47.3333 329.004 47.0795 328.792 46.875C328.58 46.6667 328.254 46.5114 327.814 46.4091L326.36 46.0682C325.561 45.8788 324.974 45.5852 324.599 45.1875C324.227 44.786 324.042 44.2841 324.042 43.6818C324.042 43.1894 324.18 42.7538 324.457 42.375C324.737 41.9962 325.118 41.6989 325.599 41.483C326.083 41.267 326.633 41.1591 327.246 41.1591C328.11 41.1591 328.788 41.3485 329.28 41.7273C329.777 42.1061 330.129 42.6061 330.337 43.2273ZM335.51 41.2727V42.4091H330.987V41.2727H335.51ZM332.306 39.1818H333.647V47.5C333.647 47.8788 333.702 48.1629 333.811 48.3523C333.925 48.5379 334.069 48.6629 334.243 48.7273C334.421 48.7879 334.609 48.8182 334.806 48.8182C334.953 48.8182 335.075 48.8106 335.169 48.7955C335.264 48.7765 335.34 48.7614 335.397 48.75L335.669 49.9545C335.578 49.9886 335.452 50.0227 335.289 50.0568C335.126 50.0947 334.919 50.1136 334.669 50.1136C334.291 50.1136 333.919 50.0322 333.556 49.8693C333.196 49.7064 332.897 49.4583 332.658 49.125C332.423 48.7917 332.306 48.3712 332.306 47.8636V39.1818ZM340.293 50.1818C339.452 50.1818 338.726 49.9962 338.116 49.625C337.51 49.25 337.043 48.7273 336.713 48.0568C336.387 47.3826 336.224 46.5985 336.224 45.7045C336.224 44.8106 336.387 44.0227 336.713 43.3409C337.043 42.6553 337.501 42.1212 338.088 41.7386C338.679 41.3523 339.368 41.1591 340.156 41.1591C340.611 41.1591 341.06 41.2348 341.503 41.3864C341.946 41.5379 342.349 41.7841 342.713 42.125C343.077 42.4621 343.366 42.9091 343.582 43.4659C343.798 44.0227 343.906 44.7083 343.906 45.5227V46.0909H337.179V44.9318H342.543C342.543 44.4394 342.444 44 342.247 43.6136C342.054 43.2273 341.777 42.9223 341.418 42.6989C341.062 42.4754 340.641 42.3636 340.156 42.3636C339.622 42.3636 339.16 42.4962 338.77 42.7614C338.384 43.0227 338.086 43.3636 337.878 43.7841C337.67 44.2045 337.565 44.6553 337.565 45.1364V45.9091C337.565 46.5682 337.679 47.1269 337.906 47.5852C338.137 48.0398 338.457 48.3864 338.866 48.625C339.276 48.8598 339.751 48.9773 340.293 48.9773C340.645 48.9773 340.963 48.928 341.247 48.8295C341.535 48.7273 341.783 48.5758 341.991 48.375C342.2 48.1705 342.361 47.9167 342.474 47.6136L343.77 47.9773C343.634 48.4167 343.404 48.803 343.082 49.1364C342.76 49.4659 342.363 49.7235 341.889 49.9091C341.416 50.0909 340.884 50.1818 340.293 50.1818ZM345.146 50V41.2727H346.441V42.5909H346.532C346.691 42.1591 346.979 41.8087 347.396 41.5398C347.813 41.2708 348.282 41.1364 348.805 41.1364C348.904 41.1364 349.027 41.1383 349.174 41.142C349.322 41.1458 349.434 41.1515 349.51 41.1591V42.5227C349.464 42.5114 349.36 42.4943 349.197 42.4716C349.038 42.4451 348.87 42.4318 348.691 42.4318C348.267 42.4318 347.888 42.5208 347.555 42.6989C347.226 42.8731 346.964 43.1155 346.771 43.4261C346.582 43.733 346.487 44.0833 346.487 44.4773V50H345.146Z" fill="#D5EDFF"/>
<rect x="28" y="92" width="40" height="40" rx="8" fill="#567FEF" fill-opacity="0.15"/>
<rect x="25" y="89" width="38" height="38" rx="7" stroke="#567FEF" stroke-width="2"/>
<path fill-rule="evenodd" clip-rule="evenodd" d="M36.5 101.653C36.5 100.227 38.029 99.3229 39.2786 100.01L50.8192 106.357C52.1144 107.07 52.1144 108.931 50.8192 109.643L39.2786 115.991C38.029 116.678 36.5 115.774 36.5 114.348V101.653Z" fill="#567FEF"/>
<rect x="92" y="93" width="48" height="48" rx="8" fill="#FF0E48" fill-opacity="0.25"/>
<rect x="89" y="90" width="46" height="46" rx="7" stroke="#FF0E48" stroke-width="2"/>
<path d="M111.645 121.911L111.638 121.907L111.616 121.895C111.596 121.884 111.569 121.869 111.534 121.85C111.463 121.81 111.361 121.752 111.233 121.677C110.976 121.526 110.613 121.304 110.179 121.015C109.311 120.438 108.151 119.59 106.989 118.506C104.688 116.361 102.25 113.175 102.25 109.25C102.25 106.322 104.714 104 107.688 104C109.436 104 111.002 104.799 112 106.052C112.998 104.799 114.564 104 116.312 104C119.286 104 121.75 106.322 121.75 109.25C121.75 113.175 119.312 116.361 117.011 118.506C115.849 119.59 114.689 120.438 113.821 121.015C113.387 121.304 113.024 121.526 112.767 121.677C112.639 121.752 112.537 121.81 112.466 121.85C112.431 121.869 112.404 121.884 112.384 121.895L112.362 121.907L112.355 121.911L112.352 121.912C112.132 122.029 111.868 122.029 111.648 121.912L111.645 121.911Z" fill="#FF0E48"/>
<rect x="0.5" y="0.5" width="393" height="159" rx="7.5" stroke="white" stroke-opacity="0.1"/>
</svg>
