<svg width="358" height="71" viewBox="0 0 358 71" fill="none" xmlns="http://www.w3.org/2000/svg">
<rect width="358" height="71" rx="8" fill="#F0F0F0"/>
<path d="M30 42H26.4091V30.3636H30.1591C31.2879 30.3636 32.2538 30.5966 33.0568 31.0625C33.8598 31.5246 34.4754 32.1894 34.9034 33.0568C35.3314 33.9205 35.5455 34.9545 35.5455 36.1591C35.5455 37.3712 35.3295 38.4148 34.8977 39.2898C34.4659 40.161 33.8371 40.8314 33.0114 41.3011C32.1856 41.767 31.1818 42 30 42ZM27.8182 40.75H29.9091C30.8712 40.75 31.6686 40.5644 32.3011 40.1932C32.9337 39.822 33.4053 39.2936 33.7159 38.608C34.0265 37.9223 34.1818 37.1061 34.1818 36.1591C34.1818 35.2197 34.0284 34.411 33.7216 33.733C33.4148 33.0511 32.9564 32.5284 32.3466 32.1648C31.7367 31.7973 30.9773 31.6136 30.0682 31.6136H27.8182V40.75ZM40.4727 42.1818C39.6848 42.1818 38.9936 41.9943 38.3989 41.6193C37.808 41.2443 37.3458 40.7197 37.0125 40.0455C36.683 39.3712 36.5182 38.5833 36.5182 37.6818C36.5182 36.7727 36.683 35.9792 37.0125 35.3011C37.3458 34.6231 37.808 34.0966 38.3989 33.7216C38.9936 33.3466 39.6848 33.1591 40.4727 33.1591C41.2606 33.1591 41.95 33.3466 42.5409 33.7216C43.1356 34.0966 43.5977 34.6231 43.9273 35.3011C44.2606 35.9792 44.4273 36.7727 44.4273 37.6818C44.4273 38.5833 44.2606 39.3712 43.9273 40.0455C43.5977 40.7197 43.1356 41.2443 42.5409 41.6193C41.95 41.9943 41.2606 42.1818 40.4727 42.1818ZM40.4727 40.9773C41.0712 40.9773 41.5636 40.8239 41.95 40.517C42.3364 40.2102 42.6223 39.8068 42.808 39.3068C42.9936 38.8068 43.0864 38.2652 43.0864 37.6818C43.0864 37.0985 42.9936 36.5549 42.808 36.0511C42.6223 35.5473 42.3364 35.1402 41.95 34.8295C41.5636 34.5189 41.0712 34.3636 40.4727 34.3636C39.8742 34.3636 39.3818 34.5189 38.9955 34.8295C38.6091 35.1402 38.3231 35.5473 38.1375 36.0511C37.9519 36.5549 37.8591 37.0985 37.8591 37.6818C37.8591 38.2652 37.9519 38.8068 38.1375 39.3068C38.3231 39.8068 38.6091 40.2102 38.9955 40.517C39.3818 40.8239 39.8742 40.9773 40.4727 40.9773ZM47.3545 42L44.6955 33.2727H46.1045L47.9909 39.9545H48.0818L49.9455 33.2727H51.3773L53.2182 39.9318H53.3091L55.1955 33.2727H56.6045L53.9455 42H52.6273L50.7182 35.2955H50.5818L48.6727 42H47.3545ZM58.9182 36.75V42H57.5773V33.2727H58.8727V34.6364H58.9864C59.1909 34.1932 59.5015 33.8371 59.9182 33.5682C60.3348 33.2955 60.8727 33.1591 61.5318 33.1591C62.1227 33.1591 62.6398 33.2803 63.083 33.5227C63.5261 33.7614 63.8708 34.125 64.117 34.6136C64.3633 35.0985 64.4864 35.7121 64.4864 36.4545V42H63.1455V36.5455C63.1455 35.8598 62.9674 35.3258 62.6114 34.9432C62.2553 34.5568 61.7667 34.3636 61.1455 34.3636C60.7174 34.3636 60.3348 34.4564 59.9977 34.642C59.6644 34.8277 59.4011 35.0985 59.208 35.4545C59.0148 35.8106 58.9182 36.2424 58.9182 36.75ZM67.4776 30.3636V42H66.1366V30.3636H67.4776ZM72.679 42.1818C71.8911 42.1818 71.1998 41.9943 70.6051 41.6193C70.0142 41.2443 69.5521 40.7197 69.2188 40.0455C68.8892 39.3712 68.7244 38.5833 68.7244 37.6818C68.7244 36.7727 68.8892 35.9792 69.2188 35.3011C69.5521 34.6231 70.0142 34.0966 70.6051 33.7216C71.1998 33.3466 71.8911 33.1591 72.679 33.1591C73.4669 33.1591 74.1563 33.3466 74.7472 33.7216C75.3419 34.0966 75.804 34.6231 76.1335 35.3011C76.4669 35.9792 76.6335 36.7727 76.6335 37.6818C76.6335 38.5833 76.4669 39.3712 76.1335 40.0455C75.804 40.7197 75.3419 41.2443 74.7472 41.6193C74.1563 41.9943 73.4669 42.1818 72.679 42.1818ZM72.679 40.9773C73.2775 40.9773 73.7699 40.8239 74.1562 40.517C74.5426 40.2102 74.8286 39.8068 75.0142 39.3068C75.1998 38.8068 75.2926 38.2652 75.2926 37.6818C75.2926 37.0985 75.1998 36.5549 75.0142 36.0511C74.8286 35.5473 74.5426 35.1402 74.1562 34.8295C73.7699 34.5189 73.2775 34.3636 72.679 34.3636C72.0805 34.3636 71.5881 34.5189 71.2017 34.8295C70.8153 35.1402 70.5294 35.5473 70.3438 36.0511C70.1581 36.5549 70.0653 37.0985 70.0653 37.6818C70.0653 38.2652 70.1581 38.8068 70.3438 39.3068C70.5294 39.8068 70.8153 40.2102 71.2017 40.517C71.5881 40.8239 72.0805 40.9773 72.679 40.9773ZM80.4486 42.2045C79.8956 42.2045 79.3937 42.1004 78.9429 41.892C78.4921 41.6799 78.1342 41.375 77.869 40.9773C77.6039 40.5758 77.4713 40.0909 77.4713 39.5227C77.4713 39.0227 77.5698 38.6174 77.7668 38.3068C77.9637 37.9924 78.227 37.7462 78.5565 37.5682C78.8861 37.3902 79.2497 37.2576 79.6474 37.1705C80.049 37.0795 80.4524 37.0076 80.8577 36.9545C81.388 36.8864 81.8179 36.8352 82.1474 36.8011C82.4808 36.7633 82.7232 36.7008 82.8747 36.6136C83.03 36.5265 83.1077 36.375 83.1077 36.1591V36.1136C83.1077 35.553 82.9543 35.1174 82.6474 34.8068C82.3444 34.4962 81.8842 34.3409 81.2668 34.3409C80.6266 34.3409 80.1247 34.4811 79.7611 34.7614C79.3974 35.0417 79.1418 35.3409 78.994 35.6591L77.7213 35.2045C77.9486 34.6742 78.2516 34.2614 78.6304 33.9659C79.013 33.6667 79.4296 33.4583 79.8804 33.3409C80.3349 33.2197 80.7819 33.1591 81.2213 33.1591C81.5016 33.1591 81.8236 33.1932 82.1872 33.2614C82.5546 33.3258 82.9088 33.4602 83.2497 33.6648C83.5944 33.8693 83.8804 34.178 84.1077 34.5909C84.3349 35.0038 84.4486 35.5568 84.4486 36.25V42H83.1077V40.8182H83.0395C82.9486 41.0076 82.7971 41.2102 82.5849 41.4261C82.3728 41.642 82.0906 41.8258 81.7384 41.9773C81.3861 42.1288 80.9562 42.2045 80.4486 42.2045ZM80.6531 41C81.1834 41 81.6304 40.8958 81.994 40.6875C82.3615 40.4792 82.638 40.2102 82.8236 39.8807C83.013 39.5511 83.1077 39.2045 83.1077 38.8409V37.6136C83.0509 37.6818 82.9259 37.7443 82.7327 37.8011C82.5433 37.8542 82.3236 37.9015 82.0736 37.9432C81.8274 37.9811 81.5868 38.0152 81.352 38.0455C81.1209 38.072 80.9334 38.0947 80.7895 38.1136C80.441 38.1591 80.1152 38.233 79.8122 38.3352C79.513 38.4337 79.2706 38.5833 79.0849 38.7841C78.9031 38.9811 78.8122 39.25 78.8122 39.5909C78.8122 40.0568 78.9846 40.4091 79.3293 40.6477C79.6777 40.8826 80.119 41 80.6531 41ZM89.3915 42.1818C88.6642 42.1818 88.0222 41.9981 87.4653 41.6307C86.9085 41.2595 86.4729 40.7367 86.1585 40.0625C85.8441 39.3845 85.6869 38.5833 85.6869 37.6591C85.6869 36.7424 85.8441 35.947 86.1585 35.2727C86.4729 34.5985 86.9104 34.0777 87.471 33.7102C88.0316 33.3428 88.6794 33.1591 89.4142 33.1591C89.9824 33.1591 90.4313 33.2538 90.7608 33.4432C91.0941 33.6288 91.3479 33.8409 91.5222 34.0795C91.7002 34.3144 91.8384 34.5076 91.9369 34.6591H92.0506V30.3636H93.3915V42H92.096V40.6591H91.9369C91.8384 40.8182 91.6983 41.0189 91.5165 41.2614C91.3347 41.5 91.0752 41.714 90.7381 41.9034C90.4009 42.089 89.9521 42.1818 89.3915 42.1818ZM89.5733 40.9773C90.1112 40.9773 90.5657 40.8371 90.9369 40.5568C91.3081 40.2727 91.5903 39.8807 91.7835 39.3807C91.9767 38.8769 92.0733 38.2955 92.0733 37.6364C92.0733 36.9848 91.9786 36.4148 91.7892 35.9261C91.5998 35.4337 91.3195 35.0511 90.9483 34.7784C90.5771 34.5019 90.1188 34.3636 89.5733 34.3636C89.0051 34.3636 88.5316 34.5095 88.1528 34.8011C87.7778 35.089 87.4956 35.4811 87.3063 35.9773C87.1206 36.4697 87.0278 37.0227 87.0278 37.6364C87.0278 38.2576 87.1225 38.822 87.3119 39.3295C87.5051 39.8333 87.7892 40.2348 88.1642 40.5341C88.543 40.8295 89.0127 40.9773 89.5733 40.9773Z" fill="#303030"/>
<mask id="mask0_144_1298" style="mask-type:alpha" maskUnits="userSpaceOnUse" x="136" y="26" width="80" height="20">
<rect x="136" y="26" width="80" height="20" fill="#D9D9D9"/>
</mask>
<g mask="url(#mask0_144_1298)">
<path d="M147 29H143.409V17.3636H147.159C148.288 17.3636 149.254 17.5966 150.057 18.0625C150.86 18.5246 151.475 19.1894 151.903 20.0568C152.331 20.9205 152.545 21.9545 152.545 23.1591C152.545 24.3712 152.33 25.4148 151.898 26.2898C151.466 27.161 150.837 27.8314 150.011 28.3011C149.186 28.767 148.182 29 147 29ZM144.818 27.75H146.909C147.871 27.75 148.669 27.5644 149.301 27.1932C149.934 26.822 150.405 26.2936 150.716 25.608C151.027 24.9223 151.182 24.1061 151.182 23.1591C151.182 22.2197 151.028 21.411 150.722 20.733C150.415 20.0511 149.956 19.5284 149.347 19.1648C148.737 18.7973 147.977 18.6136 147.068 18.6136H144.818V27.75ZM157.473 29.1818C156.685 29.1818 155.994 28.9943 155.399 28.6193C154.808 28.2443 154.346 27.7197 154.012 27.0455C153.683 26.3712 153.518 25.5833 153.518 24.6818C153.518 23.7727 153.683 22.9792 154.012 22.3011C154.346 21.6231 154.808 21.0966 155.399 20.7216C155.994 20.3466 156.685 20.1591 157.473 20.1591C158.261 20.1591 158.95 20.3466 159.541 20.7216C160.136 21.0966 160.598 21.6231 160.927 22.3011C161.261 22.9792 161.427 23.7727 161.427 24.6818C161.427 25.5833 161.261 26.3712 160.927 27.0455C160.598 27.7197 160.136 28.2443 159.541 28.6193C158.95 28.9943 158.261 29.1818 157.473 29.1818ZM157.473 27.9773C158.071 27.9773 158.564 27.8239 158.95 27.517C159.336 27.2102 159.622 26.8068 159.808 26.3068C159.994 25.8068 160.086 25.2652 160.086 24.6818C160.086 24.0985 159.994 23.5549 159.808 23.0511C159.622 22.5473 159.336 22.1402 158.95 21.8295C158.564 21.5189 158.071 21.3636 157.473 21.3636C156.874 21.3636 156.382 21.5189 155.995 21.8295C155.609 22.1402 155.323 22.5473 155.137 23.0511C154.952 23.5549 154.859 24.0985 154.859 24.6818C154.859 25.2652 154.952 25.8068 155.137 26.3068C155.323 26.8068 155.609 27.2102 155.995 27.517C156.382 27.8239 156.874 27.9773 157.473 27.9773ZM164.355 29L161.695 20.2727H163.105L164.991 26.9545H165.082L166.945 20.2727H168.377L170.218 26.9318H170.309L172.195 20.2727H173.605L170.945 29H169.627L167.718 22.2955H167.582L165.673 29H164.355ZM175.918 23.75V29H174.577V20.2727H175.873V21.6364H175.986C176.191 21.1932 176.502 20.8371 176.918 20.5682C177.335 20.2955 177.873 20.1591 178.532 20.1591C179.123 20.1591 179.64 20.2803 180.083 20.5227C180.526 20.7614 180.871 21.125 181.117 21.6136C181.363 22.0985 181.486 22.7121 181.486 23.4545V29H180.145V23.5455C180.145 22.8598 179.967 22.3258 179.611 21.9432C179.255 21.5568 178.767 21.3636 178.145 21.3636C177.717 21.3636 177.335 21.4564 176.998 21.642C176.664 21.8277 176.401 22.0985 176.208 22.4545C176.015 22.8106 175.918 23.2424 175.918 23.75ZM184.478 17.3636V29H183.137V17.3636H184.478ZM189.679 29.1818C188.891 29.1818 188.2 28.9943 187.605 28.6193C187.014 28.2443 186.552 27.7197 186.219 27.0455C185.889 26.3712 185.724 25.5833 185.724 24.6818C185.724 23.7727 185.889 22.9792 186.219 22.3011C186.552 21.6231 187.014 21.0966 187.605 20.7216C188.2 20.3466 188.891 20.1591 189.679 20.1591C190.467 20.1591 191.156 20.3466 191.747 20.7216C192.342 21.0966 192.804 21.6231 193.134 22.3011C193.467 22.9792 193.634 23.7727 193.634 24.6818C193.634 25.5833 193.467 26.3712 193.134 27.0455C192.804 27.7197 192.342 28.2443 191.747 28.6193C191.156 28.9943 190.467 29.1818 189.679 29.1818ZM189.679 27.9773C190.277 27.9773 190.77 27.8239 191.156 27.517C191.543 27.2102 191.829 26.8068 192.014 26.3068C192.2 25.8068 192.293 25.2652 192.293 24.6818C192.293 24.0985 192.2 23.5549 192.014 23.0511C191.829 22.5473 191.543 22.1402 191.156 21.8295C190.77 21.5189 190.277 21.3636 189.679 21.3636C189.08 21.3636 188.588 21.5189 188.202 21.8295C187.815 22.1402 187.529 22.5473 187.344 23.0511C187.158 23.5549 187.065 24.0985 187.065 24.6818C187.065 25.2652 187.158 25.8068 187.344 26.3068C187.529 26.8068 187.815 27.2102 188.202 27.517C188.588 27.8239 189.08 27.9773 189.679 27.9773ZM197.449 29.2045C196.896 29.2045 196.394 29.1004 195.943 28.892C195.492 28.6799 195.134 28.375 194.869 27.9773C194.604 27.5758 194.471 27.0909 194.471 26.5227C194.471 26.0227 194.57 25.6174 194.767 25.3068C194.964 24.9924 195.227 24.7462 195.557 24.5682C195.886 24.3902 196.25 24.2576 196.647 24.1705C197.049 24.0795 197.452 24.0076 197.858 23.9545C198.388 23.8864 198.818 23.8352 199.147 23.8011C199.481 23.7633 199.723 23.7008 199.875 23.6136C200.03 23.5265 200.108 23.375 200.108 23.1591V23.1136C200.108 22.553 199.954 22.1174 199.647 21.8068C199.344 21.4962 198.884 21.3409 198.267 21.3409C197.627 21.3409 197.125 21.4811 196.761 21.7614C196.397 22.0417 196.142 22.3409 195.994 22.6591L194.721 22.2045C194.949 21.6742 195.252 21.2614 195.63 20.9659C196.013 20.6667 196.43 20.4583 196.88 20.3409C197.335 20.2197 197.782 20.1591 198.221 20.1591C198.502 20.1591 198.824 20.1932 199.187 20.2614C199.555 20.3258 199.909 20.4602 200.25 20.6648C200.594 20.8693 200.88 21.178 201.108 21.5909C201.335 22.0038 201.449 22.5568 201.449 23.25V29H200.108V27.8182H200.039C199.949 28.0076 199.797 28.2102 199.585 28.4261C199.373 28.642 199.091 28.8258 198.738 28.9773C198.386 29.1288 197.956 29.2045 197.449 29.2045ZM197.653 28C198.183 28 198.63 27.8958 198.994 27.6875C199.361 27.4792 199.638 27.2102 199.824 26.8807C200.013 26.5511 200.108 26.2045 200.108 25.8409V24.6136C200.051 24.6818 199.926 24.7443 199.733 24.8011C199.543 24.8542 199.324 24.9015 199.074 24.9432C198.827 24.9811 198.587 25.0152 198.352 25.0455C198.121 25.072 197.933 25.0947 197.789 25.1136C197.441 25.1591 197.115 25.233 196.812 25.3352C196.513 25.4337 196.271 25.5833 196.085 25.7841C195.903 25.9811 195.812 26.25 195.812 26.5909C195.812 27.0568 195.985 27.4091 196.329 27.6477C196.678 27.8826 197.119 28 197.653 28ZM206.391 29.1818C205.664 29.1818 205.022 28.9981 204.465 28.6307C203.909 28.2595 203.473 27.7367 203.159 27.0625C202.844 26.3845 202.687 25.5833 202.687 24.6591C202.687 23.7424 202.844 22.947 203.159 22.2727C203.473 21.5985 203.91 21.0777 204.471 20.7102C205.032 20.3428 205.679 20.1591 206.414 20.1591C206.982 20.1591 207.431 20.2538 207.761 20.4432C208.094 20.6288 208.348 20.8409 208.522 21.0795C208.7 21.3144 208.838 21.5076 208.937 21.6591H209.051V17.3636H210.391V29H209.096V27.6591H208.937C208.838 27.8182 208.698 28.0189 208.516 28.2614C208.335 28.5 208.075 28.714 207.738 28.9034C207.401 29.089 206.952 29.1818 206.391 29.1818ZM206.573 27.9773C207.111 27.9773 207.566 27.8371 207.937 27.5568C208.308 27.2727 208.59 26.8807 208.784 26.3807C208.977 25.8769 209.073 25.2955 209.073 24.6364C209.073 23.9848 208.979 23.4148 208.789 22.9261C208.6 22.4337 208.32 22.0511 207.948 21.7784C207.577 21.5019 207.119 21.3636 206.573 21.3636C206.005 21.3636 205.532 21.5095 205.153 21.8011C204.778 22.089 204.496 22.4811 204.306 22.9773C204.121 23.4697 204.028 24.0227 204.028 24.6364C204.028 25.2576 204.123 25.822 204.312 26.3295C204.505 26.8333 204.789 27.2348 205.164 27.5341C205.543 27.8295 206.013 27.9773 206.573 27.9773Z" fill="#303030"/>
<path d="M147 48H143.409V36.3636H147.159C148.288 36.3636 149.254 36.5966 150.057 37.0625C150.86 37.5246 151.475 38.1894 151.903 39.0568C152.331 39.9205 152.545 40.9545 152.545 42.1591C152.545 43.3712 152.33 44.4148 151.898 45.2898C151.466 46.161 150.837 46.8314 150.011 47.3011C149.186 47.767 148.182 48 147 48ZM144.818 46.75H146.909C147.871 46.75 148.669 46.5644 149.301 46.1932C149.934 45.822 150.405 45.2936 150.716 44.608C151.027 43.9223 151.182 43.1061 151.182 42.1591C151.182 41.2197 151.028 40.411 150.722 39.733C150.415 39.0511 149.956 38.5284 149.347 38.1648C148.737 37.7973 147.977 37.6136 147.068 37.6136H144.818V46.75ZM157.473 48.1818C156.685 48.1818 155.994 47.9943 155.399 47.6193C154.808 47.2443 154.346 46.7197 154.012 46.0455C153.683 45.3712 153.518 44.5833 153.518 43.6818C153.518 42.7727 153.683 41.9792 154.012 41.3011C154.346 40.6231 154.808 40.0966 155.399 39.7216C155.994 39.3466 156.685 39.1591 157.473 39.1591C158.261 39.1591 158.95 39.3466 159.541 39.7216C160.136 40.0966 160.598 40.6231 160.927 41.3011C161.261 41.9792 161.427 42.7727 161.427 43.6818C161.427 44.5833 161.261 45.3712 160.927 46.0455C160.598 46.7197 160.136 47.2443 159.541 47.6193C158.95 47.9943 158.261 48.1818 157.473 48.1818ZM157.473 46.9773C158.071 46.9773 158.564 46.8239 158.95 46.517C159.336 46.2102 159.622 45.8068 159.808 45.3068C159.994 44.8068 160.086 44.2652 160.086 43.6818C160.086 43.0985 159.994 42.5549 159.808 42.0511C159.622 41.5473 159.336 41.1402 158.95 40.8295C158.564 40.5189 158.071 40.3636 157.473 40.3636C156.874 40.3636 156.382 40.5189 155.995 40.8295C155.609 41.1402 155.323 41.5473 155.137 42.0511C154.952 42.5549 154.859 43.0985 154.859 43.6818C154.859 44.2652 154.952 44.8068 155.137 45.3068C155.323 45.8068 155.609 46.2102 155.995 46.517C156.382 46.8239 156.874 46.9773 157.473 46.9773ZM164.355 48L161.695 39.2727H163.105L164.991 45.9545H165.082L166.945 39.2727H168.377L170.218 45.9318H170.309L172.195 39.2727H173.605L170.945 48H169.627L167.718 41.2955H167.582L165.673 48H164.355ZM175.918 42.75V48H174.577V39.2727H175.873V40.6364H175.986C176.191 40.1932 176.502 39.8371 176.918 39.5682C177.335 39.2955 177.873 39.1591 178.532 39.1591C179.123 39.1591 179.64 39.2803 180.083 39.5227C180.526 39.7614 180.871 40.125 181.117 40.6136C181.363 41.0985 181.486 41.7121 181.486 42.4545V48H180.145V42.5455C180.145 41.8598 179.967 41.3258 179.611 40.9432C179.255 40.5568 178.767 40.3636 178.145 40.3636C177.717 40.3636 177.335 40.4564 176.998 40.642C176.664 40.8277 176.401 41.0985 176.208 41.4545C176.015 41.8106 175.918 42.2424 175.918 42.75ZM184.478 36.3636V48H183.137V36.3636H184.478ZM189.679 48.1818C188.891 48.1818 188.2 47.9943 187.605 47.6193C187.014 47.2443 186.552 46.7197 186.219 46.0455C185.889 45.3712 185.724 44.5833 185.724 43.6818C185.724 42.7727 185.889 41.9792 186.219 41.3011C186.552 40.6231 187.014 40.0966 187.605 39.7216C188.2 39.3466 188.891 39.1591 189.679 39.1591C190.467 39.1591 191.156 39.3466 191.747 39.7216C192.342 40.0966 192.804 40.6231 193.134 41.3011C193.467 41.9792 193.634 42.7727 193.634 43.6818C193.634 44.5833 193.467 45.3712 193.134 46.0455C192.804 46.7197 192.342 47.2443 191.747 47.6193C191.156 47.9943 190.467 48.1818 189.679 48.1818ZM189.679 46.9773C190.277 46.9773 190.77 46.8239 191.156 46.517C191.543 46.2102 191.829 45.8068 192.014 45.3068C192.2 44.8068 192.293 44.2652 192.293 43.6818C192.293 43.0985 192.2 42.5549 192.014 42.0511C191.829 41.5473 191.543 41.1402 191.156 40.8295C190.77 40.5189 190.277 40.3636 189.679 40.3636C189.08 40.3636 188.588 40.5189 188.202 40.8295C187.815 41.1402 187.529 41.5473 187.344 42.0511C187.158 42.5549 187.065 43.0985 187.065 43.6818C187.065 44.2652 187.158 44.8068 187.344 45.3068C187.529 45.8068 187.815 46.2102 188.202 46.517C188.588 46.8239 189.08 46.9773 189.679 46.9773ZM197.449 48.2045C196.896 48.2045 196.394 48.1004 195.943 47.892C195.492 47.6799 195.134 47.375 194.869 46.9773C194.604 46.5758 194.471 46.0909 194.471 45.5227C194.471 45.0227 194.57 44.6174 194.767 44.3068C194.964 43.9924 195.227 43.7462 195.557 43.5682C195.886 43.3902 196.25 43.2576 196.647 43.1705C197.049 43.0795 197.452 43.0076 197.858 42.9545C198.388 42.8864 198.818 42.8352 199.147 42.8011C199.481 42.7633 199.723 42.7008 199.875 42.6136C200.03 42.5265 200.108 42.375 200.108 42.1591V42.1136C200.108 41.553 199.954 41.1174 199.647 40.8068C199.344 40.4962 198.884 40.3409 198.267 40.3409C197.627 40.3409 197.125 40.4811 196.761 40.7614C196.397 41.0417 196.142 41.3409 195.994 41.6591L194.721 41.2045C194.949 40.6742 195.252 40.2614 195.63 39.9659C196.013 39.6667 196.43 39.4583 196.88 39.3409C197.335 39.2197 197.782 39.1591 198.221 39.1591C198.502 39.1591 198.824 39.1932 199.187 39.2614C199.555 39.3258 199.909 39.4602 200.25 39.6648C200.594 39.8693 200.88 40.178 201.108 40.5909C201.335 41.0038 201.449 41.5568 201.449 42.25V48H200.108V46.8182H200.039C199.949 47.0076 199.797 47.2102 199.585 47.4261C199.373 47.642 199.091 47.8258 198.738 47.9773C198.386 48.1288 197.956 48.2045 197.449 48.2045ZM197.653 47C198.183 47 198.63 46.8958 198.994 46.6875C199.361 46.4792 199.638 46.2102 199.824 45.8807C200.013 45.5511 200.108 45.2045 200.108 44.8409V43.6136C200.051 43.6818 199.926 43.7443 199.733 43.8011C199.543 43.8542 199.324 43.9015 199.074 43.9432C198.827 43.9811 198.587 44.0152 198.352 44.0455C198.121 44.072 197.933 44.0947 197.789 44.1136C197.441 44.1591 197.115 44.233 196.812 44.3352C196.513 44.4337 196.271 44.5833 196.085 44.7841C195.903 44.9811 195.812 45.25 195.812 45.5909C195.812 46.0568 195.985 46.4091 196.329 46.6477C196.678 46.8826 197.119 47 197.653 47ZM206.391 48.1818C205.664 48.1818 205.022 47.9981 204.465 47.6307C203.909 47.2595 203.473 46.7367 203.159 46.0625C202.844 45.3845 202.687 44.5833 202.687 43.6591C202.687 42.7424 202.844 41.947 203.159 41.2727C203.473 40.5985 203.91 40.0777 204.471 39.7102C205.032 39.3428 205.679 39.1591 206.414 39.1591C206.982 39.1591 207.431 39.2538 207.761 39.4432C208.094 39.6288 208.348 39.8409 208.522 40.0795C208.7 40.3144 208.838 40.5076 208.937 40.6591H209.051V36.3636H210.391V48H209.096V46.6591H208.937C208.838 46.8182 208.698 47.0189 208.516 47.2614C208.335 47.5 208.075 47.714 207.738 47.9034C207.401 48.089 206.952 48.1818 206.391 48.1818ZM206.573 46.9773C207.111 46.9773 207.566 46.8371 207.937 46.5568C208.308 46.2727 208.59 45.8807 208.784 45.3807C208.977 44.8769 209.073 44.2955 209.073 43.6364C209.073 42.9848 208.979 42.4148 208.789 41.9261C208.6 41.4337 208.32 41.0511 207.948 40.7784C207.577 40.5019 207.119 40.3636 206.573 40.3636C206.005 40.3636 205.532 40.5095 205.153 40.8011C204.778 41.089 204.496 41.4811 204.306 41.9773C204.121 42.4697 204.028 43.0227 204.028 43.6364C204.028 44.2576 204.123 44.822 204.312 45.3295C204.505 45.8333 204.789 46.2348 205.164 46.5341C205.543 46.8295 206.013 46.9773 206.573 46.9773Z" fill="#567FEF"/>
</g>
<rect x="0.5" y="0.5" width="357" height="70" rx="7.5" stroke="white" stroke-opacity="0.1"/>
</svg>
