<svg width="394" height="160" viewBox="0 0 394 160" fill="none" xmlns="http://www.w3.org/2000/svg">
<rect width="394" height="160" rx="8" fill="#F0F0F0"/>
<rect x="26" y="25" width="100" height="38" rx="7" fill="#FEFEFE"/>
<path d="M46.0969 49H42.506V37.3636H46.256C47.3848 37.3636 48.3507 37.5966 49.1537 38.0625C49.9567 38.5246 50.5723 39.1894 51.0003 40.0568C51.4283 40.9205 51.6423 41.9545 51.6423 43.1591C51.6423 44.3712 51.4264 45.4148 50.9946 46.2898C50.5628 47.161 49.934 47.8314 49.1082 48.3011C48.2825 48.767 47.2787 49 46.0969 49ZM43.9151 47.75H46.006C46.9681 47.75 47.7654 47.5644 48.398 47.1932C49.0306 46.822 49.5022 46.2936 49.8128 45.608C50.1234 44.9223 50.2787 44.1061 50.2787 43.1591C50.2787 42.2197 50.1253 41.411 49.8185 40.733C49.5116 40.0511 49.0533 39.5284 48.4435 39.1648C47.8336 38.7973 47.0741 38.6136 46.1651 38.6136H43.9151V47.75ZM56.5696 49.1818C55.7817 49.1818 55.0904 48.9943 54.4957 48.6193C53.9048 48.2443 53.4427 47.7197 53.1094 47.0455C52.7798 46.3712 52.6151 45.5833 52.6151 44.6818C52.6151 43.7727 52.7798 42.9792 53.1094 42.3011C53.4427 41.6231 53.9048 41.0966 54.4957 40.7216C55.0904 40.3466 55.7817 40.1591 56.5696 40.1591C57.3575 40.1591 58.0469 40.3466 58.6378 40.7216C59.2325 41.0966 59.6946 41.6231 60.0241 42.3011C60.3575 42.9792 60.5241 43.7727 60.5241 44.6818C60.5241 45.5833 60.3575 46.3712 60.0241 47.0455C59.6946 47.7197 59.2325 48.2443 58.6378 48.6193C58.0469 48.9943 57.3575 49.1818 56.5696 49.1818ZM56.5696 47.9773C57.1681 47.9773 57.6605 47.8239 58.0469 47.517C58.4332 47.2102 58.7192 46.8068 58.9048 46.3068C59.0904 45.8068 59.1832 45.2652 59.1832 44.6818C59.1832 44.0985 59.0904 43.5549 58.9048 43.0511C58.7192 42.5473 58.4332 42.1402 58.0469 41.8295C57.6605 41.5189 57.1681 41.3636 56.5696 41.3636C55.9711 41.3636 55.4787 41.5189 55.0923 41.8295C54.706 42.1402 54.42 42.5473 54.2344 43.0511C54.0488 43.5549 53.956 44.0985 53.956 44.6818C53.956 45.2652 54.0488 45.8068 54.2344 46.3068C54.42 46.8068 54.706 47.2102 55.0923 47.517C55.4787 47.8239 55.9711 47.9773 56.5696 47.9773ZM63.4514 49L60.7923 40.2727H62.2014L64.0878 46.9545H64.1787L66.0423 40.2727H67.4741L69.3151 46.9318H69.406L71.2923 40.2727H72.7014L70.0423 49H68.7241L66.8151 42.2955H66.6787L64.7696 49H63.4514ZM75.0151 43.75V49H73.6741V40.2727H74.9696V41.6364H75.0832C75.2878 41.1932 75.5984 40.8371 76.0151 40.5682C76.4317 40.2955 76.9696 40.1591 77.6287 40.1591C78.2196 40.1591 78.7366 40.2803 79.1798 40.5227C79.623 40.7614 79.9677 41.125 80.2139 41.6136C80.4601 42.0985 80.5832 42.7121 80.5832 43.4545V49H79.2423V43.5455C79.2423 42.8598 79.0643 42.3258 78.7082 41.9432C78.3522 41.5568 77.8635 41.3636 77.2423 41.3636C76.8143 41.3636 76.4317 41.4564 76.0946 41.642C75.7613 41.8277 75.498 42.0985 75.3048 42.4545C75.1116 42.8106 75.0151 43.2424 75.0151 43.75ZM83.5744 37.3636V49H82.2335V37.3636H83.5744ZM88.7759 49.1818C87.988 49.1818 87.2967 48.9943 86.702 48.6193C86.1111 48.2443 85.649 47.7197 85.3156 47.0455C84.9861 46.3712 84.8213 45.5833 84.8213 44.6818C84.8213 43.7727 84.9861 42.9792 85.3156 42.3011C85.649 41.6231 86.1111 41.0966 86.702 40.7216C87.2967 40.3466 87.988 40.1591 88.7759 40.1591C89.5637 40.1591 90.2531 40.3466 90.844 40.7216C91.4387 41.0966 91.9009 41.6231 92.2304 42.3011C92.5637 42.9792 92.7304 43.7727 92.7304 44.6818C92.7304 45.5833 92.5637 46.3712 92.2304 47.0455C91.9009 47.7197 91.4387 48.2443 90.844 48.6193C90.2531 48.9943 89.5637 49.1818 88.7759 49.1818ZM88.7759 47.9773C89.3743 47.9773 89.8668 47.8239 90.2531 47.517C90.6395 47.2102 90.9255 46.8068 91.1111 46.3068C91.2967 45.8068 91.3895 45.2652 91.3895 44.6818C91.3895 44.0985 91.2967 43.5549 91.1111 43.0511C90.9255 42.5473 90.6395 42.1402 90.2531 41.8295C89.8668 41.5189 89.3743 41.3636 88.7759 41.3636C88.1774 41.3636 87.6849 41.5189 87.2986 41.8295C86.9122 42.1402 86.6262 42.5473 86.4406 43.0511C86.255 43.5549 86.1622 44.0985 86.1622 44.6818C86.1622 45.2652 86.255 45.8068 86.4406 46.3068C86.6262 46.8068 86.9122 47.2102 87.2986 47.517C87.6849 47.8239 88.1774 47.9773 88.7759 47.9773ZM96.5455 49.2045C95.9924 49.2045 95.4905 49.1004 95.0398 48.892C94.589 48.6799 94.2311 48.375 93.9659 47.9773C93.7008 47.5758 93.5682 47.0909 93.5682 46.5227C93.5682 46.0227 93.6667 45.6174 93.8636 45.3068C94.0606 44.9924 94.3239 44.7462 94.6534 44.5682C94.983 44.3902 95.3466 44.2576 95.7443 44.1705C96.1458 44.0795 96.5492 44.0076 96.9545 43.9545C97.4848 43.8864 97.9148 43.8352 98.2443 43.8011C98.5777 43.7633 98.8201 43.7008 98.9716 43.6136C99.1269 43.5265 99.2045 43.375 99.2045 43.1591V43.1136C99.2045 42.553 99.0511 42.1174 98.7443 41.8068C98.4413 41.4962 97.9811 41.3409 97.3636 41.3409C96.7235 41.3409 96.2216 41.4811 95.858 41.7614C95.4943 42.0417 95.2386 42.3409 95.0909 42.6591L93.8182 42.2045C94.0455 41.6742 94.3485 41.2614 94.7273 40.9659C95.1098 40.6667 95.5265 40.4583 95.9773 40.3409C96.4318 40.2197 96.8788 40.1591 97.3182 40.1591C97.5985 40.1591 97.9205 40.1932 98.2841 40.2614C98.6515 40.3258 99.0057 40.4602 99.3466 40.6648C99.6913 40.8693 99.9773 41.178 100.205 41.5909C100.432 42.0038 100.545 42.5568 100.545 43.25V49H99.2045V47.8182H99.1364C99.0455 48.0076 98.8939 48.2102 98.6818 48.4261C98.4697 48.642 98.1875 48.8258 97.8352 48.9773C97.483 49.1288 97.053 49.2045 96.5455 49.2045ZM96.75 48C97.2803 48 97.7273 47.8958 98.0909 47.6875C98.4583 47.4792 98.7348 47.2102 98.9205 46.8807C99.1098 46.5511 99.2045 46.2045 99.2045 45.8409V44.6136C99.1477 44.6818 99.0227 44.7443 98.8295 44.8011C98.6402 44.8542 98.4205 44.9015 98.1705 44.9432C97.9242 44.9811 97.6837 45.0152 97.4489 45.0455C97.2178 45.072 97.0303 45.0947 96.8864 45.1136C96.5379 45.1591 96.2121 45.233 95.9091 45.3352C95.6098 45.4337 95.3674 45.5833 95.1818 45.7841C95 45.9811 94.9091 46.25 94.9091 46.5909C94.9091 47.0568 95.0814 47.4091 95.4261 47.6477C95.7746 47.8826 96.2159 48 96.75 48ZM105.488 49.1818C104.761 49.1818 104.119 48.9981 103.562 48.6307C103.005 48.2595 102.57 47.7367 102.255 47.0625C101.941 46.3845 101.784 45.5833 101.784 44.6591C101.784 43.7424 101.941 42.947 102.255 42.2727C102.57 41.5985 103.007 41.0777 103.568 40.7102C104.129 40.3428 104.776 40.1591 105.511 40.1591C106.079 40.1591 106.528 40.2538 106.858 40.4432C107.191 40.6288 107.445 40.8409 107.619 41.0795C107.797 41.3144 107.935 41.5076 108.034 41.6591H108.147V37.3636H109.488V49H108.193V47.6591H108.034C107.935 47.8182 107.795 48.0189 107.613 48.2614C107.432 48.5 107.172 48.714 106.835 48.9034C106.498 49.089 106.049 49.1818 105.488 49.1818ZM105.67 47.9773C106.208 47.9773 106.663 47.8371 107.034 47.5568C107.405 47.2727 107.687 46.8807 107.88 46.3807C108.074 45.8769 108.17 45.2955 108.17 44.6364C108.17 43.9848 108.075 43.4148 107.886 42.9261C107.697 42.4337 107.416 42.0511 107.045 41.7784C106.674 41.5019 106.216 41.3636 105.67 41.3636C105.102 41.3636 104.629 41.5095 104.25 41.8011C103.875 42.089 103.593 42.4811 103.403 42.9773C103.218 43.4697 103.125 44.0227 103.125 44.6364C103.125 45.2576 103.219 45.822 103.409 46.3295C103.602 46.8333 103.886 47.2348 104.261 47.5341C104.64 47.8295 105.11 47.9773 105.67 47.9773Z" fill="#567FEF"/>
<rect x="26" y="25" width="100" height="38" rx="7" stroke="#567FEF" stroke-width="2"/>
<path d="M175.041 40.2727C174.973 39.697 174.697 39.25 174.212 38.9318C173.727 38.6136 173.132 38.4545 172.428 38.4545C171.913 38.4545 171.462 38.5379 171.076 38.7045C170.693 38.8712 170.394 39.1004 170.178 39.392C169.966 39.6837 169.86 40.0152 169.86 40.3864C169.86 40.697 169.934 40.964 170.081 41.1875C170.233 41.4072 170.426 41.5909 170.661 41.7386C170.896 41.8826 171.142 42.0019 171.399 42.0966C171.657 42.1875 171.894 42.2614 172.11 42.3182L173.291 42.6364C173.595 42.7159 173.932 42.8258 174.303 42.9659C174.678 43.1061 175.036 43.2973 175.377 43.5398C175.721 43.7784 176.005 44.0852 176.229 44.4602C176.452 44.8352 176.564 45.2955 176.564 45.8409C176.564 46.4697 176.399 47.0379 176.07 47.5455C175.744 48.053 175.267 48.4564 174.638 48.7557C174.013 49.0549 173.254 49.2045 172.36 49.2045C171.526 49.2045 170.805 49.0701 170.195 48.8011C169.589 48.5322 169.112 48.1572 168.763 47.6761C168.418 47.1951 168.223 46.6364 168.178 46H169.632C169.67 46.4394 169.818 46.803 170.076 47.0909C170.337 47.375 170.666 47.5871 171.064 47.7273C171.466 47.8636 171.898 47.9318 172.36 47.9318C172.898 47.9318 173.38 47.8447 173.809 47.6705C174.237 47.4924 174.576 47.2462 174.826 46.9318C175.076 46.6136 175.201 46.2424 175.201 45.8182C175.201 45.4318 175.093 45.1174 174.877 44.875C174.661 44.6326 174.377 44.4356 174.024 44.2841C173.672 44.1326 173.291 44 172.882 43.8864L171.451 43.4773C170.541 43.2159 169.822 42.8428 169.291 42.358C168.761 41.8731 168.496 41.2386 168.496 40.4545C168.496 39.803 168.672 39.2348 169.024 38.75C169.38 38.2614 169.858 37.8826 170.456 37.6136C171.059 37.3409 171.731 37.2045 172.473 37.2045C173.223 37.2045 173.89 37.339 174.473 37.608C175.057 37.8731 175.519 38.2367 175.86 38.6989C176.204 39.161 176.386 39.6856 176.405 40.2727H175.041ZM179.24 43.75V49H177.899V37.3636H179.24V41.6364H179.354C179.558 41.1856 179.865 40.8277 180.274 40.5625C180.687 40.2936 181.236 40.1591 181.922 40.1591C182.517 40.1591 183.037 40.2784 183.484 40.517C183.931 40.7519 184.278 41.1136 184.524 41.6023C184.774 42.0871 184.899 42.7045 184.899 43.4545V49H183.558V43.5455C183.558 42.8523 183.378 42.3163 183.018 41.9375C182.662 41.5549 182.168 41.3636 181.536 41.3636C181.096 41.3636 180.702 41.4564 180.354 41.642C180.009 41.8277 179.736 42.0985 179.536 42.4545C179.339 42.8106 179.24 43.2424 179.24 43.75ZM190.098 49.1818C189.31 49.1818 188.619 48.9943 188.024 48.6193C187.433 48.2443 186.971 47.7197 186.637 47.0455C186.308 46.3712 186.143 45.5833 186.143 44.6818C186.143 43.7727 186.308 42.9792 186.637 42.3011C186.971 41.6231 187.433 41.0966 188.024 40.7216C188.619 40.3466 189.31 40.1591 190.098 40.1591C190.886 40.1591 191.575 40.3466 192.166 40.7216C192.761 41.0966 193.223 41.6231 193.552 42.3011C193.886 42.9792 194.052 43.7727 194.052 44.6818C194.052 45.5833 193.886 46.3712 193.552 47.0455C193.223 47.7197 192.761 48.2443 192.166 48.6193C191.575 48.9943 190.886 49.1818 190.098 49.1818ZM190.098 47.9773C190.696 47.9773 191.189 47.8239 191.575 47.517C191.961 47.2102 192.247 46.8068 192.433 46.3068C192.619 45.8068 192.711 45.2652 192.711 44.6818C192.711 44.0985 192.619 43.5549 192.433 43.0511C192.247 42.5473 191.961 42.1402 191.575 41.8295C191.189 41.5189 190.696 41.3636 190.098 41.3636C189.499 41.3636 189.007 41.5189 188.62 41.8295C188.234 42.1402 187.948 42.5473 187.762 43.0511C187.577 43.5549 187.484 44.0985 187.484 44.6818C187.484 45.2652 187.577 45.8068 187.762 46.3068C187.948 46.8068 188.234 47.2102 188.62 47.517C189.007 47.8239 189.499 47.9773 190.098 47.9773ZM195.299 52.2727V40.2727H196.595V41.6591H196.754C196.852 41.5076 196.989 41.3144 197.163 41.0795C197.341 40.8409 197.595 40.6288 197.924 40.4432C198.257 40.2538 198.708 40.1591 199.276 40.1591C200.011 40.1591 200.659 40.3428 201.22 40.7102C201.78 41.0777 202.218 41.5985 202.532 42.2727C202.846 42.947 203.004 43.7424 203.004 44.6591C203.004 45.5833 202.846 46.3845 202.532 47.0625C202.218 47.7367 201.782 48.2595 201.225 48.6307C200.668 48.9981 200.026 49.1818 199.299 49.1818C198.739 49.1818 198.29 49.089 197.953 48.9034C197.615 48.714 197.356 48.5 197.174 48.2614C196.992 48.0189 196.852 47.8182 196.754 47.6591H196.64V52.2727H195.299ZM196.617 44.6364C196.617 45.2955 196.714 45.8769 196.907 46.3807C197.1 46.8807 197.382 47.2727 197.754 47.5568C198.125 47.8371 198.579 47.9773 199.117 47.9773C199.678 47.9773 200.146 47.8295 200.521 47.5341C200.9 47.2348 201.184 46.8333 201.373 46.3295C201.566 45.822 201.663 45.2576 201.663 44.6364C201.663 44.0227 201.568 43.4697 201.379 42.9773C201.193 42.4811 200.911 42.089 200.532 41.8011C200.157 41.5095 199.686 41.3636 199.117 41.3636C198.572 41.3636 198.114 41.5019 197.742 41.7784C197.371 42.0511 197.091 42.4337 196.901 42.9261C196.712 43.4148 196.617 43.9848 196.617 44.6364ZM209.29 43.75V49H207.949V40.2727H209.245V41.6364H209.358C209.563 41.1932 209.873 40.8371 210.29 40.5682C210.707 40.2955 211.245 40.1591 211.904 40.1591C212.495 40.1591 213.012 40.2803 213.455 40.5227C213.898 40.7614 214.243 41.125 214.489 41.6136C214.735 42.0985 214.858 42.7121 214.858 43.4545V49H213.517V43.5455C213.517 42.8598 213.339 42.3258 212.983 41.9432C212.627 41.5568 212.139 41.3636 211.517 41.3636C211.089 41.3636 210.707 41.4564 210.37 41.642C210.036 41.8277 209.773 42.0985 209.58 42.4545C209.387 42.8106 209.29 43.2424 209.29 43.75ZM220.054 49.1818C219.266 49.1818 218.575 48.9943 217.98 48.6193C217.389 48.2443 216.927 47.7197 216.594 47.0455C216.264 46.3712 216.099 45.5833 216.099 44.6818C216.099 43.7727 216.264 42.9792 216.594 42.3011C216.927 41.6231 217.389 41.0966 217.98 40.7216C218.575 40.3466 219.266 40.1591 220.054 40.1591C220.842 40.1591 221.531 40.3466 222.122 40.7216C222.717 41.0966 223.179 41.6231 223.509 42.3011C223.842 42.9792 224.009 43.7727 224.009 44.6818C224.009 45.5833 223.842 46.3712 223.509 47.0455C223.179 47.7197 222.717 48.2443 222.122 48.6193C221.531 48.9943 220.842 49.1818 220.054 49.1818ZM220.054 47.9773C220.652 47.9773 221.145 47.8239 221.531 47.517C221.918 47.2102 222.204 46.8068 222.389 46.3068C222.575 45.8068 222.668 45.2652 222.668 44.6818C222.668 44.0985 222.575 43.5549 222.389 43.0511C222.204 42.5473 221.918 42.1402 221.531 41.8295C221.145 41.5189 220.652 41.3636 220.054 41.3636C219.455 41.3636 218.963 41.5189 218.577 41.8295C218.19 42.1402 217.904 42.5473 217.719 43.0511C217.533 43.5549 217.44 44.0985 217.44 44.6818C217.44 45.2652 217.533 45.8068 217.719 46.3068C217.904 46.8068 218.19 47.2102 218.577 47.517C218.963 47.8239 219.455 47.9773 220.054 47.9773ZM226.936 49L224.277 40.2727H225.686L227.572 46.9545H227.663L229.527 40.2727H230.959L232.799 46.9318H232.89L234.777 40.2727H236.186L233.527 49H232.209L230.299 42.2955H230.163L228.254 49H226.936Z" fill="#567FEF"/>
<rect x="152" y="25" width="100" height="38" rx="7" stroke="#567FEF" stroke-width="2"/>
<g filter="url(#filter0_d_13_47)">
<rect x="277" y="24.5" width="89" height="40" rx="8" fill="#567FEF" shape-rendering="crispEdges"/>
<path d="M294.537 49.5V37.8636H298.469C299.378 37.8636 300.124 38.0189 300.708 38.3295C301.291 38.6364 301.723 39.0587 302.003 39.5966C302.283 40.1345 302.424 40.7462 302.424 41.4318C302.424 42.1174 302.283 42.7254 302.003 43.2557C301.723 43.786 301.293 44.2027 300.713 44.5057C300.134 44.8049 299.393 44.9545 298.492 44.9545H295.31V43.6818H298.446C299.068 43.6818 299.568 43.5909 299.946 43.4091C300.329 43.2273 300.605 42.9697 300.776 42.6364C300.95 42.2992 301.037 41.8977 301.037 41.4318C301.037 40.9659 300.95 40.5587 300.776 40.2102C300.602 39.8617 300.323 39.5928 299.941 39.4034C299.558 39.2102 299.052 39.1136 298.424 39.1136H295.946V49.5H294.537ZM300.014 44.2727L302.878 49.5H301.242L298.424 44.2727H300.014ZM307.355 49.6818C306.514 49.6818 305.789 49.4962 305.179 49.125C304.573 48.75 304.105 48.2273 303.776 47.5568C303.45 46.8826 303.287 46.0985 303.287 45.2045C303.287 44.3106 303.45 43.5227 303.776 42.8409C304.105 42.1553 304.563 41.6212 305.151 41.2386C305.741 40.8523 306.431 40.6591 307.219 40.6591C307.673 40.6591 308.122 40.7348 308.565 40.8864C309.009 41.0379 309.412 41.2841 309.776 41.625C310.139 41.9621 310.429 42.4091 310.645 42.9659C310.861 43.5227 310.969 44.2083 310.969 45.0227V45.5909H304.241V44.4318H309.605C309.605 43.9394 309.507 43.5 309.31 43.1136C309.116 42.7273 308.84 42.4223 308.48 42.1989C308.124 41.9754 307.704 41.8636 307.219 41.8636C306.685 41.8636 306.223 41.9962 305.832 42.2614C305.446 42.5227 305.149 42.8636 304.94 43.2841C304.732 43.7045 304.628 44.1553 304.628 44.6364V45.4091C304.628 46.0682 304.741 46.6269 304.969 47.0852C305.2 47.5398 305.52 47.8864 305.929 48.125C306.338 48.3598 306.813 48.4773 307.355 48.4773C307.707 48.4773 308.026 48.428 308.31 48.3295C308.598 48.2273 308.846 48.0758 309.054 47.875C309.262 47.6705 309.423 47.4167 309.537 47.1136L310.832 47.4773C310.696 47.9167 310.467 48.303 310.145 48.6364C309.823 48.9659 309.425 49.2235 308.952 49.4091C308.478 49.5909 307.946 49.6818 307.355 49.6818ZM315.731 52.9545C315.084 52.9545 314.527 52.8712 314.061 52.7045C313.595 52.5417 313.207 52.3258 312.896 52.0568C312.589 51.7917 312.345 51.5076 312.163 51.2045L313.231 50.4545C313.352 50.6136 313.506 50.7955 313.691 51C313.877 51.2083 314.131 51.3883 314.453 51.5398C314.779 51.6951 315.205 51.7727 315.731 51.7727C316.436 51.7727 317.017 51.6023 317.476 51.2614C317.934 50.9205 318.163 50.3864 318.163 49.6591V47.8864H318.049C317.951 48.0455 317.811 48.2424 317.629 48.4773C317.451 48.7083 317.193 48.9148 316.856 49.0966C316.523 49.2746 316.072 49.3636 315.504 49.3636C314.799 49.3636 314.167 49.197 313.606 48.8636C313.049 48.5303 312.608 48.0455 312.282 47.4091C311.96 46.7727 311.799 46 311.799 45.0909C311.799 44.197 311.957 43.4186 312.271 42.7557C312.585 42.089 313.023 41.5739 313.584 41.2102C314.144 40.8428 314.792 40.6591 315.527 40.6591C316.095 40.6591 316.546 40.7538 316.879 40.9432C317.216 41.1288 317.474 41.3409 317.652 41.5795C317.834 41.8144 317.974 42.0076 318.072 42.1591H318.209V40.7727H319.504V49.75C319.504 50.5 319.334 51.1098 318.993 51.5795C318.655 52.053 318.201 52.3996 317.629 52.6193C317.061 52.8428 316.428 52.9545 315.731 52.9545ZM315.686 48.1591C316.224 48.1591 316.678 48.036 317.049 47.7898C317.421 47.5436 317.703 47.1894 317.896 46.7273C318.089 46.2652 318.186 45.7121 318.186 45.0682C318.186 44.4394 318.091 43.8845 317.902 43.4034C317.712 42.9223 317.432 42.5455 317.061 42.2727C316.69 42 316.231 41.8636 315.686 41.8636C315.118 41.8636 314.644 42.0076 314.265 42.2955C313.89 42.5833 313.608 42.9697 313.419 43.4545C313.233 43.9394 313.14 44.4773 313.14 45.0682C313.14 45.6742 313.235 46.2102 313.424 46.6761C313.618 47.1383 313.902 47.5019 314.277 47.767C314.655 48.0284 315.125 48.1591 315.686 48.1591ZM321.159 49.5V40.7727H322.499V49.5H321.159ZM321.84 39.3182C321.579 39.3182 321.354 39.2292 321.164 39.0511C320.979 38.8731 320.886 38.6591 320.886 38.4091C320.886 38.1591 320.979 37.9451 321.164 37.767C321.354 37.589 321.579 37.5 321.84 37.5C322.102 37.5 322.325 37.589 322.511 37.767C322.7 37.9451 322.795 38.1591 322.795 38.4091C322.795 38.6591 322.7 38.8731 322.511 39.0511C322.325 39.2292 322.102 39.3182 321.84 39.3182ZM330.337 42.7273L329.133 43.0682C329.057 42.8674 328.945 42.6723 328.797 42.483C328.654 42.2898 328.457 42.1307 328.207 42.0057C327.957 41.8807 327.636 41.8182 327.246 41.8182C326.712 41.8182 326.267 41.9413 325.911 42.1875C325.559 42.4299 325.383 42.7386 325.383 43.1136C325.383 43.447 325.504 43.7102 325.746 43.9034C325.989 44.0966 326.368 44.2576 326.883 44.3864L328.178 44.7045C328.958 44.8939 329.54 45.1837 329.922 45.5739C330.305 45.9602 330.496 46.4583 330.496 47.0682C330.496 47.5682 330.352 48.0152 330.064 48.4091C329.78 48.803 329.383 49.1136 328.871 49.3409C328.36 49.5682 327.765 49.6818 327.087 49.6818C326.197 49.6818 325.46 49.4886 324.877 49.1023C324.294 48.7159 323.924 48.1515 323.769 47.4091L325.042 47.0909C325.163 47.5606 325.392 47.9129 325.729 48.1477C326.07 48.3826 326.515 48.5 327.064 48.5C327.689 48.5 328.186 48.3674 328.553 48.1023C328.924 47.8333 329.11 47.5114 329.11 47.1364C329.11 46.8333 329.004 46.5795 328.792 46.375C328.58 46.1667 328.254 46.0114 327.814 45.9091L326.36 45.5682C325.561 45.3788 324.974 45.0852 324.599 44.6875C324.227 44.286 324.042 43.7841 324.042 43.1818C324.042 42.6894 324.18 42.2538 324.457 41.875C324.737 41.4962 325.118 41.1989 325.599 40.983C326.083 40.767 326.633 40.6591 327.246 40.6591C328.11 40.6591 328.788 40.8485 329.28 41.2273C329.777 41.6061 330.129 42.1061 330.337 42.7273ZM335.51 40.7727V41.9091H330.987V40.7727H335.51ZM332.306 38.6818H333.647V47C333.647 47.3788 333.702 47.6629 333.811 47.8523C333.925 48.0379 334.069 48.1629 334.243 48.2273C334.421 48.2879 334.609 48.3182 334.806 48.3182C334.953 48.3182 335.075 48.3106 335.169 48.2955C335.264 48.2765 335.34 48.2614 335.397 48.25L335.669 49.4545C335.578 49.4886 335.452 49.5227 335.289 49.5568C335.126 49.5947 334.919 49.6136 334.669 49.6136C334.291 49.6136 333.919 49.5322 333.556 49.3693C333.196 49.2064 332.897 48.9583 332.658 48.625C332.423 48.2917 332.306 47.8712 332.306 47.3636V38.6818ZM340.293 49.6818C339.452 49.6818 338.726 49.4962 338.116 49.125C337.51 48.75 337.043 48.2273 336.713 47.5568C336.387 46.8826 336.224 46.0985 336.224 45.2045C336.224 44.3106 336.387 43.5227 336.713 42.8409C337.043 42.1553 337.501 41.6212 338.088 41.2386C338.679 40.8523 339.368 40.6591 340.156 40.6591C340.611 40.6591 341.06 40.7348 341.503 40.8864C341.946 41.0379 342.349 41.2841 342.713 41.625C343.077 41.9621 343.366 42.4091 343.582 42.9659C343.798 43.5227 343.906 44.2083 343.906 45.0227V45.5909H337.179V44.4318H342.543C342.543 43.9394 342.444 43.5 342.247 43.1136C342.054 42.7273 341.777 42.4223 341.418 42.1989C341.062 41.9754 340.641 41.8636 340.156 41.8636C339.622 41.8636 339.16 41.9962 338.77 42.2614C338.384 42.5227 338.086 42.8636 337.878 43.2841C337.67 43.7045 337.565 44.1553 337.565 44.6364V45.4091C337.565 46.0682 337.679 46.6269 337.906 47.0852C338.137 47.5398 338.457 47.8864 338.866 48.125C339.276 48.3598 339.751 48.4773 340.293 48.4773C340.645 48.4773 340.963 48.428 341.247 48.3295C341.535 48.2273 341.783 48.0758 341.991 47.875C342.2 47.6705 342.361 47.4167 342.474 47.1136L343.77 47.4773C343.634 47.9167 343.404 48.303 343.082 48.6364C342.76 48.9659 342.363 49.2235 341.889 49.4091C341.416 49.5909 340.884 49.6818 340.293 49.6818ZM345.146 49.5V40.7727H346.441V42.0909H346.532C346.691 41.6591 346.979 41.3087 347.396 41.0398C347.813 40.7708 348.282 40.6364 348.805 40.6364C348.904 40.6364 349.027 40.6383 349.174 40.642C349.322 40.6458 349.434 40.6515 349.51 40.6591V42.0227C349.464 42.0114 349.36 41.9943 349.197 41.9716C349.038 41.9451 348.87 41.9318 348.691 41.9318C348.267 41.9318 347.888 42.0208 347.555 42.1989C347.226 42.3731 346.964 42.6155 346.771 42.9261C346.582 43.233 346.487 43.5833 346.487 43.9773V49.5H345.146Z" fill="white"/>
<rect x="278" y="25.5" width="87" height="38" rx="7" stroke="white" stroke-width="2" shape-rendering="crispEdges"/>
</g>
<rect x="25" y="89" width="38" height="38" rx="7" fill="white"/>
<path fill-rule="evenodd" clip-rule="evenodd" d="M36.5 101.653C36.5 100.227 38.029 99.3229 39.2786 100.01L50.8192 106.357C52.1144 107.07 52.1144 108.931 50.8192 109.643L39.2786 115.991C38.029 116.678 36.5 115.774 36.5 114.348V101.653Z" fill="#567FEF"/>
<rect x="25" y="89" width="38" height="38" rx="7" stroke="#567FEF" stroke-width="2"/>
<rect x="89" y="89" width="46" height="46" rx="7" fill="#FFECF0"/>
<path d="M111.645 120.911L111.638 120.907L111.616 120.895C111.596 120.884 111.569 120.869 111.534 120.85C111.463 120.81 111.361 120.752 111.233 120.677C110.976 120.526 110.613 120.304 110.179 120.015C109.311 119.438 108.151 118.59 106.989 117.506C104.688 115.361 102.25 112.175 102.25 108.25C102.25 105.322 104.714 103 107.688 103C109.436 103 111.002 103.799 112 105.052C112.998 103.799 114.564 103 116.312 103C119.286 103 121.75 105.322 121.75 108.25C121.75 112.175 119.312 115.361 117.011 117.506C115.849 118.59 114.689 119.438 113.821 120.015C113.387 120.304 113.024 120.526 112.767 120.677C112.639 120.752 112.537 120.81 112.466 120.85C112.431 120.869 112.404 120.884 112.384 120.895L112.362 120.907L112.355 120.911L112.352 120.912C112.132 121.029 111.868 121.029 111.648 120.912L111.645 120.911Z" fill="#FF0E48"/>
<rect x="89" y="89" width="46" height="46" rx="7" stroke="#FF0E48" stroke-width="2"/>
<rect x="0.5" y="0.5" width="393" height="159" rx="7.5" stroke="white" stroke-opacity="0.1"/>
<defs>
<filter id="filter0_d_13_47" x="273" y="22.5" width="97" height="48" filterUnits="userSpaceOnUse" color-interpolation-filters="sRGB">
<feFlood flood-opacity="0" result="BackgroundImageFix"/>
<feColorMatrix in="SourceAlpha" type="matrix" values="0 0 0 0 0 0 0 0 0 0 0 0 0 0 0 0 0 0 127 0" result="hardAlpha"/>
<feOffset dy="2"/>
<feGaussianBlur stdDeviation="2"/>
<feComposite in2="hardAlpha" operator="out"/>
<feColorMatrix type="matrix" values="0 0 0 0 0.188235 0 0 0 0 0.188235 0 0 0 0 0.188235 0 0 0 0.25 0"/>
<feBlend mode="normal" in2="BackgroundImageFix" result="effect1_dropShadow_13_47"/>
<feBlend mode="normal" in="SourceGraphic" in2="effect1_dropShadow_13_47" result="shape"/>
</filter>
</defs>
</svg>
