<svg width="528" height="160" viewBox="0 0 528 160" fill="none" xmlns="http://www.w3.org/2000/svg">
<rect width="528" height="160" rx="8" fill="#F0F0F0"/>
<rect x="25" y="25" width="100" height="38" rx="19" stroke="#303030" stroke-opacity="0.25" stroke-width="2"/>
<path d="M45.0969 49H41.506V37.3636H45.256C46.3848 37.3636 47.3507 37.5966 48.1537 38.0625C48.9567 38.5246 49.5723 39.1894 50.0003 40.0568C50.4283 40.9205 50.6423 41.9545 50.6423 43.1591C50.6423 44.3712 50.4264 45.4148 49.9946 46.2898C49.5628 47.161 48.934 47.8314 48.1082 48.3011C47.2825 48.767 46.2787 49 45.0969 49ZM42.9151 47.75H45.006C45.9681 47.75 46.7654 47.5644 47.398 47.1932C48.0306 46.822 48.5022 46.2936 48.8128 45.608C49.1234 44.9223 49.2787 44.1061 49.2787 43.1591C49.2787 42.2197 49.1253 41.411 48.8185 40.733C48.5116 40.0511 48.0533 39.5284 47.4435 39.1648C46.8336 38.7973 46.0741 38.6136 45.1651 38.6136H42.9151V47.75ZM55.5696 49.1818C54.7817 49.1818 54.0904 48.9943 53.4957 48.6193C52.9048 48.2443 52.4427 47.7197 52.1094 47.0455C51.7798 46.3712 51.6151 45.5833 51.6151 44.6818C51.6151 43.7727 51.7798 42.9792 52.1094 42.3011C52.4427 41.6231 52.9048 41.0966 53.4957 40.7216C54.0904 40.3466 54.7817 40.1591 55.5696 40.1591C56.3575 40.1591 57.0469 40.3466 57.6378 40.7216C58.2325 41.0966 58.6946 41.6231 59.0241 42.3011C59.3575 42.9792 59.5241 43.7727 59.5241 44.6818C59.5241 45.5833 59.3575 46.3712 59.0241 47.0455C58.6946 47.7197 58.2325 48.2443 57.6378 48.6193C57.0469 48.9943 56.3575 49.1818 55.5696 49.1818ZM55.5696 47.9773C56.1681 47.9773 56.6605 47.8239 57.0469 47.517C57.4332 47.2102 57.7192 46.8068 57.9048 46.3068C58.0904 45.8068 58.1832 45.2652 58.1832 44.6818C58.1832 44.0985 58.0904 43.5549 57.9048 43.0511C57.7192 42.5473 57.4332 42.1402 57.0469 41.8295C56.6605 41.5189 56.1681 41.3636 55.5696 41.3636C54.9711 41.3636 54.4787 41.5189 54.0923 41.8295C53.706 42.1402 53.42 42.5473 53.2344 43.0511C53.0488 43.5549 52.956 44.0985 52.956 44.6818C52.956 45.2652 53.0488 45.8068 53.2344 46.3068C53.42 46.8068 53.706 47.2102 54.0923 47.517C54.4787 47.8239 54.9711 47.9773 55.5696 47.9773ZM62.4514 49L59.7923 40.2727H61.2014L63.0878 46.9545H63.1787L65.0423 40.2727H66.4741L68.3151 46.9318H68.406L70.2923 40.2727H71.7014L69.0423 49H67.7241L65.8151 42.2955H65.6787L63.7696 49H62.4514ZM74.0151 43.75V49H72.6741V40.2727H73.9696V41.6364H74.0832C74.2878 41.1932 74.5984 40.8371 75.0151 40.5682C75.4317 40.2955 75.9696 40.1591 76.6287 40.1591C77.2196 40.1591 77.7366 40.2803 78.1798 40.5227C78.623 40.7614 78.9677 41.125 79.2139 41.6136C79.4601 42.0985 79.5832 42.7121 79.5832 43.4545V49H78.2423V43.5455C78.2423 42.8598 78.0643 42.3258 77.7082 41.9432C77.3522 41.5568 76.8635 41.3636 76.2423 41.3636C75.8143 41.3636 75.4317 41.4564 75.0946 41.642C74.7613 41.8277 74.498 42.0985 74.3048 42.4545C74.1116 42.8106 74.0151 43.2424 74.0151 43.75ZM82.5744 37.3636V49H81.2335V37.3636H82.5744ZM87.7759 49.1818C86.988 49.1818 86.2967 48.9943 85.702 48.6193C85.1111 48.2443 84.649 47.7197 84.3156 47.0455C83.9861 46.3712 83.8213 45.5833 83.8213 44.6818C83.8213 43.7727 83.9861 42.9792 84.3156 42.3011C84.649 41.6231 85.1111 41.0966 85.702 40.7216C86.2967 40.3466 86.988 40.1591 87.7759 40.1591C88.5637 40.1591 89.2531 40.3466 89.844 40.7216C90.4387 41.0966 90.9009 41.6231 91.2304 42.3011C91.5637 42.9792 91.7304 43.7727 91.7304 44.6818C91.7304 45.5833 91.5637 46.3712 91.2304 47.0455C90.9009 47.7197 90.4387 48.2443 89.844 48.6193C89.2531 48.9943 88.5637 49.1818 87.7759 49.1818ZM87.7759 47.9773C88.3743 47.9773 88.8668 47.8239 89.2531 47.517C89.6395 47.2102 89.9255 46.8068 90.1111 46.3068C90.2967 45.8068 90.3895 45.2652 90.3895 44.6818C90.3895 44.0985 90.2967 43.5549 90.1111 43.0511C89.9255 42.5473 89.6395 42.1402 89.2531 41.8295C88.8668 41.5189 88.3743 41.3636 87.7759 41.3636C87.1774 41.3636 86.6849 41.5189 86.2986 41.8295C85.9122 42.1402 85.6262 42.5473 85.4406 43.0511C85.255 43.5549 85.1622 44.0985 85.1622 44.6818C85.1622 45.2652 85.255 45.8068 85.4406 46.3068C85.6262 46.8068 85.9122 47.2102 86.2986 47.517C86.6849 47.8239 87.1774 47.9773 87.7759 47.9773ZM95.5455 49.2045C94.9924 49.2045 94.4905 49.1004 94.0398 48.892C93.589 48.6799 93.2311 48.375 92.9659 47.9773C92.7008 47.5758 92.5682 47.0909 92.5682 46.5227C92.5682 46.0227 92.6667 45.6174 92.8636 45.3068C93.0606 44.9924 93.3239 44.7462 93.6534 44.5682C93.983 44.3902 94.3466 44.2576 94.7443 44.1705C95.1458 44.0795 95.5492 44.0076 95.9545 43.9545C96.4848 43.8864 96.9148 43.8352 97.2443 43.8011C97.5777 43.7633 97.8201 43.7008 97.9716 43.6136C98.1269 43.5265 98.2045 43.375 98.2045 43.1591V43.1136C98.2045 42.553 98.0511 42.1174 97.7443 41.8068C97.4413 41.4962 96.9811 41.3409 96.3636 41.3409C95.7235 41.3409 95.2216 41.4811 94.858 41.7614C94.4943 42.0417 94.2386 42.3409 94.0909 42.6591L92.8182 42.2045C93.0455 41.6742 93.3485 41.2614 93.7273 40.9659C94.1098 40.6667 94.5265 40.4583 94.9773 40.3409C95.4318 40.2197 95.8788 40.1591 96.3182 40.1591C96.5985 40.1591 96.9205 40.1932 97.2841 40.2614C97.6515 40.3258 98.0057 40.4602 98.3466 40.6648C98.6913 40.8693 98.9773 41.178 99.2045 41.5909C99.4318 42.0038 99.5455 42.5568 99.5455 43.25V49H98.2045V47.8182H98.1364C98.0455 48.0076 97.8939 48.2102 97.6818 48.4261C97.4697 48.642 97.1875 48.8258 96.8352 48.9773C96.483 49.1288 96.053 49.2045 95.5455 49.2045ZM95.75 48C96.2803 48 96.7273 47.8958 97.0909 47.6875C97.4583 47.4792 97.7348 47.2102 97.9205 46.8807C98.1098 46.5511 98.2045 46.2045 98.2045 45.8409V44.6136C98.1477 44.6818 98.0227 44.7443 97.8295 44.8011C97.6402 44.8542 97.4205 44.9015 97.1705 44.9432C96.9242 44.9811 96.6837 45.0152 96.4489 45.0455C96.2178 45.072 96.0303 45.0947 95.8864 45.1136C95.5379 45.1591 95.2121 45.233 94.9091 45.3352C94.6098 45.4337 94.3674 45.5833 94.1818 45.7841C94 45.9811 93.9091 46.25 93.9091 46.5909C93.9091 47.0568 94.0814 47.4091 94.4261 47.6477C94.7746 47.8826 95.2159 48 95.75 48ZM104.488 49.1818C103.761 49.1818 103.119 48.9981 102.562 48.6307C102.005 48.2595 101.57 47.7367 101.255 47.0625C100.941 46.3845 100.784 45.5833 100.784 44.6591C100.784 43.7424 100.941 42.947 101.255 42.2727C101.57 41.5985 102.007 41.0777 102.568 40.7102C103.129 40.3428 103.776 40.1591 104.511 40.1591C105.079 40.1591 105.528 40.2538 105.858 40.4432C106.191 40.6288 106.445 40.8409 106.619 41.0795C106.797 41.3144 106.935 41.5076 107.034 41.6591H107.147V37.3636H108.488V49H107.193V47.6591H107.034C106.935 47.8182 106.795 48.0189 106.613 48.2614C106.432 48.5 106.172 48.714 105.835 48.9034C105.498 49.089 105.049 49.1818 104.488 49.1818ZM104.67 47.9773C105.208 47.9773 105.663 47.8371 106.034 47.5568C106.405 47.2727 106.687 46.8807 106.88 46.3807C107.074 45.8769 107.17 45.2955 107.17 44.6364C107.17 43.9848 107.075 43.4148 106.886 42.9261C106.697 42.4337 106.416 42.0511 106.045 41.7784C105.674 41.5019 105.216 41.3636 104.67 41.3636C104.102 41.3636 103.629 41.5095 103.25 41.8011C102.875 42.089 102.593 42.4811 102.403 42.9773C102.218 43.4697 102.125 44.0227 102.125 44.6364C102.125 45.2576 102.219 45.822 102.409 46.3295C102.602 46.8333 102.886 47.2348 103.261 47.5341C103.64 47.8295 104.11 47.9773 104.67 47.9773Z" fill="#303030"/>
<rect x="151" y="25" width="100" height="38" rx="19" stroke="#303030" stroke-width="2"/>
<rect x="150" y="24" width="70" height="40" rx="20" fill="#303030" fill-opacity="0.25"/>
<path d="M171.097 49H167.506V37.3636H171.256C172.385 37.3636 173.351 37.5966 174.154 38.0625C174.957 38.5246 175.572 39.1894 176 40.0568C176.428 40.9205 176.642 41.9545 176.642 43.1591C176.642 44.3712 176.426 45.4148 175.995 46.2898C175.563 47.161 174.934 47.8314 174.108 48.3011C173.282 48.767 172.279 49 171.097 49ZM168.915 47.75H171.006C171.968 47.75 172.765 47.5644 173.398 47.1932C174.031 46.822 174.502 46.2936 174.813 45.608C175.123 44.9223 175.279 44.1061 175.279 43.1591C175.279 42.2197 175.125 41.411 174.818 40.733C174.512 40.0511 174.053 39.5284 173.443 39.1648C172.834 38.7973 172.074 38.6136 171.165 38.6136H168.915V47.75ZM181.57 49.1818C180.782 49.1818 180.09 48.9943 179.496 48.6193C178.905 48.2443 178.443 47.7197 178.109 47.0455C177.78 46.3712 177.615 45.5833 177.615 44.6818C177.615 43.7727 177.78 42.9792 178.109 42.3011C178.443 41.6231 178.905 41.0966 179.496 40.7216C180.09 40.3466 180.782 40.1591 181.57 40.1591C182.357 40.1591 183.047 40.3466 183.638 40.7216C184.232 41.0966 184.695 41.6231 185.024 42.3011C185.357 42.9792 185.524 43.7727 185.524 44.6818C185.524 45.5833 185.357 46.3712 185.024 47.0455C184.695 47.7197 184.232 48.2443 183.638 48.6193C183.047 48.9943 182.357 49.1818 181.57 49.1818ZM181.57 47.9773C182.168 47.9773 182.661 47.8239 183.047 47.517C183.433 47.2102 183.719 46.8068 183.905 46.3068C184.09 45.8068 184.183 45.2652 184.183 44.6818C184.183 44.0985 184.09 43.5549 183.905 43.0511C183.719 42.5473 183.433 42.1402 183.047 41.8295C182.661 41.5189 182.168 41.3636 181.57 41.3636C180.971 41.3636 180.479 41.5189 180.092 41.8295C179.706 42.1402 179.42 42.5473 179.234 43.0511C179.049 43.5549 178.956 44.0985 178.956 44.6818C178.956 45.2652 179.049 45.8068 179.234 46.3068C179.42 46.8068 179.706 47.2102 180.092 47.517C180.479 47.8239 180.971 47.9773 181.57 47.9773ZM188.451 49L185.792 40.2727H187.201L189.088 46.9545H189.179L191.042 40.2727H192.474L194.315 46.9318H194.406L196.292 40.2727H197.701L195.042 49H193.724L191.815 42.2955H191.679L189.77 49H188.451ZM200.015 43.75V49H198.674V40.2727H199.97V41.6364H200.083C200.288 41.1932 200.598 40.8371 201.015 40.5682C201.432 40.2955 201.97 40.1591 202.629 40.1591C203.22 40.1591 203.737 40.2803 204.18 40.5227C204.623 40.7614 204.968 41.125 205.214 41.6136C205.46 42.0985 205.583 42.7121 205.583 43.4545V49H204.242V43.5455C204.242 42.8598 204.064 42.3258 203.708 41.9432C203.352 41.5568 202.864 41.3636 202.242 41.3636C201.814 41.3636 201.432 41.4564 201.095 41.642C200.761 41.8277 200.498 42.0985 200.305 42.4545C200.112 42.8106 200.015 43.2424 200.015 43.75ZM208.574 37.3636V49H207.234V37.3636H208.574ZM213.776 49.1818C212.988 49.1818 212.297 48.9943 211.702 48.6193C211.111 48.2443 210.649 47.7197 210.316 47.0455C209.986 46.3712 209.821 45.5833 209.821 44.6818C209.821 43.7727 209.986 42.9792 210.316 42.3011C210.649 41.6231 211.111 41.0966 211.702 40.7216C212.297 40.3466 212.988 40.1591 213.776 40.1591C214.564 40.1591 215.253 40.3466 215.844 40.7216C216.439 41.0966 216.901 41.6231 217.23 42.3011C217.564 42.9792 217.73 43.7727 217.73 44.6818C217.73 45.5833 217.564 46.3712 217.23 47.0455C216.901 47.7197 216.439 48.2443 215.844 48.6193C215.253 48.9943 214.564 49.1818 213.776 49.1818ZM213.776 47.9773C214.374 47.9773 214.867 47.8239 215.253 47.517C215.639 47.2102 215.925 46.8068 216.111 46.3068C216.297 45.8068 216.389 45.2652 216.389 44.6818C216.389 44.0985 216.297 43.5549 216.111 43.0511C215.925 42.5473 215.639 42.1402 215.253 41.8295C214.867 41.5189 214.374 41.3636 213.776 41.3636C213.177 41.3636 212.685 41.5189 212.299 41.8295C211.912 42.1402 211.626 42.5473 211.441 43.0511C211.255 43.5549 211.162 44.0985 211.162 44.6818C211.162 45.2652 211.255 45.8068 211.441 46.3068C211.626 46.8068 211.912 47.2102 212.299 47.517C212.685 47.8239 213.177 47.9773 213.776 47.9773ZM221.545 49.2045C220.992 49.2045 220.491 49.1004 220.04 48.892C219.589 48.6799 219.231 48.375 218.966 47.9773C218.701 47.5758 218.568 47.0909 218.568 46.5227C218.568 46.0227 218.667 45.6174 218.864 45.3068C219.061 44.9924 219.324 44.7462 219.653 44.5682C219.983 44.3902 220.347 44.2576 220.744 44.1705C221.146 44.0795 221.549 44.0076 221.955 43.9545C222.485 43.8864 222.915 43.8352 223.244 43.8011C223.578 43.7633 223.82 43.7008 223.972 43.6136C224.127 43.5265 224.205 43.375 224.205 43.1591V43.1136C224.205 42.553 224.051 42.1174 223.744 41.8068C223.441 41.4962 222.981 41.3409 222.364 41.3409C221.723 41.3409 221.222 41.4811 220.858 41.7614C220.494 42.0417 220.239 42.3409 220.091 42.6591L218.818 42.2045C219.045 41.6742 219.348 41.2614 219.727 40.9659C220.11 40.6667 220.527 40.4583 220.977 40.3409C221.432 40.2197 221.879 40.1591 222.318 40.1591C222.598 40.1591 222.92 40.1932 223.284 40.2614C223.652 40.3258 224.006 40.4602 224.347 40.6648C224.691 40.8693 224.977 41.178 225.205 41.5909C225.432 42.0038 225.545 42.5568 225.545 43.25V49H224.205V47.8182H224.136C224.045 48.0076 223.894 48.2102 223.682 48.4261C223.47 48.642 223.188 48.8258 222.835 48.9773C222.483 49.1288 222.053 49.2045 221.545 49.2045ZM221.75 48C222.28 48 222.727 47.8958 223.091 47.6875C223.458 47.4792 223.735 47.2102 223.92 46.8807C224.11 46.5511 224.205 46.2045 224.205 45.8409V44.6136C224.148 44.6818 224.023 44.7443 223.83 44.8011C223.64 44.8542 223.42 44.9015 223.17 44.9432C222.924 44.9811 222.684 45.0152 222.449 45.0455C222.218 45.072 222.03 45.0947 221.886 45.1136C221.538 45.1591 221.212 45.233 220.909 45.3352C220.61 45.4337 220.367 45.5833 220.182 45.7841C220 45.9811 219.909 46.25 219.909 46.5909C219.909 47.0568 220.081 47.4091 220.426 47.6477C220.775 47.8826 221.216 48 221.75 48ZM230.488 49.1818C229.761 49.1818 229.119 48.9981 228.562 48.6307C228.005 48.2595 227.57 47.7367 227.255 47.0625C226.941 46.3845 226.784 45.5833 226.784 44.6591C226.784 43.7424 226.941 42.947 227.255 42.2727C227.57 41.5985 228.007 41.0777 228.568 40.7102C229.129 40.3428 229.776 40.1591 230.511 40.1591C231.079 40.1591 231.528 40.2538 231.858 40.4432C232.191 40.6288 232.445 40.8409 232.619 41.0795C232.797 41.3144 232.935 41.5076 233.034 41.6591H233.147V37.3636H234.488V49H233.193V47.6591H233.034C232.935 47.8182 232.795 48.0189 232.613 48.2614C232.432 48.5 232.172 48.714 231.835 48.9034C231.498 49.089 231.049 49.1818 230.488 49.1818ZM230.67 47.9773C231.208 47.9773 231.663 47.8371 232.034 47.5568C232.405 47.2727 232.687 46.8807 232.88 46.3807C233.074 45.8769 233.17 45.2955 233.17 44.6364C233.17 43.9848 233.075 43.4148 232.886 42.9261C232.697 42.4337 232.416 42.0511 232.045 41.7784C231.674 41.5019 231.216 41.3636 230.67 41.3636C230.102 41.3636 229.629 41.5095 229.25 41.8011C228.875 42.089 228.593 42.4811 228.403 42.9773C228.218 43.4697 228.125 44.0227 228.125 44.6364C228.125 45.2576 228.219 45.822 228.409 46.3295C228.602 46.8333 228.886 47.2348 229.261 47.5341C229.64 47.8295 230.11 47.9773 230.67 47.9773Z" fill="#303030"/>
<rect x="277" y="25" width="100" height="38" rx="19" stroke="#303030" stroke-opacity="0.25" stroke-width="2"/>
<path d="M297.097 49H293.506V37.3636H297.256C298.385 37.3636 299.351 37.5966 300.154 38.0625C300.957 38.5246 301.572 39.1894 302 40.0568C302.428 40.9205 302.642 41.9545 302.642 43.1591C302.642 44.3712 302.426 45.4148 301.995 46.2898C301.563 47.161 300.934 47.8314 300.108 48.3011C299.282 48.767 298.279 49 297.097 49ZM294.915 47.75H297.006C297.968 47.75 298.765 47.5644 299.398 47.1932C300.031 46.822 300.502 46.2936 300.813 45.608C301.123 44.9223 301.279 44.1061 301.279 43.1591C301.279 42.2197 301.125 41.411 300.818 40.733C300.512 40.0511 300.053 39.5284 299.443 39.1648C298.834 38.7973 298.074 38.6136 297.165 38.6136H294.915V47.75ZM307.57 49.1818C306.782 49.1818 306.09 48.9943 305.496 48.6193C304.905 48.2443 304.443 47.7197 304.109 47.0455C303.78 46.3712 303.615 45.5833 303.615 44.6818C303.615 43.7727 303.78 42.9792 304.109 42.3011C304.443 41.6231 304.905 41.0966 305.496 40.7216C306.09 40.3466 306.782 40.1591 307.57 40.1591C308.357 40.1591 309.047 40.3466 309.638 40.7216C310.232 41.0966 310.695 41.6231 311.024 42.3011C311.357 42.9792 311.524 43.7727 311.524 44.6818C311.524 45.5833 311.357 46.3712 311.024 47.0455C310.695 47.7197 310.232 48.2443 309.638 48.6193C309.047 48.9943 308.357 49.1818 307.57 49.1818ZM307.57 47.9773C308.168 47.9773 308.661 47.8239 309.047 47.517C309.433 47.2102 309.719 46.8068 309.905 46.3068C310.09 45.8068 310.183 45.2652 310.183 44.6818C310.183 44.0985 310.09 43.5549 309.905 43.0511C309.719 42.5473 309.433 42.1402 309.047 41.8295C308.661 41.5189 308.168 41.3636 307.57 41.3636C306.971 41.3636 306.479 41.5189 306.092 41.8295C305.706 42.1402 305.42 42.5473 305.234 43.0511C305.049 43.5549 304.956 44.0985 304.956 44.6818C304.956 45.2652 305.049 45.8068 305.234 46.3068C305.42 46.8068 305.706 47.2102 306.092 47.517C306.479 47.8239 306.971 47.9773 307.57 47.9773ZM314.451 49L311.792 40.2727H313.201L315.088 46.9545H315.179L317.042 40.2727H318.474L320.315 46.9318H320.406L322.292 40.2727H323.701L321.042 49H319.724L317.815 42.2955H317.679L315.77 49H314.451ZM326.015 43.75V49H324.674V40.2727H325.97V41.6364H326.083C326.288 41.1932 326.598 40.8371 327.015 40.5682C327.432 40.2955 327.97 40.1591 328.629 40.1591C329.22 40.1591 329.737 40.2803 330.18 40.5227C330.623 40.7614 330.968 41.125 331.214 41.6136C331.46 42.0985 331.583 42.7121 331.583 43.4545V49H330.242V43.5455C330.242 42.8598 330.064 42.3258 329.708 41.9432C329.352 41.5568 328.864 41.3636 328.242 41.3636C327.814 41.3636 327.432 41.4564 327.095 41.642C326.761 41.8277 326.498 42.0985 326.305 42.4545C326.112 42.8106 326.015 43.2424 326.015 43.75ZM334.574 37.3636V49H333.234V37.3636H334.574ZM339.776 49.1818C338.988 49.1818 338.297 48.9943 337.702 48.6193C337.111 48.2443 336.649 47.7197 336.316 47.0455C335.986 46.3712 335.821 45.5833 335.821 44.6818C335.821 43.7727 335.986 42.9792 336.316 42.3011C336.649 41.6231 337.111 41.0966 337.702 40.7216C338.297 40.3466 338.988 40.1591 339.776 40.1591C340.564 40.1591 341.253 40.3466 341.844 40.7216C342.439 41.0966 342.901 41.6231 343.23 42.3011C343.564 42.9792 343.73 43.7727 343.73 44.6818C343.73 45.5833 343.564 46.3712 343.23 47.0455C342.901 47.7197 342.439 48.2443 341.844 48.6193C341.253 48.9943 340.564 49.1818 339.776 49.1818ZM339.776 47.9773C340.374 47.9773 340.867 47.8239 341.253 47.517C341.639 47.2102 341.925 46.8068 342.111 46.3068C342.297 45.8068 342.389 45.2652 342.389 44.6818C342.389 44.0985 342.297 43.5549 342.111 43.0511C341.925 42.5473 341.639 42.1402 341.253 41.8295C340.867 41.5189 340.374 41.3636 339.776 41.3636C339.177 41.3636 338.685 41.5189 338.299 41.8295C337.912 42.1402 337.626 42.5473 337.441 43.0511C337.255 43.5549 337.162 44.0985 337.162 44.6818C337.162 45.2652 337.255 45.8068 337.441 46.3068C337.626 46.8068 337.912 47.2102 338.299 47.517C338.685 47.8239 339.177 47.9773 339.776 47.9773ZM347.545 49.2045C346.992 49.2045 346.491 49.1004 346.04 48.892C345.589 48.6799 345.231 48.375 344.966 47.9773C344.701 47.5758 344.568 47.0909 344.568 46.5227C344.568 46.0227 344.667 45.6174 344.864 45.3068C345.061 44.9924 345.324 44.7462 345.653 44.5682C345.983 44.3902 346.347 44.2576 346.744 44.1705C347.146 44.0795 347.549 44.0076 347.955 43.9545C348.485 43.8864 348.915 43.8352 349.244 43.8011C349.578 43.7633 349.82 43.7008 349.972 43.6136C350.127 43.5265 350.205 43.375 350.205 43.1591V43.1136C350.205 42.553 350.051 42.1174 349.744 41.8068C349.441 41.4962 348.981 41.3409 348.364 41.3409C347.723 41.3409 347.222 41.4811 346.858 41.7614C346.494 42.0417 346.239 42.3409 346.091 42.6591L344.818 42.2045C345.045 41.6742 345.348 41.2614 345.727 40.9659C346.11 40.6667 346.527 40.4583 346.977 40.3409C347.432 40.2197 347.879 40.1591 348.318 40.1591C348.598 40.1591 348.92 40.1932 349.284 40.2614C349.652 40.3258 350.006 40.4602 350.347 40.6648C350.691 40.8693 350.977 41.178 351.205 41.5909C351.432 42.0038 351.545 42.5568 351.545 43.25V49H350.205V47.8182H350.136C350.045 48.0076 349.894 48.2102 349.682 48.4261C349.47 48.642 349.188 48.8258 348.835 48.9773C348.483 49.1288 348.053 49.2045 347.545 49.2045ZM347.75 48C348.28 48 348.727 47.8958 349.091 47.6875C349.458 47.4792 349.735 47.2102 349.92 46.8807C350.11 46.5511 350.205 46.2045 350.205 45.8409V44.6136C350.148 44.6818 350.023 44.7443 349.83 44.8011C349.64 44.8542 349.42 44.9015 349.17 44.9432C348.924 44.9811 348.684 45.0152 348.449 45.0455C348.218 45.072 348.03 45.0947 347.886 45.1136C347.538 45.1591 347.212 45.233 346.909 45.3352C346.61 45.4337 346.367 45.5833 346.182 45.7841C346 45.9811 345.909 46.25 345.909 46.5909C345.909 47.0568 346.081 47.4091 346.426 47.6477C346.775 47.8826 347.216 48 347.75 48ZM356.488 49.1818C355.761 49.1818 355.119 48.9981 354.562 48.6307C354.005 48.2595 353.57 47.7367 353.255 47.0625C352.941 46.3845 352.784 45.5833 352.784 44.6591C352.784 43.7424 352.941 42.947 353.255 42.2727C353.57 41.5985 354.007 41.0777 354.568 40.7102C355.129 40.3428 355.776 40.1591 356.511 40.1591C357.079 40.1591 357.528 40.2538 357.858 40.4432C358.191 40.6288 358.445 40.8409 358.619 41.0795C358.797 41.3144 358.935 41.5076 359.034 41.6591H359.147V37.3636H360.488V49H359.193V47.6591H359.034C358.935 47.8182 358.795 48.0189 358.613 48.2614C358.432 48.5 358.172 48.714 357.835 48.9034C357.498 49.089 357.049 49.1818 356.488 49.1818ZM356.67 47.9773C357.208 47.9773 357.663 47.8371 358.034 47.5568C358.405 47.2727 358.687 46.8807 358.88 46.3807C359.074 45.8769 359.17 45.2955 359.17 44.6364C359.17 43.9848 359.075 43.4148 358.886 42.9261C358.697 42.4337 358.416 42.0511 358.045 41.7784C357.674 41.5019 357.216 41.3636 356.67 41.3636C356.102 41.3636 355.629 41.5095 355.25 41.8011C354.875 42.089 354.593 42.4811 354.403 42.9773C354.218 43.4697 354.125 44.0227 354.125 44.6364C354.125 45.2576 354.219 45.822 354.409 46.3295C354.602 46.8333 354.886 47.2348 355.261 47.5341C355.64 47.8295 356.11 47.9773 356.67 47.9773Z" fill="#303030"/>
<rect x="403" y="25" width="100" height="38" rx="11" stroke="#303030" stroke-width="2"/>
<rect x="402" y="24" width="70" height="40" rx="12" fill="#303030" fill-opacity="0.25"/>
<path d="M423.097 49H419.506V37.3636H423.256C424.385 37.3636 425.351 37.5966 426.154 38.0625C426.957 38.5246 427.572 39.1894 428 40.0568C428.428 40.9205 428.642 41.9545 428.642 43.1591C428.642 44.3712 428.426 45.4148 427.995 46.2898C427.563 47.161 426.934 47.8314 426.108 48.3011C425.282 48.767 424.279 49 423.097 49ZM420.915 47.75H423.006C423.968 47.75 424.765 47.5644 425.398 47.1932C426.031 46.822 426.502 46.2936 426.813 45.608C427.123 44.9223 427.279 44.1061 427.279 43.1591C427.279 42.2197 427.125 41.411 426.818 40.733C426.512 40.0511 426.053 39.5284 425.443 39.1648C424.834 38.7973 424.074 38.6136 423.165 38.6136H420.915V47.75ZM433.57 49.1818C432.782 49.1818 432.09 48.9943 431.496 48.6193C430.905 48.2443 430.443 47.7197 430.109 47.0455C429.78 46.3712 429.615 45.5833 429.615 44.6818C429.615 43.7727 429.78 42.9792 430.109 42.3011C430.443 41.6231 430.905 41.0966 431.496 40.7216C432.09 40.3466 432.782 40.1591 433.57 40.1591C434.357 40.1591 435.047 40.3466 435.638 40.7216C436.232 41.0966 436.695 41.6231 437.024 42.3011C437.357 42.9792 437.524 43.7727 437.524 44.6818C437.524 45.5833 437.357 46.3712 437.024 47.0455C436.695 47.7197 436.232 48.2443 435.638 48.6193C435.047 48.9943 434.357 49.1818 433.57 49.1818ZM433.57 47.9773C434.168 47.9773 434.661 47.8239 435.047 47.517C435.433 47.2102 435.719 46.8068 435.905 46.3068C436.09 45.8068 436.183 45.2652 436.183 44.6818C436.183 44.0985 436.09 43.5549 435.905 43.0511C435.719 42.5473 435.433 42.1402 435.047 41.8295C434.661 41.5189 434.168 41.3636 433.57 41.3636C432.971 41.3636 432.479 41.5189 432.092 41.8295C431.706 42.1402 431.42 42.5473 431.234 43.0511C431.049 43.5549 430.956 44.0985 430.956 44.6818C430.956 45.2652 431.049 45.8068 431.234 46.3068C431.42 46.8068 431.706 47.2102 432.092 47.517C432.479 47.8239 432.971 47.9773 433.57 47.9773ZM440.451 49L437.792 40.2727H439.201L441.088 46.9545H441.179L443.042 40.2727H444.474L446.315 46.9318H446.406L448.292 40.2727H449.701L447.042 49H445.724L443.815 42.2955H443.679L441.77 49H440.451ZM452.015 43.75V49H450.674V40.2727H451.97V41.6364H452.083C452.288 41.1932 452.598 40.8371 453.015 40.5682C453.432 40.2955 453.97 40.1591 454.629 40.1591C455.22 40.1591 455.737 40.2803 456.18 40.5227C456.623 40.7614 456.968 41.125 457.214 41.6136C457.46 42.0985 457.583 42.7121 457.583 43.4545V49H456.242V43.5455C456.242 42.8598 456.064 42.3258 455.708 41.9432C455.352 41.5568 454.864 41.3636 454.242 41.3636C453.814 41.3636 453.432 41.4564 453.095 41.642C452.761 41.8277 452.498 42.0985 452.305 42.4545C452.112 42.8106 452.015 43.2424 452.015 43.75ZM460.574 37.3636V49H459.234V37.3636H460.574ZM465.776 49.1818C464.988 49.1818 464.297 48.9943 463.702 48.6193C463.111 48.2443 462.649 47.7197 462.316 47.0455C461.986 46.3712 461.821 45.5833 461.821 44.6818C461.821 43.7727 461.986 42.9792 462.316 42.3011C462.649 41.6231 463.111 41.0966 463.702 40.7216C464.297 40.3466 464.988 40.1591 465.776 40.1591C466.564 40.1591 467.253 40.3466 467.844 40.7216C468.439 41.0966 468.901 41.6231 469.23 42.3011C469.564 42.9792 469.73 43.7727 469.73 44.6818C469.73 45.5833 469.564 46.3712 469.23 47.0455C468.901 47.7197 468.439 48.2443 467.844 48.6193C467.253 48.9943 466.564 49.1818 465.776 49.1818ZM465.776 47.9773C466.374 47.9773 466.867 47.8239 467.253 47.517C467.639 47.2102 467.925 46.8068 468.111 46.3068C468.297 45.8068 468.389 45.2652 468.389 44.6818C468.389 44.0985 468.297 43.5549 468.111 43.0511C467.925 42.5473 467.639 42.1402 467.253 41.8295C466.867 41.5189 466.374 41.3636 465.776 41.3636C465.177 41.3636 464.685 41.5189 464.299 41.8295C463.912 42.1402 463.626 42.5473 463.441 43.0511C463.255 43.5549 463.162 44.0985 463.162 44.6818C463.162 45.2652 463.255 45.8068 463.441 46.3068C463.626 46.8068 463.912 47.2102 464.299 47.517C464.685 47.8239 465.177 47.9773 465.776 47.9773ZM473.545 49.2045C472.992 49.2045 472.491 49.1004 472.04 48.892C471.589 48.6799 471.231 48.375 470.966 47.9773C470.701 47.5758 470.568 47.0909 470.568 46.5227C470.568 46.0227 470.667 45.6174 470.864 45.3068C471.061 44.9924 471.324 44.7462 471.653 44.5682C471.983 44.3902 472.347 44.2576 472.744 44.1705C473.146 44.0795 473.549 44.0076 473.955 43.9545C474.485 43.8864 474.915 43.8352 475.244 43.8011C475.578 43.7633 475.82 43.7008 475.972 43.6136C476.127 43.5265 476.205 43.375 476.205 43.1591V43.1136C476.205 42.553 476.051 42.1174 475.744 41.8068C475.441 41.4962 474.981 41.3409 474.364 41.3409C473.723 41.3409 473.222 41.4811 472.858 41.7614C472.494 42.0417 472.239 42.3409 472.091 42.6591L470.818 42.2045C471.045 41.6742 471.348 41.2614 471.727 40.9659C472.11 40.6667 472.527 40.4583 472.977 40.3409C473.432 40.2197 473.879 40.1591 474.318 40.1591C474.598 40.1591 474.92 40.1932 475.284 40.2614C475.652 40.3258 476.006 40.4602 476.347 40.6648C476.691 40.8693 476.977 41.178 477.205 41.5909C477.432 42.0038 477.545 42.5568 477.545 43.25V49H476.205V47.8182H476.136C476.045 48.0076 475.894 48.2102 475.682 48.4261C475.47 48.642 475.188 48.8258 474.835 48.9773C474.483 49.1288 474.053 49.2045 473.545 49.2045ZM473.75 48C474.28 48 474.727 47.8958 475.091 47.6875C475.458 47.4792 475.735 47.2102 475.92 46.8807C476.11 46.5511 476.205 46.2045 476.205 45.8409V44.6136C476.148 44.6818 476.023 44.7443 475.83 44.8011C475.64 44.8542 475.42 44.9015 475.17 44.9432C474.924 44.9811 474.684 45.0152 474.449 45.0455C474.218 45.072 474.03 45.0947 473.886 45.1136C473.538 45.1591 473.212 45.233 472.909 45.3352C472.61 45.4337 472.367 45.5833 472.182 45.7841C472 45.9811 471.909 46.25 471.909 46.5909C471.909 47.0568 472.081 47.4091 472.426 47.6477C472.775 47.8826 473.216 48 473.75 48ZM482.488 49.1818C481.761 49.1818 481.119 48.9981 480.562 48.6307C480.005 48.2595 479.57 47.7367 479.255 47.0625C478.941 46.3845 478.784 45.5833 478.784 44.6591C478.784 43.7424 478.941 42.947 479.255 42.2727C479.57 41.5985 480.007 41.0777 480.568 40.7102C481.129 40.3428 481.776 40.1591 482.511 40.1591C483.079 40.1591 483.528 40.2538 483.858 40.4432C484.191 40.6288 484.445 40.8409 484.619 41.0795C484.797 41.3144 484.935 41.5076 485.034 41.6591H485.147V37.3636H486.488V49H485.193V47.6591H485.034C484.935 47.8182 484.795 48.0189 484.613 48.2614C484.432 48.5 484.172 48.714 483.835 48.9034C483.498 49.089 483.049 49.1818 482.488 49.1818ZM482.67 47.9773C483.208 47.9773 483.663 47.8371 484.034 47.5568C484.405 47.2727 484.687 46.8807 484.88 46.3807C485.074 45.8769 485.17 45.2955 485.17 44.6364C485.17 43.9848 485.075 43.4148 484.886 42.9261C484.697 42.4337 484.416 42.0511 484.045 41.7784C483.674 41.5019 483.216 41.3636 482.67 41.3636C482.102 41.3636 481.629 41.5095 481.25 41.8011C480.875 42.089 480.593 42.4811 480.403 42.9773C480.218 43.4697 480.125 44.0227 480.125 44.6364C480.125 45.2576 480.219 45.822 480.409 46.3295C480.602 46.8333 480.886 47.2348 481.261 47.5341C481.64 47.8295 482.11 47.9773 482.67 47.9773Z" fill="#303030"/>
<rect x="25" y="89" width="38" height="38" rx="7" stroke="#567FEF" stroke-opacity="0.25" stroke-width="2"/>
<path fill-rule="evenodd" clip-rule="evenodd" d="M36.5 101.653C36.5 100.227 38.029 99.3229 39.2786 100.01L50.8192 106.357C52.1144 107.07 52.1144 108.931 50.8192 109.643L39.2786 115.991C38.029 116.678 36.5 115.774 36.5 114.348V101.653Z" fill="#567FEF"/>
<rect x="89" y="89" width="46" height="46" rx="7" stroke="#FF0E48" stroke-opacity="0.25" stroke-width="2"/>
<path d="M111.645 120.911L111.638 120.907L111.616 120.895C111.596 120.884 111.569 120.869 111.534 120.85C111.463 120.81 111.361 120.752 111.233 120.677C110.976 120.526 110.613 120.304 110.179 120.015C109.311 119.438 108.151 118.59 106.989 117.506C104.688 115.362 102.25 112.175 102.25 108.25C102.25 105.322 104.714 103 107.688 103C109.436 103 111.002 103.799 112 105.052C112.998 103.799 114.564 103 116.312 103C119.286 103 121.75 105.322 121.75 108.25C121.75 112.175 119.312 115.362 117.011 117.506C115.849 118.59 114.689 119.438 113.821 120.015C113.387 120.304 113.024 120.526 112.767 120.677C112.639 120.752 112.537 120.81 112.466 120.85C112.431 120.869 112.404 120.884 112.384 120.895L112.362 120.907L112.355 120.911L112.352 120.912C112.132 121.029 111.868 121.029 111.648 120.912L111.645 120.911Z" fill="#FF0E48"/>
<rect x="0.5" y="0.5" width="527" height="159" rx="7.5" stroke="white" stroke-opacity="0.1"/>
</svg>
