<svg width="433" height="160" viewBox="0 0 433 160" fill="none" xmlns="http://www.w3.org/2000/svg">
<rect width="433" height="160" rx="8" fill="#F0F0F0"/>
<g filter="url(#filter0_dd_13_49)">
<rect x="14.5" y="24" width="123" height="40" rx="20" fill="#FEFEFE" shape-rendering="crispEdges"/>
<path d="M32.3732 49V37.3636H36.305C37.2178 37.3636 37.9641 37.5284 38.5436 37.858C39.1269 38.1837 39.5588 38.625 39.8391 39.1818C40.1194 39.7386 40.2595 40.3598 40.2595 41.0455C40.2595 41.7311 40.1194 42.3542 39.8391 42.9148C39.5625 43.4754 39.1345 43.9223 38.555 44.2557C37.9754 44.5852 37.233 44.75 36.3277 44.75H33.5095V43.5H36.2822C36.9072 43.5 37.4091 43.392 37.7879 43.1761C38.1667 42.9602 38.4413 42.6686 38.6118 42.3011C38.786 41.9299 38.8732 41.5114 38.8732 41.0455C38.8732 40.5795 38.786 40.1629 38.6118 39.7955C38.4413 39.428 38.1648 39.1402 37.7822 38.9318C37.3997 38.7197 36.8921 38.6136 36.2595 38.6136H33.7822V49H32.3732ZM42.8885 37.3636V49H41.5476V37.3636H42.8885ZM47.1126 49.2045C46.5596 49.2045 46.0577 49.1004 45.607 48.892C45.1562 48.6799 44.7982 48.375 44.5331 47.9773C44.2679 47.5758 44.1354 47.0909 44.1354 46.5227C44.1354 46.0227 44.2339 45.6174 44.4308 45.3068C44.6278 44.9924 44.8911 44.7462 45.2206 44.5682C45.5501 44.3902 45.9138 44.2576 46.3115 44.1705C46.713 44.0795 47.1164 44.0076 47.5217 43.9545C48.052 43.8864 48.482 43.8352 48.8115 43.8011C49.1448 43.7633 49.3873 43.7008 49.5388 43.6136C49.6941 43.5265 49.7717 43.375 49.7717 43.1591V43.1136C49.7717 42.553 49.6183 42.1174 49.3115 41.8068C49.0085 41.4962 48.5482 41.3409 47.9308 41.3409C47.2907 41.3409 46.7888 41.4811 46.4251 41.7614C46.0615 42.0417 45.8058 42.3409 45.6581 42.6591L44.3854 42.2045C44.6126 41.6742 44.9157 41.2614 45.2945 40.9659C45.677 40.6667 46.0937 40.4583 46.5445 40.3409C46.999 40.2197 47.446 40.1591 47.8854 40.1591C48.1657 40.1591 48.4876 40.1932 48.8513 40.2614C49.2187 40.3258 49.5729 40.4602 49.9138 40.6648C50.2585 40.8693 50.5445 41.178 50.7717 41.5909C50.999 42.0038 51.1126 42.5568 51.1126 43.25V49H49.7717V47.8182H49.7036C49.6126 48.0076 49.4611 48.2102 49.249 48.4261C49.0369 48.642 48.7547 48.8258 48.4024 48.9773C48.0501 49.1288 47.6202 49.2045 47.1126 49.2045ZM47.3172 48C47.8475 48 48.2945 47.8958 48.6581 47.6875C49.0255 47.4792 49.302 47.2102 49.4876 46.8807C49.677 46.5511 49.7717 46.2045 49.7717 45.8409V44.6136C49.7149 44.6818 49.5899 44.7443 49.3967 44.8011C49.2073 44.8542 48.9876 44.9015 48.7376 44.9432C48.4914 44.9811 48.2509 45.0152 48.0161 45.0455C47.785 45.072 47.5975 45.0947 47.4536 45.1136C47.1051 45.1591 46.7793 45.233 46.4763 45.3352C46.177 45.4337 45.9346 45.5833 45.749 45.7841C45.5672 45.9811 45.4763 46.25 45.4763 46.5909C45.4763 47.0568 45.6486 47.4091 45.9933 47.6477C46.3418 47.8826 46.7831 48 47.3172 48ZM53.3112 52.2727C53.0839 52.2727 52.8813 52.2538 52.7033 52.2159C52.5252 52.1818 52.4021 52.1477 52.3339 52.1136L52.6749 50.9318C53.0006 51.0152 53.2885 51.0455 53.5385 51.0227C53.7885 51 54.0101 50.8883 54.2033 50.6875C54.4002 50.4905 54.5802 50.1705 54.743 49.7273L54.993 49.0455L51.7658 40.2727H53.2203L55.6294 47.2273H55.7203L58.1294 40.2727H59.5839L55.8794 50.2727C55.7127 50.7235 55.5063 51.0966 55.2601 51.392C55.0139 51.6913 54.7279 51.9129 54.4021 52.0568C54.0802 52.2008 53.7165 52.2727 53.3112 52.2727ZM65.5947 43.75V49H64.2538V40.2727H65.5493V41.6364H65.6629C65.8675 41.1932 66.1781 40.8371 66.5947 40.5682C67.0114 40.2955 67.5493 40.1591 68.2084 40.1591C68.7993 40.1591 69.3163 40.2803 69.7595 40.5227C70.2027 40.7614 70.5474 41.125 70.7936 41.6136C71.0398 42.0985 71.1629 42.7121 71.1629 43.4545V49H69.822V43.5455C69.822 42.8598 69.644 42.3258 69.2879 41.9432C68.9319 41.5568 68.4432 41.3636 67.822 41.3636C67.394 41.3636 67.0114 41.4564 66.6743 41.642C66.341 41.8277 66.0777 42.0985 65.8845 42.4545C65.6913 42.8106 65.5947 43.2424 65.5947 43.75ZM76.3587 49.1818C75.5708 49.1818 74.8795 48.9943 74.2848 48.6193C73.6939 48.2443 73.2318 47.7197 72.8984 47.0455C72.5689 46.3712 72.4041 45.5833 72.4041 44.6818C72.4041 43.7727 72.5689 42.9792 72.8984 42.3011C73.2318 41.6231 73.6939 41.0966 74.2848 40.7216C74.8795 40.3466 75.5708 40.1591 76.3587 40.1591C77.1465 40.1591 77.8359 40.3466 78.4268 40.7216C79.0215 41.0966 79.4837 41.6231 79.8132 42.3011C80.1465 42.9792 80.3132 43.7727 80.3132 44.6818C80.3132 45.5833 80.1465 46.3712 79.8132 47.0455C79.4837 47.7197 79.0215 48.2443 78.4268 48.6193C77.8359 48.9943 77.1465 49.1818 76.3587 49.1818ZM76.3587 47.9773C76.9571 47.9773 77.4496 47.8239 77.8359 47.517C78.2223 47.2102 78.5083 46.8068 78.6939 46.3068C78.8795 45.8068 78.9723 45.2652 78.9723 44.6818C78.9723 44.0985 78.8795 43.5549 78.6939 43.0511C78.5083 42.5473 78.2223 42.1402 77.8359 41.8295C77.4496 41.5189 76.9571 41.3636 76.3587 41.3636C75.7602 41.3636 75.2678 41.5189 74.8814 41.8295C74.495 42.1402 74.209 42.5473 74.0234 43.0511C73.8378 43.5549 73.745 44.0985 73.745 44.6818C73.745 45.2652 73.8378 45.8068 74.0234 46.3068C74.209 46.8068 74.495 47.2102 74.8814 47.517C75.2678 47.8239 75.7602 47.9773 76.3587 47.9773ZM83.2405 49L80.5814 40.2727H81.9905L83.8768 46.9545H83.9678L85.8314 40.2727H87.2632L89.1041 46.9318H89.195L91.0814 40.2727H92.4905L89.8314 49H88.5132L86.6041 42.2955H86.4678L84.5587 49H83.2405Z" fill="#567FEF"/>
<circle cx="117.5" cy="44" r="16" fill="#567FEF"/>
<path fill-rule="evenodd" clip-rule="evenodd" d="M111.75 38.7109C111.75 37.5225 113.024 36.7691 114.066 37.3418L123.683 42.6313C124.762 43.2249 124.762 44.7758 123.683 45.3694L114.066 50.6589C113.024 51.2316 111.75 50.4782 111.75 49.2898V38.7109Z" fill="white"/>
</g>
<g filter="url(#filter1_dd_13_49)">
<rect x="316" y="24" width="93" height="40" rx="20" fill="url(#paint0_linear_13_49)" shape-rendering="crispEdges"/>
<path d="M343.012 41H341.603C341.519 40.5947 341.374 40.2386 341.165 39.9318C340.961 39.625 340.711 39.3674 340.415 39.1591C340.124 38.947 339.8 38.7879 339.444 38.6818C339.088 38.5758 338.716 38.5227 338.33 38.5227C337.625 38.5227 336.987 38.7008 336.415 39.0568C335.847 39.4129 335.394 39.9375 335.057 40.6307C334.724 41.3239 334.557 42.1742 334.557 43.1818C334.557 44.1894 334.724 45.0398 335.057 45.733C335.394 46.4261 335.847 46.9508 336.415 47.3068C336.987 47.6629 337.625 47.8409 338.33 47.8409C338.716 47.8409 339.088 47.7879 339.444 47.6818C339.8 47.5758 340.124 47.4186 340.415 47.2102C340.711 46.9981 340.961 46.7386 341.165 46.4318C341.374 46.1212 341.519 45.7652 341.603 45.3636H343.012C342.906 45.9583 342.713 46.4905 342.432 46.9602C342.152 47.4299 341.803 47.8295 341.387 48.1591C340.97 48.4848 340.502 48.733 339.983 48.9034C339.468 49.0739 338.917 49.1591 338.33 49.1591C337.338 49.1591 336.455 48.9167 335.682 48.4318C334.91 47.947 334.302 47.2576 333.858 46.3636C333.415 45.4697 333.194 44.4091 333.194 43.1818C333.194 41.9545 333.415 40.8939 333.858 40C334.302 39.1061 334.91 38.4167 335.682 37.9318C336.455 37.447 337.338 37.2045 338.33 37.2045C338.917 37.2045 339.468 37.2898 339.983 37.4602C340.502 37.6307 340.97 37.8807 341.387 38.2102C341.803 38.536 342.152 38.9337 342.432 39.4034C342.713 39.8693 342.906 40.4015 343.012 41ZM345.648 43.75V49H344.307V37.3636H345.648V41.6364H345.762C345.966 41.1856 346.273 40.8277 346.682 40.5625C347.095 40.2936 347.644 40.1591 348.33 40.1591C348.924 40.1591 349.445 40.2784 349.892 40.517C350.339 40.7519 350.686 41.1136 350.932 41.6023C351.182 42.0871 351.307 42.7045 351.307 43.4545V49H349.966V43.5455C349.966 42.8523 349.786 42.3163 349.426 41.9375C349.07 41.5549 348.576 41.3636 347.943 41.3636C347.504 41.3636 347.11 41.4564 346.762 41.642C346.417 41.8277 346.144 42.0985 345.943 42.4545C345.746 42.8106 345.648 43.2424 345.648 43.75ZM355.528 49.2045C354.975 49.2045 354.473 49.1004 354.023 48.892C353.572 48.6799 353.214 48.375 352.949 47.9773C352.684 47.5758 352.551 47.0909 352.551 46.5227C352.551 46.0227 352.649 45.6174 352.846 45.3068C353.043 44.9924 353.307 44.7462 353.636 44.5682C353.966 44.3902 354.329 44.2576 354.727 44.1705C355.129 44.0795 355.532 44.0076 355.937 43.9545C356.468 43.8864 356.898 43.8352 357.227 43.8011C357.56 43.7633 357.803 43.7008 357.954 43.6136C358.11 43.5265 358.187 43.375 358.187 43.1591V43.1136C358.187 42.553 358.034 42.1174 357.727 41.8068C357.424 41.4962 356.964 41.3409 356.346 41.3409C355.706 41.3409 355.204 41.4811 354.841 41.7614C354.477 42.0417 354.221 42.3409 354.074 42.6591L352.801 42.2045C353.028 41.6742 353.331 41.2614 353.71 40.9659C354.093 40.6667 354.509 40.4583 354.96 40.3409C355.415 40.2197 355.862 40.1591 356.301 40.1591C356.581 40.1591 356.903 40.1932 357.267 40.2614C357.634 40.3258 357.988 40.4602 358.329 40.6648C358.674 40.8693 358.96 41.178 359.187 41.5909C359.415 42.0038 359.528 42.5568 359.528 43.25V49H358.187V47.8182H358.119C358.028 48.0076 357.877 48.2102 357.665 48.4261C357.453 48.642 357.17 48.8258 356.818 48.9773C356.466 49.1288 356.036 49.2045 355.528 49.2045ZM355.733 48C356.263 48 356.71 47.8958 357.074 47.6875C357.441 47.4792 357.718 47.2102 357.903 46.8807C358.093 46.5511 358.187 46.2045 358.187 45.8409V44.6136C358.131 44.6818 358.006 44.7443 357.812 44.8011C357.623 44.8542 357.403 44.9015 357.153 44.9432C356.907 44.9811 356.667 45.0152 356.432 45.0455C356.201 45.072 356.013 45.0947 355.869 45.1136C355.521 45.1591 355.195 45.233 354.892 45.3352C354.593 45.4337 354.35 45.5833 354.165 45.7841C353.983 45.9811 353.892 46.25 353.892 46.5909C353.892 47.0568 354.064 47.4091 354.409 47.6477C354.757 47.8826 355.199 48 355.733 48ZM364.971 40.2727V41.4091H360.448V40.2727H364.971ZM361.767 38.1818H363.108V46.5C363.108 46.8788 363.162 47.1629 363.272 47.3523C363.386 47.5379 363.53 47.6629 363.704 47.7273C363.882 47.7879 364.07 47.8182 364.267 47.8182C364.414 47.8182 364.536 47.8106 364.63 47.7955C364.725 47.7765 364.801 47.7614 364.858 47.75L365.13 48.9545C365.039 48.9886 364.912 49.0227 364.75 49.0568C364.587 49.0947 364.38 49.1136 364.13 49.1136C363.751 49.1136 363.38 49.0322 363.017 48.8693C362.657 48.7064 362.358 48.4583 362.119 48.125C361.884 47.7917 361.767 47.3712 361.767 46.8636V38.1818Z" fill="white"/>
<circle cx="389" cy="44" r="16" fill="white"/>
<path fill-rule="evenodd" clip-rule="evenodd" d="M383.003 52.0368C383.149 52.0631 383.298 52.0836 383.447 52.0982C383.629 52.1159 383.814 52.125 384 52.125C385.096 52.125 386.12 51.8109 386.986 51.2677C387.631 51.4195 388.306 51.5 389 51.5C393.435 51.5 397.125 48.1923 397.125 44C397.125 39.8078 393.435 36.5 389 36.5C384.565 36.5 380.875 39.8078 380.875 44C380.875 46.0072 381.729 47.8226 383.103 49.1603C383.296 49.3485 383.334 49.5163 383.315 49.6124C383.21 50.1404 382.972 50.6209 382.636 51.0176C382.492 51.1882 382.449 51.4229 382.525 51.6333C382.601 51.8436 382.783 51.9975 383.003 52.0368ZM385.875 43.0625C385.357 43.0625 384.938 43.4822 384.938 44C384.938 44.5177 385.357 44.9375 385.875 44.9375C386.393 44.9375 386.812 44.5177 386.812 44C386.812 43.4822 386.393 43.0625 385.875 43.0625ZM388.062 44C388.062 43.4822 388.482 43.0625 389 43.0625C389.518 43.0625 389.938 43.4822 389.938 44C389.938 44.5177 389.518 44.9375 389 44.9375C388.482 44.9375 388.062 44.5177 388.062 44ZM392.125 43.0625C391.607 43.0625 391.188 43.4822 391.188 44C391.188 44.5177 391.607 44.9375 392.125 44.9375C392.643 44.9375 393.062 44.5177 393.062 44C393.062 43.4822 392.643 43.0625 392.125 43.0625Z" fill="#7A5BAD"/>
</g>
<g filter="url(#filter2_dd_13_49)">
<rect x="161.5" y="23.5" width="130" height="40" rx="16" fill="#FF0E48" shape-rendering="crispEdges"/>
<path d="M210.597 48.5H207.006V36.8636H210.756C211.885 36.8636 212.851 37.0966 213.654 37.5625C214.457 38.0246 215.072 38.6894 215.5 39.5568C215.928 40.4205 216.142 41.4545 216.142 42.6591C216.142 43.8712 215.926 44.9148 215.495 45.7898C215.063 46.661 214.434 47.3314 213.608 47.8011C212.782 48.267 211.779 48.5 210.597 48.5ZM208.415 47.25H210.506C211.468 47.25 212.265 47.0644 212.898 46.6932C213.531 46.322 214.002 45.7936 214.313 45.108C214.623 44.4223 214.779 43.6061 214.779 42.6591C214.779 41.7197 214.625 40.911 214.318 40.233C214.012 39.5511 213.553 39.0284 212.943 38.6648C212.334 38.2973 211.574 38.1136 210.665 38.1136H208.415V47.25ZM221.07 48.6818C220.282 48.6818 219.59 48.4943 218.996 48.1193C218.405 47.7443 217.943 47.2197 217.609 46.5455C217.28 45.8712 217.115 45.0833 217.115 44.1818C217.115 43.2727 217.28 42.4792 217.609 41.8011C217.943 41.1231 218.405 40.5966 218.996 40.2216C219.59 39.8466 220.282 39.6591 221.07 39.6591C221.857 39.6591 222.547 39.8466 223.138 40.2216C223.732 40.5966 224.195 41.1231 224.524 41.8011C224.857 42.4792 225.024 43.2727 225.024 44.1818C225.024 45.0833 224.857 45.8712 224.524 46.5455C224.195 47.2197 223.732 47.7443 223.138 48.1193C222.547 48.4943 221.857 48.6818 221.07 48.6818ZM221.07 47.4773C221.668 47.4773 222.161 47.3239 222.547 47.017C222.933 46.7102 223.219 46.3068 223.405 45.8068C223.59 45.3068 223.683 44.7652 223.683 44.1818C223.683 43.5985 223.59 43.0549 223.405 42.5511C223.219 42.0473 222.933 41.6402 222.547 41.3295C222.161 41.0189 221.668 40.8636 221.07 40.8636C220.471 40.8636 219.979 41.0189 219.592 41.3295C219.206 41.6402 218.92 42.0473 218.734 42.5511C218.549 43.0549 218.456 43.5985 218.456 44.1818C218.456 44.7652 218.549 45.3068 218.734 45.8068C218.92 46.3068 219.206 46.7102 219.592 47.017C219.979 47.3239 220.471 47.4773 221.07 47.4773ZM227.951 48.5L225.292 39.7727H226.701L228.588 46.4545H228.679L230.542 39.7727H231.974L233.815 46.4318H233.906L235.792 39.7727H237.201L234.542 48.5H233.224L231.315 41.7955H231.179L229.27 48.5H227.951ZM239.515 43.25V48.5H238.174V39.7727H239.47V41.1364H239.583C239.788 40.6932 240.098 40.3371 240.515 40.0682C240.932 39.7955 241.47 39.6591 242.129 39.6591C242.72 39.6591 243.237 39.7803 243.68 40.0227C244.123 40.2614 244.468 40.625 244.714 41.1136C244.96 41.5985 245.083 42.2121 245.083 42.9545V48.5H243.742V43.0455C243.742 42.3598 243.564 41.8258 243.208 41.4432C242.852 41.0568 242.364 40.8636 241.742 40.8636C241.314 40.8636 240.932 40.9564 240.595 41.142C240.261 41.3277 239.998 41.5985 239.805 41.9545C239.612 42.3106 239.515 42.7424 239.515 43.25ZM248.074 36.8636V48.5H246.734V36.8636H248.074ZM253.276 48.6818C252.488 48.6818 251.797 48.4943 251.202 48.1193C250.611 47.7443 250.149 47.2197 249.816 46.5455C249.486 45.8712 249.321 45.0833 249.321 44.1818C249.321 43.2727 249.486 42.4792 249.816 41.8011C250.149 41.1231 250.611 40.5966 251.202 40.2216C251.797 39.8466 252.488 39.6591 253.276 39.6591C254.064 39.6591 254.753 39.8466 255.344 40.2216C255.939 40.5966 256.401 41.1231 256.73 41.8011C257.064 42.4792 257.23 43.2727 257.23 44.1818C257.23 45.0833 257.064 45.8712 256.73 46.5455C256.401 47.2197 255.939 47.7443 255.344 48.1193C254.753 48.4943 254.064 48.6818 253.276 48.6818ZM253.276 47.4773C253.874 47.4773 254.367 47.3239 254.753 47.017C255.139 46.7102 255.425 46.3068 255.611 45.8068C255.797 45.3068 255.889 44.7652 255.889 44.1818C255.889 43.5985 255.797 43.0549 255.611 42.5511C255.425 42.0473 255.139 41.6402 254.753 41.3295C254.367 41.0189 253.874 40.8636 253.276 40.8636C252.677 40.8636 252.185 41.0189 251.799 41.3295C251.412 41.6402 251.126 42.0473 250.941 42.5511C250.755 43.0549 250.662 43.5985 250.662 44.1818C250.662 44.7652 250.755 45.3068 250.941 45.8068C251.126 46.3068 251.412 46.7102 251.799 47.017C252.185 47.3239 252.677 47.4773 253.276 47.4773ZM261.045 48.7045C260.492 48.7045 259.991 48.6004 259.54 48.392C259.089 48.1799 258.731 47.875 258.466 47.4773C258.201 47.0758 258.068 46.5909 258.068 46.0227C258.068 45.5227 258.167 45.1174 258.364 44.8068C258.561 44.4924 258.824 44.2462 259.153 44.0682C259.483 43.8902 259.847 43.7576 260.244 43.6705C260.646 43.5795 261.049 43.5076 261.455 43.4545C261.985 43.3864 262.415 43.3352 262.744 43.3011C263.078 43.2633 263.32 43.2008 263.472 43.1136C263.627 43.0265 263.705 42.875 263.705 42.6591V42.6136C263.705 42.053 263.551 41.6174 263.244 41.3068C262.941 40.9962 262.481 40.8409 261.864 40.8409C261.223 40.8409 260.722 40.9811 260.358 41.2614C259.994 41.5417 259.739 41.8409 259.591 42.1591L258.318 41.7045C258.545 41.1742 258.848 40.7614 259.227 40.4659C259.61 40.1667 260.027 39.9583 260.477 39.8409C260.932 39.7197 261.379 39.6591 261.818 39.6591C262.098 39.6591 262.42 39.6932 262.784 39.7614C263.152 39.8258 263.506 39.9602 263.847 40.1648C264.191 40.3693 264.477 40.678 264.705 41.0909C264.932 41.5038 265.045 42.0568 265.045 42.75V48.5H263.705V47.3182H263.636C263.545 47.5076 263.394 47.7102 263.182 47.9261C262.97 48.142 262.688 48.3258 262.335 48.4773C261.983 48.6288 261.553 48.7045 261.045 48.7045ZM261.25 47.5C261.78 47.5 262.227 47.3958 262.591 47.1875C262.958 46.9792 263.235 46.7102 263.42 46.3807C263.61 46.0511 263.705 45.7045 263.705 45.3409V44.1136C263.648 44.1818 263.523 44.2443 263.33 44.3011C263.14 44.3542 262.92 44.4015 262.67 44.4432C262.424 44.4811 262.184 44.5152 261.949 44.5455C261.718 44.572 261.53 44.5947 261.386 44.6136C261.038 44.6591 260.712 44.733 260.409 44.8352C260.11 44.9337 259.867 45.0833 259.682 45.2841C259.5 45.4811 259.409 45.75 259.409 46.0909C259.409 46.5568 259.581 46.9091 259.926 47.1477C260.275 47.3826 260.716 47.5 261.25 47.5ZM269.988 48.6818C269.261 48.6818 268.619 48.4981 268.062 48.1307C267.505 47.7595 267.07 47.2367 266.755 46.5625C266.441 45.8845 266.284 45.0833 266.284 44.1591C266.284 43.2424 266.441 42.447 266.755 41.7727C267.07 41.0985 267.507 40.5777 268.068 40.2102C268.629 39.8428 269.276 39.6591 270.011 39.6591C270.579 39.6591 271.028 39.7538 271.358 39.9432C271.691 40.1288 271.945 40.3409 272.119 40.5795C272.297 40.8144 272.435 41.0076 272.534 41.1591H272.647V36.8636H273.988V48.5H272.693V47.1591H272.534C272.435 47.3182 272.295 47.5189 272.113 47.7614C271.932 48 271.672 48.214 271.335 48.4034C270.998 48.589 270.549 48.6818 269.988 48.6818ZM270.17 47.4773C270.708 47.4773 271.163 47.3371 271.534 47.0568C271.905 46.7727 272.187 46.3807 272.38 45.8807C272.574 45.3769 272.67 44.7955 272.67 44.1364C272.67 43.4848 272.575 42.9148 272.386 42.4261C272.197 41.9337 271.916 41.5511 271.545 41.2784C271.174 41.0019 270.716 40.8636 270.17 40.8636C269.602 40.8636 269.129 41.0095 268.75 41.3011C268.375 41.589 268.093 41.9811 267.903 42.4773C267.718 42.9697 267.625 43.5227 267.625 44.1364C267.625 44.7576 267.719 45.322 267.909 45.8295C268.102 46.3333 268.386 46.7348 268.761 47.0341C269.14 47.3295 269.61 47.4773 270.17 47.4773Z" fill="white"/>
<circle cx="181.5" cy="43.5" r="16" fill="white"/>
<path fill-rule="evenodd" clip-rule="evenodd" d="M181 34.875C181.345 34.875 181.625 35.1548 181.625 35.5V45.2411L184.308 42.5581C184.552 42.314 184.948 42.314 185.192 42.5581C185.436 42.8022 185.436 43.1978 185.192 43.4419L181.442 47.1919C181.198 47.436 180.802 47.436 180.558 47.1919L176.808 43.4419C176.564 43.1978 176.564 42.8022 176.808 42.5581C177.052 42.314 177.448 42.314 177.692 42.5581L180.375 45.2411V35.5C180.375 35.1548 180.655 34.875 181 34.875ZM173.5 46.125C173.845 46.125 174.125 46.4048 174.125 46.75V48.625C174.125 49.3153 174.685 49.875 175.375 49.875H186.625C187.315 49.875 187.875 49.3153 187.875 48.625V46.75C187.875 46.4048 188.155 46.125 188.5 46.125C188.845 46.125 189.125 46.4048 189.125 46.75V48.625C189.125 50.0057 188.006 51.125 186.625 51.125H175.375C173.994 51.125 172.875 50.0057 172.875 48.625V46.75C172.875 46.4048 173.155 46.125 173.5 46.125Z" fill="#FF0E48"/>
</g>
<g filter="url(#filter3_dd_13_49)">
<rect x="14" y="88" width="40" height="40" rx="20" fill="#FEFEFE" shape-rendering="crispEdges"/>
<circle cx="34" cy="108" r="16" fill="#567FEF"/>
<path fill-rule="evenodd" clip-rule="evenodd" d="M28.25 102.711C28.25 101.522 29.5242 100.769 30.5655 101.342L40.1827 106.631C41.262 107.225 41.262 108.776 40.1827 109.369L30.5655 114.659C29.5242 115.232 28.25 114.478 28.25 113.29V102.711Z" fill="white"/>
</g>
<g filter="url(#filter4_dd_13_49)">
<rect x="78" y="88" width="48" height="48" rx="24" fill="url(#paint1_linear_13_49)" shape-rendering="crispEdges"/>
<circle cx="102" cy="112" r="20" fill="white"/>
<path fill-rule="evenodd" clip-rule="evenodd" d="M96.503 119.537C96.6494 119.563 96.7978 119.584 96.9474 119.598C97.1293 119.616 97.3137 119.625 97.5 119.625C98.5961 119.625 99.6204 119.311 100.486 118.768C101.131 118.919 101.806 119 102.5 119C106.935 119 110.625 115.692 110.625 111.5C110.625 107.308 106.935 104 102.5 104C98.065 104 94.375 107.308 94.375 111.5C94.375 113.507 95.2288 115.323 96.6031 116.66C96.7964 116.849 96.8342 117.016 96.8152 117.112C96.7104 117.64 96.4724 118.121 96.1363 118.518C95.9918 118.688 95.9494 118.923 96.0251 119.133C96.1008 119.344 96.283 119.497 96.503 119.537ZM99.375 110.562C98.8572 110.562 98.4375 110.982 98.4375 111.5C98.4375 112.018 98.8572 112.438 99.375 112.438C99.8928 112.438 100.312 112.018 100.312 111.5C100.312 110.982 99.8928 110.562 99.375 110.562ZM101.562 111.5C101.562 110.982 101.982 110.562 102.5 110.562C103.018 110.562 103.438 110.982 103.438 111.5C103.438 112.018 103.018 112.438 102.5 112.438C101.982 112.438 101.562 112.018 101.562 111.5ZM105.625 110.562C105.107 110.562 104.688 110.982 104.688 111.5C104.688 112.018 105.107 112.438 105.625 112.438C106.143 112.438 106.562 112.018 106.562 111.5C106.562 110.982 106.143 110.562 105.625 110.562Z" fill="#7A5BAD"/>
</g>
<rect x="0.5" y="0.5" width="432" height="159" rx="7.5" stroke="white" stroke-opacity="0.1"/>
<defs>
<filter id="filter0_dd_13_49" x="4.5" y="22" width="143" height="60" filterUnits="userSpaceOnUse" color-interpolation-filters="sRGB">
<feFlood flood-opacity="0" result="BackgroundImageFix"/>
<feColorMatrix in="SourceAlpha" type="matrix" values="0 0 0 0 0 0 0 0 0 0 0 0 0 0 0 0 0 0 127 0" result="hardAlpha"/>
<feOffset dy="8"/>
<feGaussianBlur stdDeviation="5"/>
<feComposite in2="hardAlpha" operator="out"/>
<feColorMatrix type="matrix" values="0 0 0 0 0.337255 0 0 0 0 0.498039 0 0 0 0 0.937255 0 0 0 0.25 0"/>
<feBlend mode="normal" in2="BackgroundImageFix" result="effect1_dropShadow_13_49"/>
<feColorMatrix in="SourceAlpha" type="matrix" values="0 0 0 0 0 0 0 0 0 0 0 0 0 0 0 0 0 0 127 0" result="hardAlpha"/>
<feOffset/>
<feGaussianBlur stdDeviation="1"/>
<feComposite in2="hardAlpha" operator="out"/>
<feColorMatrix type="matrix" values="0 0 0 0 0.337255 0 0 0 0 0.498039 0 0 0 0 0.937255 0 0 0 0.5 0"/>
<feBlend mode="normal" in2="effect1_dropShadow_13_49" result="effect2_dropShadow_13_49"/>
<feBlend mode="normal" in="SourceGraphic" in2="effect2_dropShadow_13_49" result="shape"/>
</filter>
<filter id="filter1_dd_13_49" x="306" y="22" width="113" height="60" filterUnits="userSpaceOnUse" color-interpolation-filters="sRGB">
<feFlood flood-opacity="0" result="BackgroundImageFix"/>
<feColorMatrix in="SourceAlpha" type="matrix" values="0 0 0 0 0 0 0 0 0 0 0 0 0 0 0 0 0 0 127 0" result="hardAlpha"/>
<feOffset dy="8"/>
<feGaussianBlur stdDeviation="5"/>
<feComposite in2="hardAlpha" operator="out"/>
<feColorMatrix type="matrix" values="0 0 0 0 0.0541667 0 0 0 0 0.60275 0 0 0 0 1 0 0 0 0.25 0"/>
<feBlend mode="normal" in2="BackgroundImageFix" result="effect1_dropShadow_13_49"/>
<feColorMatrix in="SourceAlpha" type="matrix" values="0 0 0 0 0 0 0 0 0 0 0 0 0 0 0 0 0 0 127 0" result="hardAlpha"/>
<feOffset/>
<feGaussianBlur stdDeviation="1"/>
<feComposite in2="hardAlpha" operator="out"/>
<feColorMatrix type="matrix" values="0 0 0 0 0.0541667 0 0 0 0 0.60275 0 0 0 0 1 0 0 0 0.5 0"/>
<feBlend mode="normal" in2="effect1_dropShadow_13_49" result="effect2_dropShadow_13_49"/>
<feBlend mode="normal" in="SourceGraphic" in2="effect2_dropShadow_13_49" result="shape"/>
</filter>
<filter id="filter2_dd_13_49" x="151.5" y="21.5" width="150" height="60" filterUnits="userSpaceOnUse" color-interpolation-filters="sRGB">
<feFlood flood-opacity="0" result="BackgroundImageFix"/>
<feColorMatrix in="SourceAlpha" type="matrix" values="0 0 0 0 0 0 0 0 0 0 0 0 0 0 0 0 0 0 127 0" result="hardAlpha"/>
<feOffset dy="8"/>
<feGaussianBlur stdDeviation="5"/>
<feComposite in2="hardAlpha" operator="out"/>
<feColorMatrix type="matrix" values="0 0 0 0 1 0 0 0 0 0.0541667 0 0 0 0 0.281167 0 0 0 0.25 0"/>
<feBlend mode="normal" in2="BackgroundImageFix" result="effect1_dropShadow_13_49"/>
<feColorMatrix in="SourceAlpha" type="matrix" values="0 0 0 0 0 0 0 0 0 0 0 0 0 0 0 0 0 0 127 0" result="hardAlpha"/>
<feOffset/>
<feGaussianBlur stdDeviation="1"/>
<feComposite in2="hardAlpha" operator="out"/>
<feColorMatrix type="matrix" values="0 0 0 0 1 0 0 0 0 0.0541667 0 0 0 0 0.281167 0 0 0 0.25 0"/>
<feBlend mode="normal" in2="effect1_dropShadow_13_49" result="effect2_dropShadow_13_49"/>
<feBlend mode="normal" in="SourceGraphic" in2="effect2_dropShadow_13_49" result="shape"/>
</filter>
<filter id="filter3_dd_13_49" x="4" y="86" width="60" height="60" filterUnits="userSpaceOnUse" color-interpolation-filters="sRGB">
<feFlood flood-opacity="0" result="BackgroundImageFix"/>
<feColorMatrix in="SourceAlpha" type="matrix" values="0 0 0 0 0 0 0 0 0 0 0 0 0 0 0 0 0 0 127 0" result="hardAlpha"/>
<feOffset dy="8"/>
<feGaussianBlur stdDeviation="5"/>
<feComposite in2="hardAlpha" operator="out"/>
<feColorMatrix type="matrix" values="0 0 0 0 0.337255 0 0 0 0 0.498039 0 0 0 0 0.937255 0 0 0 0.25 0"/>
<feBlend mode="normal" in2="BackgroundImageFix" result="effect1_dropShadow_13_49"/>
<feColorMatrix in="SourceAlpha" type="matrix" values="0 0 0 0 0 0 0 0 0 0 0 0 0 0 0 0 0 0 127 0" result="hardAlpha"/>
<feOffset/>
<feGaussianBlur stdDeviation="1"/>
<feComposite in2="hardAlpha" operator="out"/>
<feColorMatrix type="matrix" values="0 0 0 0 0.337255 0 0 0 0 0.498039 0 0 0 0 0.937255 0 0 0 0.5 0"/>
<feBlend mode="normal" in2="effect1_dropShadow_13_49" result="effect2_dropShadow_13_49"/>
<feBlend mode="normal" in="SourceGraphic" in2="effect2_dropShadow_13_49" result="shape"/>
</filter>
<filter id="filter4_dd_13_49" x="68" y="86" width="68" height="68" filterUnits="userSpaceOnUse" color-interpolation-filters="sRGB">
<feFlood flood-opacity="0" result="BackgroundImageFix"/>
<feColorMatrix in="SourceAlpha" type="matrix" values="0 0 0 0 0 0 0 0 0 0 0 0 0 0 0 0 0 0 127 0" result="hardAlpha"/>
<feOffset dy="8"/>
<feGaussianBlur stdDeviation="5"/>
<feComposite in2="hardAlpha" operator="out"/>
<feColorMatrix type="matrix" values="0 0 0 0 0.337255 0 0 0 0 0.498039 0 0 0 0 0.937255 0 0 0 0.25 0"/>
<feBlend mode="normal" in2="BackgroundImageFix" result="effect1_dropShadow_13_49"/>
<feColorMatrix in="SourceAlpha" type="matrix" values="0 0 0 0 0 0 0 0 0 0 0 0 0 0 0 0 0 0 127 0" result="hardAlpha"/>
<feOffset/>
<feGaussianBlur stdDeviation="1"/>
<feComposite in2="hardAlpha" operator="out"/>
<feColorMatrix type="matrix" values="0 0 0 0 0.337255 0 0 0 0 0.498039 0 0 0 0 0.937255 0 0 0 0.5 0"/>
<feBlend mode="normal" in2="effect1_dropShadow_13_49" result="effect2_dropShadow_13_49"/>
<feBlend mode="normal" in="SourceGraphic" in2="effect2_dropShadow_13_49" result="shape"/>
</filter>
<linearGradient id="paint0_linear_13_49" x1="321" y1="24" x2="402" y2="64" gradientUnits="userSpaceOnUse">
<stop stop-color="#FF0E48"/>
<stop offset="1" stop-color="#0E9AFF"/>
</linearGradient>
<linearGradient id="paint1_linear_13_49" x1="80.5806" y1="88" x2="130.338" y2="98.5683" gradientUnits="userSpaceOnUse">
<stop stop-color="#FF0E48"/>
<stop offset="1" stop-color="#0E9AFF"/>
</linearGradient>
</defs>
</svg>
