<svg width="324" height="132" viewBox="0 0 324 132" fill="none" xmlns="http://www.w3.org/2000/svg">
<rect width="324" height="132" rx="8" fill="#F0F0F0"/>
<path d="M69.4091 42V30.3636H70.8182V40.75H76.2273V42H69.4091ZM81.0864 42.1818C80.2455 42.1818 79.5201 41.9962 78.9102 41.625C78.3042 41.25 77.8364 40.7273 77.5068 40.0568C77.1811 39.3826 77.0182 38.5985 77.0182 37.7045C77.0182 36.8106 77.1811 36.0227 77.5068 35.3409C77.8364 34.6553 78.2947 34.1212 78.8818 33.7386C79.4727 33.3523 80.1621 33.1591 80.95 33.1591C81.4045 33.1591 81.8534 33.2348 82.2966 33.3864C82.7398 33.5379 83.1432 33.7841 83.5068 34.125C83.8705 34.4621 84.1602 34.9091 84.3761 35.4659C84.592 36.0227 84.7 36.7083 84.7 37.5227V38.0909H77.9727V36.9318H83.3364C83.3364 36.4394 83.2379 36 83.0409 35.6136C82.8477 35.2273 82.5712 34.9223 82.2114 34.6989C81.8553 34.4754 81.4348 34.3636 80.95 34.3636C80.4159 34.3636 79.9538 34.4962 79.5636 34.7614C79.1773 35.0227 78.8799 35.3636 78.6716 35.7841C78.4633 36.2045 78.3591 36.6553 78.3591 37.1364V37.9091C78.3591 38.5682 78.4727 39.1269 78.7 39.5852C78.9311 40.0398 79.2511 40.3864 79.6602 40.625C80.0693 40.8598 80.5447 40.9773 81.0864 40.9773C81.4386 40.9773 81.7568 40.928 82.0409 40.8295C82.3288 40.7273 82.5769 40.5758 82.7852 40.375C82.9936 40.1705 83.1545 39.9167 83.2682 39.6136L84.5636 39.9773C84.4273 40.4167 84.1981 40.803 83.8761 41.1364C83.5542 41.4659 83.1564 41.7235 82.683 41.9091C82.2095 42.0909 81.6773 42.1818 81.0864 42.1818ZM88.508 42.2045C87.9549 42.2045 87.453 42.1004 87.0023 41.892C86.5515 41.6799 86.1936 41.375 85.9284 40.9773C85.6633 40.5758 85.5307 40.0909 85.5307 39.5227C85.5307 39.0227 85.6292 38.6174 85.8261 38.3068C86.0231 37.9924 86.2864 37.7462 86.6159 37.5682C86.9455 37.3902 87.3091 37.2576 87.7068 37.1705C88.1083 37.0795 88.5117 37.0076 88.917 36.9545C89.4473 36.8864 89.8773 36.8352 90.2068 36.8011C90.5402 36.7633 90.7826 36.7008 90.9341 36.6136C91.0894 36.5265 91.167 36.375 91.167 36.1591V36.1136C91.167 35.553 91.0136 35.1174 90.7068 34.8068C90.4038 34.4962 89.9436 34.3409 89.3261 34.3409C88.686 34.3409 88.1841 34.4811 87.8205 34.7614C87.4568 35.0417 87.2011 35.3409 87.0534 35.6591L85.7807 35.2045C86.008 34.6742 86.311 34.2614 86.6898 33.9659C87.0723 33.6667 87.489 33.4583 87.9398 33.3409C88.3943 33.2197 88.8413 33.1591 89.2807 33.1591C89.561 33.1591 89.883 33.1932 90.2466 33.2614C90.614 33.3258 90.9682 33.4602 91.3091 33.6648C91.6538 33.8693 91.9398 34.178 92.167 34.5909C92.3943 35.0038 92.508 35.5568 92.508 36.25V42H91.167V40.8182H91.0989C91.008 41.0076 90.8564 41.2102 90.6443 41.4261C90.4322 41.642 90.15 41.8258 89.7977 41.9773C89.4455 42.1288 89.0155 42.2045 88.508 42.2045ZM88.7125 41C89.2428 41 89.6898 40.8958 90.0534 40.6875C90.4208 40.4792 90.6973 40.2102 90.883 39.8807C91.0723 39.5511 91.167 39.2045 91.167 38.8409V37.6136C91.1102 37.6818 90.9852 37.7443 90.792 37.8011C90.6027 37.8542 90.383 37.9015 90.133 37.9432C89.8867 37.9811 89.6462 38.0152 89.4114 38.0455C89.1803 38.072 88.9928 38.0947 88.8489 38.1136C88.5004 38.1591 88.1746 38.233 87.8716 38.3352C87.5723 38.4337 87.3299 38.5833 87.1443 38.7841C86.9625 38.9811 86.8716 39.25 86.8716 39.5909C86.8716 40.0568 87.0439 40.4091 87.3886 40.6477C87.7371 40.8826 88.1784 41 88.7125 41ZM94.1554 42V33.2727H95.4509V34.5909H95.5418C95.7009 34.1591 95.9887 33.8087 96.4054 33.5398C96.8221 33.2708 97.2918 33.1364 97.8145 33.1364C97.913 33.1364 98.0361 33.1383 98.1838 33.142C98.3315 33.1458 98.4433 33.1515 98.519 33.1591V34.5227C98.4736 34.5114 98.3694 34.4943 98.2065 34.4716C98.0474 34.4451 97.8789 34.4318 97.7009 34.4318C97.2766 34.4318 96.8978 34.5208 96.5645 34.6989C96.2349 34.8731 95.9736 35.1155 95.7804 35.4261C95.591 35.733 95.4963 36.0833 95.4963 36.4773V42H94.1554ZM100.649 36.75V42H99.3085V33.2727H100.604V34.6364H100.718C100.922 34.1932 101.233 33.8371 101.649 33.5682C102.066 33.2955 102.604 33.1591 103.263 33.1591C103.854 33.1591 104.371 33.2803 104.814 33.5227C105.257 33.7614 105.602 34.125 105.848 34.6136C106.095 35.0985 106.218 35.7121 106.218 36.4545V42H104.877V36.5455C104.877 35.8598 104.699 35.3258 104.343 34.9432C103.987 34.5568 103.498 34.3636 102.877 34.3636C102.449 34.3636 102.066 34.4564 101.729 34.642C101.396 34.8277 101.132 35.0985 100.939 35.4545C100.746 35.8106 100.649 36.2424 100.649 36.75ZM111.568 42V33.2727H112.863V34.6364H112.977C113.159 34.1705 113.452 33.8087 113.858 33.5511C114.263 33.2898 114.75 33.1591 115.318 33.1591C115.894 33.1591 116.373 33.2898 116.755 33.5511C117.142 33.8087 117.443 34.1705 117.659 34.6364H117.75C117.973 34.1856 118.308 33.8277 118.755 33.5625C119.202 33.2936 119.738 33.1591 120.363 33.1591C121.144 33.1591 121.782 33.4034 122.278 33.892C122.774 34.3769 123.022 35.1326 123.022 36.1591V42H121.682V36.1591C121.682 35.5152 121.505 35.0549 121.153 34.7784C120.801 34.5019 120.386 34.3636 119.909 34.3636C119.295 34.3636 118.82 34.5492 118.483 34.9205C118.146 35.2879 117.977 35.7538 117.977 36.3182V42H116.613V36.0227C116.613 35.5265 116.452 35.1269 116.13 34.8239C115.808 34.517 115.394 34.3636 114.886 34.3636C114.538 34.3636 114.212 34.4564 113.909 34.642C113.61 34.8277 113.367 35.0852 113.182 35.4148C113 35.7405 112.909 36.1174 112.909 36.5455V42H111.568ZM128.22 42.1818C127.432 42.1818 126.74 41.9943 126.146 41.6193C125.555 41.2443 125.093 40.7197 124.759 40.0455C124.43 39.3712 124.265 38.5833 124.265 37.6818C124.265 36.7727 124.43 35.9792 124.759 35.3011C125.093 34.6231 125.555 34.0966 126.146 33.7216C126.74 33.3466 127.432 33.1591 128.22 33.1591C129.007 33.1591 129.697 33.3466 130.288 33.7216C130.882 34.0966 131.345 34.6231 131.674 35.3011C132.007 35.9792 132.174 36.7727 132.174 37.6818C132.174 38.5833 132.007 39.3712 131.674 40.0455C131.345 40.7197 130.882 41.2443 130.288 41.6193C129.697 41.9943 129.007 42.1818 128.22 42.1818ZM128.22 40.9773C128.818 40.9773 129.311 40.8239 129.697 40.517C130.083 40.2102 130.369 39.8068 130.555 39.3068C130.74 38.8068 130.833 38.2652 130.833 37.6818C130.833 37.0985 130.74 36.5549 130.555 36.0511C130.369 35.5473 130.083 35.1402 129.697 34.8295C129.311 34.5189 128.818 34.3636 128.22 34.3636C127.621 34.3636 127.129 34.5189 126.742 34.8295C126.356 35.1402 126.07 35.5473 125.884 36.0511C125.699 36.5549 125.606 37.0985 125.606 37.6818C125.606 38.2652 125.699 38.8068 125.884 39.3068C126.07 39.8068 126.356 40.2102 126.742 40.517C127.129 40.8239 127.621 40.9773 128.22 40.9773ZM133.421 42V33.2727H134.716V34.5909H134.807C134.966 34.1591 135.254 33.8087 135.671 33.5398C136.088 33.2708 136.557 33.1364 137.08 33.1364C137.179 33.1364 137.302 33.1383 137.449 33.142C137.597 33.1458 137.709 33.1515 137.785 33.1591V34.5227C137.739 34.5114 137.635 34.4943 137.472 34.4716C137.313 34.4451 137.145 34.4318 136.966 34.4318C136.542 34.4318 136.163 34.5208 135.83 34.6989C135.501 34.8731 135.239 35.1155 135.046 35.4261C134.857 35.733 134.762 36.0833 134.762 36.4773V42H133.421ZM141.968 42.1818C141.127 42.1818 140.401 41.9962 139.791 41.625C139.185 41.25 138.718 40.7273 138.388 40.0568C138.062 39.3826 137.899 38.5985 137.899 37.7045C137.899 36.8106 138.062 36.0227 138.388 35.3409C138.718 34.6553 139.176 34.1212 139.763 33.7386C140.354 33.3523 141.043 33.1591 141.831 33.1591C142.286 33.1591 142.735 33.2348 143.178 33.3864C143.621 33.5379 144.024 33.7841 144.388 34.125C144.752 34.4621 145.041 34.9091 145.257 35.4659C145.473 36.0227 145.581 36.7083 145.581 37.5227V38.0909H138.854V36.9318H144.218C144.218 36.4394 144.119 36 143.922 35.6136C143.729 35.2273 143.452 34.9223 143.093 34.6989C142.737 34.4754 142.316 34.3636 141.831 34.3636C141.297 34.3636 140.835 34.4962 140.445 34.7614C140.059 35.0227 139.761 35.3636 139.553 35.7841C139.345 36.2045 139.24 36.6553 139.24 37.1364V37.9091C139.24 38.5682 139.354 39.1269 139.581 39.5852C139.812 40.0398 140.132 40.3864 140.541 40.625C140.951 40.8598 141.426 40.9773 141.968 40.9773C142.32 40.9773 142.638 40.928 142.922 40.8295C143.21 40.7273 143.458 40.5758 143.666 40.375C143.875 40.1705 144.036 39.9167 144.149 39.6136L145.445 39.9773C145.309 40.4167 145.079 40.803 144.757 41.1364C144.435 41.4659 144.038 41.7235 143.564 41.9091C143.091 42.0909 142.559 42.1818 141.968 42.1818Z" fill="#303030"/>
<rect x="24.5" y="20.5" width="31" height="31" rx="15.5" stroke="#303030" stroke-opacity="0.25"/>
<path fill-rule="evenodd" clip-rule="evenodd" d="M42.8535 35.6465C43.0488 35.8417 43.0488 36.1583 42.8535 36.3535L37.8536 41.3535C37.6583 41.5488 37.3417 41.5488 37.1464 41.3535C36.9512 41.1583 36.9512 40.8417 37.1464 40.6465L41.7929 36L37.1464 31.3536C36.9512 31.1583 36.9512 30.8417 37.1464 30.6464C37.3417 30.4512 37.6583 30.4512 37.8536 30.6464L42.8535 35.6465Z" fill="#303030"/>
<path d="M216.409 42V30.3636H217.818V40.75H223.227V42H216.409ZM228.086 42.1818C227.245 42.1818 226.52 41.9962 225.91 41.625C225.304 41.25 224.836 40.7273 224.507 40.0568C224.181 39.3826 224.018 38.5985 224.018 37.7045C224.018 36.8106 224.181 36.0227 224.507 35.3409C224.836 34.6553 225.295 34.1212 225.882 33.7386C226.473 33.3523 227.162 33.1591 227.95 33.1591C228.405 33.1591 228.853 33.2348 229.297 33.3864C229.74 33.5379 230.143 33.7841 230.507 34.125C230.87 34.4621 231.16 34.9091 231.376 35.4659C231.592 36.0227 231.7 36.7083 231.7 37.5227V38.0909H224.973V36.9318H230.336C230.336 36.4394 230.238 36 230.041 35.6136C229.848 35.2273 229.571 34.9223 229.211 34.6989C228.855 34.4754 228.435 34.3636 227.95 34.3636C227.416 34.3636 226.954 34.4962 226.564 34.7614C226.177 35.0227 225.88 35.3636 225.672 35.7841C225.463 36.2045 225.359 36.6553 225.359 37.1364V37.9091C225.359 38.5682 225.473 39.1269 225.7 39.5852C225.931 40.0398 226.251 40.3864 226.66 40.625C227.069 40.8598 227.545 40.9773 228.086 40.9773C228.439 40.9773 228.757 40.928 229.041 40.8295C229.329 40.7273 229.577 40.5758 229.785 40.375C229.994 40.1705 230.155 39.9167 230.268 39.6136L231.564 39.9773C231.427 40.4167 231.198 40.803 230.876 41.1364C230.554 41.4659 230.156 41.7235 229.683 41.9091C229.209 42.0909 228.677 42.1818 228.086 42.1818ZM235.508 42.2045C234.955 42.2045 234.453 42.1004 234.002 41.892C233.552 41.6799 233.194 41.375 232.928 40.9773C232.663 40.5758 232.531 40.0909 232.531 39.5227C232.531 39.0227 232.629 38.6174 232.826 38.3068C233.023 37.9924 233.286 37.7462 233.616 37.5682C233.945 37.3902 234.309 37.2576 234.707 37.1705C235.108 37.0795 235.512 37.0076 235.917 36.9545C236.447 36.8864 236.877 36.8352 237.207 36.8011C237.54 36.7633 237.783 36.7008 237.934 36.6136C238.089 36.5265 238.167 36.375 238.167 36.1591V36.1136C238.167 35.553 238.014 35.1174 237.707 34.8068C237.404 34.4962 236.944 34.3409 236.326 34.3409C235.686 34.3409 235.184 34.4811 234.82 34.7614C234.457 35.0417 234.201 35.3409 234.053 35.6591L232.781 35.2045C233.008 34.6742 233.311 34.2614 233.69 33.9659C234.072 33.6667 234.489 33.4583 234.94 33.3409C235.394 33.2197 235.841 33.1591 236.281 33.1591C236.561 33.1591 236.883 33.1932 237.247 33.2614C237.614 33.3258 237.968 33.4602 238.309 33.6648C238.654 33.8693 238.94 34.178 239.167 34.5909C239.394 35.0038 239.508 35.5568 239.508 36.25V42H238.167V40.8182H238.099C238.008 41.0076 237.856 41.2102 237.644 41.4261C237.432 41.642 237.15 41.8258 236.798 41.9773C236.445 42.1288 236.016 42.2045 235.508 42.2045ZM235.712 41C236.243 41 236.69 40.8958 237.053 40.6875C237.421 40.4792 237.697 40.2102 237.883 39.8807C238.072 39.5511 238.167 39.2045 238.167 38.8409V37.6136C238.11 37.6818 237.985 37.7443 237.792 37.8011C237.603 37.8542 237.383 37.9015 237.133 37.9432C236.887 37.9811 236.646 38.0152 236.411 38.0455C236.18 38.072 235.993 38.0947 235.849 38.1136C235.5 38.1591 235.175 38.233 234.872 38.3352C234.572 38.4337 234.33 38.5833 234.144 38.7841C233.962 38.9811 233.872 39.25 233.872 39.5909C233.872 40.0568 234.044 40.4091 234.389 40.6477C234.737 40.8826 235.178 41 235.712 41ZM241.155 42V33.2727H242.451V34.5909H242.542C242.701 34.1591 242.989 33.8087 243.405 33.5398C243.822 33.2708 244.292 33.1364 244.814 33.1364C244.913 33.1364 245.036 33.1383 245.184 33.142C245.332 33.1458 245.443 33.1515 245.519 33.1591V34.5227C245.474 34.5114 245.369 34.4943 245.207 34.4716C245.047 34.4451 244.879 34.4318 244.701 34.4318C244.277 34.4318 243.898 34.5208 243.564 34.6989C243.235 34.8731 242.974 35.1155 242.78 35.4261C242.591 35.733 242.496 36.0833 242.496 36.4773V42H241.155ZM247.649 36.75V42H246.309V33.2727H247.604V34.6364H247.718C247.922 34.1932 248.233 33.8371 248.649 33.5682C249.066 33.2955 249.604 33.1591 250.263 33.1591C250.854 33.1591 251.371 33.2803 251.814 33.5227C252.257 33.7614 252.602 34.125 252.848 34.6136C253.095 35.0985 253.218 35.7121 253.218 36.4545V42H251.877V36.5455C251.877 35.8598 251.699 35.3258 251.343 34.9432C250.987 34.5568 250.498 34.3636 249.877 34.3636C249.449 34.3636 249.066 34.4564 248.729 34.642C248.396 34.8277 248.132 35.0985 247.939 35.4545C247.746 35.8106 247.649 36.2424 247.649 36.75ZM258.568 42V33.2727H259.863V34.6364H259.977C260.159 34.1705 260.452 33.8087 260.858 33.5511C261.263 33.2898 261.75 33.1591 262.318 33.1591C262.894 33.1591 263.373 33.2898 263.755 33.5511C264.142 33.8087 264.443 34.1705 264.659 34.6364H264.75C264.973 34.1856 265.308 33.8277 265.755 33.5625C266.202 33.2936 266.738 33.1591 267.363 33.1591C268.144 33.1591 268.782 33.4034 269.278 33.892C269.774 34.3769 270.022 35.1326 270.022 36.1591V42H268.682V36.1591C268.682 35.5152 268.505 35.0549 268.153 34.7784C267.801 34.5019 267.386 34.3636 266.909 34.3636C266.295 34.3636 265.82 34.5492 265.483 34.9205C265.146 35.2879 264.977 35.7538 264.977 36.3182V42H263.613V36.0227C263.613 35.5265 263.452 35.1269 263.13 34.8239C262.808 34.517 262.394 34.3636 261.886 34.3636C261.538 34.3636 261.212 34.4564 260.909 34.642C260.61 34.8277 260.367 35.0852 260.182 35.4148C260 35.7405 259.909 36.1174 259.909 36.5455V42H258.568ZM275.22 42.1818C274.432 42.1818 273.74 41.9943 273.146 41.6193C272.555 41.2443 272.093 40.7197 271.759 40.0455C271.43 39.3712 271.265 38.5833 271.265 37.6818C271.265 36.7727 271.43 35.9792 271.759 35.3011C272.093 34.6231 272.555 34.0966 273.146 33.7216C273.74 33.3466 274.432 33.1591 275.22 33.1591C276.007 33.1591 276.697 33.3466 277.288 33.7216C277.882 34.0966 278.345 34.6231 278.674 35.3011C279.007 35.9792 279.174 36.7727 279.174 37.6818C279.174 38.5833 279.007 39.3712 278.674 40.0455C278.345 40.7197 277.882 41.2443 277.288 41.6193C276.697 41.9943 276.007 42.1818 275.22 42.1818ZM275.22 40.9773C275.818 40.9773 276.311 40.8239 276.697 40.517C277.083 40.2102 277.369 39.8068 277.555 39.3068C277.74 38.8068 277.833 38.2652 277.833 37.6818C277.833 37.0985 277.74 36.5549 277.555 36.0511C277.369 35.5473 277.083 35.1402 276.697 34.8295C276.311 34.5189 275.818 34.3636 275.22 34.3636C274.621 34.3636 274.129 34.5189 273.742 34.8295C273.356 35.1402 273.07 35.5473 272.884 36.0511C272.699 36.5549 272.606 37.0985 272.606 37.6818C272.606 38.2652 272.699 38.8068 272.884 39.3068C273.07 39.8068 273.356 40.2102 273.742 40.517C274.129 40.8239 274.621 40.9773 275.22 40.9773ZM280.421 42V33.2727H281.716V34.5909H281.807C281.966 34.1591 282.254 33.8087 282.671 33.5398C283.088 33.2708 283.557 33.1364 284.08 33.1364C284.179 33.1364 284.302 33.1383 284.449 33.142C284.597 33.1458 284.709 33.1515 284.785 33.1591V34.5227C284.739 34.5114 284.635 34.4943 284.472 34.4716C284.313 34.4451 284.145 34.4318 283.966 34.4318C283.542 34.4318 283.163 34.5208 282.83 34.6989C282.501 34.8731 282.239 35.1155 282.046 35.4261C281.857 35.733 281.762 36.0833 281.762 36.4773V42H280.421ZM288.968 42.1818C288.127 42.1818 287.401 41.9962 286.791 41.625C286.185 41.25 285.718 40.7273 285.388 40.0568C285.062 39.3826 284.899 38.5985 284.899 37.7045C284.899 36.8106 285.062 36.0227 285.388 35.3409C285.718 34.6553 286.176 34.1212 286.763 33.7386C287.354 33.3523 288.043 33.1591 288.831 33.1591C289.286 33.1591 289.735 33.2348 290.178 33.3864C290.621 33.5379 291.024 33.7841 291.388 34.125C291.752 34.4621 292.041 34.9091 292.257 35.4659C292.473 36.0227 292.581 36.7083 292.581 37.5227V38.0909H285.854V36.9318H291.218C291.218 36.4394 291.119 36 290.922 35.6136C290.729 35.2273 290.452 34.9223 290.093 34.6989C289.737 34.4754 289.316 34.3636 288.831 34.3636C288.297 34.3636 287.835 34.4962 287.445 34.7614C287.059 35.0227 286.761 35.3636 286.553 35.7841C286.345 36.2045 286.24 36.6553 286.24 37.1364V37.9091C286.24 38.5682 286.354 39.1269 286.581 39.5852C286.812 40.0398 287.132 40.3864 287.541 40.625C287.951 40.8598 288.426 40.9773 288.968 40.9773C289.32 40.9773 289.638 40.928 289.922 40.8295C290.21 40.7273 290.458 40.5758 290.666 40.375C290.875 40.1705 291.036 39.9167 291.149 39.6136L292.445 39.9773C292.309 40.4167 292.079 40.803 291.757 41.1364C291.435 41.4659 291.038 41.7235 290.564 41.9091C290.091 42.0909 289.559 42.1818 288.968 42.1818Z" fill="#303030" fill-opacity="0.5"/>
<rect x="171" y="20" width="32" height="32" rx="16" fill="#303030"/>
<rect x="171.5" y="20.5" width="31" height="31" rx="15.5" stroke="#303030" stroke-opacity="0.25"/>
<path fill-rule="evenodd" clip-rule="evenodd" d="M189.854 35.6465C190.049 35.8417 190.049 36.1583 189.854 36.3535L184.854 41.3535C184.658 41.5488 184.342 41.5488 184.146 41.3535C183.951 41.1583 183.951 40.8417 184.146 40.6465L188.793 36L184.146 31.3536C183.951 31.1583 183.951 30.8417 184.146 30.6464C184.342 30.4512 184.658 30.4512 184.854 30.6464L189.854 35.6465Z" fill="white"/>
<rect y="64" width="324" height="68" fill="#567FEF"/>
<path d="M69.4091 98V86.3636H70.8182V96.75H76.2273V98H69.4091ZM81.0864 98.1818C80.2455 98.1818 79.5201 97.9962 78.9102 97.625C78.3042 97.25 77.8364 96.7273 77.5068 96.0568C77.1811 95.3826 77.0182 94.5985 77.0182 93.7045C77.0182 92.8106 77.1811 92.0227 77.5068 91.3409C77.8364 90.6553 78.2947 90.1212 78.8818 89.7386C79.4727 89.3523 80.1621 89.1591 80.95 89.1591C81.4045 89.1591 81.8534 89.2348 82.2966 89.3864C82.7398 89.5379 83.1432 89.7841 83.5068 90.125C83.8705 90.4621 84.1602 90.9091 84.3761 91.4659C84.592 92.0227 84.7 92.7083 84.7 93.5227V94.0909H77.9727V92.9318H83.3364C83.3364 92.4394 83.2379 92 83.0409 91.6136C82.8477 91.2273 82.5712 90.9223 82.2114 90.6989C81.8553 90.4754 81.4348 90.3636 80.95 90.3636C80.4159 90.3636 79.9538 90.4962 79.5636 90.7614C79.1773 91.0227 78.8799 91.3636 78.6716 91.7841C78.4633 92.2045 78.3591 92.6553 78.3591 93.1364V93.9091C78.3591 94.5682 78.4727 95.1269 78.7 95.5852C78.9311 96.0398 79.2511 96.3864 79.6602 96.625C80.0693 96.8598 80.5447 96.9773 81.0864 96.9773C81.4386 96.9773 81.7568 96.928 82.0409 96.8295C82.3288 96.7273 82.5769 96.5758 82.7852 96.375C82.9936 96.1705 83.1545 95.9167 83.2682 95.6136L84.5636 95.9773C84.4273 96.4167 84.1981 96.803 83.8761 97.1364C83.5542 97.4659 83.1564 97.7235 82.683 97.9091C82.2095 98.0909 81.6773 98.1818 81.0864 98.1818ZM88.508 98.2045C87.9549 98.2045 87.453 98.1004 87.0023 97.892C86.5515 97.6799 86.1936 97.375 85.9284 96.9773C85.6633 96.5758 85.5307 96.0909 85.5307 95.5227C85.5307 95.0227 85.6292 94.6174 85.8261 94.3068C86.0231 93.9924 86.2864 93.7462 86.6159 93.5682C86.9455 93.3902 87.3091 93.2576 87.7068 93.1705C88.1083 93.0795 88.5117 93.0076 88.917 92.9545C89.4473 92.8864 89.8773 92.8352 90.2068 92.8011C90.5402 92.7633 90.7826 92.7008 90.9341 92.6136C91.0894 92.5265 91.167 92.375 91.167 92.1591V92.1136C91.167 91.553 91.0136 91.1174 90.7068 90.8068C90.4038 90.4962 89.9436 90.3409 89.3261 90.3409C88.686 90.3409 88.1841 90.4811 87.8205 90.7614C87.4568 91.0417 87.2011 91.3409 87.0534 91.6591L85.7807 91.2045C86.008 90.6742 86.311 90.2614 86.6898 89.9659C87.0723 89.6667 87.489 89.4583 87.9398 89.3409C88.3943 89.2197 88.8413 89.1591 89.2807 89.1591C89.561 89.1591 89.883 89.1932 90.2466 89.2614C90.614 89.3258 90.9682 89.4602 91.3091 89.6648C91.6538 89.8693 91.9398 90.178 92.167 90.5909C92.3943 91.0038 92.508 91.5568 92.508 92.25V98H91.167V96.8182H91.0989C91.008 97.0076 90.8564 97.2102 90.6443 97.4261C90.4322 97.642 90.15 97.8258 89.7977 97.9773C89.4455 98.1288 89.0155 98.2045 88.508 98.2045ZM88.7125 97C89.2428 97 89.6898 96.8958 90.0534 96.6875C90.4208 96.4792 90.6973 96.2102 90.883 95.8807C91.0723 95.5511 91.167 95.2045 91.167 94.8409V93.6136C91.1102 93.6818 90.9852 93.7443 90.792 93.8011C90.6027 93.8542 90.383 93.9015 90.133 93.9432C89.8867 93.9811 89.6462 94.0152 89.4114 94.0455C89.1803 94.072 88.9928 94.0947 88.8489 94.1136C88.5004 94.1591 88.1746 94.233 87.8716 94.3352C87.5723 94.4337 87.3299 94.5833 87.1443 94.7841C86.9625 94.9811 86.8716 95.25 86.8716 95.5909C86.8716 96.0568 87.0439 96.4091 87.3886 96.6477C87.7371 96.8826 88.1784 97 88.7125 97ZM94.1554 98V89.2727H95.4509V90.5909H95.5418C95.7009 90.1591 95.9887 89.8087 96.4054 89.5398C96.8221 89.2708 97.2918 89.1364 97.8145 89.1364C97.913 89.1364 98.0361 89.1383 98.1838 89.142C98.3315 89.1458 98.4433 89.1515 98.519 89.1591V90.5227C98.4736 90.5114 98.3694 90.4943 98.2065 90.4716C98.0474 90.4451 97.8789 90.4318 97.7009 90.4318C97.2766 90.4318 96.8978 90.5208 96.5645 90.6989C96.2349 90.8731 95.9736 91.1155 95.7804 91.4261C95.591 91.733 95.4963 92.0833 95.4963 92.4773V98H94.1554ZM100.649 92.75V98H99.3085V89.2727H100.604V90.6364H100.718C100.922 90.1932 101.233 89.8371 101.649 89.5682C102.066 89.2955 102.604 89.1591 103.263 89.1591C103.854 89.1591 104.371 89.2803 104.814 89.5227C105.257 89.7614 105.602 90.125 105.848 90.6136C106.095 91.0985 106.218 91.7121 106.218 92.4545V98H104.877V92.5455C104.877 91.8598 104.699 91.3258 104.343 90.9432C103.987 90.5568 103.498 90.3636 102.877 90.3636C102.449 90.3636 102.066 90.4564 101.729 90.642C101.396 90.8277 101.132 91.0985 100.939 91.4545C100.746 91.8106 100.649 92.2424 100.649 92.75ZM111.568 98V89.2727H112.863V90.6364H112.977C113.159 90.1705 113.452 89.8087 113.858 89.5511C114.263 89.2898 114.75 89.1591 115.318 89.1591C115.894 89.1591 116.373 89.2898 116.755 89.5511C117.142 89.8087 117.443 90.1705 117.659 90.6364H117.75C117.973 90.1856 118.308 89.8277 118.755 89.5625C119.202 89.2936 119.738 89.1591 120.363 89.1591C121.144 89.1591 121.782 89.4034 122.278 89.892C122.774 90.3769 123.022 91.1326 123.022 92.1591V98H121.682V92.1591C121.682 91.5152 121.505 91.0549 121.153 90.7784C120.801 90.5019 120.386 90.3636 119.909 90.3636C119.295 90.3636 118.82 90.5492 118.483 90.9205C118.146 91.2879 117.977 91.7538 117.977 92.3182V98H116.613V92.0227C116.613 91.5265 116.452 91.1269 116.13 90.8239C115.808 90.517 115.394 90.3636 114.886 90.3636C114.538 90.3636 114.212 90.4564 113.909 90.642C113.61 90.8277 113.367 91.0852 113.182 91.4148C113 91.7405 112.909 92.1174 112.909 92.5455V98H111.568ZM128.22 98.1818C127.432 98.1818 126.74 97.9943 126.146 97.6193C125.555 97.2443 125.093 96.7197 124.759 96.0455C124.43 95.3712 124.265 94.5833 124.265 93.6818C124.265 92.7727 124.43 91.9792 124.759 91.3011C125.093 90.6231 125.555 90.0966 126.146 89.7216C126.74 89.3466 127.432 89.1591 128.22 89.1591C129.007 89.1591 129.697 89.3466 130.288 89.7216C130.882 90.0966 131.345 90.6231 131.674 91.3011C132.007 91.9792 132.174 92.7727 132.174 93.6818C132.174 94.5833 132.007 95.3712 131.674 96.0455C131.345 96.7197 130.882 97.2443 130.288 97.6193C129.697 97.9943 129.007 98.1818 128.22 98.1818ZM128.22 96.9773C128.818 96.9773 129.311 96.8239 129.697 96.517C130.083 96.2102 130.369 95.8068 130.555 95.3068C130.74 94.8068 130.833 94.2652 130.833 93.6818C130.833 93.0985 130.74 92.5549 130.555 92.0511C130.369 91.5473 130.083 91.1402 129.697 90.8295C129.311 90.5189 128.818 90.3636 128.22 90.3636C127.621 90.3636 127.129 90.5189 126.742 90.8295C126.356 91.1402 126.07 91.5473 125.884 92.0511C125.699 92.5549 125.606 93.0985 125.606 93.6818C125.606 94.2652 125.699 94.8068 125.884 95.3068C126.07 95.8068 126.356 96.2102 126.742 96.517C127.129 96.8239 127.621 96.9773 128.22 96.9773ZM133.421 98V89.2727H134.716V90.5909H134.807C134.966 90.1591 135.254 89.8087 135.671 89.5398C136.088 89.2708 136.557 89.1364 137.08 89.1364C137.179 89.1364 137.302 89.1383 137.449 89.142C137.597 89.1458 137.709 89.1515 137.785 89.1591V90.5227C137.739 90.5114 137.635 90.4943 137.472 90.4716C137.313 90.4451 137.145 90.4318 136.966 90.4318C136.542 90.4318 136.163 90.5208 135.83 90.6989C135.501 90.8731 135.239 91.1155 135.046 91.4261C134.857 91.733 134.762 92.0833 134.762 92.4773V98H133.421ZM141.968 98.1818C141.127 98.1818 140.401 97.9962 139.791 97.625C139.185 97.25 138.718 96.7273 138.388 96.0568C138.062 95.3826 137.899 94.5985 137.899 93.7045C137.899 92.8106 138.062 92.0227 138.388 91.3409C138.718 90.6553 139.176 90.1212 139.763 89.7386C140.354 89.3523 141.043 89.1591 141.831 89.1591C142.286 89.1591 142.735 89.2348 143.178 89.3864C143.621 89.5379 144.024 89.7841 144.388 90.125C144.752 90.4621 145.041 90.9091 145.257 91.4659C145.473 92.0227 145.581 92.7083 145.581 93.5227V94.0909H138.854V92.9318H144.218C144.218 92.4394 144.119 92 143.922 91.6136C143.729 91.2273 143.452 90.9223 143.093 90.6989C142.737 90.4754 142.316 90.3636 141.831 90.3636C141.297 90.3636 140.835 90.4962 140.445 90.7614C140.059 91.0227 139.761 91.3636 139.553 91.7841C139.345 92.2045 139.24 92.6553 139.24 93.1364V93.9091C139.24 94.5682 139.354 95.1269 139.581 95.5852C139.812 96.0398 140.132 96.3864 140.541 96.625C140.951 96.8598 141.426 96.9773 141.968 96.9773C142.32 96.9773 142.638 96.928 142.922 96.8295C143.21 96.7273 143.458 96.5758 143.666 96.375C143.875 96.1705 144.036 95.9167 144.149 95.6136L145.445 95.9773C145.309 96.4167 145.079 96.803 144.757 97.1364C144.435 97.4659 144.038 97.7235 143.564 97.9091C143.091 98.0909 142.559 98.1818 141.968 98.1818Z" fill="white"/>
<rect x="24.5" y="76.5" width="31" height="31" rx="15.5" stroke="white" stroke-opacity="0.25"/>
<path fill-rule="evenodd" clip-rule="evenodd" d="M42.8535 91.6465C43.0488 91.8417 43.0488 92.1583 42.8535 92.3535L37.8536 97.3535C37.6583 97.5488 37.3417 97.5488 37.1464 97.3535C36.9512 97.1583 36.9512 96.8417 37.1464 96.6465L41.7929 92L37.1464 87.3536C36.9512 87.1583 36.9512 86.8417 37.1464 86.6464C37.3417 86.4512 37.6583 86.4512 37.8536 86.6464L42.8535 91.6465Z" fill="white"/>
<path d="M216.409 98V86.3636H217.818V96.75H223.227V98H216.409ZM228.086 98.1818C227.245 98.1818 226.52 97.9962 225.91 97.625C225.304 97.25 224.836 96.7273 224.507 96.0568C224.181 95.3826 224.018 94.5985 224.018 93.7045C224.018 92.8106 224.181 92.0227 224.507 91.3409C224.836 90.6553 225.295 90.1212 225.882 89.7386C226.473 89.3523 227.162 89.1591 227.95 89.1591C228.405 89.1591 228.853 89.2348 229.297 89.3864C229.74 89.5379 230.143 89.7841 230.507 90.125C230.87 90.4621 231.16 90.9091 231.376 91.4659C231.592 92.0227 231.7 92.7083 231.7 93.5227V94.0909H224.973V92.9318H230.336C230.336 92.4394 230.238 92 230.041 91.6136C229.848 91.2273 229.571 90.9223 229.211 90.6989C228.855 90.4754 228.435 90.3636 227.95 90.3636C227.416 90.3636 226.954 90.4962 226.564 90.7614C226.177 91.0227 225.88 91.3636 225.672 91.7841C225.463 92.2045 225.359 92.6553 225.359 93.1364V93.9091C225.359 94.5682 225.473 95.1269 225.7 95.5852C225.931 96.0398 226.251 96.3864 226.66 96.625C227.069 96.8598 227.545 96.9773 228.086 96.9773C228.439 96.9773 228.757 96.928 229.041 96.8295C229.329 96.7273 229.577 96.5758 229.785 96.375C229.994 96.1705 230.155 95.9167 230.268 95.6136L231.564 95.9773C231.427 96.4167 231.198 96.803 230.876 97.1364C230.554 97.4659 230.156 97.7235 229.683 97.9091C229.209 98.0909 228.677 98.1818 228.086 98.1818ZM235.508 98.2045C234.955 98.2045 234.453 98.1004 234.002 97.892C233.552 97.6799 233.194 97.375 232.928 96.9773C232.663 96.5758 232.531 96.0909 232.531 95.5227C232.531 95.0227 232.629 94.6174 232.826 94.3068C233.023 93.9924 233.286 93.7462 233.616 93.5682C233.945 93.3902 234.309 93.2576 234.707 93.1705C235.108 93.0795 235.512 93.0076 235.917 92.9545C236.447 92.8864 236.877 92.8352 237.207 92.8011C237.54 92.7633 237.783 92.7008 237.934 92.6136C238.089 92.5265 238.167 92.375 238.167 92.1591V92.1136C238.167 91.553 238.014 91.1174 237.707 90.8068C237.404 90.4962 236.944 90.3409 236.326 90.3409C235.686 90.3409 235.184 90.4811 234.82 90.7614C234.457 91.0417 234.201 91.3409 234.053 91.6591L232.781 91.2045C233.008 90.6742 233.311 90.2614 233.69 89.9659C234.072 89.6667 234.489 89.4583 234.94 89.3409C235.394 89.2197 235.841 89.1591 236.281 89.1591C236.561 89.1591 236.883 89.1932 237.247 89.2614C237.614 89.3258 237.968 89.4602 238.309 89.6648C238.654 89.8693 238.94 90.178 239.167 90.5909C239.394 91.0038 239.508 91.5568 239.508 92.25V98H238.167V96.8182H238.099C238.008 97.0076 237.856 97.2102 237.644 97.4261C237.432 97.642 237.15 97.8258 236.798 97.9773C236.445 98.1288 236.016 98.2045 235.508 98.2045ZM235.712 97C236.243 97 236.69 96.8958 237.053 96.6875C237.421 96.4792 237.697 96.2102 237.883 95.8807C238.072 95.5511 238.167 95.2045 238.167 94.8409V93.6136C238.11 93.6818 237.985 93.7443 237.792 93.8011C237.603 93.8542 237.383 93.9015 237.133 93.9432C236.887 93.9811 236.646 94.0152 236.411 94.0455C236.18 94.072 235.993 94.0947 235.849 94.1136C235.5 94.1591 235.175 94.233 234.872 94.3352C234.572 94.4337 234.33 94.5833 234.144 94.7841C233.962 94.9811 233.872 95.25 233.872 95.5909C233.872 96.0568 234.044 96.4091 234.389 96.6477C234.737 96.8826 235.178 97 235.712 97ZM241.155 98V89.2727H242.451V90.5909H242.542C242.701 90.1591 242.989 89.8087 243.405 89.5398C243.822 89.2708 244.292 89.1364 244.814 89.1364C244.913 89.1364 245.036 89.1383 245.184 89.142C245.332 89.1458 245.443 89.1515 245.519 89.1591V90.5227C245.474 90.5114 245.369 90.4943 245.207 90.4716C245.047 90.4451 244.879 90.4318 244.701 90.4318C244.277 90.4318 243.898 90.5208 243.564 90.6989C243.235 90.8731 242.974 91.1155 242.78 91.4261C242.591 91.733 242.496 92.0833 242.496 92.4773V98H241.155ZM247.649 92.75V98H246.309V89.2727H247.604V90.6364H247.718C247.922 90.1932 248.233 89.8371 248.649 89.5682C249.066 89.2955 249.604 89.1591 250.263 89.1591C250.854 89.1591 251.371 89.2803 251.814 89.5227C252.257 89.7614 252.602 90.125 252.848 90.6136C253.095 91.0985 253.218 91.7121 253.218 92.4545V98H251.877V92.5455C251.877 91.8598 251.699 91.3258 251.343 90.9432C250.987 90.5568 250.498 90.3636 249.877 90.3636C249.449 90.3636 249.066 90.4564 248.729 90.642C248.396 90.8277 248.132 91.0985 247.939 91.4545C247.746 91.8106 247.649 92.2424 247.649 92.75ZM258.568 98V89.2727H259.863V90.6364H259.977C260.159 90.1705 260.452 89.8087 260.858 89.5511C261.263 89.2898 261.75 89.1591 262.318 89.1591C262.894 89.1591 263.373 89.2898 263.755 89.5511C264.142 89.8087 264.443 90.1705 264.659 90.6364H264.75C264.973 90.1856 265.308 89.8277 265.755 89.5625C266.202 89.2936 266.738 89.1591 267.363 89.1591C268.144 89.1591 268.782 89.4034 269.278 89.892C269.774 90.3769 270.022 91.1326 270.022 92.1591V98H268.682V92.1591C268.682 91.5152 268.505 91.0549 268.153 90.7784C267.801 90.5019 267.386 90.3636 266.909 90.3636C266.295 90.3636 265.82 90.5492 265.483 90.9205C265.146 91.2879 264.977 91.7538 264.977 92.3182V98H263.613V92.0227C263.613 91.5265 263.452 91.1269 263.13 90.8239C262.808 90.517 262.394 90.3636 261.886 90.3636C261.538 90.3636 261.212 90.4564 260.909 90.642C260.61 90.8277 260.367 91.0852 260.182 91.4148C260 91.7405 259.909 92.1174 259.909 92.5455V98H258.568ZM275.22 98.1818C274.432 98.1818 273.74 97.9943 273.146 97.6193C272.555 97.2443 272.093 96.7197 271.759 96.0455C271.43 95.3712 271.265 94.5833 271.265 93.6818C271.265 92.7727 271.43 91.9792 271.759 91.3011C272.093 90.6231 272.555 90.0966 273.146 89.7216C273.74 89.3466 274.432 89.1591 275.22 89.1591C276.007 89.1591 276.697 89.3466 277.288 89.7216C277.882 90.0966 278.345 90.6231 278.674 91.3011C279.007 91.9792 279.174 92.7727 279.174 93.6818C279.174 94.5833 279.007 95.3712 278.674 96.0455C278.345 96.7197 277.882 97.2443 277.288 97.6193C276.697 97.9943 276.007 98.1818 275.22 98.1818ZM275.22 96.9773C275.818 96.9773 276.311 96.8239 276.697 96.517C277.083 96.2102 277.369 95.8068 277.555 95.3068C277.74 94.8068 277.833 94.2652 277.833 93.6818C277.833 93.0985 277.74 92.5549 277.555 92.0511C277.369 91.5473 277.083 91.1402 276.697 90.8295C276.311 90.5189 275.818 90.3636 275.22 90.3636C274.621 90.3636 274.129 90.5189 273.742 90.8295C273.356 91.1402 273.07 91.5473 272.884 92.0511C272.699 92.5549 272.606 93.0985 272.606 93.6818C272.606 94.2652 272.699 94.8068 272.884 95.3068C273.07 95.8068 273.356 96.2102 273.742 96.517C274.129 96.8239 274.621 96.9773 275.22 96.9773ZM280.421 98V89.2727H281.716V90.5909H281.807C281.966 90.1591 282.254 89.8087 282.671 89.5398C283.088 89.2708 283.557 89.1364 284.08 89.1364C284.179 89.1364 284.302 89.1383 284.449 89.142C284.597 89.1458 284.709 89.1515 284.785 89.1591V90.5227C284.739 90.5114 284.635 90.4943 284.472 90.4716C284.313 90.4451 284.145 90.4318 283.966 90.4318C283.542 90.4318 283.163 90.5208 282.83 90.6989C282.501 90.8731 282.239 91.1155 282.046 91.4261C281.857 91.733 281.762 92.0833 281.762 92.4773V98H280.421ZM288.968 98.1818C288.127 98.1818 287.401 97.9962 286.791 97.625C286.185 97.25 285.718 96.7273 285.388 96.0568C285.062 95.3826 284.899 94.5985 284.899 93.7045C284.899 92.8106 285.062 92.0227 285.388 91.3409C285.718 90.6553 286.176 90.1212 286.763 89.7386C287.354 89.3523 288.043 89.1591 288.831 89.1591C289.286 89.1591 289.735 89.2348 290.178 89.3864C290.621 89.5379 291.024 89.7841 291.388 90.125C291.752 90.4621 292.041 90.9091 292.257 91.4659C292.473 92.0227 292.581 92.7083 292.581 93.5227V94.0909H285.854V92.9318H291.218C291.218 92.4394 291.119 92 290.922 91.6136C290.729 91.2273 290.452 90.9223 290.093 90.6989C289.737 90.4754 289.316 90.3636 288.831 90.3636C288.297 90.3636 287.835 90.4962 287.445 90.7614C287.059 91.0227 286.761 91.3636 286.553 91.7841C286.345 92.2045 286.24 92.6553 286.24 93.1364V93.9091C286.24 94.5682 286.354 95.1269 286.581 95.5852C286.812 96.0398 287.132 96.3864 287.541 96.625C287.951 96.8598 288.426 96.9773 288.968 96.9773C289.32 96.9773 289.638 96.928 289.922 96.8295C290.21 96.7273 290.458 96.5758 290.666 96.375C290.875 96.1705 291.036 95.9167 291.149 95.6136L292.445 95.9773C292.309 96.4167 292.079 96.803 291.757 97.1364C291.435 97.4659 291.038 97.7235 290.564 97.9091C290.091 98.0909 289.559 98.1818 288.968 98.1818Z" fill="white" fill-opacity="0.5"/>
<rect x="171" y="76" width="32" height="32" rx="16" fill="white"/>
<rect x="171.5" y="76.5" width="31" height="31" rx="15.5" stroke="white" stroke-opacity="0.25"/>
<path fill-rule="evenodd" clip-rule="evenodd" d="M189.854 91.6465C190.049 91.8417 190.049 92.1583 189.854 92.3535L184.854 97.3535C184.658 97.5488 184.342 97.5488 184.146 97.3535C183.951 97.1583 183.951 96.8417 184.146 96.6465L188.793 92L184.146 87.3536C183.951 87.1583 183.951 86.8417 184.146 86.6464C184.342 86.4512 184.658 86.4512 184.854 86.6464L189.854 91.6465Z" fill="#303030"/>
<rect x="0.5" y="0.5" width="323" height="131" rx="7.5" stroke="white" stroke-opacity="0.1"/>
</svg>
