<svg width="530" height="160" viewBox="0 0 530 160" fill="none" xmlns="http://www.w3.org/2000/svg">
<rect width="530" height="160" rx="8" fill="#F0F0F0"/>
<g filter="url(#filter0_dd_13_45)">
<rect x="25" y="24" width="102" height="40" rx="8" fill="#FEFEFE" shape-rendering="crispEdges"/>
<path d="M46.0969 49H42.506V37.3636H46.256C47.3848 37.3636 48.3507 37.5966 49.1537 38.0625C49.9567 38.5246 50.5723 39.1894 51.0003 40.0568C51.4283 40.9205 51.6423 41.9545 51.6423 43.1591C51.6423 44.3712 51.4264 45.4148 50.9946 46.2898C50.5628 47.161 49.934 47.8314 49.1082 48.3011C48.2825 48.767 47.2787 49 46.0969 49ZM43.9151 47.75H46.006C46.9681 47.75 47.7654 47.5644 48.398 47.1932C49.0306 46.822 49.5022 46.2936 49.8128 45.608C50.1234 44.9223 50.2787 44.1061 50.2787 43.1591C50.2787 42.2197 50.1253 41.411 49.8185 40.733C49.5116 40.0511 49.0533 39.5284 48.4435 39.1648C47.8336 38.7973 47.0741 38.6136 46.1651 38.6136H43.9151V47.75ZM56.5696 49.1818C55.7817 49.1818 55.0904 48.9943 54.4957 48.6193C53.9048 48.2443 53.4427 47.7197 53.1094 47.0455C52.7798 46.3712 52.6151 45.5833 52.6151 44.6818C52.6151 43.7727 52.7798 42.9792 53.1094 42.3011C53.4427 41.6231 53.9048 41.0966 54.4957 40.7216C55.0904 40.3466 55.7817 40.1591 56.5696 40.1591C57.3575 40.1591 58.0469 40.3466 58.6378 40.7216C59.2325 41.0966 59.6946 41.6231 60.0241 42.3011C60.3575 42.9792 60.5241 43.7727 60.5241 44.6818C60.5241 45.5833 60.3575 46.3712 60.0241 47.0455C59.6946 47.7197 59.2325 48.2443 58.6378 48.6193C58.0469 48.9943 57.3575 49.1818 56.5696 49.1818ZM56.5696 47.9773C57.1681 47.9773 57.6605 47.8239 58.0469 47.517C58.4332 47.2102 58.7192 46.8068 58.9048 46.3068C59.0904 45.8068 59.1832 45.2652 59.1832 44.6818C59.1832 44.0985 59.0904 43.5549 58.9048 43.0511C58.7192 42.5473 58.4332 42.1402 58.0469 41.8295C57.6605 41.5189 57.1681 41.3636 56.5696 41.3636C55.9711 41.3636 55.4787 41.5189 55.0923 41.8295C54.706 42.1402 54.42 42.5473 54.2344 43.0511C54.0488 43.5549 53.956 44.0985 53.956 44.6818C53.956 45.2652 54.0488 45.8068 54.2344 46.3068C54.42 46.8068 54.706 47.2102 55.0923 47.517C55.4787 47.8239 55.9711 47.9773 56.5696 47.9773ZM63.4514 49L60.7923 40.2727H62.2014L64.0878 46.9545H64.1787L66.0423 40.2727H67.4741L69.3151 46.9318H69.406L71.2923 40.2727H72.7014L70.0423 49H68.7241L66.8151 42.2955H66.6787L64.7696 49H63.4514ZM75.0151 43.75V49H73.6741V40.2727H74.9696V41.6364H75.0832C75.2878 41.1932 75.5984 40.8371 76.0151 40.5682C76.4317 40.2955 76.9696 40.1591 77.6287 40.1591C78.2196 40.1591 78.7366 40.2803 79.1798 40.5227C79.623 40.7614 79.9677 41.125 80.2139 41.6136C80.4601 42.0985 80.5832 42.7121 80.5832 43.4545V49H79.2423V43.5455C79.2423 42.8598 79.0643 42.3258 78.7082 41.9432C78.3522 41.5568 77.8635 41.3636 77.2423 41.3636C76.8143 41.3636 76.4317 41.4564 76.0946 41.642C75.7613 41.8277 75.498 42.0985 75.3048 42.4545C75.1116 42.8106 75.0151 43.2424 75.0151 43.75ZM83.5744 37.3636V49H82.2335V37.3636H83.5744ZM88.7759 49.1818C87.988 49.1818 87.2967 48.9943 86.702 48.6193C86.1111 48.2443 85.649 47.7197 85.3156 47.0455C84.9861 46.3712 84.8213 45.5833 84.8213 44.6818C84.8213 43.7727 84.9861 42.9792 85.3156 42.3011C85.649 41.6231 86.1111 41.0966 86.702 40.7216C87.2967 40.3466 87.988 40.1591 88.7759 40.1591C89.5637 40.1591 90.2531 40.3466 90.844 40.7216C91.4387 41.0966 91.9009 41.6231 92.2304 42.3011C92.5637 42.9792 92.7304 43.7727 92.7304 44.6818C92.7304 45.5833 92.5637 46.3712 92.2304 47.0455C91.9009 47.7197 91.4387 48.2443 90.844 48.6193C90.2531 48.9943 89.5637 49.1818 88.7759 49.1818ZM88.7759 47.9773C89.3743 47.9773 89.8668 47.8239 90.2531 47.517C90.6395 47.2102 90.9255 46.8068 91.1111 46.3068C91.2967 45.8068 91.3895 45.2652 91.3895 44.6818C91.3895 44.0985 91.2967 43.5549 91.1111 43.0511C90.9255 42.5473 90.6395 42.1402 90.2531 41.8295C89.8668 41.5189 89.3743 41.3636 88.7759 41.3636C88.1774 41.3636 87.6849 41.5189 87.2986 41.8295C86.9122 42.1402 86.6262 42.5473 86.4406 43.0511C86.255 43.5549 86.1622 44.0985 86.1622 44.6818C86.1622 45.2652 86.255 45.8068 86.4406 46.3068C86.6262 46.8068 86.9122 47.2102 87.2986 47.517C87.6849 47.8239 88.1774 47.9773 88.7759 47.9773ZM96.5455 49.2045C95.9924 49.2045 95.4905 49.1004 95.0398 48.892C94.589 48.6799 94.2311 48.375 93.9659 47.9773C93.7008 47.5758 93.5682 47.0909 93.5682 46.5227C93.5682 46.0227 93.6667 45.6174 93.8636 45.3068C94.0606 44.9924 94.3239 44.7462 94.6534 44.5682C94.983 44.3902 95.3466 44.2576 95.7443 44.1705C96.1458 44.0795 96.5492 44.0076 96.9545 43.9545C97.4848 43.8864 97.9148 43.8352 98.2443 43.8011C98.5777 43.7633 98.8201 43.7008 98.9716 43.6136C99.1269 43.5265 99.2045 43.375 99.2045 43.1591V43.1136C99.2045 42.553 99.0511 42.1174 98.7443 41.8068C98.4413 41.4962 97.9811 41.3409 97.3636 41.3409C96.7235 41.3409 96.2216 41.4811 95.858 41.7614C95.4943 42.0417 95.2386 42.3409 95.0909 42.6591L93.8182 42.2045C94.0455 41.6742 94.3485 41.2614 94.7273 40.9659C95.1098 40.6667 95.5265 40.4583 95.9773 40.3409C96.4318 40.2197 96.8788 40.1591 97.3182 40.1591C97.5985 40.1591 97.9205 40.1932 98.2841 40.2614C98.6515 40.3258 99.0057 40.4602 99.3466 40.6648C99.6913 40.8693 99.9773 41.178 100.205 41.5909C100.432 42.0038 100.545 42.5568 100.545 43.25V49H99.2045V47.8182H99.1364C99.0455 48.0076 98.8939 48.2102 98.6818 48.4261C98.4697 48.642 98.1875 48.8258 97.8352 48.9773C97.483 49.1288 97.053 49.2045 96.5455 49.2045ZM96.75 48C97.2803 48 97.7273 47.8958 98.0909 47.6875C98.4583 47.4792 98.7348 47.2102 98.9205 46.8807C99.1098 46.5511 99.2045 46.2045 99.2045 45.8409V44.6136C99.1477 44.6818 99.0227 44.7443 98.8295 44.8011C98.6402 44.8542 98.4205 44.9015 98.1705 44.9432C97.9242 44.9811 97.6837 45.0152 97.4489 45.0455C97.2178 45.072 97.0303 45.0947 96.8864 45.1136C96.5379 45.1591 96.2121 45.233 95.9091 45.3352C95.6098 45.4337 95.3674 45.5833 95.1818 45.7841C95 45.9811 94.9091 46.25 94.9091 46.5909C94.9091 47.0568 95.0814 47.4091 95.4261 47.6477C95.7746 47.8826 96.2159 48 96.75 48ZM105.488 49.1818C104.761 49.1818 104.119 48.9981 103.562 48.6307C103.005 48.2595 102.57 47.7367 102.255 47.0625C101.941 46.3845 101.784 45.5833 101.784 44.6591C101.784 43.7424 101.941 42.947 102.255 42.2727C102.57 41.5985 103.007 41.0777 103.568 40.7102C104.129 40.3428 104.776 40.1591 105.511 40.1591C106.079 40.1591 106.528 40.2538 106.858 40.4432C107.191 40.6288 107.445 40.8409 107.619 41.0795C107.797 41.3144 107.935 41.5076 108.034 41.6591H108.147V37.3636H109.488V49H108.193V47.6591H108.034C107.935 47.8182 107.795 48.0189 107.613 48.2614C107.432 48.5 107.172 48.714 106.835 48.9034C106.498 49.089 106.049 49.1818 105.488 49.1818ZM105.67 47.9773C106.208 47.9773 106.663 47.8371 107.034 47.5568C107.405 47.2727 107.687 46.8807 107.88 46.3807C108.074 45.8769 108.17 45.2955 108.17 44.6364C108.17 43.9848 108.075 43.4148 107.886 42.9261C107.697 42.4337 107.416 42.0511 107.045 41.7784C106.674 41.5019 106.216 41.3636 105.67 41.3636C105.102 41.3636 104.629 41.5095 104.25 41.8011C103.875 42.089 103.593 42.4811 103.403 42.9773C103.218 43.4697 103.125 44.0227 103.125 44.6364C103.125 45.2576 103.219 45.822 103.409 46.3295C103.602 46.8333 103.886 47.2348 104.261 47.5341C104.64 47.8295 105.11 47.9773 105.67 47.9773Z" fill="#567FEF"/>
</g>
<path d="M407.781 39.1136V37.8636H416.508V39.1136H412.849V49.5H411.44V39.1136H407.781ZM416.794 49.5V40.7727H418.09V42.0909H418.181C418.34 41.6591 418.628 41.3087 419.044 41.0398C419.461 40.7708 419.931 40.6364 420.454 40.6364C420.552 40.6364 420.675 40.6383 420.823 40.642C420.971 40.6458 421.082 40.6515 421.158 40.6591V42.0227C421.113 42.0114 421.008 41.9943 420.846 41.9716C420.687 41.9451 420.518 41.9318 420.34 41.9318C419.916 41.9318 419.537 42.0208 419.204 42.1989C418.874 42.3731 418.613 42.6155 418.419 42.9261C418.23 43.233 418.135 43.5833 418.135 43.9773V49.5H416.794ZM424.516 49.7045C423.963 49.7045 423.461 49.6004 423.01 49.392C422.559 49.1799 422.201 48.875 421.936 48.4773C421.671 48.0758 421.538 47.5909 421.538 47.0227C421.538 46.5227 421.637 46.1174 421.834 45.8068C422.031 45.4924 422.294 45.2462 422.624 45.0682C422.953 44.8902 423.317 44.7576 423.715 44.6705C424.116 44.5795 424.52 44.5076 424.925 44.4545C425.455 44.3864 425.885 44.3352 426.215 44.3011C426.548 44.2633 426.79 44.2008 426.942 44.1136C427.097 44.0265 427.175 43.875 427.175 43.6591V43.6136C427.175 43.053 427.021 42.6174 426.715 42.3068C426.412 41.9962 425.951 41.8409 425.334 41.8409C424.694 41.8409 424.192 41.9811 423.828 42.2614C423.465 42.5417 423.209 42.8409 423.061 43.1591L421.788 42.7045C422.016 42.1742 422.319 41.7614 422.698 41.4659C423.08 41.1667 423.497 40.9583 423.948 40.8409C424.402 40.7197 424.849 40.6591 425.288 40.6591C425.569 40.6591 425.891 40.6932 426.254 40.7614C426.622 40.8258 426.976 40.9602 427.317 41.1648C427.662 41.3693 427.948 41.678 428.175 42.0909C428.402 42.5038 428.516 43.0568 428.516 43.75V49.5H427.175V48.3182H427.107C427.016 48.5076 426.864 48.7102 426.652 48.9261C426.44 49.142 426.158 49.3258 425.806 49.4773C425.453 49.6288 425.023 49.7045 424.516 49.7045ZM424.72 48.5C425.251 48.5 425.698 48.3958 426.061 48.1875C426.429 47.9792 426.705 47.7102 426.891 47.3807C427.08 47.0511 427.175 46.7045 427.175 46.3409V45.1136C427.118 45.1818 426.993 45.2443 426.8 45.3011C426.61 45.3542 426.391 45.4015 426.141 45.4432C425.895 45.4811 425.654 45.5152 425.419 45.5455C425.188 45.572 425.001 45.5947 424.857 45.6136C424.508 45.6591 424.182 45.733 423.879 45.8352C423.58 45.9337 423.338 46.0833 423.152 46.2841C422.97 46.4811 422.879 46.75 422.879 47.0909C422.879 47.5568 423.052 47.9091 423.396 48.1477C423.745 48.3826 424.186 48.5 424.72 48.5ZM431.504 44.25V49.5H430.163V40.7727H431.459V42.1364H431.572C431.777 41.6932 432.087 41.3371 432.504 41.0682C432.921 40.7955 433.459 40.6591 434.118 40.6591C434.709 40.6591 435.226 40.7803 435.669 41.0227C436.112 41.2614 436.457 41.625 436.703 42.1136C436.949 42.5985 437.072 43.2121 437.072 43.9545V49.5H435.731V44.0455C435.731 43.3598 435.553 42.8258 435.197 42.4432C434.841 42.0568 434.353 41.8636 433.731 41.8636C433.303 41.8636 432.921 41.9564 432.584 42.142C432.25 42.3277 431.987 42.5985 431.794 42.9545C431.601 43.3106 431.504 43.7424 431.504 44.25ZM444.904 42.7273L443.7 43.0682C443.624 42.8674 443.512 42.6723 443.365 42.483C443.221 42.2898 443.024 42.1307 442.774 42.0057C442.524 41.8807 442.204 41.8182 441.813 41.8182C441.279 41.8182 440.834 41.9413 440.478 42.1875C440.126 42.4299 439.95 42.7386 439.95 43.1136C439.95 43.447 440.071 43.7102 440.313 43.9034C440.556 44.0966 440.935 44.2576 441.45 44.3864L442.745 44.7045C443.526 44.8939 444.107 45.1837 444.49 45.5739C444.872 45.9602 445.063 46.4583 445.063 47.0682C445.063 47.5682 444.92 48.0152 444.632 48.4091C444.348 48.803 443.95 49.1136 443.438 49.3409C442.927 49.5682 442.332 49.6818 441.654 49.6818C440.764 49.6818 440.028 49.4886 439.444 49.1023C438.861 48.7159 438.492 48.1515 438.336 47.4091L439.609 47.0909C439.73 47.5606 439.959 47.9129 440.296 48.1477C440.637 48.3826 441.082 48.5 441.632 48.5C442.257 48.5 442.753 48.3674 443.12 48.1023C443.492 47.8333 443.677 47.5114 443.677 47.1364C443.677 46.8333 443.571 46.5795 443.359 46.375C443.147 46.1667 442.821 46.0114 442.382 45.9091L440.927 45.5682C440.128 45.3788 439.541 45.0852 439.166 44.6875C438.795 44.286 438.609 43.7841 438.609 43.1818C438.609 42.6894 438.747 42.2538 439.024 41.875C439.304 41.4962 439.685 41.1989 440.166 40.983C440.651 40.767 441.2 40.6591 441.813 40.6591C442.677 40.6591 443.355 40.8485 443.848 41.2273C444.344 41.6061 444.696 42.1061 444.904 42.7273ZM446.282 52.7727V40.7727H447.577V42.1591H447.737C447.835 42.0076 447.971 41.8144 448.146 41.5795C448.324 41.3409 448.577 41.1288 448.907 40.9432C449.24 40.7538 449.691 40.6591 450.259 40.6591C450.994 40.6591 451.642 40.8428 452.202 41.2102C452.763 41.5777 453.201 42.0985 453.515 42.7727C453.829 43.447 453.987 44.2424 453.987 45.1591C453.987 46.0833 453.829 46.8845 453.515 47.5625C453.201 48.2367 452.765 48.7595 452.208 49.1307C451.651 49.4981 451.009 49.6818 450.282 49.6818C449.721 49.6818 449.272 49.589 448.935 49.4034C448.598 49.214 448.339 49 448.157 48.7614C447.975 48.5189 447.835 48.3182 447.737 48.1591H447.623V52.7727H446.282ZM447.6 45.1364C447.6 45.7955 447.697 46.3769 447.89 46.8807C448.083 47.3807 448.365 47.7727 448.737 48.0568C449.108 48.3371 449.562 48.4773 450.1 48.4773C450.661 48.4773 451.129 48.3295 451.504 48.0341C451.882 47.7348 452.166 47.3333 452.356 46.8295C452.549 46.322 452.646 45.7576 452.646 45.1364C452.646 44.5227 452.551 43.9697 452.362 43.4773C452.176 42.9811 451.894 42.589 451.515 42.3011C451.14 42.0095 450.668 41.8636 450.1 41.8636C449.555 41.8636 449.096 42.0019 448.725 42.2784C448.354 42.5511 448.074 42.9337 447.884 43.4261C447.695 43.9148 447.6 44.4848 447.6 45.1364ZM457.8 49.7045C457.247 49.7045 456.745 49.6004 456.294 49.392C455.844 49.1799 455.486 48.875 455.221 48.4773C454.955 48.0758 454.823 47.5909 454.823 47.0227C454.823 46.5227 454.921 46.1174 455.118 45.8068C455.315 45.4924 455.579 45.2462 455.908 45.0682C456.238 44.8902 456.601 44.7576 456.999 44.6705C457.401 44.5795 457.804 44.5076 458.209 44.4545C458.74 44.3864 459.169 44.3352 459.499 44.3011C459.832 44.2633 460.075 44.2008 460.226 44.1136C460.382 44.0265 460.459 43.875 460.459 43.6591V43.6136C460.459 43.053 460.306 42.6174 459.999 42.3068C459.696 41.9962 459.236 41.8409 458.618 41.8409C457.978 41.8409 457.476 41.9811 457.113 42.2614C456.749 42.5417 456.493 42.8409 456.346 43.1591L455.073 42.7045C455.3 42.1742 455.603 41.7614 455.982 41.4659C456.365 41.1667 456.781 40.9583 457.232 40.8409C457.687 40.7197 458.133 40.6591 458.573 40.6591C458.853 40.6591 459.175 40.6932 459.539 40.7614C459.906 40.8258 460.26 40.9602 460.601 41.1648C460.946 41.3693 461.232 41.678 461.459 42.0909C461.687 42.5038 461.8 43.0568 461.8 43.75V49.5H460.459V48.3182H460.391C460.3 48.5076 460.149 48.7102 459.937 48.9261C459.724 49.142 459.442 49.3258 459.09 49.4773C458.738 49.6288 458.308 49.7045 457.8 49.7045ZM458.005 48.5C458.535 48.5 458.982 48.3958 459.346 48.1875C459.713 47.9792 459.99 47.7102 460.175 47.3807C460.365 47.0511 460.459 46.7045 460.459 46.3409V45.1136C460.402 45.1818 460.277 45.2443 460.084 45.3011C459.895 45.3542 459.675 45.4015 459.425 45.4432C459.179 45.4811 458.938 45.5152 458.704 45.5455C458.472 45.572 458.285 45.5947 458.141 45.6136C457.793 45.6591 457.467 45.733 457.164 45.8352C456.865 45.9337 456.622 46.0833 456.437 46.2841C456.255 46.4811 456.164 46.75 456.164 47.0909C456.164 47.5568 456.336 47.9091 456.681 48.1477C457.029 48.3826 457.471 48.5 458.005 48.5ZM463.448 49.5V40.7727H464.743V42.0909H464.834C464.993 41.6591 465.281 41.3087 465.698 41.0398C466.114 40.7708 466.584 40.6364 467.107 40.6364C467.205 40.6364 467.328 40.6383 467.476 40.642C467.624 40.6458 467.735 40.6515 467.811 40.6591V42.0227C467.766 42.0114 467.662 41.9943 467.499 41.9716C467.34 41.9451 467.171 41.9318 466.993 41.9318C466.569 41.9318 466.19 42.0208 465.857 42.1989C465.527 42.3731 465.266 42.6155 465.073 42.9261C464.883 43.233 464.788 43.5833 464.788 43.9773V49.5H463.448ZM471.994 49.6818C471.153 49.6818 470.428 49.4962 469.818 49.125C469.212 48.75 468.744 48.2273 468.415 47.5568C468.089 46.8826 467.926 46.0985 467.926 45.2045C467.926 44.3106 468.089 43.5227 468.415 42.8409C468.744 42.1553 469.203 41.6212 469.79 41.2386C470.381 40.8523 471.07 40.6591 471.858 40.6591C472.312 40.6591 472.761 40.7348 473.204 40.8864C473.648 41.0379 474.051 41.2841 474.415 41.625C474.778 41.9621 475.068 42.4091 475.284 42.9659C475.5 43.5227 475.608 44.2083 475.608 45.0227V45.5909H468.881V44.4318H474.244C474.244 43.9394 474.146 43.5 473.949 43.1136C473.756 42.7273 473.479 42.4223 473.119 42.1989C472.763 41.9754 472.343 41.8636 471.858 41.8636C471.324 41.8636 470.862 41.9962 470.471 42.2614C470.085 42.5227 469.788 42.8636 469.579 43.2841C469.371 43.7045 469.267 44.1553 469.267 44.6364V45.4091C469.267 46.0682 469.381 46.6269 469.608 47.0852C469.839 47.5398 470.159 47.8864 470.568 48.125C470.977 48.3598 471.453 48.4773 471.994 48.4773C472.346 48.4773 472.665 48.428 472.949 48.3295C473.237 48.2273 473.485 48.0758 473.693 47.875C473.901 47.6705 474.062 47.4167 474.176 47.1136L475.471 47.4773C475.335 47.9167 475.106 48.303 474.784 48.6364C474.462 48.9659 474.064 49.2235 473.591 49.4091C473.117 49.5909 472.585 49.6818 471.994 49.6818ZM478.188 44.25V49.5H476.848V40.7727H478.143V42.1364H478.257C478.461 41.6932 478.772 41.3371 479.188 41.0682C479.605 40.7955 480.143 40.6591 480.802 40.6591C481.393 40.6591 481.91 40.7803 482.353 41.0227C482.796 41.2614 483.141 41.625 483.387 42.1136C483.634 42.5985 483.757 43.2121 483.757 43.9545V49.5H482.416V44.0455C482.416 43.3598 482.238 42.8258 481.882 42.4432C481.526 42.0568 481.037 41.8636 480.416 41.8636C479.988 41.8636 479.605 41.9564 479.268 42.142C478.935 42.3277 478.671 42.5985 478.478 42.9545C478.285 43.3106 478.188 43.7424 478.188 44.25ZM489.202 40.7727V41.9091H484.68V40.7727H489.202ZM485.998 38.6818H487.339V47C487.339 47.3788 487.394 47.6629 487.504 47.8523C487.617 48.0379 487.761 48.1629 487.935 48.2273C488.113 48.2879 488.301 48.3182 488.498 48.3182C488.646 48.3182 488.767 48.3106 488.862 48.2955C488.956 48.2765 489.032 48.2614 489.089 48.25L489.362 49.4545C489.271 49.4886 489.144 49.5227 488.981 49.5568C488.818 49.5947 488.612 49.6136 488.362 49.6136C487.983 49.6136 487.612 49.5322 487.248 49.3693C486.888 49.2064 486.589 48.9583 486.35 48.625C486.115 48.2917 485.998 47.8712 485.998 47.3636V38.6818Z" fill="#567FEF"/>
<g filter="url(#filter1_dd_13_45)">
<rect x="151" y="24" width="102" height="40" rx="8" fill="#567FEF" shape-rendering="crispEdges"/>
<path d="M175.041 40.2727C174.973 39.697 174.697 39.25 174.212 38.9318C173.727 38.6136 173.132 38.4545 172.428 38.4545C171.913 38.4545 171.462 38.5379 171.076 38.7045C170.693 38.8712 170.394 39.1004 170.178 39.392C169.966 39.6837 169.86 40.0152 169.86 40.3864C169.86 40.697 169.934 40.964 170.081 41.1875C170.233 41.4072 170.426 41.5909 170.661 41.7386C170.896 41.8826 171.142 42.0019 171.399 42.0966C171.657 42.1875 171.894 42.2614 172.11 42.3182L173.291 42.6364C173.595 42.7159 173.932 42.8258 174.303 42.9659C174.678 43.1061 175.036 43.2973 175.377 43.5398C175.721 43.7784 176.005 44.0852 176.229 44.4602C176.452 44.8352 176.564 45.2955 176.564 45.8409C176.564 46.4697 176.399 47.0379 176.07 47.5455C175.744 48.053 175.267 48.4564 174.638 48.7557C174.013 49.0549 173.254 49.2045 172.36 49.2045C171.526 49.2045 170.805 49.0701 170.195 48.8011C169.589 48.5322 169.112 48.1572 168.763 47.6761C168.418 47.1951 168.223 46.6364 168.178 46H169.632C169.67 46.4394 169.818 46.803 170.076 47.0909C170.337 47.375 170.666 47.5871 171.064 47.7273C171.466 47.8636 171.898 47.9318 172.36 47.9318C172.898 47.9318 173.38 47.8447 173.809 47.6705C174.237 47.4924 174.576 47.2462 174.826 46.9318C175.076 46.6136 175.201 46.2424 175.201 45.8182C175.201 45.4318 175.093 45.1174 174.877 44.875C174.661 44.6326 174.377 44.4356 174.024 44.2841C173.672 44.1326 173.291 44 172.882 43.8864L171.451 43.4773C170.541 43.2159 169.822 42.8428 169.291 42.358C168.761 41.8731 168.496 41.2386 168.496 40.4545C168.496 39.803 168.672 39.2348 169.024 38.75C169.38 38.2614 169.858 37.8826 170.456 37.6136C171.059 37.3409 171.731 37.2045 172.473 37.2045C173.223 37.2045 173.89 37.339 174.473 37.608C175.057 37.8731 175.519 38.2367 175.86 38.6989C176.204 39.161 176.386 39.6856 176.405 40.2727H175.041ZM179.24 43.75V49H177.899V37.3636H179.24V41.6364H179.354C179.558 41.1856 179.865 40.8277 180.274 40.5625C180.687 40.2936 181.236 40.1591 181.922 40.1591C182.517 40.1591 183.037 40.2784 183.484 40.517C183.931 40.7519 184.278 41.1136 184.524 41.6023C184.774 42.0871 184.899 42.7045 184.899 43.4545V49H183.558V43.5455C183.558 42.8523 183.378 42.3163 183.018 41.9375C182.662 41.5549 182.168 41.3636 181.536 41.3636C181.096 41.3636 180.702 41.4564 180.354 41.642C180.009 41.8277 179.736 42.0985 179.536 42.4545C179.339 42.8106 179.24 43.2424 179.24 43.75ZM190.098 49.1818C189.31 49.1818 188.619 48.9943 188.024 48.6193C187.433 48.2443 186.971 47.7197 186.637 47.0455C186.308 46.3712 186.143 45.5833 186.143 44.6818C186.143 43.7727 186.308 42.9792 186.637 42.3011C186.971 41.6231 187.433 41.0966 188.024 40.7216C188.619 40.3466 189.31 40.1591 190.098 40.1591C190.886 40.1591 191.575 40.3466 192.166 40.7216C192.761 41.0966 193.223 41.6231 193.552 42.3011C193.886 42.9792 194.052 43.7727 194.052 44.6818C194.052 45.5833 193.886 46.3712 193.552 47.0455C193.223 47.7197 192.761 48.2443 192.166 48.6193C191.575 48.9943 190.886 49.1818 190.098 49.1818ZM190.098 47.9773C190.696 47.9773 191.189 47.8239 191.575 47.517C191.961 47.2102 192.247 46.8068 192.433 46.3068C192.619 45.8068 192.711 45.2652 192.711 44.6818C192.711 44.0985 192.619 43.5549 192.433 43.0511C192.247 42.5473 191.961 42.1402 191.575 41.8295C191.189 41.5189 190.696 41.3636 190.098 41.3636C189.499 41.3636 189.007 41.5189 188.62 41.8295C188.234 42.1402 187.948 42.5473 187.762 43.0511C187.577 43.5549 187.484 44.0985 187.484 44.6818C187.484 45.2652 187.577 45.8068 187.762 46.3068C187.948 46.8068 188.234 47.2102 188.62 47.517C189.007 47.8239 189.499 47.9773 190.098 47.9773ZM195.299 52.2727V40.2727H196.595V41.6591H196.754C196.852 41.5076 196.989 41.3144 197.163 41.0795C197.341 40.8409 197.595 40.6288 197.924 40.4432C198.257 40.2538 198.708 40.1591 199.276 40.1591C200.011 40.1591 200.659 40.3428 201.22 40.7102C201.78 41.0777 202.218 41.5985 202.532 42.2727C202.846 42.947 203.004 43.7424 203.004 44.6591C203.004 45.5833 202.846 46.3845 202.532 47.0625C202.218 47.7367 201.782 48.2595 201.225 48.6307C200.668 48.9981 200.026 49.1818 199.299 49.1818C198.739 49.1818 198.29 49.089 197.953 48.9034C197.615 48.714 197.356 48.5 197.174 48.2614C196.992 48.0189 196.852 47.8182 196.754 47.6591H196.64V52.2727H195.299ZM196.617 44.6364C196.617 45.2955 196.714 45.8769 196.907 46.3807C197.1 46.8807 197.382 47.2727 197.754 47.5568C198.125 47.8371 198.579 47.9773 199.117 47.9773C199.678 47.9773 200.146 47.8295 200.521 47.5341C200.9 47.2348 201.184 46.8333 201.373 46.3295C201.566 45.822 201.663 45.2576 201.663 44.6364C201.663 44.0227 201.568 43.4697 201.379 42.9773C201.193 42.4811 200.911 42.089 200.532 41.8011C200.157 41.5095 199.686 41.3636 199.117 41.3636C198.572 41.3636 198.114 41.5019 197.742 41.7784C197.371 42.0511 197.091 42.4337 196.901 42.9261C196.712 43.4148 196.617 43.9848 196.617 44.6364ZM209.29 43.75V49H207.949V40.2727H209.245V41.6364H209.358C209.563 41.1932 209.873 40.8371 210.29 40.5682C210.707 40.2955 211.245 40.1591 211.904 40.1591C212.495 40.1591 213.012 40.2803 213.455 40.5227C213.898 40.7614 214.243 41.125 214.489 41.6136C214.735 42.0985 214.858 42.7121 214.858 43.4545V49H213.517V43.5455C213.517 42.8598 213.339 42.3258 212.983 41.9432C212.627 41.5568 212.139 41.3636 211.517 41.3636C211.089 41.3636 210.707 41.4564 210.37 41.642C210.036 41.8277 209.773 42.0985 209.58 42.4545C209.387 42.8106 209.29 43.2424 209.29 43.75ZM220.054 49.1818C219.266 49.1818 218.575 48.9943 217.98 48.6193C217.389 48.2443 216.927 47.7197 216.594 47.0455C216.264 46.3712 216.099 45.5833 216.099 44.6818C216.099 43.7727 216.264 42.9792 216.594 42.3011C216.927 41.6231 217.389 41.0966 217.98 40.7216C218.575 40.3466 219.266 40.1591 220.054 40.1591C220.842 40.1591 221.531 40.3466 222.122 40.7216C222.717 41.0966 223.179 41.6231 223.509 42.3011C223.842 42.9792 224.009 43.7727 224.009 44.6818C224.009 45.5833 223.842 46.3712 223.509 47.0455C223.179 47.7197 222.717 48.2443 222.122 48.6193C221.531 48.9943 220.842 49.1818 220.054 49.1818ZM220.054 47.9773C220.652 47.9773 221.145 47.8239 221.531 47.517C221.918 47.2102 222.204 46.8068 222.389 46.3068C222.575 45.8068 222.668 45.2652 222.668 44.6818C222.668 44.0985 222.575 43.5549 222.389 43.0511C222.204 42.5473 221.918 42.1402 221.531 41.8295C221.145 41.5189 220.652 41.3636 220.054 41.3636C219.455 41.3636 218.963 41.5189 218.577 41.8295C218.19 42.1402 217.904 42.5473 217.719 43.0511C217.533 43.5549 217.44 44.0985 217.44 44.6818C217.44 45.2652 217.533 45.8068 217.719 46.3068C217.904 46.8068 218.19 47.2102 218.577 47.517C218.963 47.8239 219.455 47.9773 220.054 47.9773ZM226.936 49L224.277 40.2727H225.686L227.572 46.9545H227.663L229.527 40.2727H230.959L232.799 46.9318H232.89L234.777 40.2727H236.186L233.527 49H232.209L230.299 42.2955H230.163L228.254 49H226.936Z" fill="white"/>
</g>
<g filter="url(#filter2_dd_13_45)">
<rect x="277.5" y="24" width="89" height="40" rx="8" fill="#FF0E48" shape-rendering="crispEdges"/>
<path d="M301.37 40.2727C301.301 39.697 301.025 39.25 300.54 38.9318C300.055 38.6136 299.461 38.4545 298.756 38.4545C298.241 38.4545 297.79 38.5379 297.404 38.7045C297.021 38.8712 296.722 39.1004 296.506 39.392C296.294 39.6837 296.188 40.0152 296.188 40.3864C296.188 40.697 296.262 40.964 296.409 41.1875C296.561 41.4072 296.754 41.5909 296.989 41.7386C297.224 41.8826 297.47 42.0019 297.728 42.0966C297.985 42.1875 298.222 42.2614 298.438 42.3182L299.62 42.6364C299.923 42.7159 300.26 42.8258 300.631 42.9659C301.006 43.1061 301.364 43.2973 301.705 43.5398C302.05 43.7784 302.334 44.0852 302.557 44.4602C302.781 44.8352 302.892 45.2955 302.892 45.8409C302.892 46.4697 302.728 47.0379 302.398 47.5455C302.072 48.053 301.595 48.4564 300.966 48.7557C300.341 49.0549 299.582 49.2045 298.688 49.2045C297.854 49.2045 297.133 49.0701 296.523 48.8011C295.917 48.5322 295.44 48.1572 295.091 47.6761C294.746 47.1951 294.551 46.6364 294.506 46H295.961C295.998 46.4394 296.146 46.803 296.404 47.0909C296.665 47.375 296.995 47.5871 297.392 47.7273C297.794 47.8636 298.226 47.9318 298.688 47.9318C299.226 47.9318 299.709 47.8447 300.137 47.6705C300.565 47.4924 300.904 47.2462 301.154 46.9318C301.404 46.6136 301.529 46.2424 301.529 45.8182C301.529 45.4318 301.421 45.1174 301.205 44.875C300.989 44.6326 300.705 44.4356 300.353 44.2841C300 44.1326 299.62 44 299.211 43.8864L297.779 43.4773C296.87 43.2159 296.15 42.8428 295.62 42.358C295.089 41.8731 294.824 41.2386 294.824 40.4545C294.824 39.803 295 39.2348 295.353 38.75C295.709 38.2614 296.186 37.8826 296.784 37.6136C297.387 37.3409 298.059 37.2045 298.801 37.2045C299.551 37.2045 300.218 37.339 300.801 37.608C301.385 37.8731 301.847 38.2367 302.188 38.6989C302.532 39.161 302.714 39.6856 302.733 40.2727H301.37ZM307.886 49.1818C307.045 49.1818 306.32 48.9962 305.71 48.625C305.104 48.25 304.636 47.7273 304.307 47.0568C303.981 46.3826 303.818 45.5985 303.818 44.7045C303.818 43.8106 303.981 43.0227 304.307 42.3409C304.636 41.6553 305.095 41.1212 305.682 40.7386C306.273 40.3523 306.962 40.1591 307.75 40.1591C308.205 40.1591 308.653 40.2348 309.097 40.3864C309.54 40.5379 309.943 40.7841 310.307 41.125C310.67 41.4621 310.96 41.9091 311.176 42.4659C311.392 43.0227 311.5 43.7083 311.5 44.5227V45.0909H304.773V43.9318H310.136C310.136 43.4394 310.038 43 309.841 42.6136C309.648 42.2273 309.371 41.9223 309.011 41.6989C308.655 41.4754 308.235 41.3636 307.75 41.3636C307.216 41.3636 306.754 41.4962 306.364 41.7614C305.977 42.0227 305.68 42.3636 305.472 42.7841C305.263 43.2045 305.159 43.6553 305.159 44.1364V44.9091C305.159 45.5682 305.273 46.1269 305.5 46.5852C305.731 47.0398 306.051 47.3864 306.46 47.625C306.869 47.8598 307.345 47.9773 307.886 47.9773C308.239 47.9773 308.557 47.928 308.841 47.8295C309.129 47.7273 309.377 47.5758 309.585 47.375C309.794 47.1705 309.955 46.9167 310.068 46.6136L311.364 46.9773C311.227 47.4167 310.998 47.803 310.676 48.1364C310.354 48.4659 309.956 48.7235 309.483 48.9091C309.009 49.0909 308.477 49.1818 307.886 49.1818ZM316.535 40.2727V41.4091H312.012V40.2727H316.535ZM313.331 38.1818H314.672V46.5C314.672 46.8788 314.727 47.1629 314.836 47.3523C314.95 47.5379 315.094 47.6629 315.268 47.7273C315.446 47.7879 315.634 47.8182 315.831 47.8182C315.978 47.8182 316.1 47.8106 316.194 47.7955C316.289 47.7765 316.365 47.7614 316.422 47.75L316.694 48.9545C316.603 48.9886 316.477 49.0227 316.314 49.0568C316.151 49.0947 315.944 49.1136 315.694 49.1136C315.316 49.1136 314.944 49.0322 314.581 48.8693C314.221 48.7064 313.922 48.4583 313.683 48.125C313.448 47.7917 313.331 47.3712 313.331 46.8636V38.1818ZM321.548 40.2727V41.4091H317.025V40.2727H321.548ZM318.343 38.1818H319.684V46.5C319.684 46.8788 319.739 47.1629 319.849 47.3523C319.962 47.5379 320.106 47.6629 320.281 47.7273C320.459 47.7879 320.646 47.8182 320.843 47.8182C320.991 47.8182 321.112 47.8106 321.207 47.7955C321.302 47.7765 321.377 47.7614 321.434 47.75L321.707 48.9545C321.616 48.9886 321.489 49.0227 321.326 49.0568C321.163 49.0947 320.957 49.1136 320.707 49.1136C320.328 49.1136 319.957 49.0322 319.593 48.8693C319.233 48.7064 318.934 48.4583 318.695 48.125C318.461 47.7917 318.343 47.3712 318.343 46.8636V38.1818ZM322.765 49V40.2727H324.106V49H322.765ZM323.447 38.8182C323.185 38.8182 322.96 38.7292 322.77 38.5511C322.585 38.3731 322.492 38.1591 322.492 37.9091C322.492 37.6591 322.585 37.4451 322.77 37.267C322.96 37.089 323.185 37 323.447 37C323.708 37 323.931 37.089 324.117 37.267C324.306 37.4451 324.401 37.6591 324.401 37.9091C324.401 38.1591 324.306 38.3731 324.117 38.5511C323.931 38.7292 323.708 38.8182 323.447 38.8182ZM327.103 43.75V49H325.762V40.2727H327.057V41.6364H327.171C327.375 41.1932 327.686 40.8371 328.103 40.5682C328.519 40.2955 329.057 40.1591 329.716 40.1591C330.307 40.1591 330.824 40.2803 331.267 40.5227C331.711 40.7614 332.055 41.125 332.301 41.6136C332.548 42.0985 332.671 42.7121 332.671 43.4545V49H331.33V43.5455C331.33 42.8598 331.152 42.3258 330.796 41.9432C330.44 41.5568 329.951 41.3636 329.33 41.3636C328.902 41.3636 328.519 41.4564 328.182 41.642C327.849 41.8277 327.586 42.0985 327.392 42.4545C327.199 42.8106 327.103 43.2424 327.103 43.75ZM337.844 52.4545C337.196 52.4545 336.639 52.3712 336.173 52.2045C335.707 52.0417 335.319 51.8258 335.009 51.5568C334.702 51.2917 334.457 51.0076 334.276 50.7045L335.344 49.9545C335.465 50.1136 335.618 50.2955 335.804 50.5C335.99 50.7083 336.243 50.8883 336.565 51.0398C336.891 51.1951 337.317 51.2727 337.844 51.2727C338.548 51.2727 339.13 51.1023 339.588 50.7614C340.046 50.4205 340.276 49.8864 340.276 49.1591V47.3864H340.162C340.063 47.5455 339.923 47.7424 339.741 47.9773C339.563 48.2083 339.306 48.4148 338.969 48.5966C338.635 48.7746 338.185 48.8636 337.616 48.8636C336.912 48.8636 336.279 48.697 335.719 48.3636C335.162 48.0303 334.721 47.5455 334.395 46.9091C334.073 46.2727 333.912 45.5 333.912 44.5909C333.912 43.697 334.069 42.9186 334.384 42.2557C334.698 41.589 335.135 41.0739 335.696 40.7102C336.257 40.3428 336.904 40.1591 337.639 40.1591C338.207 40.1591 338.658 40.2538 338.991 40.4432C339.329 40.6288 339.586 40.8409 339.764 41.0795C339.946 41.3144 340.086 41.5076 340.185 41.6591H340.321V40.2727H341.616V49.25C341.616 50 341.446 50.6098 341.105 51.0795C340.768 51.553 340.313 51.8996 339.741 52.1193C339.173 52.3428 338.541 52.4545 337.844 52.4545ZM337.798 47.6591C338.336 47.6591 338.791 47.536 339.162 47.2898C339.533 47.0436 339.815 46.6894 340.009 46.2273C340.202 45.7652 340.298 45.2121 340.298 44.5682C340.298 43.9394 340.204 43.3845 340.014 42.9034C339.825 42.4223 339.545 42.0455 339.173 41.7727C338.802 41.5 338.344 41.3636 337.798 41.3636C337.23 41.3636 336.757 41.5076 336.378 41.7955C336.003 42.0833 335.721 42.4697 335.531 42.9545C335.346 43.4394 335.253 43.9773 335.253 44.5682C335.253 45.1742 335.348 45.7102 335.537 46.1761C335.73 46.6383 336.014 47.0019 336.389 47.267C336.768 47.5284 337.238 47.6591 337.798 47.6591ZM349.453 42.2273L348.248 42.5682C348.173 42.3674 348.061 42.1723 347.913 41.983C347.769 41.7898 347.572 41.6307 347.322 41.5057C347.072 41.3807 346.752 41.3182 346.362 41.3182C345.828 41.3182 345.383 41.4413 345.027 41.6875C344.674 41.9299 344.498 42.2386 344.498 42.6136C344.498 42.947 344.62 43.2102 344.862 43.4034C345.104 43.5966 345.483 43.7576 345.998 43.8864L347.294 44.2045C348.074 44.3939 348.655 44.6837 349.038 45.0739C349.421 45.4602 349.612 45.9583 349.612 46.5682C349.612 47.0682 349.468 47.5152 349.18 47.9091C348.896 48.303 348.498 48.6136 347.987 48.8409C347.476 49.0682 346.881 49.1818 346.203 49.1818C345.313 49.1818 344.576 48.9886 343.993 48.6023C343.409 48.2159 343.04 47.6515 342.885 46.9091L344.157 46.5909C344.279 47.0606 344.508 47.4129 344.845 47.6477C345.186 47.8826 345.631 48 346.18 48C346.805 48 347.301 47.8674 347.669 47.6023C348.04 47.3333 348.226 47.0114 348.226 46.6364C348.226 46.3333 348.12 46.0795 347.907 45.875C347.695 45.6667 347.37 45.5114 346.93 45.4091L345.476 45.0682C344.676 44.8788 344.089 44.5852 343.714 44.1875C343.343 43.786 343.157 43.2841 343.157 42.6818C343.157 42.1894 343.296 41.7538 343.572 41.375C343.852 40.9962 344.233 40.6989 344.714 40.483C345.199 40.267 345.748 40.1591 346.362 40.1591C347.226 40.1591 347.904 40.3485 348.396 40.7273C348.892 41.1061 349.245 41.6061 349.453 42.2273Z" fill="white"/>
</g>
<g filter="url(#filter3_dd_13_45)">
<rect x="24" y="88" width="40" height="40" rx="8" fill="#567FEF" shape-rendering="crispEdges"/>
<path fill-rule="evenodd" clip-rule="evenodd" d="M36.5 101.653C36.5 100.227 38.029 99.3229 39.2786 100.01L50.8192 106.357C52.1144 107.07 52.1144 108.931 50.8192 109.643L39.2786 115.991C38.029 116.678 36.5 115.774 36.5 114.348V101.653Z" fill="white"/>
</g>
<g filter="url(#filter4_dd_13_45)">
<rect x="88" y="89" width="48" height="46" rx="8" fill="#FFECF0" fill-opacity="0.25" shape-rendering="crispEdges"/>
<path d="M111.645 120.911L111.638 120.907L111.616 120.895C111.596 120.884 111.569 120.869 111.534 120.85C111.463 120.81 111.361 120.752 111.233 120.677C110.976 120.526 110.613 120.304 110.179 120.015C109.311 119.438 108.151 118.59 106.989 117.506C104.688 115.361 102.25 112.175 102.25 108.25C102.25 105.322 104.714 103 107.688 103C109.436 103 111.002 103.799 112 105.052C112.998 103.799 114.564 103 116.312 103C119.286 103 121.75 105.322 121.75 108.25C121.75 112.175 119.312 115.361 117.011 117.506C115.849 118.59 114.689 119.438 113.821 120.015C113.387 120.304 113.024 120.526 112.767 120.677C112.639 120.752 112.537 120.81 112.466 120.85C112.431 120.869 112.404 120.884 112.384 120.895L112.362 120.907L112.355 120.911L112.352 120.912C112.132 121.029 111.868 121.029 111.648 120.912L111.645 120.911Z" fill="#FF0E48"/>
</g>
<g filter="url(#filter5_dd_13_45)">
<rect x="160" y="88" width="48" height="48" rx="16" fill="url(#paint0_linear_13_45)" shape-rendering="crispEdges"/>
<path fill-rule="evenodd" clip-rule="evenodd" d="M177.337 121.718C177.157 121.7 176.979 121.676 176.804 121.644C176.54 121.597 176.321 121.412 176.23 121.16C176.139 120.908 176.19 120.626 176.364 120.421C176.767 119.945 177.053 119.368 177.178 118.735C177.201 118.62 177.156 118.418 176.924 118.192C175.275 116.587 174.25 114.409 174.25 112C174.25 106.969 178.678 103 184 103C189.322 103 193.75 106.969 193.75 112C193.75 117.031 189.322 121 184 121C183.167 121 182.357 120.903 181.583 120.721C180.544 121.373 179.315 121.75 178 121.75C177.776 121.75 177.555 121.739 177.337 121.718Z" fill="white"/>
</g>
<rect x="0.5" y="0.5" width="529" height="159" rx="7.5" stroke="white" stroke-opacity="0.1"/>
<defs>
<filter id="filter0_dd_13_45" x="15" y="22" width="122" height="60" filterUnits="userSpaceOnUse" color-interpolation-filters="sRGB">
<feFlood flood-opacity="0" result="BackgroundImageFix"/>
<feColorMatrix in="SourceAlpha" type="matrix" values="0 0 0 0 0 0 0 0 0 0 0 0 0 0 0 0 0 0 127 0" result="hardAlpha"/>
<feOffset dy="8"/>
<feGaussianBlur stdDeviation="5"/>
<feComposite in2="hardAlpha" operator="out"/>
<feColorMatrix type="matrix" values="0 0 0 0 0.337255 0 0 0 0 0.498039 0 0 0 0 0.937255 0 0 0 0.25 0"/>
<feBlend mode="normal" in2="BackgroundImageFix" result="effect1_dropShadow_13_45"/>
<feColorMatrix in="SourceAlpha" type="matrix" values="0 0 0 0 0 0 0 0 0 0 0 0 0 0 0 0 0 0 127 0" result="hardAlpha"/>
<feOffset/>
<feGaussianBlur stdDeviation="1"/>
<feComposite in2="hardAlpha" operator="out"/>
<feColorMatrix type="matrix" values="0 0 0 0 0.337255 0 0 0 0 0.498039 0 0 0 0 0.937255 0 0 0 0.5 0"/>
<feBlend mode="normal" in2="effect1_dropShadow_13_45" result="effect2_dropShadow_13_45"/>
<feBlend mode="normal" in="SourceGraphic" in2="effect2_dropShadow_13_45" result="shape"/>
</filter>
<filter id="filter1_dd_13_45" x="141" y="22" width="122" height="60" filterUnits="userSpaceOnUse" color-interpolation-filters="sRGB">
<feFlood flood-opacity="0" result="BackgroundImageFix"/>
<feColorMatrix in="SourceAlpha" type="matrix" values="0 0 0 0 0 0 0 0 0 0 0 0 0 0 0 0 0 0 127 0" result="hardAlpha"/>
<feOffset dy="8"/>
<feGaussianBlur stdDeviation="5"/>
<feComposite in2="hardAlpha" operator="out"/>
<feColorMatrix type="matrix" values="0 0 0 0 0.337255 0 0 0 0 0.498039 0 0 0 0 0.937255 0 0 0 0.25 0"/>
<feBlend mode="normal" in2="BackgroundImageFix" result="effect1_dropShadow_13_45"/>
<feColorMatrix in="SourceAlpha" type="matrix" values="0 0 0 0 0 0 0 0 0 0 0 0 0 0 0 0 0 0 127 0" result="hardAlpha"/>
<feOffset/>
<feGaussianBlur stdDeviation="1"/>
<feComposite in2="hardAlpha" operator="out"/>
<feColorMatrix type="matrix" values="0 0 0 0 0.337255 0 0 0 0 0.498039 0 0 0 0 0.937255 0 0 0 0.5 0"/>
<feBlend mode="normal" in2="effect1_dropShadow_13_45" result="effect2_dropShadow_13_45"/>
<feBlend mode="normal" in="SourceGraphic" in2="effect2_dropShadow_13_45" result="shape"/>
</filter>
<filter id="filter2_dd_13_45" x="267.5" y="22" width="109" height="60" filterUnits="userSpaceOnUse" color-interpolation-filters="sRGB">
<feFlood flood-opacity="0" result="BackgroundImageFix"/>
<feColorMatrix in="SourceAlpha" type="matrix" values="0 0 0 0 0 0 0 0 0 0 0 0 0 0 0 0 0 0 127 0" result="hardAlpha"/>
<feOffset dy="8"/>
<feGaussianBlur stdDeviation="5"/>
<feComposite in2="hardAlpha" operator="out"/>
<feColorMatrix type="matrix" values="0 0 0 0 1 0 0 0 0 0.0541667 0 0 0 0 0.281167 0 0 0 0.25 0"/>
<feBlend mode="normal" in2="BackgroundImageFix" result="effect1_dropShadow_13_45"/>
<feColorMatrix in="SourceAlpha" type="matrix" values="0 0 0 0 0 0 0 0 0 0 0 0 0 0 0 0 0 0 127 0" result="hardAlpha"/>
<feOffset/>
<feGaussianBlur stdDeviation="1"/>
<feComposite in2="hardAlpha" operator="out"/>
<feColorMatrix type="matrix" values="0 0 0 0 1 0 0 0 0 0.0541667 0 0 0 0 0.281167 0 0 0 0.5 0"/>
<feBlend mode="normal" in2="effect1_dropShadow_13_45" result="effect2_dropShadow_13_45"/>
<feBlend mode="normal" in="SourceGraphic" in2="effect2_dropShadow_13_45" result="shape"/>
</filter>
<filter id="filter3_dd_13_45" x="14" y="86" width="60" height="60" filterUnits="userSpaceOnUse" color-interpolation-filters="sRGB">
<feFlood flood-opacity="0" result="BackgroundImageFix"/>
<feColorMatrix in="SourceAlpha" type="matrix" values="0 0 0 0 0 0 0 0 0 0 0 0 0 0 0 0 0 0 127 0" result="hardAlpha"/>
<feOffset dy="8"/>
<feGaussianBlur stdDeviation="5"/>
<feComposite in2="hardAlpha" operator="out"/>
<feColorMatrix type="matrix" values="0 0 0 0 0.337255 0 0 0 0 0.498039 0 0 0 0 0.937255 0 0 0 0.25 0"/>
<feBlend mode="normal" in2="BackgroundImageFix" result="effect1_dropShadow_13_45"/>
<feColorMatrix in="SourceAlpha" type="matrix" values="0 0 0 0 0 0 0 0 0 0 0 0 0 0 0 0 0 0 127 0" result="hardAlpha"/>
<feOffset/>
<feGaussianBlur stdDeviation="1"/>
<feComposite in2="hardAlpha" operator="out"/>
<feColorMatrix type="matrix" values="0 0 0 0 0.337255 0 0 0 0 0.498039 0 0 0 0 0.937255 0 0 0 0.5 0"/>
<feBlend mode="normal" in2="effect1_dropShadow_13_45" result="effect2_dropShadow_13_45"/>
<feBlend mode="normal" in="SourceGraphic" in2="effect2_dropShadow_13_45" result="shape"/>
</filter>
<filter id="filter4_dd_13_45" x="78" y="87" width="68" height="66" filterUnits="userSpaceOnUse" color-interpolation-filters="sRGB">
<feFlood flood-opacity="0" result="BackgroundImageFix"/>
<feColorMatrix in="SourceAlpha" type="matrix" values="0 0 0 0 0 0 0 0 0 0 0 0 0 0 0 0 0 0 127 0" result="hardAlpha"/>
<feOffset dy="8"/>
<feGaussianBlur stdDeviation="5"/>
<feComposite in2="hardAlpha" operator="out"/>
<feColorMatrix type="matrix" values="0 0 0 0 1 0 0 0 0 0.0541667 0 0 0 0 0.281167 0 0 0 0.25 0"/>
<feBlend mode="normal" in2="BackgroundImageFix" result="effect1_dropShadow_13_45"/>
<feColorMatrix in="SourceAlpha" type="matrix" values="0 0 0 0 0 0 0 0 0 0 0 0 0 0 0 0 0 0 127 0" result="hardAlpha"/>
<feOffset/>
<feGaussianBlur stdDeviation="1"/>
<feComposite in2="hardAlpha" operator="out"/>
<feColorMatrix type="matrix" values="0 0 0 0 1 0 0 0 0 0.0541667 0 0 0 0 0.281167 0 0 0 0.5 0"/>
<feBlend mode="normal" in2="effect1_dropShadow_13_45" result="effect2_dropShadow_13_45"/>
<feBlend mode="normal" in="SourceGraphic" in2="effect2_dropShadow_13_45" result="shape"/>
</filter>
<filter id="filter5_dd_13_45" x="150" y="86" width="68" height="68" filterUnits="userSpaceOnUse" color-interpolation-filters="sRGB">
<feFlood flood-opacity="0" result="BackgroundImageFix"/>
<feColorMatrix in="SourceAlpha" type="matrix" values="0 0 0 0 0 0 0 0 0 0 0 0 0 0 0 0 0 0 127 0" result="hardAlpha"/>
<feOffset dy="8"/>
<feGaussianBlur stdDeviation="5"/>
<feComposite in2="hardAlpha" operator="out"/>
<feColorMatrix type="matrix" values="0 0 0 0 0.0541667 0 0 0 0 0.60275 0 0 0 0 1 0 0 0 0.25 0"/>
<feBlend mode="normal" in2="BackgroundImageFix" result="effect1_dropShadow_13_45"/>
<feColorMatrix in="SourceAlpha" type="matrix" values="0 0 0 0 0 0 0 0 0 0 0 0 0 0 0 0 0 0 127 0" result="hardAlpha"/>
<feOffset/>
<feGaussianBlur stdDeviation="1"/>
<feComposite in2="hardAlpha" operator="out"/>
<feColorMatrix type="matrix" values="0 0 0 0 0.0541667 0 0 0 0 0.60275 0 0 0 0 1 0 0 0 0.5 0"/>
<feBlend mode="normal" in2="effect1_dropShadow_13_45" result="effect2_dropShadow_13_45"/>
<feBlend mode="normal" in="SourceGraphic" in2="effect2_dropShadow_13_45" result="shape"/>
</filter>
<linearGradient id="paint0_linear_13_45" x1="160" y1="88" x2="208" y2="136" gradientUnits="userSpaceOnUse">
<stop stop-color="#0E9AFF"/>
<stop offset="1" stop-color="#FF0E48"/>
</linearGradient>
</defs>
</svg>
