<svg width="376" height="112" viewBox="0 0 376 112" fill="none" xmlns="http://www.w3.org/2000/svg">
<rect width="376" height="112" rx="8" fill="#F0F0F0"/>
<g filter="url(#filter0_d_109_328)">
<rect x="24" y="24" width="64" height="64" rx="16" fill="#EBF0FF"/>
<rect x="25.5" y="25.5" width="61" height="61" rx="14.5" stroke="white" stroke-width="3"/>
</g>
<path d="M56 41C49.9249 41 45 45.9249 45 52C45 56.0677 47.2084 59.6184 50.4869 61.5207C51.4008 62.0509 51.9731 62.8645 51.999 63.6835C52.0133 64.1351 52.3287 64.5211 52.7685 64.6249C53.237 64.7357 53.7145 64.8228 54.1995 64.8852C54.6309 64.9407 55.0003 64.5949 55.0003 64.16V57.9452C54.5745 57.8981 54.1573 57.8213 53.7509 57.7167C53.2161 57.5791 52.8941 57.0339 53.0318 56.4991C53.1695 55.9641 53.7147 55.6421 54.2495 55.7799C54.8079 55.9236 55.3944 56.0003 56.0003 56.0003C56.6061 56.0003 57.1925 55.9236 57.7509 55.7799C58.2859 55.6421 58.8311 55.9641 58.9687 56.4991C59.1064 57.0339 58.7844 57.5791 58.2495 57.7167C57.8431 57.8213 57.426 57.8981 57.0003 57.9452V64.1599C57.0003 64.5949 57.3696 64.9405 57.8011 64.8851C58.2859 64.8228 58.7631 64.7357 59.2315 64.6249C59.6712 64.5211 59.9867 64.1351 60.0009 63.6835C60.0268 62.8645 60.5992 62.0509 61.5131 61.5207C64.7916 59.6184 67 56.0677 67 52C67 45.9249 62.0751 41 56 41Z" fill="#567FEF"/>
<path fill-rule="evenodd" clip-rule="evenodd" d="M52.0177 66.533C52.1206 65.9903 52.6439 65.6339 53.1866 65.7368C54.0971 65.9095 55.0377 66 56.0002 66C56.9627 66 57.9032 65.9095 58.8138 65.7368C59.3564 65.6339 59.8798 65.9903 59.9827 66.533C60.0857 67.0755 59.7291 67.5988 59.1866 67.7018C58.1537 67.8976 57.0885 68 56.0002 68C54.9119 68 53.8467 67.8976 52.8138 67.7018C52.2712 67.5988 51.9148 67.0755 52.0177 66.533Z" fill="#567FEF"/>
<path fill-rule="evenodd" clip-rule="evenodd" d="M53.0055 69.792C53.063 69.2427 53.5549 68.844 54.1041 68.9015C54.7269 68.9666 55.3594 69 56.0001 69C56.6407 69 57.2733 68.9666 57.8961 68.9015C58.4453 68.844 58.9371 69.2427 58.9946 69.792C59.0521 70.3412 58.6534 70.8331 58.1041 70.8906C57.4123 70.963 56.7103 71 56.0001 71C55.2898 71 54.5878 70.963 53.8961 70.8906C53.3467 70.8331 52.948 70.3412 53.0055 69.792Z" fill="#567FEF"/>
<g filter="url(#filter1_d_109_328)">
<rect x="112" y="24" width="64" height="64" rx="32" fill="#EBF0FF"/>
<rect x="113.5" y="25.5" width="61" height="61" rx="30.5" stroke="white" stroke-width="3"/>
</g>
<path d="M144 41C137.925 41 133 45.9249 133 52C133 56.0677 135.208 59.6184 138.487 61.5207C139.401 62.0509 139.973 62.8645 139.999 63.6835C140.013 64.1351 140.329 64.5211 140.769 64.6249C141.237 64.7357 141.715 64.8228 142.199 64.8852C142.631 64.9407 143 64.5949 143 64.16V57.9452C142.575 57.8981 142.157 57.8213 141.751 57.7167C141.216 57.5791 140.894 57.0339 141.032 56.4991C141.169 55.9641 141.715 55.6421 142.249 55.7799C142.808 55.9236 143.394 56.0003 144 56.0003C144.606 56.0003 145.193 55.9236 145.751 55.7799C146.286 55.6421 146.831 55.9641 146.969 56.4991C147.106 57.0339 146.784 57.5791 146.249 57.7167C145.843 57.8213 145.426 57.8981 145 57.9452V64.1599C145 64.5949 145.37 64.9405 145.801 64.8851C146.286 64.8228 146.763 64.7357 147.231 64.6249C147.671 64.5211 147.987 64.1351 148.001 63.6835C148.027 62.8645 148.599 62.0509 149.513 61.5207C152.792 59.6184 155 56.0677 155 52C155 45.9249 150.075 41 144 41Z" fill="#567FEF"/>
<path fill-rule="evenodd" clip-rule="evenodd" d="M140.018 66.533C140.121 65.9903 140.644 65.6339 141.187 65.7368C142.097 65.9095 143.038 66 144 66C144.963 66 145.903 65.9095 146.814 65.7368C147.356 65.6339 147.88 65.9903 147.983 66.533C148.086 67.0755 147.729 67.5988 147.187 67.7018C146.154 67.8976 145.088 68 144 68C142.912 68 141.847 67.8976 140.814 67.7018C140.271 67.5988 139.915 67.0755 140.018 66.533Z" fill="#567FEF"/>
<path fill-rule="evenodd" clip-rule="evenodd" d="M141.006 69.792C141.063 69.2427 141.555 68.844 142.104 68.9015C142.727 68.9666 143.359 69 144 69C144.641 69 145.273 68.9666 145.896 68.9015C146.445 68.844 146.937 69.2427 146.995 69.792C147.052 70.3412 146.653 70.8331 146.104 70.8906C145.412 70.963 144.71 71 144 71C143.29 71 142.588 70.963 141.896 70.8906C141.347 70.8331 140.948 70.3412 141.006 69.792Z" fill="#567FEF"/>
<g filter="url(#filter2_d_109_328)">
<rect x="200" y="24" width="64" height="64" rx="16" fill="#EBF0FF"/>
<rect x="201.5" y="25.5" width="61" height="61" rx="14.5" stroke="#567FEF" stroke-width="3"/>
</g>
<path d="M232 41C225.925 41 221 45.9249 221 52C221 56.0677 223.208 59.6184 226.487 61.5207C227.401 62.0509 227.973 62.8645 227.999 63.6835C228.013 64.1351 228.329 64.5211 228.769 64.6249C229.237 64.7357 229.715 64.8228 230.199 64.8852C230.631 64.9407 231 64.5949 231 64.16V57.9452C230.575 57.8981 230.157 57.8213 229.751 57.7167C229.216 57.5791 228.894 57.0339 229.032 56.4991C229.169 55.9641 229.715 55.6421 230.249 55.7799C230.808 55.9236 231.394 56.0003 232 56.0003C232.606 56.0003 233.193 55.9236 233.751 55.7799C234.286 55.6421 234.831 55.9641 234.969 56.4991C235.106 57.0339 234.784 57.5791 234.249 57.7167C233.843 57.8213 233.426 57.8981 233 57.9452V64.1599C233 64.5949 233.37 64.9405 233.801 64.8851C234.286 64.8228 234.763 64.7357 235.231 64.6249C235.671 64.5211 235.987 64.1351 236.001 63.6835C236.027 62.8645 236.599 62.0509 237.513 61.5207C240.792 59.6184 243 56.0677 243 52C243 45.9249 238.075 41 232 41Z" fill="#567FEF"/>
<path fill-rule="evenodd" clip-rule="evenodd" d="M228.018 66.533C228.121 65.9903 228.644 65.6339 229.187 65.7368C230.097 65.9095 231.038 66 232 66C232.963 66 233.903 65.9095 234.814 65.7368C235.356 65.6339 235.88 65.9903 235.983 66.533C236.086 67.0755 235.729 67.5988 235.187 67.7018C234.154 67.8976 233.088 68 232 68C230.912 68 229.847 67.8976 228.814 67.7018C228.271 67.5988 227.915 67.0755 228.018 66.533Z" fill="#567FEF"/>
<path fill-rule="evenodd" clip-rule="evenodd" d="M229.006 69.792C229.063 69.2427 229.555 68.844 230.104 68.9015C230.727 68.9666 231.359 69 232 69C232.641 69 233.273 68.9666 233.896 68.9015C234.445 68.844 234.937 69.2427 234.995 69.792C235.052 70.3412 234.653 70.8331 234.104 70.8906C233.412 70.963 232.71 71 232 71C231.29 71 230.588 70.963 229.896 70.8906C229.347 70.8331 228.948 70.3412 229.006 69.792Z" fill="#567FEF"/>
<g filter="url(#filter3_d_109_328)">
<rect x="288" y="24" width="64" height="64" rx="32" fill="#EBF0FF"/>
<rect x="289.5" y="25.5" width="61" height="61" rx="30.5" stroke="#567FEF" stroke-width="3"/>
</g>
<path d="M320 41C313.925 41 309 45.9249 309 52C309 56.0677 311.208 59.6184 314.487 61.5207C315.401 62.0509 315.973 62.8645 315.999 63.6835C316.013 64.1351 316.329 64.5211 316.769 64.6249C317.237 64.7357 317.715 64.8228 318.199 64.8852C318.631 64.9407 319 64.5949 319 64.16V57.9452C318.575 57.8981 318.157 57.8213 317.751 57.7167C317.216 57.5791 316.894 57.0339 317.032 56.4991C317.169 55.9641 317.715 55.6421 318.249 55.7799C318.808 55.9236 319.394 56.0003 320 56.0003C320.606 56.0003 321.193 55.9236 321.751 55.7799C322.286 55.6421 322.831 55.9641 322.969 56.4991C323.106 57.0339 322.784 57.5791 322.249 57.7167C321.843 57.8213 321.426 57.8981 321 57.9452V64.1599C321 64.5949 321.37 64.9405 321.801 64.8851C322.286 64.8228 322.763 64.7357 323.231 64.6249C323.671 64.5211 323.987 64.1351 324.001 63.6835C324.027 62.8645 324.599 62.0509 325.513 61.5207C328.792 59.6184 331 56.0677 331 52C331 45.9249 326.075 41 320 41Z" fill="#567FEF"/>
<path fill-rule="evenodd" clip-rule="evenodd" d="M316.018 66.533C316.121 65.9903 316.644 65.6339 317.187 65.7368C318.097 65.9095 319.038 66 320 66C320.963 66 321.903 65.9095 322.814 65.7368C323.356 65.6339 323.88 65.9903 323.983 66.533C324.086 67.0755 323.729 67.5988 323.187 67.7018C322.154 67.8976 321.088 68 320 68C318.912 68 317.847 67.8976 316.814 67.7018C316.271 67.5988 315.915 67.0755 316.018 66.533Z" fill="#567FEF"/>
<path fill-rule="evenodd" clip-rule="evenodd" d="M317.006 69.792C317.063 69.2427 317.555 68.844 318.104 68.9015C318.727 68.9666 319.359 69 320 69C320.641 69 321.273 68.9666 321.896 68.9015C322.445 68.844 322.937 69.2427 322.995 69.792C323.052 70.3412 322.653 70.8331 322.104 70.8906C321.412 70.963 320.71 71 320 71C319.29 71 318.588 70.963 317.896 70.8906C317.347 70.8331 316.948 70.3412 317.006 69.792Z" fill="#567FEF"/>
<rect x="0.5" y="0.5" width="375" height="111" rx="7.5" stroke="white" stroke-opacity="0.1"/>
<defs>
<filter id="filter0_d_109_328" x="20" y="22" width="72" height="72" filterUnits="userSpaceOnUse" color-interpolation-filters="sRGB">
<feFlood flood-opacity="0" result="BackgroundImageFix"/>
<feColorMatrix in="SourceAlpha" type="matrix" values="0 0 0 0 0 0 0 0 0 0 0 0 0 0 0 0 0 0 127 0" result="hardAlpha"/>
<feOffset dy="2"/>
<feGaussianBlur stdDeviation="2"/>
<feComposite in2="hardAlpha" operator="out"/>
<feColorMatrix type="matrix" values="0 0 0 0 0 0 0 0 0 0 0 0 0 0 0 0 0 0 0.17 0"/>
<feBlend mode="normal" in2="BackgroundImageFix" result="effect1_dropShadow_109_328"/>
<feBlend mode="normal" in="SourceGraphic" in2="effect1_dropShadow_109_328" result="shape"/>
</filter>
<filter id="filter1_d_109_328" x="108" y="22" width="72" height="72" filterUnits="userSpaceOnUse" color-interpolation-filters="sRGB">
<feFlood flood-opacity="0" result="BackgroundImageFix"/>
<feColorMatrix in="SourceAlpha" type="matrix" values="0 0 0 0 0 0 0 0 0 0 0 0 0 0 0 0 0 0 127 0" result="hardAlpha"/>
<feOffset dy="2"/>
<feGaussianBlur stdDeviation="2"/>
<feComposite in2="hardAlpha" operator="out"/>
<feColorMatrix type="matrix" values="0 0 0 0 0 0 0 0 0 0 0 0 0 0 0 0 0 0 0.17 0"/>
<feBlend mode="normal" in2="BackgroundImageFix" result="effect1_dropShadow_109_328"/>
<feBlend mode="normal" in="SourceGraphic" in2="effect1_dropShadow_109_328" result="shape"/>
</filter>
<filter id="filter2_d_109_328" x="196" y="22" width="72" height="72" filterUnits="userSpaceOnUse" color-interpolation-filters="sRGB">
<feFlood flood-opacity="0" result="BackgroundImageFix"/>
<feColorMatrix in="SourceAlpha" type="matrix" values="0 0 0 0 0 0 0 0 0 0 0 0 0 0 0 0 0 0 127 0" result="hardAlpha"/>
<feOffset dy="2"/>
<feGaussianBlur stdDeviation="2"/>
<feComposite in2="hardAlpha" operator="out"/>
<feColorMatrix type="matrix" values="0 0 0 0 0 0 0 0 0 0 0 0 0 0 0 0 0 0 0.17 0"/>
<feBlend mode="normal" in2="BackgroundImageFix" result="effect1_dropShadow_109_328"/>
<feBlend mode="normal" in="SourceGraphic" in2="effect1_dropShadow_109_328" result="shape"/>
</filter>
<filter id="filter3_d_109_328" x="284" y="22" width="72" height="72" filterUnits="userSpaceOnUse" color-interpolation-filters="sRGB">
<feFlood flood-opacity="0" result="BackgroundImageFix"/>
<feColorMatrix in="SourceAlpha" type="matrix" values="0 0 0 0 0 0 0 0 0 0 0 0 0 0 0 0 0 0 127 0" result="hardAlpha"/>
<feOffset dy="2"/>
<feGaussianBlur stdDeviation="2"/>
<feComposite in2="hardAlpha" operator="out"/>
<feColorMatrix type="matrix" values="0 0 0 0 0 0 0 0 0 0 0 0 0 0 0 0 0 0 0.17 0"/>
<feBlend mode="normal" in2="BackgroundImageFix" result="effect1_dropShadow_109_328"/>
<feBlend mode="normal" in="SourceGraphic" in2="effect1_dropShadow_109_328" result="shape"/>
</filter>
</defs>
</svg>
