<svg width="552" height="468" viewBox="0 0 552 468" fill="none" xmlns="http://www.w3.org/2000/svg">
<rect width="552" height="468" rx="8" fill="#F0F0F0"/>
<rect x="24" y="24" width="240" height="240" rx="24" fill="url(#paint0_linear_44_10)"/>
<path fill-rule="evenodd" clip-rule="evenodd" d="M236 42.25C230.615 42.25 226.25 46.6152 226.25 52C226.25 57.3848 230.615 61.75 236 61.75C241.385 61.75 245.75 57.3848 245.75 52C245.75 46.6152 241.385 42.25 236 42.25ZM236 50.875C235.379 50.875 234.875 51.3787 234.875 52C234.875 52.6213 235.379 53.125 236 53.125C236.621 53.125 237.125 52.6213 237.125 52C237.125 51.3787 236.621 50.875 236 50.875ZM239.375 52C239.375 51.3787 239.879 50.875 240.5 50.875C241.121 50.875 241.625 51.3787 241.625 52C241.625 52.6213 241.121 53.125 240.5 53.125C239.879 53.125 239.375 52.6213 239.375 52ZM231.5 50.875C230.879 50.875 230.375 51.3787 230.375 52C230.375 52.6213 230.879 53.125 231.5 53.125C232.121 53.125 232.625 52.6213 232.625 52C232.625 51.3787 232.121 50.875 231.5 50.875Z" fill="white"/>
<path d="M106.799 165.909V136.818H108.663V165.909H106.799ZM112.174 146.125C112.068 145.133 111.621 144.36 110.834 143.807C110.053 143.254 109.038 142.977 107.788 142.977C106.909 142.977 106.155 143.11 105.527 143.375C104.898 143.64 104.417 144 104.084 144.455C103.75 144.909 103.58 145.428 103.572 146.011C103.572 146.496 103.682 146.917 103.902 147.273C104.129 147.629 104.436 147.932 104.822 148.182C105.209 148.424 105.637 148.629 106.106 148.795C106.576 148.962 107.049 149.102 107.527 149.216L109.709 149.761C110.587 149.966 111.432 150.242 112.243 150.591C113.061 150.939 113.792 151.379 114.436 151.909C115.087 152.439 115.602 153.08 115.981 153.83C116.36 154.58 116.549 155.458 116.549 156.466C116.549 157.83 116.201 159.03 115.504 160.068C114.807 161.098 113.799 161.905 112.481 162.489C111.171 163.064 109.584 163.352 107.72 163.352C105.909 163.352 104.337 163.072 103.004 162.511C101.678 161.951 100.64 161.133 99.8903 160.057C99.1479 158.981 98.7464 157.67 98.6858 156.125H102.834C102.894 156.936 103.144 157.61 103.584 158.148C104.023 158.686 104.595 159.087 105.299 159.352C106.012 159.617 106.807 159.75 107.686 159.75C108.602 159.75 109.405 159.614 110.095 159.341C110.792 159.061 111.337 158.674 111.731 158.182C112.125 157.682 112.326 157.098 112.334 156.432C112.326 155.826 112.148 155.326 111.799 154.932C111.451 154.53 110.962 154.197 110.334 153.932C109.712 153.659 108.985 153.417 108.152 153.205L105.504 152.523C103.587 152.03 102.072 151.284 100.959 150.284C99.8525 149.277 99.2994 147.939 99.2994 146.273C99.2994 144.902 99.6706 143.701 100.413 142.67C101.163 141.64 102.182 140.841 103.47 140.273C104.758 139.697 106.216 139.409 107.845 139.409C109.496 139.409 110.943 139.697 112.186 140.273C113.436 140.841 114.417 141.633 115.129 142.648C115.841 143.655 116.209 144.814 116.231 146.125H112.174ZM118.481 163V159.955L126.56 152.034C127.333 151.254 127.977 150.561 128.492 149.955C129.007 149.348 129.394 148.761 129.651 148.193C129.909 147.625 130.038 147.019 130.038 146.375C130.038 145.64 129.871 145.011 129.538 144.489C129.204 143.958 128.746 143.549 128.163 143.261C127.579 142.973 126.916 142.83 126.174 142.83C125.409 142.83 124.738 142.989 124.163 143.307C123.587 143.617 123.14 144.061 122.822 144.636C122.511 145.212 122.356 145.898 122.356 146.693H118.344C118.344 145.216 118.681 143.932 119.356 142.841C120.03 141.75 120.958 140.905 122.14 140.307C123.329 139.708 124.693 139.409 126.231 139.409C127.791 139.409 129.163 139.701 130.344 140.284C131.526 140.867 132.443 141.667 133.094 142.682C133.753 143.697 134.083 144.856 134.083 146.159C134.083 147.03 133.916 147.886 133.583 148.727C133.25 149.568 132.663 150.5 131.822 151.523C130.988 152.545 129.818 153.784 128.31 155.239L124.299 159.318V159.477H134.435V163H118.481ZM135.835 158.682V155.33L145.71 139.727H148.506V144.5H146.801L140.153 155.034V155.216H153.938V158.682H135.835ZM146.938 163V157.659L146.983 156.159V139.727H150.96V163H146.938ZM164.059 163.318C162.544 163.318 161.188 163.034 159.991 162.466C158.794 161.89 157.843 161.102 157.139 160.102C156.442 159.102 156.07 157.958 156.025 156.67H160.116C160.192 157.625 160.605 158.405 161.355 159.011C162.105 159.61 163.006 159.909 164.059 159.909C164.885 159.909 165.62 159.72 166.264 159.341C166.908 158.962 167.415 158.436 167.786 157.761C168.158 157.087 168.339 156.318 168.332 155.455C168.339 154.576 168.154 153.795 167.775 153.114C167.396 152.432 166.877 151.898 166.218 151.511C165.559 151.117 164.802 150.92 163.945 150.92C163.248 150.913 162.563 151.042 161.889 151.307C161.214 151.572 160.68 151.92 160.286 152.352L156.48 151.727L157.695 139.727H171.195V143.25H161.184L160.514 149.42H160.65C161.082 148.913 161.692 148.492 162.48 148.159C163.267 147.818 164.131 147.648 165.07 147.648C166.48 147.648 167.737 147.981 168.843 148.648C169.949 149.307 170.82 150.216 171.457 151.375C172.093 152.534 172.411 153.86 172.411 155.352C172.411 156.89 172.055 158.261 171.343 159.466C170.639 160.663 169.658 161.606 168.4 162.295C167.15 162.977 165.703 163.318 164.059 163.318ZM178.414 157.523L178.402 152.557H179.061L185.334 145.545H190.141L182.425 154.136H181.573L178.414 157.523ZM174.664 163V139.727H178.777V163H174.664ZM185.618 163L179.936 155.057L182.709 152.159L190.539 163H185.618Z" fill="white"/>
<path d="M115.278 191V179.364H119.21C120.119 179.364 120.865 179.519 121.448 179.83C122.032 180.136 122.463 180.559 122.744 181.097C123.024 181.634 123.164 182.246 123.164 182.932C123.164 183.617 123.024 184.225 122.744 184.756C122.463 185.286 122.034 185.703 121.454 186.006C120.874 186.305 120.134 186.455 119.232 186.455H116.051V185.182H119.187C119.808 185.182 120.308 185.091 120.687 184.909C121.07 184.727 121.346 184.47 121.516 184.136C121.691 183.799 121.778 183.398 121.778 182.932C121.778 182.466 121.691 182.059 121.516 181.71C121.342 181.362 121.064 181.093 120.681 180.903C120.299 180.71 119.793 180.614 119.164 180.614H116.687V191H115.278ZM120.755 185.773L123.619 191H121.982L119.164 185.773H120.755ZM128.096 191.182C127.255 191.182 126.529 190.996 125.92 190.625C125.314 190.25 124.846 189.727 124.516 189.057C124.19 188.383 124.028 187.598 124.028 186.705C124.028 185.811 124.19 185.023 124.516 184.341C124.846 183.655 125.304 183.121 125.891 182.739C126.482 182.352 127.171 182.159 127.959 182.159C128.414 182.159 128.863 182.235 129.306 182.386C129.749 182.538 130.153 182.784 130.516 183.125C130.88 183.462 131.17 183.909 131.386 184.466C131.601 185.023 131.709 185.708 131.709 186.523V187.091H124.982V185.932H130.346C130.346 185.439 130.247 185 130.05 184.614C129.857 184.227 129.581 183.922 129.221 183.699C128.865 183.475 128.444 183.364 127.959 183.364C127.425 183.364 126.963 183.496 126.573 183.761C126.187 184.023 125.889 184.364 125.681 184.784C125.473 185.205 125.368 185.655 125.368 186.136V186.909C125.368 187.568 125.482 188.127 125.709 188.585C125.94 189.04 126.261 189.386 126.67 189.625C127.079 189.86 127.554 189.977 128.096 189.977C128.448 189.977 128.766 189.928 129.05 189.83C129.338 189.727 129.586 189.576 129.795 189.375C130.003 189.17 130.164 188.917 130.278 188.614L131.573 188.977C131.437 189.417 131.207 189.803 130.886 190.136C130.564 190.466 130.166 190.723 129.692 190.909C129.219 191.091 128.687 191.182 128.096 191.182ZM139.82 182.273L136.593 191H135.229L132.002 182.273H133.456L135.865 189.227H135.956L138.365 182.273H139.82ZM144.136 191.182C143.295 191.182 142.57 190.996 141.96 190.625C141.354 190.25 140.886 189.727 140.557 189.057C140.231 188.383 140.068 187.598 140.068 186.705C140.068 185.811 140.231 185.023 140.557 184.341C140.886 183.655 141.345 183.121 141.932 182.739C142.523 182.352 143.212 182.159 144 182.159C144.455 182.159 144.903 182.235 145.347 182.386C145.79 182.538 146.193 182.784 146.557 183.125C146.92 183.462 147.21 183.909 147.426 184.466C147.642 185.023 147.75 185.708 147.75 186.523V187.091H141.023V185.932H146.386C146.386 185.439 146.288 185 146.091 184.614C145.898 184.227 145.621 183.922 145.261 183.699C144.905 183.475 144.485 183.364 144 183.364C143.466 183.364 143.004 183.496 142.614 183.761C142.227 184.023 141.93 184.364 141.722 184.784C141.513 185.205 141.409 185.655 141.409 186.136V186.909C141.409 187.568 141.523 188.127 141.75 188.585C141.981 189.04 142.301 189.386 142.71 189.625C143.119 189.86 143.595 189.977 144.136 189.977C144.489 189.977 144.807 189.928 145.091 189.83C145.379 189.727 145.627 189.576 145.835 189.375C146.044 189.17 146.205 188.917 146.318 188.614L147.614 188.977C147.477 189.417 147.248 189.803 146.926 190.136C146.604 190.466 146.206 190.723 145.733 190.909C145.259 191.091 144.727 191.182 144.136 191.182ZM150.331 185.75V191H148.99V182.273H150.285V183.636H150.399C150.603 183.193 150.914 182.837 151.331 182.568C151.747 182.295 152.285 182.159 152.944 182.159C153.535 182.159 154.052 182.28 154.495 182.523C154.939 182.761 155.283 183.125 155.53 183.614C155.776 184.098 155.899 184.712 155.899 185.455V191H154.558V185.545C154.558 184.86 154.38 184.326 154.024 183.943C153.668 183.557 153.179 183.364 152.558 183.364C152.13 183.364 151.747 183.456 151.41 183.642C151.077 183.828 150.814 184.098 150.62 184.455C150.427 184.811 150.331 185.242 150.331 185.75ZM163.049 187.432V182.273H164.39V191H163.049V189.523H162.958C162.754 189.966 162.436 190.343 162.004 190.653C161.572 190.96 161.026 191.114 160.367 191.114C159.822 191.114 159.337 190.994 158.913 190.756C158.489 190.513 158.155 190.15 157.913 189.665C157.67 189.176 157.549 188.561 157.549 187.818V182.273H158.89V187.727C158.89 188.364 159.068 188.871 159.424 189.25C159.784 189.629 160.242 189.818 160.799 189.818C161.132 189.818 161.471 189.733 161.816 189.562C162.165 189.392 162.456 189.131 162.691 188.778C162.93 188.426 163.049 187.977 163.049 187.432ZM169.705 191.182C168.864 191.182 168.139 190.996 167.529 190.625C166.923 190.25 166.455 189.727 166.126 189.057C165.8 188.383 165.637 187.598 165.637 186.705C165.637 185.811 165.8 185.023 166.126 184.341C166.455 183.655 166.913 183.121 167.501 182.739C168.091 182.352 168.781 182.159 169.569 182.159C170.023 182.159 170.472 182.235 170.915 182.386C171.359 182.538 171.762 182.784 172.126 183.125C172.489 183.462 172.779 183.909 172.995 184.466C173.211 185.023 173.319 185.708 173.319 186.523V187.091H166.591V185.932H171.955C171.955 185.439 171.857 185 171.66 184.614C171.466 184.227 171.19 183.922 170.83 183.699C170.474 183.475 170.054 183.364 169.569 183.364C169.035 183.364 168.573 183.496 168.182 183.761C167.796 184.023 167.499 184.364 167.29 184.784C167.082 185.205 166.978 185.655 166.978 186.136V186.909C166.978 187.568 167.091 188.127 167.319 188.585C167.55 189.04 167.87 189.386 168.279 189.625C168.688 189.86 169.163 189.977 169.705 189.977C170.057 189.977 170.376 189.928 170.66 189.83C170.948 189.727 171.196 189.576 171.404 189.375C171.612 189.17 171.773 188.917 171.887 188.614L173.182 188.977C173.046 189.417 172.817 189.803 172.495 190.136C172.173 190.466 171.775 190.723 171.302 190.909C170.828 191.091 170.296 191.182 169.705 191.182Z" fill="white" fill-opacity="0.75"/>
<path fill-rule="evenodd" clip-rule="evenodd" d="M135 90V91.5H131.026C129.107 91.5 127.497 92.9489 127.296 94.8574L124.77 118.857C124.537 121.072 126.273 123 128.499 123H159.501C161.727 123 163.463 121.072 163.23 118.857L160.704 94.8574C160.503 92.9489 158.894 91.5 156.975 91.5H153V90C153 85.0294 148.971 81 144 81C139.029 81 135 85.0294 135 90ZM144 84C140.686 84 138 86.6863 138 90V91.5H150V90C150 86.6863 147.314 84 144 84ZM138 100.5C138 103.814 140.686 106.5 144 106.5C147.314 106.5 150 103.814 150 100.5V99C150 98.1716 150.672 97.5 151.5 97.5C152.328 97.5 153 98.1716 153 99V100.5C153 105.471 148.971 109.5 144 109.5C139.029 109.5 135 105.471 135 100.5V99C135 98.1716 135.672 97.5 136.5 97.5C137.328 97.5 138 98.1716 138 99V100.5Z" fill="white"/>
<g filter="url(#filter0_d_44_10)">
<rect x="288" y="24" width="240" height="240" rx="24" fill="#E7F2FF"/>
</g>
<path fill-rule="evenodd" clip-rule="evenodd" d="M500 42.25C494.615 42.25 490.25 46.6152 490.25 52C490.25 57.3848 494.615 61.75 500 61.75C505.385 61.75 509.75 57.3848 509.75 52C509.75 46.6152 505.385 42.25 500 42.25ZM500 50.875C499.379 50.875 498.875 51.3787 498.875 52C498.875 52.6213 499.379 53.125 500 53.125C500.621 53.125 501.125 52.6213 501.125 52C501.125 51.3787 500.621 50.875 500 50.875ZM503.375 52C503.375 51.3787 503.879 50.875 504.5 50.875C505.121 50.875 505.625 51.3787 505.625 52C505.625 52.6213 505.121 53.125 504.5 53.125C503.879 53.125 503.375 52.6213 503.375 52ZM495.5 50.875C494.879 50.875 494.375 51.3787 494.375 52C494.375 52.6213 494.879 53.125 495.5 53.125C496.121 53.125 496.625 52.6213 496.625 52C496.625 51.3787 496.121 50.875 495.5 50.875Z" fill="#567FEF"/>
<path d="M321.568 209.909V180.818H323.432V209.909H321.568ZM326.943 190.125C326.837 189.133 326.39 188.36 325.602 187.807C324.822 187.254 323.807 186.977 322.557 186.977C321.678 186.977 320.924 187.11 320.295 187.375C319.667 187.64 319.186 188 318.852 188.455C318.519 188.909 318.348 189.428 318.341 190.011C318.341 190.496 318.451 190.917 318.67 191.273C318.898 191.629 319.205 191.932 319.591 192.182C319.977 192.424 320.405 192.629 320.875 192.795C321.345 192.962 321.818 193.102 322.295 193.216L324.477 193.761C325.356 193.966 326.201 194.242 327.011 194.591C327.83 194.939 328.561 195.379 329.205 195.909C329.856 196.439 330.371 197.08 330.75 197.83C331.129 198.58 331.318 199.458 331.318 200.466C331.318 201.83 330.97 203.03 330.273 204.068C329.576 205.098 328.568 205.905 327.25 206.489C325.939 207.064 324.352 207.352 322.489 207.352C320.678 207.352 319.106 207.072 317.773 206.511C316.447 205.951 315.409 205.133 314.659 204.057C313.917 202.981 313.515 201.67 313.455 200.125H317.602C317.663 200.936 317.913 201.61 318.352 202.148C318.792 202.686 319.364 203.087 320.068 203.352C320.78 203.617 321.576 203.75 322.455 203.75C323.371 203.75 324.174 203.614 324.864 203.341C325.561 203.061 326.106 202.674 326.5 202.182C326.894 201.682 327.095 201.098 327.102 200.432C327.095 199.826 326.917 199.326 326.568 198.932C326.22 198.53 325.731 198.197 325.102 197.932C324.481 197.659 323.754 197.417 322.92 197.205L320.273 196.523C318.356 196.03 316.841 195.284 315.727 194.284C314.621 193.277 314.068 191.939 314.068 190.273C314.068 188.902 314.439 187.701 315.182 186.67C315.932 185.64 316.951 184.841 318.239 184.273C319.527 183.697 320.985 183.409 322.614 183.409C324.265 183.409 325.712 183.697 326.955 184.273C328.205 184.841 329.186 185.633 329.898 186.648C330.61 187.655 330.977 188.814 331 190.125H326.943ZM333.249 207V203.955L341.329 196.034C342.102 195.254 342.746 194.561 343.261 193.955C343.776 193.348 344.162 192.761 344.42 192.193C344.677 191.625 344.806 191.019 344.806 190.375C344.806 189.64 344.64 189.011 344.306 188.489C343.973 187.958 343.515 187.549 342.931 187.261C342.348 186.973 341.685 186.83 340.943 186.83C340.177 186.83 339.507 186.989 338.931 187.307C338.355 187.617 337.909 188.061 337.59 188.636C337.28 189.212 337.124 189.898 337.124 190.693H333.113C333.113 189.216 333.45 187.932 334.124 186.841C334.799 185.75 335.727 184.905 336.909 184.307C338.098 183.708 339.462 183.409 340.999 183.409C342.56 183.409 343.931 183.701 345.113 184.284C346.295 184.867 347.212 185.667 347.863 186.682C348.522 187.697 348.852 188.856 348.852 190.159C348.852 191.03 348.685 191.886 348.352 192.727C348.018 193.568 347.431 194.5 346.59 195.523C345.757 196.545 344.587 197.784 343.079 199.239L339.068 203.318V203.477H349.204V207H333.249ZM350.604 202.682V199.33L360.479 183.727H363.274V188.5H361.57L354.922 199.034V199.216H368.706V202.682H350.604ZM361.706 207V201.659L361.752 200.159V183.727H365.729V207H361.706ZM378.828 207.318C377.313 207.318 375.957 207.034 374.76 206.466C373.563 205.89 372.612 205.102 371.907 204.102C371.21 203.102 370.839 201.958 370.794 200.67H374.885C374.96 201.625 375.373 202.405 376.123 203.011C376.873 203.61 377.775 203.909 378.828 203.909C379.654 203.909 380.388 203.72 381.032 203.341C381.676 202.962 382.184 202.436 382.555 201.761C382.926 201.087 383.108 200.318 383.101 199.455C383.108 198.576 382.923 197.795 382.544 197.114C382.165 196.432 381.646 195.898 380.987 195.511C380.328 195.117 379.57 194.92 378.714 194.92C378.017 194.913 377.332 195.042 376.657 195.307C375.983 195.572 375.449 195.92 375.055 196.352L371.248 195.727L372.464 183.727H385.964V187.25H375.953L375.282 193.42H375.419C375.851 192.913 376.46 192.492 377.248 192.159C378.036 191.818 378.9 191.648 379.839 191.648C381.248 191.648 382.506 191.981 383.612 192.648C384.718 193.307 385.589 194.216 386.226 195.375C386.862 196.534 387.18 197.86 387.18 199.352C387.18 200.89 386.824 202.261 386.112 203.466C385.407 204.663 384.426 205.606 383.169 206.295C381.919 206.977 380.472 207.318 378.828 207.318ZM393.182 201.523L393.171 196.557H393.83L400.103 189.545H404.91L397.194 198.136H396.341L393.182 201.523ZM389.432 207V183.727H393.546V207H389.432ZM400.387 207L394.705 199.057L397.478 196.159L405.307 207H400.387Z" fill="#567FEF"/>
<path d="M313.409 235V223.364H317.341C318.25 223.364 318.996 223.519 319.58 223.83C320.163 224.136 320.595 224.559 320.875 225.097C321.155 225.634 321.295 226.246 321.295 226.932C321.295 227.617 321.155 228.225 320.875 228.756C320.595 229.286 320.165 229.703 319.585 230.006C319.006 230.305 318.265 230.455 317.364 230.455H314.182V229.182H317.318C317.939 229.182 318.439 229.091 318.818 228.909C319.201 228.727 319.477 228.47 319.648 228.136C319.822 227.799 319.909 227.398 319.909 226.932C319.909 226.466 319.822 226.059 319.648 225.71C319.473 225.362 319.195 225.093 318.812 224.903C318.43 224.71 317.924 224.614 317.295 224.614H314.818V235H313.409ZM318.886 229.773L321.75 235H320.114L317.295 229.773H318.886ZM326.227 235.182C325.386 235.182 324.661 234.996 324.051 234.625C323.445 234.25 322.977 233.727 322.647 233.057C322.322 232.383 322.159 231.598 322.159 230.705C322.159 229.811 322.322 229.023 322.647 228.341C322.977 227.655 323.435 227.121 324.022 226.739C324.613 226.352 325.303 226.159 326.091 226.159C326.545 226.159 326.994 226.235 327.437 226.386C327.88 226.538 328.284 226.784 328.647 227.125C329.011 227.462 329.301 227.909 329.517 228.466C329.733 229.023 329.841 229.708 329.841 230.523V231.091H323.113V229.932H328.477C328.477 229.439 328.379 229 328.182 228.614C327.988 228.227 327.712 227.922 327.352 227.699C326.996 227.475 326.575 227.364 326.091 227.364C325.557 227.364 325.094 227.496 324.704 227.761C324.318 228.023 324.021 228.364 323.812 228.784C323.604 229.205 323.5 229.655 323.5 230.136V230.909C323.5 231.568 323.613 232.127 323.841 232.585C324.072 233.04 324.392 233.386 324.801 233.625C325.21 233.86 325.685 233.977 326.227 233.977C326.579 233.977 326.897 233.928 327.182 233.83C327.469 233.727 327.718 233.576 327.926 233.375C328.134 233.17 328.295 232.917 328.409 232.614L329.704 232.977C329.568 233.417 329.339 233.803 329.017 234.136C328.695 234.466 328.297 234.723 327.824 234.909C327.35 235.091 326.818 235.182 326.227 235.182ZM337.951 226.273L334.724 235H333.36L330.133 226.273H331.587L333.997 233.227H334.087L336.497 226.273H337.951ZM342.268 235.182C341.427 235.182 340.701 234.996 340.091 234.625C339.485 234.25 339.018 233.727 338.688 233.057C338.362 232.383 338.199 231.598 338.199 230.705C338.199 229.811 338.362 229.023 338.688 228.341C339.018 227.655 339.476 227.121 340.063 226.739C340.654 226.352 341.343 226.159 342.131 226.159C342.586 226.159 343.035 226.235 343.478 226.386C343.921 226.538 344.324 226.784 344.688 227.125C345.052 227.462 345.341 227.909 345.557 228.466C345.773 229.023 345.881 229.708 345.881 230.523V231.091H339.154V229.932H344.518C344.518 229.439 344.419 229 344.222 228.614C344.029 228.227 343.752 227.922 343.393 227.699C343.037 227.475 342.616 227.364 342.131 227.364C341.597 227.364 341.135 227.496 340.745 227.761C340.359 228.023 340.061 228.364 339.853 228.784C339.645 229.205 339.54 229.655 339.54 230.136V230.909C339.54 231.568 339.654 232.127 339.881 232.585C340.112 233.04 340.432 233.386 340.841 233.625C341.251 233.86 341.726 233.977 342.268 233.977C342.62 233.977 342.938 233.928 343.222 233.83C343.51 233.727 343.758 233.576 343.966 233.375C344.175 233.17 344.336 232.917 344.449 232.614L345.745 232.977C345.609 233.417 345.379 233.803 345.057 234.136C344.735 234.466 344.338 234.723 343.864 234.909C343.391 235.091 342.859 235.182 342.268 235.182ZM348.462 229.75V235H347.121V226.273H348.416V227.636H348.53C348.735 227.193 349.045 226.837 349.462 226.568C349.879 226.295 350.416 226.159 351.076 226.159C351.666 226.159 352.184 226.28 352.627 226.523C353.07 226.761 353.415 227.125 353.661 227.614C353.907 228.098 354.03 228.712 354.03 229.455V235H352.689V229.545C352.689 228.86 352.511 228.326 352.155 227.943C351.799 227.557 351.31 227.364 350.689 227.364C350.261 227.364 349.879 227.456 349.541 227.642C349.208 227.828 348.945 228.098 348.752 228.455C348.559 228.811 348.462 229.242 348.462 229.75ZM361.18 231.432V226.273H362.521V235H361.18V233.523H361.089C360.885 233.966 360.567 234.343 360.135 234.653C359.703 234.96 359.158 235.114 358.499 235.114C357.953 235.114 357.468 234.994 357.044 234.756C356.62 234.513 356.286 234.15 356.044 233.665C355.802 233.176 355.68 232.561 355.68 231.818V226.273H357.021V231.727C357.021 232.364 357.199 232.871 357.555 233.25C357.915 233.629 358.374 233.818 358.93 233.818C359.264 233.818 359.603 233.733 359.947 233.562C360.296 233.392 360.588 233.131 360.822 232.778C361.061 232.426 361.18 231.977 361.18 231.432ZM367.836 235.182C366.995 235.182 366.27 234.996 365.66 234.625C365.054 234.25 364.586 233.727 364.257 233.057C363.931 232.383 363.768 231.598 363.768 230.705C363.768 229.811 363.931 229.023 364.257 228.341C364.586 227.655 365.045 227.121 365.632 226.739C366.223 226.352 366.912 226.159 367.7 226.159C368.155 226.159 368.603 226.235 369.047 226.386C369.49 226.538 369.893 226.784 370.257 227.125C370.62 227.462 370.91 227.909 371.126 228.466C371.342 229.023 371.45 229.708 371.45 230.523V231.091H364.723V229.932H370.086C370.086 229.439 369.988 229 369.791 228.614C369.598 228.227 369.321 227.922 368.961 227.699C368.605 227.475 368.185 227.364 367.7 227.364C367.166 227.364 366.704 227.496 366.314 227.761C365.927 228.023 365.63 228.364 365.422 228.784C365.213 229.205 365.109 229.655 365.109 230.136V230.909C365.109 231.568 365.223 232.127 365.45 232.585C365.681 233.04 366.001 233.386 366.41 233.625C366.819 233.86 367.295 233.977 367.836 233.977C368.189 233.977 368.507 233.928 368.791 233.83C369.079 233.727 369.327 233.576 369.535 233.375C369.744 233.17 369.905 232.917 370.018 232.614L371.314 232.977C371.177 233.417 370.948 233.803 370.626 234.136C370.304 234.466 369.906 234.723 369.433 234.909C368.959 235.091 368.427 235.182 367.836 235.182Z" fill="#567FEF"/>
<path fill-rule="evenodd" clip-rule="evenodd" d="M327 134V135.5H323.026C321.107 135.5 319.497 136.949 319.296 138.857L316.77 162.857C316.537 165.072 318.273 167 320.499 167H351.501C353.727 167 355.463 165.072 355.23 162.857L352.704 138.857C352.503 136.949 350.894 135.5 348.975 135.5H345V134C345 129.029 340.971 125 336 125C331.029 125 327 129.029 327 134ZM336 128C332.686 128 330 130.686 330 134V135.5H342V134C342 130.686 339.314 128 336 128ZM330 144.5C330 147.814 332.686 150.5 336 150.5C339.314 150.5 342 147.814 342 144.5V143C342 142.172 342.672 141.5 343.5 141.5C344.328 141.5 345 142.172 345 143V144.5C345 149.471 340.971 153.5 336 153.5C331.029 153.5 327 149.471 327 144.5V143C327 142.172 327.672 141.5 328.5 141.5C329.328 141.5 330 142.172 330 143V144.5Z" fill="#567FEF"/>
<g filter="url(#filter1_d_44_10)">
<rect x="24" y="288" width="240" height="156" rx="16" fill="#E7F2FF"/>
</g>
<path fill-rule="evenodd" clip-rule="evenodd" d="M236 306.25C230.615 306.25 226.25 310.615 226.25 316C226.25 321.385 230.615 325.75 236 325.75C241.385 325.75 245.75 321.385 245.75 316C245.75 310.615 241.385 306.25 236 306.25ZM236 314.875C235.379 314.875 234.875 315.379 234.875 316C234.875 316.621 235.379 317.125 236 317.125C236.621 317.125 237.125 316.621 237.125 316C237.125 315.379 236.621 314.875 236 314.875ZM239.375 316C239.375 315.379 239.879 314.875 240.5 314.875C241.121 314.875 241.625 315.379 241.625 316C241.625 316.621 241.121 317.125 240.5 317.125C239.879 317.125 239.375 316.621 239.375 316ZM231.5 314.875C230.879 314.875 230.375 315.379 230.375 316C230.375 316.621 230.879 317.125 231.5 317.125C232.121 317.125 232.625 316.621 232.625 316C232.625 315.379 232.121 314.875 231.5 314.875Z" fill="#567FEF"/>
<path d="M106.799 393.909V364.818H108.663V393.909H106.799ZM112.174 374.125C112.068 373.133 111.621 372.36 110.834 371.807C110.053 371.254 109.038 370.977 107.788 370.977C106.909 370.977 106.155 371.11 105.527 371.375C104.898 371.64 104.417 372 104.084 372.455C103.75 372.909 103.58 373.428 103.572 374.011C103.572 374.496 103.682 374.917 103.902 375.273C104.129 375.629 104.436 375.932 104.822 376.182C105.209 376.424 105.637 376.629 106.106 376.795C106.576 376.962 107.049 377.102 107.527 377.216L109.709 377.761C110.587 377.966 111.432 378.242 112.243 378.591C113.061 378.939 113.792 379.379 114.436 379.909C115.087 380.439 115.602 381.08 115.981 381.83C116.36 382.58 116.549 383.458 116.549 384.466C116.549 385.83 116.201 387.03 115.504 388.068C114.807 389.098 113.799 389.905 112.481 390.489C111.171 391.064 109.584 391.352 107.72 391.352C105.909 391.352 104.337 391.072 103.004 390.511C101.678 389.951 100.64 389.133 99.8903 388.057C99.1479 386.981 98.7464 385.67 98.6858 384.125H102.834C102.894 384.936 103.144 385.61 103.584 386.148C104.023 386.686 104.595 387.087 105.299 387.352C106.012 387.617 106.807 387.75 107.686 387.75C108.602 387.75 109.405 387.614 110.095 387.341C110.792 387.061 111.337 386.674 111.731 386.182C112.125 385.682 112.326 385.098 112.334 384.432C112.326 383.826 112.148 383.326 111.799 382.932C111.451 382.53 110.962 382.197 110.334 381.932C109.712 381.659 108.985 381.417 108.152 381.205L105.504 380.523C103.587 380.03 102.072 379.284 100.959 378.284C99.8525 377.277 99.2994 375.939 99.2994 374.273C99.2994 372.902 99.6706 371.701 100.413 370.67C101.163 369.64 102.182 368.841 103.47 368.273C104.758 367.697 106.216 367.409 107.845 367.409C109.496 367.409 110.943 367.697 112.186 368.273C113.436 368.841 114.417 369.633 115.129 370.648C115.841 371.655 116.209 372.814 116.231 374.125H112.174ZM118.481 391V387.955L126.56 380.034C127.333 379.254 127.977 378.561 128.492 377.955C129.007 377.348 129.394 376.761 129.651 376.193C129.909 375.625 130.038 375.019 130.038 374.375C130.038 373.64 129.871 373.011 129.538 372.489C129.204 371.958 128.746 371.549 128.163 371.261C127.579 370.973 126.916 370.83 126.174 370.83C125.409 370.83 124.738 370.989 124.163 371.307C123.587 371.617 123.14 372.061 122.822 372.636C122.511 373.212 122.356 373.898 122.356 374.693H118.344C118.344 373.216 118.681 371.932 119.356 370.841C120.03 369.75 120.958 368.905 122.14 368.307C123.329 367.708 124.693 367.409 126.231 367.409C127.791 367.409 129.163 367.701 130.344 368.284C131.526 368.867 132.443 369.667 133.094 370.682C133.753 371.697 134.083 372.856 134.083 374.159C134.083 375.03 133.916 375.886 133.583 376.727C133.25 377.568 132.663 378.5 131.822 379.523C130.988 380.545 129.818 381.784 128.31 383.239L124.299 387.318V387.477H134.435V391H118.481ZM135.835 386.682V383.33L145.71 367.727H148.506V372.5H146.801L140.153 383.034V383.216H153.938V386.682H135.835ZM146.938 391V385.659L146.983 384.159V367.727H150.96V391H146.938ZM164.059 391.318C162.544 391.318 161.188 391.034 159.991 390.466C158.794 389.89 157.843 389.102 157.139 388.102C156.442 387.102 156.07 385.958 156.025 384.67H160.116C160.192 385.625 160.605 386.405 161.355 387.011C162.105 387.61 163.006 387.909 164.059 387.909C164.885 387.909 165.62 387.72 166.264 387.341C166.908 386.962 167.415 386.436 167.786 385.761C168.158 385.087 168.339 384.318 168.332 383.455C168.339 382.576 168.154 381.795 167.775 381.114C167.396 380.432 166.877 379.898 166.218 379.511C165.559 379.117 164.802 378.92 163.945 378.92C163.248 378.913 162.563 379.042 161.889 379.307C161.214 379.572 160.68 379.92 160.286 380.352L156.48 379.727L157.695 367.727H171.195V371.25H161.184L160.514 377.42H160.65C161.082 376.913 161.692 376.492 162.48 376.159C163.267 375.818 164.131 375.648 165.07 375.648C166.48 375.648 167.737 375.981 168.843 376.648C169.949 377.307 170.82 378.216 171.457 379.375C172.093 380.534 172.411 381.86 172.411 383.352C172.411 384.89 172.055 386.261 171.343 387.466C170.639 388.663 169.658 389.606 168.4 390.295C167.15 390.977 165.703 391.318 164.059 391.318ZM178.414 385.523L178.402 380.557H179.061L185.334 373.545H190.141L182.425 382.136H181.573L178.414 385.523ZM174.664 391V367.727H178.777V391H174.664ZM185.618 391L179.936 383.057L182.709 380.159L190.539 391H185.618Z" fill="#567FEF"/>
<path d="M115.278 419V407.364H119.21C120.119 407.364 120.865 407.519 121.448 407.83C122.032 408.136 122.463 408.559 122.744 409.097C123.024 409.634 123.164 410.246 123.164 410.932C123.164 411.617 123.024 412.225 122.744 412.756C122.463 413.286 122.034 413.703 121.454 414.006C120.874 414.305 120.134 414.455 119.232 414.455H116.051V413.182H119.187C119.808 413.182 120.308 413.091 120.687 412.909C121.07 412.727 121.346 412.47 121.516 412.136C121.691 411.799 121.778 411.398 121.778 410.932C121.778 410.466 121.691 410.059 121.516 409.71C121.342 409.362 121.064 409.093 120.681 408.903C120.299 408.71 119.793 408.614 119.164 408.614H116.687V419H115.278ZM120.755 413.773L123.619 419H121.982L119.164 413.773H120.755ZM128.096 419.182C127.255 419.182 126.529 418.996 125.92 418.625C125.314 418.25 124.846 417.727 124.516 417.057C124.19 416.383 124.028 415.598 124.028 414.705C124.028 413.811 124.19 413.023 124.516 412.341C124.846 411.655 125.304 411.121 125.891 410.739C126.482 410.352 127.171 410.159 127.959 410.159C128.414 410.159 128.863 410.235 129.306 410.386C129.749 410.538 130.153 410.784 130.516 411.125C130.88 411.462 131.17 411.909 131.386 412.466C131.601 413.023 131.709 413.708 131.709 414.523V415.091H124.982V413.932H130.346C130.346 413.439 130.247 413 130.05 412.614C129.857 412.227 129.581 411.922 129.221 411.699C128.865 411.475 128.444 411.364 127.959 411.364C127.425 411.364 126.963 411.496 126.573 411.761C126.187 412.023 125.889 412.364 125.681 412.784C125.473 413.205 125.368 413.655 125.368 414.136V414.909C125.368 415.568 125.482 416.127 125.709 416.585C125.94 417.04 126.261 417.386 126.67 417.625C127.079 417.86 127.554 417.977 128.096 417.977C128.448 417.977 128.766 417.928 129.05 417.83C129.338 417.727 129.586 417.576 129.795 417.375C130.003 417.17 130.164 416.917 130.278 416.614L131.573 416.977C131.437 417.417 131.207 417.803 130.886 418.136C130.564 418.466 130.166 418.723 129.692 418.909C129.219 419.091 128.687 419.182 128.096 419.182ZM139.82 410.273L136.593 419H135.229L132.002 410.273H133.456L135.865 417.227H135.956L138.365 410.273H139.82ZM144.136 419.182C143.295 419.182 142.57 418.996 141.96 418.625C141.354 418.25 140.886 417.727 140.557 417.057C140.231 416.383 140.068 415.598 140.068 414.705C140.068 413.811 140.231 413.023 140.557 412.341C140.886 411.655 141.345 411.121 141.932 410.739C142.523 410.352 143.212 410.159 144 410.159C144.455 410.159 144.903 410.235 145.347 410.386C145.79 410.538 146.193 410.784 146.557 411.125C146.92 411.462 147.21 411.909 147.426 412.466C147.642 413.023 147.75 413.708 147.75 414.523V415.091H141.023V413.932H146.386C146.386 413.439 146.288 413 146.091 412.614C145.898 412.227 145.621 411.922 145.261 411.699C144.905 411.475 144.485 411.364 144 411.364C143.466 411.364 143.004 411.496 142.614 411.761C142.227 412.023 141.93 412.364 141.722 412.784C141.513 413.205 141.409 413.655 141.409 414.136V414.909C141.409 415.568 141.523 416.127 141.75 416.585C141.981 417.04 142.301 417.386 142.71 417.625C143.119 417.86 143.595 417.977 144.136 417.977C144.489 417.977 144.807 417.928 145.091 417.83C145.379 417.727 145.627 417.576 145.835 417.375C146.044 417.17 146.205 416.917 146.318 416.614L147.614 416.977C147.477 417.417 147.248 417.803 146.926 418.136C146.604 418.466 146.206 418.723 145.733 418.909C145.259 419.091 144.727 419.182 144.136 419.182ZM150.331 413.75V419H148.99V410.273H150.285V411.636H150.399C150.603 411.193 150.914 410.837 151.331 410.568C151.747 410.295 152.285 410.159 152.944 410.159C153.535 410.159 154.052 410.28 154.495 410.523C154.939 410.761 155.283 411.125 155.53 411.614C155.776 412.098 155.899 412.712 155.899 413.455V419H154.558V413.545C154.558 412.86 154.38 412.326 154.024 411.943C153.668 411.557 153.179 411.364 152.558 411.364C152.13 411.364 151.747 411.456 151.41 411.642C151.077 411.828 150.814 412.098 150.62 412.455C150.427 412.811 150.331 413.242 150.331 413.75ZM163.049 415.432V410.273H164.39V419H163.049V417.523H162.958C162.754 417.966 162.436 418.343 162.004 418.653C161.572 418.96 161.026 419.114 160.367 419.114C159.822 419.114 159.337 418.994 158.913 418.756C158.489 418.513 158.155 418.15 157.913 417.665C157.67 417.176 157.549 416.561 157.549 415.818V410.273H158.89V415.727C158.89 416.364 159.068 416.871 159.424 417.25C159.784 417.629 160.242 417.818 160.799 417.818C161.132 417.818 161.471 417.733 161.816 417.562C162.165 417.392 162.456 417.131 162.691 416.778C162.93 416.426 163.049 415.977 163.049 415.432ZM169.705 419.182C168.864 419.182 168.139 418.996 167.529 418.625C166.923 418.25 166.455 417.727 166.126 417.057C165.8 416.383 165.637 415.598 165.637 414.705C165.637 413.811 165.8 413.023 166.126 412.341C166.455 411.655 166.913 411.121 167.501 410.739C168.091 410.352 168.781 410.159 169.569 410.159C170.023 410.159 170.472 410.235 170.915 410.386C171.359 410.538 171.762 410.784 172.126 411.125C172.489 411.462 172.779 411.909 172.995 412.466C173.211 413.023 173.319 413.708 173.319 414.523V415.091H166.591V413.932H171.955C171.955 413.439 171.857 413 171.66 412.614C171.466 412.227 171.19 411.922 170.83 411.699C170.474 411.475 170.054 411.364 169.569 411.364C169.035 411.364 168.573 411.496 168.182 411.761C167.796 412.023 167.499 412.364 167.29 412.784C167.082 413.205 166.978 413.655 166.978 414.136V414.909C166.978 415.568 167.091 416.127 167.319 416.585C167.55 417.04 167.87 417.386 168.279 417.625C168.688 417.86 169.163 417.977 169.705 417.977C170.057 417.977 170.376 417.928 170.66 417.83C170.948 417.727 171.196 417.576 171.404 417.375C171.612 417.17 171.773 416.917 171.887 416.614L173.182 416.977C173.046 417.417 172.817 417.803 172.495 418.136C172.173 418.466 171.775 418.723 171.302 418.909C170.828 419.091 170.296 419.182 169.705 419.182Z" fill="#567FEF"/>
<path fill-rule="evenodd" clip-rule="evenodd" d="M135 318V319.5H131.026C129.107 319.5 127.497 320.949 127.296 322.857L124.77 346.857C124.537 349.072 126.273 351 128.499 351H159.501C161.727 351 163.463 349.072 163.23 346.857L160.704 322.857C160.503 320.949 158.894 319.5 156.975 319.5H153V318C153 313.029 148.971 309 144 309C139.029 309 135 313.029 135 318ZM144 312C140.686 312 138 314.686 138 318V319.5H150V318C150 314.686 147.314 312 144 312ZM138 328.5C138 331.814 140.686 334.5 144 334.5C147.314 334.5 150 331.814 150 328.5V327C150 326.172 150.672 325.5 151.5 325.5C152.328 325.5 153 326.172 153 327V328.5C153 333.471 148.971 337.5 144 337.5C139.029 337.5 135 333.471 135 328.5V327C135 326.172 135.672 325.5 136.5 325.5C137.328 325.5 138 326.172 138 327V328.5Z" fill="#567FEF"/>
<g filter="url(#filter2_d_44_10)">
<rect x="288" y="288" width="240" height="156" rx="16" fill="url(#paint1_linear_44_10)"/>
</g>
<path fill-rule="evenodd" clip-rule="evenodd" d="M500 306.25C494.615 306.25 490.25 310.615 490.25 316C490.25 321.385 494.615 325.75 500 325.75C505.385 325.75 509.75 321.385 509.75 316C509.75 310.615 505.385 306.25 500 306.25ZM500 314.875C499.379 314.875 498.875 315.379 498.875 316C498.875 316.621 499.379 317.125 500 317.125C500.621 317.125 501.125 316.621 501.125 316C501.125 315.379 500.621 314.875 500 314.875ZM503.375 316C503.375 315.379 503.879 314.875 504.5 314.875C505.121 314.875 505.625 315.379 505.625 316C505.625 316.621 505.121 317.125 504.5 317.125C503.879 317.125 503.375 316.621 503.375 316ZM495.5 314.875C494.879 314.875 494.375 315.379 494.375 316C494.375 316.621 494.879 317.125 495.5 317.125C496.121 317.125 496.625 316.621 496.625 316C496.625 315.379 496.121 314.875 495.5 314.875Z" fill="white"/>
<path d="M321.568 393.909V364.818H323.432V393.909H321.568ZM326.943 374.125C326.837 373.133 326.39 372.36 325.602 371.807C324.822 371.254 323.807 370.977 322.557 370.977C321.678 370.977 320.924 371.11 320.295 371.375C319.667 371.64 319.186 372 318.852 372.455C318.519 372.909 318.348 373.428 318.341 374.011C318.341 374.496 318.451 374.917 318.67 375.273C318.898 375.629 319.205 375.932 319.591 376.182C319.977 376.424 320.405 376.629 320.875 376.795C321.345 376.962 321.818 377.102 322.295 377.216L324.477 377.761C325.356 377.966 326.201 378.242 327.011 378.591C327.83 378.939 328.561 379.379 329.205 379.909C329.856 380.439 330.371 381.08 330.75 381.83C331.129 382.58 331.318 383.458 331.318 384.466C331.318 385.83 330.97 387.03 330.273 388.068C329.576 389.098 328.568 389.905 327.25 390.489C325.939 391.064 324.352 391.352 322.489 391.352C320.678 391.352 319.106 391.072 317.773 390.511C316.447 389.951 315.409 389.133 314.659 388.057C313.917 386.981 313.515 385.67 313.455 384.125H317.602C317.663 384.936 317.913 385.61 318.352 386.148C318.792 386.686 319.364 387.087 320.068 387.352C320.78 387.617 321.576 387.75 322.455 387.75C323.371 387.75 324.174 387.614 324.864 387.341C325.561 387.061 326.106 386.674 326.5 386.182C326.894 385.682 327.095 385.098 327.102 384.432C327.095 383.826 326.917 383.326 326.568 382.932C326.22 382.53 325.731 382.197 325.102 381.932C324.481 381.659 323.754 381.417 322.92 381.205L320.273 380.523C318.356 380.03 316.841 379.284 315.727 378.284C314.621 377.277 314.068 375.939 314.068 374.273C314.068 372.902 314.439 371.701 315.182 370.67C315.932 369.64 316.951 368.841 318.239 368.273C319.527 367.697 320.985 367.409 322.614 367.409C324.265 367.409 325.712 367.697 326.955 368.273C328.205 368.841 329.186 369.633 329.898 370.648C330.61 371.655 330.977 372.814 331 374.125H326.943ZM333.249 391V387.955L341.329 380.034C342.102 379.254 342.746 378.561 343.261 377.955C343.776 377.348 344.162 376.761 344.42 376.193C344.677 375.625 344.806 375.019 344.806 374.375C344.806 373.64 344.64 373.011 344.306 372.489C343.973 371.958 343.515 371.549 342.931 371.261C342.348 370.973 341.685 370.83 340.943 370.83C340.177 370.83 339.507 370.989 338.931 371.307C338.355 371.617 337.909 372.061 337.59 372.636C337.28 373.212 337.124 373.898 337.124 374.693H333.113C333.113 373.216 333.45 371.932 334.124 370.841C334.799 369.75 335.727 368.905 336.909 368.307C338.098 367.708 339.462 367.409 340.999 367.409C342.56 367.409 343.931 367.701 345.113 368.284C346.295 368.867 347.212 369.667 347.863 370.682C348.522 371.697 348.852 372.856 348.852 374.159C348.852 375.03 348.685 375.886 348.352 376.727C348.018 377.568 347.431 378.5 346.59 379.523C345.757 380.545 344.587 381.784 343.079 383.239L339.068 387.318V387.477H349.204V391H333.249ZM350.604 386.682V383.33L360.479 367.727H363.274V372.5H361.57L354.922 383.034V383.216H368.706V386.682H350.604ZM361.706 391V385.659L361.752 384.159V367.727H365.729V391H361.706ZM378.828 391.318C377.313 391.318 375.957 391.034 374.76 390.466C373.563 389.89 372.612 389.102 371.907 388.102C371.21 387.102 370.839 385.958 370.794 384.67H374.885C374.96 385.625 375.373 386.405 376.123 387.011C376.873 387.61 377.775 387.909 378.828 387.909C379.654 387.909 380.388 387.72 381.032 387.341C381.676 386.962 382.184 386.436 382.555 385.761C382.926 385.087 383.108 384.318 383.101 383.455C383.108 382.576 382.923 381.795 382.544 381.114C382.165 380.432 381.646 379.898 380.987 379.511C380.328 379.117 379.57 378.92 378.714 378.92C378.017 378.913 377.332 379.042 376.657 379.307C375.983 379.572 375.449 379.92 375.055 380.352L371.248 379.727L372.464 367.727H385.964V371.25H375.953L375.282 377.42H375.419C375.851 376.913 376.46 376.492 377.248 376.159C378.036 375.818 378.9 375.648 379.839 375.648C381.248 375.648 382.506 375.981 383.612 376.648C384.718 377.307 385.589 378.216 386.226 379.375C386.862 380.534 387.18 381.86 387.18 383.352C387.18 384.89 386.824 386.261 386.112 387.466C385.407 388.663 384.426 389.606 383.169 390.295C381.919 390.977 380.472 391.318 378.828 391.318ZM393.182 385.523L393.171 380.557H393.83L400.103 373.545H404.91L397.194 382.136H396.341L393.182 385.523ZM389.432 391V367.727H393.546V391H389.432ZM400.387 391L394.705 383.057L397.478 380.159L405.307 391H400.387Z" fill="white"/>
<path d="M313.409 419V407.364H317.341C318.25 407.364 318.996 407.519 319.58 407.83C320.163 408.136 320.595 408.559 320.875 409.097C321.155 409.634 321.295 410.246 321.295 410.932C321.295 411.617 321.155 412.225 320.875 412.756C320.595 413.286 320.165 413.703 319.585 414.006C319.006 414.305 318.265 414.455 317.364 414.455H314.182V413.182H317.318C317.939 413.182 318.439 413.091 318.818 412.909C319.201 412.727 319.477 412.47 319.648 412.136C319.822 411.799 319.909 411.398 319.909 410.932C319.909 410.466 319.822 410.059 319.648 409.71C319.473 409.362 319.195 409.093 318.812 408.903C318.43 408.71 317.924 408.614 317.295 408.614H314.818V419H313.409ZM318.886 413.773L321.75 419H320.114L317.295 413.773H318.886ZM326.227 419.182C325.386 419.182 324.661 418.996 324.051 418.625C323.445 418.25 322.977 417.727 322.647 417.057C322.322 416.383 322.159 415.598 322.159 414.705C322.159 413.811 322.322 413.023 322.647 412.341C322.977 411.655 323.435 411.121 324.022 410.739C324.613 410.352 325.303 410.159 326.091 410.159C326.545 410.159 326.994 410.235 327.437 410.386C327.88 410.538 328.284 410.784 328.647 411.125C329.011 411.462 329.301 411.909 329.517 412.466C329.733 413.023 329.841 413.708 329.841 414.523V415.091H323.113V413.932H328.477C328.477 413.439 328.379 413 328.182 412.614C327.988 412.227 327.712 411.922 327.352 411.699C326.996 411.475 326.575 411.364 326.091 411.364C325.557 411.364 325.094 411.496 324.704 411.761C324.318 412.023 324.021 412.364 323.812 412.784C323.604 413.205 323.5 413.655 323.5 414.136V414.909C323.5 415.568 323.613 416.127 323.841 416.585C324.072 417.04 324.392 417.386 324.801 417.625C325.21 417.86 325.685 417.977 326.227 417.977C326.579 417.977 326.897 417.928 327.182 417.83C327.469 417.727 327.718 417.576 327.926 417.375C328.134 417.17 328.295 416.917 328.409 416.614L329.704 416.977C329.568 417.417 329.339 417.803 329.017 418.136C328.695 418.466 328.297 418.723 327.824 418.909C327.35 419.091 326.818 419.182 326.227 419.182ZM337.951 410.273L334.724 419H333.36L330.133 410.273H331.587L333.997 417.227H334.087L336.497 410.273H337.951ZM342.268 419.182C341.427 419.182 340.701 418.996 340.091 418.625C339.485 418.25 339.018 417.727 338.688 417.057C338.362 416.383 338.199 415.598 338.199 414.705C338.199 413.811 338.362 413.023 338.688 412.341C339.018 411.655 339.476 411.121 340.063 410.739C340.654 410.352 341.343 410.159 342.131 410.159C342.586 410.159 343.035 410.235 343.478 410.386C343.921 410.538 344.324 410.784 344.688 411.125C345.052 411.462 345.341 411.909 345.557 412.466C345.773 413.023 345.881 413.708 345.881 414.523V415.091H339.154V413.932H344.518C344.518 413.439 344.419 413 344.222 412.614C344.029 412.227 343.752 411.922 343.393 411.699C343.037 411.475 342.616 411.364 342.131 411.364C341.597 411.364 341.135 411.496 340.745 411.761C340.359 412.023 340.061 412.364 339.853 412.784C339.645 413.205 339.54 413.655 339.54 414.136V414.909C339.54 415.568 339.654 416.127 339.881 416.585C340.112 417.04 340.432 417.386 340.841 417.625C341.251 417.86 341.726 417.977 342.268 417.977C342.62 417.977 342.938 417.928 343.222 417.83C343.51 417.727 343.758 417.576 343.966 417.375C344.175 417.17 344.336 416.917 344.449 416.614L345.745 416.977C345.609 417.417 345.379 417.803 345.057 418.136C344.735 418.466 344.338 418.723 343.864 418.909C343.391 419.091 342.859 419.182 342.268 419.182ZM348.462 413.75V419H347.121V410.273H348.416V411.636H348.53C348.735 411.193 349.045 410.837 349.462 410.568C349.879 410.295 350.416 410.159 351.076 410.159C351.666 410.159 352.184 410.28 352.627 410.523C353.07 410.761 353.415 411.125 353.661 411.614C353.907 412.098 354.03 412.712 354.03 413.455V419H352.689V413.545C352.689 412.86 352.511 412.326 352.155 411.943C351.799 411.557 351.31 411.364 350.689 411.364C350.261 411.364 349.879 411.456 349.541 411.642C349.208 411.828 348.945 412.098 348.752 412.455C348.559 412.811 348.462 413.242 348.462 413.75ZM361.18 415.432V410.273H362.521V419H361.18V417.523H361.089C360.885 417.966 360.567 418.343 360.135 418.653C359.703 418.96 359.158 419.114 358.499 419.114C357.953 419.114 357.468 418.994 357.044 418.756C356.62 418.513 356.286 418.15 356.044 417.665C355.802 417.176 355.68 416.561 355.68 415.818V410.273H357.021V415.727C357.021 416.364 357.199 416.871 357.555 417.25C357.915 417.629 358.374 417.818 358.93 417.818C359.264 417.818 359.603 417.733 359.947 417.562C360.296 417.392 360.588 417.131 360.822 416.778C361.061 416.426 361.18 415.977 361.18 415.432ZM367.836 419.182C366.995 419.182 366.27 418.996 365.66 418.625C365.054 418.25 364.586 417.727 364.257 417.057C363.931 416.383 363.768 415.598 363.768 414.705C363.768 413.811 363.931 413.023 364.257 412.341C364.586 411.655 365.045 411.121 365.632 410.739C366.223 410.352 366.912 410.159 367.7 410.159C368.155 410.159 368.603 410.235 369.047 410.386C369.49 410.538 369.893 410.784 370.257 411.125C370.62 411.462 370.91 411.909 371.126 412.466C371.342 413.023 371.45 413.708 371.45 414.523V415.091H364.723V413.932H370.086C370.086 413.439 369.988 413 369.791 412.614C369.598 412.227 369.321 411.922 368.961 411.699C368.605 411.475 368.185 411.364 367.7 411.364C367.166 411.364 366.704 411.496 366.314 411.761C365.927 412.023 365.63 412.364 365.422 412.784C365.213 413.205 365.109 413.655 365.109 414.136V414.909C365.109 415.568 365.223 416.127 365.45 416.585C365.681 417.04 366.001 417.386 366.41 417.625C366.819 417.86 367.295 417.977 367.836 417.977C368.189 417.977 368.507 417.928 368.791 417.83C369.079 417.727 369.327 417.576 369.535 417.375C369.744 417.17 369.905 416.917 370.018 416.614L371.314 416.977C371.177 417.417 370.948 417.803 370.626 418.136C370.304 418.466 369.906 418.723 369.433 418.909C368.959 419.091 368.427 419.182 367.836 419.182Z" fill="white"/>
<path fill-rule="evenodd" clip-rule="evenodd" d="M327 318V319.5H323.026C321.107 319.5 319.497 320.949 319.296 322.857L316.77 346.857C316.537 349.072 318.273 351 320.499 351H351.501C353.727 351 355.463 349.072 355.23 346.857L352.704 322.857C352.503 320.949 350.894 319.5 348.975 319.5H345V318C345 313.029 340.971 309 336 309C331.029 309 327 313.029 327 318ZM336 312C332.686 312 330 314.686 330 318V319.5H342V318C342 314.686 339.314 312 336 312ZM330 328.5C330 331.814 332.686 334.5 336 334.5C339.314 334.5 342 331.814 342 328.5V327C342 326.172 342.672 325.5 343.5 325.5C344.328 325.5 345 326.172 345 327V328.5C345 333.471 340.971 337.5 336 337.5C331.029 337.5 327 333.471 327 328.5V327C327 326.172 327.672 325.5 328.5 325.5C329.328 325.5 330 326.172 330 327V328.5Z" fill="white"/>
<rect x="0.5" y="0.5" width="551" height="467" rx="7.5" stroke="white" stroke-opacity="0.1"/>
<defs>
<filter id="filter0_d_44_10" x="284" y="22" width="248" height="248" filterUnits="userSpaceOnUse" color-interpolation-filters="sRGB">
<feFlood flood-opacity="0" result="BackgroundImageFix"/>
<feColorMatrix in="SourceAlpha" type="matrix" values="0 0 0 0 0 0 0 0 0 0 0 0 0 0 0 0 0 0 127 0" result="hardAlpha"/>
<feOffset dy="2"/>
<feGaussianBlur stdDeviation="2"/>
<feComposite in2="hardAlpha" operator="out"/>
<feColorMatrix type="matrix" values="0 0 0 0 0 0 0 0 0 0 0 0 0 0 0 0 0 0 0.25 0"/>
<feBlend mode="normal" in2="BackgroundImageFix" result="effect1_dropShadow_44_10"/>
<feBlend mode="normal" in="SourceGraphic" in2="effect1_dropShadow_44_10" result="shape"/>
</filter>
<filter id="filter1_d_44_10" x="20" y="286" width="248" height="164" filterUnits="userSpaceOnUse" color-interpolation-filters="sRGB">
<feFlood flood-opacity="0" result="BackgroundImageFix"/>
<feColorMatrix in="SourceAlpha" type="matrix" values="0 0 0 0 0 0 0 0 0 0 0 0 0 0 0 0 0 0 127 0" result="hardAlpha"/>
<feOffset dy="2"/>
<feGaussianBlur stdDeviation="2"/>
<feComposite in2="hardAlpha" operator="out"/>
<feColorMatrix type="matrix" values="0 0 0 0 0 0 0 0 0 0 0 0 0 0 0 0 0 0 0.25 0"/>
<feBlend mode="normal" in2="BackgroundImageFix" result="effect1_dropShadow_44_10"/>
<feBlend mode="normal" in="SourceGraphic" in2="effect1_dropShadow_44_10" result="shape"/>
</filter>
<filter id="filter2_d_44_10" x="284" y="286" width="248" height="164" filterUnits="userSpaceOnUse" color-interpolation-filters="sRGB">
<feFlood flood-opacity="0" result="BackgroundImageFix"/>
<feColorMatrix in="SourceAlpha" type="matrix" values="0 0 0 0 0 0 0 0 0 0 0 0 0 0 0 0 0 0 127 0" result="hardAlpha"/>
<feOffset dy="2"/>
<feGaussianBlur stdDeviation="2"/>
<feComposite in2="hardAlpha" operator="out"/>
<feColorMatrix type="matrix" values="0 0 0 0 0 0 0 0 0 0 0 0 0 0 0 0 0 0 0.25 0"/>
<feBlend mode="normal" in2="BackgroundImageFix" result="effect1_dropShadow_44_10"/>
<feBlend mode="normal" in="SourceGraphic" in2="effect1_dropShadow_44_10" result="shape"/>
</filter>
<linearGradient id="paint0_linear_44_10" x1="260" y1="27.5" x2="30.5" y2="260" gradientUnits="userSpaceOnUse">
<stop stop-color="#FFBD13"/>
<stop offset="1" stop-color="#FF0E48"/>
</linearGradient>
<linearGradient id="paint1_linear_44_10" x1="522" y1="288" x2="288" y2="444" gradientUnits="userSpaceOnUse">
<stop stop-color="#0E9AFF"/>
<stop offset="1" stop-color="#632AFF"/>
</linearGradient>
</defs>
</svg>
