<svg width="552" height="486" viewBox="0 0 552 486" fill="none" xmlns="http://www.w3.org/2000/svg">
<rect width="552" height="486" rx="8" fill="#F0F0F0"/>
<rect x="24" y="24" width="240" height="240" rx="24" fill="url(#paint0_linear_44_12)"/>
<path d="M213.13 240.955V233.455H214.403V240.955H213.13ZM210.016 237.841V236.568H217.516V237.841H210.016ZM219.449 243L224.654 232.705V232.614H218.654V231.364H226.109V232.682L220.927 243H219.449ZM230.907 243.159C230.24 243.159 229.639 243.027 229.105 242.761C228.571 242.496 228.143 242.133 227.821 241.67C227.499 241.208 227.323 240.682 227.293 240.091H228.657C228.71 240.617 228.948 241.053 229.372 241.398C229.8 241.739 230.312 241.909 230.907 241.909C231.384 241.909 231.808 241.797 232.179 241.574C232.554 241.35 232.848 241.044 233.06 240.653C233.276 240.259 233.384 239.814 233.384 239.318C233.384 238.811 233.272 238.358 233.049 237.96C232.829 237.559 232.526 237.242 232.139 237.011C231.753 236.78 231.312 236.663 230.816 236.659C230.46 236.655 230.094 236.71 229.719 236.824C229.344 236.934 229.035 237.076 228.793 237.25L227.475 237.091L228.179 231.364H234.225V232.614H229.361L228.952 236.045H229.02C229.259 235.856 229.558 235.699 229.918 235.574C230.278 235.449 230.653 235.386 231.043 235.386C231.755 235.386 232.389 235.557 232.946 235.898C233.507 236.235 233.946 236.697 234.264 237.284C234.586 237.871 234.747 238.542 234.747 239.295C234.747 240.038 234.581 240.701 234.247 241.284C233.918 241.864 233.463 242.322 232.884 242.659C232.304 242.992 231.645 243.159 230.907 243.159ZM242.136 240.818V240.205C242.136 239.78 242.223 239.392 242.398 239.04C242.576 238.684 242.833 238.4 243.17 238.188C243.511 237.972 243.924 237.864 244.409 237.864C244.902 237.864 245.314 237.972 245.648 238.188C245.981 238.4 246.233 238.684 246.403 239.04C246.574 239.392 246.659 239.78 246.659 240.205V240.818C246.659 241.242 246.572 241.633 246.398 241.989C246.227 242.341 245.973 242.625 245.636 242.841C245.303 243.053 244.894 243.159 244.409 243.159C243.917 243.159 243.502 243.053 243.165 242.841C242.828 242.625 242.572 242.341 242.398 241.989C242.223 241.633 242.136 241.242 242.136 240.818ZM243.295 240.205V240.818C243.295 241.17 243.379 241.487 243.545 241.767C243.712 242.044 244 242.182 244.409 242.182C244.807 242.182 245.087 242.044 245.25 241.767C245.417 241.487 245.5 241.17 245.5 240.818V240.205C245.5 239.852 245.42 239.538 245.261 239.261C245.102 238.981 244.818 238.841 244.409 238.841C244.011 238.841 243.725 238.981 243.551 239.261C243.381 239.538 243.295 239.852 243.295 240.205ZM236.341 234.159V233.545C236.341 233.121 236.428 232.733 236.602 232.381C236.78 232.025 237.038 231.741 237.375 231.528C237.716 231.312 238.129 231.205 238.614 231.205C239.106 231.205 239.519 231.312 239.852 231.528C240.186 231.741 240.438 232.025 240.608 232.381C240.778 232.733 240.864 233.121 240.864 233.545V234.159C240.864 234.583 240.777 234.973 240.602 235.33C240.432 235.682 240.178 235.966 239.841 236.182C239.508 236.394 239.098 236.5 238.614 236.5C238.121 236.5 237.706 236.394 237.369 236.182C237.032 235.966 236.777 235.682 236.602 235.33C236.428 234.973 236.341 234.583 236.341 234.159ZM237.5 233.545V234.159C237.5 234.511 237.583 234.828 237.75 235.108C237.917 235.384 238.205 235.523 238.614 235.523C239.011 235.523 239.292 235.384 239.455 235.108C239.621 234.828 239.705 234.511 239.705 234.159V233.545C239.705 233.193 239.625 232.879 239.466 232.602C239.307 232.322 239.023 232.182 238.614 232.182C238.216 232.182 237.93 232.322 237.756 232.602C237.585 232.879 237.5 233.193 237.5 233.545ZM236.773 243L244.773 231.364H246.068L238.068 243H236.773Z" fill="white"/>
<path fill-rule="evenodd" clip-rule="evenodd" d="M195.219 231.268C195.368 230.881 195.802 230.688 196.188 230.836L202.13 233.117C202.315 233.188 202.465 233.33 202.546 233.512C202.627 233.694 202.632 233.9 202.561 234.086L200.28 240.027C200.132 240.414 199.698 240.607 199.311 240.458C198.925 240.31 198.732 239.876 198.88 239.489L200.512 235.239L199.425 235.722C196.972 236.815 195.104 238.675 193.975 240.896C193.866 241.11 193.661 241.259 193.424 241.297C193.187 241.334 192.946 241.256 192.776 241.086L189 237.31L182.78 243.53C182.487 243.823 182.013 243.823 181.72 243.53C181.427 243.237 181.427 242.762 181.72 242.469L188.47 235.719C188.61 235.579 188.801 235.5 189 235.5C189.199 235.5 189.39 235.579 189.53 235.719L193.136 239.325C194.437 237.204 196.371 235.44 198.815 234.352L199.902 233.868L195.651 232.237C195.264 232.088 195.071 231.654 195.219 231.268Z" fill="white"/>
<path d="M49.5682 217.909V188.818H51.4318V217.909H49.5682ZM54.9432 198.125C54.8371 197.133 54.3902 196.36 53.6023 195.807C52.822 195.254 51.8068 194.977 50.5568 194.977C49.678 194.977 48.9242 195.11 48.2955 195.375C47.6667 195.64 47.1856 196 46.8523 196.455C46.5189 196.909 46.3485 197.428 46.3409 198.011C46.3409 198.496 46.4508 198.917 46.6705 199.273C46.8977 199.629 47.2045 199.932 47.5909 200.182C47.9773 200.424 48.4053 200.629 48.875 200.795C49.3447 200.962 49.8182 201.102 50.2955 201.216L52.4773 201.761C53.3561 201.966 54.2008 202.242 55.0114 202.591C55.8295 202.939 56.5606 203.379 57.2045 203.909C57.8561 204.439 58.3712 205.08 58.75 205.83C59.1288 206.58 59.3182 207.458 59.3182 208.466C59.3182 209.83 58.9697 211.03 58.2727 212.068C57.5758 213.098 56.5682 213.905 55.25 214.489C53.9394 215.064 52.3523 215.352 50.4886 215.352C48.678 215.352 47.1061 215.072 45.7727 214.511C44.447 213.951 43.4091 213.133 42.6591 212.057C41.9167 210.981 41.5152 209.67 41.4545 208.125H45.6023C45.6629 208.936 45.9129 209.61 46.3523 210.148C46.7917 210.686 47.3636 211.087 48.0682 211.352C48.7803 211.617 49.5758 211.75 50.4545 211.75C51.3712 211.75 52.1742 211.614 52.8636 211.341C53.5606 211.061 54.1061 210.674 54.5 210.182C54.8939 209.682 55.0947 209.098 55.1023 208.432C55.0947 207.826 54.9167 207.326 54.5682 206.932C54.2197 206.53 53.7311 206.197 53.1023 205.932C52.4811 205.659 51.7538 205.417 50.9205 205.205L48.2727 204.523C46.3561 204.03 44.8409 203.284 43.7273 202.284C42.6212 201.277 42.0682 199.939 42.0682 198.273C42.0682 196.902 42.4394 195.701 43.1818 194.67C43.9318 193.64 44.9508 192.841 46.2386 192.273C47.5265 191.697 48.9848 191.409 50.6136 191.409C52.2652 191.409 53.7121 191.697 54.9545 192.273C56.2045 192.841 57.1856 193.633 57.8977 194.648C58.6098 195.655 58.9773 196.814 59 198.125H54.9432ZM61.2494 215V211.955L69.329 204.034C70.1017 203.254 70.7456 202.561 71.2608 201.955C71.7759 201.348 72.1623 200.761 72.4199 200.193C72.6775 199.625 72.8062 199.019 72.8062 198.375C72.8062 197.64 72.6396 197.011 72.3062 196.489C71.9729 195.958 71.5146 195.549 70.9312 195.261C70.3479 194.973 69.685 194.83 68.9426 194.83C68.1775 194.83 67.507 194.989 66.9312 195.307C66.3555 195.617 65.9085 196.061 65.5903 196.636C65.2797 197.212 65.1244 197.898 65.1244 198.693H61.1131C61.1131 197.216 61.4502 195.932 62.1244 194.841C62.7987 193.75 63.7267 192.905 64.9085 192.307C66.0979 191.708 67.4616 191.409 68.9994 191.409C70.56 191.409 71.9312 191.701 73.1131 192.284C74.2949 192.867 75.2116 193.667 75.8631 194.682C76.5222 195.697 76.8517 196.856 76.8517 198.159C76.8517 199.03 76.685 199.886 76.3517 200.727C76.0184 201.568 75.4313 202.5 74.5903 203.523C73.757 204.545 72.5866 205.784 71.079 207.239L67.0676 211.318V211.477H77.204V215H61.2494ZM78.604 210.682V207.33L88.479 191.727H91.2744V196.5H89.5699L82.9222 207.034V207.216H96.7062V210.682H78.604ZM89.7062 215V209.659L89.7517 208.159V191.727H93.729V215H89.7062ZM106.828 215.318C105.313 215.318 103.957 215.034 102.76 214.466C101.563 213.89 100.612 213.102 99.9074 212.102C99.2104 211.102 98.8392 209.958 98.7938 208.67H102.885C102.96 209.625 103.373 210.405 104.123 211.011C104.873 211.61 105.775 211.909 106.828 211.909C107.654 211.909 108.388 211.72 109.032 211.341C109.676 210.962 110.184 210.436 110.555 209.761C110.926 209.087 111.108 208.318 111.101 207.455C111.108 206.576 110.923 205.795 110.544 205.114C110.165 204.432 109.646 203.898 108.987 203.511C108.328 203.117 107.57 202.92 106.714 202.92C106.017 202.913 105.332 203.042 104.657 203.307C103.983 203.572 103.449 203.92 103.055 204.352L99.2483 203.727L100.464 191.727H113.964V195.25H103.953L103.282 201.42H103.419C103.851 200.913 104.46 200.492 105.248 200.159C106.036 199.818 106.9 199.648 107.839 199.648C109.248 199.648 110.506 199.981 111.612 200.648C112.718 201.307 113.589 202.216 114.226 203.375C114.862 204.534 115.18 205.86 115.18 207.352C115.18 208.89 114.824 210.261 114.112 211.466C113.407 212.663 112.426 213.606 111.169 214.295C109.919 214.977 108.472 215.318 106.828 215.318ZM121.182 209.523L121.171 204.557H121.83L128.103 197.545H132.91L125.194 206.136H124.341L121.182 209.523ZM117.432 215V191.727H121.546V215H117.432ZM128.387 215L122.705 207.057L125.478 204.159L133.307 215H128.387Z" fill="white"/>
<path d="M41.7614 175V160.455H46.6761C47.8125 160.455 48.7453 160.649 49.4744 161.037C50.2036 161.42 50.7434 161.948 51.0938 162.621C51.4441 163.293 51.6193 164.058 51.6193 164.915C51.6193 165.772 51.4441 166.532 51.0938 167.195C50.7434 167.857 50.206 168.378 49.4815 168.757C48.7571 169.131 47.8314 169.318 46.7045 169.318H42.7273V167.727H46.6477C47.4242 167.727 48.0492 167.614 48.5227 167.386C49.0009 167.159 49.3466 166.837 49.5597 166.42C49.7775 165.999 49.8864 165.497 49.8864 164.915C49.8864 164.332 49.7775 163.823 49.5597 163.388C49.3419 162.952 48.9938 162.616 48.5156 162.379C48.0374 162.138 47.4053 162.017 46.6193 162.017H43.5227V175H41.7614ZM48.608 168.466L52.1875 175H50.142L46.6193 168.466H48.608ZM57.7837 175.227C56.7326 175.227 55.8259 174.995 55.0636 174.531C54.306 174.062 53.7212 173.409 53.3093 172.571C52.9021 171.728 52.6985 170.748 52.6985 169.631C52.6985 168.513 52.9021 167.528 53.3093 166.676C53.7212 165.819 54.2942 165.152 55.0281 164.673C55.7667 164.19 56.6284 163.949 57.6133 163.949C58.1815 163.949 58.7425 164.044 59.2965 164.233C59.8505 164.422 60.3548 164.73 60.8093 165.156C61.2638 165.578 61.6261 166.136 61.896 166.832C62.1658 167.528 62.3008 168.385 62.3008 169.403V170.114H53.8917V168.665H60.5962C60.5962 168.049 60.4731 167.5 60.2269 167.017C59.9854 166.534 59.6398 166.153 59.19 165.874C58.7449 165.594 58.2193 165.455 57.6133 165.455C56.9457 165.455 56.368 165.62 55.8803 165.952C55.3974 166.278 55.0257 166.705 54.7653 167.23C54.5049 167.756 54.3746 168.319 54.3746 168.92V169.886C54.3746 170.71 54.5167 171.409 54.8008 171.982C55.0896 172.55 55.4897 172.983 56.0011 173.281C56.5124 173.575 57.1067 173.722 57.7837 173.722C58.2241 173.722 58.6218 173.66 58.9769 173.537C59.3368 173.409 59.6469 173.22 59.9073 172.969C60.1677 172.713 60.369 172.396 60.511 172.017L62.1303 172.472C61.9599 173.021 61.6734 173.504 61.271 173.92C60.8685 174.332 60.3713 174.654 59.7795 174.886C59.1876 175.114 58.5224 175.227 57.7837 175.227ZM72.4389 164.091L68.4048 175H66.7003L62.6662 164.091H64.4844L67.4957 172.784H67.6094L70.6207 164.091H72.4389ZM77.8345 175.227C76.7834 175.227 75.8767 174.995 75.1143 174.531C74.3568 174.062 73.772 173.409 73.3601 172.571C72.9529 171.728 72.7493 170.748 72.7493 169.631C72.7493 168.513 72.9529 167.528 73.3601 166.676C73.772 165.819 74.3449 165.152 75.0788 164.673C75.8175 164.19 76.6792 163.949 77.6641 163.949C78.2322 163.949 78.7933 164.044 79.3473 164.233C79.9013 164.422 80.4055 164.73 80.8601 165.156C81.3146 165.578 81.6768 166.136 81.9467 166.832C82.2166 167.528 82.3516 168.385 82.3516 169.403V170.114H73.9425V168.665H80.647C80.647 168.049 80.5239 167.5 80.2777 167.017C80.0362 166.534 79.6906 166.153 79.2408 165.874C78.7957 165.594 78.2701 165.455 77.6641 165.455C76.9964 165.455 76.4188 165.62 75.9311 165.952C75.4482 166.278 75.0765 166.705 74.8161 167.23C74.5556 167.756 74.4254 168.319 74.4254 168.92V169.886C74.4254 170.71 74.5675 171.409 74.8516 171.982C75.1404 172.55 75.5405 172.983 76.0518 173.281C76.5632 173.575 77.1574 173.722 77.8345 173.722C78.2749 173.722 78.6726 173.66 79.0277 173.537C79.3875 173.409 79.6977 173.22 79.9581 172.969C80.2185 172.713 80.4197 172.396 80.5618 172.017L82.1811 172.472C82.0107 173.021 81.7242 173.504 81.3217 173.92C80.9193 174.332 80.4221 174.654 79.8303 174.886C79.2384 175.114 78.5732 175.227 77.8345 175.227ZM85.5774 168.438V175H83.9013V164.091H85.5206V165.795H85.6626C85.9183 165.241 86.3066 164.796 86.8274 164.46C87.3482 164.119 88.0206 163.949 88.8445 163.949C89.5831 163.949 90.2294 164.1 90.7834 164.403C91.3374 164.702 91.7682 165.156 92.076 165.767C92.3838 166.373 92.5376 167.14 92.5376 168.068V175H90.8615V168.182C90.8615 167.325 90.639 166.657 90.1939 166.179C89.7488 165.696 89.138 165.455 88.3615 165.455C87.8265 165.455 87.3482 165.571 86.9268 165.803C86.5102 166.035 86.1811 166.373 85.9396 166.818C85.6982 167.263 85.5774 167.803 85.5774 168.438ZM101.475 170.54V164.091H103.152V175H101.475V173.153H101.362C101.106 173.707 100.708 174.179 100.169 174.567C99.6289 174.95 98.9471 175.142 98.1232 175.142C97.4414 175.142 96.8353 174.993 96.305 174.695C95.7747 174.392 95.3581 173.937 95.055 173.331C94.752 172.72 94.6005 171.951 94.6005 171.023V164.091H96.2766V170.909C96.2766 171.705 96.4992 172.339 96.9442 172.812C97.3941 173.286 97.967 173.523 98.663 173.523C99.0797 173.523 99.5034 173.416 99.9343 173.203C100.37 172.99 100.734 172.663 101.028 172.223C101.326 171.783 101.475 171.222 101.475 170.54ZM109.795 175.227C108.744 175.227 107.838 174.995 107.075 174.531C106.318 174.062 105.733 173.409 105.321 172.571C104.914 171.728 104.71 170.748 104.71 169.631C104.71 168.513 104.914 167.528 105.321 166.676C105.733 165.819 106.306 165.152 107.04 164.673C107.778 164.19 108.64 163.949 109.625 163.949C110.193 163.949 110.754 164.044 111.308 164.233C111.862 164.422 112.366 164.73 112.821 165.156C113.276 165.578 113.638 166.136 113.908 166.832C114.178 167.528 114.312 168.385 114.312 169.403V170.114H105.903V168.665H112.608C112.608 168.049 112.485 167.5 112.239 167.017C111.997 166.534 111.652 166.153 111.202 165.874C110.757 165.594 110.231 165.455 109.625 165.455C108.957 165.455 108.38 165.62 107.892 165.952C107.409 166.278 107.037 166.705 106.777 167.23C106.517 167.756 106.386 168.319 106.386 168.92V169.886C106.386 170.71 106.528 171.409 106.812 171.982C107.101 172.55 107.501 172.983 108.013 173.281C108.524 173.575 109.118 173.722 109.795 173.722C110.236 173.722 110.634 173.66 110.989 173.537C111.348 173.409 111.659 173.22 111.919 172.969C112.179 172.713 112.381 172.396 112.523 172.017L114.142 172.472C113.972 173.021 113.685 173.504 113.283 173.92C112.88 174.332 112.383 174.654 111.791 174.886C111.199 175.114 110.534 175.227 109.795 175.227Z" fill="white"/>
<path d="M40.7727 232.614V231.364H49.5V232.614H45.8409V243H44.4318V232.614H40.7727ZM52.0338 237.75V243H50.6929V231.364H52.0338V235.636H52.1474C52.352 235.186 52.6588 234.828 53.0679 234.562C53.4808 234.294 54.03 234.159 54.7156 234.159C55.3103 234.159 55.8312 234.278 56.2781 234.517C56.7251 234.752 57.0717 235.114 57.3179 235.602C57.5679 236.087 57.6929 236.705 57.6929 237.455V243H56.352V237.545C56.352 236.852 56.1721 236.316 55.8122 235.938C55.4562 235.555 54.9618 235.364 54.3293 235.364C53.8899 235.364 53.4959 235.456 53.1474 235.642C52.8027 235.828 52.53 236.098 52.3293 236.455C52.1323 236.811 52.0338 237.242 52.0338 237.75ZM59.346 243V234.273H60.6869V243H59.346ZM60.0278 232.818C59.7665 232.818 59.5411 232.729 59.3517 232.551C59.1661 232.373 59.0733 232.159 59.0733 231.909C59.0733 231.659 59.1661 231.445 59.3517 231.267C59.5411 231.089 59.7665 231 60.0278 231C60.2892 231 60.5127 231.089 60.6983 231.267C60.8877 231.445 60.9824 231.659 60.9824 231.909C60.9824 232.159 60.8877 232.373 60.6983 232.551C60.5127 232.729 60.2892 232.818 60.0278 232.818ZM68.5247 236.227L67.3202 236.568C67.2444 236.367 67.1327 236.172 66.9849 235.983C66.841 235.79 66.644 235.631 66.394 235.506C66.144 235.381 65.824 235.318 65.4338 235.318C64.8997 235.318 64.4546 235.441 64.0986 235.688C63.7463 235.93 63.5702 236.239 63.5702 236.614C63.5702 236.947 63.6914 237.21 63.9338 237.403C64.1762 237.597 64.555 237.758 65.0702 237.886L66.3656 238.205C67.1459 238.394 67.7274 238.684 68.1099 239.074C68.4925 239.46 68.6838 239.958 68.6838 240.568C68.6838 241.068 68.5399 241.515 68.252 241.909C67.9679 242.303 67.5702 242.614 67.0588 242.841C66.5474 243.068 65.9527 243.182 65.2747 243.182C64.3846 243.182 63.6478 242.989 63.0645 242.602C62.4812 242.216 62.1118 241.652 61.9565 240.909L63.2293 240.591C63.3505 241.061 63.5796 241.413 63.9168 241.648C64.2577 241.883 64.7027 242 65.252 242C65.877 242 66.3732 241.867 66.7406 241.602C67.1118 241.333 67.2974 241.011 67.2974 240.636C67.2974 240.333 67.1914 240.08 66.9793 239.875C66.7671 239.667 66.4414 239.511 66.002 239.409L64.5474 239.068C63.7482 238.879 63.1611 238.585 62.7861 238.188C62.4149 237.786 62.2293 237.284 62.2293 236.682C62.2293 236.189 62.3675 235.754 62.644 235.375C62.9243 234.996 63.305 234.699 63.7861 234.483C64.2709 234.267 64.8202 234.159 65.4338 234.159C66.2974 234.159 66.9755 234.348 67.4679 234.727C67.9641 235.106 68.3164 235.606 68.5247 236.227ZM73.6023 243V234.273H74.8977V235.636H75.0114C75.1932 235.17 75.4867 234.809 75.892 234.551C76.2973 234.29 76.7841 234.159 77.3523 234.159C77.928 234.159 78.4072 234.29 78.7898 234.551C79.1761 234.809 79.4773 235.17 79.6932 235.636H79.7841C80.0076 235.186 80.3428 234.828 80.7898 234.562C81.2367 234.294 81.7727 234.159 82.3977 234.159C83.178 234.159 83.8163 234.403 84.3125 234.892C84.8087 235.377 85.0568 236.133 85.0568 237.159V243H83.7159V237.159C83.7159 236.515 83.5398 236.055 83.1875 235.778C82.8352 235.502 82.4205 235.364 81.9432 235.364C81.3295 235.364 80.8542 235.549 80.517 235.92C80.1799 236.288 80.0114 236.754 80.0114 237.318V243H78.6477V237.023C78.6477 236.527 78.4867 236.127 78.1648 235.824C77.8428 235.517 77.428 235.364 76.9205 235.364C76.572 235.364 76.2462 235.456 75.9432 235.642C75.6439 235.828 75.4015 236.085 75.2159 236.415C75.0341 236.741 74.9432 237.117 74.9432 237.545V243H73.6023ZM90.254 243.182C89.4661 243.182 88.7748 242.994 88.1801 242.619C87.5892 242.244 87.1271 241.72 86.7938 241.045C86.4642 240.371 86.2994 239.583 86.2994 238.682C86.2994 237.773 86.4642 236.979 86.7938 236.301C87.1271 235.623 87.5892 235.097 88.1801 234.722C88.7748 234.347 89.4661 234.159 90.254 234.159C91.0419 234.159 91.7313 234.347 92.3222 234.722C92.9169 235.097 93.379 235.623 93.7085 236.301C94.0419 236.979 94.2085 237.773 94.2085 238.682C94.2085 239.583 94.0419 240.371 93.7085 241.045C93.379 241.72 92.9169 242.244 92.3222 242.619C91.7313 242.994 91.0419 243.182 90.254 243.182ZM90.254 241.977C90.8525 241.977 91.3449 241.824 91.7313 241.517C92.1176 241.21 92.4036 240.807 92.5892 240.307C92.7748 239.807 92.8676 239.265 92.8676 238.682C92.8676 238.098 92.7748 237.555 92.5892 237.051C92.4036 236.547 92.1176 236.14 91.7313 235.83C91.3449 235.519 90.8525 235.364 90.254 235.364C89.6555 235.364 89.1631 235.519 88.7767 235.83C88.3903 236.14 88.1044 236.547 87.9188 237.051C87.7331 237.555 87.6403 238.098 87.6403 238.682C87.6403 239.265 87.7331 239.807 87.9188 240.307C88.1044 240.807 88.3903 241.21 88.7767 241.517C89.1631 241.824 89.6555 241.977 90.254 241.977ZM96.7963 237.75V243H95.4554V234.273H96.7509V235.636H96.8645C97.069 235.193 97.3796 234.837 97.7963 234.568C98.213 234.295 98.7509 234.159 99.4099 234.159C100.001 234.159 100.518 234.28 100.961 234.523C101.404 234.761 101.749 235.125 101.995 235.614C102.241 236.098 102.364 236.712 102.364 237.455V243H101.024V237.545C101.024 236.86 100.846 236.326 100.489 235.943C100.133 235.557 99.6448 235.364 99.0236 235.364C98.5956 235.364 98.213 235.456 97.8759 235.642C97.5425 235.828 97.2793 236.098 97.0861 236.455C96.8929 236.811 96.7963 237.242 96.7963 237.75ZM107.81 234.273V235.409H103.287V234.273H107.81ZM104.606 232.182H105.947V240.5C105.947 240.879 106.002 241.163 106.111 241.352C106.225 241.538 106.369 241.663 106.543 241.727C106.721 241.788 106.909 241.818 107.106 241.818C107.253 241.818 107.375 241.811 107.469 241.795C107.564 241.777 107.64 241.761 107.697 241.75L107.969 242.955C107.878 242.989 107.752 243.023 107.589 243.057C107.426 243.095 107.219 243.114 106.969 243.114C106.591 243.114 106.219 243.032 105.856 242.869C105.496 242.706 105.197 242.458 104.958 242.125C104.723 241.792 104.606 241.371 104.606 240.864V232.182ZM110.556 237.75V243H109.215V231.364H110.556V235.636H110.669C110.874 235.186 111.181 234.828 111.59 234.562C112.003 234.294 112.552 234.159 113.238 234.159C113.832 234.159 114.353 234.278 114.8 234.517C115.247 234.752 115.594 235.114 115.84 235.602C116.09 236.087 116.215 236.705 116.215 237.455V243H114.874V237.545C114.874 236.852 114.694 236.316 114.334 235.938C113.978 235.555 113.484 235.364 112.851 235.364C112.412 235.364 112.018 235.456 111.669 235.642C111.325 235.828 111.052 236.098 110.851 236.455C110.654 236.811 110.556 237.242 110.556 237.75Z" fill="white"/>
<path fill-rule="evenodd" clip-rule="evenodd" d="M236 42.25C230.615 42.25 226.25 46.6152 226.25 52C226.25 57.3848 230.615 61.75 236 61.75C241.385 61.75 245.75 57.3848 245.75 52C245.75 46.6152 241.385 42.25 236 42.25ZM236 50.875C235.379 50.875 234.875 51.3787 234.875 52C234.875 52.6213 235.379 53.125 236 53.125C236.621 53.125 237.125 52.6213 237.125 52C237.125 51.3787 236.621 50.875 236 50.875ZM239.375 52C239.375 51.3787 239.879 50.875 240.5 50.875C241.121 50.875 241.625 51.3787 241.625 52C241.625 52.6213 241.121 53.125 240.5 53.125C239.879 53.125 239.375 52.6213 239.375 52ZM231.5 50.875C230.879 50.875 230.375 51.3787 230.375 52C230.375 52.6213 230.879 53.125 231.5 53.125C232.121 53.125 232.625 52.6213 232.625 52C232.625 51.3787 232.121 50.875 231.5 50.875Z" fill="white"/>
<path fill-rule="evenodd" clip-rule="evenodd" d="M51 48V49.5H47.0257C45.1066 49.5 43.4972 50.9489 43.2963 52.8574L40.77 76.8574C40.537 79.0716 42.273 81 44.4994 81H75.5008C77.7272 81 79.4634 79.0716 79.2302 76.8574L76.704 52.8574C76.503 50.9489 74.8936 49.5 72.9746 49.5H69V48C69 43.0294 64.9706 39 60 39C55.0294 39 51 43.0294 51 48ZM60 42C56.6862 42 54 44.6863 54 48V49.5H66V48C66 44.6863 63.3138 42 60 42ZM54 58.5C54 61.8138 56.6862 64.5 60 64.5C63.3138 64.5 66 61.8138 66 58.5V57C66 56.1716 66.6716 55.5 67.5 55.5C68.3284 55.5 69 56.1716 69 57V58.5C69 63.4706 64.9706 67.5 60 67.5C55.0294 67.5 51 63.4706 51 58.5V57C51 56.1716 51.6716 55.5 52.5 55.5C53.3284 55.5 54 56.1716 54 57V58.5Z" fill="white"/>
<g filter="url(#filter0_d_44_12)">
<rect x="288" y="24" width="240" height="240" rx="16" fill="#E7F2FF"/>
</g>
<path d="M477.13 240.955V233.455H478.403V240.955H477.13ZM474.016 237.841V236.568H481.516V237.841H474.016ZM483.449 243L488.654 232.705V232.614H482.654V231.364H490.109V232.682L484.927 243H483.449ZM494.907 243.159C494.24 243.159 493.639 243.027 493.105 242.761C492.571 242.496 492.143 242.133 491.821 241.67C491.499 241.208 491.323 240.682 491.293 240.091H492.657C492.71 240.617 492.948 241.053 493.372 241.398C493.8 241.739 494.312 241.909 494.907 241.909C495.384 241.909 495.808 241.797 496.179 241.574C496.554 241.35 496.848 241.044 497.06 240.653C497.276 240.259 497.384 239.814 497.384 239.318C497.384 238.811 497.272 238.358 497.049 237.96C496.829 237.559 496.526 237.242 496.139 237.011C495.753 236.78 495.312 236.663 494.816 236.659C494.46 236.655 494.094 236.71 493.719 236.824C493.344 236.934 493.035 237.076 492.793 237.25L491.475 237.091L492.179 231.364H498.225V232.614H493.361L492.952 236.045H493.02C493.259 235.856 493.558 235.699 493.918 235.574C494.278 235.449 494.653 235.386 495.043 235.386C495.755 235.386 496.389 235.557 496.946 235.898C497.507 236.235 497.946 236.697 498.264 237.284C498.586 237.871 498.747 238.542 498.747 239.295C498.747 240.038 498.581 240.701 498.247 241.284C497.918 241.864 497.463 242.322 496.884 242.659C496.304 242.992 495.645 243.159 494.907 243.159ZM506.136 240.818V240.205C506.136 239.78 506.223 239.392 506.398 239.04C506.576 238.684 506.833 238.4 507.17 238.188C507.511 237.972 507.924 237.864 508.409 237.864C508.902 237.864 509.314 237.972 509.648 238.188C509.981 238.4 510.233 238.684 510.403 239.04C510.574 239.392 510.659 239.78 510.659 240.205V240.818C510.659 241.242 510.572 241.633 510.398 241.989C510.227 242.341 509.973 242.625 509.636 242.841C509.303 243.053 508.894 243.159 508.409 243.159C507.917 243.159 507.502 243.053 507.165 242.841C506.828 242.625 506.572 242.341 506.398 241.989C506.223 241.633 506.136 241.242 506.136 240.818ZM507.295 240.205V240.818C507.295 241.17 507.379 241.487 507.545 241.767C507.712 242.044 508 242.182 508.409 242.182C508.807 242.182 509.087 242.044 509.25 241.767C509.417 241.487 509.5 241.17 509.5 240.818V240.205C509.5 239.852 509.42 239.538 509.261 239.261C509.102 238.981 508.818 238.841 508.409 238.841C508.011 238.841 507.725 238.981 507.551 239.261C507.381 239.538 507.295 239.852 507.295 240.205ZM500.341 234.159V233.545C500.341 233.121 500.428 232.733 500.602 232.381C500.78 232.025 501.038 231.741 501.375 231.528C501.716 231.312 502.129 231.205 502.614 231.205C503.106 231.205 503.519 231.312 503.852 231.528C504.186 231.741 504.438 232.025 504.608 232.381C504.778 232.733 504.864 233.121 504.864 233.545V234.159C504.864 234.583 504.777 234.973 504.602 235.33C504.432 235.682 504.178 235.966 503.841 236.182C503.508 236.394 503.098 236.5 502.614 236.5C502.121 236.5 501.706 236.394 501.369 236.182C501.032 235.966 500.777 235.682 500.602 235.33C500.428 234.973 500.341 234.583 500.341 234.159ZM501.5 233.545V234.159C501.5 234.511 501.583 234.828 501.75 235.108C501.917 235.384 502.205 235.523 502.614 235.523C503.011 235.523 503.292 235.384 503.455 235.108C503.621 234.828 503.705 234.511 503.705 234.159V233.545C503.705 233.193 503.625 232.879 503.466 232.602C503.307 232.322 503.023 232.182 502.614 232.182C502.216 232.182 501.93 232.322 501.756 232.602C501.585 232.879 501.5 233.193 501.5 233.545ZM500.773 243L508.773 231.364H510.068L502.068 243H500.773Z" fill="#567FEF"/>
<path fill-rule="evenodd" clip-rule="evenodd" d="M459.219 231.268C459.368 230.881 459.802 230.688 460.188 230.836L466.13 233.117C466.315 233.188 466.465 233.33 466.546 233.512C466.627 233.694 466.632 233.9 466.561 234.086L464.28 240.027C464.132 240.414 463.698 240.607 463.311 240.458C462.925 240.31 462.732 239.876 462.88 239.489L464.512 235.239L463.425 235.722C460.972 236.815 459.104 238.675 457.975 240.896C457.866 241.11 457.661 241.259 457.424 241.297C457.187 241.334 456.946 241.256 456.776 241.086L453 237.31L446.78 243.53C446.487 243.823 446.013 243.823 445.72 243.53C445.427 243.237 445.427 242.762 445.72 242.469L452.47 235.719C452.61 235.579 452.801 235.5 453 235.5C453.199 235.5 453.39 235.579 453.53 235.719L457.136 239.325C458.437 237.204 460.371 235.44 462.815 234.352L463.902 233.868L459.651 232.237C459.264 232.088 459.071 231.654 459.219 231.268Z" fill="#567FEF"/>
<path d="M313.568 217.909V188.818H315.432V217.909H313.568ZM318.943 198.125C318.837 197.133 318.39 196.36 317.602 195.807C316.822 195.254 315.807 194.977 314.557 194.977C313.678 194.977 312.924 195.11 312.295 195.375C311.667 195.64 311.186 196 310.852 196.455C310.519 196.909 310.348 197.428 310.341 198.011C310.341 198.496 310.451 198.917 310.67 199.273C310.898 199.629 311.205 199.932 311.591 200.182C311.977 200.424 312.405 200.629 312.875 200.795C313.345 200.962 313.818 201.102 314.295 201.216L316.477 201.761C317.356 201.966 318.201 202.242 319.011 202.591C319.83 202.939 320.561 203.379 321.205 203.909C321.856 204.439 322.371 205.08 322.75 205.83C323.129 206.58 323.318 207.458 323.318 208.466C323.318 209.83 322.97 211.03 322.273 212.068C321.576 213.098 320.568 213.905 319.25 214.489C317.939 215.064 316.352 215.352 314.489 215.352C312.678 215.352 311.106 215.072 309.773 214.511C308.447 213.951 307.409 213.133 306.659 212.057C305.917 210.981 305.515 209.67 305.455 208.125H309.602C309.663 208.936 309.913 209.61 310.352 210.148C310.792 210.686 311.364 211.087 312.068 211.352C312.78 211.617 313.576 211.75 314.455 211.75C315.371 211.75 316.174 211.614 316.864 211.341C317.561 211.061 318.106 210.674 318.5 210.182C318.894 209.682 319.095 209.098 319.102 208.432C319.095 207.826 318.917 207.326 318.568 206.932C318.22 206.53 317.731 206.197 317.102 205.932C316.481 205.659 315.754 205.417 314.92 205.205L312.273 204.523C310.356 204.03 308.841 203.284 307.727 202.284C306.621 201.277 306.068 199.939 306.068 198.273C306.068 196.902 306.439 195.701 307.182 194.67C307.932 193.64 308.951 192.841 310.239 192.273C311.527 191.697 312.985 191.409 314.614 191.409C316.265 191.409 317.712 191.697 318.955 192.273C320.205 192.841 321.186 193.633 321.898 194.648C322.61 195.655 322.977 196.814 323 198.125H318.943ZM325.249 215V211.955L333.329 204.034C334.102 203.254 334.746 202.561 335.261 201.955C335.776 201.348 336.162 200.761 336.42 200.193C336.677 199.625 336.806 199.019 336.806 198.375C336.806 197.64 336.64 197.011 336.306 196.489C335.973 195.958 335.515 195.549 334.931 195.261C334.348 194.973 333.685 194.83 332.943 194.83C332.177 194.83 331.507 194.989 330.931 195.307C330.355 195.617 329.909 196.061 329.59 196.636C329.28 197.212 329.124 197.898 329.124 198.693H325.113C325.113 197.216 325.45 195.932 326.124 194.841C326.799 193.75 327.727 192.905 328.909 192.307C330.098 191.708 331.462 191.409 332.999 191.409C334.56 191.409 335.931 191.701 337.113 192.284C338.295 192.867 339.212 193.667 339.863 194.682C340.522 195.697 340.852 196.856 340.852 198.159C340.852 199.03 340.685 199.886 340.352 200.727C340.018 201.568 339.431 202.5 338.59 203.523C337.757 204.545 336.587 205.784 335.079 207.239L331.068 211.318V211.477H341.204V215H325.249ZM342.604 210.682V207.33L352.479 191.727H355.274V196.5H353.57L346.922 207.034V207.216H360.706V210.682H342.604ZM353.706 215V209.659L353.752 208.159V191.727H357.729V215H353.706ZM370.828 215.318C369.313 215.318 367.957 215.034 366.76 214.466C365.563 213.89 364.612 213.102 363.907 212.102C363.21 211.102 362.839 209.958 362.794 208.67H366.885C366.96 209.625 367.373 210.405 368.123 211.011C368.873 211.61 369.775 211.909 370.828 211.909C371.654 211.909 372.388 211.72 373.032 211.341C373.676 210.962 374.184 210.436 374.555 209.761C374.926 209.087 375.108 208.318 375.101 207.455C375.108 206.576 374.923 205.795 374.544 205.114C374.165 204.432 373.646 203.898 372.987 203.511C372.328 203.117 371.57 202.92 370.714 202.92C370.017 202.913 369.332 203.042 368.657 203.307C367.983 203.572 367.449 203.92 367.055 204.352L363.248 203.727L364.464 191.727H377.964V195.25H367.953L367.282 201.42H367.419C367.851 200.913 368.46 200.492 369.248 200.159C370.036 199.818 370.9 199.648 371.839 199.648C373.248 199.648 374.506 199.981 375.612 200.648C376.718 201.307 377.589 202.216 378.226 203.375C378.862 204.534 379.18 205.86 379.18 207.352C379.18 208.89 378.824 210.261 378.112 211.466C377.407 212.663 376.426 213.606 375.169 214.295C373.919 214.977 372.472 215.318 370.828 215.318ZM385.182 209.523L385.171 204.557H385.83L392.103 197.545H396.91L389.194 206.136H388.341L385.182 209.523ZM381.432 215V191.727H385.546V215H381.432ZM392.387 215L386.705 207.057L389.478 204.159L397.307 215H392.387Z" fill="#567FEF"/>
<path d="M305.761 175V160.455H310.676C311.813 160.455 312.745 160.649 313.474 161.037C314.204 161.42 314.743 161.948 315.094 162.621C315.444 163.293 315.619 164.058 315.619 164.915C315.619 165.772 315.444 166.532 315.094 167.195C314.743 167.857 314.206 168.378 313.482 168.757C312.757 169.131 311.831 169.318 310.705 169.318H306.727V167.727H310.648C311.424 167.727 312.049 167.614 312.523 167.386C313.001 167.159 313.347 166.837 313.56 166.42C313.777 165.999 313.886 165.497 313.886 164.915C313.886 164.332 313.777 163.823 313.56 163.388C313.342 162.952 312.994 162.616 312.516 162.379C312.037 162.138 311.405 162.017 310.619 162.017H307.523V175H305.761ZM312.608 168.466L316.188 175H314.142L310.619 168.466H312.608ZM321.784 175.227C320.733 175.227 319.826 174.995 319.064 174.531C318.306 174.062 317.721 173.409 317.309 172.571C316.902 171.728 316.699 170.748 316.699 169.631C316.699 168.513 316.902 167.528 317.309 166.676C317.721 165.819 318.294 165.152 319.028 164.673C319.767 164.19 320.628 163.949 321.613 163.949C322.181 163.949 322.743 164.044 323.297 164.233C323.85 164.422 324.355 164.73 324.809 165.156C325.264 165.578 325.626 166.136 325.896 166.832C326.166 167.528 326.301 168.385 326.301 169.403V170.114H317.892V168.665H324.596C324.596 168.049 324.473 167.5 324.227 167.017C323.985 166.534 323.64 166.153 323.19 165.874C322.745 165.594 322.219 165.455 321.613 165.455C320.946 165.455 320.368 165.62 319.88 165.952C319.397 166.278 319.026 166.705 318.765 167.23C318.505 167.756 318.375 168.319 318.375 168.92V169.886C318.375 170.71 318.517 171.409 318.801 171.982C319.09 172.55 319.49 172.983 320.001 173.281C320.512 173.575 321.107 173.722 321.784 173.722C322.224 173.722 322.622 173.66 322.977 173.537C323.337 173.409 323.647 173.22 323.907 172.969C324.168 172.713 324.369 172.396 324.511 172.017L326.13 172.472C325.96 173.021 325.673 173.504 325.271 173.92C324.868 174.332 324.371 174.654 323.779 174.886C323.188 175.114 322.522 175.227 321.784 175.227ZM336.439 164.091L332.405 175H330.7L326.666 164.091H328.484L331.496 172.784H331.609L334.621 164.091H336.439ZM341.835 175.227C340.783 175.227 339.877 174.995 339.114 174.531C338.357 174.062 337.772 173.409 337.36 172.571C336.953 171.728 336.749 170.748 336.749 169.631C336.749 168.513 336.953 167.528 337.36 166.676C337.772 165.819 338.345 165.152 339.079 164.673C339.817 164.19 340.679 163.949 341.664 163.949C342.232 163.949 342.793 164.044 343.347 164.233C343.901 164.422 344.406 164.73 344.86 165.156C345.315 165.578 345.677 166.136 345.947 166.832C346.217 167.528 346.352 168.385 346.352 169.403V170.114H337.942V168.665H344.647C344.647 168.049 344.524 167.5 344.278 167.017C344.036 166.534 343.691 166.153 343.241 165.874C342.796 165.594 342.27 165.455 341.664 165.455C340.996 165.455 340.419 165.62 339.931 165.952C339.448 166.278 339.076 166.705 338.816 167.23C338.556 167.756 338.425 168.319 338.425 168.92V169.886C338.425 170.71 338.567 171.409 338.852 171.982C339.14 172.55 339.54 172.983 340.052 173.281C340.563 173.575 341.157 173.722 341.835 173.722C342.275 173.722 342.673 173.66 343.028 173.537C343.388 173.409 343.698 173.22 343.958 172.969C344.219 172.713 344.42 172.396 344.562 172.017L346.181 172.472C346.011 173.021 345.724 173.504 345.322 173.92C344.919 174.332 344.422 174.654 343.83 174.886C343.238 175.114 342.573 175.227 341.835 175.227ZM349.577 168.438V175H347.901V164.091H349.521V165.795H349.663C349.918 165.241 350.307 164.796 350.827 164.46C351.348 164.119 352.021 163.949 352.844 163.949C353.583 163.949 354.229 164.1 354.783 164.403C355.337 164.702 355.768 165.156 356.076 165.767C356.384 166.373 356.538 167.14 356.538 168.068V175H354.862V168.182C354.862 167.325 354.639 166.657 354.194 166.179C353.749 165.696 353.138 165.455 352.362 165.455C351.826 165.455 351.348 165.571 350.927 165.803C350.51 166.035 350.181 166.373 349.94 166.818C349.698 167.263 349.577 167.803 349.577 168.438ZM365.475 170.54V164.091H367.152V175H365.475V173.153H365.362C365.106 173.707 364.708 174.179 364.169 174.567C363.629 174.95 362.947 175.142 362.123 175.142C361.441 175.142 360.835 174.993 360.305 174.695C359.775 174.392 359.358 173.937 359.055 173.331C358.752 172.72 358.6 171.951 358.6 171.023V164.091H360.277V170.909C360.277 171.705 360.499 172.339 360.944 172.812C361.394 173.286 361.967 173.523 362.663 173.523C363.08 173.523 363.503 173.416 363.934 173.203C364.37 172.99 364.734 172.663 365.028 172.223C365.326 171.783 365.475 171.222 365.475 170.54ZM373.795 175.227C372.744 175.227 371.838 174.995 371.075 174.531C370.318 174.062 369.733 173.409 369.321 172.571C368.914 171.728 368.71 170.748 368.71 169.631C368.71 168.513 368.914 167.528 369.321 166.676C369.733 165.819 370.306 165.152 371.04 164.673C371.778 164.19 372.64 163.949 373.625 163.949C374.193 163.949 374.754 164.044 375.308 164.233C375.862 164.422 376.366 164.73 376.821 165.156C377.276 165.578 377.638 166.136 377.908 166.832C378.178 167.528 378.312 168.385 378.312 169.403V170.114H369.903V168.665H376.608C376.608 168.049 376.485 167.5 376.239 167.017C375.997 166.534 375.652 166.153 375.202 165.874C374.757 165.594 374.231 165.455 373.625 165.455C372.957 165.455 372.38 165.62 371.892 165.952C371.409 166.278 371.037 166.705 370.777 167.23C370.517 167.756 370.386 168.319 370.386 168.92V169.886C370.386 170.71 370.528 171.409 370.812 171.982C371.101 172.55 371.501 172.983 372.013 173.281C372.524 173.575 373.118 173.722 373.795 173.722C374.236 173.722 374.634 173.66 374.989 173.537C375.348 173.409 375.659 173.22 375.919 172.969C376.179 172.713 376.381 172.396 376.523 172.017L378.142 172.472C377.972 173.021 377.685 173.504 377.283 173.92C376.88 174.332 376.383 174.654 375.791 174.886C375.199 175.114 374.534 175.227 373.795 175.227Z" fill="#567FEF"/>
<path d="M304.773 232.614V231.364H313.5V232.614H309.841V243H308.432V232.614H304.773ZM316.034 237.75V243H314.693V231.364H316.034V235.636H316.147C316.352 235.186 316.659 234.828 317.068 234.562C317.481 234.294 318.03 234.159 318.716 234.159C319.31 234.159 319.831 234.278 320.278 234.517C320.725 234.752 321.072 235.114 321.318 235.602C321.568 236.087 321.693 236.705 321.693 237.455V243H320.352V237.545C320.352 236.852 320.172 236.316 319.812 235.938C319.456 235.555 318.962 235.364 318.329 235.364C317.89 235.364 317.496 235.456 317.147 235.642C316.803 235.828 316.53 236.098 316.329 236.455C316.132 236.811 316.034 237.242 316.034 237.75ZM323.346 243V234.273H324.687V243H323.346ZM324.028 232.818C323.766 232.818 323.541 232.729 323.352 232.551C323.166 232.373 323.073 232.159 323.073 231.909C323.073 231.659 323.166 231.445 323.352 231.267C323.541 231.089 323.766 231 324.028 231C324.289 231 324.513 231.089 324.698 231.267C324.888 231.445 324.982 231.659 324.982 231.909C324.982 232.159 324.888 232.373 324.698 232.551C324.513 232.729 324.289 232.818 324.028 232.818ZM332.525 236.227L331.32 236.568C331.244 236.367 331.133 236.172 330.985 235.983C330.841 235.79 330.644 235.631 330.394 235.506C330.144 235.381 329.824 235.318 329.434 235.318C328.9 235.318 328.455 235.441 328.099 235.688C327.746 235.93 327.57 236.239 327.57 236.614C327.57 236.947 327.691 237.21 327.934 237.403C328.176 237.597 328.555 237.758 329.07 237.886L330.366 238.205C331.146 238.394 331.727 238.684 332.11 239.074C332.493 239.46 332.684 239.958 332.684 240.568C332.684 241.068 332.54 241.515 332.252 241.909C331.968 242.303 331.57 242.614 331.059 242.841C330.547 243.068 329.953 243.182 329.275 243.182C328.385 243.182 327.648 242.989 327.064 242.602C326.481 242.216 326.112 241.652 325.957 240.909L327.229 240.591C327.35 241.061 327.58 241.413 327.917 241.648C328.258 241.883 328.703 242 329.252 242C329.877 242 330.373 241.867 330.741 241.602C331.112 241.333 331.297 241.011 331.297 240.636C331.297 240.333 331.191 240.08 330.979 239.875C330.767 239.667 330.441 239.511 330.002 239.409L328.547 239.068C327.748 238.879 327.161 238.585 326.786 238.188C326.415 237.786 326.229 237.284 326.229 236.682C326.229 236.189 326.368 235.754 326.644 235.375C326.924 234.996 327.305 234.699 327.786 234.483C328.271 234.267 328.82 234.159 329.434 234.159C330.297 234.159 330.975 234.348 331.468 234.727C331.964 235.106 332.316 235.606 332.525 236.227ZM337.602 243V234.273H338.898V235.636H339.011C339.193 235.17 339.487 234.809 339.892 234.551C340.297 234.29 340.784 234.159 341.352 234.159C341.928 234.159 342.407 234.29 342.79 234.551C343.176 234.809 343.477 235.17 343.693 235.636H343.784C344.008 235.186 344.343 234.828 344.79 234.562C345.237 234.294 345.773 234.159 346.398 234.159C347.178 234.159 347.816 234.403 348.312 234.892C348.809 235.377 349.057 236.133 349.057 237.159V243H347.716V237.159C347.716 236.515 347.54 236.055 347.188 235.778C346.835 235.502 346.42 235.364 345.943 235.364C345.33 235.364 344.854 235.549 344.517 235.92C344.18 236.288 344.011 236.754 344.011 237.318V243H342.648V237.023C342.648 236.527 342.487 236.127 342.165 235.824C341.843 235.517 341.428 235.364 340.92 235.364C340.572 235.364 340.246 235.456 339.943 235.642C339.644 235.828 339.402 236.085 339.216 236.415C339.034 236.741 338.943 237.117 338.943 237.545V243H337.602ZM354.254 243.182C353.466 243.182 352.775 242.994 352.18 242.619C351.589 242.244 351.127 241.72 350.794 241.045C350.464 240.371 350.299 239.583 350.299 238.682C350.299 237.773 350.464 236.979 350.794 236.301C351.127 235.623 351.589 235.097 352.18 234.722C352.775 234.347 353.466 234.159 354.254 234.159C355.042 234.159 355.731 234.347 356.322 234.722C356.917 235.097 357.379 235.623 357.709 236.301C358.042 236.979 358.209 237.773 358.209 238.682C358.209 239.583 358.042 240.371 357.709 241.045C357.379 241.72 356.917 242.244 356.322 242.619C355.731 242.994 355.042 243.182 354.254 243.182ZM354.254 241.977C354.852 241.977 355.345 241.824 355.731 241.517C356.118 241.21 356.404 240.807 356.589 240.307C356.775 239.807 356.868 239.265 356.868 238.682C356.868 238.098 356.775 237.555 356.589 237.051C356.404 236.547 356.118 236.14 355.731 235.83C355.345 235.519 354.852 235.364 354.254 235.364C353.655 235.364 353.163 235.519 352.777 235.83C352.39 236.14 352.104 236.547 351.919 237.051C351.733 237.555 351.64 238.098 351.64 238.682C351.64 239.265 351.733 239.807 351.919 240.307C352.104 240.807 352.39 241.21 352.777 241.517C353.163 241.824 353.655 241.977 354.254 241.977ZM360.796 237.75V243H359.455V234.273H360.751V235.636H360.864C361.069 235.193 361.38 234.837 361.796 234.568C362.213 234.295 362.751 234.159 363.41 234.159C364.001 234.159 364.518 234.28 364.961 234.523C365.404 234.761 365.749 235.125 365.995 235.614C366.241 236.098 366.364 236.712 366.364 237.455V243H365.024V237.545C365.024 236.86 364.846 236.326 364.489 235.943C364.133 235.557 363.645 235.364 363.024 235.364C362.596 235.364 362.213 235.456 361.876 235.642C361.543 235.828 361.279 236.098 361.086 236.455C360.893 236.811 360.796 237.242 360.796 237.75ZM371.81 234.273V235.409H367.287V234.273H371.81ZM368.606 232.182H369.947V240.5C369.947 240.879 370.002 241.163 370.111 241.352C370.225 241.538 370.369 241.663 370.543 241.727C370.721 241.788 370.909 241.818 371.106 241.818C371.253 241.818 371.375 241.811 371.469 241.795C371.564 241.777 371.64 241.761 371.697 241.75L371.969 242.955C371.878 242.989 371.752 243.023 371.589 243.057C371.426 243.095 371.219 243.114 370.969 243.114C370.591 243.114 370.219 243.032 369.856 242.869C369.496 242.706 369.197 242.458 368.958 242.125C368.723 241.792 368.606 241.371 368.606 240.864V232.182ZM374.556 237.75V243H373.215V231.364H374.556V235.636H374.669C374.874 235.186 375.181 234.828 375.59 234.562C376.003 234.294 376.552 234.159 377.238 234.159C377.832 234.159 378.353 234.278 378.8 234.517C379.247 234.752 379.594 235.114 379.84 235.602C380.09 236.087 380.215 236.705 380.215 237.455V243H378.874V237.545C378.874 236.852 378.694 236.316 378.334 235.938C377.978 235.555 377.484 235.364 376.851 235.364C376.412 235.364 376.018 235.456 375.669 235.642C375.325 235.828 375.052 236.098 374.851 236.455C374.654 236.811 374.556 237.242 374.556 237.75Z" fill="#567FEF"/>
<path fill-rule="evenodd" clip-rule="evenodd" d="M500 42.25C494.615 42.25 490.25 46.6152 490.25 52C490.25 57.3848 494.615 61.75 500 61.75C505.385 61.75 509.75 57.3848 509.75 52C509.75 46.6152 505.385 42.25 500 42.25ZM500 50.875C499.379 50.875 498.875 51.3787 498.875 52C498.875 52.6213 499.379 53.125 500 53.125C500.621 53.125 501.125 52.6213 501.125 52C501.125 51.3787 500.621 50.875 500 50.875ZM503.375 52C503.375 51.3787 503.879 50.875 504.5 50.875C505.121 50.875 505.625 51.3787 505.625 52C505.625 52.6213 505.121 53.125 504.5 53.125C503.879 53.125 503.375 52.6213 503.375 52ZM495.5 50.875C494.879 50.875 494.375 51.3787 494.375 52C494.375 52.6213 494.879 53.125 495.5 53.125C496.121 53.125 496.625 52.6213 496.625 52C496.625 51.3787 496.121 50.875 495.5 50.875Z" fill="#567FEF"/>
<path fill-rule="evenodd" clip-rule="evenodd" d="M315 48V49.5H311.026C309.107 49.5 307.497 50.9489 307.296 52.8574L304.77 76.8574C304.537 79.0716 306.273 81 308.499 81H339.501C341.727 81 343.463 79.0716 343.23 76.8574L340.704 52.8574C340.503 50.9489 338.894 49.5 336.975 49.5H333V48C333 43.0294 328.971 39 324 39C319.029 39 315 43.0294 315 48ZM324 42C320.686 42 318 44.6863 318 48V49.5H330V48C330 44.6863 327.314 42 324 42ZM318 58.5C318 61.8138 320.686 64.5 324 64.5C327.314 64.5 330 61.8138 330 58.5V57C330 56.1716 330.672 55.5 331.5 55.5C332.328 55.5 333 56.1716 333 57V58.5C333 63.4706 328.971 67.5 324 67.5C319.029 67.5 315 63.4706 315 58.5V57C315 56.1716 315.672 55.5 316.5 55.5C317.328 55.5 318 56.1716 318 57V58.5Z" fill="#567FEF"/>
<g filter="url(#filter1_d_44_12)">
<rect x="24" y="288" width="240" height="174" rx="16" fill="#E7F2FF"/>
</g>
<rect x="40" y="425" width="85" height="21" rx="8" fill="#83FCC2"/>
<g clip-path="url(#clip0_44_12)">
<path fill-rule="evenodd" clip-rule="evenodd" d="M61.2194 429.268C61.3679 428.881 61.8017 428.688 62.1884 428.836L68.1297 431.117C68.3154 431.188 68.4651 431.33 68.546 431.512C68.627 431.694 68.6324 431.9 68.5611 432.086L66.2804 438.027C66.132 438.414 65.6982 438.607 65.3115 438.458C64.9248 438.31 64.7316 437.876 64.8801 437.489L66.5118 433.239L65.4253 433.722C62.9721 434.815 61.1036 436.675 59.975 438.896C59.8662 439.11 59.6614 439.259 59.4241 439.297C59.1869 439.334 58.946 439.256 58.7761 439.086L55 435.31L48.7803 441.53C48.4874 441.823 48.0126 441.823 47.7197 441.53C47.4268 441.237 47.4268 440.762 47.7197 440.469L54.4697 433.719C54.6103 433.579 54.8011 433.5 55 433.5C55.1989 433.5 55.3897 433.579 55.5303 433.719L59.1363 437.325C60.4369 435.204 62.3711 433.44 64.8152 432.352L65.9017 431.868L61.6508 430.237C61.2641 430.088 61.071 429.654 61.2194 429.268Z" fill="#06710A"/>
</g>
<path d="M81.6364 438.955V431.455H82.9091V438.955H81.6364ZM78.5227 435.841V434.568H86.0227V435.841H78.5227ZM87.9557 441L93.1602 430.705V430.614H87.1602V429.364H94.6148V430.682L89.433 441H87.9557ZM99.4128 441.159C98.7461 441.159 98.1457 441.027 97.6116 440.761C97.0776 440.496 96.6495 440.133 96.3276 439.67C96.0056 439.208 95.8295 438.682 95.7991 438.091H97.1628C97.2158 438.617 97.4545 439.053 97.8787 439.398C98.3067 439.739 98.8181 439.909 99.4128 439.909C99.8901 439.909 100.314 439.797 100.686 439.574C101.061 439.35 101.354 439.044 101.566 438.653C101.782 438.259 101.89 437.814 101.89 437.318C101.89 436.811 101.778 436.358 101.555 435.96C101.335 435.559 101.032 435.242 100.646 435.011C100.259 434.78 99.8181 434.663 99.3219 434.659C98.9658 434.655 98.6003 434.71 98.2253 434.824C97.8503 434.934 97.5416 435.076 97.2991 435.25L95.981 435.091L96.6855 429.364H102.731V430.614H97.8673L97.4582 434.045H97.5264C97.7651 433.856 98.0643 433.699 98.4241 433.574C98.784 433.449 99.159 433.386 99.5491 433.386C100.261 433.386 100.896 433.557 101.453 433.898C102.013 434.235 102.453 434.697 102.771 435.284C103.093 435.871 103.254 436.542 103.254 437.295C103.254 438.038 103.087 438.701 102.754 439.284C102.424 439.864 101.97 440.322 101.39 440.659C100.811 440.992 100.151 441.159 99.4128 441.159ZM110.643 438.818V438.205C110.643 437.78 110.73 437.392 110.904 437.04C111.082 436.684 111.34 436.4 111.677 436.188C112.018 435.972 112.43 435.864 112.915 435.864C113.408 435.864 113.821 435.972 114.154 436.188C114.487 436.4 114.739 436.684 114.91 437.04C115.08 437.392 115.165 437.78 115.165 438.205V438.818C115.165 439.242 115.078 439.633 114.904 439.989C114.734 440.341 114.48 440.625 114.143 440.841C113.809 441.053 113.4 441.159 112.915 441.159C112.423 441.159 112.008 441.053 111.671 440.841C111.334 440.625 111.078 440.341 110.904 439.989C110.73 439.633 110.643 439.242 110.643 438.818ZM111.802 438.205V438.818C111.802 439.17 111.885 439.487 112.052 439.767C112.218 440.044 112.506 440.182 112.915 440.182C113.313 440.182 113.593 440.044 113.756 439.767C113.923 439.487 114.006 439.17 114.006 438.818V438.205C114.006 437.852 113.927 437.538 113.768 437.261C113.609 436.981 113.324 436.841 112.915 436.841C112.518 436.841 112.232 436.981 112.057 437.261C111.887 437.538 111.802 437.852 111.802 438.205ZM104.847 432.159V431.545C104.847 431.121 104.934 430.733 105.109 430.381C105.287 430.025 105.544 429.741 105.881 429.528C106.222 429.312 106.635 429.205 107.12 429.205C107.612 429.205 108.025 429.312 108.359 429.528C108.692 429.741 108.944 430.025 109.114 430.381C109.285 430.733 109.37 431.121 109.37 431.545V432.159C109.37 432.583 109.283 432.973 109.109 433.33C108.938 433.682 108.684 433.966 108.347 434.182C108.014 434.394 107.605 434.5 107.12 434.5C106.627 434.5 106.213 434.394 105.876 434.182C105.538 433.966 105.283 433.682 105.109 433.33C104.934 432.973 104.847 432.583 104.847 432.159ZM106.006 431.545V432.159C106.006 432.511 106.09 432.828 106.256 433.108C106.423 433.384 106.711 433.523 107.12 433.523C107.518 433.523 107.798 433.384 107.961 433.108C108.127 432.828 108.211 432.511 108.211 432.159V431.545C108.211 431.193 108.131 430.879 107.972 430.602C107.813 430.322 107.529 430.182 107.12 430.182C106.722 430.182 106.436 430.322 106.262 430.602C106.091 430.879 106.006 431.193 106.006 431.545ZM105.279 441L113.279 429.364H114.574L106.574 441H105.279Z" fill="#06710A"/>
<path d="M49.5682 415.909V386.818H51.4318V415.909H49.5682ZM54.9432 396.125C54.8371 395.133 54.3902 394.36 53.6023 393.807C52.822 393.254 51.8068 392.977 50.5568 392.977C49.678 392.977 48.9242 393.11 48.2955 393.375C47.6667 393.64 47.1856 394 46.8523 394.455C46.5189 394.909 46.3485 395.428 46.3409 396.011C46.3409 396.496 46.4508 396.917 46.6705 397.273C46.8977 397.629 47.2045 397.932 47.5909 398.182C47.9773 398.424 48.4053 398.629 48.875 398.795C49.3447 398.962 49.8182 399.102 50.2955 399.216L52.4773 399.761C53.3561 399.966 54.2008 400.242 55.0114 400.591C55.8295 400.939 56.5606 401.379 57.2045 401.909C57.8561 402.439 58.3712 403.08 58.75 403.83C59.1288 404.58 59.3182 405.458 59.3182 406.466C59.3182 407.83 58.9697 409.03 58.2727 410.068C57.5758 411.098 56.5682 411.905 55.25 412.489C53.9394 413.064 52.3523 413.352 50.4886 413.352C48.678 413.352 47.1061 413.072 45.7727 412.511C44.447 411.951 43.4091 411.133 42.6591 410.057C41.9167 408.981 41.5152 407.67 41.4545 406.125H45.6023C45.6629 406.936 45.9129 407.61 46.3523 408.148C46.7917 408.686 47.3636 409.087 48.0682 409.352C48.7803 409.617 49.5758 409.75 50.4545 409.75C51.3712 409.75 52.1742 409.614 52.8636 409.341C53.5606 409.061 54.1061 408.674 54.5 408.182C54.8939 407.682 55.0947 407.098 55.1023 406.432C55.0947 405.826 54.9167 405.326 54.5682 404.932C54.2197 404.53 53.7311 404.197 53.1023 403.932C52.4811 403.659 51.7538 403.417 50.9205 403.205L48.2727 402.523C46.3561 402.03 44.8409 401.284 43.7273 400.284C42.6212 399.277 42.0682 397.939 42.0682 396.273C42.0682 394.902 42.4394 393.701 43.1818 392.67C43.9318 391.64 44.9508 390.841 46.2386 390.273C47.5265 389.697 48.9848 389.409 50.6136 389.409C52.2652 389.409 53.7121 389.697 54.9545 390.273C56.2045 390.841 57.1856 391.633 57.8977 392.648C58.6098 393.655 58.9773 394.814 59 396.125H54.9432ZM61.2494 413V409.955L69.329 402.034C70.1017 401.254 70.7456 400.561 71.2608 399.955C71.7759 399.348 72.1623 398.761 72.4199 398.193C72.6775 397.625 72.8062 397.019 72.8062 396.375C72.8062 395.64 72.6396 395.011 72.3062 394.489C71.9729 393.958 71.5146 393.549 70.9312 393.261C70.3479 392.973 69.685 392.83 68.9426 392.83C68.1775 392.83 67.507 392.989 66.9312 393.307C66.3555 393.617 65.9085 394.061 65.5903 394.636C65.2797 395.212 65.1244 395.898 65.1244 396.693H61.1131C61.1131 395.216 61.4502 393.932 62.1244 392.841C62.7987 391.75 63.7267 390.905 64.9085 390.307C66.0979 389.708 67.4616 389.409 68.9994 389.409C70.56 389.409 71.9312 389.701 73.1131 390.284C74.2949 390.867 75.2116 391.667 75.8631 392.682C76.5222 393.697 76.8517 394.856 76.8517 396.159C76.8517 397.03 76.685 397.886 76.3517 398.727C76.0184 399.568 75.4313 400.5 74.5903 401.523C73.757 402.545 72.5866 403.784 71.079 405.239L67.0676 409.318V409.477H77.204V413H61.2494ZM78.604 408.682V405.33L88.479 389.727H91.2744V394.5H89.5699L82.9222 405.034V405.216H96.7062V408.682H78.604ZM89.7062 413V407.659L89.7517 406.159V389.727H93.729V413H89.7062ZM106.828 413.318C105.313 413.318 103.957 413.034 102.76 412.466C101.563 411.89 100.612 411.102 99.9074 410.102C99.2104 409.102 98.8392 407.958 98.7938 406.67H102.885C102.96 407.625 103.373 408.405 104.123 409.011C104.873 409.61 105.775 409.909 106.828 409.909C107.654 409.909 108.388 409.72 109.032 409.341C109.676 408.962 110.184 408.436 110.555 407.761C110.926 407.087 111.108 406.318 111.101 405.455C111.108 404.576 110.923 403.795 110.544 403.114C110.165 402.432 109.646 401.898 108.987 401.511C108.328 401.117 107.57 400.92 106.714 400.92C106.017 400.913 105.332 401.042 104.657 401.307C103.983 401.572 103.449 401.92 103.055 402.352L99.2483 401.727L100.464 389.727H113.964V393.25H103.953L103.282 399.42H103.419C103.851 398.913 104.46 398.492 105.248 398.159C106.036 397.818 106.9 397.648 107.839 397.648C109.248 397.648 110.506 397.981 111.612 398.648C112.718 399.307 113.589 400.216 114.226 401.375C114.862 402.534 115.18 403.86 115.18 405.352C115.18 406.89 114.824 408.261 114.112 409.466C113.407 410.663 112.426 411.606 111.169 412.295C109.919 412.977 108.472 413.318 106.828 413.318ZM121.182 407.523L121.171 402.557H121.83L128.103 395.545H132.91L125.194 404.136H124.341L121.182 407.523ZM117.432 413V389.727H121.546V413H117.432ZM128.387 413L122.705 405.057L125.478 402.159L133.307 413H128.387Z" fill="#567FEF"/>
<path d="M41.7614 373V358.455H46.6761C47.8125 358.455 48.7453 358.649 49.4744 359.037C50.2036 359.42 50.7434 359.948 51.0938 360.621C51.4441 361.293 51.6193 362.058 51.6193 362.915C51.6193 363.772 51.4441 364.532 51.0938 365.195C50.7434 365.857 50.206 366.378 49.4815 366.757C48.7571 367.131 47.8314 367.318 46.7045 367.318H42.7273V365.727H46.6477C47.4242 365.727 48.0492 365.614 48.5227 365.386C49.0009 365.159 49.3466 364.837 49.5597 364.42C49.7775 363.999 49.8864 363.497 49.8864 362.915C49.8864 362.332 49.7775 361.823 49.5597 361.388C49.3419 360.952 48.9938 360.616 48.5156 360.379C48.0374 360.138 47.4053 360.017 46.6193 360.017H43.5227V373H41.7614ZM48.608 366.466L52.1875 373H50.142L46.6193 366.466H48.608ZM57.7837 373.227C56.7326 373.227 55.8259 372.995 55.0636 372.531C54.306 372.062 53.7212 371.409 53.3093 370.571C52.9021 369.728 52.6985 368.748 52.6985 367.631C52.6985 366.513 52.9021 365.528 53.3093 364.676C53.7212 363.819 54.2942 363.152 55.0281 362.673C55.7667 362.19 56.6284 361.949 57.6133 361.949C58.1815 361.949 58.7425 362.044 59.2965 362.233C59.8505 362.422 60.3548 362.73 60.8093 363.156C61.2638 363.578 61.6261 364.136 61.896 364.832C62.1658 365.528 62.3008 366.385 62.3008 367.403V368.114H53.8917V366.665H60.5962C60.5962 366.049 60.4731 365.5 60.2269 365.017C59.9854 364.534 59.6398 364.153 59.19 363.874C58.7449 363.594 58.2193 363.455 57.6133 363.455C56.9457 363.455 56.368 363.62 55.8803 363.952C55.3974 364.278 55.0257 364.705 54.7653 365.23C54.5049 365.756 54.3746 366.319 54.3746 366.92V367.886C54.3746 368.71 54.5167 369.409 54.8008 369.982C55.0896 370.55 55.4897 370.983 56.0011 371.281C56.5124 371.575 57.1067 371.722 57.7837 371.722C58.2241 371.722 58.6218 371.66 58.9769 371.537C59.3368 371.409 59.6469 371.22 59.9073 370.969C60.1677 370.713 60.369 370.396 60.511 370.017L62.1303 370.472C61.9599 371.021 61.6734 371.504 61.271 371.92C60.8685 372.332 60.3713 372.654 59.7795 372.886C59.1876 373.114 58.5224 373.227 57.7837 373.227ZM72.4389 362.091L68.4048 373H66.7003L62.6662 362.091H64.4844L67.4957 370.784H67.6094L70.6207 362.091H72.4389ZM77.8345 373.227C76.7834 373.227 75.8767 372.995 75.1143 372.531C74.3568 372.062 73.772 371.409 73.3601 370.571C72.9529 369.728 72.7493 368.748 72.7493 367.631C72.7493 366.513 72.9529 365.528 73.3601 364.676C73.772 363.819 74.3449 363.152 75.0788 362.673C75.8175 362.19 76.6792 361.949 77.6641 361.949C78.2322 361.949 78.7933 362.044 79.3473 362.233C79.9013 362.422 80.4055 362.73 80.8601 363.156C81.3146 363.578 81.6768 364.136 81.9467 364.832C82.2166 365.528 82.3516 366.385 82.3516 367.403V368.114H73.9425V366.665H80.647C80.647 366.049 80.5239 365.5 80.2777 365.017C80.0362 364.534 79.6906 364.153 79.2408 363.874C78.7957 363.594 78.2701 363.455 77.6641 363.455C76.9964 363.455 76.4188 363.62 75.9311 363.952C75.4482 364.278 75.0765 364.705 74.8161 365.23C74.5556 365.756 74.4254 366.319 74.4254 366.92V367.886C74.4254 368.71 74.5675 369.409 74.8516 369.982C75.1404 370.55 75.5405 370.983 76.0518 371.281C76.5632 371.575 77.1574 371.722 77.8345 371.722C78.2749 371.722 78.6726 371.66 79.0277 371.537C79.3875 371.409 79.6977 371.22 79.9581 370.969C80.2185 370.713 80.4197 370.396 80.5618 370.017L82.1811 370.472C82.0107 371.021 81.7242 371.504 81.3217 371.92C80.9193 372.332 80.4221 372.654 79.8303 372.886C79.2384 373.114 78.5732 373.227 77.8345 373.227ZM85.5774 366.438V373H83.9013V362.091H85.5206V363.795H85.6626C85.9183 363.241 86.3066 362.796 86.8274 362.46C87.3482 362.119 88.0206 361.949 88.8445 361.949C89.5831 361.949 90.2294 362.1 90.7834 362.403C91.3374 362.702 91.7682 363.156 92.076 363.767C92.3838 364.373 92.5376 365.14 92.5376 366.068V373H90.8615V366.182C90.8615 365.325 90.639 364.657 90.1939 364.179C89.7488 363.696 89.138 363.455 88.3615 363.455C87.8265 363.455 87.3482 363.571 86.9268 363.803C86.5102 364.035 86.1811 364.373 85.9396 364.818C85.6982 365.263 85.5774 365.803 85.5774 366.438ZM101.475 368.54V362.091H103.152V373H101.475V371.153H101.362C101.106 371.707 100.708 372.179 100.169 372.567C99.6289 372.95 98.9471 373.142 98.1232 373.142C97.4414 373.142 96.8353 372.993 96.305 372.695C95.7747 372.392 95.3581 371.937 95.055 371.331C94.752 370.72 94.6005 369.951 94.6005 369.023V362.091H96.2766V368.909C96.2766 369.705 96.4992 370.339 96.9442 370.812C97.3941 371.286 97.967 371.523 98.663 371.523C99.0797 371.523 99.5034 371.416 99.9343 371.203C100.37 370.99 100.734 370.663 101.028 370.223C101.326 369.783 101.475 369.222 101.475 368.54ZM109.795 373.227C108.744 373.227 107.838 372.995 107.075 372.531C106.318 372.062 105.733 371.409 105.321 370.571C104.914 369.728 104.71 368.748 104.71 367.631C104.71 366.513 104.914 365.528 105.321 364.676C105.733 363.819 106.306 363.152 107.04 362.673C107.778 362.19 108.64 361.949 109.625 361.949C110.193 361.949 110.754 362.044 111.308 362.233C111.862 362.422 112.366 362.73 112.821 363.156C113.276 363.578 113.638 364.136 113.908 364.832C114.178 365.528 114.312 366.385 114.312 367.403V368.114H105.903V366.665H112.608C112.608 366.049 112.485 365.5 112.239 365.017C111.997 364.534 111.652 364.153 111.202 363.874C110.757 363.594 110.231 363.455 109.625 363.455C108.957 363.455 108.38 363.62 107.892 363.952C107.409 364.278 107.037 364.705 106.777 365.23C106.517 365.756 106.386 366.319 106.386 366.92V367.886C106.386 368.71 106.528 369.409 106.812 369.982C107.101 370.55 107.501 370.983 108.013 371.281C108.524 371.575 109.118 371.722 109.795 371.722C110.236 371.722 110.634 371.66 110.989 371.537C111.348 371.409 111.659 371.22 111.919 370.969C112.179 370.713 112.381 370.396 112.523 370.017L114.142 370.472C113.972 371.021 113.685 371.504 113.283 371.92C112.88 372.332 112.383 372.654 111.791 372.886C111.199 373.114 110.534 373.227 109.795 373.227Z" fill="#567FEF"/>
<path fill-rule="evenodd" clip-rule="evenodd" d="M236 306.25C230.615 306.25 226.25 310.615 226.25 316C226.25 321.385 230.615 325.75 236 325.75C241.385 325.75 245.75 321.385 245.75 316C245.75 310.615 241.385 306.25 236 306.25ZM236 314.875C235.379 314.875 234.875 315.379 234.875 316C234.875 316.621 235.379 317.125 236 317.125C236.621 317.125 237.125 316.621 237.125 316C237.125 315.379 236.621 314.875 236 314.875ZM239.375 316C239.375 315.379 239.879 314.875 240.5 314.875C241.121 314.875 241.625 315.379 241.625 316C241.625 316.621 241.121 317.125 240.5 317.125C239.879 317.125 239.375 316.621 239.375 316ZM231.5 314.875C230.879 314.875 230.375 315.379 230.375 316C230.375 316.621 230.879 317.125 231.5 317.125C232.121 317.125 232.625 316.621 232.625 316C232.625 315.379 232.121 314.875 231.5 314.875Z" fill="#567FEF"/>
<path fill-rule="evenodd" clip-rule="evenodd" d="M51 312V313.5H47.0257C45.1066 313.5 43.4972 314.949 43.2963 316.857L40.77 340.857C40.537 343.072 42.273 345 44.4994 345H75.5008C77.7272 345 79.4634 343.072 79.2302 340.857L76.704 316.857C76.503 314.949 74.8936 313.5 72.9746 313.5H69V312C69 307.029 64.9706 303 60 303C55.0294 303 51 307.029 51 312ZM60 306C56.6862 306 54 308.686 54 312V313.5H66V312C66 308.686 63.3138 306 60 306ZM54 322.5C54 325.814 56.6862 328.5 60 328.5C63.3138 328.5 66 325.814 66 322.5V321C66 320.172 66.6716 319.5 67.5 319.5C68.3284 319.5 69 320.172 69 321V322.5C69 327.471 64.9706 331.5 60 331.5C55.0294 331.5 51 327.471 51 322.5V321C51 320.172 51.6716 319.5 52.5 319.5C53.3284 319.5 54 320.172 54 321V322.5Z" fill="#567FEF"/>
<g filter="url(#filter2_d_44_12)">
<rect x="288" y="288" width="240" height="174" rx="16" fill="url(#paint1_linear_44_12)"/>
</g>
<path fill-rule="evenodd" clip-rule="evenodd" d="M315 312V313.5H311.026C309.107 313.5 307.497 314.949 307.296 316.857L304.77 340.857C304.537 343.072 306.273 345 308.499 345H339.501C341.727 345 343.463 343.072 343.23 340.857L340.704 316.857C340.503 314.949 338.894 313.5 336.975 313.5H333V312C333 307.029 328.971 303 324 303C319.029 303 315 307.029 315 312ZM324 306C320.686 306 318 308.686 318 312V313.5H330V312C330 308.686 327.314 306 324 306ZM318 322.5C318 325.814 320.686 328.5 324 328.5C327.314 328.5 330 325.814 330 322.5V321C330 320.172 330.672 319.5 331.5 319.5C332.328 319.5 333 320.172 333 321V322.5C333 327.471 328.971 331.5 324 331.5C319.029 331.5 315 327.471 315 322.5V321C315 320.172 315.672 319.5 316.5 319.5C317.328 319.5 318 320.172 318 321V322.5Z" fill="white"/>
<path d="M477.13 437.955V430.455H478.403V437.955H477.13ZM474.016 434.841V433.568H481.516V434.841H474.016ZM483.449 440L488.654 429.705V429.614H482.654V428.364H490.109V429.682L484.927 440H483.449ZM494.907 440.159C494.24 440.159 493.639 440.027 493.105 439.761C492.571 439.496 492.143 439.133 491.821 438.67C491.499 438.208 491.323 437.682 491.293 437.091H492.657C492.71 437.617 492.948 438.053 493.372 438.398C493.8 438.739 494.312 438.909 494.907 438.909C495.384 438.909 495.808 438.797 496.179 438.574C496.554 438.35 496.848 438.044 497.06 437.653C497.276 437.259 497.384 436.814 497.384 436.318C497.384 435.811 497.272 435.358 497.049 434.96C496.829 434.559 496.526 434.242 496.139 434.011C495.753 433.78 495.312 433.663 494.816 433.659C494.46 433.655 494.094 433.71 493.719 433.824C493.344 433.934 493.035 434.076 492.793 434.25L491.475 434.091L492.179 428.364H498.225V429.614H493.361L492.952 433.045H493.02C493.259 432.856 493.558 432.699 493.918 432.574C494.278 432.449 494.653 432.386 495.043 432.386C495.755 432.386 496.389 432.557 496.946 432.898C497.507 433.235 497.946 433.697 498.264 434.284C498.586 434.871 498.747 435.542 498.747 436.295C498.747 437.038 498.581 437.701 498.247 438.284C497.918 438.864 497.463 439.322 496.884 439.659C496.304 439.992 495.645 440.159 494.907 440.159ZM506.136 437.818V437.205C506.136 436.78 506.223 436.392 506.398 436.04C506.576 435.684 506.833 435.4 507.17 435.188C507.511 434.972 507.924 434.864 508.409 434.864C508.902 434.864 509.314 434.972 509.648 435.188C509.981 435.4 510.233 435.684 510.403 436.04C510.574 436.392 510.659 436.78 510.659 437.205V437.818C510.659 438.242 510.572 438.633 510.398 438.989C510.227 439.341 509.973 439.625 509.636 439.841C509.303 440.053 508.894 440.159 508.409 440.159C507.917 440.159 507.502 440.053 507.165 439.841C506.828 439.625 506.572 439.341 506.398 438.989C506.223 438.633 506.136 438.242 506.136 437.818ZM507.295 437.205V437.818C507.295 438.17 507.379 438.487 507.545 438.767C507.712 439.044 508 439.182 508.409 439.182C508.807 439.182 509.087 439.044 509.25 438.767C509.417 438.487 509.5 438.17 509.5 437.818V437.205C509.5 436.852 509.42 436.538 509.261 436.261C509.102 435.981 508.818 435.841 508.409 435.841C508.011 435.841 507.725 435.981 507.551 436.261C507.381 436.538 507.295 436.852 507.295 437.205ZM500.341 431.159V430.545C500.341 430.121 500.428 429.733 500.602 429.381C500.78 429.025 501.038 428.741 501.375 428.528C501.716 428.312 502.129 428.205 502.614 428.205C503.106 428.205 503.519 428.312 503.852 428.528C504.186 428.741 504.438 429.025 504.608 429.381C504.778 429.733 504.864 430.121 504.864 430.545V431.159C504.864 431.583 504.777 431.973 504.602 432.33C504.432 432.682 504.178 432.966 503.841 433.182C503.508 433.394 503.098 433.5 502.614 433.5C502.121 433.5 501.706 433.394 501.369 433.182C501.032 432.966 500.777 432.682 500.602 432.33C500.428 431.973 500.341 431.583 500.341 431.159ZM501.5 430.545V431.159C501.5 431.511 501.583 431.828 501.75 432.108C501.917 432.384 502.205 432.523 502.614 432.523C503.011 432.523 503.292 432.384 503.455 432.108C503.621 431.828 503.705 431.511 503.705 431.159V430.545C503.705 430.193 503.625 429.879 503.466 429.602C503.307 429.322 503.023 429.182 502.614 429.182C502.216 429.182 501.93 429.322 501.756 429.602C501.585 429.879 501.5 430.193 501.5 430.545ZM500.773 440L508.773 428.364H510.068L502.068 440H500.773Z" fill="white"/>
<path fill-rule="evenodd" clip-rule="evenodd" d="M459.219 428.268C459.368 427.881 459.802 427.688 460.188 427.836L466.13 430.117C466.315 430.188 466.465 430.33 466.546 430.512C466.627 430.694 466.632 430.9 466.561 431.086L464.28 437.027C464.132 437.414 463.698 437.607 463.311 437.458C462.925 437.31 462.732 436.876 462.88 436.489L464.512 432.239L463.425 432.722C460.972 433.815 459.104 435.675 457.975 437.896C457.866 438.11 457.661 438.259 457.424 438.297C457.187 438.334 456.946 438.256 456.776 438.086L453 434.31L446.78 440.53C446.487 440.823 446.013 440.823 445.72 440.53C445.427 440.237 445.427 439.762 445.72 439.469L452.47 432.719C452.61 432.579 452.801 432.5 453 432.5C453.199 432.5 453.39 432.579 453.53 432.719L457.136 436.325C458.437 434.204 460.371 432.44 462.815 431.352L463.902 430.868L459.651 429.237C459.264 429.088 459.071 428.654 459.219 428.268Z" fill="white"/>
<path d="M427.568 415.909V386.818H429.432V415.909H427.568ZM432.943 396.125C432.837 395.133 432.39 394.36 431.602 393.807C430.822 393.254 429.807 392.977 428.557 392.977C427.678 392.977 426.924 393.11 426.295 393.375C425.667 393.64 425.186 394 424.852 394.455C424.519 394.909 424.348 395.428 424.341 396.011C424.341 396.496 424.451 396.917 424.67 397.273C424.898 397.629 425.205 397.932 425.591 398.182C425.977 398.424 426.405 398.629 426.875 398.795C427.345 398.962 427.818 399.102 428.295 399.216L430.477 399.761C431.356 399.966 432.201 400.242 433.011 400.591C433.83 400.939 434.561 401.379 435.205 401.909C435.856 402.439 436.371 403.08 436.75 403.83C437.129 404.58 437.318 405.458 437.318 406.466C437.318 407.83 436.97 409.03 436.273 410.068C435.576 411.098 434.568 411.905 433.25 412.489C431.939 413.064 430.352 413.352 428.489 413.352C426.678 413.352 425.106 413.072 423.773 412.511C422.447 411.951 421.409 411.133 420.659 410.057C419.917 408.981 419.515 407.67 419.455 406.125H423.602C423.663 406.936 423.913 407.61 424.352 408.148C424.792 408.686 425.364 409.087 426.068 409.352C426.78 409.617 427.576 409.75 428.455 409.75C429.371 409.75 430.174 409.614 430.864 409.341C431.561 409.061 432.106 408.674 432.5 408.182C432.894 407.682 433.095 407.098 433.102 406.432C433.095 405.826 432.917 405.326 432.568 404.932C432.22 404.53 431.731 404.197 431.102 403.932C430.481 403.659 429.754 403.417 428.92 403.205L426.273 402.523C424.356 402.03 422.841 401.284 421.727 400.284C420.621 399.277 420.068 397.939 420.068 396.273C420.068 394.902 420.439 393.701 421.182 392.67C421.932 391.64 422.951 390.841 424.239 390.273C425.527 389.697 426.985 389.409 428.614 389.409C430.265 389.409 431.712 389.697 432.955 390.273C434.205 390.841 435.186 391.633 435.898 392.648C436.61 393.655 436.977 394.814 437 396.125H432.943ZM439.249 413V409.955L447.329 402.034C448.102 401.254 448.746 400.561 449.261 399.955C449.776 399.348 450.162 398.761 450.42 398.193C450.677 397.625 450.806 397.019 450.806 396.375C450.806 395.64 450.64 395.011 450.306 394.489C449.973 393.958 449.515 393.549 448.931 393.261C448.348 392.973 447.685 392.83 446.943 392.83C446.177 392.83 445.507 392.989 444.931 393.307C444.355 393.617 443.909 394.061 443.59 394.636C443.28 395.212 443.124 395.898 443.124 396.693H439.113C439.113 395.216 439.45 393.932 440.124 392.841C440.799 391.75 441.727 390.905 442.909 390.307C444.098 389.708 445.462 389.409 446.999 389.409C448.56 389.409 449.931 389.701 451.113 390.284C452.295 390.867 453.212 391.667 453.863 392.682C454.522 393.697 454.852 394.856 454.852 396.159C454.852 397.03 454.685 397.886 454.352 398.727C454.018 399.568 453.431 400.5 452.59 401.523C451.757 402.545 450.587 403.784 449.079 405.239L445.068 409.318V409.477H455.204V413H439.249ZM456.604 408.682V405.33L466.479 389.727H469.274V394.5H467.57L460.922 405.034V405.216H474.706V408.682H456.604ZM467.706 413V407.659L467.752 406.159V389.727H471.729V413H467.706ZM484.828 413.318C483.313 413.318 481.957 413.034 480.76 412.466C479.563 411.89 478.612 411.102 477.907 410.102C477.21 409.102 476.839 407.958 476.794 406.67H480.885C480.96 407.625 481.373 408.405 482.123 409.011C482.873 409.61 483.775 409.909 484.828 409.909C485.654 409.909 486.388 409.72 487.032 409.341C487.676 408.962 488.184 408.436 488.555 407.761C488.926 407.087 489.108 406.318 489.101 405.455C489.108 404.576 488.923 403.795 488.544 403.114C488.165 402.432 487.646 401.898 486.987 401.511C486.328 401.117 485.57 400.92 484.714 400.92C484.017 400.913 483.332 401.042 482.657 401.307C481.983 401.572 481.449 401.92 481.055 402.352L477.248 401.727L478.464 389.727H491.964V393.25H481.953L481.282 399.42H481.419C481.851 398.913 482.46 398.492 483.248 398.159C484.036 397.818 484.9 397.648 485.839 397.648C487.248 397.648 488.506 397.981 489.612 398.648C490.718 399.307 491.589 400.216 492.226 401.375C492.862 402.534 493.18 403.86 493.18 405.352C493.18 406.89 492.824 408.261 492.112 409.466C491.407 410.663 490.426 411.606 489.169 412.295C487.919 412.977 486.472 413.318 484.828 413.318ZM499.182 407.523L499.171 402.557H499.83L506.103 395.545H510.91L503.194 404.136H502.341L499.182 407.523ZM495.432 413V389.727H499.546V413H495.432ZM506.387 413L500.705 405.057L503.478 402.159L511.307 413H506.387Z" fill="white"/>
<path d="M437.761 373V358.455H442.676C443.813 358.455 444.745 358.649 445.474 359.037C446.204 359.42 446.743 359.948 447.094 360.621C447.444 361.293 447.619 362.058 447.619 362.915C447.619 363.772 447.444 364.532 447.094 365.195C446.743 365.857 446.206 366.378 445.482 366.757C444.757 367.131 443.831 367.318 442.705 367.318H438.727V365.727H442.648C443.424 365.727 444.049 365.614 444.523 365.386C445.001 365.159 445.347 364.837 445.56 364.42C445.777 363.999 445.886 363.497 445.886 362.915C445.886 362.332 445.777 361.823 445.56 361.388C445.342 360.952 444.994 360.616 444.516 360.379C444.037 360.138 443.405 360.017 442.619 360.017H439.523V373H437.761ZM444.608 366.466L448.188 373H446.142L442.619 366.466H444.608ZM453.784 373.227C452.733 373.227 451.826 372.995 451.064 372.531C450.306 372.062 449.721 371.409 449.309 370.571C448.902 369.728 448.699 368.748 448.699 367.631C448.699 366.513 448.902 365.528 449.309 364.676C449.721 363.819 450.294 363.152 451.028 362.673C451.767 362.19 452.628 361.949 453.613 361.949C454.181 361.949 454.743 362.044 455.297 362.233C455.85 362.422 456.355 362.73 456.809 363.156C457.264 363.578 457.626 364.136 457.896 364.832C458.166 365.528 458.301 366.385 458.301 367.403V368.114H449.892V366.665H456.596C456.596 366.049 456.473 365.5 456.227 365.017C455.985 364.534 455.64 364.153 455.19 363.874C454.745 363.594 454.219 363.455 453.613 363.455C452.946 363.455 452.368 363.62 451.88 363.952C451.397 364.278 451.026 364.705 450.765 365.23C450.505 365.756 450.375 366.319 450.375 366.92V367.886C450.375 368.71 450.517 369.409 450.801 369.982C451.09 370.55 451.49 370.983 452.001 371.281C452.512 371.575 453.107 371.722 453.784 371.722C454.224 371.722 454.622 371.66 454.977 371.537C455.337 371.409 455.647 371.22 455.907 370.969C456.168 370.713 456.369 370.396 456.511 370.017L458.13 370.472C457.96 371.021 457.673 371.504 457.271 371.92C456.868 372.332 456.371 372.654 455.779 372.886C455.188 373.114 454.522 373.227 453.784 373.227ZM468.439 362.091L464.405 373H462.7L458.666 362.091H460.484L463.496 370.784H463.609L466.621 362.091H468.439ZM473.835 373.227C472.783 373.227 471.877 372.995 471.114 372.531C470.357 372.062 469.772 371.409 469.36 370.571C468.953 369.728 468.749 368.748 468.749 367.631C468.749 366.513 468.953 365.528 469.36 364.676C469.772 363.819 470.345 363.152 471.079 362.673C471.817 362.19 472.679 361.949 473.664 361.949C474.232 361.949 474.793 362.044 475.347 362.233C475.901 362.422 476.406 362.73 476.86 363.156C477.315 363.578 477.677 364.136 477.947 364.832C478.217 365.528 478.352 366.385 478.352 367.403V368.114H469.942V366.665H476.647C476.647 366.049 476.524 365.5 476.278 365.017C476.036 364.534 475.691 364.153 475.241 363.874C474.796 363.594 474.27 363.455 473.664 363.455C472.996 363.455 472.419 363.62 471.931 363.952C471.448 364.278 471.076 364.705 470.816 365.23C470.556 365.756 470.425 366.319 470.425 366.92V367.886C470.425 368.71 470.567 369.409 470.852 369.982C471.14 370.55 471.54 370.983 472.052 371.281C472.563 371.575 473.157 371.722 473.835 371.722C474.275 371.722 474.673 371.66 475.028 371.537C475.388 371.409 475.698 371.22 475.958 370.969C476.219 370.713 476.42 370.396 476.562 370.017L478.181 370.472C478.011 371.021 477.724 371.504 477.322 371.92C476.919 372.332 476.422 372.654 475.83 372.886C475.238 373.114 474.573 373.227 473.835 373.227ZM481.577 366.438V373H479.901V362.091H481.521V363.795H481.663C481.918 363.241 482.307 362.796 482.827 362.46C483.348 362.119 484.021 361.949 484.844 361.949C485.583 361.949 486.229 362.1 486.783 362.403C487.337 362.702 487.768 363.156 488.076 363.767C488.384 364.373 488.538 365.14 488.538 366.068V373H486.862V366.182C486.862 365.325 486.639 364.657 486.194 364.179C485.749 363.696 485.138 363.455 484.362 363.455C483.826 363.455 483.348 363.571 482.927 363.803C482.51 364.035 482.181 364.373 481.94 364.818C481.698 365.263 481.577 365.803 481.577 366.438ZM497.475 368.54V362.091H499.152V373H497.475V371.153H497.362C497.106 371.707 496.708 372.179 496.169 372.567C495.629 372.95 494.947 373.142 494.123 373.142C493.441 373.142 492.835 372.993 492.305 372.695C491.775 372.392 491.358 371.937 491.055 371.331C490.752 370.72 490.6 369.951 490.6 369.023V362.091H492.277V368.909C492.277 369.705 492.499 370.339 492.944 370.812C493.394 371.286 493.967 371.523 494.663 371.523C495.08 371.523 495.503 371.416 495.934 371.203C496.37 370.99 496.734 370.663 497.028 370.223C497.326 369.783 497.475 369.222 497.475 368.54ZM505.795 373.227C504.744 373.227 503.838 372.995 503.075 372.531C502.318 372.062 501.733 371.409 501.321 370.571C500.914 369.728 500.71 368.748 500.71 367.631C500.71 366.513 500.914 365.528 501.321 364.676C501.733 363.819 502.306 363.152 503.04 362.673C503.778 362.19 504.64 361.949 505.625 361.949C506.193 361.949 506.754 362.044 507.308 362.233C507.862 362.422 508.366 362.73 508.821 363.156C509.276 363.578 509.638 364.136 509.908 364.832C510.178 365.528 510.312 366.385 510.312 367.403V368.114H501.903V366.665H508.608C508.608 366.049 508.485 365.5 508.239 365.017C507.997 364.534 507.652 364.153 507.202 363.874C506.757 363.594 506.231 363.455 505.625 363.455C504.957 363.455 504.38 363.62 503.892 363.952C503.409 364.278 503.037 364.705 502.777 365.23C502.517 365.756 502.386 366.319 502.386 366.92V367.886C502.386 368.71 502.528 369.409 502.812 369.982C503.101 370.55 503.501 370.983 504.013 371.281C504.524 371.575 505.118 371.722 505.795 371.722C506.236 371.722 506.634 371.66 506.989 371.537C507.348 371.409 507.659 371.22 507.919 370.969C508.179 370.713 508.381 370.396 508.523 370.017L510.142 370.472C509.972 371.021 509.685 371.504 509.283 371.92C508.88 372.332 508.383 372.654 507.791 372.886C507.199 373.114 506.534 373.227 505.795 373.227Z" fill="white"/>
<path fill-rule="evenodd" clip-rule="evenodd" d="M500 306.25C494.615 306.25 490.25 310.615 490.25 316C490.25 321.385 494.615 325.75 500 325.75C505.385 325.75 509.75 321.385 509.75 316C509.75 310.615 505.385 306.25 500 306.25ZM500 314.875C499.379 314.875 498.875 315.379 498.875 316C498.875 316.621 499.379 317.125 500 317.125C500.621 317.125 501.125 316.621 501.125 316C501.125 315.379 500.621 314.875 500 314.875ZM503.375 316C503.375 315.379 503.879 314.875 504.5 314.875C505.121 314.875 505.625 315.379 505.625 316C505.625 316.621 505.121 317.125 504.5 317.125C503.879 317.125 503.375 316.621 503.375 316ZM495.5 314.875C494.879 314.875 494.375 315.379 494.375 316C494.375 316.621 494.879 317.125 495.5 317.125C496.121 317.125 496.625 316.621 496.625 316C496.625 315.379 496.121 314.875 495.5 314.875Z" fill="white"/>
<rect x="0.5" y="0.5" width="551" height="485" rx="7.5" stroke="white" stroke-opacity="0.1"/>
<defs>
<filter id="filter0_d_44_12" x="284" y="22" width="248" height="248" filterUnits="userSpaceOnUse" color-interpolation-filters="sRGB">
<feFlood flood-opacity="0" result="BackgroundImageFix"/>
<feColorMatrix in="SourceAlpha" type="matrix" values="0 0 0 0 0 0 0 0 0 0 0 0 0 0 0 0 0 0 127 0" result="hardAlpha"/>
<feOffset dy="2"/>
<feGaussianBlur stdDeviation="2"/>
<feComposite in2="hardAlpha" operator="out"/>
<feColorMatrix type="matrix" values="0 0 0 0 0 0 0 0 0 0 0 0 0 0 0 0 0 0 0.25 0"/>
<feBlend mode="normal" in2="BackgroundImageFix" result="effect1_dropShadow_44_12"/>
<feBlend mode="normal" in="SourceGraphic" in2="effect1_dropShadow_44_12" result="shape"/>
</filter>
<filter id="filter1_d_44_12" x="20" y="286" width="248" height="182" filterUnits="userSpaceOnUse" color-interpolation-filters="sRGB">
<feFlood flood-opacity="0" result="BackgroundImageFix"/>
<feColorMatrix in="SourceAlpha" type="matrix" values="0 0 0 0 0 0 0 0 0 0 0 0 0 0 0 0 0 0 127 0" result="hardAlpha"/>
<feOffset dy="2"/>
<feGaussianBlur stdDeviation="2"/>
<feComposite in2="hardAlpha" operator="out"/>
<feColorMatrix type="matrix" values="0 0 0 0 0 0 0 0 0 0 0 0 0 0 0 0 0 0 0.25 0"/>
<feBlend mode="normal" in2="BackgroundImageFix" result="effect1_dropShadow_44_12"/>
<feBlend mode="normal" in="SourceGraphic" in2="effect1_dropShadow_44_12" result="shape"/>
</filter>
<filter id="filter2_d_44_12" x="284" y="286" width="248" height="182" filterUnits="userSpaceOnUse" color-interpolation-filters="sRGB">
<feFlood flood-opacity="0" result="BackgroundImageFix"/>
<feColorMatrix in="SourceAlpha" type="matrix" values="0 0 0 0 0 0 0 0 0 0 0 0 0 0 0 0 0 0 127 0" result="hardAlpha"/>
<feOffset dy="2"/>
<feGaussianBlur stdDeviation="2"/>
<feComposite in2="hardAlpha" operator="out"/>
<feColorMatrix type="matrix" values="0 0 0 0 0 0 0 0 0 0 0 0 0 0 0 0 0 0 0.25 0"/>
<feBlend mode="normal" in2="BackgroundImageFix" result="effect1_dropShadow_44_12"/>
<feBlend mode="normal" in="SourceGraphic" in2="effect1_dropShadow_44_12" result="shape"/>
</filter>
<linearGradient id="paint0_linear_44_12" x1="260" y1="27.5" x2="30.5" y2="260" gradientUnits="userSpaceOnUse">
<stop stop-color="#FFBD13"/>
<stop offset="1" stop-color="#FF0E48"/>
</linearGradient>
<linearGradient id="paint1_linear_44_12" x1="522" y1="288" x2="272.966" y2="436.848" gradientUnits="userSpaceOnUse">
<stop stop-color="#0E9AFF"/>
<stop offset="1" stop-color="#632AFF"/>
</linearGradient>
<clipPath id="clip0_44_12">
<rect width="20" height="20" fill="white" transform="translate(48 425)"/>
</clipPath>
</defs>
</svg>
