<svg width="408" height="128" viewBox="0 0 408 128" fill="none" xmlns="http://www.w3.org/2000/svg">
<rect width="408" height="128" rx="8" fill="#F0F0F0"/>
<g filter="url(#filter0_d_13_34)">
<rect x="24" y="24" width="360" height="80" rx="16" fill="#FEFEFE" shape-rendering="crispEdges"/>
<path d="M80.2664 90V79.8182H81.4993V84.3523H86.9283V79.8182H88.1612V90H86.9283V85.446H81.4993V90H80.2664ZM92.8728 90.1591C92.1834 90.1591 91.5785 89.995 91.0582 89.6669C90.5411 89.3388 90.1368 88.8797 89.8451 88.2898C89.5568 87.6998 89.4126 87.0104 89.4126 86.2216C89.4126 85.4261 89.5568 84.7318 89.8451 84.1385C90.1368 83.5452 90.5411 83.0845 91.0582 82.7564C91.5785 82.4283 92.1834 82.2642 92.8728 82.2642C93.5622 82.2642 94.1654 82.4283 94.6825 82.7564C95.2028 83.0845 95.6072 83.5452 95.8955 84.1385C96.1872 84.7318 96.333 85.4261 96.333 86.2216C96.333 87.0104 96.1872 87.6998 95.8955 88.2898C95.6072 88.8797 95.2028 89.3388 94.6825 89.6669C94.1654 89.995 93.5622 90.1591 92.8728 90.1591ZM92.8728 89.1051C93.3965 89.1051 93.8274 88.9709 94.1654 88.7024C94.5035 88.4339 94.7537 88.081 94.9161 87.6435C95.0785 87.206 95.1597 86.732 95.1597 86.2216C95.1597 85.7112 95.0785 85.2356 94.9161 84.7947C94.7537 84.3539 94.5035 83.9976 94.1654 83.7259C93.8274 83.4541 93.3965 83.3182 92.8728 83.3182C92.3491 83.3182 91.9183 83.4541 91.5802 83.7259C91.2421 83.9976 90.9919 84.3539 90.8295 84.7947C90.6671 85.2356 90.5859 85.7112 90.5859 86.2216C90.5859 86.732 90.6671 87.206 90.8295 87.6435C90.9919 88.081 91.2421 88.4339 91.5802 88.7024C91.9183 88.9709 92.3491 89.1051 92.8728 89.1051ZM97.4241 90V82.3636H98.5576V83.5568H98.657C98.8161 83.1491 99.073 82.8326 99.4276 82.6072C99.7822 82.3786 100.208 82.2642 100.705 82.2642C101.209 82.2642 101.628 82.3786 101.963 82.6072C102.301 82.8326 102.565 83.1491 102.754 83.5568H102.833C103.029 83.1624 103.322 82.8492 103.713 82.6172C104.104 82.3819 104.573 82.2642 105.12 82.2642C105.803 82.2642 106.361 82.478 106.796 82.9055C107.23 83.3298 107.447 83.991 107.447 84.8892V90H106.273V84.8892C106.273 84.3258 106.119 83.9231 105.811 83.6811C105.503 83.4392 105.14 83.3182 104.722 83.3182C104.185 83.3182 103.769 83.4806 103.474 83.8054C103.18 84.1269 103.032 84.5346 103.032 85.0284V90H101.839V84.7699C101.839 84.3357 101.698 83.986 101.416 83.7209C101.135 83.4524 100.772 83.3182 100.327 83.3182C100.023 83.3182 99.7375 83.3994 99.4724 83.5618C99.2105 83.7242 98.9984 83.9496 98.836 84.2379C98.6769 84.523 98.5974 84.8527 98.5974 85.2273V90H97.4241ZM112.094 90.1591C111.358 90.1591 110.723 89.9967 110.19 89.6719C109.659 89.3438 109.25 88.8864 108.962 88.2997C108.677 87.7098 108.534 87.0237 108.534 86.2415C108.534 85.4593 108.677 84.7699 108.962 84.1733C109.25 83.5734 109.651 83.1061 110.165 82.7713C110.682 82.4332 111.285 82.2642 111.974 82.2642C112.372 82.2642 112.765 82.3305 113.153 82.4631C113.54 82.5956 113.893 82.8111 114.212 83.1094C114.53 83.4044 114.783 83.7955 114.972 84.2827C115.161 84.7699 115.256 85.3698 115.256 86.0824V86.5795H109.369V85.5653H114.062C114.062 85.1345 113.976 84.75 113.804 84.4119C113.635 84.0739 113.393 83.8071 113.078 83.6115C112.767 83.416 112.399 83.3182 111.974 83.3182C111.507 83.3182 111.103 83.4342 110.761 83.6662C110.423 83.8949 110.163 84.1932 109.981 84.5611C109.799 84.929 109.707 85.3234 109.707 85.7443V86.4205C109.707 86.9972 109.807 87.486 110.006 87.8871C110.208 88.2848 110.488 88.5881 110.846 88.7969C111.204 89.0024 111.62 89.1051 112.094 89.1051C112.402 89.1051 112.68 89.062 112.929 88.9759C113.181 88.8864 113.398 88.7538 113.58 88.5781C113.763 88.3991 113.903 88.1771 114.003 87.9119L115.136 88.2301C115.017 88.6146 114.817 88.9527 114.535 89.2443C114.253 89.5327 113.905 89.758 113.491 89.9205C113.076 90.0795 112.611 90.1591 112.094 90.1591Z" fill="#567FEF"/>
<rect x="69" y="35" width="56" height="40" rx="16" fill="#567FEF"/>
<path d="M96.4697 46.8408C96.7626 46.5479 97.2374 46.5479 97.5303 46.8408L106.22 55.5301C106.513 55.823 106.987 55.823 107.28 55.5301C107.573 55.2372 107.573 54.7623 107.28 54.4694L98.591 45.7801C97.7123 44.9014 96.2877 44.9014 95.409 45.7801L86.7197 54.4694C86.4268 54.7623 86.4268 55.2372 86.7197 55.5301C87.0126 55.823 87.4874 55.823 87.7803 55.5301L96.4697 46.8408Z" fill="white"/>
<path d="M97 48.4318L105.159 56.5908C105.189 56.6205 105.219 56.6492 105.25 56.6769V62.8748C105.25 63.9103 104.411 64.7498 103.375 64.7498H100C99.5858 64.7498 99.25 64.414 99.25 63.9998V59.4998C99.25 59.0856 98.9142 58.7498 98.5 58.7498H95.5C95.0858 58.7498 94.75 59.0856 94.75 59.4998V63.9998C94.75 64.414 94.4142 64.7498 94 64.7498H90.625C89.5895 64.7498 88.75 63.9103 88.75 62.8748V56.6769C88.7809 56.6492 88.8113 56.6205 88.841 56.5908L97 48.4318Z" fill="white"/>
<path d="M162.5 60.6691V69.25C162.5 70.9069 163.843 72.25 165.5 72.25H180.5C182.157 72.25 183.5 70.9069 183.5 69.25V60.6691L174.572 66.1631C173.608 66.7564 172.392 66.7564 171.428 66.1631L162.5 60.6691Z" fill="#567FEF"/>
<path d="M183.5 58.9078V58.75C183.5 57.0932 182.157 55.75 180.5 55.75H165.5C163.843 55.75 162.5 57.0932 162.5 58.75V58.9078L172.214 64.8856C172.696 65.1823 173.304 65.1823 173.786 64.8856L183.5 58.9078Z" fill="#567FEF"/>
<path fill-rule="evenodd" clip-rule="evenodd" d="M240.5 58C240.5 55.5147 242.515 53.5 245 53.5C247.485 53.5 249.5 55.5147 249.5 58C249.5 60.4853 247.485 62.5 245 62.5C242.515 62.5 240.5 60.4853 240.5 58Z" fill="#567FEF"/>
<path fill-rule="evenodd" clip-rule="evenodd" d="M236.751 72.1053C236.828 67.6156 240.492 64 245 64C249.508 64 253.171 67.6157 253.249 72.1056C253.254 72.4034 253.082 72.676 252.811 72.8002C250.433 73.8918 247.786 74.5 245 74.5C242.214 74.5 239.567 73.8917 237.188 72.7999C236.917 72.6757 236.746 72.4031 236.751 72.1053Z" fill="#567FEF"/>
<path fill-rule="evenodd" clip-rule="evenodd" d="M314.078 54.25C313.161 54.25 312.379 54.9127 312.229 55.8168L312.05 56.8887C312.03 57.0096 311.936 57.1498 311.753 57.2375C311.409 57.4029 311.08 57.5938 310.768 57.8076C310.601 57.9216 310.433 57.9332 310.318 57.8902L309.299 57.5083C308.44 57.1868 307.475 57.5329 307.017 58.3267L306.095 59.9236C305.637 60.7174 305.82 61.7261 306.527 62.3087L307.368 63.0006C307.462 63.0785 307.536 63.2298 307.521 63.4307C307.507 63.6188 307.5 63.8086 307.5 64C307.5 64.1915 307.507 64.3814 307.521 64.5695C307.536 64.7704 307.462 64.9217 307.368 64.9996L306.527 65.6916C305.82 66.2741 305.637 67.2829 306.095 68.0767L307.017 69.6736C307.475 70.4674 308.44 70.8135 309.299 70.4919L310.318 70.11C310.433 70.067 310.601 70.0786 310.768 70.1925C311.08 70.4063 311.409 70.5971 311.753 70.7625C311.936 70.8502 312.03 70.9904 312.05 71.1113L312.229 72.1832C312.379 73.0874 313.161 73.75 314.078 73.75H315.922C316.839 73.75 317.621 73.0874 317.771 72.1832L317.95 71.1113C317.97 70.9904 318.064 70.8502 318.247 70.7625C318.591 70.5971 318.92 70.4062 319.233 70.1924C319.399 70.0784 319.567 70.0668 319.682 70.1098L320.701 70.4917C321.56 70.8132 322.525 70.4671 322.983 69.6733L323.905 68.0764C324.363 67.2826 324.181 66.2739 323.473 65.6913L322.632 64.9994C322.538 64.9215 322.464 64.7702 322.479 64.5693C322.493 64.3812 322.5 64.1914 322.5 64C322.5 63.8085 322.493 63.6186 322.479 63.4305C322.464 63.2296 322.538 63.0783 322.632 63.0004L323.473 62.3084C324.181 61.7259 324.363 60.7171 323.905 59.9233L322.983 58.3264C322.525 57.5326 321.56 57.1865 320.701 57.5081L319.682 57.89C319.567 57.933 319.399 57.9214 319.232 57.8075C318.92 57.5937 318.591 57.4029 318.247 57.2375C318.064 57.1498 317.97 57.0096 317.95 56.8887L317.771 55.8168C317.621 54.9127 316.839 54.25 315.922 54.25H314.078ZM315 67.75C317.071 67.75 318.75 66.0711 318.75 64C318.75 61.9289 317.071 60.25 315 60.25C312.929 60.25 311.25 61.9289 311.25 64C311.25 66.0711 312.929 67.75 315 67.75Z" fill="#567FEF"/>
</g>
<rect x="0.5" y="0.5" width="407" height="127" rx="7.5" stroke="white" stroke-opacity="0.1"/>
<defs>
<filter id="filter0_d_13_34" x="20" y="22" width="368" height="88" filterUnits="userSpaceOnUse" color-interpolation-filters="sRGB">
<feFlood flood-opacity="0" result="BackgroundImageFix"/>
<feColorMatrix in="SourceAlpha" type="matrix" values="0 0 0 0 0 0 0 0 0 0 0 0 0 0 0 0 0 0 127 0" result="hardAlpha"/>
<feOffset dy="2"/>
<feGaussianBlur stdDeviation="2"/>
<feComposite in2="hardAlpha" operator="out"/>
<feColorMatrix type="matrix" values="0 0 0 0 0.188235 0 0 0 0 0.188235 0 0 0 0 0.188235 0 0 0 0.17 0"/>
<feBlend mode="normal" in2="BackgroundImageFix" result="effect1_dropShadow_13_34"/>
<feBlend mode="normal" in="SourceGraphic" in2="effect1_dropShadow_13_34" result="shape"/>
</filter>
</defs>
</svg>
