<svg width="408" height="128" viewBox="0 0 408 128" fill="none" xmlns="http://www.w3.org/2000/svg">
<rect width="408" height="128" rx="8" fill="#F0F0F0"/>
<g filter="url(#filter0_d_13_35)">
<rect x="24" y="24" width="360" height="80" rx="16" fill="#FEFEFE" shape-rendering="crispEdges"/>
<rect x="69" y="36" width="56" height="56" rx="16" fill="#567FEF"/>
<path d="M96.4697 55.8408C96.7626 55.5479 97.2374 55.5479 97.5303 55.8408L106.22 64.5301C106.513 64.823 106.987 64.823 107.28 64.5301C107.573 64.2372 107.573 63.7623 107.28 63.4694L98.591 54.7801C97.7123 53.9014 96.2877 53.9014 95.409 54.7801L86.7197 63.4694C86.4268 63.7623 86.4268 64.2372 86.7197 64.5301C87.0126 64.823 87.4874 64.823 87.7803 64.5301L96.4697 55.8408Z" fill="white"/>
<path d="M97 57.4318L105.159 65.5908C105.189 65.6205 105.219 65.6492 105.25 65.6769V71.8748C105.25 72.9103 104.411 73.7498 103.375 73.7498H100C99.5858 73.7498 99.25 73.414 99.25 72.9998V68.4998C99.25 68.0856 98.9142 67.7498 98.5 67.7498H95.5C95.0858 67.7498 94.75 68.0856 94.75 68.4998V72.9998C94.75 73.414 94.4142 73.7498 94 73.7498H90.625C89.5895 73.7498 88.75 72.9103 88.75 71.8748V65.6769C88.7809 65.6492 88.8113 65.6205 88.841 65.5908L97 57.4318Z" fill="white"/>
<path d="M159.5 60.6691V69.25C159.5 70.9069 160.843 72.25 162.5 72.25H177.5C179.157 72.25 180.5 70.9069 180.5 69.25V60.6691L171.572 66.1631C170.608 66.7564 169.392 66.7564 168.428 66.1631L159.5 60.6691Z" fill="#567FEF"/>
<path d="M180.5 58.9078V58.75C180.5 57.0932 179.157 55.75 177.5 55.75H162.5C160.843 55.75 159.5 57.0932 159.5 58.75V58.9078L169.214 64.8856C169.696 65.1823 170.304 65.1823 170.786 64.8856L180.5 58.9078Z" fill="#567FEF"/>
<path fill-rule="evenodd" clip-rule="evenodd" d="M238.5 58C238.5 55.5147 240.515 53.5 243 53.5C245.485 53.5 247.5 55.5147 247.5 58C247.5 60.4853 245.485 62.5 243 62.5C240.515 62.5 238.5 60.4853 238.5 58Z" fill="#567FEF"/>
<path fill-rule="evenodd" clip-rule="evenodd" d="M234.751 72.1053C234.828 67.6156 238.492 64 243 64C247.508 64 251.171 67.6157 251.249 72.1056C251.254 72.4034 251.082 72.676 250.811 72.8002C248.433 73.8918 245.786 74.5 243 74.5C240.214 74.5 237.567 73.8917 235.188 72.7999C234.917 72.6757 234.746 72.4031 234.751 72.1053Z" fill="#567FEF"/>
<path fill-rule="evenodd" clip-rule="evenodd" d="M314.078 54.25C313.161 54.25 312.379 54.9127 312.229 55.8168L312.05 56.8887C312.03 57.0096 311.936 57.1498 311.753 57.2375C311.409 57.4029 311.08 57.5938 310.768 57.8076C310.601 57.9216 310.433 57.9332 310.318 57.8902L309.299 57.5083C308.44 57.1868 307.475 57.5329 307.017 58.3267L306.095 59.9236C305.637 60.7174 305.82 61.7261 306.527 62.3087L307.368 63.0006C307.462 63.0785 307.536 63.2298 307.521 63.4307C307.507 63.6188 307.5 63.8086 307.5 64C307.5 64.1915 307.507 64.3814 307.521 64.5695C307.536 64.7704 307.462 64.9217 307.368 64.9996L306.527 65.6916C305.82 66.2741 305.637 67.2829 306.095 68.0767L307.017 69.6736C307.475 70.4674 308.44 70.8135 309.299 70.4919L310.318 70.11C310.433 70.067 310.601 70.0786 310.768 70.1925C311.08 70.4063 311.409 70.5971 311.753 70.7625C311.936 70.8502 312.03 70.9904 312.05 71.1113L312.229 72.1832C312.379 73.0874 313.161 73.75 314.078 73.75H315.922C316.839 73.75 317.621 73.0874 317.771 72.1832L317.95 71.1113C317.97 70.9904 318.064 70.8502 318.247 70.7625C318.591 70.5971 318.92 70.4062 319.233 70.1924C319.399 70.0784 319.567 70.0668 319.682 70.1098L320.701 70.4917C321.56 70.8132 322.525 70.4671 322.983 69.6733L323.905 68.0764C324.363 67.2826 324.181 66.2739 323.473 65.6913L322.632 64.9994C322.538 64.9215 322.464 64.7702 322.479 64.5693C322.493 64.3812 322.5 64.1914 322.5 64C322.5 63.8085 322.493 63.6186 322.479 63.4305C322.464 63.2296 322.538 63.0783 322.632 63.0004L323.473 62.3084C324.181 61.7259 324.363 60.7171 323.905 59.9233L322.983 58.3264C322.525 57.5326 321.56 57.1865 320.701 57.5081L319.682 57.89C319.567 57.933 319.399 57.9214 319.232 57.8075C318.92 57.5937 318.591 57.4029 318.247 57.2375C318.064 57.1498 317.97 57.0096 317.95 56.8887L317.771 55.8168C317.621 54.9127 316.839 54.25 315.922 54.25H314.078ZM315 67.75C317.071 67.75 318.75 66.0711 318.75 64C318.75 61.9289 317.071 60.25 315 60.25C312.929 60.25 311.25 61.9289 311.25 64C311.25 66.0711 312.929 67.75 315 67.75Z" fill="#567FEF"/>
</g>
<rect x="0.5" y="0.5" width="407" height="127" rx="7.5" stroke="white" stroke-opacity="0.1"/>
<defs>
<filter id="filter0_d_13_35" x="20" y="22" width="368" height="88" filterUnits="userSpaceOnUse" color-interpolation-filters="sRGB">
<feFlood flood-opacity="0" result="BackgroundImageFix"/>
<feColorMatrix in="SourceAlpha" type="matrix" values="0 0 0 0 0 0 0 0 0 0 0 0 0 0 0 0 0 0 127 0" result="hardAlpha"/>
<feOffset dy="2"/>
<feGaussianBlur stdDeviation="2"/>
<feComposite in2="hardAlpha" operator="out"/>
<feColorMatrix type="matrix" values="0 0 0 0 0.188235 0 0 0 0 0.188235 0 0 0 0 0.188235 0 0 0 0.17 0"/>
<feBlend mode="normal" in2="BackgroundImageFix" result="effect1_dropShadow_13_35"/>
<feBlend mode="normal" in="SourceGraphic" in2="effect1_dropShadow_13_35" result="shape"/>
</filter>
</defs>
</svg>
