<svg width="408" height="128" viewBox="0 0 408 128" fill="none" xmlns="http://www.w3.org/2000/svg">
<rect width="408" height="128" rx="8" fill="#F0F0F0"/>
<g filter="url(#filter0_d_13_33)">
<rect x="24" y="24" width="360" height="80" rx="16" fill="#FEFEFE" shape-rendering="crispEdges"/>
<path d="M80.2664 90V79.8182H81.4993V84.3523H86.9283V79.8182H88.1612V90H86.9283V85.446H81.4993V90H80.2664ZM92.8728 90.1591C92.1834 90.1591 91.5785 89.995 91.0582 89.6669C90.5411 89.3388 90.1368 88.8797 89.8451 88.2898C89.5568 87.6998 89.4126 87.0104 89.4126 86.2216C89.4126 85.4261 89.5568 84.7318 89.8451 84.1385C90.1368 83.5452 90.5411 83.0845 91.0582 82.7564C91.5785 82.4283 92.1834 82.2642 92.8728 82.2642C93.5622 82.2642 94.1654 82.4283 94.6825 82.7564C95.2028 83.0845 95.6072 83.5452 95.8955 84.1385C96.1872 84.7318 96.333 85.4261 96.333 86.2216C96.333 87.0104 96.1872 87.6998 95.8955 88.2898C95.6072 88.8797 95.2028 89.3388 94.6825 89.6669C94.1654 89.995 93.5622 90.1591 92.8728 90.1591ZM92.8728 89.1051C93.3965 89.1051 93.8274 88.9709 94.1654 88.7024C94.5035 88.4339 94.7537 88.081 94.9161 87.6435C95.0785 87.206 95.1597 86.732 95.1597 86.2216C95.1597 85.7112 95.0785 85.2356 94.9161 84.7947C94.7537 84.3539 94.5035 83.9976 94.1654 83.7259C93.8274 83.4541 93.3965 83.3182 92.8728 83.3182C92.3491 83.3182 91.9183 83.4541 91.5802 83.7259C91.2421 83.9976 90.9919 84.3539 90.8295 84.7947C90.6671 85.2356 90.5859 85.7112 90.5859 86.2216C90.5859 86.732 90.6671 87.206 90.8295 87.6435C90.9919 88.081 91.2421 88.4339 91.5802 88.7024C91.9183 88.9709 92.3491 89.1051 92.8728 89.1051ZM97.4241 90V82.3636H98.5576V83.5568H98.657C98.8161 83.1491 99.073 82.8326 99.4276 82.6072C99.7822 82.3786 100.208 82.2642 100.705 82.2642C101.209 82.2642 101.628 82.3786 101.963 82.6072C102.301 82.8326 102.565 83.1491 102.754 83.5568H102.833C103.029 83.1624 103.322 82.8492 103.713 82.6172C104.104 82.3819 104.573 82.2642 105.12 82.2642C105.803 82.2642 106.361 82.478 106.796 82.9055C107.23 83.3298 107.447 83.991 107.447 84.8892V90H106.273V84.8892C106.273 84.3258 106.119 83.9231 105.811 83.6811C105.503 83.4392 105.14 83.3182 104.722 83.3182C104.185 83.3182 103.769 83.4806 103.474 83.8054C103.18 84.1269 103.032 84.5346 103.032 85.0284V90H101.839V84.7699C101.839 84.3357 101.698 83.986 101.416 83.7209C101.135 83.4524 100.772 83.3182 100.327 83.3182C100.023 83.3182 99.7375 83.3994 99.4724 83.5618C99.2105 83.7242 98.9984 83.9496 98.836 84.2379C98.6769 84.523 98.5974 84.8527 98.5974 85.2273V90H97.4241ZM112.094 90.1591C111.358 90.1591 110.723 89.9967 110.19 89.6719C109.659 89.3438 109.25 88.8864 108.962 88.2997C108.677 87.7098 108.534 87.0237 108.534 86.2415C108.534 85.4593 108.677 84.7699 108.962 84.1733C109.25 83.5734 109.651 83.1061 110.165 82.7713C110.682 82.4332 111.285 82.2642 111.974 82.2642C112.372 82.2642 112.765 82.3305 113.153 82.4631C113.54 82.5956 113.893 82.8111 114.212 83.1094C114.53 83.4044 114.783 83.7955 114.972 84.2827C115.161 84.7699 115.256 85.3698 115.256 86.0824V86.5795H109.369V85.5653H114.062C114.062 85.1345 113.976 84.75 113.804 84.4119C113.635 84.0739 113.393 83.8071 113.078 83.6115C112.767 83.416 112.399 83.3182 111.974 83.3182C111.507 83.3182 111.103 83.4342 110.761 83.6662C110.423 83.8949 110.163 84.1932 109.981 84.5611C109.799 84.929 109.707 85.3234 109.707 85.7443V86.4205C109.707 86.9972 109.807 87.486 110.006 87.8871C110.208 88.2848 110.488 88.5881 110.846 88.7969C111.204 89.0024 111.62 89.1051 112.094 89.1051C112.402 89.1051 112.68 89.062 112.929 88.9759C113.181 88.8864 113.398 88.7538 113.58 88.5781C113.763 88.3991 113.903 88.1771 114.003 87.9119L115.136 88.2301C115.017 88.6146 114.817 88.9527 114.535 89.2443C114.253 89.5327 113.905 89.758 113.491 89.9205C113.076 90.0795 112.611 90.1591 112.094 90.1591Z" fill="#567FEF"/>
<rect x="69" y="35" width="56" height="40" rx="16" fill="#567FEF"/>
<path d="M96.4697 46.8408C96.7626 46.5479 97.2374 46.5479 97.5303 46.8408L106.22 55.5301C106.513 55.823 106.987 55.823 107.28 55.5301C107.573 55.2372 107.573 54.7623 107.28 54.4694L98.591 45.7801C97.7123 44.9014 96.2877 44.9014 95.409 45.7801L86.7197 54.4694C86.4268 54.7623 86.4268 55.2372 86.7197 55.5301C87.0126 55.823 87.4874 55.823 87.7803 55.5301L96.4697 46.8408Z" fill="white"/>
<path d="M97 48.4318L105.159 56.5908C105.189 56.6205 105.219 56.6492 105.25 56.6769V62.8748C105.25 63.9103 104.411 64.7498 103.375 64.7498H100C99.5858 64.7498 99.25 64.414 99.25 63.9998V59.4998C99.25 59.0856 98.9142 58.7498 98.5 58.7498H95.5C95.0858 58.7498 94.75 59.0856 94.75 59.4998V63.9998C94.75 64.414 94.4142 64.7498 94 64.7498H90.625C89.5895 64.7498 88.75 63.9103 88.75 62.8748V56.6769C88.7809 56.6492 88.8113 56.6205 88.841 56.5908L97 48.4318Z" fill="white"/>
<path d="M146.433 79.8182H147.904L151.364 88.2699H151.484L154.944 79.8182H156.416V90H155.262V82.2642H155.163L151.981 90H150.867L147.685 82.2642H147.586V90H146.433V79.8182ZM161.23 90.1591C160.494 90.1591 159.86 89.9967 159.326 89.6719C158.796 89.3438 158.387 88.8864 158.098 88.2997C157.813 87.7098 157.671 87.0237 157.671 86.2415C157.671 85.4593 157.813 84.7699 158.098 84.1733C158.387 83.5734 158.788 83.1061 159.301 82.7713C159.818 82.4332 160.422 82.2642 161.111 82.2642C161.509 82.2642 161.901 82.3305 162.289 82.4631C162.677 82.5956 163.03 82.8111 163.348 83.1094C163.666 83.4044 163.92 83.7955 164.109 84.2827C164.298 84.7699 164.392 85.3698 164.392 86.0824V86.5795H158.506V85.5653H163.199C163.199 85.1345 163.113 84.75 162.94 84.4119C162.771 84.0739 162.529 83.8071 162.215 83.6115C161.903 83.416 161.535 83.3182 161.111 83.3182C160.644 83.3182 160.239 83.4342 159.898 83.6662C159.56 83.8949 159.3 84.1932 159.117 84.5611C158.935 84.929 158.844 85.3234 158.844 85.7443V86.4205C158.844 86.9972 158.943 87.486 159.142 87.8871C159.344 88.2848 159.624 88.5881 159.982 88.7969C160.34 89.0024 160.756 89.1051 161.23 89.1051C161.538 89.1051 161.817 89.062 162.065 88.9759C162.317 88.8864 162.534 88.7538 162.717 88.5781C162.899 88.3991 163.04 88.1771 163.139 87.9119L164.273 88.2301C164.154 88.6146 163.953 88.9527 163.671 89.2443C163.39 89.5327 163.042 89.758 162.627 89.9205C162.213 90.0795 161.747 90.1591 161.23 90.1591ZM170.886 84.0739L169.832 84.3722C169.766 84.1965 169.668 84.0258 169.539 83.8601C169.413 83.6911 169.24 83.5518 169.022 83.4425C168.803 83.3331 168.523 83.2784 168.182 83.2784C167.714 83.2784 167.325 83.3861 167.013 83.6016C166.705 83.8137 166.551 84.0838 166.551 84.4119C166.551 84.7036 166.657 84.9339 166.869 85.103C167.081 85.272 167.413 85.4129 167.863 85.5256L168.997 85.804C169.68 85.9697 170.188 86.2232 170.523 86.5646C170.858 86.9027 171.025 87.3385 171.025 87.8722C171.025 88.3097 170.899 88.7008 170.647 89.0455C170.399 89.3902 170.051 89.6619 169.603 89.8608C169.156 90.0597 168.636 90.1591 168.042 90.1591C167.263 90.1591 166.619 89.9901 166.108 89.652C165.598 89.3139 165.275 88.8201 165.139 88.1705L166.253 87.892C166.359 88.303 166.559 88.6113 166.854 88.8168C167.152 89.0223 167.542 89.125 168.022 89.125C168.569 89.125 169.004 89.009 169.325 88.777C169.65 88.5417 169.812 88.2599 169.812 87.9318C169.812 87.6667 169.719 87.4446 169.534 87.2656C169.348 87.0833 169.063 86.9474 168.679 86.858L167.406 86.5597C166.707 86.3939 166.193 86.1371 165.865 85.7891C165.54 85.4377 165.378 84.9986 165.378 84.4716C165.378 84.0407 165.499 83.6596 165.74 83.3281C165.986 82.9967 166.319 82.7365 166.74 82.5476C167.164 82.3587 167.645 82.2642 168.182 82.2642C168.937 82.2642 169.53 82.4299 169.961 82.7614C170.396 83.0928 170.704 83.5303 170.886 84.0739ZM177.501 84.0739L176.447 84.3722C176.38 84.1965 176.282 84.0258 176.153 83.8601C176.027 83.6911 175.855 83.5518 175.636 83.4425C175.417 83.3331 175.137 83.2784 174.796 83.2784C174.329 83.2784 173.939 83.3861 173.628 83.6016C173.319 83.8137 173.165 84.0838 173.165 84.4119C173.165 84.7036 173.271 84.9339 173.483 85.103C173.696 85.272 174.027 85.4129 174.478 85.5256L175.611 85.804C176.294 85.9697 176.803 86.2232 177.138 86.5646C177.472 86.9027 177.64 87.3385 177.64 87.8722C177.64 88.3097 177.514 88.7008 177.262 89.0455C177.013 89.3902 176.665 89.6619 176.218 89.8608C175.77 90.0597 175.25 90.1591 174.657 90.1591C173.878 90.1591 173.233 89.9901 172.723 89.652C172.212 89.3139 171.889 88.8201 171.753 88.1705L172.867 87.892C172.973 88.303 173.174 88.6113 173.469 88.8168C173.767 89.0223 174.156 89.125 174.637 89.125C175.184 89.125 175.618 89.009 175.939 88.777C176.264 88.5417 176.427 88.2599 176.427 87.9318C176.427 87.6667 176.334 87.4446 176.148 87.2656C175.963 87.0833 175.678 86.9474 175.293 86.858L174.02 86.5597C173.321 86.3939 172.807 86.1371 172.479 85.7891C172.154 85.4377 171.992 84.9986 171.992 84.4716C171.992 84.0407 172.113 83.6596 172.355 83.3281C172.6 82.9967 172.933 82.7365 173.354 82.5476C173.778 82.3587 174.259 82.2642 174.796 82.2642C175.552 82.2642 176.145 82.4299 176.576 82.7614C177.01 83.0928 177.318 83.5303 177.501 84.0739ZM180.953 90.179C180.469 90.179 180.03 90.0878 179.636 89.9055C179.241 89.7199 178.928 89.4531 178.696 89.1051C178.464 88.7538 178.348 88.3295 178.348 87.8324C178.348 87.3949 178.434 87.0402 178.606 86.7685C178.779 86.4934 179.009 86.2779 179.298 86.1222C179.586 85.9664 179.904 85.8504 180.252 85.7741C180.603 85.6946 180.956 85.6316 181.311 85.5852C181.775 85.5256 182.151 85.4808 182.44 85.451C182.731 85.4179 182.943 85.3632 183.076 85.2869C183.212 85.2107 183.28 85.0781 183.28 84.8892V84.8494C183.28 84.3589 183.146 83.9777 182.877 83.706C182.612 83.4342 182.209 83.2983 181.669 83.2983C181.109 83.2983 180.67 83.4209 180.351 83.6662C180.033 83.9115 179.81 84.1733 179.68 84.4517L178.567 84.054C178.766 83.59 179.031 83.2287 179.362 82.9702C179.697 82.7083 180.061 82.526 180.456 82.4233C180.854 82.3172 181.245 82.2642 181.629 82.2642C181.874 82.2642 182.156 82.294 182.474 82.3537C182.796 82.41 183.106 82.5277 183.404 82.7067C183.706 82.8857 183.956 83.1558 184.155 83.517C184.354 83.8783 184.453 84.3622 184.453 84.9688V90H183.28V88.9659H183.22C183.141 89.1316 183.008 89.3089 182.822 89.4979C182.637 89.6868 182.39 89.8475 182.082 89.9801C181.773 90.1127 181.397 90.179 180.953 90.179ZM181.132 89.125C181.596 89.125 181.987 89.0339 182.305 88.8516C182.627 88.6693 182.869 88.4339 183.031 88.1456C183.197 87.8572 183.28 87.554 183.28 87.2358V86.1619C183.23 86.2216 183.121 86.2763 182.952 86.326C182.786 86.3724 182.594 86.4138 182.375 86.4503C182.159 86.4834 181.949 86.5133 181.744 86.5398C181.541 86.563 181.377 86.5829 181.251 86.5994C180.946 86.6392 180.661 86.7038 180.396 86.7933C180.134 86.8795 179.922 87.0104 179.76 87.1861C179.601 87.3584 179.521 87.5937 179.521 87.892C179.521 88.2997 179.672 88.608 179.974 88.8168C180.279 89.0223 180.665 89.125 181.132 89.125ZM188.977 93.0227C188.41 93.0227 187.923 92.9498 187.515 92.804C187.108 92.6615 186.768 92.4725 186.496 92.2372C186.228 92.0052 186.014 91.7566 185.855 91.4915L186.789 90.8352C186.896 90.9744 187.03 91.1335 187.192 91.3125C187.355 91.4948 187.577 91.6522 187.858 91.7848C188.143 91.9207 188.516 91.9886 188.977 91.9886C189.593 91.9886 190.102 91.8395 190.503 91.5412C190.904 91.2429 191.105 90.7756 191.105 90.1392V88.5881H191.005C190.919 88.7273 190.797 88.8996 190.637 89.1051C190.482 89.3073 190.256 89.4879 189.961 89.647C189.67 89.8028 189.275 89.8807 188.778 89.8807C188.162 89.8807 187.608 89.7348 187.118 89.4432C186.63 89.1515 186.244 88.7273 185.959 88.1705C185.677 87.6136 185.537 86.9375 185.537 86.142C185.537 85.3598 185.674 84.6787 185.949 84.0987C186.224 83.5154 186.607 83.0646 187.098 82.7464C187.588 82.425 188.155 82.2642 188.798 82.2642C189.295 82.2642 189.69 82.3471 189.981 82.5128C190.276 82.6752 190.502 82.8608 190.657 83.0696C190.816 83.2751 190.939 83.4441 191.025 83.5767H191.145V82.3636H192.278V90.2188C192.278 90.875 192.129 91.4086 191.831 91.8196C191.536 92.2339 191.138 92.5372 190.637 92.7294C190.14 92.925 189.587 93.0227 188.977 93.0227ZM188.937 88.8267C189.408 88.8267 189.806 88.719 190.13 88.5036C190.455 88.2881 190.702 87.9782 190.871 87.5739C191.04 87.1695 191.125 86.6856 191.125 86.1222C191.125 85.572 191.042 85.0864 190.876 84.6655C190.71 84.2446 190.465 83.9148 190.14 83.6761C189.815 83.4375 189.414 83.3182 188.937 83.3182C188.44 83.3182 188.026 83.4441 187.694 83.696C187.366 83.9479 187.119 84.286 186.954 84.7102C186.791 85.1345 186.71 85.6051 186.71 86.1222C186.71 86.6525 186.793 87.1214 186.958 87.5291C187.128 87.9335 187.376 88.2517 187.704 88.4837C188.036 88.7124 188.447 88.8267 188.937 88.8267ZM196.928 90.1591C196.192 90.1591 195.557 89.9967 195.023 89.6719C194.493 89.3438 194.084 88.8864 193.795 88.2997C193.51 87.7098 193.368 87.0237 193.368 86.2415C193.368 85.4593 193.51 84.7699 193.795 84.1733C194.084 83.5734 194.485 83.1061 194.999 82.7713C195.516 82.4332 196.119 82.2642 196.808 82.2642C197.206 82.2642 197.599 82.3305 197.986 82.4631C198.374 82.5956 198.727 82.8111 199.045 83.1094C199.364 83.4044 199.617 83.7955 199.806 84.2827C199.995 84.7699 200.089 85.3698 200.089 86.0824V86.5795H194.203V85.5653H198.896C198.896 85.1345 198.81 84.75 198.638 84.4119C198.469 84.0739 198.227 83.8071 197.912 83.6115C197.6 83.416 197.232 83.3182 196.808 83.3182C196.341 83.3182 195.937 83.4342 195.595 83.6662C195.257 83.8949 194.997 84.1932 194.815 84.5611C194.632 84.929 194.541 85.3234 194.541 85.7443V86.4205C194.541 86.9972 194.641 87.486 194.839 87.8871C195.042 88.2848 195.322 88.5881 195.68 88.7969C196.038 89.0024 196.454 89.1051 196.928 89.1051C197.236 89.1051 197.514 89.062 197.763 88.9759C198.015 88.8864 198.232 88.7538 198.414 88.5781C198.596 88.3991 198.737 88.1771 198.837 87.9119L199.97 88.2301C199.851 88.6146 199.65 88.9527 199.369 89.2443C199.087 89.5327 198.739 89.758 198.325 89.9205C197.91 90.0795 197.445 90.1591 196.928 90.1591Z" fill="#567FEF"/>
<path d="M162.5 51.6691V60.25C162.5 61.9069 163.843 63.25 165.5 63.25H180.5C182.157 63.25 183.5 61.9069 183.5 60.25V51.6691L174.572 57.1631C173.608 57.7564 172.392 57.7564 171.428 57.1631L162.5 51.6691Z" fill="#567FEF"/>
<path d="M183.5 49.9078V49.75C183.5 48.0932 182.157 46.75 180.5 46.75H165.5C163.843 46.75 162.5 48.0932 162.5 49.75V49.9078L172.214 55.8856C172.696 56.1823 173.304 56.1823 173.786 55.8856L183.5 49.9078Z" fill="#567FEF"/>
<path d="M230.721 83H229.488C229.416 82.6454 229.288 82.3338 229.106 82.0653C228.927 81.7969 228.708 81.5715 228.449 81.3892C228.194 81.2036 227.911 81.0644 227.599 80.9716C227.288 80.8788 226.963 80.8324 226.625 80.8324C226.008 80.8324 225.45 80.9882 224.949 81.2997C224.452 81.6113 224.056 82.0703 223.761 82.6768C223.47 83.2834 223.324 84.0275 223.324 84.9091C223.324 85.7907 223.47 86.5348 223.761 87.1413C224.056 87.7479 224.452 88.2069 224.949 88.5185C225.45 88.83 226.008 88.9858 226.625 88.9858C226.963 88.9858 227.288 88.9394 227.599 88.8466C227.911 88.7538 228.194 88.6162 228.449 88.4339C228.708 88.2483 228.927 88.0213 229.106 87.7528C229.288 87.4811 229.416 87.1695 229.488 86.8182H230.721C230.629 87.3385 230.46 87.8042 230.214 88.2152C229.969 88.6262 229.664 88.9759 229.3 89.2642C228.935 89.5492 228.526 89.7663 228.072 89.9155C227.621 90.0646 227.139 90.1392 226.625 90.1392C225.756 90.1392 224.984 89.9271 224.308 89.5028C223.632 89.0786 223.1 88.4754 222.712 87.6932C222.324 86.911 222.131 85.983 222.131 84.9091C222.131 83.8352 222.324 82.9072 222.712 82.125C223.1 81.3428 223.632 80.7396 224.308 80.3153C224.984 79.8911 225.756 79.679 226.625 79.679C227.139 79.679 227.621 79.7536 228.072 79.9027C228.526 80.0518 228.935 80.2706 229.3 80.5589C229.664 80.844 229.969 81.192 230.214 81.603C230.46 82.0107 230.629 82.4763 230.721 83ZM234.957 90.1591C234.268 90.1591 233.663 89.995 233.142 89.6669C232.625 89.3388 232.221 88.8797 231.929 88.2898C231.641 87.6998 231.497 87.0104 231.497 86.2216C231.497 85.4261 231.641 84.7318 231.929 84.1385C232.221 83.5452 232.625 83.0845 233.142 82.7564C233.663 82.4283 234.268 82.2642 234.957 82.2642C235.646 82.2642 236.25 82.4283 236.767 82.7564C237.287 83.0845 237.691 83.5452 237.98 84.1385C238.271 84.7318 238.417 85.4261 238.417 86.2216C238.417 87.0104 238.271 87.6998 237.98 88.2898C237.691 88.8797 237.287 89.3388 236.767 89.6669C236.25 89.995 235.646 90.1591 234.957 90.1591ZM234.957 89.1051C235.481 89.1051 235.912 88.9709 236.25 88.7024C236.588 88.4339 236.838 88.081 237 87.6435C237.163 87.206 237.244 86.732 237.244 86.2216C237.244 85.7112 237.163 85.2356 237 84.7947C236.838 84.3539 236.588 83.9976 236.25 83.7259C235.912 83.4541 235.481 83.3182 234.957 83.3182C234.433 83.3182 234.002 83.4541 233.664 83.7259C233.326 83.9976 233.076 84.3539 232.914 84.7947C232.751 85.2356 232.67 85.7112 232.67 86.2216C232.67 86.732 232.751 87.206 232.914 87.6435C233.076 88.081 233.326 88.4339 233.664 88.7024C234.002 88.9709 234.433 89.1051 234.957 89.1051ZM240.682 85.4062V90H239.508V82.3636H240.642V83.5568H240.741C240.92 83.169 241.192 82.8575 241.557 82.6222C241.921 82.3835 242.392 82.2642 242.968 82.2642C243.486 82.2642 243.938 82.3703 244.326 82.5824C244.713 82.7912 245.015 83.1094 245.231 83.5369C245.446 83.9612 245.554 84.4981 245.554 85.1477V90H244.38V85.2273C244.38 84.6274 244.225 84.16 243.913 83.8253C243.602 83.4872 243.174 83.3182 242.63 83.3182C242.256 83.3182 241.921 83.3994 241.626 83.5618C241.334 83.7242 241.104 83.9612 240.935 84.2727C240.766 84.5843 240.682 84.9621 240.682 85.4062ZM250.319 82.3636V83.358H246.361V82.3636H250.319ZM247.515 80.5341H248.688V87.8125C248.688 88.1439 248.736 88.3925 248.832 88.5582C248.932 88.7206 249.058 88.83 249.21 88.8864C249.366 88.9394 249.53 88.9659 249.702 88.9659C249.831 88.9659 249.938 88.9593 250.02 88.946C250.103 88.9295 250.17 88.9162 250.219 88.9062L250.458 89.9602C250.378 89.9901 250.267 90.0199 250.125 90.0497C249.982 90.0829 249.802 90.0994 249.583 90.0994C249.251 90.0994 248.927 90.0282 248.608 89.8857C248.294 89.7431 248.032 89.526 247.823 89.2344C247.617 88.9427 247.515 88.5748 247.515 88.1307V80.5341ZM253.631 90.179C253.147 90.179 252.708 90.0878 252.313 89.9055C251.919 89.7199 251.606 89.4531 251.374 89.1051C251.142 88.7538 251.026 88.3295 251.026 87.8324C251.026 87.3949 251.112 87.0402 251.284 86.7685C251.457 86.4934 251.687 86.2779 251.975 86.1222C252.264 85.9664 252.582 85.8504 252.93 85.7741C253.281 85.6946 253.634 85.6316 253.989 85.5852C254.453 85.5256 254.829 85.4808 255.117 85.451C255.409 85.4179 255.621 85.3632 255.754 85.2869C255.89 85.2107 255.957 85.0781 255.957 84.8892V84.8494C255.957 84.3589 255.823 83.9777 255.555 83.706C255.29 83.4342 254.887 83.2983 254.347 83.2983C253.787 83.2983 253.347 83.4209 253.029 83.6662C252.711 83.9115 252.487 84.1733 252.358 84.4517L251.244 84.054C251.443 83.59 251.708 83.2287 252.04 82.9702C252.375 82.7083 252.739 82.526 253.134 82.4233C253.531 82.3172 253.922 82.2642 254.307 82.2642C254.552 82.2642 254.834 82.294 255.152 82.3537C255.474 82.41 255.783 82.5277 256.082 82.7067C256.383 82.8857 256.634 83.1558 256.832 83.517C257.031 83.8783 257.131 84.3622 257.131 84.9688V90H255.957V88.9659H255.898C255.818 89.1316 255.686 89.3089 255.5 89.4979C255.315 89.6868 255.068 89.8475 254.759 89.9801C254.451 90.1127 254.075 90.179 253.631 90.179ZM253.81 89.125C254.274 89.125 254.665 89.0339 254.983 88.8516C255.305 88.6693 255.547 88.4339 255.709 88.1456C255.875 87.8572 255.957 87.554 255.957 87.2358V86.1619C255.908 86.2216 255.798 86.2763 255.629 86.326C255.464 86.3724 255.271 86.4138 255.053 86.4503C254.837 86.4834 254.627 86.5133 254.421 86.5398C254.219 86.563 254.055 86.5829 253.929 86.5994C253.624 86.6392 253.339 86.7038 253.074 86.7933C252.812 86.8795 252.6 87.0104 252.438 87.1861C252.279 87.3584 252.199 87.5937 252.199 87.892C252.199 88.2997 252.35 88.608 252.651 88.8168C252.956 89.0223 253.342 89.125 253.81 89.125ZM261.675 90.1591C260.959 90.1591 260.342 89.9901 259.825 89.652C259.308 89.3139 258.91 88.8482 258.632 88.255C258.354 87.6617 258.214 86.9839 258.214 86.2216C258.214 85.446 258.357 84.7616 258.642 84.1683C258.93 83.5717 259.331 83.1061 259.845 82.7713C260.362 82.4332 260.965 82.2642 261.655 82.2642C262.192 82.2642 262.676 82.3636 263.106 82.5625C263.537 82.7614 263.89 83.0398 264.165 83.3977C264.44 83.7557 264.611 84.1733 264.677 84.6506H263.504C263.415 84.3026 263.216 83.9943 262.908 83.7259C262.603 83.4541 262.192 83.3182 261.675 83.3182C261.217 83.3182 260.816 83.4375 260.471 83.6761C260.13 83.9115 259.863 84.2446 259.671 84.6754C259.482 85.103 259.388 85.6051 259.388 86.1818C259.388 86.7718 259.48 87.2855 259.666 87.723C259.855 88.1605 260.12 88.5002 260.462 88.7422C260.806 88.9841 261.211 89.1051 261.675 89.1051C261.979 89.1051 262.256 89.0521 262.505 88.946C262.753 88.84 262.964 88.6875 263.136 88.4886C263.309 88.2898 263.431 88.0511 263.504 87.7727H264.677C264.611 88.2235 264.447 88.6295 264.185 88.9908C263.927 89.3487 263.584 89.6338 263.156 89.8459C262.732 90.0547 262.238 90.1591 261.675 90.1591ZM269.014 82.3636V83.358H265.056V82.3636H269.014ZM266.21 80.5341H267.383V87.8125C267.383 88.1439 267.431 88.3925 267.527 88.5582C267.627 88.7206 267.753 88.83 267.905 88.8864C268.061 88.9394 268.225 88.9659 268.397 88.9659C268.526 88.9659 268.632 88.9593 268.715 88.946C268.798 88.9295 268.864 88.9162 268.914 88.9062L269.153 89.9602C269.073 89.9901 268.962 90.0199 268.82 90.0497C268.677 90.0829 268.497 90.0994 268.278 90.0994C267.946 90.0994 267.622 90.0282 267.303 89.8857C266.989 89.7431 266.727 89.526 266.518 89.2344C266.312 88.9427 266.21 88.5748 266.21 88.1307V80.5341Z" fill="#567FEF"/>
<path fill-rule="evenodd" clip-rule="evenodd" d="M240.5 49C240.5 46.5147 242.515 44.5 245 44.5C247.485 44.5 249.5 46.5147 249.5 49C249.5 51.4853 247.485 53.5 245 53.5C242.515 53.5 240.5 51.4853 240.5 49Z" fill="#567FEF"/>
<path fill-rule="evenodd" clip-rule="evenodd" d="M236.751 63.1053C236.828 58.6156 240.492 55 245 55C249.508 55 253.171 58.6157 253.249 63.1056C253.254 63.4034 253.082 63.676 252.811 63.8002C250.433 64.8918 247.786 65.5 245 65.5C242.214 65.5 239.567 64.8917 237.188 63.7999C236.917 63.6757 236.746 63.4031 236.751 63.1053Z" fill="#567FEF"/>
<path d="M296.948 82.3636C296.889 81.8598 296.647 81.4688 296.223 81.1903C295.798 80.9119 295.278 80.7727 294.661 80.7727C294.211 80.7727 293.816 80.8456 293.478 80.9915C293.143 81.1373 292.882 81.3378 292.693 81.593C292.507 81.8482 292.414 82.1383 292.414 82.4631C292.414 82.7348 292.479 82.9685 292.608 83.1641C292.741 83.3563 292.91 83.517 293.115 83.6463C293.321 83.7723 293.536 83.8767 293.762 83.9595C293.987 84.0391 294.194 84.1037 294.383 84.1534L295.417 84.4318C295.682 84.5014 295.977 84.5975 296.302 84.7202C296.63 84.8428 296.943 85.0102 297.242 85.2223C297.543 85.4311 297.792 85.6996 297.987 86.0277C298.183 86.3558 298.281 86.7585 298.281 87.2358C298.281 87.786 298.137 88.2831 297.848 88.7273C297.563 89.1714 297.146 89.5244 296.595 89.7862C296.049 90.0481 295.384 90.179 294.602 90.179C293.873 90.179 293.241 90.0613 292.708 89.826C292.177 89.5907 291.76 89.2625 291.455 88.8416C291.153 88.4207 290.982 87.9318 290.943 87.375H292.215C292.249 87.7595 292.378 88.0777 292.603 88.3295C292.832 88.5781 293.12 88.7637 293.468 88.8864C293.82 89.0057 294.197 89.0653 294.602 89.0653C295.072 89.0653 295.495 88.9891 295.87 88.8366C296.244 88.6809 296.541 88.4654 296.759 88.1903C296.978 87.9119 297.088 87.5871 297.088 87.2159C297.088 86.8778 296.993 86.6027 296.804 86.3906C296.615 86.1785 296.367 86.0062 296.058 85.8736C295.75 85.741 295.417 85.625 295.059 85.5256L293.806 85.1676C293.011 84.9389 292.381 84.6125 291.917 84.1882C291.453 83.764 291.221 83.2088 291.221 82.5227C291.221 81.9527 291.375 81.4555 291.683 81.0312C291.995 80.6037 292.413 80.2723 292.936 80.0369C293.463 79.7983 294.052 79.679 294.701 79.679C295.357 79.679 295.941 79.7966 296.451 80.032C296.962 80.264 297.366 80.5821 297.664 80.9865C297.966 81.3909 298.125 81.8499 298.142 82.3636H296.948ZM302.651 90.1591C301.915 90.1591 301.28 89.9967 300.746 89.6719C300.216 89.3438 299.807 88.8864 299.518 88.2997C299.233 87.7098 299.091 87.0237 299.091 86.2415C299.091 85.4593 299.233 84.7699 299.518 84.1733C299.807 83.5734 300.208 83.1061 300.722 82.7713C301.239 82.4332 301.842 82.2642 302.531 82.2642C302.929 82.2642 303.322 82.3305 303.71 82.4631C304.097 82.5956 304.45 82.8111 304.768 83.1094C305.087 83.4044 305.34 83.7955 305.529 84.2827C305.718 84.7699 305.813 85.3698 305.813 86.0824V86.5795H299.926V85.5653H304.619C304.619 85.1345 304.533 84.75 304.361 84.4119C304.192 84.0739 303.95 83.8071 303.635 83.6115C303.323 83.416 302.955 83.3182 302.531 83.3182C302.064 83.3182 301.66 83.4342 301.318 83.6662C300.98 83.8949 300.72 84.1932 300.538 84.5611C300.355 84.929 300.264 85.3234 300.264 85.7443V86.4205C300.264 86.9972 300.364 87.486 300.563 87.8871C300.765 88.2848 301.045 88.5881 301.403 88.7969C301.761 89.0024 302.177 89.1051 302.651 89.1051C302.959 89.1051 303.237 89.062 303.486 88.9759C303.738 88.8864 303.955 88.7538 304.137 88.5781C304.319 88.3991 304.46 88.1771 304.56 87.9119L305.693 88.2301C305.574 88.6146 305.373 88.9527 305.092 89.2443C304.81 89.5327 304.462 89.758 304.048 89.9205C303.633 90.0795 303.168 90.1591 302.651 90.1591ZM310.218 82.3636V83.358H306.261V82.3636H310.218ZM307.414 80.5341H308.588V87.8125C308.588 88.1439 308.636 88.3925 308.732 88.5582C308.831 88.7206 308.957 88.83 309.11 88.8864C309.265 88.9394 309.429 88.9659 309.602 88.9659C309.731 88.9659 309.837 88.9593 309.92 88.946C310.003 88.9295 310.069 88.9162 310.119 88.9062L310.358 89.9602C310.278 89.9901 310.167 90.0199 310.024 90.0497C309.882 90.0829 309.701 90.0994 309.483 90.0994C309.151 90.0994 308.826 90.0282 308.508 89.8857C308.193 89.7431 307.931 89.526 307.723 89.2344C307.517 88.9427 307.414 88.5748 307.414 88.1307V80.5341ZM314.604 82.3636V83.358H310.647V82.3636H314.604ZM311.8 80.5341H312.974V87.8125C312.974 88.1439 313.022 88.3925 313.118 88.5582C313.217 88.7206 313.343 88.83 313.496 88.8864C313.651 88.9394 313.815 88.9659 313.988 88.9659C314.117 88.9659 314.223 88.9593 314.306 88.946C314.389 88.9295 314.455 88.9162 314.505 88.9062L314.743 89.9602C314.664 89.9901 314.553 90.0199 314.41 90.0497C314.268 90.0829 314.087 90.0994 313.868 90.0994C313.537 90.0994 313.212 90.0282 312.894 89.8857C312.579 89.7431 312.317 89.526 312.109 89.2344C311.903 88.9427 311.8 88.5748 311.8 88.1307V80.5341ZM315.669 90V82.3636H316.842V90H315.669ZM316.266 81.0909C316.037 81.0909 315.84 81.013 315.674 80.8572C315.512 80.7015 315.431 80.5142 315.431 80.2955C315.431 80.0767 315.512 79.8894 315.674 79.7337C315.84 79.5779 316.037 79.5 316.266 79.5C316.494 79.5 316.69 79.5779 316.852 79.7337C317.018 79.8894 317.101 80.0767 317.101 80.2955C317.101 80.5142 317.018 80.7015 316.852 80.8572C316.69 81.013 316.494 81.0909 316.266 81.0909ZM319.465 85.4062V90H318.291V82.3636H319.425V83.5568H319.524C319.703 83.169 319.975 82.8575 320.34 82.6222C320.704 82.3835 321.175 82.2642 321.752 82.2642C322.269 82.2642 322.721 82.3703 323.109 82.5824C323.497 82.7912 323.798 83.1094 324.014 83.5369C324.229 83.9612 324.337 84.4981 324.337 85.1477V90H323.164V85.2273C323.164 84.6274 323.008 84.16 322.696 83.8253C322.385 83.4872 321.957 83.3182 321.414 83.3182C321.039 83.3182 320.704 83.3994 320.409 83.5618C320.118 83.7242 319.887 83.9612 319.718 84.2727C319.549 84.5843 319.465 84.9621 319.465 85.4062ZM328.863 93.0227C328.297 93.0227 327.809 92.9498 327.402 92.804C326.994 92.6615 326.654 92.4725 326.382 92.2372C326.114 92.0052 325.9 91.7566 325.741 91.4915L326.676 90.8352C326.782 90.9744 326.916 91.1335 327.078 91.3125C327.241 91.4948 327.463 91.6522 327.745 91.7848C328.03 91.9207 328.403 91.9886 328.863 91.9886C329.48 91.9886 329.989 91.8395 330.39 91.5412C330.791 91.2429 330.991 90.7756 330.991 90.1392V88.5881H330.892C330.806 88.7273 330.683 88.8996 330.524 89.1051C330.368 89.3073 330.143 89.4879 329.848 89.647C329.556 89.8028 329.162 89.8807 328.664 89.8807C328.048 89.8807 327.494 89.7348 327.004 89.4432C326.517 89.1515 326.131 88.7273 325.846 88.1705C325.564 87.6136 325.423 86.9375 325.423 86.142C325.423 85.3598 325.56 84.6787 325.836 84.0987C326.111 83.5154 326.493 83.0646 326.984 82.7464C327.475 82.425 328.041 82.2642 328.684 82.2642C329.181 82.2642 329.576 82.3471 329.868 82.5128C330.163 82.6752 330.388 82.8608 330.544 83.0696C330.703 83.2751 330.825 83.4441 330.912 83.5767H331.031V82.3636H332.164V90.2188C332.164 90.875 332.015 91.4086 331.717 91.8196C331.422 92.2339 331.024 92.5372 330.524 92.7294C330.027 92.925 329.473 93.0227 328.863 93.0227ZM328.824 88.8267C329.294 88.8267 329.692 88.719 330.017 88.5036C330.342 88.2881 330.588 87.9782 330.757 87.5739C330.926 87.1695 331.011 86.6856 331.011 86.1222C331.011 85.572 330.928 85.0864 330.762 84.6655C330.597 84.2446 330.351 83.9148 330.027 83.6761C329.702 83.4375 329.301 83.3182 328.824 83.3182C328.326 83.3182 327.912 83.4441 327.581 83.696C327.252 83.9479 327.006 84.286 326.84 84.7102C326.677 85.1345 326.596 85.6051 326.596 86.1222C326.596 86.6525 326.679 87.1214 326.845 87.5291C327.014 87.9335 327.262 88.2517 327.591 88.4837C327.922 88.7124 328.333 88.8267 328.824 88.8267ZM339.021 84.0739L337.967 84.3722C337.901 84.1965 337.803 84.0258 337.674 83.8601C337.548 83.6911 337.376 83.5518 337.157 83.4425C336.938 83.3331 336.658 83.2784 336.317 83.2784C335.849 83.2784 335.46 83.3861 335.148 83.6016C334.84 83.8137 334.686 84.0838 334.686 84.4119C334.686 84.7036 334.792 84.9339 335.004 85.103C335.216 85.272 335.548 85.4129 335.999 85.5256L337.132 85.804C337.815 85.9697 338.324 86.2232 338.658 86.5646C338.993 86.9027 339.16 87.3385 339.16 87.8722C339.16 88.3097 339.034 88.7008 338.783 89.0455C338.534 89.3902 338.186 89.6619 337.739 89.8608C337.291 90.0597 336.771 90.1591 336.177 90.1591C335.399 90.1591 334.754 89.9901 334.244 89.652C333.733 89.3139 333.41 88.8201 333.274 88.1705L334.388 87.892C334.494 88.303 334.694 88.6113 334.989 88.8168C335.288 89.0223 335.677 89.125 336.158 89.125C336.704 89.125 337.139 89.009 337.46 88.777C337.785 88.5417 337.947 88.2599 337.947 87.9318C337.947 87.6667 337.855 87.4446 337.669 87.2656C337.483 87.0833 337.198 86.9474 336.814 86.858L335.541 86.5597C334.842 86.3939 334.328 86.1371 334 85.7891C333.675 85.4377 333.513 84.9986 333.513 84.4716C333.513 84.0407 333.634 83.6596 333.876 83.3281C334.121 82.9967 334.454 82.7365 334.875 82.5476C335.299 82.3587 335.78 82.2642 336.317 82.2642C337.072 82.2642 337.666 82.4299 338.097 82.7614C338.531 83.0928 338.839 83.5303 339.021 84.0739Z" fill="#567FEF"/>
<path fill-rule="evenodd" clip-rule="evenodd" d="M314.078 45.25C313.161 45.25 312.379 45.9127 312.229 46.8168L312.05 47.8887C312.03 48.0096 311.936 48.1498 311.753 48.2375C311.409 48.4029 311.08 48.5938 310.768 48.8076C310.601 48.9216 310.433 48.9332 310.318 48.8902L309.299 48.5083C308.44 48.1868 307.475 48.5329 307.017 49.3267L306.095 50.9236C305.637 51.7174 305.82 52.7261 306.527 53.3087L307.368 54.0006C307.462 54.0785 307.536 54.2298 307.521 54.4307C307.507 54.6188 307.5 54.8086 307.5 55C307.5 55.1915 307.507 55.3814 307.521 55.5695C307.536 55.7704 307.462 55.9217 307.368 55.9996L306.527 56.6916C305.82 57.2741 305.637 58.2829 306.095 59.0767L307.017 60.6736C307.475 61.4674 308.44 61.8135 309.299 61.4919L310.318 61.11C310.433 61.067 310.601 61.0786 310.768 61.1925C311.08 61.4063 311.409 61.5971 311.753 61.7625C311.936 61.8502 312.03 61.9904 312.05 62.1113L312.229 63.1832C312.379 64.0874 313.161 64.75 314.078 64.75H315.922C316.839 64.75 317.621 64.0874 317.771 63.1832L317.95 62.1113C317.97 61.9904 318.064 61.8502 318.247 61.7625C318.591 61.5971 318.92 61.4062 319.233 61.1924C319.399 61.0784 319.567 61.0668 319.682 61.1098L320.701 61.4917C321.56 61.8132 322.525 61.4671 322.983 60.6733L323.905 59.0764C324.363 58.2826 324.181 57.2739 323.473 56.6913L322.632 55.9994C322.538 55.9215 322.464 55.7702 322.479 55.5693C322.493 55.3812 322.5 55.1914 322.5 55C322.5 54.8085 322.493 54.6186 322.479 54.4305C322.464 54.2296 322.538 54.0783 322.632 54.0004L323.473 53.3084C324.181 52.7259 324.363 51.7171 323.905 50.9233L322.983 49.3264C322.525 48.5326 321.56 48.1865 320.701 48.5081L319.682 48.89C319.567 48.933 319.399 48.9214 319.232 48.8075C318.92 48.5937 318.591 48.4029 318.247 48.2375C318.064 48.1498 317.97 48.0096 317.95 47.8887L317.771 46.8168C317.621 45.9127 316.839 45.25 315.922 45.25H314.078ZM315 58.75C317.071 58.75 318.75 57.0711 318.75 55C318.75 52.9289 317.071 51.25 315 51.25C312.929 51.25 311.25 52.9289 311.25 55C311.25 57.0711 312.929 58.75 315 58.75Z" fill="#567FEF"/>
</g>
<rect x="0.5" y="0.5" width="407" height="127" rx="7.5" stroke="white" stroke-opacity="0.1"/>
<defs>
<filter id="filter0_d_13_33" x="20" y="22" width="368" height="88" filterUnits="userSpaceOnUse" color-interpolation-filters="sRGB">
<feFlood flood-opacity="0" result="BackgroundImageFix"/>
<feColorMatrix in="SourceAlpha" type="matrix" values="0 0 0 0 0 0 0 0 0 0 0 0 0 0 0 0 0 0 127 0" result="hardAlpha"/>
<feOffset dy="2"/>
<feGaussianBlur stdDeviation="2"/>
<feComposite in2="hardAlpha" operator="out"/>
<feColorMatrix type="matrix" values="0 0 0 0 0.188235 0 0 0 0 0.188235 0 0 0 0 0.188235 0 0 0 0.17 0"/>
<feBlend mode="normal" in2="BackgroundImageFix" result="effect1_dropShadow_13_33"/>
<feBlend mode="normal" in="SourceGraphic" in2="effect1_dropShadow_13_33" result="shape"/>
</filter>
</defs>
</svg>
